<svg xmlns="http://www.w3.org/2000/svg" viewBox="0 0 231.3 231.3"><defs><style>.cls-1{fill:#fff;}.cls-2{fill:#335898;}.cls-3{fill:#fefefe;}.cls-4{fill:#335899;}.cls-5{fill:#34599a;}.cls-6{fill:#355999;}.cls-7{fill:#345899;}.cls-8{fill:#345898;}.cls-9{fill:#c0c2d4;}.cls-10{fill:#f9fafb;}.cls-11{fill:#abcee1;}.cls-12{fill:#3a5c9b;}.cls-13{fill:#45629d;}.cls-14{fill:#4a669f;}.cls-15{fill:#fcfcfd;}.cls-16{fill:#f6f9f9;}.cls-17{fill:#afcddd;}.cls-18{fill:#fafbfc;}.cls-19{fill:#102751;}.cls-20{fill:#0f2650;}.cls-21{fill:#fdfdfd;}.cls-22{fill:#628fa5;}</style></defs><title>logosquare2</title><g id="Layer_2" data-name="Layer 2"><g id="Layer_23" data-name="Layer 23"><rect class="cls-1" width="231.3" height="231.27"/><path class="cls-1" d="M114.5,87.6a13.2,13.2,0,0,1-2-1.2,2.1,2.1,0,0,1-.7-1.2c-.4-2,1.6-5.5,3.4-6.3,3.6-1.4,7.1-1.6,9.8,1.8a1.9,1.9,0,0,0,2.1.6l2.8-.4c.3.4.7.8.6,1.2-4.7,12.9-2.5,26.4-3.2,39.6a17,17,0,0,1-.4,2.2c-.8,3.3-3.6,5.8-2.7,9.8s3.2,7.2,8.3,7.4,8.4-.2,11.3-4.4,4.9-3.8,7.8.1,3.9,4.6,7.7,4.4c8.2-.2,10.3-1.7,11.6-9.8a20,20,0,0,1,.4-2.4,13.1,13.1,0,0,1,1.2-3.5c3.8-5.4,2.5-10.4-.7-15.4-.5-4.9-3.3-8-7.7-10.1-2.1-5.7-1.4-7.3,4.3-8.6,3.5-.9,2.8-3.2,1.8-5.1s-2.8-4.6-5.9-4.1-4.9,3.1-5.8,6c-1.4,4.7-3.8,8.2-8.8,9.5a1.9,1.9,0,0,1-1.1-.7c-.6-5.7-3.9-9.3-8.8-11.8a8.6,8.6,0,0,1-4.1-4.3,6.1,6.1,0,0,1,1.6-1.6,2.1,2.1,0,0,1,1.8.5c1.8,1.5,3.5,3.2,6.2,3.2a1,1,0,0,1,.8.4c1.5,2.5,4.9,3.1,6,6,.1.3.7.4,1.1.4s.5-.4.5-.7a8.6,8.6,0,0,0,.2-2.3,3.4,3.4,0,0,1,1.4-2.9c2.6-1.7,4.7-3.9,7.5-5.1a7.9,7.9,0,0,1,8.7,2c.4.5.6,1.2,1,1.6,3.4,3.2,2.9,6.8,1.5,10.6a3.1,3.1,0,0,1-2.2,2.2l-1.9.4a1.4,1.4,0,0,0-.5,2.5l1.5,1.2c2.2,2.1,4.3,4.3,4.2,7.7a2.7,2.7,0,0,0,1.8,2.6c1.7.9,2,2.3,2,4-.1,3.4-.1,6.7,0,10.1a5.9,5.9,0,0,1-1.9,4.7c-1.3,1.1-2.3,2.3-1.3,4.1-.7,2.9-.9,6-3.4,8.2a5.5,5.5,0,0,0-1.6,1.8c-1.2,2.8-3.8,3.2-6.3,3.6a30,30,0,0,1-6.7,0,10,10,0,0,1-6.4-2.9,9.6,9.6,0,0,0-2.2-1.8c-1.7-1.1-2.2-1-3.8.4-5.8,5.3-12.7,5.1-19.7,3.4l-.9-.3c-1.3-.4-1.4-2.5-2.9-2.1s-2.2,1.3-3.3,1.8-4.1,1.6-6.4.7-3.2-2.6-4-4.5-.3-1-.5-1.4a.8.8,0,0,0-.8-.3,1,1,0,0,0-.7.4c-2.1,5.6-2.1,5.7-7.7,5.7H88.3c-3.5-.1-5.3-1.3-6.2-4.7s-1-4.6-1.5-7c-1.6,1.1-1.5,2.8-1.6,4.4s-.7,3.3-3.5,3.4,102.4.6,100.8,2.1-5.7,1.8-8.6,1.2a4.2,4.2,0,0,1-2.1-1.9c-.6-.9-107.3-1.8-107.8-2.8s-1.1-1.3-1.7-.5a4.6,4.6,0,0,1-4.5,2H48.2c-2.2.1-3.9-.4-5.2-2.6s-2.3-1.5-3.7.3a5.3,5.3,0,0,0-1.1,1.5c-1.5,3.4,101.8,4.1,98.5,4.4s-5.4,0-8.1.6a6,6,0,0,1-5.6-2c-2.3-2.6-111.1-4.9-113.1-7.7a8.9,8.9,0,0,1-1.8-5.3c.3-2.9.3-6.2,2.8-8.4,2.7.8,3,2.9,2.7,5.2-.7,4.9,1.5,8.4,5.4,11.1,1.1,2.8,3.6,2.6,5.9,2.6,8.8.1,10.8-1.1,11.7-10.4a8.7,8.7,0,0,1,.5-2.8,37.8,37.8,0,0,0,3.1-6.4c.5-1.5,1.1-3.2,3.2-2.7s2.1,2.2,2.2,3.7a13,13,0,0,1-1.1,6.5c-.8,2.2-.7,4,1,5.6s3.4,2.8,5.8,2.5c.6.2.6.2.4-1.3.2-3.3,0-6.7.2-10s.7-4,3.2-4,2.5,1.9,3,3.6-.5,6.5,2.6,8.8c1,1.1,1.1,2.5,1.3,3.9.4,3.1,2.5,4.1,4.9,2a10.7,10.7,0,0,1,5.8-2.9c3.5-.4,1.6-4,3-5.7s3.1-4.7,4.7-7.1a3.2,3.2,0,0,1,3.6-1.7c1.6.5,1.1,2,1.4,3.2,1.1,4.1-.3,8.5,1.2,12.6.6,2.3,2,3.2,4.3,2.7l1.9-.2c8.9-.9,8.9-.9,9-10.2a54.8,54.8,0,0,1,.1-8.1c.4-2.6,1.3-4.8,4.7-3.4a2.7,2.7,0,0,1,.9,1.2c1,2.8.5,5.8.6,8.8s.2,4.1,2.3,5.2a4.8,4.8,0,0,1,.9,1.1c.1.6-.1-.2.2.4s-.6,5.5,3.2,5.2,2.3-3.8,2.8-6a5.9,5.9,0,0,1,.2-1.4c.6-4.4-.1-9,2.8-12.9a4.4,4.4,0,0,0,.3-2.8c-.9-8.6.7-17.2.2-25.7l.3-1.4a6.4,6.4,0,0,0,.3-4.9c-.1-.4-.3-.8-.4-1.2-3.3-3.4-4.4-3.3-5.6.7A3.3,3.3,0,0,1,114.5,87.6Z"/><path class="cls-1" d="M54.3,15.4a3.3,3.3,0,0,1,3.5-1.9,3,3,0,0,0,2.9-1.4c1.2-2.6,3.7-2.9,6-3.3s6,.4,8.9,1.1A3.2,3.2,0,0,1,77,11.1l3.5,5.1a4.7,4.7,0,0,1,.3,4.6,8.7,8.7,0,0,0,0,7.4,2.3,2.3,0,0,1,.1,1.8c-1.6,2.9.5,5.6.5,8.4,0,.8.9,1.7,1.6,2.3s2.1,3.4,2.1,5.6c-.1,4.1-.1,8.3,0,12.4,0,2-.3,3.8-1.9,5.2A5.8,5.8,0,0,0,81,68a4.2,4.2,0,0,1-2.7,3.6,6.8,6.8,0,0,0-1.7.9c-2.4,3-6,2.5-9.2,3.3a6.4,6.4,0,0,1-4.6-.9,5,5,0,0,0-5.4-.1c-1.1.6-2.4.8-3.5,1.4s-4.7.2-6.8-.9c-.3-.2-.3-.9-.5-1.3s.8-1.6,1.6-1.6c4.7.1,8.5-2.9,12.9-3.9a2.9,2.9,0,0,1,1.3.5c4,4.1,7.7,3.6,11.7-.2C80.2,63.1,81,56,80.9,48.4c0-2.1-1.4-3.1-2.6-4.3a3.5,3.5,0,0,1-.7-1.2c.1-5.1-2.7-7.4-7.6-7.7a1.8,1.8,0,0,1-.8-1.1A4,4,0,0,1,71.9,30c4.5-1.6,5.2-4.6,4.7-9-.3-2.4-.3-4.5-2.3-6.3s-6.2-2.5-9,0-5.6,6.5-5,11.2a25.4,25.4,0,0,1,.1,3.9v2.7a27.3,27.3,0,0,0,.3,5.7c.5,1.9,1.2,3.6,3.7,3.3s4.2,1.9,6.2,3.1a3.2,3.2,0,0,1,.8,1.2,17.3,17.3,0,0,1,.5,9.3c-.6,2.4-1.8,3.7-4.2,3.6l-1.4-.2a5,5,0,0,0-3.2.1l-1.3.5c-2.6,3.2-6.1,4-10.1,3.7s-5.3-1.6-5.7-5,.7-8.1,4.1-8.9,3.4-.7,3.5-3.1-1.9-2.1-3.3-2.3-3.8-1.6-3.9-4.1a118.1,118.1,0,0,1-.1-11.9c.1-2.3.9-3.9,3.4-4.6C55.3,21.4,55.2,21.3,54.3,15.4Z"/><path class="cls-2" d="M114.6,174.7c0-.5.1-1,.1-1.5a56.2,56.2,0,0,0,0-14.2v-.2c1.6-3.4,3.8-3.5,5.8,0s3.9,7.2,4.5,11.4a37.8,37.8,0,0,0,1,5.7h-.1a39.6,39.6,0,0,1,4.7,10.3c-.2-9,.9-16.8.4-24.7a9.6,9.6,0,0,1,1.4-5.9c1.6-2.4,3.6-3.8,6-.7v-.2l-.2.2a4.2,4.2,0,0,1,1.5,4.3c-1.5,14.2-.4,28.5-.7,42.7-.1.7,0-.1,0,.5-.1,5.1-1.8,8.5-4.6,8.4s-5.7-3.7-6.9-7c-.7-1.6-.8-3.4-1.4-5.1h.1c-3.1-3.5-3.7-8.2-5.7-12.3.6,8.2-1.6,16-2.4,23.9h.1a2.5,2.5,0,0,1-2,1.9h.1c-3.7,1.1-5.3-1.4-5-4.2C112.3,196.8,111.4,185.6,114.6,174.7Z"/><path class="cls-3" d="M62.9,207.1c-1,.1-1.9-.2-2-1.4s0-5.4-.1-8.1a13.8,13.8,0,0,0-.1-2.9,2.8,2.8,0,0,0-1-1.4,1.8,1.8,0,0,0-2.3,1.2c-.4,2-1.2,3.9-.6,6a13.3,13.3,0,0,1,.5,1.9,1.4,1.4,0,0,1-1,1.8c-1.7.3-2.3,1.6-3,2.8a2.3,2.3,0,0,1-2.4,1.3l-7.1-.3c-.4,0-.8-.4-1.2-.7a9.6,9.6,0,0,0-2.5-2c-1.9-.9-2.7-2.3-2.2-4.2s-.3-4.4-.1-6.7,0-4.1-.1-6.2-.8-1.9-2.1-1.1l-1.5,1.2-.6-.5c-1-1.9-.3-3.8.2-5.6,2-7.4,3.3-15,5-22.5a6.5,6.5,0,0,0,.2-2.8c-.1-.8-.4-1.6-1.3-1.8s-1.4.5-1.8,1.2a24.7,24.7,0,0,0-1.6,6.5c-1.3,7-1.9,14.3-5.7,20.6a1.7,1.7,0,0,1-1.4.2,5.4,5.4,0,0,1-1.9-3.7c-.7-6.7-3.7-12.9-3.8-19.6,0-1.2-.4-2.5-1.8-2.5s-1.5,1.8-1.4,3,.7,4.7,1.2,7.1.7,3.7-.4,5.5l-.5.5c-2.8-1.6-4.1-4.1-3.4-7.1a12.5,12.5,0,0,0,0-5.1c-.4-2.1-.1-4.4-.1-6.7a15,15,0,0,1,8.7.5,3.3,3.3,0,0,1,2.6,3.5c-.1,3.7,0,7.3,0,11a4.3,4.3,0,0,0,1.5,3.8,1.3,1.3,0,0,0,2-.6l.3-2.3c.2-2.7-.4-5.5.6-8.1a1.4,1.4,0,0,0,0-.9c-1.4-2.9.1-4.9,2.1-6.7a8,8,0,0,0,1.3-1.9c2.1-2.8,2.7-3,6.6-1.6h0l.9,3.6c.2.5.2,1.2.4,1.7a2,2,0,0,0,3.1.8c.9-1.1,1.6-2.3,3.3-2.1a3.2,3.2,0,0,1-.5,2.7c-5.3,8.6-7.1,18.1-7.6,27.9A30.4,30.4,0,0,0,43.4,202c.9,1.9,2.4,3.6,4.7,3.5s3.1-2,3.9-3.8c5.3-11.3,6.3-23.3,5.4-35.5-.4-5.5-5.1-7.7-8.9-10.5,1-1.7,2.8-1,4.2-1.1s3.8.2,4.4,2.6a1.5,1.5,0,0,0,.9,1c1.6.4,2.5,1.6,3.4,2.9s1.2,1,2.5-.2l.8-.6c1.7,1.9,1.5,4.2,1.3,6.4-.9,11.9-1.8,23.9-1.8,35.9C64.2,204.2,64.1,205.8,62.9,207.1Z"/><path class="cls-4" d="M160.6,195.3v.2c.1,6.7-3.3,11-9.2,13.6s-8.3.7-10.2-3.9a17.9,17.9,0,0,1-.6-13.1c.7-2.1,2-3.8,4.5-3.5s3.1,2.3,3.3,4.5-.2,3.8.6,5.6c4.8-2.7,4-11.4-1.3-14.9-3.3-2.2-6-4.7-6.2-8.6a31.6,31.6,0,0,1,2.9-15.4c.4-.7,1.2-1.1,1.4-1.9,1.1-3.8,3.3-6.3,7.5-5.9s6.5,4.6,6.9,9.2a2.8,2.8,0,0,0,.4,1.3v2.3c-1,3.5.1,7.3-1.2,10.7-.9,1.6-2.3,2.3-4,1.5s-1.5-2.4-1.3-3.8a29.9,29.9,0,0,0,.2-9.9,2.2,2.2,0,0,0-.9-1.6c-4.2,4.4-4,11.3.4,14.9a16.2,16.2,0,0,1,3.7,3.7c2.4,2.9,2.5,6.4,2.7,9.8C160.3,191.8,159.9,193.6,160.6,195.3Z"/><path class="cls-3" d="M160.6,162.5a18.7,18.7,0,0,1-.7-2.2c-.4-.9-.6-1.9-1-2.7-1.3-2.5-3.2-4.6-6.2-4.7s-4.6,2-5.9,4.3a23.5,23.5,0,0,0-2.3,5.7,74.2,74.2,0,0,0-1.8,9.4c-.5,4.5,1,8.3,5.5,10.1a6.7,6.7,0,0,1,4.2,4.9,65,65,0,0,1,1.2,7.5,6.3,6.3,0,0,1-4.5,6.6,2,2,0,0,1-1.5-.8c-.2-1.9-.3-3.8-.4-5.7s.2-2.2.1-3.3a2.2,2.2,0,0,0-1.7-2.1,2.3,2.3,0,0,0-2.7.6,5.3,5.3,0,0,0-1.4,2.4,22.6,22.6,0,0,0,.5,11.8,9.2,9.2,0,0,0,1.9,3.3,4.3,4.3,0,0,0,4.8,1.3,20.6,20.6,0,0,0,8.5-5.1,10,10,0,0,0,2.6-5.1c.2-1,.5-2.1.8-3.2v.5c.2,7,.2,7-4.2,12a9.1,9.1,0,0,1-1.9,1.3,34.7,34.7,0,0,0-3.3,1.8c-2.5,1.6-4.2,1.5-6.4-.4l-1.4-1.3a3.5,3.5,0,0,0-5.1,0,7.8,7.8,0,0,1-3,2.1c-2.1.8-3.6.9-5-1.1s-3.4-1.9-3.9-3.2-.3-4.1-.3-6.2.1-1.6.1-2.4c1.1,2.1,2.1,4.3,3.2,6.3a18.4,18.4,0,0,0,2.6,4,3.3,3.3,0,0,0,5.6-1.7,24.2,24.2,0,0,0,.3-4.7c0-11-.2-22-.2-33,.1-3.1.5-6.3.7-9.5a45.1,45.1,0,0,0-.1-5.2c1.6-.3,2.9-.2,3.2,1.8a3.8,3.8,0,0,0,.6,1.3,2.1,2.1,0,0,0,2.9-.4,2.9,2.9,0,0,0,.2-.9,4.9,4.9,0,0,1,1.9-4.2,7.6,7.6,0,0,1,5.8-1.6l2.8.5a2.1,2.1,0,0,1,1.2.7c1.2,1.6,2.4,3.3,3.5,5a6.2,6.2,0,0,1,.5,2.7A12.7,12.7,0,0,1,160.6,162.5Z"/><path class="cls-1" d="M20.7,44.2c-1.1-.5-2.1-1.4-1.7-2.5.9-2.8-.2-5.3-.7-7.9a11.5,11.5,0,0,1,.1-6.1,9,9,0,0,0-.1-5.6,19.9,19.9,0,0,1-.4-4.2c-.1-2.2,1.1-3.5,3-4.4a8.6,8.6,0,0,1,7.8.3c1.5.7,2.7,1.9,2.5,3.7a13.2,13.2,0,0,0,2.1,7.7,7.4,7.4,0,0,1,.8,4.6c-.3,3.3.8,6.3,1.2,9.4.1.2.7.4,1.1.5s.5-.6.4-.7c-1.2-2.5-.1-5,.4-7.4a10.8,10.8,0,0,0-.8-6.9c-.6-1.2-1.5-2.4-1-4s1.5-4.3,3.2-5.8A7.8,7.8,0,0,1,42,13.6c1.2-.2,1.6.8,1.8,1.8-1.4,1.1-2.8,2-2.9,3.9l-.4,1.2a4.5,4.5,0,0,0,.3,3,7.8,7.8,0,0,1,.2,1.4c.3,3.9.2,7.7.2,11.6a10.3,10.3,0,0,1-.5,2.4c-2.8,5.7-3.2,11.8-3.3,18.1,0,3.1-.7,5.7-4.7,5.7s-4.7-2.6-4.6-5.8c.2-5.2-.5-10.3,1.8-15.4s.4-8.6-.6-12.7-1-5.3-1.7-7.9-.9-4.1-3.4-3.7-1.5,2.5-1.8,4c-1,6,.7,12.1-.4,18.1C21.7,41,22.2,42.8,20.7,44.2Z"/><path class="cls-3" d="M40,20.3c.1-1.1.4-2.1.4-3.2s.7-1.8,2-1.7H54.3A2.8,2.8,0,0,1,56.2,18a13.5,13.5,0,0,1-.7,4.1A3.2,3.2,0,0,1,52.4,24c-1.1.1-2.3,0-3.3.2a2,2,0,0,0-1.3,1.2,15.9,15.9,0,0,0-.6,3.8c.1,3.6.3,7.3.4,11,.1,1.4.7,1.9,2.1,2l3.9.2a1.7,1.7,0,0,1,1.6,1.9c0,.7-.3,1.3-.3,1.9-.3,3.5-.3,3.5-3.8,3.8a5.9,5.9,0,0,0-1.9.1c-.5.2-1.3.7-1.3,1.1-.3,2.8-1.4,5.6-.3,8.5A2.3,2.3,0,0,0,50,61.5c1.7,0,3.5-.1,5.2,0s3.9-.1,4.2-2.7c.1-.4.9-.9,1.5-1a8.8,8.8,0,0,1,2.3,0c-1.2,3.7-.4,7.5-1.1,11.2A23.4,23.4,0,0,0,57,71.3a10.3,10.3,0,0,1-6.3,1.8,21.7,21.7,0,0,0-4.1.9H43.8c-4.4,1.2-5.2-3.4-8-4.8a8.3,8.3,0,0,1-.4-1.5c0-2.7-1.7-3.6-4-3.9s-4.2-1.7-4.2-4.4c-.3-12.4-.5-24.9.1-37.3a3.9,3.9,0,0,1,.5-1.4l.7-.6a7.4,7.4,0,0,1,.8,2.2c.1,2,0,4,1.4,5.9s.5,2.1.6,3.2-.1,4.7.7,7a4.4,4.4,0,0,1-1.2,4.9,4,4,0,0,0-1.4,3.4c0,4.1-.1,8.2,0,12.4,0,1.8.6,2.3,2.3,2.4H34c1.1,0,2.1-.6,2-1.7-.4-3.6,1-7.1.2-10.8a6.1,6.1,0,0,1,.4-2.7c1-2.6,2.2-5.2,3.3-7.7,2.2,3,1.4,6.5.9,9.7a57.8,57.8,0,0,0,.5,18.1c.4,2.6,1.4,4.9,4.4,4.7s6.9-.5,9-3.6c1.1-1.5-.2-2.5-1.7-2.3-3.8.3-7.1.9-8-4.7-1.2-8.6-1.1-10.1,4.5-13.7.4-.2.7-.6.7-1.5-5.1-.3-5.3-3.8-5.4-7.9,0-2.6-.4-5.1-.4-7.7,0-6.1,0-6.1,6.1-8,1.1-.3,2.4-.6,2.4-1.9s-1.6-1.7-2.8-1.9C46.4,17.4,43.5,20.2,40,20.3Z"/><path class="cls-3" d="M87.8,207.4c-1.3,1.5-3.8,1.7-4.4,4.1,0,.3-1.1.5-1.6.5s-1.7-.6-2.3-.4-2.8.6-3.7-1.4-2.1-1.8-3.6-1.8l-4.7-.2c1.2-14.6.3-29.2.6-43.8,0-2.4.5-5.1-3.4-4.8-.4-5.4.6-5,5-5,2.1.1,2.5.6,2.6,2.6s.1,4.1,0,6.2a4.1,4.1,0,0,1-.4,2.3c-2.5,2.8-.8,5.6.2,8s1.2,3.2.4,4.9a17.7,17.7,0,0,0-.8,3.3,6.1,6.1,0,0,0,0,2.7,7.4,7.4,0,0,1,0,5.1,3,3,0,0,0,3.5,3.8L78,193a1.9,1.9,0,0,1,1.9,1.2,18.8,18.8,0,0,0,1.4,2.4,1.3,1.3,0,0,0,2.3-.4c1.6-3.8.9-7.7.1-11.6-1.4-1.5-2.6-3.3-4.8-3.6a1.8,1.8,0,0,1-1.6-1.5,15.2,15.2,0,0,1-1.2-5.6c.2-2.5-.1-5.1.1-7.6s.3-6.1,3.1-8.2c.4-.3.5-1.1.8-1.7s.5-1.4,1-1.5,3.3-1.1,3.4-3.3c0-.2.7-.5,1.1-.5l2.7.3c2.5-.3,2.5-.3,3.2,2.1.1.3.1.6.2,1l-.6.4c-7.1.1-9.7,5.3-11.6,10.9s-1.8,10.7,3.9,14.7,6.1,12.6,3.4,17.6-6.4,5.3-9.8,1.2c-1.8-2.1-2.7-1-3.3.8-1.4,3.8,2.2,8,6.6,7.6,2.3-.2,4.5-1.7,7-.8A1.2,1.2,0,0,0,87.8,207.4Z"/><path class="cls-5" d="M99.3,203.3V185.6c.7-8.3.4-16.8.9-25.1.1-1.9.4-3.6,2.3-4.4s3.4-.7,4.3,1.4h0c3,5.9,2.1,12.3,1.4,18.2-1,7.9-.5,15.8-.8,23.7-.1,1.4.4,2.9-.6,4.1h.1c-.9,1.2-.1,2.8-.9,4.1s-1.2,3.2-3.2,3-2.9-1.6-3.1-3.6S100,204.5,99.3,203.3Z"/><path class="cls-3" d="M106.9,120.2c-2.8-.8-3.8-.4-3.8,2s-.2,7.7,0,11.5a32.9,32.9,0,0,1-1.1,7,2,2,0,0,1-2,1.6,18.2,18.2,0,0,1-3.3,0,10.6,10.6,0,0,0-6.1.4c-1.5.7-2.7-.3-4-.7a1.2,1.2,0,0,1-.7-1.1,19.4,19.4,0,0,1-.2-2.4l.8-.2c4.6,1.5,5.5,1.1,5.5-3.5q.3-21.3,0-42.6a13.6,13.6,0,0,0-.3-2.9c-.6-1.9-.1-4.7-2.8-4.9s-3.1,2.3-4.4,3.9-.9,6.5-4.5,7.9c-2.3-5.9-.1-12.5,5-15.2,1.2-.6,2.4-1,3.6-.1h1.9c4.7-2,6.2,2.4,9,4.3a41.1,41.1,0,0,1-.4,10.5c-1.4,10.4-1.7,20.9-2.3,31.4-.1,3.1-.2,6.3,2.3,8.9,2-1.5,1.5-3.6,1.5-5.4.1-7,0-14,.1-21,0-1.8-.1-3.6.7-5.2a1.6,1.6,0,0,1,1.4-.8C106.7,108.5,108.8,113.9,106.9,120.2Z"/><path class="cls-6" d="M64.7,159.6l.3-.4c.7-1.3,1.2-2.9,3.1-2.4s1.7,2.2,1.7,3.6,0,4.5,0,6.7l-.3,30.1c0,1.9-.2,3.9-.1,5.8a7.2,7.2,0,0,1-1.9,5.2h0c-1.9,1.4-3.3.2-4.6-1h0c-.1-1.3-.4-2.5-.4-3.8l1.8-34.4c.2-2.8.3-5.7.4-8.6A.5.5,0,0,0,64.7,159.6Z"/><path class="cls-1" d="M88.6,80.9c-3.6.2-5.4,3-7.2,5.4s-1.1,4.1-1.4,6.3a22.9,22.9,0,0,0,.1,3.7l-.4.6c-2.7,1.7-1.4,4.5-1.9,6.8s-.3,4.7-.8,7a3.1,3.1,0,0,1-.6,1.3c-2.5,2.2-2.7,5.3-2.9,8.3a22.8,22.8,0,0,1-.4,5.2,5.7,5.7,0,0,1-.8,1.3c-4.1,1.5-7.3,0-8.5-4.5-.8-3-1-6.1-2.5-9.1s1.8-4.8,2.8-7.2c3.5-1.4,3-4.8,3.6-7.6a4.1,4.1,0,0,1,1.7-2.2c2.4,1.5,2.9,3.4,2.1,6.1s-.9,3.8-2.3,5.2-3.4,5.6-1.8,9.1a7.8,7.8,0,0,1,.2,1.4c.3,1.3,1.2,2,1.9,1.7s.9-1.3.8-2a14.9,14.9,0,0,1,2.1-7.7,8.9,8.9,0,0,0,.8-3.2c.1-2,.1-4.1.1-6.2s.6-5,3.1-6.5A3,3,0,0,0,78,90.9,12.1,12.1,0,0,0,78,89a6.7,6.7,0,0,1,2.6-6.4A5.5,5.5,0,0,0,82,80.7,3.3,3.3,0,0,1,85.1,79C86.7,78.9,87.9,79.3,88.6,80.9Z"/><path class="cls-3" d="M46.4,81.8l1.9-.9H59.8c6.1-.9,10.4,4.4,8.7,10.7-2,0-2.6-1.7-3.6-2.9a15.1,15.1,0,0,0-4.5-4.2c-6.1-3.6-11.4-.7-11.7,6.3-.6,13.7-2.3,27.3-2,41.1a7.1,7.1,0,0,1-.7,3.2l-.6.6-1.5-1.2c-1.7-1.2-2.1-2.5-1.1-4.5a14.1,14.1,0,0,0,1.5-9.3c-.1-.4-.8-1.1-1.2-1.1a1.7,1.7,0,0,0-1.3,1c-.7,2.8-1.6,5.5-4,7.4l-.5-.5c-1.2-3.6-1.5-7.1,2-9.9,1.7-1.4,1-2.4-1-2.7a14.9,14.9,0,0,0-4.2.3c-4.7.9-4.7,1-2.1,4.7s-1,12.7-4.8,14.1-4.6-.8-4.8-4.2l1.7.8a2.5,2.5,0,0,0,3.3-1.2,17.1,17.1,0,0,1,2-2.7c.5-.7.8-1.5.1-2.1s-1.6-4-2.8-5.9-.4-4.6.6-7.1H43.5a1.6,1.6,0,0,0,1.8-1.8,26.2,26.2,0,0,0,.1-2.8c0-3.4.2-6.8,0-10.1s1-8.2.1-12.3c-.2-.8.6-1.8.9-2.7Z"/><path class="cls-3" d="M91.7,154.5l4,.3c-.6,4.1,0,7.9.2,11.8a25.5,25.5,0,0,1-.8,6.1c-.1.4-.9.9-1.4,1s-3,.7-2.9,2.5,1.6,1.9,2.7,2.3,1.2,1.2,1.4,2.4a91.3,91.3,0,0,1,.5,12.8c0,2.2.2,4.4-.6,6.6s.2,1.8.2,2.8-.3,1.1-.5,1.1-2.7,1.8-4,2.6a8.2,8.2,0,0,1-2.7.6l-.3-.3c-.1-1.4.8-2.3,1.5-3.4,6.9-10,5.1-20.9-4.5-28a5.6,5.6,0,0,1-2.7-5.2,25,25,0,0,1,3.2-10c.8-1.2,1.8-2.5,3.5-2.1s2,1.8,2.2,3.3,0,5.1.5,8.5c2.1-5.7.1-10.7.3-15.6Z"/><path class="cls-3" d="M20.7,44.2c.2-3.6-.5-7.3.8-10.8.3-.8-.3-1.9-.4-2.8s-.6-4.1-.2-6.1.1-5.8.7-8.8c2.1-.9,4,.2,5.9,1a2.4,2.4,0,0,1,.8,1.6,11,11,0,0,1,.2,1.8l-.3.2c-2.8.3-4.3,1.7-4.2,4.7.4,12.4-1.6,24.8-1,37.2.3,6.5,1.5,7.6,7.8,6.4,1.7-.3,3.4-.9,5.1.3l.2.3c.3,3.8-1.8,5.1-5.2,5.1H27.1c-7.4-.1-9-2.6-6.4-10Z"/><path class="cls-3" d="M135.7,80.9c1,0,1.6.7,2.3,1.4a16.9,16.9,0,0,0,4.1,2.9,29,29,0,0,1,5.7,4.8,7.7,7.7,0,0,1,1.2,3.5,22.9,22.9,0,0,1,.1,3.7c-3-.3-3.4-3.1-4.6-5-2.4-3.6-5.3-6-9.7-6.1-2.7-.1-4.4.9-4.4,3.8-.3,8.9-2,17.8-2.1,26.7,0,2.1.7,4.7-2.1,5.8-.1-6.9-.5-13.9.2-20.9a29.7,29.7,0,0,0-.3-5.1c0-1.4-.4-2.9.9-4s.8-2.1.1-3.3-1.4-2.8.8-4.3a4,4,0,0,0,2-3.9Z"/><path class="cls-1" d="M99.2,84.8c-1.6-.2-3.3.2-4.2-2.1s-2.7-1.9-4.5-1.8c1.6-2.8,4.1-2.3,6.3-1.5a20,20,0,0,0,3.5.9c2.9.3,5.2,2.1,7.7,3.4a4.1,4.1,0,0,1,1.6,2.7,54.9,54.9,0,0,1,1.2,6.1l3.7-2a2.8,2.8,0,0,1,1,2.6,5.9,5.9,0,0,1-.2,1.4c-1.6,6.4-1.8,6.4-8.1,2.6a3.1,3.1,0,0,1-.9-1.1c-1.5-2.8.8-6.6-2.3-9.1l-1-.5-1-.5-.9-.5-1.4-.5Z"/><path class="cls-3" d="M138.4,154.8l-.9-.3c-2.7-.7-4.2-.1-4.7,2.4a68.8,68.8,0,0,0-1,9c-.2,6.6-.1,13.1-.2,19.7a12.5,12.5,0,0,1-.2,3.8c-2.1-2.6-4.4-8.2-5.5-13.6,1.2.2,1.6,2.3,3.2,1.4s.7-2.2.8-3.4c.2-2.8-.4-5.7.7-8.5a3.7,3.7,0,0,0-.1-1.8c-.1-.8-.4-1.6-.5-2.3-.5-4.8-.3-5.3,3.4-8.6.8-.7,1.5-2,2.7-1.5S138.7,152.9,138.4,154.8Z"/><path class="cls-1" d="M20.7,64.4c.3,2.8.6,5.5.9,8.6H31a6.7,6.7,0,0,0,3.2-.4c.6-.3.6-1.5,1-2.3s.6-.7.9-1.1,2.9-.1,3.3,1.2S42,73.1,43.8,74c-.9,1.7-1.8,2.4-2.7,1.7s-4.6-.8-7.1-.3-7.4,1.8-11.2.6-4.3-1.9-4.8-4.2-.8-5.2,1.9-6.9Z"/><path class="cls-3" d="M106.8,203.5l.3-27.8c0-6-.2-12.1-.3-18.2a4.7,4.7,0,0,1,3,4.8c.2,3.9,1.3,7.7,1,11.7a15.8,15.8,0,0,0,.9,3.6c-2.9.5-3.9,2.3-3.8,5v17.5C107.9,201.3,108.1,202.7,106.8,203.5Z"/><path class="cls-3" d="M118.2,210.2c.5-8.6.9-17.2,1.4-25.8a6.1,6.1,0,0,1,.1-1.4c.1-.3.4-.6.6-.6s.6.2.7.4c1.8,5.2,3.5,10.5,5.3,15.8a13.1,13.1,0,0,1-2.1-.8c-1.8-1.2-1.8-1.2-2,1.2a2.9,2.9,0,0,1-1.3,2.3,3.1,3.1,0,0,0-1.5,3.2,23.8,23.8,0,0,1-.1,3.8A5.2,5.2,0,0,1,118.2,210.2Z"/><path class="cls-3" d="M10.9,117.4c0-1.1.1-2.2.2-3.3s.5-1,.4-1.3c-1.8-4.1.9-6.4,3.3-8.8,1.8,2.3,1.2,4.8.8,7.3-.8,5.2-.5,10.5-.4,15.7s2.2,7.2,3.5,10.8l-.3.8c-1.9-.1-3.4-.6-3.8-2.8a2.3,2.3,0,0,0-.6-1.2c-2.6-1.6-2-4.3-1.5-6.4s-.3-4.2-1.6-6Z"/><path class="cls-3" d="M114.6,174.7c0,1.6,0,3.2-.1,4.8-.7,8.4-1.5,16.8-2.3,25.2,0,.9-.2,1.9-.2,2.8.1,3,.9,3.7,4.4,4.5-.3.3-.6.9-.9.9-2.8.1-4.6-1.5-4.7-4.1s0-5.4-.1-8.1.6-5.3.1-8a3,3,0,0,1,.1-2.3c1.3-1.6,1.1-3.2.4-4.9a4.4,4.4,0,0,1-.1-3.2,24.2,24.2,0,0,0,.5-4.7,1.8,1.8,0,0,0,1.9-1.4A7.8,7.8,0,0,1,114.6,174.7Z"/><path class="cls-3" d="M30.1,207.4c.3,2.4-.3,4.5-2.9,5.2a6.3,6.3,0,0,1-2.3.3,22.9,22.9,0,0,1-2.8-.7c-2.6-.5-4-2.2-3.3-4.6a11.1,11.1,0,0,0-.1-6.5,16,16,0,0,1-.1-3.8c-.1-7.8-.1-15.6-.1-23.4l.2-.2c2.5.7,2.2,2.9,2.1,4.7-.2,7.3,1.5,14.5,1.1,21.9a15.1,15.1,0,0,0,.5,4.2c1.1,5.2,2.4,5.8,6.9,2.8Z"/><path class="cls-1" d="M68.3,91.8c.4-2.3-.8-4.3-1.3-6.4-2.2-.8-2.7-3.9-5.4-4.1a11.6,11.6,0,0,1-1.8-.4c.1-.8.4-1.7,1.3-1.8a18.2,18.2,0,0,1,3.3-.1,3.8,3.8,0,0,1,2,1c.8.6,1.2,1.6,2,2.1,3.8,2.6,3.5,6.4,2.8,10.2-.2.7-1.2,1.3-1.8,2A2.8,2.8,0,0,1,68.3,93,1.3,1.3,0,0,1,68.3,91.8Z"/><path class="cls-3" d="M126,175.9l-2.8-8.1c-1-3.2-2-6.4-4-9.1l-.9-1.2c-.8-1-1.7-1-2.8.1a12.5,12.5,0,0,0-.8,1.2c0-4.5.6-4.8,4.6-3.4a3.5,3.5,0,0,1,2.7,2.9,12.7,12.7,0,0,0,3,6.4,4.5,4.5,0,0,1,1,3C126.2,170.4,126,173.1,126,175.9Z"/><path class="cls-3" d="M202.9,61.7c2.8,1.2,3.1,1.9,1.6,4.2s-2.1,4-4.6,4.5l-.4.2c-1.7,4-5,2.1-7.9,2.6-.1-4.2-1.7-7.9,1.1-11.6l2.3.3c.1.1.1.2.2.2a5.7,5.7,0,0,1-.4,1.4c-.7,1.8-2.4,4.1.7,5a4.5,4.5,0,0,0,5.7-2.9c.5-1.2.2-2.7,1.1-3.8Z"/><path class="cls-3" d="M106.8,157.5c-.7-.3-1.3-.9-2-1a2.8,2.8,0,0,0-3.6,2.3c-.1.7-.1,1.5-.2,2.3-.3,6.6-.6,13.3-1,19.9a36.5,36.5,0,0,1-.7,4.6c0-8.3-.1-16.6,0-24.9a33.4,33.4,0,0,1,.9-5.2h0c1.9-.2,3.6-1.4,5.5-.8a2.8,2.8,0,0,1,1.5,1C107.4,156.2,107,156.9,106.8,157.5Z"/><path class="cls-3" d="M64.7,146.8a6.5,6.5,0,0,1,.2-1.1,3.3,3.3,0,0,1,4.3-2.5,3.7,3.7,0,0,1,2.9,4.2c-.4,3.3-1.4,3.9-4.7,2.8-.3-.1-.5-.3-.8-.3S64.6,148.9,64.7,146.8Z"/><path class="cls-3" d="M100.7,143.5c.4,0,1-.1,1.3.1s2.9-1,3.5.3.9,3.6,1.2,5.4a1.6,1.6,0,0,1-1.2,1.2,19.7,19.7,0,0,1-4.2.1,2.4,2.4,0,0,1-1.9-2.9C99.8,146.4,100.2,145,100.7,143.5Z"/><path class="cls-3" d="M34.1,188.3c-.1,4.2-.2,8.5-.1,12.7,0,1.7-.1,3-2,3.8s-1.3,1.7-1.9,2.6H30c-2.3-5.7,1.1-10.7,1.6-16.1.1-1.3.3-2.9,2.3-3.1Z"/><path class="cls-3" d="M114.6,93.6c0-1.1-.1-2.1-.1-3.1V87.6c.1-1.6,0-3.1.2-4.7a2.2,2.2,0,0,1,2.8-1.8,8.5,8.5,0,0,1,1.7.6c2.9.7,2.9.7,2.8,4.1-3.6-.7-5.6.6-5.4,4.6C116.6,91.6,116.6,93.3,114.6,93.6Z"/><path class="cls-3" d="M160.6,195.3a26.1,26.1,0,0,1-.6-2.7,28.3,28.3,0,0,0-3.2-12.1c-.9-1.6-1.1-3,1.3-3.3l.6.4c-.5,1.1-.7,2.3.3,3.1s1.7,3.2,1.7,5.1S160.6,192.1,160.6,195.3Z"/><path class="cls-3" d="M99.3,203.3l.9,3.1a15.5,15.5,0,0,0,.6,2.3c.5.8,1.3,1.6,2.3,1.3a3,3,0,0,0,1.8-1.3,20.6,20.6,0,0,0,1.2-3.5,8.9,8.9,0,0,1,.8-1.7,12,12,0,0,1-.1,3.3,10,10,0,0,1-1.9,3.7,2.7,2.7,0,0,1-3.4.9c-1.2-.6-2.2-1.4-2.2-2.9S99.3,205,99.3,203.3Z"/><path class="cls-3" d="M194.9,61.6c0-1,.1-1.9.1-2.8a12,12,0,0,1,7.5,0,25.3,25.3,0,0,1,.1,2.8l-.2.2c-2.4.1-4.9.8-7.3,0Z"/><path class="cls-3" d="M158.6,175.5c.7-3.6,1.3-7.1,2-10.7,0,3.5,0,7.1.1,10.6a1.9,1.9,0,0,1-2,2.2h0A1.8,1.8,0,0,1,158.6,175.5Z"/><path class="cls-3" d="M114.7,159a34,34,0,0,1,0,14.2Z"/><path class="cls-3" d="M68.4,92.4l1,1.9v1.9l-.9,2-.6-.5C67.1,95.8,67,94,68.4,92.4Z"/><path class="cls-3" d="M62.9,207.2c1.4.7,2.9,1.4,4.6,1C65.2,209.9,64.4,209.7,62.9,207.2Z"/><path class="cls-3" d="M116.3,212l2-1.9C118.1,211.8,118.1,211.8,116.3,212Z"/><polygon class="cls-3" points="192 62.6 191.6 62.3 191.8 62.2 192 62.6"/><path class="cls-3" d="M100.2,155.5l-.4-.2.4.2Z"/><path class="cls-3" d="M40.7,151.7l.2-.4-.2.4Z"/><path class="cls-7" d="M114.6,93.6c.3-1.3.6-2.5.8-3.7a28.3,28.3,0,0,1,.2-2.9c.7-3,3-3.7,5.7-1.8l.7.6h0a4.1,4.1,0,0,1,.1,4.7h0c-.4,8.6-1,17.3-1.7,26-.4,6.1-1.7,12.1-2,18.2a.5.5,0,0,0-.1.8c-.6,2-.3,4.7-3.4,4.9s-3.5-2.6-4.2-4.7h0c-3.8-4.5-2.6-10.3-3.8-15.4h0c-.2-5.7-2.1-11-3.9-16.2a1.5,1.5,0,0,1-.3-1.7c-.2.6-.1,1.2-.6,1.7,0,8.4-.1,16.9-.2,25.3,0,2,.2,3.9.2,5.8a9.8,9.8,0,0,1-.6,2.3,2.8,2.8,0,0,1-4.8.1,8.3,8.3,0,0,1-.7-2.7,111.7,111.7,0,0,1-.3-15.3c.4-10.1,1.8-20.1,2.4-30.1.1-1.6,0-3.2,1.1-4.6h0c.6-.7,1.2-.6,1.9-.1s.3.3.6.1a1.9,1.9,0,0,1,1.3,1h-.1c2.9,2.9,2.9,6.9,3.8,10.6h0c3.5,4.5,4.2,10.1,5.9,15.4a16.2,16.2,0,0,0,.1,2.2c.1.7.9-.1.4.2s0,.2-.3-.4a9.9,9.9,0,0,1-.2-1.8c-.2-6,1-11.8,2-17.7A.5.5,0,0,0,114.6,93.6Z"/><path class="cls-4" d="M126.2,122.4a12.1,12.1,0,0,0,.5-1.8c.7-8.7,1.3-17.5,2-26.2.1-2.1,0-4.2,0-6.2s.7-3.2,3.4-3.6c5.3-.8,9.4,1.1,12.4,5.4,1.7,2.3,3.1,4.8,4.6,7.2h0a7,7,0,0,1,2.1,4.2c.6,9.9.9,19.7-3.1,29.2-3,7.3-8.5,11.2-16,11.2-4.1,0-6.9-2.3-7.3-6.5a25.1,25.1,0,0,1,1.3-11.2Z"/><path class="cls-3" d="M126.1,124.1c-.1,3.8-.1,7.6-.1,11.4a5.2,5.2,0,0,0,1,3.6,5.6,5.6,0,0,0,5.8,2.4c6.2-1.1,11-4,13.6-10a44.8,44.8,0,0,0,3.4-13.4c.4-5,.3-10.2.2-15.2a37.5,37.5,0,0,0-.9-5.7,5,5,0,0,0,4.4-3.1c.2-.4.5-1,.8-1.1,2.9-.9,3-3.6,3.2-5.8s.3-2.5,2.1-2.8,1.3-1.1,1.4-1.7,1.2-2,2.6-1.8H166a2.6,2.6,0,0,1,2.4,1.2,17.9,17.9,0,0,0,2.2,2.5,4.7,4.7,0,0,1,1.5,3.9c0,3,.2,4-3.6,4-1.2,0-3,0-3.5.7a5.5,5.5,0,0,0-.7,4.9,6.2,6.2,0,0,1,.2,1.9c-.1.2-.3.3-.5.5-2.8.7-3.5-1.1-3.2-3.2s1.1-6.1,4.6-7.3c1.7-.6,3.1-1.5,1.9-3.4s-2.5-1-3.7-.2c-6.8,4.3-7.7,14.3-1.8,19.4a10.4,10.4,0,0,1,2.9,3.7,23.7,23.7,0,0,1-1.2,21.7c-1.9,3.4-3.7,3.7-6.5,1.4-1-.9-1.9-2.6-3.5-1.3s-1.1,2.9-.4,4.4c2.1,4.6,6.9,5.6,11.2,2.5s4.4-6.6,7.2-9.4h.7c-.3,1.7-.5,3.4-.7,5.1a9.7,9.7,0,0,0,.1,2.4c.1.9-.2,1.6-1.2,1.6s-1.7.6-2,1.6a8.1,8.1,0,0,1-1,2.1,3.5,3.5,0,0,1-2.1,1l-9.5-.4a2.8,2.8,0,0,1-3-1.7,25.6,25.6,0,0,0-3.5-5.1,2.2,2.2,0,0,0-3.4.1l-.3.3-5.2,6.1-11,.2a3.8,3.8,0,0,1-2.5-1.1c-1.6-2.1-4.2-3.7-3.8-6.9a4.7,4.7,0,0,0-.4-2.3c-.7-1.6-.2-2.7.8-3.9S125.2,125.4,126.1,124.1Z"/><path class="cls-3" d="M64.7,105.9a6.1,6.1,0,0,1-2.3,5,1.7,1.7,0,0,0,0,2.6c2.1,1.9,2.4,4.2,2.2,6.9s2.2,4.3,3.7,6.2c.2.3.9.4,1.4.3l2.7-.8c2.1,2.6-.7,5.5.5,8.4,1.4-.5,1.2-2.5,2.6-2.9l.7.2-.6,6.4-1.7.3c-2.5-.1-4.7-.1-6,2.6-.3.7-1.6,1-2.4,1.1a22.2,22.2,0,0,1-3.6.1c-1.4-2.6-1-5.1-1.2-7.6l.6-.2c2,.3,2.5,4.4,4.9,2.5s-.3-3.8-.9-5.7c-1.7-5-3.3-10-5.1-15s-1.3-7.1,3.8-10.7Z"/><path class="cls-3" d="M60.7,134.7c-2.8-.6-3.7-1.3-3.3-3.5s-.8-4.7-.7-7.1c0-.5-.9-1.2-1.5-1.5s-1.9.6-2,1.7-.1,5.1-.1,7.6.1,3.9-1,5.6h0a4.6,4.6,0,0,1-5.9-.3,3.6,3.6,0,0,1-.8-1.5l.2-.3c4.6-.4,5.5-3.1,4.7-7a38,38,0,0,1-.3-10.1c.2-2.2.9-4.2,3.4-4.5s3.6,1.6,4.2,3.7c1.2,4.3,2.5,8.6,3.6,12.9.4,1.4.8,2.8-.3,4.1Z"/><path class="cls-3" d="M118.4,134.6a167.2,167.2,0,0,1,1.1-22.4c.5-5.3,1-10.5,1.6-15.8.2-2-.1-4.2,1-6,.2,5.7.3,11.5.4,17.2a2.9,2.9,0,0,1-.5,1.8c-1.1,1.8-.8,3.6-.5,5.5s.5,3.5.7,5.2a3.9,3.9,0,0,1-1.5,3.8,3.1,3.1,0,0,0-1.4,2.9v5.3A2.8,2.8,0,0,1,118.4,134.6Z"/><path class="cls-3" d="M37.8,128a23.8,23.8,0,0,1-.1,3.8c-.5,2.8.2,6.1-3.2,7.7-.3.2-.3.8-.6,1.2a2.2,2.2,0,0,1-.9,1l-10.8.6c-2.8,0-3-.4-3.8-3.7l.2-.2c1.1-.9,2.1-.2,3.1.1,6.7,2.1,9.8.6,12.7-5.9.8-1.7.6-4.2,3.2-4.8Z"/><path class="cls-3" d="M85.7,138.5a3,3,0,0,1-1.2-3.3,14.2,14.2,0,0,0-.4-7.9,3.7,3.7,0,0,1,0-1.8c.2-.8.8-1.7-.3-1.9a2.6,2.6,0,0,0-2.1.8c-.5.3-.6,1.1-.9,1.6-1.4,2.1-2.2,4.5-4.6,5.8l-.3-.2c-1.8-6.6,2.3-11.6,9-11,1.5.1,2.7.9,2.5,2.3-.7,5.1.9,10.5-1.5,15.5Z"/><path class="cls-3" d="M172.2,109.6l.4.3c.9,1.1,2.5,2,2.7,3.1a53.7,53.7,0,0,1,.5,8.9,2.9,2.9,0,0,1-.7,1.8c-1.7,1.3-1.6,3.6-2.9,5.2l-.3-.2c-.2-.2-.5-.5-.5-.8-.1-5.9-.6-11.8.2-17.7Z"/><path class="cls-3" d="M110.7,135.6c.4.8.8,1.6,1.3,2.4s4.2,2,5.5-.5c.3-.6.5-1.4.8-2.1a15.3,15.3,0,0,1,.2,3.7c-.3,2.9-1.5,3.8-4.2,3.5a7.8,7.8,0,0,1-2.3-.5,1.8,1.8,0,0,1-1.1-1.3C110.7,139,110.8,137.3,110.7,135.6Z"/><path class="cls-3" d="M106.9,120.2l3.3,12.6a27.4,27.4,0,0,1,.5,2.8,14.5,14.5,0,0,0-2.2-.9c-1.3-.4-1.6-1.3-1.6-2.6Z"/><path class="cls-3" d="M164.5,100c2.5-.3,4.2,1.1,5.5,2.9s3.2,3.9,2.2,6.7l-.3.2c-3.4-2.4-5-6.3-7.6-9.5Z"/><path class="cls-3" d="M122.1,90.4c0-1.5,0-3.1-.1-4.7C123.6,87.7,123.6,88.4,122.1,90.4Z"/><path class="cls-3" d="M52.1,137.5l.4.2-.4-.2Z"/><path class="cls-7" d="M62.1,69a18.9,18.9,0,0,1-.9-2.1c-.8-3.4-.7-6.5,2-9.1.3.1.5.1.7-.2a1.2,1.2,0,0,1,1.9.2h0c2.2-.1,1.9,4,4.1,2.8s1.4-3.6,1.8-5.6a19.2,19.2,0,0,0-1-9.8h.1c-2.2-1.7-4.2-3.3-6.9-4.1-4.3-1.2-4.1-5.2-4.7-8.6V30.2c.8-2.5.3-5,.8-7.6s3.5-6.4,6.5-8.4,7.2-.6,9,2.8,1.1,5.5.9,8.4a3.2,3.2,0,0,1-3.1,3.1c-1.8.1-2.4-1.2-2.8-2.7s0-2.3-.9-3.2c-3.4,3.6-3.4,7.4,0,12.1h0c4.9.9,7.7,3.8,8.7,8.6h0c4.9,8,2.7,20.3-4.5,25.8-4,3.1-7.6,3-11.7-.1Z"/><path class="cls-3" d="M69.6,34.7c-3.5-.9-3.7-1.1-3.8-3.8s-.1-6.7,2-9.6a6.5,6.5,0,0,1,1.6-1.7,1,1,0,0,1,1.5.4,19.1,19.1,0,0,1,.6,3.3c.2,1.2.2,2.5.5,3.7a1.7,1.7,0,0,0,1.4,1,1.9,1.9,0,0,0,1.4-1,17.2,17.2,0,0,0,.1-9c-1.2-3.7-4.7-5-8-3a11.5,11.5,0,0,0-4.8,5.2A46.5,46.5,0,0,0,60,26.5c-.3,1.2-.5,2.5-.8,3.7,0-2.4-.2-4.8,0-7.2s.5-5.4,3.3-6.9a4.4,4.4,0,0,0,1.3-1.4c1.9-3.4,5.2-3.3,8.4-3a5.4,5.4,0,0,1,2.3,1.5c.9.7,1.5,1.7,2.4,2.2s1.7,1.7,1.2,2.8a8.8,8.8,0,0,0,0,6c.7,2.4-.8,4.7-3.2,5.6S70,31.6,69.6,34.7Z"/><path class="cls-3" d="M62.1,69c6.2,3.7,16-.6,17.2-10.1a36.8,36.8,0,0,0-.5-12.8,27.4,27.4,0,0,1-.5-2.8l1.3.6A3.6,3.6,0,0,1,82.1,48c-.1,1.2-.2,2.5-.4,3.8a5.4,5.4,0,0,0,0,1.8c.8,4.4-.9,8.1-3,11.7A8.7,8.7,0,0,1,77.1,67a8.3,8.3,0,0,0-2,2.2c-1.5,3.5-4.4,4.3-7.8,3.8h-.5c-2.5.4-3.9-.6-4.4-3.1Z"/><path class="cls-3" d="M70.7,45.1A9.4,9.4,0,0,1,72,47.5,30.7,30.7,0,0,1,72.8,58a6.7,6.7,0,0,1-2.4,4.5c-1,.9-2.7,1.3-3,.7a5,5,0,0,1,0-2.1c.1-1.5-.9-2.3-1.6-3.4,1.3-.1,3.1.1,4-.6s.7-2.5,1.2-3.8a6.3,6.3,0,0,0,.1-3.6A23.8,23.8,0,0,1,70.7,45.1Z"/><path class="cls-3" d="M59.2,32.4l.7,1.8a8.6,8.6,0,0,0,5.5,6.7l3.4,1.6a3.4,3.4,0,0,1,2,2.6c-1.2,0-2.3.2-3-1s-2.2-1.9-4.1-1.3-2.9.1-3.6-2.3A20.3,20.3,0,0,1,59.2,32.4Z"/><path class="cls-3" d="M78.3,43.3a18.6,18.6,0,0,0-8.7-8.6c1.5,0,2.9-.1,4.3,0A4.7,4.7,0,0,1,78.2,39,30.9,30.9,0,0,1,78.3,43.3Z"/><path class="cls-3" d="M65.8,57.8l-1.9-.2C64.6,56.7,65.2,56.6,65.8,57.8Z"/><path class="cls-7" d="M37.6,127.8c-.9,2-1.6,4.1-2.6,6-3.5,7.6-7.5,9-15.1,5.1l-1.3-.5c-3.5-3.4-4.8-7.8-4.8-12.5s.4-10.5.6-15.7c.1-2.1.3-4.1.4-6.2h0c.8-5.5,1.2-11.1,4.4-16.1,2.3-3.5,4.7-6.3,8.9-7h.1c2.2-1.8,4.4-1.5,6.6.1h0c4.2,2.3,5.5,5.2,3.9,8.6S36,93,34,90.4h0c-1-1-.5-3.3-2.8-3.3s-3.4,1.2-4.4,3c-2.1,3.8-2.3,8.2-4.4,11.9-.3.2-.3.4-.1.7a168.7,168.7,0,0,0,0,26.6c-.2.2-.2.4.1.5a2.6,2.6,0,0,0,1.3,2.4c2.3,1.9,3.5,1.8,5-.7a24.6,24.6,0,0,0,3.3-8.8c.3-1.8.1-2.1-1.7-2.8a4.4,4.4,0,0,1-1.7-.7,4.1,4.1,0,0,1-1.3-1.9c-.2-1,.6-1.7,1.4-2.2l.5-.2c3.4-.5,6.9-1.1,10.3-1.4a2.6,2.6,0,0,1,2.8,2.1,3,3,0,0,1-1.4,2.9,5.2,5.2,0,0,1-1.3.6,1.9,1.9,0,0,0-1.6,2C37.9,123.4,37.7,125.6,37.6,127.8Z"/><path class="cls-3" d="M28.1,80.9c-5.6,2.5-8.6,7.2-10.4,12.7-.9,2.7-1.4,5.5-2.2,8.2-.2.8-.5,1.5-.7,2.2.1-3.3-.6-6.7.4-9.9a1.7,1.7,0,0,0,0-1.4c-.9-1.9,0-3,1.6-3.8s1.5-1.1,1.5-1.7S20,85,20.7,83.8C22.5,80.9,25.1,80.5,28.1,80.9Z"/><path class="cls-3" d="M22.4,102A25.1,25.1,0,0,1,26,89.8c1.2-2.1,2.8-3.8,5.5-4.1s2.5.4,2.6,1.9a26.2,26.2,0,0,1-.1,2.8l-.4-.2c-1.1-1.4-2.6-2.2-4.1-1.4s-3.1,2.2-2.9,4.4C26.8,96.9,25.6,99.9,22.4,102Z"/><path class="cls-3" d="M34,90.4l.7.6c1.7.8,2.6.6,3-.9.9-3.2,1-6.3-2.3-8.4-.3-.2-.4-.5-.6-.7s1.7-.1,2.2.3a36.8,36.8,0,0,1,4,3.9,1.9,1.9,0,0,1,.5,1.3c.2,2.8-3.2,6.1-6,5.8C34.4,92.2,34,91.4,34,90.4Z"/><path class="cls-3" d="M22.3,129.3a19.2,19.2,0,0,1-.9-3.2,150.2,150.2,0,0,1,.2-21.2,14.2,14.2,0,0,1,.7-2.2Z"/><path class="cls-3" d="M46.4,81.8l-.4-.2.4.2Z"/><path class="cls-8" d="M33.9,188.1c-.4,1.6-1,3.1-1.3,4.6-.9,4.8-1.8,9.7-2.6,14.6l-1.1,2.1a3.6,3.6,0,0,1-3.9,2.1,3.8,3.8,0,0,1-3.1-2.7,8.6,8.6,0,0,1-.6-2.3c-.2-2.4-.6-4.7-.7-7.1-.4-6.5-.6-13.1-1-19.6-.1-2,.2-4.2-.9-6.1-.6-4.1-1.2-8.1-1.7-12.2-.1-1.4-.3-2.9-.3-4.3s1.2-1.9,2-1.6a11.9,11.9,0,0,1,3.4,1.6,2.5,2.5,0,0,1,1,3,5.2,5.2,0,0,0-.2,3.7c1.5,6.5,2.9,13,4.3,19.5.6.4.5,1,.4,1.6s.1-1.2.5-1.7c1.9-6.7,3.9-13.4,4.8-20.4a50.4,50.4,0,0,1,1.1-5.6,16.9,16.9,0,0,1,1-2.7,2.9,2.9,0,0,1,3.2-1.7,3.2,3.2,0,0,1,2.5,3.1,19.2,19.2,0,0,1-.5,3.2l-6.3,27.5A6.5,6.5,0,0,0,33.9,188.1Z"/><path class="cls-7" d="M48.5,155.7c1.4-.3,2.8-.7,3.8.9a7.7,7.7,0,0,0,2.1,1.9A10.8,10.8,0,0,1,59,168c-.1,5.3-.5,10.6-.8,15.8s-2.3,12.5-4.9,18.4a14.1,14.1,0,0,1-1.9,3.4c-1.4,1.9-3.4,2.2-5.5,1.1a10.9,10.9,0,0,1-5.2-7.2,43,43,0,0,1-1.6-9.4,67.5,67.5,0,0,1,1.9-19,45.8,45.8,0,0,1,7.4-15.4Z"/><path class="cls-9" d="M28.1,183.3c-.1.6-.3,1.1-.4,1.6l-.5-1.5Z"/><path class="cls-10" d="M158.6,175.5a14.8,14.8,0,0,1,.1,2.1c-1.7.6-1.7.6-1.9,2.9-1.9-1.6-3.7-3.5-6.3-4.1a2.3,2.3,0,0,1-1.5-2.3,28.4,28.4,0,0,1,2.7-14.3c.8-1.5,2.2-1.6,2.9-.1a9.7,9.7,0,0,1,1.2,4c.1,3-.2,6-.4,9.1,0,.6-.3,1.2-.3,1.8s-.2,1.7.7,2.1a1.7,1.7,0,0,0,2.1-.6Z"/><path class="cls-7" d="M40,20.3c3.3-3.8,7.8-3.9,12.3-3.8a3.2,3.2,0,0,1,3,3.2A3.5,3.5,0,0,1,52,23.1h-.5c-1.8-.1-3.8-.5-5.5.7,0,1.7-.2,3.4-.1,5.2,0,4.1.2,8.3.3,12.4,0,1.2.3,1.8,1.6,1.9h3.3a2,2,0,0,1,2,1.7,2.2,2.2,0,0,1-1.3,2.3l-3.6,1.4c-2.3.8-2.5.8-2.3,3.3s.6,7.3,1,11a1.4,1.4,0,0,0,1.7,1.2,55.8,55.8,0,0,1,5.7-.8,2.7,2.7,0,0,1,3,1.9A3.4,3.4,0,0,1,56,69.2a41.4,41.4,0,0,1-4.3,2,35.3,35.3,0,0,1-5.6,1.4c-3.1.6-5.5-1-5.9-4.1-1-6.5-1.7-13-.8-19.5.4-3.5.4-7,.5-10.5V36.9a42.6,42.6,0,0,0-.1-13.8h0a2.3,2.3,0,0,1,.1-2.9Z"/><path class="cls-3" d="M39.9,23.1c.3.4.7.8.7,1.2.1,4.2.5,8.4-.6,12.6C40,32.3,39.9,27.7,39.9,23.1Z"/><path class="cls-3" d="M40,20.2c0,1-.1,1.9-.1,2.9C38.7,21.6,38.7,21.6,40,20.2Z"/><path class="cls-7" d="M35.9,68.9l-8,1.7c-3.6.7-6.1-1-6.1-4.6-.2-7.4-.1-14.7.1-22.1s.5-12.4.8-18.6a25.5,25.5,0,0,1,.2-3.9,3,3,0,0,1,2.2-2.8c1.3-.4,2,.6,2.8,1.4l.3.3.3,24.9c0,4.7-.1,9.3,0,13.9,0,1.1.1,2.2.2,3.3h4.4c3.8.1,5,2.3,3.3,5.7A5.6,5.6,0,0,1,35.9,68.9Z"/><path class="cls-7" d="M91.5,154.6c3.2,5.6,2.4,11.4.8,17.1a1.1,1.1,0,0,1-.5.8l-1.3.2a.7.7,0,0,1-.6-.6c-.1-1.1-.1-2.2-.2-3.3-.1-2.7-.1-5.4-.3-8.1a1.7,1.7,0,0,0-1-1.5c-.4-.2-1.2.3-1.5.7A20.5,20.5,0,0,0,83,171.6a3,3,0,0,0,2,3c5.5,2.1,7.7,6.7,8.7,12.2a25.4,25.4,0,0,1,.1,9.9,17.6,17.6,0,0,1-6.3,10.4,58.4,58.4,0,0,1-6.9,1.8,7.7,7.7,0,0,1-8.2-10.6,5.2,5.2,0,0,1,1.5-1.8A2.6,2.6,0,0,1,78,198c.2.6.1,1.2.3,1.9s1.1,1.8,2.4,1.6c2.8-.6,4.7-2,5.4-4.8a18,18,0,0,0-.9-12.7,6.5,6.5,0,0,0-2.9-3c-4.5-2.3-5.7-6.2-5.1-10.9a28.6,28.6,0,0,1,4.3-11.6,9,9,0,0,1,1.5-1.9C85.4,154.1,88.1,152.9,91.5,154.6Z"/><path class="cls-7" d="M85.9,138.4c.1-5.3.3-10.5.5-15.8,0-1-.6-1.3-1.6-1a49.8,49.8,0,0,1-5.5,1.6,2.5,2.5,0,0,0-1.9,1.9l-1.5,6.5c-.6,1.6-1.1,3.2-1.8,4.8a1.9,1.9,0,0,1-1.4.9,1.4,1.4,0,0,1-1.5-1.5c.1-1.7.3-3.4.5-5.1s.4-3.1.7-4.6h0c1-4.9.4-10.2,3.7-14.5.2-.2.3-.4.1-.6,1.5-4.9.7-10.3,3.9-14.7h0c.9-2.5,1.9-5,2.7-7.5a13.3,13.3,0,0,1,3.8-5.5c2.1-2,4.7-1.4,5.6,1.4a29.9,29.9,0,0,1,1,6.1,30,30,0,0,1,.3,4.3c-.1,13.8-.1,27.7-.2,41.5a11.5,11.5,0,0,1-.1,1.9,3.4,3.4,0,0,1-2.7,3,3.2,3.2,0,0,1-3.7-1.5Z"/><path class="cls-11" d="M102.1,104l.4-1.6c.2.5.3,1,.5,1.6Z"/><path class="cls-3" d="M80.1,96.3A58.1,58.1,0,0,1,76.2,111c0-2.5-.4-5,.5-7.5a5.7,5.7,0,0,0-.4-3.1,4.2,4.2,0,0,1,.9-3.1C77.9,96.1,79,96.3,80.1,96.3Z"/><path class="cls-3" d="M76.1,111.6l-3.7,14.5c-.2-4.2-.3-8.3.9-12.3A3,3,0,0,1,76.1,111.6Z"/><path class="cls-3" d="M68.5,98.2c0,1.3,0,2.5-.1,3.7-.1,3.1-.2,3.3-3.7,4l-.3-.2c-.4-3.5.7-6.1,3.9-7.7Z"/><path class="cls-4" d="M68.3,98l-3.9,7.7c-1.5,1.8-3.5,3.5-4.3,5.6s1.2,4.4,1.9,6.6c1.9,5.6,4,11.1,6.1,16.7l.3.9a3.2,3.2,0,0,1-1.4,3.7,3,3,0,0,1-3.8-1c-.9-1.2-1.5-2.5-2.3-3.7l-5.1-18.7a1.6,1.6,0,0,0-1.8-1.2c-1.5.1-2.4.7-2.6,1.7v2.3c.1,3.5.3,7,.4,10.5a30.9,30.9,0,0,1-.1,4.3c-.4,3.2-2.2,4.1-5.3,2.6l-.8-.6c.1-7.1,0-14.3.2-21.4.3-9.1,1-18.1,1.5-27.2a12.8,12.8,0,0,1,.1-1.9,2.2,2.2,0,0,1,1.7-2c8.5-3.1,14.3-.1,17.8,6.4l1.4,2.5c-.2.2-.1.4.1.6C68.4,94.3,68.3,96.2,68.3,98Z"/><path class="cls-3" d="M111.8,112.4,107.6,100c-.4-1.2-.6-2.4-.9-3.6,2-.2,3.5,1.1,5,2.1a1.1,1.1,0,0,0,1.8-.8c.2-1.1-.2-2.6,1.1-3.4a111.4,111.4,0,0,1-1.2,19.1C112.3,114,112.2,113.1,111.8,112.4Z"/><path class="cls-3" d="M106.7,96.4c-1.2-3.6-2.5-7.1-3.8-10.6,3.4.3,3.9.6,3.9,3.4S106.8,94,106.7,96.4Z"/><path class="cls-3" d="M101.1,84.7H99.2C99.8,83.7,100.4,83.7,101.1,84.7Z"/><path class="cls-3" d="M103,85.8l-1.3-1Z"/><path class="cls-12" d="M195.1,61.8c2.4-1.4,4.9-1.8,7.3,0a18.5,18.5,0,0,1,.4,2.3c.1,3-.8,4.3-3.6,5.3a11.7,11.7,0,0,1-3.6.8,3.1,3.1,0,0,1-3.1-4.5A33,33,0,0,1,195.1,61.8Z"/><path class="cls-13" d="M69.8,148.2c-.5.2-1.1.7-1.7.7a1.7,1.7,0,0,1-1.6-1.9,1.4,1.4,0,0,1,1.7-1.2C69.3,145.9,69.9,146.8,69.8,148.2Z"/><path class="cls-14" d="M103.7,149.9a1.8,1.8,0,0,1-2-1.5,1.6,1.6,0,0,1,1.5-1.6,1.9,1.9,0,0,1,2.2,1.3C105.6,148.9,104.8,149.8,103.7,149.9Z"/><path class="cls-3" d="M132.8,111.6l.3-19.2c0-2.1,1.1-2.4,2.8-1.8a4.4,4.4,0,0,1,1.6,1c3.1,3,5.4,6.5,5.8,10.8a56.1,56.1,0,0,1-1.9,22.3,33.2,33.2,0,0,1-2.9,6,4.1,4.1,0,0,1-2,1.9c-3.4,1.3-4,1.6-4-2.3.1-6.2,0-12.5,0-18.7Z"/><path class="cls-7" d="M164.3,100.3c4,2,5.8,5.8,7.6,9.5a59.9,59.9,0,0,1,0,18.9c-.4,1-.9,2-1.3,3.1a18.3,18.3,0,0,1-6.4,8.1c-3.5,2.7-7.3,2.3-10.3-1a13.6,13.6,0,0,1-2.5-4,4.7,4.7,0,0,1,.3-4.6,3.1,3.1,0,0,1,5.2-.2c.5.7.7,1.5,1.2,2.1s1.8,1.5,3,.3a10.6,10.6,0,0,0,3.1-5.4,32.5,32.5,0,0,0,.9-12.8,8.6,8.6,0,0,0-.6-2.3,8.5,8.5,0,0,0-4.4-5.9c-3.9-2.2-4.8-4.6-4-8.8a22.7,22.7,0,0,1,6-11.3,10.3,10.3,0,0,1,3.2-2,3.3,3.3,0,0,1,3.8,2,5.6,5.6,0,0,1-.5,4.7,1.7,1.7,0,0,1-2.5.6,1.3,1.3,0,0,0-2.2.6,48.7,48.7,0,0,0-2.1,5.3,3.1,3.1,0,0,0,.4,2.3C162.6,100,163.6,100,164.3,100.3Z"/><path class="cls-15" d="M47.7,198.5c-4.1-8.5-3.1-25.6,2.1-35.6a4.9,4.9,0,0,1,3.2,3.6,3.6,3.6,0,0,1,.2,1c-.2,10.2-.2,20.4-4.7,29.9C48.4,197.7,48.1,197.9,47.7,198.5Z"/><path class="cls-16" d="M86.7,97.2c0,5.7.1,11.4.1,17.1,0,2.2-.3,2.4-2.5,2.8l-4,.7a4.9,4.9,0,0,1-.4-1c2-6.5,3.9-13,5.9-19.6Q86.3,96.6,86.7,97.2Z"/><path class="cls-17" d="M86.7,97.2h-.9a8.8,8.8,0,0,1,.5-1.5Z"/><path class="cls-18" d="M51.3,98.8V89.7c0-2.1.8-2.9,2.9-2.8a8.4,8.4,0,0,1,8.2,7.2,5.9,5.9,0,0,1-.7,3.7c-1.9,2.9-3.9,5.8-6,8.6-.9,1.2-2.4,2-3.6,3-1.6-1.4-.5-3.3-.7-4.9a54.2,54.2,0,0,1,0-5.7Z"/><path class="cls-1" d="M208.7,114.2A4.6,4.6,0,0,0,205,116c-1.2,2.1-3,2.1-4.9,2a2.8,2.8,0,0,1-.8-1.1,9.9,9.9,0,0,1-.1-4.2,11.2,11.2,0,0,1,.5-1.3c.9-2.1,2.5-4,3.4-6.2a5.9,5.9,0,0,1,4.2-3.5c3.7-1,6.4-3.1,6.7-7.1.2-2.5-4-5.6-7.8-6.2a4.8,4.8,0,0,1-1.8-.6l-.5-.5a1.8,1.8,0,0,1,1.3-1.8c2.3-.8,4.7-.2,7,0,.7,0,5.9,5.1,5.9,5.8a62.6,62.6,0,0,1-.1,7.5c0,.7-.9,1.3-1.4,1.8s-2.2,1.5-2.8,2.6a4.4,4.4,0,0,1-4.2,2.4c-1.3,0-1.9,1-2.4,2C206,110.2,207.2,112.2,208.7,114.2Z"/><path class="cls-1" d="M192.4,98.8a5.2,5.2,0,0,1,2.5-4.3c2.4-1.4,3.9-3.6,5.8-5.5s1.8-1.7,3.2-1.7c2.8,2.8.1,4.2-1.5,5.7a24.1,24.1,0,0,0-8.9,18.9,6.5,6.5,0,0,1-.5,2,1.9,1.9,0,0,1-1.6,1.2c-1.4-.7-2.4-1.8-1.5-3.4a8.1,8.1,0,0,0,.6-5.5,38.4,38.4,0,0,1,0-4.8A2.9,2.9,0,0,1,192.4,98.8Z"/><path class="cls-3" d="M189.2,151.4c-.5-5.2,2.8-8.8,5.2-12.7,3.5-1.9,6.4-5.1,11-4.6a54.2,54.2,0,0,0,5.7,0,5.4,5.4,0,0,1,3.6,1,4.9,4.9,0,0,1,1.6,3.7l-.2.2c-3.3-.5-6.1-2.5-9.9-2.1-6.2.6-9.8,3.8-12.7,8.7-1.2,2-1.4,4.6-3.6,6Z"/><path class="cls-1" d="M217.3,109.4c-.8.9-1.8,1.7-1.9,3.1s-1.6,1.6-2.9,1.6c.3-1,.3-2.3.9-3a11.7,11.7,0,0,0,3.2-6.8,4.7,4.7,0,0,1,1.1-2.1"/><path class="cls-3" d="M196.1,178.8a8.2,8.2,0,0,1,4.6,2.4,3.8,3.8,0,0,0,3.7,1.3l.3.3c.8,2.3-.5,3.8-2.2,4.6s-2.9-.9-3.9-2-3.4-3.4-3.1-6.2Z"/><path class="cls-3" d="M189.2,164.9c-2.8-1.3-3-1.4-2.4-3.6a7.5,7.5,0,0,0,.2-4.2,5.1,5.1,0,0,1,2.2-5.7h.2c1.9,4.2,0,8.6.4,12.9Z"/><path class="cls-3" d="M192.1,168.7c-2.2-.3-2.4-2.1-2.9-3.8l.3-.2c2.3.1,2.9,1.7,2.9,3.7Z"/><path class="cls-3" d="M191.4,115.1l1-.9a3.3,3.3,0,0,1,.1,4.7l-.2.2c-.4.3-.6.2-.9-.1Z"/><path class="cls-3" d="M204.6,175.9l1.1-.5a2.7,2.7,0,0,1,.6,1c.1.1-.3.4-.3.4Z"/><path class="cls-1" d="M191.4,119h.9v1.8C191.8,120.4,190.2,120.3,191.4,119Z"/><path class="cls-3" d="M195,177.8l.9.9-.3.4a1.5,1.5,0,0,1-.9-1Z"/><path class="cls-19" d="M194.6,178l.7.7c1.9,2.6,3.7,5.2,5.6,7.7a1,1,0,0,0,1.6.1c.8-1.2,1.5-2.5,2.2-3.7l3.6-4.4a12.9,12.9,0,0,1,1.6-1.7,2,2,0,0,1,3,.5,6.9,6.9,0,0,1,.9,3.1c.2,7.8.2,15.7.2,23.5a3.9,3.9,0,0,1-.5,2.3,2.1,2.1,0,0,1-2.3,1.3A3.7,3.7,0,0,1,209,206a7.5,7.5,0,0,1-.6-3.3c-.1-4.3,0-8.6,0-12.9v-2.7c-1.8.8-2.2,2.3-3,3.3-2,2.6-3.2,2.8-6,1a8.8,8.8,0,0,1-1.5-1.2c-2.2-.3-1.5,1-1.2,2.1,0,2.9.1,5.7.2,8.6a17.6,17.6,0,0,1,0,2.3,3,3,0,0,1-2.5,2.6,3.1,3.1,0,0,1-3.2-1.6,12.2,12.2,0,0,1-.9-4.2c-.1-6.6-.1-13.3-.1-20a2.8,2.8,0,0,1,.1-.9c.2-1.6,1.5-2.3,3.1-1.7Z"/><path class="cls-20" d="M192.4,168.4c-1-1.2-2-2.4-2.9-3.7a18.4,18.4,0,0,1-.3-10.9,19.5,19.5,0,0,0,.2-2.3l2-4.8a25.9,25.9,0,0,1,5.5-7.7c2-1.8,4.3-3.1,7.2-2.9a12,12,0,0,0,3.8-.4,6.6,6.6,0,0,1,7.2,2.3l1,1c2.1,6.5,1.6,12.9-.1,19.3a18.2,18.2,0,0,1-4,7.5,14.6,14.6,0,0,1-17.9,3.4Z"/><path class="cls-20" d="M192.5,118.9c-.1-1.6-.1-3.1-.1-4.7a7.6,7.6,0,0,1,.1-1.5A30.7,30.7,0,0,1,204.4,91c2.8-2.2,5.3-2.5,7.9.3s2.2,5.5-.4,8-3.8,2.1-4.8-1.1c0-.6.5-1.1.4-1.7a6.9,6.9,0,0,1-.5,1.3,76.6,76.6,0,0,0-7,14.4h0a7.7,7.7,0,0,0,0,5.4l-.2.3.3.2c1.2,2.3,2.7,2.9,4.3,1.8a24.9,24.9,0,0,0,2.3-2.3,13.1,13.1,0,0,1,2.1-2,3.3,3.3,0,0,1,4,.1,3.4,3.4,0,0,1,1.1,3.4c-1.2,5.1-7,9.3-12.1,8.8a9.8,9.8,0,0,1-8.1-5.8C193.2,121,192.9,119.9,192.5,118.9Z"/><path class="cls-3" d="M207.9,96.9c-.1.3-.1.6-.2.9a1.9,1.9,0,0,0,1,2,2.2,2.2,0,0,0,2.6-.5,6.6,6.6,0,0,0,1.6-5.8,4.1,4.1,0,0,0-5.6-3,12.2,12.2,0,0,0-4,2.5,29.5,29.5,0,0,0-9,13.9l-1.8,5.8c.1-2.7.2-5.5.4-8.3a2.4,2.4,0,0,1,.9-1.6c2.2-1.6,2.4-4,2.9-6.2.2-.6.5-1.4.8-1.5,3.1-.3,3.8-3.5,6.2-4.8s.8-1.9.2-3h2.9c2.1-.1,4.1,0,5.1,2.4a3.5,3.5,0,0,0,1.4,1.3,3.6,3.6,0,0,1,2.1,3.4c.1,1.8,0,3.4-1.8,4.5a4.4,4.4,0,0,0-1.3,1.4,5.1,5.1,0,0,1-4.3,2.4,3.6,3.6,0,0,0-3.9,2.9c-.6,2.7-2.5,4.6-4.1,6.6A23.7,23.7,0,0,1,206.8,97C207.1,96.5,207.5,96.5,207.9,96.9Z"/><path class="cls-3" d="M200,117.5a5.5,5.5,0,0,1,0-5.4Z"/><path class="cls-3" d="M194.2,99.8c-.6.3-1,.5-1.1.4a2.4,2.4,0,0,1-.6-1l.3-.3Z"/><path class="cls-1" d="M224.2,192.5a3.3,3.3,0,0,1,2.2,2.8,5.5,5.5,0,0,1-1.8,4.7,1.5,1.5,0,0,1-2.1-.3c-1.3-1.7-.9-5.4.8-7C223.5,192.5,223.9,192.6,224.2,192.5Z"/><path class="cls-21" d="M210.1,148.8c-.5,2.6-.8,5.1-1.5,7.5a10.8,10.8,0,0,1-2.5,4.1,8,8,0,0,1-3.5,2.2c-3.6,1.1-6.5-1.1-6.4-4.8.2-5.2,1.6-10.1,5.1-14.1,1.5-1.7,5.1-2.5,7-1.5a2.2,2.2,0,0,1,1.1,1.4A46.3,46.3,0,0,1,210.1,148.8Z"/><path class="cls-22" d="M207.9,96.9h-1.1c.2-.4.3-.9.7-1.1s.7,0,1,.1Z"/></g></g></svg>