<svg xmlns="http://www.w3.org/2000/svg" viewBox="0 0 348.2 94"><defs><style>.cls-1{fill:#fff;}.cls-2{fill:#fefefe;}.cls-3{fill:#100d0d;}.cls-4{fill:#191414;}.cls-5{fill:#1e1d1d;}.cls-6{fill:#181717;}.cls-7{fill:#313636;}.cls-8{fill:#211d1d;}.cls-9{fill:#0c0c0c;}.cls-10{fill:#d1d7dc;}.cls-11{fill:#0f0e0e;}.cls-12{fill:#181414;}.cls-13{fill:#211f1f;}.cls-14{fill:#231e1e;}.cls-15{fill:#748686;}.cls-16{fill:#202020;}.cls-17{fill:#707b7b;}.cls-18{fill:#1d1d1d;}.cls-19{fill:#1c1818;}.cls-20{fill:#1d1919;}.cls-21{fill:#050404;}.cls-22{fill:#272c2c;}.cls-23{fill:#7b3636;}.cls-24{fill:#1a2525;}.cls-25{fill:#434040;}.cls-26{fill:#121111;}.cls-27{fill:#100e0e;}.cls-28{fill:#beb6b6;}.cls-29{fill:#a7a6a6;}.cls-30{fill:#292929;}.cls-31{fill:#3e3838;}.cls-32{fill:#0a0b0e;}.cls-33{fill:#6786b7;}.cls-34{fill:#7f9ac3;}.cls-35{fill:#5e7caf;}.cls-36{fill:#7494be;}.cls-37{fill:#5879ae;}.cls-38{fill:#0a0909;}.cls-39{fill:#171414;}.cls-40{fill:#0f0c0e;}.cls-41{fill:#222;}.cls-42{fill:#312f2f;}.cls-43{fill:#161414;}.cls-44{fill:#0f0d0d;}.cls-45{fill:#151212;}.cls-46{fill:#141212;}.cls-47{fill:#413e3e;}.cls-48{fill:#131010;}.cls-49{fill:#030404;}.cls-50{fill:#3d1616;}.cls-51{fill:#242323;}.cls-52{fill:#1b1818;}.cls-53{fill:#dedede;}.cls-54{fill:#ebefef;}.cls-55{fill:#1c1515;}.cls-56{fill:#191717;}.cls-57{fill:#171515;}.cls-58{fill:#effdfd;}.cls-59{fill:#427b7b;}.cls-60{fill:#430a0a;}.cls-61{fill:#1a1818;}.cls-62{fill:#676c6c;}.cls-63{fill:#929c9c;}.cls-64{fill:#1e1c1c;}.cls-65{fill:#151414;}.cls-66{fill:#1d1a1a;}.cls-67{fill:#100c0c;}.cls-68{fill:#0f0b0b;}.cls-69{fill:#181616;}.cls-70{fill:#bdbcbc;}.cls-71{fill:#acb2b2;}.cls-72{fill:#121010;}.cls-73{fill:#676565;}.cls-74{fill:#131313;}.cls-75{fill:#c4c7c7;}.cls-76{fill:#292e2e;}.cls-77{fill:#221f1f;}.cls-78{fill:#111010;}.cls-79{fill:#6b1e1e;}.cls-80{fill:#1d4949;}.cls-81{fill:#140d0d;}.cls-82{fill:#0f0c0c;}.cls-83{fill:#d0e0e4;}.cls-84{fill:#4f3032;}.cls-85{fill:#6683b3;}.cls-86{fill:#819bc2;}.cls-87{fill:#7993be;}.cls-88{fill:#728ebb;}.cls-89{fill:#0d0e10;}.cls-90{fill:#20191a;}.cls-91{fill:#708cb8;}.cls-92{fill:#6180b3;}.cls-93{fill:#bbb7c9;}.cls-94{fill:#4866a1;}.cls-95{fill:#312626;}.cls-96{fill:#e3e9e9;}.cls-97{fill:#c5d5d5;}.cls-98{fill:#433b3b;}.cls-99{fill:#100707;}.cls-100{fill:#d0d2d2;}.cls-101{fill:#4c6ea7;}.cls-102{fill:#4a6b9f;}.cls-103{fill:#7591bc;}.cls-104{fill:#5071a9;}.cls-105{fill:#7290bc;}.cls-106{fill:#41609a;}.cls-107{fill:#e5e6e6;}.cls-108{fill:#96abab;}.cls-109{fill:#839cc3;}.cls-110{fill:#758bb5;}.cls-111{fill:#a9c0d1;}.cls-112{fill:#cfdada;}.cls-113{fill:#b8c2c2;}.cls-114{fill:#c9cbcc;}.cls-115{fill:#c8dbdb;}.cls-116{fill:#7a7c7c;}.cls-117{fill:#d3d6d6;}.cls-118{fill:#999f9f;}.cls-119{fill:#e0e0e0;}.cls-120{fill:#bdc9c9;}.cls-121{fill:#9fa3a3;}.cls-122{fill:#8b9393;}.cls-123{fill:#7fa2a2;}.cls-124{fill:#d3dfdf;}.cls-125{fill:#5a78ad;}.cls-126{fill:#6a89b8;}.cls-127{fill:#6b87b7;}</style></defs><title>aujourdhui_1</title><g id="Layer_2" data-name="Layer 2"><g id="aujourdhui"><path class="cls-1" d="M254.2,18.2a2.5,2.5,0,0,1,1.8,2.5,5.6,5.6,0,0,1-.6,3.2c-1.9,2.6-4.3,4.4-7.8,3.7a9.5,9.5,0,0,0-4.1,0,24.6,24.6,0,0,1-11.4-1c-2.6-.9-4.8-1-7.2.7a6,6,0,0,1-5.4.7c-1.3-.5-2.9-.2-4.3-.2-5.7-.3-11.5.3-17.2-.5-3.1-.5-6.3.4-9.5.8a1.1,1.1,0,0,0-.5,1.8,2.3,2.3,0,0,0,.7.7c2,1.1.3,3.8,2.1,5a7.1,7.1,0,0,1,3.3,4.4c1,3.7.1,5.8-3.4,7.1l-2.8.8c-1.6-1.9-.9-3.6,1-4.8s2.7-2.8-.3-4.1c-1.2-.6-1.6-1.9-2-3.1a5.7,5.7,0,0,0-.8-1.3.8.8,0,0,0-1.1.5c-1.1,6.5-2,7.1-7.5,6.2-2.6-1.2-5.4,1-8-.6l-.5-.5c1.5-2.2,3.9-3.1,6.1-4.4a3.2,3.2,0,0,1,1.4-.2c.9-.1,1.9,1,2.6.1a10.7,10.7,0,0,0,.8-2.7c.2-.6.6-1.1.8-1.7a3.2,3.2,0,0,0-3.5-4.4,5.5,5.5,0,0,0-4.3,2.7c-1.1,2.2-2.9,2.3-4.9,1.8a4.1,4.1,0,0,1-1.6-1.6,1.5,1.5,0,0,1,.7-2c2.1-.3,4.1-1,5.3-2.8,2.6-3.7,5.7-3.5,9.1-1.2,1.6,1.1,3.1,1.4,4.7-.1a2.8,2.8,0,0,1,2.2-.2c5.3,1.1,6.3.6,8.6-4.4l.6-1.3.3-.9c1-1.6.3-5.2,3-4.6s1.9,3.8,1.6,6.1a11.2,11.2,0,0,1-.5,1.3c-1.6,2.8-.8,3.7,2.4,4,5.5.5,10.9-.8,16.3,0,3.1.4,4.7-2.4,7.3-2.9s3.1,1.1,4.8.6a1.9,1.9,0,0,1,1.3.1c3,2.7,6.2,2.7,9.6,1.1,2.3,2.5,4.4,1.6,6.6-.1S252.5,19.3,254.2,18.2Z"/><path class="cls-1" d="M132.3,61.4c.9-1.1,1.8-2.2,2.8-3.2s3.6-1.9,5.7-.7,2.2,1.8,1.2,4.2-.4,2.1.7,2.8.8.6,1.3.6a6.8,6.8,0,0,1,5.5,2.3,1.4,1.4,0,0,0,2.1-.1,9.2,9.2,0,0,1,4.5-2.5c.4-.1.7-.4.9-.3,2.8,1.4,5.3-.7,8-.2a4.8,4.8,0,0,1,3.9,2.3c.9,1.8,1.4,3.6-.2,5.3-1-.1-1.6-.9-2.4-1.5l-1.4-.9c-1.4-.5-2.8-.1-4.3,0s-4-1-4.5,2.1a1.8,1.8,0,0,1-2.4,1.6c-1-.5-1.4-1.6-2.1-2.3s-3.9.5-5.6-.9l-1.4-.9a1.7,1.7,0,0,0-1.4-.1,6,6,0,0,0-.9,1.3c-.4.6-.7,1.3-1.4,1.6l-.8-.5c-2.3-1.4-3.5-.9-3.9,1.6a3.5,3.5,0,0,0,.3,2.3c1,2.1.2,3.9-1.2,5.3a5.2,5.2,0,0,1-4.8,1.4,5.8,5.8,0,0,0-3.2,0c-1.7.8-3.4.3-5.1-.1a5.4,5.4,0,0,1-4.3-5.1,12.4,12.4,0,0,1,.1-4.3c.3-2,1-3.7,3.1-4.5s4.3-3.4,7.1-3.8c1.9,2.1,1,3.7-.9,5.1s-4.3,2-4.9,4.7-.5,3.2,1.5,3.9,4.4,0,6.5-.6a2.2,2.2,0,0,0,1.9-2.4c-.3-3.8,1.2-7.8-.6-11.6A1.9,1.9,0,0,1,132.3,61.4Z"/><path class="cls-1" d="M94.8,52.7c-.2.2-.5.6-.7.6-3.1-.3-4.9-2.4-4.6-5.2a2.4,2.4,0,0,1,.3-.9c.5-1.8-1.5-3.5.1-5.4a22.6,22.6,0,0,0,2.2-4.7,4.3,4.3,0,0,1,3.6-2.6,4.1,4.1,0,0,1,1.9.4c2.3.5,4.5.9,5.3-2.3s1.4-4.5.5-7a2.2,2.2,0,0,1,1.9-3.2c1.8-.4,2.7.8,3,2.3s0,5.2.5,7.7a4.4,4.4,0,0,0,1.3,2c1.6-.1,1.2-1.2,1.1-2.1s0-4-.2-6.1c-.5-5.5,1.4-9.7,5.9-12.8,2.1,1,2.5,1.5,2.3,2.9s-.2,1.9-.7,2.2c-2.6,1.8-2.5,4.6-3,7.2l-.4,1.3a4.6,4.6,0,0,0,.3,4.9c1.2,1.8.8,3.9-1,5.6l-3.1,2.7c.6,1.5,1.1,3.1,1.7,4.7s1.3,2.3.7,3.6-1.5,4.9-3.7,5.4c-3.8.9-7.9,2.3-11.8.1-.3-.1-.4-.8-.5-1.3A2.4,2.4,0,0,1,99,51.2a6.9,6.9,0,0,1,4.7-.3c2.2.5,4.2.2,5.5-1.8s-.4-3.7-1.3-5.2c-2-3.7-10.1-4.7-13-1.9a14.3,14.3,0,0,0-1.3,2.8,4.2,4.2,0,0,0,.1,3.3C93.9,49.7,95.6,50.9,94.8,52.7Z"/><path class="cls-1" d="M195.6,81.5c-.3.6-.5,1.5-.9,1.6-3.3.3-6.5,1.7-9.9,1.3a25.6,25.6,0,0,1-4.6-1.1,5.1,5.1,0,0,1-3-4.1,5.4,5.4,0,0,1,1.2-4.9,15.6,15.6,0,0,1,1.9-1.4c1,.7,1.2,1.8,1.6,2.9q1.3,5.9,6.3,2.4c.7-2.5.1-5,.6-7.5s1.1-3.6,3-4.5c3.8-.4,7.6.4,11.4,0,.7,0,1.5.5,2.3.5s2.3.4,3.2,0,3.4.1,5.1.6a2.4,2.4,0,0,1,1.9,2.4,14.3,14.3,0,0,0,1.4,5,8.8,8.8,0,0,1-.9,8.6,4.3,4.3,0,0,1-3.6,2.1c-2,.1-4.1.7-6.1.5s-6.3-1.2-8-4.4a2.4,2.4,0,0,1,1.3-1.5c2.7-1.3,4.9,1,7.4,1,5.2.2,5.5.1,5.5-5-.1-1.3.1-2.6-.5-3.8s-1.9-.4-2.6.6-2,3.9-3.3.4-2.3-3.3-3.7-.2-2.9,2.9-4.4-.1-2.4-1.5-3.6,0a15.1,15.1,0,0,0-1.1,2.2C191.8,78.1,194.5,79.5,195.6,81.5Z"/><path class="cls-1" d="M290.6,2.5c-1.4,4.3-.1,8.5.8,12.6.5,2.2.8,4.4,1.1,6.6a3.8,3.8,0,0,1-4.7,4,18,18,0,0,0-9.2.4c-1,.3-2.3.8-3.2.5-3.4-1.2-7-.5-10.4-.8a23.3,23.3,0,0,1-3.8-.4c-2.3-.6-2.8-2.3-1.5-4.5l1.2-.8c.8.3,1.2,1,1.9,1.6,2.7.7,5.5,1.3,8.2-.4,1.1-.8,2.1-.3,3.2.1,3.1.9,5.3-.1,6.1-3.4.5-1.3.5-2.7,1.5-3.8a2.1,2.1,0,0,1,2-.3c1.8,1.6,1,4.3,2.4,6.1l.6,1c1.4,1.1,1.6-.1,1.7-1,.2-2.5-.8-4.9-1.4-7.3l-.3-1.2c-.3-1.6-.9-2.7-2.8-1.6a2.3,2.3,0,0,1-1.8.1c-.7-.3-1.3-.9-2.1-.8a1.3,1.3,0,0,0-1.1.8,3.4,3.4,0,0,0,.1,2c.1,1.4,0,2.7-1.2,3.6-4.2.9-3.5-2.3-4-4.6a3.7,3.7,0,0,1,.4-1.5,9.5,9.5,0,0,1,5.8-3.9"/><path class="cls-1" d="M180.3,63.3l-4.2-1a7.5,7.5,0,0,1-5.8-4.5c-1.4-3.6-3.2-3.6-6.1-2.9a7.6,7.6,0,0,1-6.3-1.2,2.6,2.6,0,0,0-3.4.2,3.1,3.1,0,0,1-2.2.6c-2.7-1-5.3.3-8,.2s-5.1-.1-7.7-.1-6.9-.3-10.4,0-3.4-.9-3.5-3.5-.2-3,1.9-3.2c2.6,2.7,5.4,3.5,9.4,2.6s6.9,0,10.3-1.2,8.3,1.3,11.5-2.5c.2-.2.9.1,1.3.4a2.8,2.8,0,0,1,1,.9c1,1.5,2.3,2.6,4.3,2.3,5.9-1,10.7,0,12.5,6.6.2.6,1,.8,1.7.7l1.8-.2c1-.2,2.2-.9,3.1-.6s4,1.2,5.1,3a33.8,33.8,0,0,1,2.2,5.2c-2.1,1.7-3.2.2-3.9-1.5C183.5,59.9,181.9,61.4,180.3,63.3Z"/><path class="cls-1" d="M78.5,36.4l-7,2.1c.7.8,1.3,1.4,1.8,2.1s.4,1.7-1.5,2.5a3.4,3.4,0,0,1-1.7-.8c-2.7-1.8-4.3.1-6.1,1.7a1.8,1.8,0,0,0-.1,2c.2,1.1.2,2.2-.9,2.9l-3.7-1A3.2,3.2,0,0,1,57.8,46a3.6,3.6,0,0,1-.4-1.1,25,25,0,0,0-.6-3.8,2.9,2.9,0,0,1,0-1.3c.7-2,2.4-2.4,4.1-2.9a132.4,132.4,0,0,0,12.6-4.1l3.4-1.1c4.5-1.3,9.4-1,13.6-3.5a4.4,4.4,0,0,1,5.4.6,2.4,2.4,0,0,1-.3,3.8,17.7,17.7,0,0,0-2.3,0c-3.4.1-3.3.1-4.4,3.6s-1.9,5.4-2.6,8.1-1.9,2.8-3.9,2.7a2.3,2.3,0,0,1-.7-2.5,11.7,11.7,0,0,1,.9-2.4c.4-1,.7-2,1.1-2.9,1.1-4.1-1.6-2.6-3.4-2.3A2,2,0,0,1,78.5,36.4Z"/><path class="cls-1" d="M53.5,42.2c-1-.2-2-.7-1.8-1.8.7-3.9-1.5-6.2-4.1-8.5a53.2,53.2,0,0,1-4.7-4.8,15.9,15.9,0,0,1-1.8-2.7,3.2,3.2,0,0,1-.3-.9l-3.9-4.7c-1.7.7-3.5,1.3-5.2,2.1a57.4,57.4,0,0,0-5.3,3.2c-2.1,1.3-3.3,3-2.8,5.9s.1,3.4-2.7,4.5c-2.7-1.9-2-4.9-2.4-7.5s2-4,3.7-5.4c4.9-4,11.2-6.1,15.8-10.7,1.4-1.4,2.9-.3,3,1.4.4,7.9,5.9,12.5,10.7,17.5a9.5,9.5,0,0,0,4,3.7,2.4,2.4,0,0,1,.9.8,2.5,2.5,0,0,1,.2,1.2,11.9,11.9,0,0,1-1.1,4.1,4.7,4.7,0,0,1-.6.9A6.5,6.5,0,0,1,53.5,42.2Z"/><path class="cls-2" d="M279.1,39.2c1.5,2.4,1.6,5.1,1.9,7.7a2.6,2.6,0,0,1-2.6,2.9c-2.7.1-5.4-.1-7.9,1.3-.3.2-.9-.1-1.3-.3s-1.6-1-2.2-.8a9.5,9.5,0,0,1-6.8-.8c-.5-.2-1.4.7-2.1.9a2.3,2.3,0,0,1-1.8.1c-.8-.3-1.6-1.6-2.1-1.4a15.7,15.7,0,0,0-4.1,2.4,2.9,2.9,0,0,0-.7,1.6,46.9,46.9,0,0,0,0,5.3,4.3,4.3,0,0,1-2,3.6,2.2,2.2,0,0,1-3.6-1.5,12.9,12.9,0,0,1-.1-3.4,53.4,53.4,0,0,0-.1-9.8c-2.5-3.8-.6-6.7,1.7-9.5a1.3,1.3,0,0,1,1.3-.2c2.2,2.7-1.1,5.1-.3,7.8a6.2,6.2,0,0,0,.1,1.3c-.1,3.8.8,7.6.1,11.4.8-4.1.5-8.5,5-11,1.6-.9.3-2.9-1-4s-2.6-2.9-1.6-5l.5-.5.9,1c1.9,1.2,3.9,2.2,5.4,4a16.3,16.3,0,0,1,1,2.9c1.9-4,.4-8.2,1.6-12a2.2,2.2,0,0,1,1-.9c3.3,1.9.5,6,2.9,8.2.2,6.4.2,6.4,7.2,6.9-.4-1.2,0-2.7-2-2.2-4.9,1.1-5.3.6-3.9-4.7,3.6-.3,7.3-1.6,10.9-.3,1.5,2.2,3,4.4,1.7,7.4,2.2-.3,2.5-1.4,1.6-2.8s-1.3-3.8.8-5.3Z"/><path class="cls-1" d="M21.9,66.2c1.4,0,2.6.6,2.7,2.1s1.1,4.6,1.7,7a9.5,9.5,0,0,1-.1,4.1c-.9,3.1-2.2,6-3,9.1s-2.4,4.2-5.1,5-6.9,0-10.2-.9a2.9,2.9,0,0,1-1.5-1.2,14,14,0,0,0-3.5-3.8,3.4,3.4,0,0,1-1.1-2.5,45.1,45.1,0,0,1-.1-5.2,15.8,15.8,0,0,0-.4-3.8c-1-2.8.2-4.6,2.3-6.1A34.5,34.5,0,0,1,6.3,81.4c.3,4.6,2.4,6.8,7.4,7.4s5.3-.8,6.5-5.7c1.1-3.2,2.5-6.1.8-9.8A6.5,6.5,0,0,1,21.9,66.2Z"/><path class="cls-1" d="M262.6,1.2c-.9,2.7.7,5.6-.7,8.3a26.4,26.4,0,0,1,.2,4.9,14.6,14.6,0,0,1-.2,2.9,2.3,2.3,0,0,1-1.1,1.8c-2-.2-3-1.4-3.7-3.2s-.8-1.4-2.9-.6a1.1,1.1,0,0,1-1.2-.1,7.8,7.8,0,0,1-1.6-2c-1.9-2.8-3.6-6-7.7-3.1-1.4,2.7-.3,5.6-.9,8.4-.2,1.2-.4,2.6-2,2.8s-2.2-1.1-2.8-2.2a3.9,3.9,0,0,1-.5-3.6c1.3-2.5.6-5.3,1.3-7.9s3.2-2.9,6-2"/><path class="cls-2" d="M328.1,80.5c-.9,1.7-1.9,2.9-4.1,2.1a12,12,0,0,0-3.3-.1,9.7,9.7,0,0,1-2.4-.1c-1.3-.4-2.6-1.6-3.8-1.5s-2.4,1.7-3.6,1.8a29.6,29.6,0,0,1-6.5-.8c-.4,0-1-.9-1-1.4a23.4,23.4,0,0,1-.3-3.8h.7c.7.2.9.9,1.3,1.5-1.1-4.4,1.2-9.2-1.6-13.3a1,1,0,0,0-.4-.5c.2-.8.3-1.6,1.3-1.8a1.9,1.9,0,0,1,2.2,1.3,9.3,9.3,0,0,1,.4,2.3v4.8c0,1.3.9,1.9,2.1,2.2a2.1,2.1,0,0,1,.4,1.2,14.5,14.5,0,0,0-.2,3.6,5.3,5.3,0,0,0-.2-4.9c0-1.3-.2-2.7-.1-4.1a2.2,2.2,0,0,1,.8-1.5c.8-.5,1.5,0,2,.7h-.4l.3.3v-.4c1.1.8,1.1,1.7.2,2.8a1.3,1.3,0,0,0-.3,1.1,2.3,2.3,0,0,0,1.6.7,6.7,6.7,0,0,0,2.1-1,4.2,4.2,0,0,1,4.9-.1c1.3.9,2.1.4,3.3-.1A35,35,0,0,1,330,70c.1.2.1.4.2.6A2.4,2.4,0,0,1,329,72c-4.5,2.9-4.6,3.5-1.2,8Z"/><path class="cls-1" d="M223.5,50.8a1.8,1.8,0,0,1-2.2,1.8,2.2,2.2,0,0,1-2.4-1.8,17.3,17.3,0,0,1-.3-3.2,2.5,2.5,0,0,0-2.4-2.5h-3.3c-1-.7-1.3-2-2.1-2.9a7.6,7.6,0,0,0-1.9-1.2,5,5,0,0,0-2.1-.1,1.9,1.9,0,0,1-1.6-.6c.6-3.9.8-4,6.2-3.5a7.6,7.6,0,0,0,.6-1.6c.9-4.9,3.9-5.3,8.7-3.8a2.8,2.8,0,0,1,1.6,1.6c.2,1.8,1.4,2.6,2.8,3.5s.8,1.2,1.2,1.8C223.8,42.1,220.2,45.7,223.5,50.8Z"/><path class="cls-2" d="M228.2,21.1a6.2,6.2,0,0,0-1.8,1.4c-2.1,2.7-4.9,2.9-7.7,2.1a6.3,6.3,0,0,0-5.4.5,3.3,3.3,0,0,1-3.2.3c-2.2-.9-4.4-1.6-6.7-.2s-3.1-.6-3.6-1.8a6.5,6.5,0,0,1-.2-2.8c.1-.4.8-.8,1.2-1.2s.7,2.4,2.1,2.1,1-1.5,1.1-2.5c.2-2.7-.3-5.4.6-8s-1.2-1.7-1.5-2.7,1.1-1.4,2.1-.7h3c1.7-.3,2.5,1.2,3.7,1.8l2.9.2c3.2-1.8,5.4-.6,6.7,2.5.5,1.4,1.1,2.5,2.7,2.9a2.2,2.2,0,0,1,.9,1,3.8,3.8,0,0,1-1.1,4.3c-1.6,1.7-3.2,1.9-4.4-.6s-.7-4.3-1.8-6.2a11.7,11.7,0,0,0-2.5-.7c-2.1-1.2-4-1.1-5.1,1.3s-2.6,5-.7,7.7a2.3,2.3,0,0,0,3.7.3c.9-.9,1.3-2.2,2.4-3s2,.7,2.8,1.4c2.1,2.7,4.2,2.7,6.4,0,.7-1,1.3-2.1,2.6-2.5s1.6,1.4,1.3,2.6Z"/><path class="cls-2" d="M230,65.3a1.6,1.6,0,0,1,.5,2.7,3.2,3.2,0,0,0-.5,3.1c-2,1.8-1.4,4.2-1.3,7.1.6-2.8-.3-5.2,1.3-7.1a8.8,8.8,0,0,0,2.3,0c1.4-.5,2.8-1.4,4.3-1.8s4-.6,5.8.8a5.3,5.3,0,0,0,2.2.8c0,.2.1.4.1.7-1.2,1.8-2.8.7-4.2.4-4.3-.8-6,.7-5.8,5.8,1.6-1.6,1.7-4.8,4.6-4.3s2.4,2.7,2.7,4.6c.9-.5.9-1.3,1.2-2s1.7-3,3.6-2.6,1.6,2.1,1.8,3.5.3,2.9,1.5,3.9l.3.6a2.3,2.3,0,0,1-2.6.9,7.5,7.5,0,0,0-5.5-.1c-1.5.5-2.3-.4-2.5-2s-.1-2.2-.2-3.3-.4-.6-.7-.6-.6.1-.7.4-.2.5-.3.8c-.7,3.5-.7,3.5-4.1,3.9l-3.7.8c-2.2.4-3.6-.5-3.7-2.6-.1-4.5,0-9,0-13.4a1.8,1.8,0,0,1,1.2-1.9C228.6,64.2,229.5,64.2,230,65.3Z"/><path class="cls-2" d="M20.9,83.4v1.5c-.1,1.1.3,2.3-.8,3.1s-2.4,2.3-4.1,2.1a61.7,61.7,0,0,1-7.5-1.2c-.7-.2-.9-1.6-1.6-2.1S4,84.2,5.2,82c-.6-1.8.1-3.7-1-5.5s-.4-4.3-.6-6.5V68.1a10.1,10.1,0,0,1,0-10.6V50.8c-.2-.2-.3-.4-.2-.6s.1-.4.2-.4V32.2c0-2.3.2-4.7.3-7a2.6,2.6,0,0,1,.6-1.8c1.4-1.7,2.9-3.2,3.7-5.3s2-.9,3.1-.9l.3.7c-.1,2.5-1.5,4.5-2.7,6.5-3.8,6.1-3,12.9-3,19.5v1.6c.3,5.8-.1,11.6,0,17.3.2,7.4,1.9,14.5,3.2,21.6,2,3.4,4.9,3.9,8.3,2.3,1.5-.7,1.5-2.7,2.9-3.4Z"/><path class="cls-1" d="M180.7,3.9c-1.1,1.1-1.3,2.6-1.9,3.9A105.9,105.9,0,0,0,172.2,19a8.2,8.2,0,0,0-2.8,4.6,12.9,12.9,0,0,1-.9,1.6,4.6,4.6,0,0,1-1.8,1.6,2.8,2.8,0,0,1-1.7-2.6,6.8,6.8,0,0,1,.6-3.2c1.3-2.2,2.8-4.2,4.1-6.3s1.6-2.8,2.4-4.2,2-4.3,3.9-5.8"/><path class="cls-2" d="M187.9,6.6a6.8,6.8,0,0,0,8,2.1c1.8-.7,3.9-1.5,5.8-.1,1.5,3.8,3.3,7.5.4,11.4,0,.1-.3.1-.4,0a.7.7,0,0,1-.4-.7c0-1.9,0-3.8-.1-5.6,0-.2-.4-.7-.6-.6s-.9.3-.9.6-.2,1.9-.5,2.8a3.4,3.4,0,0,1-1.8,2.5c-1.4-1.5-.5-3.2-.4-5.3-1.2,1.9-1.2,3.7-2,5.2s-1.5,2.7-3.2,2.5-1.8-1.9-2.1-3.3.3-2.1,0-3.2a1.4,1.4,0,0,0-.4,1.2c0,2.1-1.1,4.8,1.3,6.1s3.5-1.3,5-2.5a2.6,2.6,0,0,1,1.8-.7,4.3,4.3,0,0,1-1.5,4.2,8.8,8.8,0,0,1-4.5,2.5c-.5.1-1.2-.3-1.8-.5L186.1,24l-.6-.6c-1.5-3.9-.9-8.1-.7-12.1s.6-7.1.7-10.7"/><path class="cls-1" d="M53.5,84.4a5.5,5.5,0,0,1-2.8-5.2c.1-4-.7-8,.7-11.9a1.7,1.7,0,0,0,.1-1.4c-.9-2.3-.2-4.7-.4-7s-.3-5.4-.4-8.1a9.3,9.3,0,0,1,.3-3.3c.3-1.2.9-2.4,2.5-2.5,2,1.8,2.3,4.2,2.3,6.6-.3,8.1.2,16.2,0,24.3C55.7,78.9,55.6,81.9,53.5,84.4Z"/><path class="cls-1" d="M124.6,45c-1.4-.1-2.2-.9-1.8-2.2s1.4-6,5.2-6.7c3.4-2.7,6.7-2.1,9.8.7,1.4,1.3,2.8,1.3,4.8.9a24.2,24.2,0,0,1,8.5-.1,57.1,57.1,0,0,0,7.1.8,1.8,1.8,0,0,1,1.9,1.7c-.6,1.4-1.7,2.4-2.3,3.7a2.5,2.5,0,0,1-1,.8c-2.7,0-3.4-3.2-5.8-3.5a3.9,3.9,0,0,0-2.8-.1,16.3,16.3,0,0,1-3,.7c-2.4-.2-5-.8-7.2.8s-2.8-2.2-4.3-3.2-2-1.4-3.3-.5a10,10,0,0,0-3.3,3.5A9.3,9.3,0,0,1,124.6,45Z"/><path class="cls-2" d="M53.5,84.4a6.1,6.1,0,0,1,.1-1.4c1.7-7.6.7-15.3.8-22.9,0-2.4-.4-4.7.1-7s-.8-5.4-1-8.1V42.2c.1-.8.2-1.5,1.1-1.7,2.1,3.2,2.3,6.9,2.3,10.6-.2,11.8.7,23.7-1.1,35.6,2-12.2.8-24.5,1.2-36.7,0-1.5.1-2.9,1.3-4l1,1.9V80.6c2.3,3.4.4,6.5-.9,9.6v1.9l-.9.9H54.5a1.3,1.3,0,0,1-1-.9Z"/><path class="cls-2" d="M95.6,32.6a6.2,6.2,0,0,0,.1-1.9c-.2-1.5-.8-2.1-2.2-1.9s-4.4.5-5.8,2.5-1.5,1.4-2.5.6a2.3,2.3,0,0,0-3-.2c-1.8,1.1-3.7.8-5.6.9,0-.3-.1-.5-.1-.8a5,5,0,0,1,3.1-2c8.9-3.2,18.1-5.5,26.5-9.9a3.4,3.4,0,0,1,2.8-.1c1.8,4.4.7,8.8-.1,13.3l-.6.5c-1.1-1-.9-2.3-.9-3.6s0-3.8-.1-5.7a1.5,1.5,0,0,0-2.2-1c-.4.3-.9,1.2-.8,1.4,2.3,3.2.4,6-.6,8.9l-.6-.4c-1.1-1.5.1-3.4-.9-4.9-5-.2-3.7,4.1-4.9,6.7l-.4.5-1.1-1A11.5,11.5,0,0,0,95.6,32.6Z"/><path class="cls-2" d="M270.3,73.2c1.7-.4,3.4-.3,4.9-1.5s3-.7,4.6-.7,2.5.5,2.4,2.8-.1,3.2-.2,4.8-1,3-4,3.7c-.2-1.4.9-2.3,1.3-3.5s1.1-3.5-.7-4.7-2,.4-2.7,1.3-2.4,3.1-.6,5,2,1,2.6,1.9a1.6,1.6,0,0,1-2.3,1c-1.8-.5-3.6-1.1-5.5-.2s-2-.7-2.8-1.4-1.2-.6-2.1-.2c-3,1.4-3.8.9-4.3-2.3a8.1,8.1,0,0,1-.1-1.7l-2,1c-1.2-2.3-.2-4,1.8-4.5s1.7,2.4,2.9,3.5c1.4-.6,1.2-3.1,3.2-3s1.8,2.2,2.9,3.3C269.9,76.2,269.1,74.5,270.3,73.2Z"/><path class="cls-3" d="M270.3,73.2c.2,2,.5,4,.6,6.1a4.1,4.1,0,0,1-.5,1.8,1.7,1.7,0,0,1-1.2.5c-.3,0-.9-.5-.9-.8s-.3-3.1-.5-4.7a2.3,2.3,0,0,0-.6-1.2,1.3,1.3,0,0,0-1.2.1,5.1,5.1,0,0,0-.7,1.7c-.2.9-.2,1.9-.4,2.8a1.4,1.4,0,0,1-1.6,1.3,2.6,2.6,0,0,1-1.4-1.7c-.2-1.1.1-2.2,0-3.3s-.5-1-.7-1.5-.9.4-1.2.7a4.1,4.1,0,0,0-1.2,3.5h0c-.4.8-.2,2.3-1.5,2.5s-1.8-.8-2.1-1.9h0a8.9,8.9,0,0,0,0-5.8h.1c.5-2.9,3.6-.5,4.7-2.3h0a2.1,2.1,0,0,1,2.8,0h0c1.8,1.5,3.8-2.1,5.6.2h0c.5,0,.8.4,1.1.8h0a1.8,1.8,0,0,1,.8,1.1Z"/><path class="cls-2" d="M294.5,30.6c1,.8.9,1.9,1,3v2.9a1.7,1.7,0,0,0,1.4,1.7c1.7.2,3.6-.1,4.9,1.4s1-.1,1.3-.3,2.9-1,4.5-.8,1.2.9,1.4,1.7l-.6.4c-2.4.2-4.1,1.4-3.6,3.9s3.1,2.3,5,1.9,5-1.1,7.4.1l.4.5c-.4.3-.8.8-1.2.8a15.5,15.5,0,0,0-6.9,1.6,4.4,4.4,0,0,1-5.6-1.2,2.1,2.1,0,0,0-3.3-.2c-2,1.7-4.3,2-6.8,1.9s-3.6-1.2-3.5-3.9.3-4.8.3-7.1a36.8,36.8,0,0,0-.6-5.7c-.2-1.4.6-2,1.6-2.6l.5.5c1.4,3.4.6,6.9.7,10.4.2,5.7.4,5.9,6.1,4.3l.9-.7.4-.5c.9-1.1.2-1.8-.6-2.6-6.8-3.5-7.2-4.2-5.6-10.9Z"/><path class="cls-1" d="M274.5,40.5c-1.2.1-2.5.6-3.6.3a3.6,3.6,0,0,0-3.2.4c-1.6,1.3-2.8-.1-4.1-.6H262c-.9-.1-2,.5-2-1.1s0-3.2-.1-4.8a9.5,9.5,0,0,0-.9-2.1c-1.7-.2-2.7,1.1-3.9,2s-1.6-.4-1.7-1.3-.3-3.2,1.3-4.2a3.5,3.5,0,0,1,4.8,0c1.9,1.5,3.9,2.9,3.1,5.8a1.4,1.4,0,0,0,.9,1.9,5.6,5.6,0,0,0,4,.9,30.1,30.1,0,0,1,6.7-.2c.7,0,1.4.6,2.1.9l-.3.9-.3.4a4.6,4.6,0,0,1-.7.7Z"/><path class="cls-1" d="M70.8,61.4c1.4,0,2.2.9,1.8,2.1a2.7,2.7,0,0,0,1.9,3.6,3.6,3.6,0,0,1,2.4,2.7,11.6,11.6,0,0,1,.5,3.6c-.2,1.5-1.7,1.7-2.7,2.4s-.6-.5-.6-.7c-1.8-5.5-1.8-5.5-7.2-3.2-.4-.3-.9-.5-1.1-.9a10.6,10.6,0,0,0-3-4c-.9-.7-.8-1.9.3-2.8s2.5.3,3.5-.6A21,21,0,0,1,70.8,61.4Z"/><path class="cls-2" d="M287.9,60.3a12.9,12.9,0,0,1,.8,2.6c.1,1.9.1,3.8.1,5.7a2.1,2.1,0,0,0,1.7,2.4,15.8,15.8,0,0,1,4.8,2.9c.3.4,1.4,0,2.1-.1l.5.5a8.6,8.6,0,0,1,0,6.7l-.5.6c-1.8-1.1-3.5-1.5-5.4-.1a4.8,4.8,0,0,1-2.6.9c-5.4.2-5.5.4-5.5-4.9s.1-10.2,0-15.3c0-1.4.3-2.6,1.9-2.8a1.6,1.6,0,0,1,.4.7c.1,5.2-.2,10.5,0,15.8.1,1.5-.2,3.5,2.2,3.4s3.5-.2,4.2-1.8-.8-2.8-2.2-3.7c-4.3-2.8-4.9-5.8-3.1-13Z"/><path class="cls-2" d="M238.8,7.6c1.7,2.1.9,4.5.7,6.8-2.2,1.9-.8,3.7.3,5.4a.5.5,0,0,0,.2.4c.3.1.6.3.9.2a.7.7,0,0,0,.6-.6c.1-2.2.1-4.4.2-6.6a12,12,0,0,1,.2-3.3c.2-.6,1.1-.9,1.7-1.4a1.6,1.6,0,0,0,.4.7c-.7,4.5,1.3,8.9.1,13.4l-.6.5a6.1,6.1,0,0,0-1.3.3c-.8.7-1.6,2-2.3,2a9.6,9.6,0,0,1-4.3-1.5c-1.1-.6-1.9-2-3.5-1.9l-.5-.5c-.3-1.7,0-3,2.2-2.2s2.2,1.8,3.6,2.6c-2.9-2.7-3.8-5.1-1-8.6s-2.5-3-3.3-4.8.8-1.5,1.8-1.1Z"/><path class="cls-1" d="M159.1,79.6a2.5,2.5,0,0,1-2.5,1.8,22.5,22.5,0,0,0-8.4,1.7c-1.9.7-6.8-.9-7.6-2.7a9.4,9.4,0,0,1-1.3-5.9c.1-.6,1-1.1,1.6-1.6a5.1,5.1,0,0,1,1.9,2.2c.9,2.8,2.8,3.3,5.6,2.8S156,76.2,159.1,79.6Z"/><path class="cls-2" d="M323.2,38.2l1.9-1.3a2.1,2.1,0,0,1,3.2.8c.2.4.7.5,1.1.8a6,6,0,0,0,.6-1.1c.3-1,.4-2.1.7-3.2a2.3,2.3,0,0,1,2.5-1.6,2.5,2.5,0,0,1,2.4,1.9c.1.6.1,1.3.2,1.9a1.8,1.8,0,0,0-1.9,2.1,12.3,12.3,0,0,1-.2,1.9,1.6,1.6,0,0,0-1.3,2c.9-.4.5-1.7,1.3-2.1,1.9,2,1.3,4.3.5,6.5s-2.9,1.5-4,.2-1.7-1.9-3.1-1l-.4-.5c0-2.7.8-5.8-3.1-6.8A1,1,0,0,1,323.2,38.2Z"/><path class="cls-2" d="M180.3,63.3a5.9,5.9,0,0,1,.1-1.9c.8-2.1,2.7-2.5,4.1-.9a6.4,6.4,0,0,1,1.5,2.8c.3,1.8,1.4,1.9,2.8,1.8l.2.2q.5,1,.9,0l1.9.9a46,46,0,0,0-1.9,5.2,30.1,30.1,0,0,0,0,5.2c0,1.1,0,2.2-1,3l-.5-.4c-1.4-2,.4-4.9-1.8-6.7a2.5,2.5,0,0,1-2.2-1.1c-.8-2-.6-4.4-1.6-6.6-1,3.6.5,7.3-1.2,10.7l-.5.4c-1-.8-.8-1.9-.8-3V70q-.5-.3-.3-.6c.1-.3.2-.4.3-.4Z"/><path class="cls-4" d="M161.4,40.4h.9a2.6,2.6,0,0,1,1.1.7,2.7,2.7,0,0,1,.3,1.2c.9,1.5-3.3,3,0,4.4h1l.5-.2.8-.5.3-.3a4.4,4.4,0,0,0,.8-1.1,2.2,2.2,0,0,1,.5-.8l.7-.8.3-.3.8-.7,1-.4,1.1.2a2.7,2.7,0,0,1,.7.8,3.3,3.3,0,0,1,.1,1.7,1.9,1.9,0,0,1-.3,1,5.2,5.2,0,0,1-1,1.1,1.7,1.7,0,0,1-.6.6c-.3.1-.5.2-.5.5l.5.6.7.5c0-.1.4.1.4.1h1.4a1.4,1.4,0,0,1,.9.5,1.7,1.7,0,0,1-.1,1.7c-1.2,1.2-2.5.4-3.8.4l-2-.6c-1.5-.9-3-.3-4.5,0s-4.9,0-6-2.8h0a2.2,2.2,0,0,1,0-3.6h0A4,4,0,0,1,161.4,40.4Z"/><path class="cls-2" d="M270.5,6.8c.5,2.4.5,2.4,2.9,2.7h.9v1l-.3.6c-.3.5-.9,1-1,1.6-.8,2.7-.6,5.4,1.8,7.2s3.6-1.4,5.6-1.9l.6.2c-.9,4.6-3.2,5.9-7.8,4-1-.4-1.6-.5-2.3.5s-1.1,1.1-1.5,1c-2.3-.7-4.5-.3-6.8-.2-.3,0-.6-1-.9-1.5l.5-.4c1.8-.9,1.8-3.8,4.3-4s1.5,1.1,2.5,1.7c-.4-4.8-1.6-9.5,0-14.2"/><path class="cls-1" d="M74.7,77.7a2.2,2.2,0,0,1,2.1,1.5,13.5,13.5,0,0,1-.1,9.7,3.4,3.4,0,0,1-3.4,2.2,7.6,7.6,0,0,1-6.7-2.9,1.8,1.8,0,0,1,.4-2.8,8.8,8.8,0,0,1,3.6.2l1.1.4c2.4,0,1.6-1.9,1.8-3.1S73.1,79.2,74.7,77.7Z"/><path class="cls-5" d="M227.5,38.4H229c2.3,1.7,3.8,6.5,2.4,9s-4.6,2.6-7.1,2.6-3.4-3-.8-6.2c.4-.4,1.1-.5,1.6-.8s-1.3-.3-1.8-.8C223.4,39.5,225.5,39.1,227.5,38.4Z"/><path class="cls-1" d="M212.9,46a3,3,0,0,1,1.9,3,4.4,4.4,0,0,1-.9,3.1c-2,2.6-3.4,3.1-6.5,1.6a17.4,17.4,0,0,0-5.5-1.1,2.6,2.6,0,0,1-2.4-2.9,1.8,1.8,0,0,1,1.9-1.8,6.4,6.4,0,0,1,1.8.6c2.7.1,5.6,2.2,8-.6A5.2,5.2,0,0,1,212.9,46Z"/><path class="cls-6" d="M341.9,36.5h1.4c3.9,1.6,4.8,3.8,3.8,8.4h0c-.5,1.1-1.1,2.2-2.6.9h.1c-.8-.5-.6-1.4-.6-2.1s-.1-2-1.4-2.2-1.3.6-1.6,1.4-1.2,2.9-2.9,2.2-1.5-4.1-1.8-6.2.8-2.3,2.4-1.9S340.8,36.8,341.9,36.5Z"/><path class="cls-2" d="M71,86.1c-1.4.1-2.9.7-4-.7-.1-4.5-.1-9-.1-13.5a2.8,2.8,0,0,1,2-2.3,6.4,6.4,0,0,1,4.5-.3,1.6,1.6,0,0,1,1.1,1.3c.2,1.7.1,3.4.2,5.2v1.9c0,2.3,0,4.6-.1,6.9a5.9,5.9,0,0,1-.4,2.3c-.4,1.1-1.6,1.3-2.6.4s-.4-.8-.6-1.2a2.1,2.1,0,0,0,.6-1c-.3-3.2.5-6.3.8-9.4.1-1.3.2-3.2-1.9-3.1s-1.3,1.9-1.3,3c.1,2.8-.7,5.7.7,8.4a3.8,3.8,0,0,1,.9.9A1.3,1.3,0,0,1,71,86.1Z"/><path class="cls-1" d="M204.4,6c.5.3.6,1,.8,1.6l-1.9,1a1.4,1.4,0,0,1-1.7.2c-2.8.6-5.7.3-8.2,2.1-.3.3-1.2,0-1.7-.2a13.9,13.9,0,0,0-2.1-1.1c-1.7-.4-1.7-1.7-1.7-3"/><path class="cls-1" d="M188.4,6.7a14.1,14.1,0,0,0,10.8-1.4"/><path class="cls-1" d="M80.2,68.1c-1.8-.2-2.7-1.4-3.6-2.8a7.4,7.4,0,0,1-1-4.1c.3-2,1.9-3.8,3.8-3.5s3.7-.2,5.6-.2,3.5.4,4.1,3.9l-.6.3h-.6l-.6-.3a7.5,7.5,0,0,0-5.5-.5l-.9.7c-.7,1.1-.1,2,.2,2.9a6.8,6.8,0,0,1,.2,1.4A2.2,2.2,0,0,1,80.2,68.1Z"/><path class="cls-1" d="M220.4,7.1a32.6,32.6,0,0,1,4,2.4c1.4,1.9,1.7,3.8-.1,5.7l-1.2.7c-1.5.4-2.2,0-2.4-1.2s.3-2.9-1-4-3.1-1.2-4.9-1.2c1.5-2.7,3.2-3.5,5.6-2.4"/><path class="cls-2" d="M224.5,44a19.9,19.9,0,0,0-2.1,2,2,2,0,0,0,1.5,3.4,8.8,8.8,0,0,0,6.3-1.4,2.2,2.2,0,0,0,.8-1.5c.1-2.8.2-5.7-2-8l.3-.3c3.5-.4,4,1.1,2.8,4s0,4-.2,6.1a1.6,1.6,0,0,1-1.1,1.3c-2.4.5-4.9.8-7.3,1.2a13.2,13.2,0,0,1-2.2-1.8,3.6,3.6,0,0,1-.2-4.3,11.2,11.2,0,0,0,1.6-3.3,4.2,4.2,0,0,1,3.6-3.2l1.2.2c-1.3,1.2-3.5,1.3-3.9,3.4S225,43,224.5,44Z"/><path class="cls-2" d="M178.4,57.5a9.4,9.4,0,0,0-1,1c-.2-.2-.4-.3-.5-.5-1-4.3-2.1-8.5,3.1-11.1,2.3-1.1,1.7-2.3-.2-3.3s-2.9-.8-2.8-2.8a2.1,2.1,0,0,1,.4-.6,3.6,3.6,0,0,0,3.5.3c1.5-.5,2.4-1.2,2.2-2.9a8.4,8.4,0,0,1,.2-2.8c.3-.6,1.1-.9,1.7-1.3a4.3,4.3,0,0,1,.4.7c-.1,4.9.3,9.8-.4,14.7a7.5,7.5,0,0,1-.7,1.2c-2,1.1-4.8,1-5.8,3.6S178.4,56.2,178.4,57.5Z"/><path class="cls-2" d="M159.1,79.6a18.6,18.6,0,0,0-11.2-.3,4.5,4.5,0,0,1-4.2-.4,4.4,4.4,0,0,1-1.9-4.1l.7-.2c2.1,1.8,4.1,2.8,7.3,1.8s5.3-.3,8-.2c1.1-.1,1.4-1.1,1.9-1.9s1.7-3.4,3.8-2.6,2.5,2.6,1.8,4.7l-.5.4-1.7-.5c-1.1-.5-1.8-.2-2,1A3.3,3.3,0,0,1,159.1,79.6Z"/><path class="cls-1" d="M178.5,53.7a3.3,3.3,0,0,1-.1-1.4c.2-1.9.5-2.3,2-2.4s2.5,0,3.7,0,2.6-.8,3.8-.1a1.9,1.9,0,0,1,.7,2.5,4.1,4.1,0,0,1-3.3,2.3,11.3,11.3,0,0,1-1.8-.3Z"/><path class="cls-2" d="M166.7,26.8l1.1-2,.6.2c1.6.8,2.2-.6,3.1-1.5,4.4-4.3,7.3-4.5,12.1-.6.6.5,1.5.5,2.2.9l.3.2c-.1.3-.1.7-.2.9-1.1,1.8-1.6,2-3,1.3s-1.6-1.1-2.4-1.5a12,12,0,0,0-3-1.5,2.4,2.4,0,0,0-3,.8,41.4,41.4,0,0,1-3.5,3.8c-1.3,1.2-2.8,1.5-4.2,0S166.7,27.1,166.7,26.8Z"/><path class="cls-2" d="M21.9,66.2v4.7a6.7,6.7,0,0,0,1.2,4.9,2.3,2.3,0,0,1,.3,2.6l-2.5,5h-.1c-.2-.2-.6-.4-.6-.7-1.1-10.5-1.7-21,.3-31.5,2.6.5,2.7.9,1.4,4.5Z"/><path class="cls-1" d="M103.5,75.8c.4.5,1.4,1.2,1.2,1.6s-1,1.9-1.6,2a40.9,40.9,0,0,1-7,0A2.1,2.1,0,0,1,94,77.3c-.3-1.8-.2-3.5,1.8-4.4C97.4,76.4,100.8,75.1,103.5,75.8Z"/><path class="cls-1" d="M88.1,73.8a1.9,1.9,0,0,1,.4,2.9,7.8,7.8,0,0,1-8.1,2.7A2.5,2.5,0,0,1,78.6,77c-.1-1.4.5-2.1,1.8-2.2s2.4.9,3.6.1A6.7,6.7,0,0,1,88.1,73.8Z"/><path class="cls-2" d="M124.6,45a3.2,3.2,0,0,1,1.8-2.9l.5.4c.5,1.4-.2,2.8,0,4.2s1.6,3.6,3,3.1c4-1.7,8.4.3,12.3-1.6a4.5,4.5,0,0,1,2,.1,1.4,1.4,0,0,1,.8,1l-.3.6a3.7,3.7,0,0,0-1.8.5,5.7,5.7,0,0,1-5.8,1.1,7.2,7.2,0,0,0-5,.5c-1.4.4-2.6.9-4.1.1s-3.3-2-3.4-4.2Z"/><path class="cls-2" d="M187.9,49.8c-1.2.5-2.5,1.8-3.8.1l.2-.3c2.2-2.1.8-5.9,3.7-7.8.6-.5-.5-.9-.8-1.3s-1.6-3.6-.7-5.6l.5-.5c.3.4.8.8.8,1.1.1,1.9,1,2.6,2.8,3s2.7,2.7,1,4.3-.7.8-1.1.9c-2.7.3-2.6,2.3-2.6,4.2Z"/><path class="cls-1" d="M246.5,37.3a40.5,40.5,0,0,0-2.3,3.4,5,5,0,0,0-.5,2.1,29.5,29.5,0,0,0-.1,4.2c-2.7-.6-2.8-.7-2.9-2.8a5.7,5.7,0,0,1,1-3.5c1.1-1.5,1.9-3.2,3-4.8s1.3-1.1,2.8.4A1.2,1.2,0,0,1,246.5,37.3Z"/><path class="cls-2" d="M268.2,5.3c.3,4.3,1.1,8.8-2.7,12.2-1.7.4-2.5-.7-2.6-2.1s-1-1-1.9-.8c.1-1.8-.7-3.7.9-5.1s2.9,1.2,4-.1.6-2.4.9-3.6"/><path class="cls-2" d="M341.9,36.5c-1,.5-1.9,1.4-2.9,1.4s-2.3-.1-2.4,1.6.1,2.2.1,3.3.4,2,1.4,2.3,1.7-.7,2.2-1.6a19.2,19.2,0,0,1,1.4-2.9,1.1,1.1,0,0,1,1.9.2c.4,1.7.7,3.4,1,5.1l-.7-.6c-.9-.7.1-2.5-1.5-2.5s-.9,1.4-1.5,2.1a2.8,2.8,0,0,1-3,1,2.3,2.3,0,0,1-2-2.3c-.1-2.4-.1-4.8-.1-7.2Z"/><path class="cls-2" d="M103.5,75.8c-2.2,1.6-4.5.9-6.8.5-.3,0-.7-.6-.8-1.1a16.9,16.9,0,0,1-.1-2.3V61.3a.8.8,0,0,1,.5-1.1,1.4,1.4,0,0,1,1.1.9c1.3,3.9-.1,8.1,1.2,12,.4.8.8,1.4,1.8,1.1s.6-4,3.5-2.9a2.3,2.3,0,0,1-.3,2.5Z"/><path class="cls-2" d="M308.9,41.2c.1.5,0,1,.1,1.4s.7,1.3,1.3.9,2.7-2.3,2.5-4.3.1-2.6,1.8-2.9a2.1,2.1,0,0,0,.4.6,12.3,12.3,0,0,0,.2,1.9c1.1,5.9,1.1,5.8-4.6,7.5-1.6.4-3.3.9-4.3-.7s.2-3.5,2-4.6Z"/><path class="cls-1" d="M3.6,57.5V68.1A5.1,5.1,0,0,1,0,62.6,5.2,5.2,0,0,1,3.6,57.5Z"/><path class="cls-2" d="M78.5,36.4h1.9l.3.6c.2,3.2-.2,6.3-.3,9.7.1-1.3.3-2.2,1.3-2.7l.7.2V47c0,1.2,0,2.5-.1,3.8s-2.5,2.5-3.8,0Z"/><path class="cls-2" d="M67,64.2c-1.9,2.4-2,2.4-3.9,0,0-5.1-.1-10.2-.1-15.3,0-1.3.1-2.6.1-3.8h.8c2.3,2.1,1.2,4.9,1.5,7.4v3c-.1,2-.1,3.9-.1,5.9a2.6,2.6,0,0,0,.7,1.9l.7.6Z"/><path class="cls-1" d="M58.4,90.2c.1-1.7.3-3.4.5-5.1s.3-3,.4-4.5a2.9,2.9,0,0,1,2.6,3.8C61.5,86.6,60.9,89.1,58.4,90.2Z"/><path class="cls-2" d="M19.2,26.7a12.2,12.2,0,0,1,.7,1.7c.4,2,.7,4.1,1,6.1l.2,13.4c.4.9.4,1.7-.6,2.1a2.6,2.6,0,0,1-1.7-2.6c.1-6.5-1.2-12.9-.7-19.4A2.4,2.4,0,0,1,19.2,26.7Z"/><path class="cls-1" d="M103.6,73.8l-.3-3.2a1.9,1.9,0,0,1-.3-1.8,4.2,4.2,0,0,1,1.4-2.6c2,.1,2.4,1.7,2.8,3.2a2.8,2.8,0,0,1-1.2,3.2A10.8,10.8,0,0,1,103.6,73.8Z"/><path class="cls-1" d="M71.8,47a2,2,0,0,1,.8.4c1,.9,2.4,1.8,1.9,3.5s-1.2,3.6-3.6,3.7-1.3-3.3-.9-5.1A3.6,3.6,0,0,1,71.8,47Z"/><path class="cls-2" d="M70.8,48.9c.1,1.9.1,3.8.1,5.7s0,4.5-.1,6.8a1.8,1.8,0,0,1-1.6,1.9,14.5,14.5,0,0,0-2.2.9l-.3-.2a2.9,2.9,0,0,1,.4-3.9c2-1.3,1.4-3.4,1.6-5.2s-.7-4.5,1.5-6.1Z"/><path class="cls-1" d="M161.7,40.4c.7-1.1,1.4-2,3-1.2a29.2,29.2,0,0,0,4,1c.6,2-1.2,2.9-2,4.2-2.9.9-2.7-1.9-3.8-3.1h0a1.2,1.2,0,0,0-1.1-.8Z"/><path class="cls-2" d="M314.6,36.3c.2-.7.4-1.5,1.3-1.7a2.1,2.1,0,0,1,2.2,1.3c.3.7.2,1.6.5,2.2a11.8,11.8,0,0,0,1.8,2.1l.4.5c.2,1.7-.5,2.7-2.4,2.6s-2.1-4.7-3.7-6.8Z"/><path class="cls-1" d="M20.8,50.2l.3-2.3c2.2.1,3,1.8,3.2,3.4a3.8,3.8,0,0,1-1.6,4.1l-.8.2a13.1,13.1,0,0,0-.1-2.8c-.1-.7-.7-1.3-1-2Z"/><path class="cls-1" d="M232.1,42.2c.1-2.1-.4-3.7-2.8-4,.3-.5.5-1.4.9-1.5,1.9-.7,3.2.1,4,2.1S234.3,41.1,232.1,42.2Z"/><path class="cls-1" d="M255.2,42.2c-2.2-.6-4.1-1.5-4.9-3.9a7.1,7.1,0,0,1,4.7-.9,2.6,2.6,0,0,1,1.1,2.7A2.9,2.9,0,0,1,255.2,42.2Z"/><path class="cls-2" d="M244.6,70.9c1.9-1.6,3.7-1,5.6.1a2.2,2.2,0,0,1,.7.6c.4,2.7,2.6,5.3.5,8.1l-.5-.4c-1.2-3.4-2.1-7.1-6.3-8.3Z"/><path class="cls-1" d="M78.5,50.8c1.9,1.3,2,1.3,3.8,0,.3.5.8,1,.8,1.5a2.1,2.1,0,0,1-.8,1.6,2.8,2.8,0,0,1-3.8,0,2.2,2.2,0,0,1-.8-1.5C77.7,51.8,78.2,51.3,78.5,50.8Z"/><path class="cls-1" d="M230.9,5.9c1.7-.5,3.1-.2,4,1.5l-1.7,1.2c-.1.2-.1.4-.2.5a3,3,0,0,1-.8.8,1.9,1.9,0,0,1-1,.3,1.8,1.8,0,0,1-2-.8c0-1.4.1-2.9,1.7-3.5"/><path class="cls-2" d="M88.1,73.8l-3.9,2-.4-.5a3.6,3.6,0,0,1,0-3.2,2.1,2.1,0,0,1,1-.6c1.5-.3,1-1.5,1.1-2.5s-.5-4.1,2.1-4.9a1.4,1.4,0,0,1,.2,2C88.2,68.7,88.2,71.3,88.1,73.8Z"/><path class="cls-2" d="M166.8,69.9l1.9,2v5.2a2.1,2.1,0,0,1-1.6,2.1c-1.1.2-1.7-.5-2.1-1.5s-.1-.6-.2-.9l.2-.2c2.9-1.5.6-4.2,1.4-6.2A1,1,0,0,0,166.8,69.9Z"/><path class="cls-2" d="M199.6,80.6l-1.1.9h-2.9l-.4-.2c-4-1.8-4.2-2.3-2.6-6.6l.6.4c1,2.8,3.2,4.2,6,5A1,1,0,0,0,199.6,80.6Z"/><path class="cls-2" d="M202.3,48.9l-.9-1V42.2a1.3,1.3,0,0,1,0-2h5.7c.1.2.1.4.2.6-2.9,1.7-4.1,4.4-4.5,7.7Z"/><path class="cls-1" d="M102.5,59.4c.3-.4.5-.9.8-1.1a1.6,1.6,0,0,1,2.7.7,3.1,3.1,0,0,1-1.6,4.3,4.6,4.6,0,0,1-1.4-1.7A4.2,4.2,0,0,1,102.5,59.4Z"/><path class="cls-2" d="M84.2,75.8c-1.9,1.2-2.2,1.1-3.8-1,0-2.2-.1-4.5-.2-6.7s.3-2.2.4-3.2c2.4.8,1.8,3,2,4.8s-.2,4.1,1.4,5.8Z"/><path class="cls-2" d="M327.1,46c-1,2.2-3,2.2-4.8,1.7a12.8,12.8,0,0,0-4.7-.7l-.3-.3a2.2,2.2,0,0,1,1.4-2.1c2.8,0,5.4,1.1,8.2,1.1Z"/><path class="cls-2" d="M132.3,61.4v1.9l-.5.4c-1.2.7-1.2,2-1.4,3.2s-1,3-3,2.8a2,2,0,0,1-1-.8c1.9-1,2.3-2.7,1.8-4.7S128.9,61.5,132.3,61.4Z"/><path class="cls-2" d="M300.2,73.8c1.8,2.6,1.1,5.4.6,8.1s-1.8,1.4-3.4-.3l.2-.3c2.3-1.9.9-4.9,2.2-7.1Z"/><path class="cls-2" d="M347.1,44.9a13.1,13.1,0,0,0-.1-2.8,6.9,6.9,0,0,0-3.7-5.6,17.6,17.6,0,0,1,2.3,0c.5.1,1.1.3,1.2.6.6,2.3,1.9,4.4,1.3,6.9C347.9,44.4,347.4,44.6,347.1,44.9Z"/><path class="cls-2" d="M229.2,9.4l2.9.2c.1,1.7-1.3,1.6-2.3,2l-2,.3c-1.8.4-1,3.3-3.2,3.5l-.3-.2c.1-1.9.1-3.8.1-5.7Z"/><path class="cls-2" d="M303.1,76.7l-.3-.3c-.9-2.6-.9-9.2,0-11.8l.3-.3h.3c1.7,4.1,1.9,8.2-.2,12.2Z"/><path class="cls-2" d="M297.6,67.3a1.3,1.3,0,0,1,2.2-.7c.5.4,1.1,1.3,1,1.8a1.7,1.7,0,0,1-2.1,1.4,2.8,2.8,0,0,1-1.8-1.2c-.4-.6.1-1.1.7-1.3l.7.4h.4l-.4-.2Z"/><path class="cls-2" d="M255.3,40.6l-.3-3.2c.1-1,.1-2,.1-2.9a5.8,5.8,0,0,1,.3-1.4c1-2.3,1.1-2.3,3.6-.6l-.2.3C256.3,34.8,258.7,39,255.3,40.6Z"/><path class="cls-2" d="M333,73c-.5.3-.9.7-1.5,1a5.2,5.2,0,0,0-2.5,4.6c0,.6-.6,1.3-.9,1.9l-.2-.2c-1.7-5.2-.5-7.4,4.5-7.9Z"/><path class="cls-2" d="M253.3,15.2h.9v2.9c-.6,2.1-.9,4.5-3.8,4.8l-.3-.6c.7-2.3,2-4.5,2.7-6.8Z"/><path class="cls-1" d="M88.2,66.1,88,63.9a1.4,1.4,0,0,1-.1-1.1,4.1,4.1,0,0,1,1.2-1.4C91.8,63.8,91.6,64.8,88.2,66.1Z"/><path class="cls-2" d="M330,70c.9-1.2,2.2-.9,3.4-.9s2,0,2.2,1.2a2.2,2.2,0,0,1-1.3,2.3L333,73l-.2-.3c.4-2.2-2-1.5-2.7-2.6Z"/><path class="cls-2" d="M94.8,52.7c-.8-1.5-2.3-2.8-1.9-4.8l.4-.3a1.6,1.6,0,0,1,.9.3,5.6,5.6,0,0,1,.5.8l.5.7.4.4.7.6.5.2a8,8,0,0,1,1.6.8l.4.5-1.1.8Z"/><path class="cls-1" d="M211.9,9.3c-1.8.7-2.7-.7-3.7-1.8C210.4,6.3,210.9,6.5,211.9,9.3Z"/><path class="cls-2" d="M255.2,79.1a10.5,10.5,0,0,0,.8,1.1,1.2,1.2,0,0,0,2-.1,11.9,11.9,0,0,0,.8-1.6,5.4,5.4,0,0,1-.1,2.2c-.3.6-1,1.3-1.6,1.3s-1.2-.6-1.6-1.2S255.3,79.7,255.2,79.1Z"/><path class="cls-2" d="M102.5,59.4c.3.7.7,1.3,1,2l-.6.3c-2.1,0-4.2.2-6-1.2h-.2c-.2-.9,0-1.3,1-1Z"/><path class="cls-2" d="M268.4,71.2a16.4,16.4,0,0,0-3.2.5c-1,.3-1.8.3-2.4-.7l2.1-.7C266.7,69.3,266.7,69.3,268.4,71.2Z"/><path class="cls-2" d="M212.9,46l-.9,2-.5-.4a10.8,10.8,0,0,1-.9-5.9,1,1,0,0,1,.4-.5c1.7.7,2,2.2,1.9,3.8Z"/><path class="cls-2" d="M260,71c-.7.9-1.5,1.9-2.6,1.4s-1.5.5-2.1.9c-.1-1.4.4-2.3,2-2.3Z"/><path class="cls-2" d="M103.5,61.4l.9,1.9v2.9c0,1,.2,2.2-1,2.8a6.3,6.3,0,0,1-.1-7.5Z"/><path class="cls-2" d="M71.8,47l-.9,1.9h-.2c-1.5-2-1.3-4.1-.4-6.2l.6-.5.9,1Z"/><path class="cls-2" d="M161.4,40.4c-1.9.7-2.9,2.3-4,3.8,0-3,0-3,2.7-4.1Z"/><path class="cls-1" d="M97.7,59.4a4.7,4.7,0,0,0-1,1l-.9.9c-.9-.6-1.3-1.5-.5-2.3S97,58.6,97.7,59.4Z"/><path class="cls-2" d="M255.2,73.4a7.8,7.8,0,0,1,0,5.8Z"/><path class="cls-2" d="M141.8,74.8l-.9-1.9v-1l.9-2,.5.5a3.8,3.8,0,0,1-.3,4.3Z"/><path class="cls-7" d="M189.9,65.3c.4.5,1.4,1,.7,1.8s-1.2,1-1.9.4-.1-1.5.3-2.2A1,1,0,0,0,189.9,65.3Z"/><path class="cls-2" d="M260.8,19.1c.1-.7.1-1.4.2-2.2,2.6,1.2,2.1,3,1.1,4.9l-.3.2-.9-1.9A3.4,3.4,0,0,1,260.8,19.1Z"/><path class="cls-2" d="M344.5,45.8a3,3,0,0,0,2.6-.9c.1.7.1,1.5-.8,1.8S344.9,46.6,344.5,45.8Z"/><path class="cls-2" d="M320.4,40.2c.1-1.9,1.5-1.9,2.8-2l.2.2c-.1,1.9-1.3,2.1-2.8,2Z"/><path class="cls-2" d="M275.5,39.4l.8-1.1c1,.1,2.1-.2,2.8.9v.2A2.5,2.5,0,0,1,275.5,39.4Z"/><path class="cls-2" d="M297.4,73.8c1.4-1.1,1.4-1.1,2.8,0V74a2,2,0,0,1-2.6,0Z"/><path class="cls-2" d="M262.8,71H260C261.4,69.7,261.4,69.7,262.8,71Z"/><path class="cls-2" d="M285.8,59.4c1.3-.9,1.5-.9,2.1.9l-.3.2c-.8.3-1.3-.2-1.7-.9Z"/><path class="cls-2" d="M246.5,37.3a9.4,9.4,0,0,1,1-1l1.9,1-.3.3a1.8,1.8,0,0,1-2.4,0Z"/><path class="cls-2" d="M291.6,30.6c1.4-1.2,1.5-1.2,2.9,0l-.3.3a2,2,0,0,1-2.5-.1Z"/><path class="cls-1" d="M53.5,92.1l1,.9c-.4.8-.9.6-1.3.1S53.4,92.4,53.5,92.1Z"/><path class="cls-1" d="M201.4,40.2v2C200.4,41.5,200.4,40.9,201.4,40.2Z"/><path class="cls-2" d="M251.4,79.7a16.2,16.2,0,0,0-1,1.8l-.3-.2c-.4-1-.1-1.7,1-1.9Z"/><path class="cls-2" d="M309,40.2c.6.3.6.7,0,1l-.3-.2v-.6Z"/><path class="cls-1" d="M3.6,49.8v1a2.1,2.1,0,0,1-.3-.7C3.2,50.1,3.5,49.9,3.6,49.8Z"/><path class="cls-1" d="M180.3,69v1C179.6,69.7,179.6,69.4,180.3,69Z"/><path class="cls-2" d="M269.5,72l-1.1-.8Z"/><path class="cls-2" d="M270.3,73.1a7.6,7.6,0,0,1-.8-1.1A7.6,7.6,0,0,0,270.3,73.1Z"/><path class="cls-1" d="M57.4,93l.9-.9Z"/><path class="cls-2" d="M116.9,13.4c0,1.4,0,3.1-1.7,3.5s-3,3.1-2.9,4.9-.5,5.1-.2,7.6.6,2.8.8,4.2a2.2,2.2,0,0,1-1.2,2.4,1.8,1.8,0,0,1-2.5-.6,1.4,1.4,0,0,1,.2-.6c.9-4.9.5-9.7.5-14.6a2.5,2.5,0,0,1,.3-1.9,9.1,9.1,0,0,1,1.1-1.6l1.3-1.2a5.8,5.8,0,0,0,1.9-1.9l.5-.3Z"/><path class="cls-2" d="M114.1,12.4l.9.9-.2.2c-.6.1-.9-.2-1-.8Z"/><path class="cls-8" d="M201.6,8.8l1.7-.2,4.2-.2a.7.7,0,0,1,.6.6c.1.2-.1.6-.3.8a2.4,2.4,0,0,1-1.2.7c-1.2.2-1.5.9-1.4,2s.2,4.7.2,7.1a9.1,9.1,0,0,1-.6,3.2,2.3,2.3,0,0,1-2.3,1.4,2,2,0,0,1-2-1.7,8.9,8.9,0,0,1,.3-3.2l.2.2.3-.2c.3-.1,1-.2,1-.4s.1-3.5.1-5.3A2.5,2.5,0,0,0,201,11C199.8,10.2,200.9,9.4,201.6,8.8Z"/><path class="cls-2" d="M166.7,43.9c.7-1.2,1.4-2.4,2-3.7,2.2,0,4.5.3,6.6-.7s1.5,0,2.1.7l-.3.3L176,41.7a5.4,5.4,0,0,1-1.4,1.6,2,2,0,0,1-2.1-.4,3,3,0,0,1-.8-.8h0c-.7-.4-1.3-.6-1.9,0h-.2a3.9,3.9,0,0,1-1,.8h0c-.1.5-.5.7-.9,1h0l-.5.4Z"/><path class="cls-2" d="M250.4,23a16.4,16.4,0,0,1-2.5,2.1c-2.4,1.2-3,.9-4.4-2l.3-.3c2.1.4,4.3-.7,6.4,0Z"/><path class="cls-2" d="M232.1,22c-2.2,1.4-2.9,1.2-3.9-.9l.2-.2a1.7,1.7,0,0,1,1.2-.2,4.6,4.6,0,0,1,2.2,1.1Z"/><path class="cls-2" d="M185,33.5c.4-.7.7-.6,1.1,0l-.4.3h-.6Z"/><path class="cls-2" d="M186.1,33.5l.9.9-.2.2q-1.1.1-.9-.9Z"/><path class="cls-2" d="M11.3,17.2c.1-1.2-.5-3.1.9-3.4s3.1-1.9,4.2-3.5,2.3-.7,3.5-.8,2.5.4,3,2.2,2.1,2.6,4.5,1.8,2.6-.8,4-1.2a1.4,1.4,0,0,1,.2.7c-1.8,2.8-4.5,4.1-7.8,4.6-2.6-1.7-5.1-4.2-8.4-1.2l-1.1.7-1,.6a2.2,2.2,0,0,1-1.8-.3Z"/><path class="cls-2" d="M31.4,12.3l1-.9.2.3c-.1.6-.4,1-1.1.8Z"/><path class="cls-2" d="M132.3,63.3c1.5,2.1,2.3,4.3,1.3,7.1a7.2,7.2,0,0,0,.1,4.1,2.7,2.7,0,0,1-1.2,3.3c-2.6,1.1-5.3,2.3-8.2,1.5-.3-.1-.5-.4-.8-.6s.3-.4.5-.5a11.9,11.9,0,0,1,3.9-1.6c2.4-.6,3.1-2.1,3.2-4.4s-.8-6,.9-8.7Z"/><path class="cls-2" d="M145.7,69a3.4,3.4,0,0,0,3.5.3,2.5,2.5,0,0,1,3.3.7l-.4.6a19,19,0,0,0-1.9,2.1c-1.1,1.6-1.8,4.5-4.3,3s-2.9-4-.9-6.4Z"/><path class="cls-2" d="M136.2,64.3a18.3,18.3,0,0,1,.2-3.3,2,2,0,0,1,2.3-1.3c.9.1,1.1.9,1.2,1.7a7.3,7.3,0,0,1-1.1,5c-.7,1.3-1.8,1.7-2.7,1s-1-1.4.1-3.1c.2.2.7.4.7.2s0-.3-.3-.1S136.8,64.3,136.2,64.3Z"/><path class="cls-2" d="M153.5,72.8a1.8,1.8,0,0,0,1.8-1.7c.8-4.4.8-4.4,4.9-2.5l.9.4c0,.2.1.4.1.7-3,.7-2.9,3.8-4.4,5.7-1.8.4-3.5.6-3.8-2Z"/><path class="cls-2" d="M123.5,78.7c-.7-.2-1.7-.2-2.1-.7a2.5,2.5,0,0,1-.6-2.1,21.3,21.3,0,0,1,1.3-4.5,4.3,4.3,0,0,1,4.3-2.5v.2c-1.5,2.9-3.3,5.7-2.6,9.2Z"/><path class="cls-2" d="M161.1,69a3.4,3.4,0,0,1,4.8,0l-.5.5a3.8,3.8,0,0,1-4.2-.2Z"/><path class="cls-2" d="M152.5,70c1,.7.8,1.8,1,2.8l-.3.2c-1.7-.4-1.6-1.5-1-2.8Z"/><path class="cls-2" d="M142.8,68.1c.6-1,1.3-1,2,0s-.3.2-.4.4h-1.2C143.1,68.3,142.9,68.2,142.8,68.1Z"/><path class="cls-2" d="M141.8,69.9a16.2,16.2,0,0,1,1-1.8l.2.2c.4,1,.2,1.7-1,1.8Z"/><path class="cls-2" d="M144.8,68.1l.9.9-.2.2c-.7,0-1-.3-.9-1Z"/><path class="cls-2" d="M165.9,69l.9.9-.2.3a1.3,1.3,0,0,1-1-.9Z"/><path class="cls-2" d="M93.8,42.2a4.1,4.1,0,0,1,2.8-3.6,4,4,0,0,1,4.1.4,6.4,6.4,0,0,0,4.4,1.3,3.1,3.1,0,0,1,3,1.3,40.4,40.4,0,0,1,2.9,5.9,3,3,0,0,1-.5,2.2c-1.1,2-3.7,2.9-6.1,2.6a54.6,54.6,0,0,0-5.6-.4l-.3-.3c-.1-.2-.1-.5-.2-.7a1.4,1.4,0,0,0,.2-.6l.9-1.1c2.5-1.8,4.9,1.6,8-.1-4.9-.5-2.7-3.1-1.4-5.9-3.5,1.2-3.7,4.7-6.3,5.3a9.8,9.8,0,0,1-1.8.8,2.5,2.5,0,0,1-1.2-.2,5.2,5.2,0,0,1-1.4-1.9,3.3,3.3,0,0,1-.1-1.7,5.6,5.6,0,0,1,.9-2.1,2.7,2.7,0,0,1,.8-.7l1-.2a1.9,1.9,0,0,1,.9.4v.5l.4-.3a2.9,2.9,0,0,1,.2-.9,2.2,2.2,0,0,0,0-.8.9.9,0,0,0-.3-.7l-.6-.4h-.8l-.7.4-.9.9a2.1,2.1,0,0,1-.8.6l-.5.2h-.5Z"/><path class="cls-2" d="M103.6,33.6c-.7,2.7-.7,2.8-2.9,2.8s-2.9.4-3.9-.9l.2-.3a2.8,2.8,0,0,1,1.7-.7l1.8-.3c1-.1,1.8-1.1,2.9-.7Z"/><path class="cls-2" d="M92.9,47.9c-1.3-1-1.1-1.9-.1-3l.5.4a2.3,2.3,0,0,1-.2,2.5Z"/><path class="cls-2" d="M92.8,44.9c.2-1-.1-2.1,1-2.7H94a2.5,2.5,0,0,1,.6,1.6,3.1,3.1,0,0,1-.5,1.2,1.1,1.1,0,0,1-1.1.1Z"/><path class="cls-2" d="M109.2,35.4a16.2,16.2,0,0,1-1-1.8l.2-.2c1.2.1,1.4.8,1.1,1.8Z"/><path class="cls-2" d="M193.6,72.8c.3-2.1,1.6-2.9,3.7-2.8s1.7.4,2.1,2,0,.7.1.9a14.7,14.7,0,0,0,1,1.3,3.9,3.9,0,0,0,.8-1,9.5,9.5,0,0,1,.5-1.8,6.1,6.1,0,0,1,1.5-1.7,2.2,2.2,0,0,1,3.5.9,18.2,18.2,0,0,1,.6,3.5l1.6-2.3c.1.2.3.3.5.5a.5.5,0,0,1,.2.4c.6,2.2.2,4.5-2,5.1s-2.1-2.5-3.3-3.9c-1.5.7-1.1,2.5-2.3,3.4a5.3,5.3,0,0,1-4.4,1.1c-1.9-.6-1.7-2-1.3-3.5s-1.1-1.7-2.2-1.8Z"/><path class="cls-2" d="M212.9,70.9c.2.4.7.8.8,1.1.1,2.7.1,5.4,0,8a2.2,2.2,0,0,1-2.4,2.4c-2.9-.3-5.9.6-8.5-1.4-.8-.6-2.2-.3-3.2-.4l-.3-.3c.4-2,1.9-2.3,3.6-2.2,7.9.6,7.9.6,9.5-6.7C212.5,71.2,212.7,71.1,212.9,70.9Z"/><path class="cls-2" d="M188.9,79.6c-2,1.6-4.2,1.1-6.3.5-.5-.1-1-.9-1.1-1.4a13.5,13.5,0,0,1-.4-2.8l.3-.3c1.3.4,2.6,1.1,3.4-.8s1.9,1.5,2.7,2.5l1.2,2Z"/><path class="cls-2" d="M209,71.8c1.1-2.1,1.7-2.3,3.9-.9l-.3.3a3.8,3.8,0,0,1-3.4.9Z"/><path class="cls-2" d="M192.6,74.7a17.4,17.4,0,0,0,1-1.9h.1c.7,1.1.5,1.8-.8,2Z"/><path class="cls-5" d="M287.7,11.9l-.2.3.2.2c.5,2.6,1.6,5,1.5,7.7,0,.9,0,1.9-1.2,2.2a1.7,1.7,0,0,1-2-1.4h.1c-1.8-2.6-1.6-5.7-2.2-8.6-.3-1.3.2-2.8,1.7-3S287.2,10.9,287.7,11.9Z"/><path class="cls-2" d="M287.7,11.9c-.4-.7-.7-1.5-1.1-2.1s-.6-.3-.9-.2-.7.3-.7.4c0,1.9,0,3.9.1,5.8s.7,3.4,1,5.1c-1.6-.8-2-2.2-2.1-3.8a26.2,26.2,0,0,1-.1-2.8,3.4,3.4,0,0,1,0-4.8c.2-.8.3-1.7,1.3-1.7s1.7.4,1.9.9A11.3,11.3,0,0,1,287.7,11.9Z"/><path class="cls-2" d="M274.4,10.5c.9.6.8,1.6.9,2.5s.3,1.9,2.7,2.2l.6.6c.6,2.1-.3,3.6-2.4,3.7s-2.7-1.5-2.9-3.2-.5-3.9.8-5.5Z"/><path class="cls-2" d="M286,20.9c.4.4.8,1,1.3,1.2a1.7,1.7,0,0,0,1.4-.6,18.2,18.2,0,0,0-.3-3.2c-.2-1.9-.4-3.9-.7-5.9a12.8,12.8,0,0,1,1.7,9.7,2.3,2.3,0,0,1-1.6,1.4c-.5,0-1.1-.8-1.7-1.3s-.1-.3-.1-.4Z"/><path class="cls-2" d="M282.1,14.3c-.2,1.3.3,2.8-1,3.9H281c-2.1-2.6-.5-6.1-1.8-8.9a1.5,1.5,0,0,1-.1-.7c1.9-1.2,2.2-1.1,2.9,1A3.8,3.8,0,0,1,282.1,14.3Z"/><path class="cls-1" d="M282.1,14.3c0-1.6-.1-3.2-.1-4.8h1.9v4.8Z"/><path class="cls-2" d="M278,15.2c.1-1.6.1-3.1.1-4.7h.8c1.4,1.9,2.1,3.6-.6,4.9Z"/><path class="cls-2" d="M278.1,9.5l1-1v.2a.9.9,0,0,1-.5,1Z"/><path class="cls-2" d="M278.1,10.5c-.6-.3-.6-.7,0-1l.3.2v.7Z"/><path class="cls-2" d="M157.4,44.2v3.6c-.8,0-1.6-.6-2.2.8s-1.8,2.6-4,1.9-2.9-.7-4.4.5-1.6-.3-2.1-1.1l.3-.3c.8-1,1.4-2.1,2.1-3.1,2.4-3.5,2.8-3.4,5.6.2.4-2.5-1.7-3.9-2.4-5.9a1.4,1.4,0,0,0,.2-.6,4.6,4.6,0,0,1,4.4,2.2A3.4,3.4,0,0,0,157.4,44.2Z"/><path class="cls-2" d="M157.4,47.8a6.2,6.2,0,0,0,7.9,1.7c1.5-.6,2.3.2,3.5.5l.8.5c1.4.7,2.8,1,4.1-.3s1.6,2.2,2,3.5.1,3.3,1.5,4.6l.2.2c-1.8.9-2.6,1-3.2-.1a14,14,0,0,1-1.6-3.8,3.2,3.2,0,0,0-3.2-2.9c-2.4-.2-4.8-.8-7.3-.1S158.2,51,157.4,47.8Z"/><path class="cls-9" d="M58.3,46c0,5.6,0,11.2.1,16.7.2,9-.5,17.9-1.1,26.8a2.2,2.2,0,0,1-.3,1.4,1.8,1.8,0,0,1-1.1.7c-.1.1-.6-.3-.7-.5a5.8,5.8,0,0,1-.4-1.8c0-2.1.1-4.2.1-6.2.1-11.2.3-22.4.3-33.6,0-3-.4-6-.6-9h.1c1.4-1.5,2-.2,2.6.8h0c1.1,1.3.1,2.9.9,4.2v.3Z"/><path class="cls-2" d="M57.3,41.2a2.9,2.9,0,0,0-2.6-.8c.9-1.5.2-3.6,1.6-5H57c3.4,1,6.4-.9,9.6-1.6s4.3-2,6.8-.8l.4.5c-4.3,2.5-9.1,3.5-13.8,4.7A3.1,3.1,0,0,0,57.3,41.2Z"/><path class="cls-2" d="M63.1,44c1.8-3.1,3.6-4.1,6.4-3.6.9.1,1.2.9,1.4,1.7l-.2.2c-2.5.4-4.5,1.8-7,2Z"/><path class="cls-2" d="M80.4,36.3c.5-.8,1-1.6,2.2-1.2l1.3.4c2.4.8,2.5,1.7.5,3.9l-.6-.3c-.9-1.1-2.3-1.6-3.3-2.6Z"/><path class="cls-2" d="M58.2,45.4l-.9-4.2C58.9,42.3,58.2,43.9,58.2,45.4Z"/><path class="cls-2" d="M84.4,39.4c-.2,1,0,2.1-1,2.9l-.5-.5c-.3-1.3-.5-2.4,1.2-2.6Z"/><path class="cls-2" d="M76.6,32.6c-.7,1.1-1.8.9-2.8,1l-.3-.4c.6-1.6,1.6-1.5,2.9-.9Z"/><path class="cls-2" d="M83.4,42.3l-1,1.8-.3-.2c-.4-1-.2-1.7,1-1.9Z"/><path class="cls-2" d="M63.1,45.1c-.6-.4-.6-.7,0-1.1l.2.2.3.4-.3.3Z"/><path class="cls-10" d="M56.4,34.6l-.9-.2a.8.8,0,0,1-.4-.7c.1-.3.1-.4.2-.4a6.4,6.4,0,0,1,1.8-1,15.2,15.2,0,0,1,2-.6c1.7-.1,3.4-.6,4.3,1.5-1,2.5-3.3,2.6-5.4,2.8S56.9,35.1,56.4,34.6Z"/><path class="cls-2" d="M55.5,33.5v1c-1.7-.9-3.8-1.3-4-3.8l.3-.2C53.7,30.6,55.4,31.1,55.5,33.5Z"/><path class="cls-2" d="M56.4,34.6l1,.8a.5.5,0,0,1-.8.2l-.3-.2A2.2,2.2,0,0,0,56.4,34.6Z"/><path class="cls-11" d="M246.7,37.6a2.6,2.6,0,0,1,2.4,0c0,2-.1,3.9,2.4,4.5.6.1,1,.7,1.5,1.2a3.5,3.5,0,0,1,0,4.3c-.3.4-.7.9-1.1,1-3.3.8-3.5,3.4-3.6,6.2a26.8,26.8,0,0,1-1.1,5.5c0,.4-.7.7-1.1.7a1.2,1.2,0,0,1-1.1-.7,4.3,4.3,0,0,1-.4-2.2c.1-1.9.6-3.7.8-5.6s.3-2.8-.7-4.1.2-1.8.9-2.4.8-.8-.1-1-1.7-1.4-.9-2S246.7,39.6,246.7,37.6Z"/><path class="cls-12" d="M263.6,40.6c.1,1.6.1,3.1.3,4.7s.3.5.5.6a1.3,1.3,0,0,0,.9-.2l2.6-3.4c.4-.5,1.8-.1,1.9.6a12.3,12.3,0,0,1,.2,1.9,2.3,2.3,0,0,0,1.5,2.6c.6.2,1.1.8.5,1.5a4,4,0,0,1-1.6.8,2.1,2.1,0,0,1-1.3-.5c-1.3-1.3-2.3-1.5-4-.4s-3.4.1-4-1.9a8.9,8.9,0,0,1,.9-6.4h.1c.5-.7,1-.9,1.4.1Z"/><path class="cls-13" d="M255.3,40.6c.3-2.2.6-4.3,1-6.4s1.2-1.7,2.5-1.4c-.2,5.2-.4,10.4-.7,15.6,0,.3-.6.5-1,.6a.8.8,0,0,1-.8-.3,6.4,6.4,0,0,1-.6-1.8c-.2-1.6-.3-3.2-.5-4.7Z"/><path class="cls-14" d="M275.5,39.4H279c-.2.6-.1,1.5-.5,1.6s-1.2,1.2-.4,2.2a11.8,11.8,0,0,1,1.8,2.1,2.3,2.3,0,0,1-1.1,3.2,4.6,4.6,0,0,1-4.9-.2,2.4,2.4,0,0,1-.7-1.6,1,1,0,0,1,1.4-.7,3.2,3.2,0,0,0,.9.3c.3,0,.7-.1.8-.3a1.1,1.1,0,0,0-.1-.8c-.4-.6-.8-1-1.2-1.5s-.6-2.1-.5-3.2h0a1.4,1.4,0,0,1,1-1.1Z"/><path class="cls-15" d="M245.5,45l.8-.2c.2.6.1,1.1-.7,1.2A3.4,3.4,0,0,1,245.5,45Z"/><path class="cls-16" d="M262.1,21.8c-.4-1.6-.7-3.2-1.1-4.9V14.6l.2-.5c.8-1.2-.5-3.9,1.8-3.6s.7,2.7,1,4.1-.2,2,.7,2.6,1.2.5,1.3,1.2-1.2,1.2-1.3,2.3S264.3,22.8,262.1,21.8Z"/><path class="cls-2" d="M243.6,8.5c1.6-1.4,3.2-1.2,4.8-.2s3.7,2.5,3.9,5l-.6.3c-2.9-1.1-4.8-3.9-7.9-4.8Z"/><path class="cls-2" d="M259.1,6.7a12,12,0,0,1-.8,2.7c-.6,1.2-1.5,1.1-3.1,0l1.5-1.6c.6-.5,1-1.5,2.2-1.2"/><path class="cls-17" d="M256,7.2l1,.7a1.6,1.6,0,0,1,.2,1c-.4,1.1-1.2.6-2,.5h.1a.7.7,0,0,1-.4-.6c0-.2.1-.3.2-.3a1.1,1.1,0,0,0,.1-.8,1.4,1.4,0,0,0,.2-.6"/><path class="cls-2" d="M252.3,13.3c.3.7.7,1.3,1,1.9l-.3.2c-1.2-.2-1.4-.9-.9-1.9Z"/><path class="cls-2" d="M256.3,5.8c.3.7.3,1.3-.4,1.7l-.7.3c0-.9,0-1.7.9-2.1"/><path class="cls-2" d="M255.1,8.6c.1.3.1.5.2.9l-.6-.6Z"/><path class="cls-18" d="M303.2,76.6l.2-12.2c1.4-.9,2.3-.8,2.5.3s.2,2.2.3,3.3c.4,4.1-.4,8.2.8,12.3a1.5,1.5,0,0,1-.8,1A1.6,1.6,0,0,1,305,81C304.3,79.6,303.8,78.1,303.2,76.6Z"/><path class="cls-19" d="M330.1,70.1l2.2-.2c.8-.1,1.6-.3,1.9.7s-.6,1.3-1.2,1.7-.1.3-.2.4a11.2,11.2,0,0,0-2.6.8,3.4,3.4,0,0,0-2.2,3.6c0,1.1-.1,2.2-.1,3.2s-2.2.3-2.7-1a10.5,10.5,0,0,1-.8-2.3c-.2-1.2-.6-2.6-.2-3.6s1.7-.9,2.7-1.4Z"/><path class="cls-20" d="M320.1,74.2l-1.9,2.5c-.7.9-.3,1.8.9,2a5.5,5.5,0,0,0,1.8.2c.9,0,2.2-.6,2.1.9s-1.3,1.4-2.1,1.5c-2.8.7-6.3-1.6-7-4.3a1.7,1.7,0,0,1,0-1c.7-1.8,1.5-3.5,3.6-4.1A2,2,0,0,1,320.1,74.2Z"/><path class="cls-21" d="M309,80.5c-.7-2.2-1.5-4.4.1-6.6C311,76.1,311.2,78.3,309,80.5Z"/><path class="cls-22" d="M309,80.5a6.7,6.7,0,0,0,.1-6.6,1.1,1.1,0,0,1,0-.8h0c.8.2,1.7.3,1.7,1.3s.1,4.2.1,6.2a1.3,1.3,0,0,1-.7,1C309.4,81.7,309.1,81.2,309,80.5Z"/><path class="cls-23" d="M311.8,68.1v1a2.4,2.4,0,0,1-1.2.7c-.2-.3-.6-.7-.6-1s1.2-.6,1.9-.7Z"/><path class="cls-24" d="M310.5,69.8l1.2-.7C311.8,70,311.3,70.1,310.5,69.8Z"/><path class="cls-2" d="M218.6,39.1a5.9,5.9,0,0,1-.2,1.4c-.3.8-.9,1.5-1.8,1.2s-1.5-.9-1.5-1.5a27.2,27.2,0,0,1,0-5.7c0-.6.9-1.3,1.5-1.7a1.5,1.5,0,0,1,2,.7C218.3,35.4,216.7,37.2,218.6,39.1Z"/><path class="cls-25" d="M218.6,39.1c-.2.2-.4.6-.6.7a2.8,2.8,0,0,1-1.2.4c-.2,0-.5-.4-.5-.7s.2-3.4.4-5.1,1.1-.9,1.9-.9h.1a5.9,5.9,0,0,1,0,4.7A.6.6,0,0,0,218.6,39.1Z"/><path class="cls-2" d="M218.7,38.3V33.6C220.1,35.1,220,36.7,218.7,38.3Z"/><path class="cls-2" d="M207.1,40.2c.7-1,1.4-.9,2.1-.1l-.4.5a1.4,1.4,0,0,1-1.6-.3Z"/><path class="cls-2" d="M209.2,40.1l1.8,1.1-.3.2c-1,.3-1.8.3-1.7-1.1Z"/><path class="cls-26" d="M215.9,19.2c-.4,1-.7,2.1-1.2,3.1a4,4,0,0,1-4,2,3.5,3.5,0,0,1-3.1-3.2,11.7,11.7,0,0,1,3.3-10.3c.8-.8,1.7-.6,2.7-.5a2.4,2.4,0,0,1,2.2,2.1A5.3,5.3,0,0,1,215.9,19.2Z"/><path class="cls-27" d="M224.6,15.4c.2-1.2.3-2.4.5-3.6s1-1.5,2-1.2c2.5,2.5,2,5,.2,7.5a35.9,35.9,0,0,1-1.7,3.4,5,5,0,0,1-4.2,2.6c-2.1,0-3.1-1.4-3.8-3-.9-3.2-1.6-6.4.1-9.6.8-.3,1.6-.5,1.9.5a16.5,16.5,0,0,1,.4,3.2,30.1,30.1,0,0,0,.5,4.2c.1.5.6,1.4.8,1.4a3.9,3.9,0,0,0,1.9-1A5.9,5.9,0,0,0,224.6,15.4Z"/><path class="cls-28" d="M227.3,18.1c.2-2.5.8-5-.2-7.5h2.1c2,3.5,2.2,7,0,10.5h-.8C228.3,19.9,228.6,18.7,227.3,18.1Z"/><path class="cls-29" d="M217.7,11.5c0,3.2,0,6.4-.1,9.6l-1.7-1.9V12.4Z"/><path class="cls-11" d="M251.1,79.4a17.4,17.4,0,0,0-1,1.9c-2.5.1-2.5.1-2.5-1.6a12.1,12.1,0,0,0,.1-1.9c-.2-1.2.3-2.6-1-3.4s-2.2,1-2.8,3.2a19.7,19.7,0,0,0-.3,2.4c-.2.8-.8,1.5-1.7,1.3s-1.2-.9-1.3-1.7,0-2.3-.1-3.3a5.4,5.4,0,0,0-.9-2.2c-.1-.2-.9-.3-1.2-.1a2.2,2.2,0,0,0-.9,1,19.5,19.5,0,0,0-.8,2.2c-.5,1.3-.1,3.5-2.2,3.1s-1.2-2.3-1.3-3.7V74.2c0-2,0-2,2.6-2.7l.5-.2c2.1-1.5,4.1-1.3,6,.5s1.7,0,2.3-.8c4.3-.2,5.5.6,6.2,4.6C251,76.8,251,78.1,251.1,79.4Z"/><path class="cls-30" d="M230,71.1c.2,2.8.4,5.7.5,8.5a.7.7,0,0,1-.1.5c-.2.4-.5,1-.8,1s-1.3-.3-1.5-.7a15.9,15.9,0,0,1-.5-8.9c.3-1.2,1.5-.6,2.4-.4Z"/><path class="cls-31" d="M230,65.3a6.2,6.2,0,0,1-.2,1.9c-.3.6-.8,1-1.5.7a1.4,1.4,0,0,1-1-1.9c.1-.4.8-.8,1.4-.9a3,3,0,0,1,1.3.2Z"/><path class="cls-32" d="M17.9,23.8l1,3.1c.4,5.8.8,11.7,1.3,17.6.1,1.9.4,3.8.6,5.7l-.3.3.3.3c-.1,4.8-.2,9.6-.2,14.4s.1,12.1.2,18.1a26.1,26.1,0,0,0-.6,2.7c-.2,1.2-1,1.4-2,1.3-2.8-1.2-2.4-3.8-2.5-6.2-.2-12.8.5-25.5-.5-38.3a20.7,20.7,0,0,1-.4-5,24.4,24.4,0,0,0-.6-7.6,20.8,20.8,0,0,1-.3-2.3,19.3,19.3,0,0,1,.1-2.4C14.6,23.4,15.1,20.9,17.9,23.8Z"/><path class="cls-33" d="M4.6,63.3V45a.9.9,0,0,1,1.2,0,9.5,9.5,0,0,1,1,1.7c1.8,1.7,4.8,1.8,5.4,5.5.9,5.3.5,7.1-4.8,8.8,3.2,3.1,6.7,6,7.9,10.5-.8,1.4-2,1.4-3.2,1.2C6.9,71.7,4.3,68.6,4.6,63.3Z"/><path class="cls-34" d="M4.6,63.3c1.1.7,1,1.9.9,3s1,2.8,2.6,3.5l4.2,2.1c1.7,1.1,3.5,2.2,4.2,4.3a28.1,28.1,0,0,1,0,4.1c-2.5,2-6.6,1.6-8.1,5.2a14.7,14.7,0,0,1-1.8-6.4c-.4-3.2-.4-6.5-1.6-9.7S4.7,65.3,4.6,63.3Z"/><path class="cls-35" d="M17.9,23.8c-2.3-.9-2.5-.8-2.8,2-1.1.8-1.8-1.8-3-.3S9.7,27,9.3,28.4,6.9,32,6.8,34.3s0,3.7,0,5.5a14.3,14.3,0,0,1-.3,2.9A3.1,3.1,0,0,1,5.9,44a.9.9,0,0,1-1.3.1c0-4.3.1-8.5,0-12.8,0-1.5.2-2.7,1.6-3.6a2.2,2.2,0,0,0,1-1.5c-.1-3.1,2-5.2,3.5-7.6a8.3,8.3,0,0,1,.8-1.2l1.5-.3c2.2,1.2,4,3,6.1,4.5a1.3,1.3,0,0,1,.1,1.2Z"/><path class="cls-36" d="M8.4,85.5c.4-1.5.9-3.1,1.3-4.5l6.4-.4a1.4,1.4,0,0,1,.8.9c.5,2,.9,3.9,1.3,5.8-1.3,1.3-2.8,2.2-4.6,1.5S9,88.3,8.4,85.5Z"/><path class="cls-37" d="M4.6,44.1h.9c.3.3.3.6,0,1H4.6Z"/><path class="cls-2" d="M171.5,19c1.1-4.5,3.8-8.1,6.7-11.5.2.1.3.3.5.5a16.6,16.6,0,0,1-6.6,11.3Z"/><path class="cls-2" d="M168.7,23.9a10.9,10.9,0,0,1,.1-1.8,2.9,2.9,0,0,1,2.7-3.1l.2.2c.4,2.2,0,4.1-2.4,4.9Z"/><path class="cls-2" d="M180.5,4c.5,1.9.2,3.3-2.1,3.6h-.2c.1-.6.1-1.2.2-1.8"/><path class="cls-2" d="M167.8,24.8l.9-.9h.1c.2.7-.2,1-.8,1.1Z"/><path class="cls-38" d="M185.9,0c1.2,2.6.8,5.3.6,8-.2,5.3-.4,10.5-.7,15.8-2.1,1.4-2.7,1.5-4.1.4a1.8,1.8,0,0,1-.5-1.2c-.2-2.3-.2-2.3-1.8-2.1l-2.4.4a5.7,5.7,0,0,0-4.6,3,13.5,13.5,0,0,1-2.7,3.2,1.7,1.7,0,0,1-1.4.1c-.3-.1-.5-.7-.6-1.1a5.8,5.8,0,0,1,.3-1.4,7.6,7.6,0,0,0,.8-1.1,29,29,0,0,0,1.9-2.9,11.4,11.4,0,0,0,1-1.9,11.2,11.2,0,0,0,1.7-2.1c1.7-3.1,3.4-6.3,5-9.5L180.5,4"/><path class="cls-39" d="M197.4,19a30.7,30.7,0,0,1-2.4,3.5,6.9,6.9,0,0,1-2.9,1.6,3.3,3.3,0,0,1-4.1-2.4,13.1,13.1,0,0,1,1.4-9.7c.1-.3.8-.5,1.2-.4a1.8,1.8,0,0,1,.9,1,3.4,3.4,0,0,1-.1,1.4c-.3,1.7-.6,3.4-.8,5.1s0,1.9,1,1.8a3,3,0,0,0,1.9-1.2,20.9,20.9,0,0,0,1.3-3.5c.4-1.4.5-2.9,1-4.2s.8-.8,1.3-1.1.9.9,1,1.5a6.5,6.5,0,0,1,0,2.4c-.2,1.4-.5,2.8-.7,4.2Z"/><path class="cls-2" d="M134.2,38.3a3.4,3.4,0,0,1,2,2.5c.1,1,.9,1.2,1.7,1.3l.3.6a7.2,7.2,0,0,1-6.3,6.1c-1.4.3-2.9.2-3.8-1.2s-.3-2.4.2-3.6,3.5-3.6,5.2-5.4Z"/><path class="cls-2" d="M137.9,42.1c.5-.6.9-1.6,1.4-1.7a8.9,8.9,0,0,1,6.4.8l.3.5a5.8,5.8,0,0,1-.6,2.9,2.4,2.4,0,0,1-.9.8,2.3,2.3,0,0,1-1.1-.3,9,9,0,0,0-1.8-1.5c-1.1-.7-2.5-.5-3.5-1.4Z"/><path class="cls-2" d="M126.4,42.1a4.5,4.5,0,0,1,3.8-3.9l.4.7c-.6,2-1.6,3.4-4,3.4Z"/><path class="cls-2" d="M130.2,38.2c.3-1.2.8-2,2.2-1.2a10.2,10.2,0,0,1,1.8,1.3l-.2.2a2.6,2.6,0,0,1-3.5,0Z"/><path class="cls-2" d="M145.7,41.2c.7-1.1,1.8-.9,2.9-1a2.5,2.5,0,0,0,.2.7c-.8,1.6-1.7,2.2-3,.4Z"/><path class="cls-2" d="M148.6,40.2c.6-1,1.3-.9,1.9,0h0a1.5,1.5,0,0,1-1.8.2Z"/><path class="cls-40" d="M56.6,35.6a.8.8,0,0,0,.8-.2l5.8-1.9A5.7,5.7,0,0,1,65.8,32l1.7-.5,1.7-.7,1.8-.6c3.8-1.2,7.5-2.8,11.3-4.2L88,24.1c2.7-.8,5.5-1.7,8.1-2.7l1.2-.5,4.3-1.6c2.2-.6,4.3-1.8,6.6-2.2l1.9-.4a1.9,1.9,0,0,1,1.2.4,1.1,1.1,0,0,1,0,1.1l-1.1,1c-.5.7-1.4.3-1.9.9-6.1,3.6-12.7,5.7-19.4,7.8L76.4,32.3l-2.9.9L60.9,36.8a16.5,16.5,0,0,1-3.2.7C56.3,37.6,56.4,36.6,56.6,35.6Z"/><path class="cls-41" d="M103.4,33.5c-.8.8-.9,2.6-2.8,1.9s-1.5-.7-2.3-.1H97a.9.9,0,0,1-.1-.5C96,29,96,29,101.2,26.6c.8-.3,1.6-.8,2.1-.1a3.4,3.4,0,0,1,.5,2.2C103.8,30.3,103.5,31.9,103.4,33.5Z"/><path class="cls-42" d="M108.3,20.1a1.6,1.6,0,0,1,1.9-.9,9.8,9.8,0,0,1,1.1,5.3c-.2,3.1,0,6.2,0,9.4,0,1.4-.9,1.3-1.8,1.3a17.4,17.4,0,0,1-1.1-1.8c.2-3.9.3-7.9.6-11.8C109,21,109.1,20.4,108.3,20.1Z"/><path class="cls-43" d="M277.9,82.3c-2,.1-3.8,0-4.7-2.2s-.1-3.7,1.2-5.3a16.6,16.6,0,0,0,1.4-1.3c.7-.8,1.1-2,2.5-1.5s2.5,1.4,2.8,3.3a7,7,0,0,1-3.1,7Z"/><path class="cls-44" d="M291.7,30.8a2.3,2.3,0,0,1,2.5.1c.1,2.7.2,5.3.3,8.3,2.7.1,5.5.1,6.7,3.1a2.8,2.8,0,0,1,.1,2.9h.1a1.4,1.4,0,0,0-1,1.2c-1.6,2-3.8,1.8-6.1,1.9s-2.9.1-2.9-2.6Z"/><path class="cls-45" d="M308.7,40.4a.4.4,0,0,0,0,.6c-.7.9-1.4,1.7-2,2.6s-.3,1.8.9,1.9,1.5.3,1.8,0c1.9-1.7,4.3-1.3,6.9-1.5-.7-.9-1-1.6-1.5-2.1s-1.5-3.6-.1-5.4a12.8,12.8,0,0,1,1.9-.1c.7,0,1.3.8,1,1.1-1.9,2.1.1,3.3.9,4.7s.1.3.2.4a2.3,2.3,0,0,1-.1,2.5,18.3,18.3,0,0,1-1.3,1.6c-2.4.5-5,.1-7.4,1.1a7,7,0,0,1-3.8.1,3.9,3.9,0,0,1-2.7-5.9,6.7,6.7,0,0,1,1.4-1.9,2.8,2.8,0,0,1,2-.9C307.5,39.2,308.1,40,308.7,40.4Z"/><path class="cls-45" d="M301.3,45.2c0-1-.1-2-.1-2.9C302.6,43.7,302.6,43.7,301.3,45.2Z"/><path class="cls-45" d="M300.4,46.3l1-1.2Z"/><path class="cls-2" d="M263.5,40.5h-1.4c-.1-.5-.4-1.4.6-1.3S263.2,40,263.5,40.5Z"/><path class="cls-2" d="M275.5,39.4l-1,1.1Z"/><path class="cls-46" d="M285.9,59.6l1.7.9c.2,3.7.3,7.3.5,10.7,1.7.8,3.3,1.3,4.6,2.1s2.5,4.9-.3,6.6-4,.6-6,1a1.4,1.4,0,0,1-.8-1,43.6,43.6,0,0,1-.7-6.2c-.1-3.8,0-7.6.2-11.5A12.9,12.9,0,0,1,285.9,59.6Z"/><path class="cls-47" d="M297.5,74a2.3,2.3,0,0,1,2.6,0v6.2c0,1.6,0,1.6-2.5,1.1C297.6,78.9,297.6,76.4,297.5,74Z"/><path class="cls-48" d="M229.2,21V10.5c1-.4,2.4.6,2.9-.9h.1l.9-.9h.1a27,27,0,0,1,2.8-.4,3,3,0,0,1,2.5,4.5,8.6,8.6,0,0,1-2.2,2.5c-2,1.4-1.5,2.2,0,3.7s2.6,2.2,3.9,3.4a1.1,1.1,0,0,1,.3,1.2,1.4,1.4,0,0,1-1,.7,7.4,7.4,0,0,1-2.6-1,52.1,52.1,0,0,1-4.5-3.9l-.6,2.5C230.8,22.2,229.8,22.3,229.2,21Z"/><path class="cls-27" d="M252.1,13.5l.9,1.9c.8,3.2-1,5.3-2.8,7.4-.8.4-1.7.7-2.5,1.2s-2.9.2-3.9-1.2c-.4-3.7-.7-7.4-1.1-11.1a3.4,3.4,0,0,1,1.1-2.9,6.4,6.4,0,0,1,6.1,2.3Z"/><path class="cls-19" d="M318.6,45.1a21.8,21.8,0,0,1,.1-2.5,2.6,2.6,0,0,0,1.9-2.2l2.8-2c1.3.1,3-.9,3.9.5a5.1,5.1,0,0,1,.3,5.7l-.7,1.1c-2.4,1.1-4.8,1.7-7-.5C319.7,44.9,319,45.1,318.6,45.1Z"/><path class="cls-49" d="M333.7,40.3c0,1.4.1,2.8,0,4.2s-.4,1.3-.7,1.4-1.3-.6-1.5-1.3a23.5,23.5,0,0,1-.5-3.7c-.1-.9-.5-2,.7-2.4s1.3,1.3,2,1.9Z"/><path class="cls-50" d="M334.2,34.3c-.6.3-1,.7-1.3.6s-.5-.6-.8-.9.7-.6,1-.6S333.7,33.9,334.2,34.3Z"/><path class="cls-51" d="M185.2,74.8a30.6,30.6,0,0,1-.5,3.2,2.3,2.3,0,0,1-1.4.9,1.4,1.4,0,0,1-1-.7,19.9,19.9,0,0,1-.9-2.6c0-3.8,0-7.6.1-11.4a13.4,13.4,0,0,1,.7-2.7c0-.1.5-.3.7-.3a1,1,0,0,1,.8.4,6.4,6.4,0,0,1,.6,1.8l.9,8.5A2.1,2.1,0,0,1,185.2,74.8Z"/><path class="cls-52" d="M188.7,79.3l-1.7-.7c-.6-2.5-1.3-5.1-.2-7.6,1.1-.3,2.1.1,2.1,1.2S188.7,76.9,188.7,79.3Z"/><path class="cls-53" d="M186.8,71c.1,2.5.1,5,.2,7.6l-1-1.8a11.9,11.9,0,0,1-.8-2V71.9Z"/><path class="cls-2" d="M162.9,41.3l1.5,1.6a2.3,2.3,0,0,0,2.3,1l.2.3c.4.6.5,1.2-.2,1.7h.1l-.9,1h-.1a2,2,0,0,1-1.2.8h-1.9c-1.2-.1-2.2-.6-2.3-1.9s.6-1.6,1.7-1.9S162.8,42.2,162.9,41.3Z"/><path class="cls-54" d="M172.6,42.2l1.9.9c1.8,2.7,1.4,4.7-1.8,5.8h-.2a1.2,1.2,0,0,1-1.8-.1h0l-1-.7v-.2a1,1,0,0,1-.1-.9l1.2-1.2a2.7,2.7,0,0,0,.8-.7v-.2C172.6,44.2,171.7,42.9,172.6,42.2Z"/><path class="cls-55" d="M172.7,48.9a2.6,2.6,0,0,0,1.9-3.1,24.4,24.4,0,0,1-.1-2.7l.9-1.9c2.2,4.4,1.8,10.5-.8,13.4a11.1,11.1,0,0,0-.1-2.6,7.1,7.1,0,0,0-.8-1.8Z"/><path class="cls-55" d="M172.6,42.2c-.1,1,.2,2.1-1,2.7a26.2,26.2,0,0,0,.1-2.8A1,1,0,0,1,172.6,42.2Z"/><path class="cls-55" d="M169.8,42.1c.6-.6,1.2-1.1,1.9,0Z"/><path class="cls-55" d="M166.7,45.9l.2-1.7.8-.2A1.6,1.6,0,0,1,166.7,45.9Z"/><path class="cls-55" d="M170.7,48.8h1.8C171.9,49.9,171.3,49.8,170.7,48.8Z"/><path class="cls-2" d="M161.8,40.5l1.1.8Z"/><path class="cls-55" d="M168.6,43l1-.8Z"/><path class="cls-55" d="M167.7,44l.9-1Z"/><path class="cls-55" d="M171.5,45.1l-.8.7Z"/><path class="cls-55" d="M165.9,46.9l.9-1Z"/><path class="cls-55" d="M164.6,47.8l1.2-.8Z"/><path class="cls-55" d="M169.5,47a2.8,2.8,0,0,0,.1.9l-.4-.6Z"/><path class="cls-55" d="M169.7,48.1l1,.7Z"/><path class="cls-55" d="M169.6,50.5l-.8-.5Z"/><path class="cls-56" d="M278.3,10.4a.5.5,0,0,0,.1-.7l.8-1a2.1,2.1,0,0,1,2,2.3c0,2.3-.1,4.7-.2,7.1a25.3,25.3,0,0,1-1.8,2.7,3.7,3.7,0,0,1-5.8-.1,8.2,8.2,0,0,1-1.2-2,11.2,11.2,0,0,1-.4-7c.3-1.2,1.3-1.2,2.3-.9a54.6,54.6,0,0,0,.4,5.6,4.2,4.2,0,0,0,1.2,2.4c.2.3,1.3.3,1.6,0a4,4,0,0,0,1-3.5A5.6,5.6,0,0,0,278.3,10.4Z"/><path class="cls-57" d="M269.5,4.8c.1,1.7.3,3.4.4,5.1.2,3.8.4,7.5.5,11.3,0,.3-.5,1-.8,1a2.8,2.8,0,0,1-1.5-.6c-.3-.3-.3-.9-.4-1.3s-.2-1-.5-1.3-.8-.4-1.2-.6l-1.3-1.2a2.4,2.4,0,0,0,2.3-2.5c.1-3.3.5-6.6.7-9.9"/><path class="cls-58" d="M224.5,44l-.9-2.2c1.3,1,2.4-.2,3.6-.3s.7.5.8.9a2.2,2.2,0,0,1-.2,1.2Z"/><path class="cls-59" d="M225.5,46.8c.6-.8,1.2-1,1.8.1S226,47.6,225.5,46.8Z"/><path class="cls-60" d="M225.5,46.8h1.8C226.6,48,226,48,225.5,46.8Z"/><path class="cls-2" d="M212,48c-.6,2.7-1.1,3.2-3.2,2.5a5.5,5.5,0,0,0-4-.1c-1.2.5-1.9-.5-2.5-1.5l.3-.3a12.9,12.9,0,0,0,1.9-2.1c3.3-3.9,3.4-3.9,6.2.6.2.4.7.5,1.1.7Z"/><path class="cls-61" d="M69.7,85.2c-.8.2-1.6.1-1.8-.9s-.1-2.3-.1-3.4V74.7c-.1-3.7.4-4.2,4-3.9a1.6,1.6,0,0,1,1.6,1.5,24.1,24.1,0,0,1,0,3.8c0,3.2,0,6.4-.2,9.6,0,.9-.7.8-1.4.5-1.8-2.7-.5-5.8-1-8.3v4.8A2.7,2.7,0,0,1,69.7,85.2Z"/><path class="cls-62" d="M70.1,82.6c-.1-2.7-.1-5.4-.1-8.1,0-.4.5-.7.7-1.1s.9.6.9.9,0,2.5,0,3.8.2,5.4.2,8.1H71a1.3,1.3,0,0,0-.2-.8C69.9,84.6,70.7,83.4,70.1,82.6Z"/><path class="cls-63" d="M70.1,82.6c.2.9.5,1.8.7,2.7H69.7C69.8,84.4,69.9,83.5,70.1,82.6Z"/><path class="cls-64" d="M88,63.3l-.2.3.2.3c-.4,2-.7,4.1-1,6.1-2.5-.3-1.5-2.6-2.2-3.8-1,1.9,1.1,4-.6,5.7-.1,1.2-.1,2.4-.2,3.6s-2,.3-2.3-.9-.3-2.5-.5-3.7l-.6-6,.2-.4-.3-.3a2.5,2.5,0,0,1,.2-3.6h-.1c2.6-1.5,5-.6,7.3.9h0C88.8,62,88.6,62.6,88,63.3Z"/><path class="cls-2" d="M87.9,61.6c-2.4-.5-4.8-1.3-7.3-.9.4-.4.8-1.1,1.3-1.1a23.6,23.6,0,0,1,4.6,0C87.7,59.6,87.9,60.6,87.9,61.6Z"/><path class="cls-2" d="M80.7,60.6l-.2,3.6C78.4,62.7,78.5,62.3,80.7,60.6Z"/><path class="cls-2" d="M88,63.3c0-.6-.1-1.2-.1-1.8h1.2Z"/><path class="cls-65" d="M174.6,54.6c1-.8.9-1.9.9-3,0-3.5-.1-7-.1-10.4.2-1.2,1.1-.6,1.7-.7s.4,1.6,1.5,1.6a4.7,4.7,0,0,1,3.9,1.3,2.3,2.3,0,0,1,0,3.7,15.9,15.9,0,0,1-2.9,1.5l-1.8.6-.6,9.1C174.5,58.1,174,57.4,174.6,54.6Z"/><path class="cls-66" d="M185.9,33.7l.9.9v2c.1,1-.1,2.5.5,3.1s2,.2,3.1.4.9.5.9.8a2.3,2.3,0,0,1-.7,1.1l-1.3.4c-1.6.4-2.6,1.2-2.3,3a14.2,14.2,0,0,1-.2,2.9c-.2,1.4-1.3,1.6-2.5,1.3-.9-4.6-.4-9.3-.2-14,0-.6.7-1.3,1-1.9Z"/><path class="cls-56" d="M144.6,68.2l.9,1c0,1.5-.2,3.1-.1,4.6s.3,1.8,1.3,1.6a2.9,2.9,0,0,0,1.6-1.5,13.4,13.4,0,0,0,.9-2.6c.5-1.4.5-1.4,3-1.1a23.1,23.1,0,0,0,1,2.8c0,1.1.3,1.8,1.6,1.7l2.2-.3c1.4.8,2.2,1.7,1.1,3.3-.8-.1-1.2-1.4-2.4-.7s-2.3,1-3.1.6a4.4,4.4,0,0,0-5,.6c-1.3.9-2.8.3-3.8-.8a15.9,15.9,0,0,1-1.8-2.7V70.1a16.2,16.2,0,0,0,1-1.8Z"/><path class="cls-67" d="M158.1,77.7c-.3-1.1-.7-2.2-1.1-3.3a31.6,31.6,0,0,1-.3-3.2,2.9,2.9,0,0,1,.7-2c.6-.7,1.3-.1,2,.4s.8.3,1.2.2.4-.3.6-.5h4.4l1,.9a11.9,11.9,0,0,1,1.3,6.4,2,2,0,0,1-1.1,1.3c-.2.2-.8-.3-1.1-.6a2.3,2.3,0,0,1-.7-.7,16,16,0,0,0-.3-2.3c-.3-.9-.5-2.1-1.6-1.9a3.2,3.2,0,0,0-2,1.8c-.6.9-.6,2.1-1.1,3.1A1.1,1.1,0,0,1,158.1,77.7Z"/><path class="cls-68" d="M130.5,38.5H134l.3.9c.2.8.3,1.8-.7,1.8-3.1,0-3.9,2.3-4.7,4.5a1.6,1.6,0,0,0,1.9,2.3c2.2-.6,4.7-.8,5.6-3.5a9.1,9.1,0,0,1,1.7-2.3c1.8-.8,3.4-.8,4.7,1s.5,1.3.9,1.9h0c1.4,1.7.1,2.7-.9,3.7s-4.3,2.9-6.8.8a1.5,1.5,0,0,0-1.3,0,34.9,34.9,0,0,1-3.4,1.5c-3.5.7-6.1-1.6-5.7-5.1.2-1.3.7-2.5,1-3.7Z"/><path class="cls-69" d="M148.7,40.5l1.8-.2c2.6,1.5,3.5,4,3.8,6.7a3.6,3.6,0,0,1-.3,1.8,1.9,1.9,0,0,1-1.4.9c-.3.1-.9-.4-1-.8s-.7-2.7-1.1-4a.8.8,0,0,0-.7-.5,1,1,0,0,0-.7.4l-1.7,3.9c-.5,1.1-1.4,1-2.4.9s0-.5-.3-.7-.5-2.6-.1-3.9,0-2.7,1.2-3.7A2.1,2.1,0,0,0,148.7,40.5Z"/><path class="cls-70" d="M144.6,45c.1,1.3.1,2.6.1,3.9h-1.9l.9-3.7Z"/><path class="cls-69" d="M103.3,61.5c0,2.5,0,5,.1,7.5a9.2,9.2,0,0,0-.1,1.6c-.3,1.4-.5,2.7-.8,4s-.9,1.1-1.7,1c-1.4-2.3-.2-5-1.1-7.4-.2,1,.4,1.9.4,2.9s1.4,4.5-2.4,3.9c-1.2-4.8-1.1-9.6-.8-14.5l4-.2C102.1,60.2,102.6,60.9,103.3,61.5Z"/><path class="cls-71" d="M97.7,75c1,.1,1.8-.1,1.8-1.4V70.4c0-2.1-1.6-4.4.9-6.1.1,3.8.2,7.5.4,11.3C99.7,75.5,98.4,76.6,97.7,75Z"/><path class="cls-72" d="M83.1,42a17.4,17.4,0,0,1-1,1.9c-1.1,1.2-.4,2.7-.6,4s-.2,1.5-.4,2.3-.5.3-.8.4a1,1,0,0,1-.7-.4,5.8,5.8,0,0,1-.4-1.8V39.9a3.9,3.9,0,0,1,1.3-3.4h1.3c2.6-.2,2.6-.2,2.3,2.7A3.2,3.2,0,0,0,83.1,42Z"/><path class="cls-72" d="M63.3,44.9a.4.4,0,0,0,0-.7c1.5-1.8,3.8-2,5.8-2.8.4-.1,1,.6,1.6.9v6.5c-.3,3.2-.6,6.4-.8,9.6a8,8,0,0,1-.3,2.3,1,1,0,0,1-1.8-.1c-1.5-2.5-.5-5.2-.8-7.9V49.2a10.1,10.1,0,0,0-.3-2.5c-.1-.5,0-.7.4-.6H67c-.7.1-.4.6-.4.9a12.9,12.9,0,0,1,.4,1.9v2.9A60.7,60.7,0,0,1,66.4,63a1.4,1.4,0,0,1-2.2.3V55.6a2.6,2.6,0,0,0,0-2.9Z"/><path class="cls-73" d="M65.8,63.3c.1-4.2.3-8.4.4-12.6.8-.2,1.2.3,1.6.9v9c-1.1.9-.8,2.2-1.1,3.4h-.8c-.2-.2-.3-.3-.3-.5S65.7,63.3,65.8,63.3Z"/><path class="cls-74" d="M64.2,52.7c1,1.5,1,1.5,0,2.9Z"/><path class="cls-74" d="M65.8,63.3a1.9,1.9,0,0,1,.1.8c-.8.4-1.6.5-1.7-.8Z"/><path class="cls-2" d="M233.1,8.6l-.9.9Z"/><path class="cls-75" d="M84.2,71.9c-.2-2.4-.5-4.9-.7-7.4s.8-1.4,1.8-1.2c.4,2.9,1,5.8-.2,8.7h-.9Z"/><path class="cls-76" d="M85.1,72c.1-2.9.2-5.8.2-8.7,1.1.8.8,2,.9,3.1S85.9,69,87,70a8.6,8.6,0,0,1,.2,2.3c0,.5-.5.9-.8,1.3l-1.2-1.2A.6.6,0,0,1,85.1,72Z"/><path class="cls-72" d="M192.9,74.9l.8-2a9.1,9.1,0,0,1,2.3-1.7,3.1,3.1,0,0,1,2.1.3,1.8,1.8,0,0,1,.4,1.7,16.1,16.1,0,0,1-1.7,2.8,2,2,0,0,0-.1,1.3.9.9,0,0,0,.9.3l3.2-.6a2.2,2.2,0,0,0,1.6-2.1,16.4,16.4,0,0,1,.5-3.2,1.5,1.5,0,0,1,1-.9c.6.1,1.4.4,1.5.8a15.7,15.7,0,0,1,.5,3.7c.1.5.1,1,.2,1.5s.3.5.5.6a.8.8,0,0,0,.8-.2,5.5,5.5,0,0,0,1.8-5.1c.9-1.3,2-1.9,3.4-.9.2,2.7.3,5.4.4,8a2.7,2.7,0,0,1-.9,1.5,1.8,1.8,0,0,1-1.3-.3c-1-1.9-1.9-1.3-3.2-.3s-2.6,1.1-3.4,0-2.7-.9-4.1-.3l-.8.5h-.5C194.2,80.3,193.5,79.7,192.9,74.9Z"/><path class="cls-77" d="M211.8,47.8a14,14,0,0,1-1,1.6c-.5.4-1.5.2-1.6-.3s-.2-2.8-.4-4.2-.6-.8-.9-.8a1.1,1.1,0,0,0-1.1.6,28.8,28.8,0,0,0-1.3,3.1c-.6,1.4-.6,1.4-2.9.8V45.9a13.5,13.5,0,0,1,.6-4.1c.5-1.4,2.3,0,3.3-.9l.7-.6H209l1.7,1.1A13,13,0,0,1,211.8,47.8Z"/><path class="cls-78" d="M123.9,78.3a4.6,4.6,0,0,1-1.6-3.3,5.8,5.8,0,0,1,1.7-3.8c.8-.8,1.7-1.4,2.5-2.1,2.6-.3,2.6-.3,2.6-2.1a26.1,26.1,0,0,1,0-2.8c0-.7.1-1.7,1.1-1.7s1.2.6,1.8,1c.2,3.6.4,7.2.5,10.8,0,.7.1,1.7-.3,2.2s-1.4.3-2.1.5l-2.1.9A6.4,6.4,0,0,1,123.9,78.3Z"/><path class="cls-79" d="M298.1,68.1a3.5,3.5,0,0,0-.5-.8h0c.7.1,1.7-.7,1.7.8A.9.9,0,0,1,298.1,68.1Z"/><path class="cls-80" d="M298.1,68.1h1.2a4.1,4.1,0,0,1-.5.9Z"/><path class="cls-81" d="M93.7,44.8c-.1-.3-.1-.5.2-.7s.3-1.4.8-2h.1c.4-.3.8-.6.8-1.2l.9-.9,1.1-.5h1.1l1,.6h0a2.4,2.4,0,0,1-.1,2.8h-.1l-.4.3-.4-.3h-.1c-.6-.8-1.2-.6-1.8,0h0c-.7.6-.6,1.5-.8,2.3v1.1c.4.7.1,1.7,1.1,2.1a.6.6,0,0,1,.6,0l.9-.5c1.3-1.1,3-1.6,3.4-3.6a6.6,6.6,0,0,1,2.4-2.9,3.3,3.3,0,0,1,2.2-.1,2,2,0,0,1,.9,2.5,8.3,8.3,0,0,1-.9,1.6l-1.9,2c1.5,0,2.6-.1,3.6,0a4.8,4.8,0,0,1,1.6.8c-.3.5-.5,1.2-.9,1.5-2.2,1.9-4.4,1.7-6.4-.2s-1.7-.2-2.5.2a1.7,1.7,0,0,0-1.3.8h0a3.2,3.2,0,0,1-3,0h0a1.3,1.3,0,0,0-1-.9h0a4.1,4.1,0,0,0-.7-1.1.5.5,0,0,1-.2-.8A3.5,3.5,0,0,1,93.7,44.8Z"/><path class="cls-16" d="M95.7,50.9h3a1.4,1.4,0,0,0-.2.7C97.6,51.5,96.4,52.1,95.7,50.9Z"/><path class="cls-16" d="M93.7,44.8c0,1.1.1,2.2.1,3.3l-.7-.3a21.7,21.7,0,0,0-.1-2.6Z"/><path class="cls-16" d="M94,48.9l.7,1.1Z"/><path class="cls-16" d="M94.7,50l1,.9Z"/><path class="cls-82" d="M104.3,1.8a27,27,0,0,0,9.5,10.9l1,.8c0,.2.1.3.1.5.4,1.9.3,2-1.7,2.2a7.4,7.4,0,0,1-4.4-2.2l-1-.9-.5-.4c-1.5-1.5-3.3-2.8-3.7-5.2a.9.9,0,0,0-.3-.7"/><path class="cls-83" d="M109.1,13.4c1.4.9,2.8,1.8,4.1,2.8l-1.3,1.2a.8.8,0,0,1-.9,0l-.3-.2h-.4a1.7,1.7,0,0,1-1.4.3c-1.8-1.4-3.3-2.9-.8-5h.1A1.8,1.8,0,0,1,109.1,13.4Z"/><path class="cls-84" d="M111,17.4h.9l-.6.8A1.1,1.1,0,0,1,111,17.4Z"/><path class="cls-85" d="M58.4,32.6l-1.1.9C53.2,29,49.9,24,45.7,19.7c-1.3-1.3-2.5-2.8-2.3-5s3.2-1,4.3-2.4h0a1.1,1.1,0,0,1,1.1,0,41,41,0,0,1,3.7,4.8,12.3,12.3,0,0,0,5,4.6c2.5,3.5,3.8.1,5.5-1,1.7.7,2.3,2.2,2.7,3.8a3.3,3.3,0,0,1-.1,1.4c-1.1,2.3-2.1,4.5-5.6,3.7S60.3,32.3,58.4,32.6Z"/><path class="cls-86" d="M108.1,12.6c-1,1.8.2,3.2.9,4.8s.4.4.2.5a.5.5,0,0,1-.4.2l-7.1,2.1c-1.5.1-3.4-.7-4,1.6l-1,.2c-1.4.9-2.5.2-3.1-1s.6-2.9,1.8-4l.9-.9c2.6-3.6-.1-5.1-2.6-6.7,3.2-1.2,6.4-2.2,9.9-1.9Z"/><path class="cls-87" d="M82.6,27,70.7,31.3c-.9-.5-2.3.4-3-1s2.5-1.7,3.9-2.3c3.8-.7,4.1-3.1,3-6.2-.2-.8-.1-1.8-1.2-2.1l-1-.2a4.1,4.1,0,0,1-1.7-1.2l-.7-.7-.2-.5c4.8-2.7,10.2-3.6,15.4-4.8-.8,2.5.7,4.5,1.3,6.7-.4,6.3-5,2.8-7.9,3.3-.4.2-.9-.5-.9-.3s.5.3.8.5C80.6,23.3,81.4,25.3,82.6,27Z"/><path class="cls-88" d="M86.2,19.1c-.2-.4-.2-1.1-.5-1.2-2.4-1-2.9-2.6-1.4-4.5l.9-1.1,8.5-2.9,3.3.2a1.5,1.5,0,0,1,1.5,1.9,24.3,24.3,0,0,0,0,2.7,2.7,2.7,0,0,1-1.8,3c-1.8-3.1-3.5-6.4-8.1-3.2,1.7,3.6,6.1.6,8.1,3.2l-1.8,1.5c-1.2,1.1-1,2,.5,3a6.1,6.1,0,0,0,1.3.3l-8.5,3C88.9,22.6,87,21,86.2,19.1Z"/><path class="cls-89" d="M44.1,14.3c.6,2.8,2.3,4.9,4.1,6.9l8.7,10a2.4,2.4,0,0,1,.4,2.3H55.5l-3.7-3c-1.8-2.2-3.4-4.5-5.3-6.6s-4.1-4.9-4.9-8a18.8,18.8,0,0,1-.5-4.7c0-1.2,1-1.5,2-.7s.3,1.4.7,2h0C44.6,13,44.4,13.7,44.1,14.3Z"/><path class="cls-90" d="M19.2,22.8A1.1,1.1,0,0,0,19,22c0-3.1,1.8-4.4,4.6-4.8a26.3,26.3,0,0,0,7.9-4.7l1.1-.8,4.2-3.1a8.3,8.3,0,0,1,1.6-.9,1.3,1.3,0,0,1,1.2.5,1.3,1.3,0,0,1-.1,1.2l-7.8,6.1c-1.2.8-2.5,1.4-3.7,2.1l-7,4.8A5.3,5.3,0,0,1,19.2,22.8Z"/><path class="cls-91" d="M63.1,21c-1.4.9-.2,2-.2,2.9a1.1,1.1,0,0,1-1.6,1l-2.9-1.2c-.9-.4-.9-1.2-.9-2s2.8.7,3.9-.8a4,4,0,0,1,3.6-2,1.1,1.1,0,0,1,.3,1.1A2.3,2.3,0,0,1,63.1,21Z"/><path class="cls-92" d="M65,20.1V18.9c1.5-.9,3-1.9,4.8-1.8v.3C69.1,19.9,67.6,21,65,20.1Z"/><path class="cls-93" d="M44.1,14.3l-.3-1.8c1.3-1.1,2.6-.2,3.9-.2-.3,1-.8,1.6-1.9,1.5S44.7,14.2,44.1,14.3Z"/><path class="cls-93" d="M43.8,12.5a15.9,15.9,0,0,0-.7-2C44.1,10.9,44.2,11.6,43.8,12.5Z"/><path class="cls-93" d="M48.8,12.3H47.7C48.1,11.5,48.5,11.6,48.8,12.3Z"/><path class="cls-94" d="M23.6,17.2C22,18.7,19.9,19.8,19,22l-.4-.2A7.3,7.3,0,0,1,13,17.1h.1c.5-.1.8-.6,1-1l1.4-1.2c4-2.6,4.7-2.5,7.6,1.4Z"/><path class="cls-35" d="M14.1,16.1a4.7,4.7,0,0,0-1,1A4.7,4.7,0,0,1,14.1,16.1Z"/><path class="cls-95" d="M136.2,64.3l.9-2.5c.1-.2.6-.3.8-.3s.7.4.7.5a11.2,11.2,0,0,1-.4,3.2,1.7,1.7,0,0,1-1.2,1c-.8-.1-.7-.8-.8-1.5v-.4Z"/><path class="cls-16" d="M96.8,43.1c.2-.8.5-1.4,1.4-1.2s.3.8.4,1.2Z"/><path class="cls-16" d="M99.6,43c0-1,.1-1.9.1-2.8C100.8,41.5,100.8,41.5,99.6,43Z"/><path class="cls-16" d="M94.7,42.1a16.7,16.7,0,0,1-.8,2c0-.6.1-1.2.1-1.8Z"/><path class="cls-16" d="M96,45.5a1.7,1.7,0,0,1,.8-2.3A15.5,15.5,0,0,0,96,45.5Z"/><path class="cls-16" d="M97,48.7c-1.2-.3-1.2-1.1-1.1-2.1Z"/><path class="cls-16" d="M97.6,39.5l-1.1.5Z"/><path class="cls-16" d="M99.7,40.1l-1-.6Z"/><path class="cls-16" d="M95.6,40.9l-.8,1.2Z"/><path class="cls-16" d="M98.7,43.1a2.2,2.2,0,0,1,.8,0,2.1,2.1,0,0,0-.4.6Z"/><path class="cls-16" d="M98.5,48.2l-.9.5Z"/><path class="cls-16" d="M98.7,50.8,100,50Z"/><path class="cls-96" d="M98.3,35.3l.9-4.1a1,1,0,0,1,.7-.4c.2,0,.6.3.6.4s.1,2.8.1,4.2Z"/><path class="cls-91" d="M58.4,32.6a20.7,20.7,0,0,1-1.5-3.4,1.7,1.7,0,0,1,.5-1.6,1.8,1.8,0,0,1,1.6-.1c3.1,1.9,3.1,1.9,5.1-.7l1-1c1.2,1.2,1.1,3,2,4.4s-.9,1.6-1.1,2.4a3.2,3.2,0,0,1-2.8.9C61.8,32.2,60.1,32.4,58.4,32.6Z"/><path class="cls-97" d="M251.7,45.5l-2.1,1.2a1.7,1.7,0,0,1-.6-1c0-.7,0-1.7,1.1-1.6S250.9,44.8,251.7,45.5Z"/><path class="cls-98" d="M258.9,6.6a19.5,19.5,0,0,0-1.7,2.3,1.4,1.4,0,0,0-.2-.6.9.9,0,0,1-.6-.6l-.5-.2c.1-.5.3-1.1.4-1.7"/><path class="cls-99" d="M256.4,7.7a.9.9,0,0,1,.6.6C256.1,8.7,256.4,8.1,256.4,7.7Z"/><path class="cls-100" d="M212.5,12.6c1.8,3,1.6,6.8-.4,8.8a1.1,1.1,0,0,1-1.6-.4,3.3,3.3,0,0,1-.4-1.3A9.8,9.8,0,0,1,212.5,12.6Z"/><path class="cls-37" d="M5.6,33.5a12.9,12.9,0,0,1,.7-2.1l2.1-3.7a6.5,6.5,0,0,1,4.8-1.5c1,.1,1.4.9,1.9,1.6v1.9c-.4.9-3.5.8-1.7,2.1s1.4,3.9,2.5,5.6l.2,4.6c.2,5.1,1.4,10.3-1.2,15.3-.9,1.9-.1,4,.4,6s1.5,3.9,1.1,6a1.9,1.9,0,0,1-.7,1.4l-.7.3c-.5-.3-1.4-.4-1.6-.9A16,16,0,0,0,8,63.3a6.2,6.2,0,0,1-1.4-1.4c-.3-.6-.8-1.5-.6-2.1s1.1-.4,1.8-.2,1.4-.3,2.1-.5,1.1-.4,1.1-.6c.2-2,1.9-4,.2-5.9S10,51,10.9,50s-.6-.7-.9-.8l-3.2-.4c-1-.2-1.1-1.1-1.2-1.9s3.2-1.5,4.3-3.5C12.8,38,8.3,36.3,5.6,33.5Z"/><path class="cls-101" d="M16.1,70a8.1,8.1,0,0,0-1.3-4.9,11.8,11.8,0,0,1-1.6-7.2c.1-1.2.3-2.3,1.3-2.9s1.7-2.2,1.6-3.7a48.2,48.2,0,0,1,.1-9.3,30.1,30.1,0,0,1,.7,3.2c.1,11.8.1,23.6.2,35.4a2.9,2.9,0,0,1-.2.9l-.8-.9c0-1.6,0-3.2-.1-4.8a4,4,0,0,1-.4-4.3A2.7,2.7,0,0,1,16.1,70Z"/><path class="cls-102" d="M16,37.4c-.8-.2-1.5-.3-1.5-1.4s.3-1.6-.1-2.1-1.3-.6-2-.9l-.7-.4a2.7,2.7,0,0,1,0-.9c.9-2.4.9-2.4,3.5-2C16.3,32.2,16.1,34.8,16,37.4Z"/><path class="cls-103" d="M15.1,27.8l-1.9-1a2.1,2.1,0,0,1-.9-2c-.1-.5-.3-1.4-.1-1.5s1.4-.1,1.8.6l1.1,1.9Z"/><path class="cls-104" d="M5.6,33.5a6.3,6.3,0,0,1,4.2,2.1,6.2,6.2,0,0,0,2.5,2c.3.1.5,1.2.4,1.6s-2.1,3.4-1.9,5.7a2.1,2.1,0,0,1-2.3,2H5.6a10.9,10.9,0,0,0-.1-1.8v-1c0-.3.1-.7.1-1a2.6,2.6,0,0,0,.1-2.9Z"/><path class="cls-105" d="M16,71v4.8c-2.3-.3-2.5-2.6-3.7-3.9,1,0,2.2.2,2.8-.9h0A.6.6,0,0,1,16,71Z"/><path class="cls-106" d="M12.3,24.8l.9,2-4.8.9C8.7,25.3,10.6,25.3,12.3,24.8Z"/><path class="cls-37" d="M5.7,40.2a1.7,1.7,0,0,1-.1,2.9C5.6,42.2,5.6,41.2,5.7,40.2Z"/><path class="cls-107" d="M182.3,13.5v2.4a2,2,0,0,1-1.7,2l-3.9.5c.1-2.1,1.4-3.4,2.1-4.8s1.6-2.7,2.4-4.1C183.9,10.2,182.4,12.1,182.3,13.5Z"/><path class="cls-108" d="M182.3,13.5a11,11,0,0,0-.2-2.6c-.1-.5-.6-.9-.9-1.4a11.1,11.1,0,0,1,.7-1.6,1.3,1.3,0,0,1,.7-.4c.2,0,.5.4.5.5C182.9,9.9,182.6,11.7,182.3,13.5Z"/><path class="cls-70" d="M143.7,45.1l-.9-1.9C143.7,43.6,144.1,44.1,143.7,45.1Z"/><path class="cls-109" d="M86.2,19.1a6.7,6.7,0,0,0,1.2.6c1.1.5,1.4,1.5,1.9,2.5s-1,1.8-1.1,2.8l-5.6,2c-1.4-.3-3.3,0-2.9-2.5.1-.2-.6-.5-1-.7s-1.1-1-1.2-1.8h0c2.5-2.3,4.7-1.2,7,1.1.2-1.4.1-2.3.3-3.2S85.7,19.4,86.2,19.1Z"/><path class="cls-110" d="M97.7,21.8c0-.2-.1-.3-.1-.5s-.9-1.7.2-2.5,1.9.1,2.7.7l1.2.7Z"/><path class="cls-111" d="M66,32.6a1.8,1.8,0,0,1,.2-1l.9-.9a.5.5,0,0,1,.8-.1l2.8.7-1.9.6-.6.3Z"/><path class="cls-84" d="M108.8,18.1a2.5,2.5,0,0,0,.2-.7h1.3Z"/><polygon class="cls-91" points="68.2 32.2 68.4 31.8 68.8 31.9 68.6 32.2 68.2 32.2"/><path class="cls-112" d="M276.7,79.2c-.2-.2-.5-.4-.5-.6a2,2,0,0,1,1.5-2.5,1,1,0,0,1,.7.4C278.9,77.7,277.8,79.3,276.7,79.2Z"/><path class="cls-113" d="M296.1,42a5.3,5.3,0,0,1,1.6.4c.6.3,1.5.7,1.2,1.7a1.1,1.1,0,0,1-1.8.7,3.2,3.2,0,0,0-.9-.3c-.6-.2-1.8.4-1.5-1S295.6,42.5,296.1,42Z"/><path class="cls-114" d="M292.1,76.4c-.1.3-.1.7-.3.8a5.4,5.4,0,0,1-1.6,1c-.8.3-1.7.3-2-.6a8.3,8.3,0,0,1,.1-2.7c0-.1.2-.2.3-.2S291.9,75.2,292.1,76.4Z"/><path class="cls-115" d="M232.9,13.3c.6-.7,1.1-1.5,1.7-2.1a2.3,2.3,0,0,1,1.2-.2c0,.5.1,1.2-.1,1.5a24,24,0,0,1-2.6,1.8.7.7,0,0,1-.4-.6C232.8,13.4,232.8,13.3,232.9,13.3Z"/><path class="cls-116" d="M232.9,13.3c.1.3.1.7.2,1l-.6.6c-.1-.3-.3-.5-.3-.7Z"/><path class="cls-117" d="M246.2,12.5h.6a7.7,7.7,0,0,1,3.4,4.5,2,2,0,0,1-.3,1.7,10.4,10.4,0,0,1-2.5,2.2.9.9,0,0,1-1.3-.7c-.2-2.3-.4-4.5-.5-6.7C245.6,13.1,246,12.8,246.2,12.5Z"/><path class="cls-118" d="M325.8,42.2a7.1,7.1,0,0,1-1,1.4,5,5,0,0,1-1.7.2.4.4,0,0,1-.4-.3c.1-.4.1-1,.4-1.2a5.7,5.7,0,0,1,1.9-1C325.1,41.3,325.4,41.8,325.8,42.2Z"/><path class="cls-119" d="M180.3,45.6c-.4.1-.8.4-1.1.4s-.4-.5-.6-.8l1.1-.4C179.9,44.8,180.1,45.2,180.3,45.6Z"/><path class="cls-120" d="M139.5,47.7c-.3-.3-.7-.4-.7-.6s0-1.1.3-1.3a3.8,3.8,0,0,1,1.6-.5c-.1.5.1,1.1-.1,1.6S139.8,47.4,139.5,47.7Z"/><path class="cls-121" d="M100.4,64.3a5.3,5.3,0,0,0-.7,2,28.8,28.8,0,0,0-.2,4.1,11.2,11.2,0,0,1-.5-6.3c0-.2.6-.4,1-.5S100.3,64.1,100.4,64.3Z"/><path class="cls-122" d="M67.8,51.6l-1.6-.9c-.1-.9-.1-1.8-.2-2.7s1.3-.7,1.9,0Z"/><path class="cls-74" d="M67.9,48H66V46c.5-.5.8-.4,1,.3Z"/><path class="cls-123" d="M67,46.3,66,46c.1-.6.4-1.1,1.2-.8A7.5,7.5,0,0,0,67,46.3Z"/><path class="cls-124" d="M129.5,72.6a3.1,3.1,0,0,1-3.4,3.3,2,2,0,0,1-.7-.6c-.3-1.5,1.5-3.4,3.2-3.3S129.2,72.4,129.5,72.6Z"/><path class="cls-86" d="M109.1,13.4l-.9-.8Z"/><path class="cls-125" d="M65,20.1c2.1-.1,3.2-1.8,4.8-2.7h1c.9.2-.1,2.7,1.9,1.7h0c1.5-.9,2.2-.3,2.4,1.2a5,5,0,0,1-.4,1.3c-2.9,2.2-4.9,6.9-9.6,3.3l-2-3.9Z"/><path class="cls-92" d="M65.1,24.9a12.2,12.2,0,0,1,2.7.1c1,.2,1.8.3,2.4-.7S73,21.8,74.7,21c1.9,3.7-1.3,5.4-2.9,7.7l-1.9,1-2,.9h-.8c-1.2-.2-2-.7-2-2.1V24.9Z"/><path class="cls-126" d="M71.8,28.7c0-1.7-.3-3.4,2-4.2s.7-2.2.9-3.5h0q.5-.6.9,0c.3,1.2.7,2.4.9,3.6s-.2,3-2,3.6A8.6,8.6,0,0,1,71.8,28.7Z"/><path class="cls-92" d="M72.7,19.1a1.3,1.3,0,0,1-.2.9c-.5.7-1.2.8-1.4.1a24.8,24.8,0,0,1-.3-2.7Z"/><path class="cls-92" d="M75.6,21h-.9a1.9,1.9,0,0,0-2-1.9c2-1.2,2.5-1,2.9,1.1Z"/><path class="cls-109" d="M77.5,22l-.4-.2.4.2Z"/><path class="cls-127" d="M96.7,17.2c-1.8.5-3.7-1.1-5.4.5A17.4,17.4,0,0,1,88,15.9c-.7-.6-.9-1.8-1.4-2.9l7.6-2.2c1.4,1.9,2.6,3.9,2.5,6.4Z"/><path class="cls-33" d="M16,71h-.9a9.4,9.4,0,0,1,1-1A3.1,3.1,0,0,1,16,71Z"/></g></g></svg>