<svg xmlns="http://www.w3.org/2000/svg" viewBox="0 0 260.8 110.1"><defs><style>.cls-1{fill:#fff;}.cls-2{fill:#fefefe;}.cls-3{fill:#eb6e6f;}.cls-4{fill:#efd3d5;}.cls-5{fill:#292626;}.cls-6{fill:#201c1c;}.cls-7{fill:#030203;}.cls-8{fill:#040303;}.cls-9{fill:#060404;}.cls-10{fill:#ec6e6f;}.cls-11{fill:#eb6f71;}.cls-12{fill:#242424;}.cls-13{fill:#171212;}.cls-14{fill:#252121;}.cls-15{fill:#383636;}.cls-16{fill:#f4cccc;}.cls-17{fill:#eb6f70;}.cls-18{fill:#eb7071;}.cls-19{fill:#eb7273;}.cls-20{fill:#eb7172;}.cls-21{fill:#eb7173;}.cls-22{fill:#eb8789;}.cls-23{fill:#f3d6d5;}.cls-24{fill:#f0babc;}.cls-25{fill:#ec999a;}.cls-26{fill:#eea0a1;}.cls-27{fill:#e0dadb;}.cls-28{fill:#0d0b0b;}.cls-29{fill:#eda5a6;}.cls-30{fill:#ea9698;}.cls-31{fill:#efb4b7;}.cls-32{fill:#637373;}.cls-33{fill:#141212;}.cls-34{fill:#151212;}.cls-35{fill:#2f1d1d;}.cls-36{fill:#abaeae;}.cls-37{fill:#340909;}.cls-38{fill:#f2cacc;}.cls-39{fill:#ec888a;}.cls-40{fill:#e97f81;}.cls-41{fill:#eeb8ba;}.cls-42{fill:#0c0b0b;}.cls-43{fill:#f1c6c8;}.cls-44{fill:#f4dadb;}.cls-45{fill:#e98789;}.cls-46{fill:#eca0a1;}.cls-47{fill:#e19ea0;}.cls-48{fill:#e7aaac;}.cls-49{fill:#e29192;}.cls-50{fill:#ebafb2;}.cls-51{fill:#e7787a;}.cls-52{fill:#e4b3b4;}.cls-53{fill:#c8dada;}.cls-54{fill:#cb9d9e;}.cls-55{fill:#d8a0a2;}.cls-56{fill:#d89ea0;}.cls-57{fill:#f1c0c2;}.cls-58{fill:#e1bbbb;}.cls-59{fill:#be9a9d;}.cls-60{fill:#8e6f72;}.cls-61{fill:#c08f91;}.cls-62{fill:#e0dcdb;}.cls-63{fill:#ccccd0;}.cls-64{fill:#d5c1bf;}.cls-65{fill:#143c3b;}.cls-66{fill:#abadae;}.cls-67{fill:#d1c7cb;}.cls-68{fill:#cd9da0;}.cls-69{fill:#d0c3c6;}.cls-70{fill:#343f3e;}.cls-71{fill:#536f6f;}.cls-72{fill:#a7d4d5;}.cls-73{fill:#dc999a;}.cls-74{fill:#cccaca;}.cls-75{fill:#797a7a;}.cls-76{fill:#d8cfd0;}.cls-77{fill:#e98b8c;}.cls-78{fill:#e9999a;}.cls-79{fill:#e1bec0;}.cls-80{fill:#df8889;}.cls-81{fill:#e6b5b7;}.cls-82{fill:#d6b9bb;}.cls-83{fill:#dec5c7;}.cls-84{fill:#d7d6d6;}.cls-85{fill:#e0e8e8;}.cls-86{fill:#e9b1b2;}.cls-87{fill:#f2e8e8;}.cls-88{fill:#dedddd;}.cls-89{fill:#738585;}.cls-90{fill:#435050;}.cls-91{fill:#d8e0e0;}.cls-92{fill:#cebabc;}.cls-93{fill:#d49596;}.cls-94{fill:#e58385;}.cls-95{fill:#e87c7e;}.cls-96{fill:#d7a2a4;}.cls-97{fill:#c8d1d1;}.cls-98{fill:#b2cece;}.cls-99{fill:#df9698;}.cls-100{fill:#e9d8d9;}.cls-101{fill:#daefef;}.cls-102{fill:#7f7c7d;}.cls-103{fill:#e4f5f5;}.cls-104{fill:#d87577;}.cls-105{fill:#dd8688;}.cls-106{fill:#c0a5a5;}.cls-107{fill:#555454;}.cls-108{fill:#e9c5c9;}.cls-109{fill:#a09a9a;}.cls-110{fill:#cd8f90;}.cls-111{fill:#f0a3a7;}.cls-112{fill:#1f1a1a;}.cls-113{fill:#1b1616;}.cls-114{fill:#ededed;}.cls-115{fill:#f6d7d9;}.cls-116{fill:#191616;}.cls-117{fill:#2b2626;}.cls-118{fill:#7e8585;}.cls-119{fill:#ed9697;}.cls-120{fill:#efb5b8;}.cls-121{fill:#9e7777;}.cls-122{fill:#ec9394;}.cls-123{fill:#f5fafa;}.cls-124{fill:#adc6c6;}.cls-125{fill:#f3d1d3;}.cls-126{fill:#f0dcdc;}.cls-127{fill:#e6c1c5;}.cls-128{fill:#e7f8f8;}.cls-129{fill:#9f6969;}.cls-130{fill:#b4e6e6;}</style></defs><title>conserverhumanite</title><g id="Layer_2" data-name="Layer 2"><g id="pourconserverhumanite-seul"><path class="cls-1" d="M116,7.5l6.9,2.4a1.5,1.5,0,0,0,2-.6,2.5,2.5,0,0,0,.1-1.7,18,18,0,0,0-1.1-2c2.3,1,2.7,1.6,2.5,3.2a2.3,2.3,0,0,1-2,2.3,11.8,11.8,0,0,1-4.2-.2c-2-.7-3.6-.7-4.9,1.3s-9.8,1.1-11,.9,6-1.4,5.9-2.8l.3-.3a1,1,0,0,1,.9-.2h.8a1.1,1.1,0,0,0,1-.1l.6-.8A3.4,3.4,0,0,1,116,7.5Z"/><path class="cls-1" d="M51.3,13.2c-.7.3-1.4,1-2,.9s-3.8-.9-5.9-.2-3-.4-4.6-.7c0-.2,7.9-.5,7.8-.7a2.4,2.4,0,0,1,1-1,21.5,21.5,0,0,1,8-.2,9.7,9.7,0,0,1,3.3,1.4C59,12.9,51.2,13,51.3,13.2Z"/><path class="cls-1" d="M35.3,10.3l-4.6-.9C28.2,8.9,28,8.7,27.6,6V4.6a.9.9,0,0,1,1.2-.1c1,3.3,5,2.2,6.7,4.6,0,.2.1.4.1.6Z"/><path class="cls-1" d="M135.2,10.3c-1.3,2.3-11.3,3.5-13.8,3.9C122.8,12.1,132.8,11,135.2,10.3Z"/><path class="cls-1" d="M38.8,13.2a7,7,0,0,1-7.6,0c.1-.1,8.3-.3,8.4-.5a3.3,3.3,0,0,1,1.3-.4,12.9,12.9,0,0,1,4.8.1C46.1,12.6,38.5,12.9,38.8,13.2Z"/><path class="cls-1" d="M68,8.4c-1.2,1.8-2.4,3.6-4.8,3.9l-.4-.5a2.3,2.3,0,0,1,.3-1.1,7.5,7.5,0,0,1,1.5-1.6A6.9,6.9,0,0,1,65.9,8L67,7.8l.5.2Z"/><path class="cls-1" d="M171.6.7h5.8A4.3,4.3,0,0,1,171.6.7Z"/><path class="cls-1" d="M63.2,12.3c-1.1,1.4-10.6.8-11.9.9s7.7-.8,8-1.2a3.2,3.2,0,0,1,2.7-.5A4.2,4.2,0,0,1,63.2,12.3Z"/><path class="cls-1" d="M108.3,7.5l-2.9-2a2.1,2.1,0,0,1,2.6-.4,1.9,1.9,0,0,1,.8,1.1,1.5,1.5,0,0,0-.1.7A2.1,2.1,0,0,0,108.3,7.5Z"/><path class="cls-1" d="M108.3,5.5h-3.9a.9.9,0,0,1,.3-1.3C106.2,3.7,107.8,3.1,108.3,5.5Z"/><path class="cls-1" d="M104.4,4.6v.9c-1,0-2.2.2-2.8-.9l.3-.4a2.3,2.3,0,0,1,1.1-.3A1.5,1.5,0,0,1,104.4,4.6Z"/><path class="cls-1" d="M178.4.7c.6-.9,1.2-.9,1.9,0Z"/><path class="cls-1" d="M109.2,9.4l-.9-1.9a.7.7,0,0,1,1-.3,2.7,2.7,0,0,1,.5,1.1c-.1.2-.1.4-.2.6Z"/><path class="cls-1" d="M69.9,7.5,68,8.4a.7.7,0,0,1-.4-.6.6.6,0,0,1,.1-.4,2.2,2.2,0,0,1,1.1-.5l.6.2Z"/><path class="cls-1" d="M31.2,13.2c-.7-.3,6.7-.6,6-.9l.5-.4a1.7,1.7,0,0,1,1.7.3C39.6,12.6,31.5,12.9,31.2,13.2Z"/><path class="cls-1" d="M36.3,11.3l-1-1,.5-.4.5.3a1.4,1.4,0,0,1,.2.6Z"/><path class="cls-1" d="M110.2,10.3l-1-.9.5-.4.6.2A.8.8,0,0,1,110.2,10.3Z"/><path class="cls-1" d="M70.8,6.5l-.9,1L69.5,7c.1-.2.1-.4.2-.6l.6-.2Z"/><path class="cls-1" d="M71.8,5.5a4.7,4.7,0,0,1-1,1,.9.9,0,0,1-.3-.7c.1-.2.1-.3.2-.3l.5-.2Z"/><path class="cls-1" d="M72.8,4.6l-1,.9q-.5-.3-.3-.6a.6.6,0,0,1,.1-.4l.6-.2Z"/><path class="cls-1" d="M37.2,12.3l-.9-1a.8.8,0,0,1,1.1-.1A.8.8,0,0,1,37.2,12.3Z"/><path class="cls-1" d="M101.6,4.6l-1-1,.5-.3.6.2a1.4,1.4,0,0,1,.2.6Z"/><path class="cls-1" d="M73.7,3.6l-.9,1-.4-.5a1.4,1.4,0,0,1,.2-.6l.6-.2Z"/><path class="cls-1" d="M110.2,9.4l1,.9h-1Z"/><path class="cls-1" d="M113.1,10.3h.9l-.9,1c-.2-.2-.3-.4-.2-.6S113,10.3,113.1,10.3Z"/><path class="cls-1" d="M113.1,10.3v1l-1-1Z"/><path class="cls-1" d="M140.8,5.6a4.3,4.3,0,0,0,.2,1.1c.1.5.1,1,.2,1.6C139.7,7.2,139.7,7.2,140.8,5.6Z"/><path class="cls-1" d="M56.4,12.3h2.9c0,.3-8,.6-8,.9S57.1,13.4,56.4,12.3Z"/><path class="cls-1" d="M37.9,13.2c.3-.3,8.6-.6,8.9-.9s-8,.6-8,.9Z"/><path class="cls-1" d="M35.3,9.4l1,.9h-1Z"/><path class="cls-1" d="M39.2,12.3c.3.3-7.4.6-7.1.9h-.9C31.2,12.9,39.2,12.6,39.2,12.3Z"/><path class="cls-1" d="M65.1,9.4l.9-1Z"/><path class="cls-1" d="M67,8.4l1-.9v.9Z"/><path class="cls-1" d="M62.2,12.3l1-1v1Z"/><path class="cls-1" d="M108.3,6.5l.9,1h-.9Z"/><path class="cls-1" d="M101.6,3.6l.9,1h-.9Z"/><path class="cls-1" d="M109.2,8.4l1,1h-1Z"/><path class="cls-1" d="M68.9,7.5a9.4,9.4,0,0,1,1-1v1Z"/><path class="cls-1" d="M36.3,10.3l.9,1h-.9Z"/><path class="cls-1" d="M69.9,6.5l.9-1v1Z"/><path class="cls-1" d="M71.8,4.6l1-1v1Z"/><path class="cls-2" d="M170,46.2c-.9-2.4-1.7-4.8-2.6-7.1a5.4,5.4,0,0,0-.7-1.3c-.2-.3-.8-.9-1-.8s-1,.7-1.1,1.2-.4,2.2-.6,3.3c-.3,3.1-1.2,3.5-4.4,2.7a9,9,0,0,1-4.3-2.8c-.9-1.1-1.9-.8-3-.5a2.5,2.5,0,0,1-.4-2.1c.6-1.4.2-3.6,2.6-3.7s2.2,4.5,4.9,3.9,3.3-3.7,3.8-6c1.5-6.5,4.5-13.1.8-19.8.4-.7,8.7-1.4,9.2-2s1.2-.8,1.4,0-6.4,2.1-4.8,1.9l.3.3c1.8,4.8,1,9.7.5,14.6a78.8,78.8,0,0,0-.5,9.3c1.2-3,1.1-5.1,1.4-7.1s-.2-4.1,2.6-3.4,5.4-.3,5.5,3.7-.9,5-.2,7.7c1.7-.3,1.5-1.6,1.6-2.6.7-5.5,1.6-11,2-16.6.2-3.3,7.3-5.4,4-6.3a2.2,2.2,0,0,1,1.3-3.1c4.4-2.5,3.6-.7,6.5,3.6h3.8c1.2-.8,10.3-1.5,11.3-2.7,3-3.5,7.2-2.8,9,1.5.7,1.7-6.7,3.5-5.6,5.1.4,6-.2,12,.3,19.1-.1-7.2.1-13.2-.2-19.3s8.5-7.9,13.4-7.6h8a12.5,12.5,0,0,0,2.5-.9,1.3,1.3,0,0,1-.3-.7c.1-.3.1-.4.2-.4a1.7,1.7,0,0,1,1.2.1c1,1.1,2.5,1.5,3.6,2.5s-6.5,2-5.8,3c2.7,4.2,2.6,6.1-.7,10a18.8,18.8,0,0,0-1.6,2.3,3,3,0,0,1-3.8.9c-1.7-.9-1-2.5-1-3.9s1.2-3.7,3.5-5.8c-4.9,2.3-6.3,13-4,22.8a1.3,1.3,0,0,1-.3.8,1.1,1.1,0,0,0,0,1.1c.2-.4-.4-.9.2-1.3,2.9-1.1,5.2-3.2,8.4-3.7.6.5,1.4,1.6,1.1,1.9-3.1,3,.2,6.6-1.1,9.7-9.7-4.8-9.7-4.8-17.9,3.8-.9,1-1.5,2.6-3.4,1.9-1.5-2.5.1-4.1,1.6-5.8s1.9-3,.5-4.7-3.3-2.1-4.7-.9c-7.7,7.1-13.9,1.1-20.5-2.1-.2-6.8.5-13.6-.9-20.4-.4-1.5-.2-3.2-1.6-4.3s-1.6,1.5-1.8,2.5c-1.2,6.1-1.4,12.3-2.5,18.4-.3,1.6.8,2.6,1.6,3.8.2,3-1.3,5.1-3.7,6.7C179,47.4,174.5,47.9,170,46.2Z"/><path class="cls-1" d="M244.8.2c2.1.5,3,2.3,3,4.4s.1,2.8-.5,3.7c-1.8,2.7-8.3,5.3-8.1,7.8,0,.6,1,1.2,1.6,1.7l2,1.1c0,2.8-1.6,5.7.8,8.3l.6,1a13,13,0,0,1,.8,1.7,3.7,3.7,0,0,1,.5,1.1,20.6,20.6,0,0,0,1.7,3.3,5,5,0,0,1,.4,1.3,21.5,21.5,0,0,1-3.7,16.7,5.4,5.4,0,0,1-.7,1.3c-.5.7-1.1,1.3-1.7,2l-.9,1c-3.8,1.7-4.6,1.3-4.2-2.5.3-1.9.2-3.8.4-5.7a1.3,1.3,0,0,0,.1-.6,11.4,11.4,0,0,0-.7-3.2,39.8,39.8,0,0,0-2.4-3.3c.3-.3.4-.7.7-.7,2.8-.8,2.8-.8,2.5-3.5a3.8,3.8,0,0,1-.1-1v-.5a3.4,3.4,0,0,0-.6-1.2l-.9-.7c-3-1.3-3.8-3-1.4-5.6.6-.6,1.7-1.1.6-2.2a6.9,6.9,0,0,1-1.3-1.1,3.9,3.9,0,0,1,2.1-3.5,3.1,3.1,0,0,0,1.7-2.7c0-1.5.1-2.9-1-4s5.4-3.3,5-5.4c.1-.2.3-.3.5-.5,2-.9,2.8-2.4,2-4.5s-1.9-.9-2.9-.8-1.7,2.1-1.9,3.5a1.9,1.9,0,0,1-.2.7l-1.2-.2a.6.6,0,0,1-.9,0c-1.1-1.1.1-2.8-1-3.8v-1"/><path class="cls-3" d="M179.4,13.1c.4-.2,8.7-.6,9.2-.8s-5.3-.4-4.9.9a9.5,9.5,0,0,1,.5,3.7c-.3,5-.8,9.9-1.3,14.8-.2,1.7-.4,3.5-.7,5.2a10.3,10.3,0,0,1-1,3.1,1.6,1.6,0,0,1-1.5.9c-.6-.1-1.6-.7-1.7-1.2a20.6,20.6,0,0,1-.1-4.3c.2-2,.5-4.1.6-6.2,0-.2-.7-.8-.8-.8-1.8,1.4-3.2.2-4.9-1.3-.1,1.8-.1,3-.2,4.2s-.5,4.1-.8,6.2-1,2.3-1.9,2.3-1.6-1-1.4-2.6.3-5.1.6-7.6a60.2,60.2,0,0,0,.6-13.4,9.5,9.5,0,0,1,.4-2.8l1.5-.2c3.3,1.6,3.2,5.1,4.4,8,.1.5,1.1-.2.5-.1s-.3,0-.3-.2A9,9,0,0,1,179.4,13.1Z"/><path class="cls-4" d="M48.9,89a2.8,2.8,0,0,0-.1.9.9.9,0,0,1-1.3-.1c-1.4-3.4-.6-7.3-2.1-10.7,0-1.9-.6-3.8-.3-5.7,1-4.1.9-8.3,1.8-12.4a3.3,3.3,0,0,1,1.3-.4l2.1.2A8.2,8.2,0,0,1,54,62.1l1.4,1.4c.7.7,1.5,1.2,1.3,2.3-5.1,3.4-4.8,8.7-4.8,13.9C51.6,83,49.5,85.7,48.9,89Z"/><path class="cls-2" d="M168.1,67.3c-.1-1.8-.2-3.5-.2-5.3a8.2,8.2,0,0,0-1.4-4.9,3.9,3.9,0,0,1,.1-4.5,8.5,8.5,0,0,0,1.4-4.4c.1-.4.8-.8,1.2-1.3a4.9,4.9,0,0,1,.9,4.9c-1,3.2.7,3.5,2.9,2.7,6.1-2.3,10.9.2,15.4,3.8s8,4.8,10.4,9c-.1.2-.1.4-.2.6-3.6-.5-5.6-3.4-8.4-5.1s-4.6-3.3-6.9-4.9-2-.7-3.8,1.3l-.5.5C173.9,60.1,169.6,61.7,168.1,67.3Z"/><path class="cls-1" d="M179.4,13.1c-1,3-2.1,5.9-3.3,9.3a15,15,0,0,1-1.4-1.9c-.6-1.6-1.1-3.3-1.7-4.9a14.9,14.9,0,0,0-1.4-2.4c2.2-1.2,12.6-2,14.4-3.9a6.7,6.7,0,0,1,4.7-2c2.8-.2,5.5,1.1,8.5.5.7-.2,2,.9,2.6,1.8s-7.3,2.3-7,3.6c-1.4,0,6.1-1,5.5-1.9a4.1,4.1,0,0,0-5-1.6,43.5,43.5,0,0,1-5.2.6C187.9,10.4,179.9,10.4,179.4,13.1Z"/><path class="cls-2" d="M143.9,107.2c-.2.4-.2,1.2-.5,1.3-2.5.8-4.9,2.2-7.7,1.3a12.8,12.8,0,0,0-3.3-.6c-1.9,0-2.8-.7-3.1-2.7s-1.3-1-1.9-.4a4.2,4.2,0,0,0-.8,1.2c-.6,2.6-2.6,2.3-4.5,2.3s-3.4-.4-5.1-.4-2.5-.3-3-1.8-1.9-1-2.9-1.2c-2.6-.5-3.5-2.3-2-4.4a39.9,39.9,0,0,0,4-8h.7c2.1,2.7-.3,4.9-.9,7.3s-1.1,2.7,1.3,2.7a8.1,8.1,0,0,1,3,1.3c3.5,2.4,6.4,2,8.7-1.7a8.3,8.3,0,0,1,1.2-1.6c1.7-2.1,2.8-1.3,3.6.9s1.8,4.1,4.4,4.5,3.5.1,5.3-.3a10.1,10.1,0,0,1,3,.1Z"/><path class="cls-1" d="M29.5,67.9A6.2,6.2,0,0,1,24,65.7a16.4,16.4,0,0,0-6.4-4.9,6.9,6.9,0,0,1-2.5-2A42.7,42.7,0,0,1,11.5,55c-1.5-1.7-3.1-2.8-5.4-2.5A5.9,5.9,0,0,1,3.8,52c-2.1-.7-3.2-2-3-4.3,3-.4,5.8,1.1,8.8,1l1.2.5c3.8,4.2,7.7,8.2,12.7,10.9l1.1.8c1.5,1.5,3.5,2.5,4.9,4.1a4.1,4.1,0,0,1,.7,1.1A2.1,2.1,0,0,1,29.5,67.9Z"/><path class="cls-2" d="M85.5,28.2l-4,1.3a1.1,1.1,0,0,1-1.2.2A2.4,2.4,0,0,1,79.1,27a2.8,2.8,0,0,1,.9-1c3.3-2.5-.6-4.6-.4-7l1-.2,1-.5,1.1-.4c1.2-.1,2.1-.9,3.1-1.4s4.5.7,6.7,1.2l1.2.3,1.1.8.2.3c-2.1,5.7-2.1,5.7,3.6,9.2-.5.4-.9,1-1.4,1A4.1,4.1,0,0,1,95,29a3.5,3.5,0,0,0-4.7.3,4.8,4.8,0,0,1-1.6.8c-1.4.5-1.9.2-3.1-1.8,4.2-2,4.2-2,1.6-7.4-1.5.8-.9,2.1-.6,3.2a5.1,5.1,0,0,1,.2,1.3A5.2,5.2,0,0,1,85.5,28.2Z"/><path class="cls-1" d="M213.2,17.1c-2.8-.6-2.8-.6-3.1-2.7s8.1-1.6,7.8-2.3a4.1,4.1,0,0,0-3.6-2.8c-1.5,0-3.2.1-3.6,1.7s-10.4,2.1-12.1,2.2c.7-1.1,9.3-2.3,10.1-3.2a9,9,0,0,1,3-2.1,9.2,9.2,0,0,1,6.9,0,4.4,4.4,0,0,0,4.3,0c1.8-.9,3-.3,3.9,1.4-3.3.4-12.8,2.3-12.8,5.5a19.3,19.3,0,0,0-.1,2.4l-.4.2Z"/><path class="cls-2" d="M74.8,18.9h3.8c.4,2.8-4.9,1.6-3.5,5.2,1.6-.2,2.5-3,4.4-1.5s1.3,2.5.2,3.8h-.2c-2.5,2-4.9,4-8.4,2.8a2.4,2.4,0,0,1-1.1-.6c-.6-.8-.2-1.5.2-2.3l.7-.9a1.7,1.7,0,0,1,.2-.5,1.8,1.8,0,0,0-.5-1.9c-1.2-1.6-2.3-1.3-3.5,0s-.9,1.6-1.6,2.3-3,2.5-4.9.8-1.4-3.4-.1-5.1A12.6,12.6,0,0,1,62.9,19c1.3-.4,2.8-.1,4.2-.8a9.6,9.6,0,0,0,2.4,0l4.2.2A1.8,1.8,0,0,1,74.8,18.9Z"/><path class="cls-2" d="M121.8,18.9l4.4-1.6a1.8,1.8,0,0,1,2.4.9c.8,1.4.9,2.4-.2,3a5.1,5.1,0,0,0-2.9,4.9,2.2,2.2,0,0,1-2.1,2.3c-2.5.3-5,.9-7.4-.4a3.5,3.5,0,0,0-4.3.1c-.9.7-1.8.3-2.2-.8a11.9,11.9,0,0,1,3.4-2.9,2.5,2.5,0,0,1,1.2-.1,21.1,21.1,0,0,1,3.3,1.8,4.9,4.9,0,0,0,5.1-.4c1.4-1.3,1-3.5,2.4-4.8l-.3-.3-.4.2c-1.2.7-1.1,2-1.4,3.1s-2,2.9-4.1,2.5-.1-5.1-3.2-6a4.1,4.1,0,0,1-.7-1.1,1.3,1.3,0,0,1,.9-.9,2.8,2.8,0,0,1,1.3.3l1.9.2a2.4,2.4,0,0,1,.9-.6,2,2,0,0,1,1.1,0A1.5,1.5,0,0,1,121.8,18.9Z"/><path class="cls-2" d="M42.1,38.1h4.8l1.2-.7c2.1-.1,3.5,1.2,4.8,2.6a1.8,1.8,0,0,1-.2,2v6.7a1.6,1.6,0,0,1,.4,1.3c-.5,1.2-1.1,2.3-2.6,1.2s-.2-2.5-.1-3.8-.2-5.3-3-6.4-6.8-.5-9.7,2-2.2,4.3-1.2,6.9a50.8,50.8,0,0,0,2.3,4.7c.6,1.2,1.7,2.6.1,3.8s-2.4.2-3.5-.4a3.4,3.4,0,0,1-2-1.9c1.1-2.4-.8-4.5-1-6.7a28.1,28.1,0,0,1,.1-4.1,24.5,24.5,0,0,1,.2-2.7,4.1,4.1,0,0,1,.7-1.1c2.3-1.9,4.4-3.8,7.6-4A2.4,2.4,0,0,1,42.1,38.1Z"/><path class="cls-2" d="M48.9,89c-.2-3.5,1.4-6.6,1.9-9.9,1.5-1.4,1.4-3.4,1.7-5.3.5-3.7,2.6-6.1,6.3-6.7A37.5,37.5,0,0,0,74.7,60c1-.8,2-1.5,3.5-1.1l.5.4a23.8,23.8,0,0,1-8.5,6.6,31.6,31.6,0,0,1-11.1,3.7c-3,.5-4.4,2.3-4.3,4.8s-1.8,6-2.5,9.1S50.1,87.2,48.9,89Z"/><path class="cls-5" d="M79.7,26.5a26.4,26.4,0,0,0-.2-2.8,1.1,1.1,0,0,0-.8-.9,1.5,1.5,0,0,0-1.1.6c-.6,1.1-.9,2.4-1.5,3.4a2.3,2.3,0,0,1-1.6.6c-.3,0-.7-.5-.8-.9l-.6-4.7c-.1-1.2.5-1.9,2-1.7A5.2,5.2,0,0,0,78.6,19h1c1.2.8,2.6,1.5,2.7,3a21.8,21.8,0,0,1-.1,5.1c0,.2-1,.4-1.5.4S80,26.8,79.7,26.5Z"/><path class="cls-1" d="M80.5,29.5h1l1.9,1.9,2.9,2.9a3.3,3.3,0,0,1-3.3.8,24.7,24.7,0,0,0-6.6-.7h-.7l-1.9,2.9v-2c.2-2.9.3-3-2.6-3.7-1.2-.3-2.1-.6-2.2-2a1.2,1.2,0,0,1,1.4-.2C73.7,30.3,77.2,28.3,80.5,29.5Z"/><path class="cls-2" d="M171.8,79.4a19.3,19.3,0,0,1-11,7c-3.2.8-6.4,1.8-9.6,2.9s-5.5,2.6-5.5,6.3c0,.4-.5.8-.7,1.2l-.6-.5c-.8-4.8.1-6.6,4.4-8.6s9.3-2.9,13.9-4.8c2.9-1.2,5-4.1,8.5-3.9Z"/><path class="cls-2" d="M229.4,87.1a12,12,0,0,1-1.5,6.3,18.4,18.4,0,0,0-2.9,6.9,2.6,2.6,0,0,1-2.7,2.2c-2,.1-4,.1-5.8,1.4a2.2,2.2,0,0,1-1.7-.3,18.1,18.1,0,0,1-1.8-2.1l.4-.5c2.3-1.3,5-.2,7.3-1.2a5.4,5.4,0,0,0,3-3.7c1.9-3,1.9-6.9,5-9.2Z"/><path class="cls-2" d="M29.5,67.9l.3-2c2,.4,1.9,2.2,2.3,3.6,1.3,5.3.9,10.7.7,16a28.7,28.7,0,0,0-.5,4.1,22,22,0,0,1,.5,3.7l-.3.5c-1.9-.2-2.9-1.2-2.8-3.1s-.2-5.9.5-8.9a16.8,16.8,0,0,0,.1-7.4C29.8,72.2,29.8,70,29.5,67.9Z"/><path class="cls-2" d="M87,49.7c1.8,1,1.1,2.3.8,3.7a2.2,2.2,0,0,0,.3,1.6c.5.6,2,.4,2.6-.3s.5-1.8,1.7-2,.9,1.8.4,2.2c-4,3.9-1.3,6.7,1.5,9.5a3.9,3.9,0,0,1,.3,2.6,1.9,1.9,0,0,1-.8,1c-1.2-1.8-2.4-3.7-4.4-4.8a3.7,3.7,0,0,1-2.2-3.7,1.7,1.7,0,0,0-1.9-2.1l-.3-.6A11.1,11.1,0,0,1,87,49.7Z"/><path class="cls-2" d="M179.5,59.2c1.1.8,2.4,1.5,3.5,2.4a4.1,4.1,0,0,1,.9,5.9,8.6,8.6,0,0,1-4,3.3c-.8.3-1.9.9-2.1,1.6-.8,2.9-3,4.4-5.1,6.1l-.4-.5c.5-3.8,2.8-6.7,5.6-8.9s5.4-3.7,1.3-7a1.9,1.9,0,0,1,0-2.6Z"/><path class="cls-2" d="M198.6,91.9a53.8,53.8,0,0,1,2.8-7,20.4,20.4,0,0,0,2-7.2,8.1,8.1,0,0,0-2.4-6.9l-2.4-2.9.2-.3c3.6-.6,4.8,2.1,5.9,4.5,2.6,5.6-.3,16-5.4,19.9Z"/><path class="cls-6" d="M98.6,28.3a5.5,5.5,0,0,1-4-.8c-3-1.7-3.4-4.2-1.4-6.9A13,13,0,0,1,95,19.1a.6.6,0,0,0,.7-.1h.6c2.5,1.6.3,3.9.9,5.8s2.1,1.1,1.6,2.6A3.1,3.1,0,0,0,98.6,28.3Z"/><path class="cls-2" d="M113.1,93.8c-1.4-1.5-2.3-3.8-4.9-4a1.6,1.6,0,0,1-.8-.5c-.7-3-4.4-3.9-5-7.1a18.1,18.1,0,0,0-1.8-3.7l.7-.3c4.8,3.4,8.2,8.1,12.1,12.4a2.4,2.4,0,0,1,0,3Z"/><path class="cls-2" d="M258.1,32.4V45.8c-.4.9-.3,2-.9,2.9l-1.9,2-.5-.6c-.7-1.6-.3-3.1.1-4.6a27.7,27.7,0,0,0,.4-11.8c-.5-3.1-1.3-6.4,1.5-9a1.7,1.7,0,0,1,1.4-.1C258.6,27.2,257,29.8,258.1,32.4Z"/><path class="cls-1" d="M246.6,18.8a16.9,16.9,0,0,1,.1-2.3,3.5,3.5,0,0,1,3.1-3.2,22.6,22.6,0,0,1,5.2,0c1.5.2,2.1,1.3,2.2,2.7-1.5,1.4-3.2-.1-4.8.5l-1.1.4a6.1,6.1,0,0,0-2.1,1.8l-1,.7A1.5,1.5,0,0,1,246.6,18.8Z"/><path class="cls-2" d="M44.1,93.8l-3.3,2.7a3.1,3.1,0,0,1-3,.9c-1.2-.2-2.8.3-3.6-.3S33,95,32.5,93.8h0c3.7-.9,7.3-1.5,11.1-.5Z"/><path class="cls-1" d="M2.7,40c-1.4-1.3-1-2.7-.1-4.1l3-4.5a3.9,3.9,0,0,1,3.9,0,1.7,1.7,0,0,1,.2,1.2l-.3.6-.8,1-.4.5-1,1.4a3.6,3.6,0,0,1-.7,1C5.4,38.2,4.5,39.7,2.7,40Z"/><path class="cls-2" d="M23.9,18.9h1.9c.1.2.1.4.2.6-1.2,3.1-3.7,2-5.6,1.5s-4.3-.3-5.7,1.9a2,2,0,0,1-1.1-1.7,5,5,0,0,1,.5-1.3v-2a2.2,2.2,0,0,1-.1-2.1c1.5-1.7,3-1.7,4.4,0a2,2,0,0,1-.2,2.1,18.6,18.6,0,0,0,2,1,24.3,24.3,0,0,0,2.7,0C23.3,18.4,23.6,18.4,23.9,18.9Z"/><path class="cls-2" d="M10.6,49.4A12.5,12.5,0,0,1,.8,47.7V44.8c-.5-1.2.3-2,1-2.8l.9-1.1.5.4c.7,2.9,1.1,6.1,5.5,5.8C9.7,47,10.6,48,10.6,49.4Z"/><path class="cls-2" d="M210.1,89c0-1.4,0-2.9-.1-4.3s-.5-.6-.8-1a7.6,7.6,0,0,0-.9.9,24.8,24.8,0,0,0-1.9,2.6l-.5-.4a3.9,3.9,0,0,1,.4-4.3l1-1.7.8-1a2.3,2.3,0,0,1,1.8-.8,3.7,3.7,0,0,1,1.2.7c1.6,2.4,1.2,5.1.9,7.7a2.3,2.3,0,0,1-1.2,1.7Z"/><path class="cls-1" d="M14.1,19.9v.9a4.6,4.6,0,0,0-1.3,4.7v1.3c-.7,1.9.8,4.5-1.6,6a1.7,1.7,0,0,1-1.8-.4c-1-1.5-2.5-.9-3.9-1,.8-1.1,2-.9,3.1-1a1.9,1.9,0,0,0,1.7-2c0-1.6,0-3.2.1-4.8S10.8,20.5,14.1,19.9Z"/><path class="cls-2" d="M252.4,55.4c.3,2-.9,3.4-1.9,4.7s-4.2,5.6-7.6,6.9a2.1,2.1,0,0,1-.4-.6,47.4,47.4,0,0,1,9.3-11.2Z"/><path class="cls-1" d="M33.5,44.8v4.8c-2.2.4-3.7-.7-5-2.2s.1-.4.2-.6c2.6-.5,2.9-.5,2.8-2.3s1.5-4.9,3.9-6.4c1.3,2.3-.9,2.8-1.9,3.9A2.1,2.1,0,0,0,33.5,44.8Z"/><path class="cls-1" d="M33.5,42c.5-1.4,2.1-2.2,1.9-3.9a5.8,5.8,0,0,1,1.9-1.9,2.3,2.3,0,0,1,2.9,0h1a1.3,1.3,0,0,1,0,1.9c-2.1.9-4.4,1.5-6,3.3S34.1,41.8,33.5,42Z"/><path class="cls-1" d="M117,18.7h-1l-1-.4h-.5a7.6,7.6,0,0,0-1.6-.3h-1.6l-2.2-.2-1.1-.4-1-.5-.8-.8a1.3,1.3,0,0,0-.1-.6l.3-.4h6.1C115,15.1,116.5,16.2,117,18.7Z"/><path class="cls-2" d="M246.6,18.8l2,.2c.6,1.1.2,2-.9,2.1-4.6,0-4.7,2.5-3.5,5.9a1.3,1.3,0,0,1-.3,1.3c-1.9-.3-2.3-2-2.8-3.4a4.3,4.3,0,0,1,.4-4.1l1.3-1.9Z"/><path class="cls-1" d="M27.7,29.5c.6.3,1.1.9,1.6.8,3.1-.2,6,.8,9,1.1a2.6,2.6,0,0,1-3,.9c-3.8-1.3-7.6-.8-11.4-.9-.1-.2-.1-.4-.2-.6A3.2,3.2,0,0,1,26,28.9,1.6,1.6,0,0,1,27.7,29.5Z"/><path class="cls-1" d="M14.3,16c-.1.7-.1,1.3-.2,1.9a11.4,11.4,0,0,1-1.5-1.7,2,2,0,0,1,.9-2.5,5.5,5.5,0,0,1,5.4.1,1.9,1.9,0,0,1,.9,2.4,5.2,5.2,0,0,1-1.6,1.7,12.8,12.8,0,0,0-.1-1.9C16.8,14,15.6,14,14.3,16Z"/><path class="cls-1" d="M258.1,32.4c-1.5-1.5-.9-3.3-.7-4.9a13.8,13.8,0,0,1,.8-2.7,1.8,1.8,0,0,1,1.8-1.1c.2.5.7,1.1.6,1.6a3.5,3.5,0,0,1-1.2,1.9c-1.4,1.2-1.4,2.1-.2,3.5S259,32.1,258.1,32.4Z"/><path class="cls-2" d="M100.6,78.5c-3.4-2.2-5-5.9-7.1-9.2-.1-.3.2-.9.3-1.3l.4-.3c3.3,2.8,6.2,5.9,6.7,10.6Z"/><path class="cls-2" d="M242.9,67c-.1.3-.1.7-.3.9-2.6,2.2-4.5,5-7.4,6.8l-.5-.6c.9-4.3,3.5-6.8,7.9-7.4Z"/><path class="cls-1" d="M145.2,12.2c-2.4-.1-12.3.7-13.4,2.9s-1.4,2-3.6.7c-.3-.2-.4-.5-.6-.7,1.4,0,2.8-.2,3.6-1.6s10.1-1.9,11.5-2.2A2.3,2.3,0,0,1,145.2,12.2Z"/><path class="cls-2" d="M208.2,97.7c-1.4-1.3-.9-3.2-1.6-4.7a2.2,2.2,0,0,1,.4-1.3l3.1-2.7h0c1.9,3.1-.7,5.5-1.4,8.2Z"/><path class="cls-1" d="M53.6,22.8c.7-2.6,2.3-4.7,3.9-6.8l.4.5a3.6,3.6,0,0,1,.4,2.5A7.2,7.2,0,0,1,57,21.8,3.8,3.8,0,0,1,54.2,23Z"/><path class="cls-1" d="M38.3,31.4a2.3,2.3,0,0,1,2.5-.9,8,8,0,0,0,6.1-2c-.1,1.9-1.1,2.8-3,2.9Z"/><path class="cls-2" d="M145,96.8c-.1,2.6-.1,5.3-.2,7.9,0,1,0,1.9-.9,2.5h-.2c-1.5-3.7-2.6-7.4,1-10.6Z"/><path class="cls-2" d="M251.6,16.2c.6-1.4,1.7-1.2,2.8-.9a28.6,28.6,0,0,1,2.8.7v.9l-.3.6C254.6,19.1,252.8,19.1,251.6,16.2Z"/><path class="cls-2" d="M204.4,90.9a4.4,4.4,0,0,1-2.7,3.7,2.9,2.9,0,0,1-2.2.3c-.5-.3-.6-1.3-1-2l.6-.3c1.8-.1,3-1.8,4.7-1.9Z"/><path class="cls-2" d="M85.3,57.4a3,3,0,0,1-2.9,1.8H78.7l-.2-.2c1.4-3.4,3.8-3.3,6.6-2Z"/><path class="cls-2" d="M235.2,74.7l-3.9,7.7-.5-.5c-.4-3.5.5-6.2,4-7.5Z"/><path class="cls-1" d="M52.7,40l-2.4-.9-2.4-1c-.7-1.1.4-1.4.9-1.9s.7-.3,1,0h1a6.9,6.9,0,0,1,1.9,1.9A1.4,1.4,0,0,1,52.7,40Z"/><path class="cls-1" d="M73.8,43.9c2.3,1.6,1.4,3.7,1,5.7a1.9,1.9,0,0,1-1.1.7,2.7,2.7,0,0,1-1.3-.2c-.2-.2-.4-.3-.5-.5C74,48.2,73.9,46,73.8,43.9Z"/><path class="cls-1" d="M70,18.9H67.1a2.2,2.2,0,0,1-1.2-1.3,1.4,1.4,0,0,0,.2-.6c1.4,0,2.7.7,4.2.1a2.9,2.9,0,0,1,3.5.9c-.1.1-.3.2-.4.4S71,18.2,70,18.9Z"/><path class="cls-1" d="M158.6,9.3c-1.2,2.3-11.2,3.5-13.8,3.9C146.3,11.1,156.2,9.9,158.6,9.3Z"/><path class="cls-1" d="M22,39.1a3.7,3.7,0,0,0,1.7,3.1l2.1,1.7-.6.5c-4.5-.6-5.1-1.4-4-5.4Z"/><path class="cls-2" d="M2.7,40a8.4,8.4,0,0,1,4-3.7c1.4,3.6-1,4.3-3.7,4.9l-.3-.3Z"/><path class="cls-1" d="M54.6,56.4a22.4,22.4,0,0,0,7.7-1c0,.2.1.5.1.7-2.2,3.3-4.9,3.1-7.9,1A1.7,1.7,0,0,0,54.6,56.4Z"/><path class="cls-1" d="M96.8,18l1.9-1,2.9-1,.5.5a2.5,2.5,0,0,1-.2,2.5,2,2,0,0,1-1.8.5,7.9,7.9,0,0,1-2.9-1.1Z"/><path class="cls-2" d="M213,101.5h-1c-3.3-.3-3.3-.3-3.8-3.8h0c2.2.5,4.2,1.4,4.8,3.9Z"/><path class="cls-2" d="M47.9,90h.9c-.3,2.9-2.1,3.9-4.7,3.9H44a1.3,1.3,0,0,1-.3-.8c.1-.2.1-.3.2-.3S46.2,90.4,47.9,90Z"/><path class="cls-1" d="M49.8,23.7a17.1,17.1,0,0,1,1-6.7c.2.4.8.8.7,1.1C51.1,20,51.2,22.1,49.8,23.7Z"/><path class="cls-1" d="M23.9,31.4a4.3,4.3,0,0,1-1,.9c-1.5.7-1.7,1.6-.9,2.9l-.6.4a1.5,1.5,0,0,1-1.9-.8,3,3,0,0,1,.3-2.9C21,30.7,22.3,30.2,23.9,31.4Z"/><path class="cls-1" d="M53.6,52.5c.4,1.3.7,2.6,1,3.9-2.4,1.1-3.3-.4-4-2.2s1.2-1.8,2.4-1.9Z"/><path class="cls-1" d="M258.1,17c3,.9,3.3,1.6,1.9,3.8a1.6,1.6,0,0,1-.9-.3l-.4-.3-.8-.8-.4-1A1.8,1.8,0,0,1,258.1,17Z"/><path class="cls-2" d="M231.3,82.4c-.1,1.8.2,3.7-1.9,4.7l-.3-.2c-1-2.3-.5-3.9,1.9-4.8Z"/><path class="cls-1" d="M73.8,37.2v6.7C72.5,41.3,72.5,39.8,73.8,37.2Z"/><path class="cls-1" d="M46.9,28.5a4.6,4.6,0,0,1,2.9-4.8C49.6,25.8,48.1,27.1,46.9,28.5Z"/><path class="cls-2" d="M258.8,20.2l1.2.6v2.9l-1.8,1.1-.2-.2C257,22.9,257.8,21.5,258.8,20.2Z"/><path class="cls-2" d="M70,29.5H67.1a1.1,1.1,0,0,1-1.2.2,2.3,2.3,0,0,1-.9-1.8c1.8-1.7,3.3-.6,4.8.4l.3.3A.6.6,0,0,1,70,29.5Z"/><path class="cls-1" d="M119.9,18.9h-1c.3-2.3,2.2-2.5,3.9-2.9a18.6,18.6,0,0,0-1,2,1.8,1.8,0,0,1-1,.4A1.6,1.6,0,0,0,119.9,18.9Z"/><path class="cls-1" d="M40.2,15.1H34.4A4.3,4.3,0,0,1,40.2,15.1Z"/><path class="cls-1" d="M1.8,42c-.3.9-.6,1.9-1,2.8C-.4,43-.4,42.7,1.8,42Z"/><path class="cls-1" d="M66.1,53.5A4.9,4.9,0,0,1,70,51.6c0,.2.1.4.1.7A2.5,2.5,0,0,1,66.7,54Z"/><path class="cls-1" d="M52.7,49.6v-.9c2.3.9,2.4,1.5.9,3.8C52.5,51.8,53.4,50.5,52.7,49.6Z"/><path class="cls-2" d="M206.4,87.2c-.1,1.5-.3,3-2,3.7h-.2c-.7-2-.1-3.3,1.9-3.9Z"/><path class="cls-1" d="M56.5,31.4c-1.7-.7-2-2.2-1.9-3.8l.7-.2a2.9,2.9,0,0,1,1.6,3.4A2.1,2.1,0,0,1,56.5,31.4Z"/><path class="cls-1" d="M257.2,48.7c0-1.1-.2-2.2.9-2.9s1.6-.2,1,.9S257.8,48,257.2,48.7Z"/><path class="cls-2" d="M254.3,52.5a3,3,0,0,1-1.9,2.9h-.2c-.8-1.7,0-2.5,1.5-3Z"/><path class="cls-1" d="M29.6,15.1H25.8C27.6,13.8,27.8,13.8,29.6,15.1Z"/><path class="cls-1" d="M102.6,15.1c1.8-1.3,2-1.3,3.8,0a2.6,2.6,0,0,1-1,.7h-1.2a2.8,2.8,0,0,1-1.2-.4Z"/><path class="cls-1" d="M63.2,33.3c-1.8,1.3-2,1.3-3.8,0l.4-.4a3.2,3.2,0,0,1,3,0Z"/><path class="cls-1" d="M235.4,3.6c1.4,1,.8,2.5,1,3.8C235,6.4,235.5,4.9,235.4,3.6Z"/><path class="cls-1" d="M52.7,40V38.1c1.3,1.9,1.3,2,0,3.9Z"/><path class="cls-1" d="M22,35.2c1.2,1.9,1.2,2,0,3.9C20.8,37.8,21,36.5,22,35.2Z"/><path class="cls-1" d="M25.8,43.9a1.7,1.7,0,0,1,1.9,1.9L27,46C26.1,45.6,25.4,45.1,25.8,43.9Z"/><path class="cls-1" d="M52.7,38.1l-1.9-1.9A1.7,1.7,0,0,1,52.7,38.1Z"/><path class="cls-1" d="M48.8,36.2l-.9,1.9h-1C47,36.9,47.6,36.2,48.8,36.2Z"/><path class="cls-1" d="M37.3,36.2l-1.9,1.9A1.7,1.7,0,0,1,37.3,36.2Z"/><path class="cls-1" d="M40.2,36.2H37.3C38.8,35,38.8,35,40.2,36.2Z"/><path class="cls-1" d="M53.6,25.6c-1.2-1.4-1.2-1.4,0-2.8a2,2,0,0,1,.5,2.4Z"/><path class="cls-1" d="M43.1,15.1c-1.5,1.1-1.5,1.1-2.9,0Z"/><path class="cls-1" d="M25.8,15.1,23.9,17A1.7,1.7,0,0,1,25.8,15.1Z"/><path class="cls-1" d="M127.6,15.1h-2.9C126.1,13.9,126.1,13.9,127.6,15.1Z"/><path class="cls-2" d="M255.3,50.7a16.2,16.2,0,0,1-1,1.8l-.3-.2c-.3-1-.1-1.7,1.1-1.9Z"/><path class="cls-1" d="M82.4,17l2-1,.3.4a1,1,0,0,1-.4.9,1.2,1.2,0,0,1-1,.2h-.5Z"/><path class="cls-1" d="M64.2,54.4l1.9-.9c.4,1.3-.5,1.3-1.4,1.3Z"/><path class="cls-1" d="M62.3,55.4l1.9-1C64.2,56,63.4,56,62.3,55.4Z"/><path class="cls-1" d="M66.1,29.5h1l-1,1.9c-.1-.1-.2-.3-.4-.4A1.4,1.4,0,0,1,66.1,29.5Z"/><path class="cls-1" d="M23.9,18.9h-1l1-1.9Z"/><path class="cls-2" d="M258.1,17v1.9c-1.4.1-1.5-.6-1.2-1.6l.3-.4Z"/><path class="cls-1" d="M59.4,33.3l-1.9-.9L58,32C58.9,32,59.8,32,59.4,33.3Z"/><path class="cls-1" d="M65.2,32.4l-2,.9c-.3-1.3.5-1.3,1.4-1.3Z"/><path class="cls-1" d="M41.2,38.1V36.2l.9,1.9Z"/><path class="cls-1" d="M32.5,15.1c-.6,1-1.3,1-1.9,0Z"/><path class="cls-1" d="M54.6,27.6l-1-2C55.3,25.6,55.2,26.4,54.6,27.6Z"/><path class="cls-1" d="M27.7,45.8l1,1C27.8,47,27.5,46.7,27.7,45.8Z"/><path class="cls-1" d="M70.9,50.6l1-1a.9.9,0,0,1-.3,1.1Z"/><path class="cls-1" d="M70,51.6l.9-1C71.2,51.5,70.8,51.8,70,51.6Z"/><path class="cls-1" d="M123.7,15.1l-.9.9Z"/><path class="cls-1" d="M101.6,16l1-.9.4.5-.3.6A.8.8,0,0,1,101.6,16Z"/><path class="cls-2" d="M172.7,78.5l-.9.9-.3-.3a1.1,1.1,0,0,1,.9-.9Z"/><path class="cls-2" d="M198.5,92.9l-.3-.8.4-.2.2.2v.5Z"/><path class="cls-1" d="M81.5,18l.9-1,.4.5a1.4,1.4,0,0,1-.2.6l-.6.2Z"/><path class="cls-1" d="M133.6,9.3l-.9-.9.5-.4.6.2A.8.8,0,0,1,133.6,9.3Z"/><path class="cls-1" d="M236.4,7.4h.9v1Z"/><path class="cls-1" d="M74.8,18.9h-1q-.5-.3-.3-.6t.3-.3Z"/><path class="cls-1" d="M81.5,18.9h-.9l.9-.8q.4.3.3.6T81.5,18.9Z"/><path class="cls-1" d="M57.5,32.4l-1-1C57.4,31.2,57.7,31.5,57.5,32.4Z"/><path class="cls-1" d="M66.1,31.4l-.9,1C64.9,31.5,65.2,31.2,66.1,31.4Z"/><path class="cls-1" d="M49.8,36.2h-1C49.2,35.5,49.5,35.5,49.8,36.2Z"/><path class="cls-1" d="M95.7,19l1.1-1c.3.2.4.4.3.7s0,.4-.1.4a1.1,1.1,0,0,1-1.2-.1Z"/><path class="cls-7" d="M198.8,92.6c.2-.1.2-.3,0-.5,4.4-4.8,5.4-10.7,5.7-16.9a5.5,5.5,0,0,0-1.6-4.3c-1.3-1.2-2.7-2.2-4.1-3.3l-10.6-8.1-3.1-2.1c-3.5-2.4-7.1-3.4-11.2-1.8a14.9,14.9,0,0,1-4.2.8,1.9,1.9,0,0,1-1.8-2.7,3.4,3.4,0,0,1,1-1.6,1.9,1.9,0,0,0,.4-2.5c-.4-.7-.1-1.8-.1-2.7l.8-.7a13.2,13.2,0,0,1,5.6-.5c2.8.2,5.7.2,8.5.3s6.5,1.2,9.3,3c4.4,2.6,8.4,5.8,12.6,8.6a24.9,24.9,0,0,0,5.1,2.7c1.6.6,3.4,2,4.9.9s-.2-2.9-.4-4.3-.6-2.2.4-3.1c2-2.7,3.8-5.4,6-7.9,3.7-4,11.9-4.1,14.3,1.2.1.3.4.4.6.7h0c1.4,5.4-.3,10-3.6,14.2-.2.3-1,.6-.7.8s.4-.5.7-.7c2.3-2.5,5.6-3.9,7.8-6.5.1-1.1.9-1.5,1.7-2.1h0a23.8,23.8,0,0,0,3.9-19.3h0c-1.2-1-1.4-2.5-1.9-3.9h0c-.7-.5-.6-1.4-.9-2.1h0a27.1,27.1,0,0,1-1.7-3.9,4,4,0,0,1,1.4-4.2c1.2-.9,2.4-.5,3.6,0s1.3-.3,1.4-1.2h0a5.3,5.3,0,0,1,2.9-2.8h.1l.4.2c1.5,1.4,3.2,1.2,4.9.9l1.2,1.6h0a1.4,1.4,0,0,1,.7,1.1h0c-.2,1.5-.5,2.9-.8,4.4a5.3,5.3,0,0,0-1.9,5.9c.2.7.2,1.5.4,2.3a28.4,28.4,0,0,1-1,15.8,11.6,11.6,0,0,0-.4,1.8L254,52.3l-1.8,3a4.3,4.3,0,0,0-.9,1c-2.2,4.1-5.6,7.1-8.7,10.4s-6,4.3-7.8,7.7a19.9,19.9,0,0,0-3.8,7.7,9.2,9.2,0,0,0-1.9,4.8l-4.8,10.3a2.7,2.7,0,0,1-3.7.7c-1.1-3.9,2.3-6.5,2.8-9.9l.5-1.2c.4-1,.7-2,1-3,2-4.7,3.1-9.8,6.8-13.6l.9-.9a3.4,3.4,0,0,1,.9-.8,3,3,0,0,1,.8-.8l.4-.4.9-.8a7.1,7.1,0,0,1,1.4-1l1.6-1.6a4.7,4.7,0,0,1,.9-.6,8.6,8.6,0,0,0,1.8-1.4l1.2-1.3,2-2.1a21.8,21.8,0,0,0,2.6-3.4c.8-1.5,2-2.6,2.8-4.1a14.4,14.4,0,0,0,2-4.8,24.7,24.7,0,0,0,.5-5.4V37.3c-.1-1.7.2-3.4-.7-4.9a8,8,0,0,1-.4-3.4,7.4,7.4,0,0,1,1.7-4.5l.2-.3h-.4c-1.2.6-2.6.8-3.4,2a4.5,4.5,0,0,0-.1,1.1,11.7,11.7,0,0,0,.5,1.1c.9,2.3,2.4,4.3,2.5,6.9s.4,6.9-.4,10.3a12.1,12.1,0,0,1-1.7,4.6c-.8,1.6-1.9,2.8-2.8,4.3a27.2,27.2,0,0,1-2.9,3.8l-2.1,2-1.1,1.1-1.2,1.1-1.3,1a10.5,10.5,0,0,1-2.2,2c-.9.5-1.8,1.2-2.8,1.7-3.8,1.3-6.2.3-6.5-4.1a6.8,6.8,0,0,1,.2-1.4,10.9,10.9,0,0,1,1-2.5,4.7,4.7,0,0,1,.7-1.2,20.6,20.6,0,0,0,1.7-3.3c.7-2.1,2.1-4.5,0-6.1s-4.5-.6-6.3,1.2-2,2.6-3,3.8a2.7,2.7,0,0,0-.3,2.6l.9,2.7a7.6,7.6,0,0,1,.4,1.1l.6,1.8.3,1.3a3.7,3.7,0,0,1-.9,3.2,7.7,7.7,0,0,1-5.5,1.3c-3.8-.7-7.7-1.5-11.1-3.5l-1.6-.9-.5-.3-.5-.3-.9-.7-.4-.3-1.4-.9-1-.6-.9-.7-.5-.4-1-.7c-6.1-4.5-12.5-8.3-20.4-8.3l-1-.5c-.5-.2-.8,0-.8.6a1.9,1.9,0,0,1-.9,1.9c-.5.3-1.1.4-1.5.9a4.5,4.5,0,0,1,1.2-.6c1.7-.8,3.4-1.8,5.4-1.7,6.2,1.3,11.1,5,15.8,8.8l.9.8a7,7,0,0,0,1.7,1.3l.9.6.4.4,1.4.8.9.6.9.7.5.4,1,.7A14.9,14.9,0,0,1,209,74c.9,2.6-.5,4.7-1.3,6.9a2,2,0,0,1-.4,1.3l-1.2,4.7c-.7,1.3-1.3,2.6-1.9,3.9l-1.8,2C201.2,94,200.8,93.9,198.8,92.6Z"/><path class="cls-8" d="M172.4,78.2l-.9.9A47.3,47.3,0,0,1,154.3,87c-1.7.4-3.2,1.3-4.9,1.8a6.3,6.3,0,0,0-4.7,5.9,10.8,10.8,0,0,0,0,1.8c-.4,3.6-.7,7.1-1,10.6-1.5,1.3-1.5,1.3-2.8,0s-1.1-5.6-1.2-8.5a36.3,36.3,0,0,1,1.3-5.7,10.9,10.9,0,0,1,1-2.5l.6-1.1a10.9,10.9,0,0,1,1.3-1.7c5-4.2,11.7-4.6,17.5-7.1s8.9-6,11.6-11c.4-1.1,1.7-1.7,2-3.2-1.8-.4-2.1,1-2.6,2-2.1,6.4-6.6,10.4-12.7,12.9s-13.3,3.7-20,5.2c-7.2-.2-8.6-1.6-8.5-8.9.6-3.6,2.3-6.8,3.9-10.1a13.4,13.4,0,0,0,1.2-3l.3-1.3c.1-3.5-1.1-6.3-4.8-6.9s-5.6.7-6.5,4a5,5,0,0,1,.2,1.2,10.1,10.1,0,0,0,.7,1.5,10.4,10.4,0,0,0,1,1.8,21.4,21.4,0,0,1,1.3,1.9l.7.9.4.5a7.2,7.2,0,0,1,1.8,3.3,10,10,0,0,1-2.6,8.9l-1,1a4.1,4.1,0,0,1-1.1.7,8.6,8.6,0,0,1-2.4,1.1l-2,.4c-3.7.4-6.6-1.4-9.7-3l-1.7-.9-1.1-.6a24.7,24.7,0,0,1-6.3-5.3,5.3,5.3,0,0,1-1.2-1.4l-.9-1.5-.7-.9-.9-.8-.4-.5-1-.9A9.6,9.6,0,0,1,96,58.9a7.5,7.5,0,0,1,1-2l.2-.3h-.4a5.7,5.7,0,0,1-.8,1.3,7.7,7.7,0,0,1-.7,1.6c-.6,1.1-.1,2,.3,3a2.9,2.9,0,0,1,0,1.3c-.3.9-.6,1.8-1.9,1.3a6.5,6.5,0,0,0-2.6-2.6,10,10,0,0,1-2.5-2.1c-.8-1-.4-3.1.8-3.2,2.8-.2,2.3-2.4,2.9-4s.1-.3.1-.5c1.7-.2,3.3,0,4.9-1.1s3.9-.1,3.7,2.4a12.7,12.7,0,0,1-.9,4.2,5.6,5.6,0,0,0,1.6,6.5,16.7,16.7,0,0,1,2.5,2.8c3.1,4.5,7.5,7.4,12.2,9.8a14.9,14.9,0,0,0,4,1.5,5.5,5.5,0,0,0,6.7-5,5.6,5.6,0,0,0-1-2.6c-1.4-2.1-2.9-4.2-4.2-6.4s-2.7-4.8-1.2-7.6a11.2,11.2,0,0,1,7.3-5.8c7.7-1.8,14,3.7,13.4,11.8-.2,3.3-1.6,6.2-3.1,9a16.2,16.2,0,0,0-2.3,6.7,5.7,5.7,0,0,0,.1,1.9c.3.5.8,1.2,1.3,1.2a9.2,9.2,0,0,0,3.7-.3c5.4-1.8,10.9-2.7,16.3-4s9.3-4.8,10.7-10.4c1.3-1.3.6-3,.6-4.5a4.2,4.2,0,0,1,1.6-3.7c.8-.6,1.8-1,2.5-.1s2.2,1.3,3.6.5,1.8-.1,2.8,0,.1,2.7,2.1,3.2,3,3.3,1,5.1a10.2,10.2,0,0,1-2.9,1.6,6.5,6.5,0,0,0-3.2,2.7C175,74.2,173.7,76.2,172.4,78.2Z"/><path class="cls-9" d="M3,41.2c.7-.6,1.3-1.5,2-1.8s1.8-1.7,1.7-3.1h0c.5-.6.2-1.5,1-1.9h0a1.3,1.3,0,0,1,1-.9h.1c3.2-1.2,4,1.4,4.9,3.3a9.2,9.2,0,0,0,4.7,5l1.2.7,1,.9.5.4c3.7,3.7,8.1,6.7,11.7,10.6a3.1,3.1,0,0,1,.5,1.2L37.9,58a1.5,1.5,0,0,0,.8-.4.8.8,0,0,0,.1-.8c-.5-1-1.3-1.8-1.8-2.8a29.6,29.6,0,0,1-2.2-4.8c-1.2-3.8.2-6.9,3.8-8.7a13.2,13.2,0,0,1,7.8-1.4c3.2.5,4.8,2.2,5.3,5.3s-.3,4.7-1.1,7V52c-2.2,4.7-2.2,4.9,1.9,6.3l1.3.3,2.3.8,1.2.3c1.6.5,3-.2,4.5-.6l1.1-.4,1.4-.6,1-.4,1.3-.7.9-.5,1.4-.8,1-.6c2.4-2,4.5-4.4,7-6.2.8-1,2.1-2.3,3.1-1.5s4.3.1,6.1,1.5l.9.8a10.3,10.3,0,0,1-1.9,7.4c-2.2.5-4.8,0-6.6,2a11.6,11.6,0,0,0-2.4,1.4A36.2,36.2,0,0,1,59,68.3l-2.3.4a2.3,2.3,0,0,0-2,1.8c-.4,1.5-.7,3-1.1,4.6a20.4,20.4,0,0,1-1.1,3.5c-.2.4-1.1.4-1.7.5a16.5,16.5,0,0,1-.1-7c.8-3.6,2.3-6.3,6.2-6.9.7-1.3,1.9-1.1,3.1-1.2s4.6-1.1,6.7-2.2a17.6,17.6,0,0,0,3.8-2.1c1.1-.8,2.2-1.3,3.2-2.1a16,16,0,0,1,7.1-3.9,4.2,4.2,0,0,1,1.8-.8c-.3-.3-.4.2-.6.1s-1.3.8-2,.9c-3.4-.6-4.3,2.8-6.7,3.8s-2.2,1.4-3.3,2.2a34.2,34.2,0,0,1-4.2,2.3,15.4,15.4,0,0,1-10.9,1.5,1.3,1.3,0,0,1-1.1-.9c-1.3-1.2-2.9-.6-4.3-.9h-.3L47.6,61c-.8-.2-1.7-.1-2.3-.7A5.1,5.1,0,0,1,43.4,57c-1.1-3.7,1.5-5.9,3.1-8.6s1.3-3.2-.3-4.6-2.7-.3-4,.1-4.3,1.8-3.1,4.8,3.6,5.4,4.3,8.6c.6,1.6-.4,2.5-1.6,3.2a7.5,7.5,0,0,1-3.5,1.3l-1.2-.2c-.9-.3-1.8-.5-2.7-.9a7.5,7.5,0,0,1-2-1l-2.3-1.5-.9-.6a2.7,2.7,0,0,1-.8-.7l-.4-.3a10.9,10.9,0,0,0-1.7-1.3l-.8-.5-.8-.7c-.1-.1-.2-.3-.4-.4l-.7-.7-.4-.4-.8-.7-.4-.4-.9-.8c-.2-.1-.3-.3-.4-.4a20.9,20.9,0,0,0-6.1-4.6L13.5,45c-.1-.2-.3-.3-.4-.4l-.9-.9-.4-.5-.8-.9a5.4,5.4,0,0,1-.5-1.1c-.2-.6.1.2-.1-.4s0,.5-.1.8a2.3,2.3,0,0,1-.3,1.1,3.2,3.2,0,0,1-1,1V44s.3.1.3,0l1.3.4.9.5.4.3.9.6,1,.7,1.4,1.1a37.9,37.9,0,0,0,3.9,3.1l.9.8.4.4.8.9.5.4.8.8.4.4a12.4,12.4,0,0,0,2.2,1.8l.8.6.9.7.3.3,1.4.8.9.6.9.8.5.4,1,.8.5.5,1,1.1a49,49,0,0,1,3.2,21.4c-.3,3.8-1.9,4.6-4.8,2.9a80.6,80.6,0,0,0-1.2-19c-.2-.8-.5-1.5-.7-2.2h0c-1.4-2.2-4.2-2.8-5.6-5H24c-5.1-3-9.2-7.2-13.4-11.3h0a3.1,3.1,0,0,0-3.1-1.6,18.2,18.2,0,0,1-3.3.1c-1.9-.2-2.7-1.5-1.7-3.2A3.7,3.7,0,0,0,3,41.2Z"/><path class="cls-10" d="M152.6,39.1l-.3,1.8c-.9.7-1.8,1.5-3,.9s-2.5-1.5-2.6-3.2V34.4c-1.2-.8-2.2,0-3.2.2a2.5,2.5,0,0,0-1.8,2,29.7,29.7,0,0,1-.8,4.3,2.5,2.5,0,0,1-1.5,1.5,2.8,2.8,0,0,1-2-.9,4.9,4.9,0,0,1-1.3-4c.1-4.6.2-9.2.4-13.9.1-2.2.6-4.4,0-6.6s.7-2.5,2.5-2.8,2.9.2,3.1,2,.4,5.7.5,8.6a26.4,26.4,0,0,0-.2,2.8,1.5,1.5,0,0,0,1.1,1.2,27.2,27.2,0,0,0,3.9-.4A37,37,0,0,0,148.7,17c0-1.4-.1-2.6,1.3-3.3s2.5-.6,4.5,1.4a17.6,17.6,0,0,1,1,9.9,12.7,12.7,0,0,0-.7,4.8C155.1,33.1,152.7,35.8,152.6,39.1Z"/><path class="cls-11" d="M164,13.2c2.6.8,2.9.9,2.9,3a45.4,45.4,0,0,1-1.5,13.7c-.7,2.4-1.5,4.9-2.4,7.3a8.4,8.4,0,0,1-1.4,2.4,3.1,3.1,0,0,1-5.3,0,23.5,23.5,0,0,1-1.9-4.3c-.9-1.5-.3-3.1-.4-4.6s.2-3.6.9-5.3-.2-5.8,1.4-8.5a1.9,1.9,0,0,0,.1-.8c.5-.6.4-1.4.8-2s2.1.1,2,1.3-.3,4.7-.4,7.1-.3,7.6-.5,11.4a3.3,3.3,0,0,0,.4,1.4c0,.1.7.1.8-.1a15.9,15.9,0,0,0,1.5-2.9,51.7,51.7,0,0,0,2.1-14.1C163.1,16.5,162.9,14.7,164,13.2Z"/><path class="cls-2" d="M82.4,34.3h3.9L88.4,36a1,1,0,0,0,.9,0c2-2.1,5-.7,7-2.3s.6-1.4,1-2,3.1-1.6,3.8.1a6.7,6.7,0,0,0,3.5,3.5c.7,1.3,0,2.8.3,4.2,2.4-4.5,2.8-4.7,5.4-1.8.5,5.1,4.6,3.3,7.5,3.9-.5,2.4-2.5,3.1-4.4,3a5.3,5.3,0,0,1-4.9-3.9,4,4,0,0,0-.9-1.7,18.1,18.1,0,0,1-.3,2.3c-.5,2.3-1.8,3-4.2,2.1-.5-.2-1.4-.8-1.6-.6-1.8,1.4-3.6,1.1-5.4.4a1,1,0,0,0-.9.2c-3.3,2.5-6.8.1-10.2.3-1.8.2-1.3-1.8-2.1-3.1a40.5,40.5,0,0,1-3.4,2.3l-.4-.5c-.3-2.2.6-3.9,2.6-4.5s3.1,2.1,4.6,3.3a9.5,9.5,0,0,0,2.4.1c4.4,2.1,5.5-.9,6.3-4.2,1.8-1.1,2.9-.4,3.7,1.3s.2,1.1.8.7.2-.9.4-1.3l.6-1.7c-.2-1.2-.7-2.5-2-1.2s-2.6,1.4-3.6,2.3a13.3,13.3,0,0,0-6.4,2.5H87.2c-2-.8-2.9-3.1-5.1-3.7a3.8,3.8,0,0,1-.9-.9C81.3,34.4,81.5,33.8,82.4,34.3Z"/><path class="cls-12" d="M113.1,24.6c-.8,1.5-1.6,2.9-3.6,2.7a34.8,34.8,0,0,1-2.2-3.6c-1-2-.9-2-3.6-1.9-.5-1.8,1-1.6,2-2s4.1,1.5,4.9-1.6a1.9,1.9,0,0,1,1.2-.7l1.4.2c.2.2.3.4.5.5a4.2,4.2,0,0,1,.4,1.5C114.4,21.4,114.5,23.2,113.1,24.6Z"/><path class="cls-13" d="M117.8,41.6a20.1,20.1,0,0,1-2.5,1.3,4.3,4.3,0,0,1-4.5-.6,3.6,3.6,0,0,1-1.3-4.2c.5-.9.2-2.3,1.7-2.6s1.9-.8,2.5.1a5.2,5.2,0,0,1,.2,2.2,7.5,7.5,0,0,1-.7,1.2.8.8,0,0,0,0,.7c.2.2.6.4.8.3l1.8-.6c.8-.4,1.8-1.1,2.4.1S117.9,40.9,117.8,41.6Z"/><path class="cls-14" d="M106.5,20.8c-1,.1-2.2-.2-2.8,1l-.9,4.1c-.2,1.3-.4,1.4-2.2,1.4l-1.8.2-2.9-1.9c1.3-1.1,2.7-2,2.9-3.9s1.2-2.4,2.8-2.4a3.9,3.9,0,0,0,1-.8,4,4,0,0,1,3.2-.3,2.5,2.5,0,0,1,1,.8A1.6,1.6,0,0,1,106.5,20.8Z"/><path class="cls-15" d="M111.2,35.5l-1.7,2.6a6.6,6.6,0,0,1-.1-1.4c-.6.1-1.4-.1-1.7.3a6.2,6.2,0,0,0-1.3,2.4c-.3.8-.2,1.8-.5,2.7a1.2,1.2,0,0,1-1.1.7,1.4,1.4,0,0,1-1.1-.7,7.8,7.8,0,0,1,.9-6.8l1.7-.8c1.3-.7,2.6-.9,3.6.6S110.8,35.4,111.2,35.5Z"/><path class="cls-2" d="M79.5,42.9c-.5.7-1.2,1.1-1.9.7A3.3,3.3,0,0,1,76,42.1a5.8,5.8,0,0,1-.3-2.3V34.3c2-.7,4-1.1,5.7.7v.3c-.9,2.4-4.6,4-2.1,7.4Z"/><path class="cls-2" d="M86.1,48.9c-1,.1-2.1.1-3.1.3s-1.2.3-1.7-.3-2.9-.8-4.4,0a3.1,3.1,0,0,1,1.9-2.5c.4-.3,1.5-.5,1.7-.3s3.4,1.4,5.1,2S85.9,48.6,86.1,48.9Z"/><path class="cls-2" d="M76.9,48.9c-1.9,3.3-4.1,6.2-7.8,7.5-.3-3.5,2.9-4.7,4.7-6.8h1Z"/><path class="cls-16" d="M156.3,16.9c-.3,2.9-.7,5.8-1,8.7a.6.6,0,0,1-.9,0c0-3.5.1-7,.1-10.5Z"/><path class="cls-16" d="M157.2,14.1a16.7,16.7,0,0,1-.8,2A1.8,1.8,0,0,1,157.2,14.1Z"/><path class="cls-1" d="M120.8,18h1v.9h-1a.7.7,0,0,1-.2-.6Z"/><path class="cls-1" d="M216,53.8l2.8,9.3a13.4,13.4,0,0,1-5.4-.6,27.7,27.7,0,0,1-8.9-4.5l-6.9-5a46.9,46.9,0,0,0-13.5-7l1.1-2.6c.5-1.2,1.1-2.5,1.7-3.7-1.4-2.3-1.1-4.4,1.5-5.4s2.5,1.7,3.4,3a12.2,12.2,0,0,1,.9,2.7c2.9.1,5.7.4,7.7,3,.5.6,2.1.5,3,.9,3,1.3,5.2.2,7.2-2a5.5,5.5,0,0,1,3.2-1.9,5.9,5.9,0,0,1,6.5,4.4,3,3,0,0,1-.4,1.8,12.7,12.7,0,0,1-2.1,2.5C216,50,215.7,51.8,216,53.8Z"/><path class="cls-17" d="M198.7,37.2c-1.4,1-2.2,1-2.4-.1a8.5,8.5,0,0,1-.4-2.3L195.6,17a5.2,5.2,0,0,1,.2-1.8,1.5,1.5,0,0,1,2.3-.6,12.3,12.3,0,0,1,1.4,2.5c.9,2.7,1.6,5.5,2.4,8.2l2,6a13.9,13.9,0,0,0,1.2-6c.1-3.2,0-6.4.1-9.6.1-1.1,8.3-2.2,8.6-3.3a1.9,1.9,0,0,1,1.4-.9,1.6,1.6,0,0,1,1.5.9c.3,1-7.5,2.1-7.5,3.2a146.8,146.8,0,0,1-1.1,22,12.3,12.3,0,0,1-1.3,4.1,2.1,2.1,0,0,1-3.6.2,23.5,23.5,0,0,1-1.9-3.9c-.3-.8-.6-1.8-.9-2.7C198.2,34.5,199.5,36.8,198.7,37.2Z"/><path class="cls-18" d="M192.7,40c-1.9-.6-2.5-2.1-2.7-3.9s-.2-1.4-1.1-1.1-1.3.6-1.4,1a22,22,0,0,0-.6,3.7c-1,.2-2,.2-2.3-1a6.5,6.5,0,0,1-.2-2.4c.8-6.4,1.7-12.9,2.5-19.4a8.9,8.9,0,0,1,1.1-3.1c.3-.6,9.2-1.2,9.8-1.2s-6.5.6-6.2,1.2a14.8,14.8,0,0,1,1.2,4.1c.5,5.7.9,11.4,1.2,17.2C194.1,36.8,194.1,38.6,192.7,40Z"/><path class="cls-19" d="M219.6,32.3,221.1,17c.2-1.6,0-1.8-1.7-2l-3.3-.4c-.7-.2,7.1-1.5,7.7-2s.5-.5.8-.6c3.4-.9,6.7-2,10.3-1.9a3.3,3.3,0,0,1,1.3,1.1,1.7,1.7,0,0,1-.5,1.3c-3.1,1.2-11.4,3.6-11.4,6.5-.1,5.4-.5,10.8-.8,16.2a23.4,23.4,0,0,1-.3,3.8,1.3,1.3,0,0,1-1,.9c-.5,0-1.4-.2-1.6-.6a8.9,8.9,0,0,1-.8-3.2c-.1-1.2,0-2.5,0-3.8Z"/><path class="cls-20" d="M233.2,24.8h1.6c2,1.7.6,2.6-.9,3.6s-3.5,1.8-2.8,3.9,2.9.8,4.5.9,1,.6,1.4,1.2h-.1c.7.6.7,1.2,0,1.9h0c-2.2,2.5-4.9,4.1-8.4,3.8h0a6.1,6.1,0,0,1-2.3-5c.3-4.2.5-8.3.7-12.5a24,24,0,0,0,.3-2.8c-.1-3-.1-3,2.3-3.7a16.1,16.1,0,0,1,3.7-.7,1.7,1.7,0,0,1,1.6.6c.5.9-.2,1.5-.9,2l-.4.2c-2.9.6-3.6,2.6-3.5,5.3s.1,2.5,2.8,1.8C233,25.1,233.1,24.9,233.2,24.8Z"/><path class="cls-21" d="M213.2,17.1h.7a8.8,8.8,0,0,1,1,3c.2,5.3.2,10.5.2,15.8v.9c-.1,1-.3,1.9-1.4,2.2s-1.8-.7-1.8-2.3c0-5.7.1-11.4.2-17.2A6.8,6.8,0,0,1,213.2,17.1Z"/><path class="cls-22" d="M241,9.2l-.7.5c-1.7.9-1.9.7-1.9-1.3,0-.3.1-.5.1-.8h-.1c.3-1.4.5-2.9,2.2-3.3a1.6,1.6,0,0,1,2,.9c.7,1.8-.2,3.1-1.6,4.1Z"/><path class="cls-1" d="M173.4,43.9a6.5,6.5,0,0,1-1.7-.3,1.6,1.6,0,0,1-.7-1.1,2,2,0,0,1,.7-1.6c.9-.7,3.2.1,3.6,1.2a1.4,1.4,0,0,1-.4,1.2A3.6,3.6,0,0,1,173.4,43.9Z"/><path class="cls-23" d="M154.5,30.4c-.1,1.7-.1,3.3-.1,4.9l-.9,1.9-.9,1.9c.3-3.2.7-6.3,1-9.5C154.4,29.3,154.9,29.5,154.5,30.4Z"/><path class="cls-24" d="M198.7,37.2a8.8,8.8,0,0,1,0-2.3c.1-.9-.8-2.7.9-2.5s1,1.8.9,2.9Z"/><path class="cls-1" d="M228.5,39.9l2.2,1.9a13.1,13.1,0,0,1-2,0c-1-.2-1.1-.5-.2-1.9Z"/><path class="cls-2" d="M237,34.4a2.7,2.7,0,0,0-2.6-.2c-4,1.8-5.2.8-4.9-3.3a2.4,2.4,0,0,1,1.6-2.1l3-1.3c1.3-.6,1.2-1.6.8-2.7s1.8.2,2,1.4a1.8,1.8,0,0,1-1.2,2.2,5.2,5.2,0,0,0-1.3.6,5,5,0,0,0-1,1.9c-.1.9.7,1.3,1.5,1.4A2,2,0,0,1,237,34.4Z"/><path class="cls-2" d="M244.2,2.2c1.4.9.8,2.6.8,4s-.1,2.9-3.5,3c-.2.1-.3,0-.5,0a35.8,35.8,0,0,0,1.1-3.5c.1-.3-.3-.9-.6-1a1.3,1.3,0,0,0-1.2.2,24.8,24.8,0,0,0-1.9,2.6,12.5,12.5,0,0,1-1-2.7c-.3-1.9.7-2.8,2.7-2.7"/><path class="cls-2" d="M232.3,63.1a40,40,0,0,1,2-4.2c1.9-3.5,3.3-7,2.6-11.1,1.9,1.6,1,3.7.9,5.7s-1.5,2.4,0,3.2,1.9-.6,2.8-1h.5c-1.8,3.4-4.7,5.6-8,7.5C232.8,63.4,232.6,63.4,232.3,63.1Z"/><path class="cls-2" d="M246.7,34.2c.1.1.3.2.3.3,1.6,7,1.4,13.6-4.2,19a5.6,5.6,0,0,1,1.3-4.4,9.4,9.4,0,0,0,2.5-7.4C246.5,39.2,246.7,36.7,246.7,34.2Z"/><path class="cls-2" d="M244.8,30.3l1.9,3.9C244.7,33.6,244.6,32,244.8,30.3Z"/><path class="cls-2" d="M242.8,53.5l-1.7,2.1C240.8,54.2,241.4,53.6,242.8,53.5Z"/><path class="cls-2" d="M243.9,28.3l.9,2.1C243.9,30,243.8,29.2,243.9,28.3Z"/><path class="cls-2" d="M236.9,36.2V34.3C238,34.9,238,35.6,236.9,36.2Z"/><path class="cls-2" d="M20,32.4v2.8a.8.8,0,0,1-.6,1.2,2.1,2.1,0,0,1-1.1-1c-2-9.7-.7-11,9.1-9a4.8,4.8,0,0,1,1.8.7l.5.6-2,1.8H25.8C23.4,29.5,21.1,29.7,20,32.4Z"/><path class="cls-2" d="M45,26.6c-.6,1.2-1.4,2-2.9,1.4a3.6,3.6,0,0,0-2.3-.1c-3.4,1.2-6.7.6-10.1-.2l-.3-.4a2,2,0,0,1,1.4-2,2,2,0,0,1,1.3.1c2.7,1.6,5.2-.3,7.8-.6s3.3.2,4.7,1.3A1,1,0,0,1,45,26.6Z"/><path class="cls-2" d="M31.5,18.8a7.8,7.8,0,0,1,7.8.1l-.3.6c-.4.5.1-.1-.4.3s-.9,5.1-3.6,4.8-1.8-3.6-3.3-5.2A1.4,1.4,0,0,1,31.5,18.8Z"/><path class="cls-2" d="M41.1,19.7c.2-.7.2-1.7.7-2.1a2.5,2.5,0,0,1,2.1-.5,15.8,15.8,0,0,1,3.6.9c1.4.5,1.4,1,.4,2.9l-.6-.2c-1.8-1-3.8-.3-5.7-.6Z"/><path class="cls-2" d="M39.3,18.9l1.8.8.3.4c.8,1.7,1.1,3.2-1.2,4C37.6,23,38,21.2,39,19.2Z"/><path class="cls-2" d="M47.9,20.9c-.9,1.4-2.1,2.7-2.1,4.6,0,.3-.5.7-.8,1.1h-.1c-1.4-3.1-1.8-5.6,2.8-5.9Z"/><path class="cls-2" d="M25.8,18.9c1.3-1.4,2.6-1.2,3.9-.1l-.4.6a2.9,2.9,0,0,1-3.4-.4Z"/><path class="cls-2" d="M29.7,18.8h1.8l.2.3a1.4,1.4,0,0,1,0,1.8c-.9.5-1.6,0-2.2-.7a1.3,1.3,0,0,1,0-1.2Z"/><path class="cls-25" d="M47.9,90a4.6,4.6,0,0,1-3.8,2.9c-1.7.2-2.7-1-3.7-2.1a14.2,14.2,0,0,1,.1-8.4c.9-1.3,1.3-3,2.3-4.2s2.4-2.4,3.3.3a14.7,14.7,0,0,1,1.8,8.2C47.8,87.8,47.9,88.9,47.9,90Z"/><path class="cls-26" d="M46.1,78.5c-.8-.9-1.6-1.1-2.3-.1A8.7,8.7,0,0,0,43,81c-.3,1-1,1.1-1.8,1.3A3.7,3.7,0,0,1,40,79.9a7.8,7.8,0,0,0-.7-2.5c-.8-2.7-2.2-5.2-2.6-8a5.6,5.6,0,0,1,.4-1.2l.3-.5c.8-1.1.4-2.3.3-3.4a2.7,2.7,0,0,1,1.8-2.6,2,2,0,0,1,1.3.1c3,3.1,2.3,7.2,2.6,11,.1.3,0,.8.6,1a6.7,6.7,0,0,1,1.2-.6.8.8,0,0,1,.8.4,23.6,23.6,0,0,0,.4,2.8A1.8,1.8,0,0,1,46.1,78.5Z"/><path class="cls-25" d="M46,73.6H45c-1-4.6-1.2-9.1.9-13.6l1.7,1c-.1.3-.4.6-.3.9,1,3.6-.4,7-.8,10.5A3.1,3.1,0,0,1,46,73.6Z"/><path class="cls-27" d="M60.4,64.8l-3.5.4-2.3-1.1.6-.5C56.9,64.1,59.2,62.2,60.4,64.8Z"/><polygon class="cls-25" points="49.2 61.8 49.4 61.6 49.5 61.9 49.2 61.8"/><path class="cls-27" d="M53.8,62.8a.6.6,0,0,1,.7.2.7.7,0,0,1,.4.6c-.1.2-.1.3-.2.3v.2Z"/><path class="cls-28" d="M93.7,65.1A2.3,2.3,0,0,0,95,63c2.5,1.5,2.4,4.7,4.4,6.7a6.1,6.1,0,0,0,.7,1,1,1,0,0,0,.4.5l.8,1,.5.5c3.5,5.4,8.8,9.2,13.3,13.8l.8,1.1.4.6a12.2,12.2,0,0,1,1.8,8.3c-.6,2.9-1,5.8-3.9,7.5l-.8.4c-1,.7-2.1,1.4-3,.2s.3-1.7.7-2.5c1.3-2.7,2.9-5.3,2.3-8.5s-1.3-3.4-2.5-4.8c-3.3-3.6-6.7-7-10-10.5-.9-1.3-1.6-2.7-2.5-4l-4.2-6.6C94,66.8,93.9,66,93.7,65.1Z"/><path class="cls-29" d="M141,97.6c-.1,3.2-.1,6.4-.1,9.5a5.4,5.4,0,0,1-5.7,1.1c-.9-2-1.5-4.1-2.4-6.1s-2.2-3-4.5-2.2a1.6,1.6,0,0,1-1.1-.5,14.2,14.2,0,0,1-1.2-5.7,2.3,2.3,0,0,1,.6-1.2,4.2,4.2,0,0,1,1.7-1h.7a1.7,1.7,0,0,1,1,.7c.3.7.1,1.9.8,2s1.5-1.9,2.6-2.6a36.8,36.8,0,0,1,5.7-.6C140.8,92.9,138.6,95.9,141,97.6Z"/><path class="cls-30" d="M114.2,104c1-2.5,2-4.9,3.1-7.4.2-.7.5-1.2,1.3-1.1s1.8,3.1,2.5,4.9c1.6-.4,2.7-2.3,4.5-1.6l1.1.5a6.7,6.7,0,0,1,0,4.2,4.5,4.5,0,0,1-2,3c-1.6,1.4-3.4,2-5.5.8S115.5,105.6,114.2,104Z"/><path class="cls-31" d="M127.6,99.6c3.4-2.3,4.2-2.1,5.9,1.4a27.7,27.7,0,0,1,2.2,4.6c.2.8-.3,1.7-.5,2.6-2.4.3-3.8-1.1-4.8-3a22.3,22.3,0,0,1-1.3-3.9l-1.6,1.1A2,2,0,0,1,127.6,99.6Z"/><path class="cls-29" d="M127.6,99.6a27.2,27.2,0,0,1-.1,2.8,10.5,10.5,0,0,0-.8,1.1,3.2,3.2,0,0,1-.1-3.9c.3-.4.6-.4.9-.1Z"/><path class="cls-2" d="M10.6,49.5c1.3.9,2.7,1.7,3.9,2.7L24,60.8c-.3.1-.6.3-.9.1C18,58.2,13.3,54.9,10.6,49.5Z"/><path class="cls-2" d="M24.2,60.9l5.3,3.7c.2.2.2.8.3,1.3s-2.7-1.5-3.9-2.4A3,3,0,0,1,24.2,60.9Z"/><path class="cls-13" d="M85.5,28.2c-.2-1-.7-2.1.7-2.7s.8-.3,1.1-.5a.9.9,0,0,1-1.1-.3c-2-2-2.2-2.8-.7-4.2a8.3,8.3,0,0,1,2.7-1.7,1.7,1.7,0,0,1,1.6.6c.2.2-.1,1.2-.4,1.5s-1,1.2,0,1.7,2.4,2.1,1.9,3.9-1.7,2.2-4.3,2.1a5.8,5.8,0,0,1-1.4-.3Z"/><path class="cls-1" d="M70,29.5a2.8,2.8,0,0,1,.1-.9h4.6a2.6,2.6,0,0,0,2.8-1.9c.8-2.5,1.3.1,2,0s.7,1.9,1,2.9a20,20,0,0,1-8.4.9A7.8,7.8,0,0,1,70,29.5Z"/><path class="cls-1" d="M83.4,17h1q.4-.6.9,0c-.5,1.8-.5,1.8-2.9,1.9-.2-.2-.3-.4-.2-.6l.2-.3A9.4,9.4,0,0,1,83.4,17Z"/><path class="cls-32" d="M86.2,24.7h.9c.2,0,.3.3.4.5l-.4.2h-.9A1.1,1.1,0,0,1,86.2,24.7Z"/><path class="cls-1" d="M82.4,18v.9h-.9V18Z"/><path class="cls-1" d="M93,18.9V18l.9.8Z"/><path class="cls-33" d="M69.8,28.3c-1-.1-2.1-.4-3.1-.4a5.1,5.1,0,0,0-1.7.3,1.4,1.4,0,0,1-.2.6c-1.6,1-3.3.8-5.1.6a5.3,5.3,0,0,1-1.2-.3,3.9,3.9,0,0,1-1-.8,2.1,2.1,0,0,1-.6-1,16.1,16.1,0,0,1-.9-2.9,5,5,0,0,1,.2-1.2c1.1-2.1,1.8-4.3,4.1-5.4l.6-.2h1.2a3.9,3.9,0,0,1,1,.8v.7c.1,1.1,0,2.2-1.3,2.7a2.3,2.3,0,0,0-1.5,3A2.6,2.6,0,0,0,62,26.2a2.8,2.8,0,0,0,3.1-1.7,16.5,16.5,0,0,1,2.2-3.6,2,2,0,0,1,3.3.2A18.8,18.8,0,0,1,72,23.5a2,2,0,0,1-.1,2.2h0a1.7,1.7,0,0,0-.8,1.2Z"/><path class="cls-1" d="M73.8,18v.9a3,3,0,0,1-3.8,0C71,17.5,72.5,18.1,73.8,18Z"/><path class="cls-5" d="M71.9,25.7c0-.7.1-1.5.1-2.2C72.8,24.3,72.8,25,71.9,25.7Z"/><path class="cls-5" d="M71.1,26.9a8.3,8.3,0,0,0,.8-1.2Z"/><path class="cls-34" d="M116.7,26.8c-1.3-.1-1.9-1.1-2.6-2.1s-.4-2.3,0-3.4a2.4,2.4,0,0,1,.6-1.1l.5-.2,1-.2c2.6-.1,3.4.8,2.6,3.2-.3.8-.5,1.7-.8,2.5S117.9,27.1,116.7,26.8Z"/><path class="cls-6" d="M121.9,22.8c-.4-2.5-.4-2.5,2.3-3a3.8,3.8,0,0,1,3.3,0c-2.2,2-2.1,2-2.7,5.9-.2,1.4-1.1,1.2-2.1.8S122.8,23.9,121.9,22.8Z"/><path class="cls-35" d="M121.9,22.8c1.3,1,.8,2.4.8,3.7-1.9,1.4-3.9,2.1-6,.3l1.3-1.3h.9C121.7,25.6,121.7,25.6,121.9,22.8Z"/><path class="cls-36" d="M114.8,20.7l-.7,4h-1c0-1.9.1-3.8.1-5.7a.8.8,0,0,1,1-.2,1.5,1.5,0,0,1,.4,1A3.6,3.6,0,0,0,114.8,20.7Z"/><path class="cls-37" d="M127.5,19.8h-3.3a2.3,2.3,0,0,1,2.3-1.1A.9.9,0,0,1,127.5,19.8Z"/><path class="cls-1" d="M114.3,19.9a1,1,0,0,1-.2-.9c-.3-.2-.4-.4-.3-.7a.6.6,0,0,1,.1-.4.8.8,0,0,1,1.2.1c.2.2.3.4.2.6s-.1.3-.2.3.1.7.1,1.1h0C114.8,20.2,114.5,20.2,114.3,19.9Z"/><path class="cls-1" d="M115.1,18.9V18l.9.8Z"/><path class="cls-1" d="M120.8,18v.9h-.9Z"/><path class="cls-1" d="M19.2,36.3a7.6,7.6,0,0,1,.8-1.1h2v3.9a1.6,1.6,0,0,0-.7,2.3,4.4,4.4,0,0,0,4.5,2.5l1.9,1.9,1,1,4.8,2.8,1.3,3c.8,1.6.7,1.8-1.5,3h0A73.9,73.9,0,0,0,20,43.9h0c-.3-.4-.5-.8-1.1-.8h0a4.3,4.3,0,0,0-.9-1c-1.3-1.2-4.2-1.5-3.7-3.7S17.5,36.9,19.2,36.3Z"/><path class="cls-1" d="M52.7,49.6c1.1.7.9,1.9.9,2.9l-2.8,1-.4-.4a2.5,2.5,0,0,1,.2-1.7h0A2.6,2.6,0,0,0,52.7,49.6Z"/><path class="cls-1" d="M33.5,44.8c-1.2-1.4-1.2-1.4,0-2.8Z"/><path class="cls-1" d="M81.4,35c-1.8-.9-3.8-.7-5.7-.7,2.6-1.3,4.1-1.3,6.7,0Z"/><path class="cls-38" d="M213,101.5c-1.7-1.1-3.7-2-4.8-3.9a9.8,9.8,0,0,1,1-5,14.6,14.6,0,0,0,.9-3.6,4.7,4.7,0,0,0,1-1c1-1.8-.3-6.7,4.6-3.6.9,1.1.5,2.2.3,3.4s-1.6,3.4-2.1,5.2l-.3,1.2a2.6,2.6,0,0,0,.6,2.5c1.7,2.9,5.4,2,7.5,3.9a11.4,11.4,0,0,1-2.6.9Z"/><path class="cls-39" d="M221.7,100.6h-1.4c-3.3.3-5.8-.9-7.3-3.9a2.4,2.4,0,0,1,0-2.9c1.1-1.1.9-3.7,3.5-3.3a1.3,1.3,0,0,1,.9.9c-.6,2.9,1.6,4.4,3.4,6.2s2.4,0,3.5-.4C224.4,99,223,99.8,221.7,100.6Z"/><path class="cls-1" d="M133.6,8.4l1,.9h-1Z"/><path class="cls-1" d="M136.5,9.3h1l-1,1a.7.7,0,0,1-.2-.7C136.4,9.4,136.4,9.3,136.5,9.3Z"/><path class="cls-1" d="M136.5,9.3v1l-.9-1Z"/><path class="cls-40" d="M41.1,79.4a28.1,28.1,0,0,1,.1,2.9v9.6l-.3.6a2,2,0,0,1-1.2.8c-3.2,0-6.4.1-8.2-3.3-1-1-.5-2,.2-2.9,2,1.1,2.9,1,3.1-.7a27.5,27.5,0,0,0,.4-7c-.4-4.6-1.1-9.1-1.9-13.6-.2-1.4-1.1-2.6-1.7-3.9a1.4,1.4,0,0,1-.9-.8h-.1l-.9-.8h-.1a1.9,1.9,0,0,0-1-.8h0c-.3-.8-1.3-.5-1.7-1.1h-.2a3.9,3.9,0,0,0-1-.8h0A26.3,26.3,0,0,0,22,54.5h-.1l-.9-.9h0a4.1,4.1,0,0,0-1-.9h0a2.3,2.3,0,0,1-.4-1.4c.6-1.1,1.4-1.4,2.4-.6h0a3.2,3.2,0,0,0,1,1h0a1.8,1.8,0,0,0,1,.9h0a1.3,1.3,0,0,0,1,.9h0a1.2,1.2,0,0,0,1,1c.6,1,1.8,1.3,2.6,2h.1a3.9,3.9,0,0,0,1,.8h0a20,20,0,0,1,2.2,1.9,5.6,5.6,0,0,0,2.5,1.4c1,.2,2.1-.2,3,.5h0c.4.7,1.4.3,1.8,1L38.3,65a2.6,2.6,0,0,1,0,2.9h0l-1,.9c1.1,2.9,2.5,5.6,2.9,8.7C40.8,78,40.6,78.9,41.1,79.4Z"/><path class="cls-41" d="M31.5,90c2.5,2.2,5.7,1.9,8.7,2.7l1-.8h0c1.5-1.2,2,.5,2.9,1a2.8,2.8,0,0,1-.1.9c-1.1,0-2.3-.4-3.2,0-2.8,1.1-5.5.4-8.3,0C32.2,92.5,31.9,91.2,31.5,90Z"/><path class="cls-2" d="M102.6,19a8.3,8.3,0,0,1-1.6.9,1.8,1.8,0,0,0-1.3,1.7v2.9c0,.9-.5,1.3-1.4,1.2H95.9c-.6-1-.2-1.7.5-2.5s.8-2.9-.6-4.1l1-.2a2.6,2.6,0,0,1,2.9.1h1.9A.7.7,0,0,1,102.6,19Z"/><path class="cls-2" d="M251.5,16.2,248.6,19C249.1,16.5,249.1,16.5,251.5,16.2Z"/><path class="cls-2" d="M19.2,36.3c-.3,2-1.8,1.7-3.2,1.9s-.7.4-.9.7.2.5.4.7,3,1.6,3.4,3.5l-2.5-1.2A5.4,5.4,0,0,1,13,37.7a12.7,12.7,0,0,0-.6-1.8,3.4,3.4,0,0,0-3.6-2.4,4.1,4.1,0,0,1,.7-1.1h1.9c1.6-.3,2.1-1.1,1.6-2.7s-1.2-1.9-.6-3.1v-1c-.4-1,.2-1,1-.9,2.5,1.7,3.2,4.4,3.8,7.2s-.1,3.2,1.7,4.1Z"/><path class="cls-2" d="M7.7,34.4c-.3.6-.7,1.2-1,1.9C6.6,35.4,6.8,34.7,7.7,34.4Z"/><path class="cls-2" d="M8.7,33.5l-1,.9Z"/><path class="cls-42" d="M18.9,36c-1.9,1.4-2.6,1.2-2.8-.6l-.3-3.3c-.1-2.2-.2-4.4-2.1-6-.3-.2-.2-.9-.3-1.3v-.6a2.7,2.7,0,0,1,.5-1.1l.4-.3a6,6,0,0,0,.8-1.6c.1-1.3,0-2.6.1-3.8s.4-.7.6-.6a1.6,1.6,0,0,1,1.2.4c.3.4.1,1,.4,1.4s.8,1.2,1.1,1.1a9.3,9.3,0,0,1,5.2.7c1,.4,1.6-.6,2.2-1.4h3.6c.1.3.1.6.2.8.8,1.9,2.7,3.6.8,5.8a16.3,16.3,0,0,1-1.1,1.7c-1.2.2-2.7.8-3.7.4s-4.7-1-7.3-.2C18.6,30.3,18.7,33.2,18.9,36Z"/><path class="cls-1" d="M13.4,24.8l-1,.8c-1.2-.7-1.1-1.9-.8-3a2.6,2.6,0,0,1,2.6-1.8c0,.7.1,1.3.1,2h0c-.7.5-.5,1.4-.9,2Z"/><path class="cls-1" d="M14.3,16c-.1-.3-.3-1-.1-1.1a2.8,2.8,0,0,1,4,0c.2.1,0,.8-.1,1.1A3.3,3.3,0,0,0,14.3,16Z"/><path class="cls-43" d="M207.4,81.3c.2-2.5.5-5,.7-7.5s-.7-2.2.3-3.2a2.8,2.8,0,0,1,2.8.3c2.7,1.9,4.7,1.5,6.6-1.4s2.7-2.8,4.9-1.8a2.2,2.2,0,0,1,.4,1.9c-1.6,2.2-3.6,4.2-3,7.3-.2,1.5,0,3.3-2.2,3.6s-3.2-2.5-5.3-.7-1.7.2-2.5-.4h-.9a4.3,4.3,0,0,0-.9,1c-.1.3-.1.6-.2.9A.4.4,0,0,1,207.4,81.3Z"/><path class="cls-44" d="M210.1,79.4c1-.1,2.2.1,2.9-1a4.4,4.4,0,0,1,.8-1.1c1.2-1,2.3-.9,3,.5s.7,1.7,1,2.6.1.4.1.6a8.1,8.1,0,0,1-.5,3.1,1.9,1.9,0,0,1-1.6,1l-1.6-.7a1.5,1.5,0,0,0-2.1,1.2,24.4,24.4,0,0,1-1,2.4V83.4A8.2,8.2,0,0,0,210.1,79.4Z"/><path class="cls-44" d="M208.3,80.4l.9-1Z"/><path class="cls-44" d="M207.4,81.3h.7l-.8.9C207.3,81.9,207.4,81.6,207.4,81.3Z"/><path class="cls-1" d="M12.4,26.6c1.1,1.7,2.4,3.3,1.8,5.5a4.9,4.9,0,0,1-1,1.5l-1.4-1-.4-.2a3.9,3.9,0,0,0,.2-2.8A2.3,2.3,0,0,1,12.4,26.6Z"/><path class="cls-1" d="M104.5,15.1h1c.3.3.7.5.9.9h1a4.7,4.7,0,0,0,1,1c.7.6,1.8,1.1.7,2.3a2.6,2.6,0,0,1-2.8-.2h0c-1-1.5-2.7-.1-3.9-1.1a1.7,1.7,0,0,1,.2-2C103.1,15.4,104,15.7,104.5,15.1Z"/><path class="cls-1" d="M109.3,18.9l-.9-1.9h2.8c.3.2.5.4.4.7s-.1.4-.2.4h0C110.7,18.4,110.4,19.5,109.3,18.9Z"/><path class="cls-2" d="M111.4,18.1c-.1-.4-.1-.7-.2-1.1h2c.4.5.3.8-.3,1.1Z"/><path class="cls-1" d="M112.9,18.1l.3-1.1,1.9,1h-1a.8.8,0,0,1-1.1.1Z"/><path class="cls-1" d="M108.4,17a4.7,4.7,0,0,1-1-1Z"/><path class="cls-1" d="M106.4,16l-.9-.9h.9Z"/><path class="cls-1" d="M20,32.4c0-1.3,0-2.7,1.2-3.3s3.2-1,4.6.4l-1.9,1.9Z"/><path class="cls-1" d="M56.6,24.2h0c.6,1-.1,2.4,1,3.3h0c.2.5.5.9,1,.9h0a4.7,4.7,0,0,0,6.4,0h0l1.1,1.3v1.9l-.9,1-2,.9H59.4l-1.9-.9-1-1a4.7,4.7,0,0,0-1.9-3.8l-1-2V22.8l2.9-1C57.2,22.6,56.9,23.4,56.6,24.2Z"/><path class="cls-2" d="M56.6,24.2c0-.8-.1-1.6-.1-2.4s.7-1.9,1-2.9a6.6,6.6,0,0,1,3.9-.9C58.7,19.2,57.6,21.7,56.6,24.2Z"/><path class="cls-1" d="M73.8,49.6c0,1.1-.7,1.6-1.4,2.4s-2.2,2.9-3.3,4.4h0c-.6.4-1.5.1-1.9,1h0c-.6.3-1.6,0-1.8,1h-.1c-.7.3-1.5,0-1.9.9h0c-2.4-.1-4.5,2-7,.9h0c-.6-1.1-2-.3-2.8-.9h-.1c-.8-1.2-2.1-.4-3.1-.8a2.7,2.7,0,0,1-2-2.4c0-1.5.3-2.9,2.4-2.7s1.9,2.8,3.8,2.9c1.5,1.6,3.5.8,5.2.8a2.7,2.7,0,0,0,2.5-1.8l1.9-1,1.9-.9c1.7.1,3.1-.2,3.9-1.9l.9-1,1-1Z"/><path class="cls-1" d="M99.7,18.9H96.8V18C97.9,18,99,17.8,99.7,18.9Z"/><path class="cls-1" d="M102.6,16v2a.7.7,0,0,1,.4.6q-.1.3-.3.3h-.1l-1-.2V16Z"/><path class="cls-2" d="M258.8,20.1l-.7-1.1Z"/><path class="cls-1" d="M92,17l-.9-1Z"/><path class="cls-1" d="M93,18l-1-1Z"/><path class="cls-1" d="M104.5,15.1l-1.9.9v-.9Z"/><path class="cls-1" d="M132.7,7.4l.9,1h-.9Z"/><circle class="cls-1" cx="84.8" cy="16.5" r="0.7"/><path class="cls-1" d="M83.4,17l-1,1V17Z"/><path class="cls-45" d="M233.1,69.7a48,48,0,0,0-6.2,11.6c-.3,1-.9,1.9-1.3,2.9s-.3,2.1-1,2.9h0c-.6.7-1.4-1.1-2.2.6a5.2,5.2,0,0,1-5.6,3.2h0c-1.3-2,.4-3.5.9-5.3.9-5.3,5.2-9,6.8-14.1.8-2.4,3.7-3.3,6.4-3.4A2.5,2.5,0,0,1,233.1,69.7Z"/><path class="cls-46" d="M231.2,68.8c-1.7.7-3.5,1.4-5.1,2.2s-1.3,1.3-1.2,1.8c.4,2.5-1.5,4.2-2.7,5.8s-2.5,3.5-2.7,5.8a12.2,12.2,0,0,1-.7,1.7c-1.4.5-1.9,2.7-3.9,1.9l.9-2.9,1-.9c1.1-1.1,0-2.8,1-3.8h0c.7-1.3,1.3-2.6,1.9-3.9s.1-.4.1-.6l.6-1,.4-.4.7-.9a8.7,8.7,0,0,0,1.1-3.8,12.1,12.1,0,0,0-.1-1.9,1.7,1.7,0,0,1,.1-2.2l-.2-3.4c.3-1.6,1.6-2.5,2.5-3.7s1.5-1.8,2.8-1.8,2.1,1,1.7,2.5h0c-.7.5-.6,1.5-.9,2.2s.1.5-.2.6C226,65.8,230.1,66.7,231.2,68.8Z"/><path class="cls-47" d="M197.3,62.3l-1.5-1.2h0c-1.5-1-2.9-1.9-4.3-3a33.3,33.3,0,0,0-12.2-6.4c-.7-1.3-2.7.1-3.1-1.7a.7.7,0,0,1,.6-.9l2.8.2a19,19,0,0,1,11.1,3.3l8,5.7.9.9h0c.3.5.6.9,1.1.9h0c.2.8,1.2.6,1.7,1.1h.1a3.3,3.3,0,0,1,.5,1.2,1.8,1.8,0,0,1-1.3,2.1,2.2,2.2,0,0,1-1.3-.4h0c-.4-.7-1.3-.5-1.8-1h0A2,2,0,0,0,197.3,62.3Z"/><path class="cls-48" d="M201.5,64l.9-1.9a1.1,1.1,0,0,1,1.1-.2h.1c.1.6.5.7,1,.7l.8.4,11.5,3.7c.2.5.5,1.3.3,1.3-2.8.6-4.4,4.6-8,2.8-1.2.7-.8,2-1.1,3-1-3.3-3.3-5.6-5.7-8l-.9-.8h0a.7.7,0,0,1-.2-.7C201.4,64.1,201.4,64,201.5,64Z"/><path class="cls-49" d="M229.4,59.3l-2-2c-1.5-1.8.7-3.2.5-5.3-1.4-.4-4.3.9-4.2-2.4a3.6,3.6,0,0,1,2.9-2.7,14.7,14.7,0,0,1,4.7.2,2.9,2.9,0,0,1,2.1,2.9,9,9,0,0,1-.4,2.8C232.1,55.1,231.3,57.5,229.4,59.3Z"/><path class="cls-50" d="M223.7,49.6c1.6,1.6,1.6,1.6,3.7.7a2,2,0,0,1,.8-.4c.7-.2,1.8.7,1.5,1.4s-1,2.6-1.5,3.8-.5,1.5-.8,2.2l-1.9,2a27.1,27.1,0,0,0-4,.1l-1-3a10.9,10.9,0,0,0,.3-3.1Z"/><path class="cls-51" d="M216.8,90.9c1.8-1.3,3.5-2.4,5.2-3.8s1.1-1.1,2.6,0a30.4,30.4,0,0,1-3.2,8.7l-.6,1.8-.5-.2C215.6,95.6,215.4,96.2,216.8,90.9Z"/><path class="cls-52" d="M209.2,70.8c1.6-.1,3.4.3,4.1-1.9.1-.2,1.1-.2,1.6-.2s1.9-.8,2-2l5.7-1c0,.8-.1,1.5-.1,2.2a8,8,0,0,0-5.1,3.7,13.2,13.2,0,0,1-1.2,2,1.5,1.5,0,0,1-2.1.5Z"/><path class="cls-53" d="M254.5,23.7l-2.3,4.8c-1.6,1.3-2.6-.1-3.8-.8h0a3.6,3.6,0,0,0-.7-1c1.4-2.4,1.6-2.5,3.8-2.8a7.7,7.7,0,0,0,1.9-1.1C254.3,22.4,254.6,22.9,254.5,23.7Z"/><path class="cls-54" d="M251.2,46.7c0-4.1.1-8.3.2-12.4.6-.6.1-1.8,1.1-2.2a8.1,8.1,0,0,1,.7,5.1,4.2,4.2,0,0,0,0,3.8l-1,5.7C251.8,47,251.5,47,251.2,46.7Z"/><path class="cls-55" d="M231.2,68.8l-1.1-.8c-3.1-1.6-3.4-2.4-1.8-5.9-.7,4.3,1.3,6,5.6,4.2a1.6,1.6,0,0,1,1.1,1.5l-1,1a3.8,3.8,0,0,1-.9.9h0Z"/><path class="cls-56" d="M252.5,32.1c-.4.7-.7,1.5-1.1,2.2l-3-6.6,3.8.8Z"/><path class="cls-57" d="M221.5,59.4c.3-.3.5-.7.9-.9s1.7-.9,3.1.8l-3.1,3h.1c-.4-.7-.3-1.5-.8-2.1A.6.6,0,0,1,221.5,59.4Z"/><path class="cls-58" d="M176.5,49.7l2.8,2-5.1.9c-.3-.2-.6.9-.9,0s.5-.6.7-.9a1.4,1.4,0,0,0,.5-2.1c.1-.2.3-.3.4-.4S176.1,49.1,176.5,49.7Z"/><path class="cls-59" d="M247.7,55.5l-3,3.8h-.4a1,1,0,0,1-.5-.6v-.4l3-3.7C247.6,54.3,248.1,54.5,247.7,55.5Z"/><path class="cls-60" d="M247.7,55.5l-1-1,2.7-4a1.4,1.4,0,0,1,.8,1Z"/><path class="cls-61" d="M250.2,51.5l-.8-1,1.8-3.8h1Z"/><path class="cls-62" d="M220.8,53.3c1.8,1.8,1.8,1.8-.3,3.1C219.3,54.7,219.3,54.4,220.8,53.3Z"/><path class="cls-63" d="M235,67.8l-1.1-1.5,3-1.7a.9.9,0,0,1,.2,1.3,9.4,9.4,0,0,1-1,1l-1,.9Z"/><path class="cls-64" d="M242,60.2c.6-.6,1.1-1.3,1.7-2a.8.8,0,0,0,.2.5l.4.4.4.2c-.6.7-1.3,1.3-1.9,1.9A1.4,1.4,0,0,1,242,60.2Z"/><path class="cls-65" d="M174.5,49.6l-.8-.5a3.6,3.6,0,0,1-.4-.9,5.6,5.6,0,0,1,1.2-.4c.4.1.7.5,1.1.7s-.6.6-.6,1.1l-.3.2Z"/><path class="cls-66" d="M237.1,65.9c-.1-.4-.1-.8-.2-1.3L239,63l.3.5a1.9,1.9,0,0,1-.3,1Z"/><path class="cls-67" d="M241.8,62.1l-2,1.7-.4-.5c-.1-.2-.2-.2-.4-.3l1.1-.8a1.3,1.3,0,0,1,1.2-.5Z"/><path class="cls-68" d="M253.2,41a2.5,2.5,0,0,1,0-3.8Z"/><path class="cls-51" d="M224.6,87.1c-.1-1.1-.3-2.2,1-2.9C225.2,85.2,224.9,86.2,224.6,87.1Z"/><path class="cls-69" d="M242,60.2l.8,1-1,.9h-.2a1,1,0,0,1-.5-.8Z"/><path class="cls-70" d="M174,51.7a2.9,2.9,0,0,1,.2.9c-.2.2-.4.5-.7.5s-.7-.1-1-.2.1-.6.3-.7Z"/><path class="cls-71" d="M254.5,23.7l-1.1-.9c.3-.8.9-1.1,1.5-.4S255.2,23.4,254.5,23.7Z"/><path class="cls-72" d="M175,49.6c-.4-.7.2-.8.6-1.1l1.2.6c-.2.2-.2.4-.3.6Z"/><path class="cls-49" d="M228.5,61.5c-.2-.9-.1-1.8.9-2.2Z"/><path class="cls-73" d="M202.4,61.1c-.8,0-1.5-.2-1.7-1.1Z"/><path class="cls-50" d="M221.7,60.2a1.9,1.9,0,0,1,.8,2.1A1.8,1.8,0,0,1,221.7,60.2Z"/><path class="cls-74" d="M241.1,61.2a3.5,3.5,0,0,0,.5.8l-1.5.2Z"/><path class="cls-73" d="M198.6,63.1a1.7,1.7,0,0,1,1.8,1Z"/><path class="cls-75" d="M232.3,63.1c.3-.3.5-.3.8,0l-1,.7c-.1.1-.4-.3-.6-.4Z"/><path class="cls-73" d="M199.6,59.2l-.9-.9Z"/><path class="cls-73" d="M200.7,60l-1.1-.9Z"/><path class="cls-73" d="M203.5,61.9l-1.1.2a2.8,2.8,0,0,0,.1-.9Z"/><path class="cls-73" d="M197.3,62.3l1.3.8Z"/><path class="cls-47" d="M204.4,63.1l-.8-1.2a.9.9,0,0,1,.8.4c.2.2.3.3.2.5Z"/><path class="cls-73" d="M204.4,63.1v-.8l1,.7Z"/><path class="cls-76" d="M239.4,63.3a.7.7,0,0,1,.4.5l-.8.7C239.1,64.1,239.3,63.7,239.4,63.3Z"/><path class="cls-73" d="M201.5,64v1l-1.1-.9Z"/><path class="cls-73" d="M201.5,65a3.9,3.9,0,0,0,1,.8Z"/><path class="cls-55" d="M235.1,67.8l1-.9Z"/><path class="cls-45" d="M233.1,69.7l.9-.9Z"/><path class="cls-56" d="M247.7,26.7l.7,1Z"/><path class="cls-77" d="M122.9,82.6l1.7-.4.7-.4h.8a2.5,2.5,0,0,1,.4-.7h0a5.2,5.2,0,0,0,1.1-1c2.2-2.8,3.6-5.9,2.9-9.5,3.5.9,1,3.9,1.8,5.7s-.1,2.8,0,4.2c.2,3.2,1.5,4.5,4.7,4.8h2.8c.3.1.4.3.3.5a.6.6,0,0,1-.1.4,6.1,6.1,0,0,0-.7,1c-.3.7-.4,1.5-.7,2.3s-2.1,2.6-4.1.6c-3.9-4.1-4.4-3.9-6,1.5h0c-.5.5-1.4.3-1.9.9h0a1.1,1.1,0,0,1-1.2-.2c-.6-4.4-5.4-3.7-7.6-6.2a2.3,2.3,0,0,1,.7-2.5C119.8,83,121.4,82.9,122.9,82.6Z"/><path class="cls-78" d="M132.3,76.5c-1-.7-.9-1.8-.9-2.9s.1-2.1-.9-2.8-1.3-2-2-2.9.7-3.2-1.9-2.9c-.4-.6-.7-1.2-1.1-1.7l-.6-1.2-.3-.8c5.7-4.6,11.5-3.3,12.7,2.8h0c-1.1.8-.3,2.1-1,3.1C135,70.3,133.7,73.4,132.3,76.5Z"/><path class="cls-79" d="M139.8,86.2a.6.6,0,0,0,0-.6l3.6-1.2A79.2,79.2,0,0,1,160,80.2c1.1-.4,2-.6,2.1,1-2.5,1.7-5.5,2.2-8.3,3A27.4,27.4,0,0,0,143.6,89a3,3,0,0,1-.7,1h0l-.4.5h-.6a5,5,0,0,1-2.9-1.8,2.3,2.3,0,0,1-.3-1.1C138.9,86.8,139.5,86.6,139.8,86.2Z"/><path class="cls-80" d="M137.3,64.1a26.1,26.1,0,0,0-1.7-2.8,4,4,0,0,0-5.4-1l-1.1.8c-1.2,1.2-2.2.7-3.3-.1s-.8.1-1.2.3-.8-1.6-.5-2.2a7.4,7.4,0,0,1,7.8-4.2c2,.3,3.7,1,4.7,2.9S138.6,61.8,137.3,64.1Z"/><path class="cls-81" d="M119,84.3l-1.1,1.8c-.4,1.3-1,2.4-2.7,1.8h0a2,2,0,0,1-.9-.9L110,83.2a47.1,47.1,0,0,1-9.4-10.5,2.3,2.3,0,0,1,3.1,0l6.6,5.6A9.6,9.6,0,0,0,119,84.3Z"/><path class="cls-82" d="M162.1,81.2l-2.1-1,2.4-1.4a21.8,21.8,0,0,0,9.2-10.9c1,.4.1,2.8,2.1,1.9A18.3,18.3,0,0,1,162.1,81.2Z"/><path class="cls-83" d="M119,84.3h-.9c-.9.4-1.8,1.4-2.5,1.2a7.7,7.7,0,0,1-2.8-2.3,20,20,0,0,1-2.8-3.7c-.2-.2.2-.8.3-1.2l1.2.5a1.3,1.3,0,0,1,.6.5,8.5,8.5,0,0,1,1.7.6,20.5,20.5,0,0,0,9.1,2.7Z"/><path class="cls-84" d="M103.7,72.7h-3.1a4.1,4.1,0,0,0-.9-1h0a3.9,3.9,0,0,1-.8-1c-2.2-2.1-2.9-5-3.9-7.7a2.8,2.8,0,0,0-.1-.9,5,5,0,0,1,.5-2.9A1.3,1.3,0,0,1,96.5,58l.5.3c-1.1,3.7.4,6.8,2.8,9.5a2.8,2.8,0,0,0,.9,1h0l.8,1h.1c.6.4.4,1.4,1.3,1.7Z"/><path class="cls-85" d="M173.7,69.8c-1.8.5-1.8.5-2.1-1.9s.1-2.3,1.3-2.8a4,4,0,0,1,2.6-.4c.6.2,1,1,1.7,1.7Z"/><path class="cls-86" d="M141,97.6c-2.8-1-3-1.3-2.5-3.5l.6-3.2.3-.5c.8-.4,1.6-1,2.6-.5h0a1.7,1.7,0,0,1,0,2.1C141.7,93.9,141.3,95.8,141,97.6Z"/><path class="cls-87" d="M126.6,65c.1-1.2.7-1.3,1.8-1.1s2.4,1.9,1.2,3.3a4.1,4.1,0,0,1-1.1.7h0l-.8-1Z"/><path class="cls-88" d="M95.9,59.2c-.1,1.1.2,2.2-1,2.9l-.7-.4c-1.6-1.2-1.6-1.2.1-2.4l.4-.2C95.1,58.7,95.5,58.7,95.9,59.2Z"/><path class="cls-89" d="M98,56.5l-1,1.8-.2.2-.2-.2a10.9,10.9,0,0,0-1.5-.8l1.7-2.1C97.8,55.2,98.2,55.5,98,56.5Z"/><path class="cls-90" d="M98,56.5l-1.2-1.1c.2-.3.2-.6.4-.8l1.2-.5a7,7,0,0,1,.3,1.2A7.5,7.5,0,0,1,98,56.5Z"/><path class="cls-80" d="M136.3,67.2c-.1-1.2-.3-2.4,1-3.1A3.7,3.7,0,0,1,136.3,67.2Z"/><path class="cls-91" d="M95.1,57.5c.6.1,1.6-.4,1.5.8l-.7.9H94.7Z"/><path class="cls-92" d="M102.9,71.6a1.5,1.5,0,0,1-1.3-1.7Z"/><path class="cls-93" d="M126.6,82.3h-2l1.9-1a4.1,4.1,0,0,1,.1,1.1Z"/><path class="cls-29" d="M142,92V89.9h.9Z"/><path class="cls-80" d="M124.9,62.1l.6,1.2Z"/><path class="cls-78" d="M127.7,66.9l.8,1Z"/><path class="cls-92" d="M100.7,68.8l-.9-1Z"/><path class="cls-92" d="M101.5,69.8l-.8-1Z"/><path class="cls-81" d="M112.1,79.3a.6.6,0,0,1-.6-.5C111.8,78.7,112,78.9,112.1,79.3Z"/><path class="cls-93" d="M127.6,80.3l-1.1,1Z"/><path class="cls-29" d="M142.9,90l.7-1Z"/><path class="cls-94" d="M47.7,48.6c-.1.3-.1.7-.3.9A10.1,10.1,0,0,0,44,57.3c-.4.6-.7.6-1.2.1s-2-2.8-2.9-4.3-1.9-2.7-1.8-4.4a10.1,10.1,0,0,1,4.1-5.8c1.5-.8,3.1-1.2,4.6-.2S47.1,46.7,47.7,48.6Z"/><path class="cls-95" d="M42.8,57.4H44L45.9,60c0,1.9,0,3.8.1,5.7a21,21,0,0,1-1,7.9,4.7,4.7,0,0,1-1,1,.6.6,0,0,1-.9,0c-1.5-1.2-.9-2.9-1-4.4a15.2,15.2,0,0,0-1.9-8.1c-.6-1.1.5-1.4.9-2.1S42.8,58.7,42.8,57.4Z"/><path class="cls-96" d="M22,50.6l-2,1a1,1,0,0,1-1.3,0l-4.5-3.7a1.5,1.5,0,0,0-1.2-1,.5.5,0,0,1-.6-.4,1.6,1.6,0,0,1-.9-.7h-.1a2,2,0,0,0-1.3-.8l-1.7-.3c-.3-.3-.9-.3-.9-.9s.8-1.1,1.7-1.1.8-.7,1.2-1.1a1.1,1.1,0,0,1,1.1.3h-.1l.8.9h.2l.9.8h.1a1.4,1.4,0,0,0,1.2.7A16.1,16.1,0,0,1,22,50.6Z"/><path class="cls-2" d="M20,43.9h1c3.4,2.7,7.7,4.3,10.1,8.3.6,1.1,2.6,1.4,2.2,3.3a8.9,8.9,0,0,1-1.7-.8Z"/><path class="cls-97" d="M81.2,53.5c-.3.5-.5,1.3-.9,1.4-2.5.5-4.4,2.1-6.5,3.3a1.3,1.3,0,0,1-.9-.9l5.2-5.6,2.4,1.6C80.8,53,81.1,53.1,81.2,53.5Z"/><path class="cls-98" d="M54.7,63.9a2.9,2.9,0,0,1-.2-.9,18.2,18.2,0,0,0,11.7-1.7c.5.2,1,.3,1,1-2,1.6-4.4,2.1-6.8,2.5C58.7,63.6,56.6,64.4,54.7,63.9Z"/><path class="cls-99" d="M42.2,42.9c-.6,1.2-1.2,2.5-1.9,3.6a22.8,22.8,0,0,1-2.2,2.2c-.8-3.2-.7-3.8,1.5-5.1A9.9,9.9,0,0,1,42.2,42.9Z"/><path class="cls-2" d="M50.8,53.5c-.5.4-1.2.7-1.5,1.2a2.2,2.2,0,0,0,.9,3.2c1.1.6,2.7-.1,3.3,1.5a23.1,23.1,0,0,1-3.7-.3c-1.7-.4-2.3-1.7-2-3.6s1.4-3,2.8-4.1C50.7,52.1,50.7,52.8,50.8,53.5Z"/><path class="cls-100" d="M47.7,48.6a9,9,0,0,1-.8-2.1c-.1-1.2,0-2.5-.1-3.8.5.4,1.1.7,1.3,1.1A5.4,5.4,0,0,1,47.7,48.6Z"/><path class="cls-2" d="M56.4,60.3l2.8-.5,4.2-.4C61.2,60.7,59,61.7,56.4,60.3Z"/><path class="cls-101" d="M67.2,62.3a9.4,9.4,0,0,1-1-1l3.8-2h.5l.3.3v.5Z"/><path class="cls-102" d="M11.5,41.9l-1,.2a.6.6,0,0,1-.9-.1V37.2A16,16,0,0,1,11.5,41.9Z"/><path class="cls-103" d="M72.9,57.3l.9.9-2.9,2-.2-.3-.4-.4-.3-.2Z"/><path class="cls-104" d="M22,54.5c2,.1,3,1.2,3.7,2.9A6.3,6.3,0,0,1,22,54.5Z"/><path class="cls-105" d="M41.1,60l-.9,2.1h-1l-1.8-1Z"/><path class="cls-105" d="M37.4,61.1H33.5c-.1-.9,0-1.5,1.2-1Z"/><path class="cls-106" d="M34.7,60.1l-1.2,1-2-1.9a1,1,0,0,1,1-.3Z"/><path class="cls-104" d="M32.5,58.9l-1,.3-1.8-1.9Z"/><path class="cls-104" d="M28.6,56.3A2.3,2.3,0,0,1,26,54.2Z"/><path class="cls-2" d="M53.6,59.4c1.1-.1,2.2-.4,2.8.9Z"/><path class="cls-107" d="M81.2,53.5h-.4l-.3-.3,2.2-.8c.3-.4.5-.3.7.1Z"/><path class="cls-108" d="M7.5,43.8l.9.9L7,44.4Z"/><path class="cls-109" d="M83.4,52.6l-.3-.2h-.4a3.1,3.1,0,0,1,.7-.9c.1-.1.5.1.7.2Z"/><path class="cls-2" d="M67.2,57.5c.3-1,1-1.1,1.9-1Z"/><path class="cls-2" d="M65.4,58.5c.2-1.1.9-1.1,1.8-1Z"/><path class="cls-104" d="M26.9,58.3a1.5,1.5,0,0,1,1.7,1.1Z"/><path class="cls-2" d="M63.4,59.4c.3-1,1.1-1.1,1.9-.9Z"/><path class="cls-110" d="M14.6,44.6l-1.2-.7Z"/><path class="cls-110" d="M10.1,45l1.3.8Z"/><path class="cls-110" d="M11.5,45.8l.9.7Z"/><path class="cls-110" d="M13,46.9l1.2,1Z"/><path class="cls-96" d="M23,51.5a9.4,9.4,0,0,1-1-1A9.4,9.4,0,0,0,23,51.5Z"/><path class="cls-104" d="M18.7,51.6H20v1Z"/><path class="cls-104" d="M24,52.4l-1-.9Z"/><path class="cls-104" d="M20,52.6l1,.9Z"/><path class="cls-104" d="M25,53.3l-1-.9Z"/><path class="cls-104" d="M21,53.5l.9.9Z"/><path class="cls-104" d="M26,54.3a9.4,9.4,0,0,1-1-1A9.4,9.4,0,0,0,26,54.3Z"/><path class="cls-104" d="M29.7,57.2l-1-.8Z"/><path class="cls-104" d="M25.7,57.4l1,.8Z"/><path class="cls-104" d="M28.6,59.4l1,.8Z"/><path class="cls-104" d="M29.7,60.2l.9.8Z"/><path class="cls-104" d="M30.7,61.1l.9.8Z"/><path class="cls-110" d="M9.6,42h.9l-1.3.6A.8.8,0,0,1,9.6,42Z"/><path class="cls-110" d="M12.2,42.9l-.8-.9Z"/><path class="cls-110" d="M13.3,43.8l-.9-.8Z"/><path class="cls-2" d="M18.9,43.1l1.1.8Z"/><path class="cls-111" d="M154.5,30.4l-.9-.8c-.1-1.4-.5-2.8.8-4h.9C155.3,27.2,155.9,29,154.5,30.4Z"/><path class="cls-112" d="M79.4,42.7c-1,0-1.9-.2-2.1-1.4a16.9,16.9,0,0,1-.1-2.3c-.1-2,0-1.9,2.4-2.6a7.2,7.2,0,0,0,1.9-1.1c3.1-.5,4.6,1.2,5.6,3.8s-.2,2.6-.9,3.7a6.7,6.7,0,0,1-1.7-.6c-.3-.2-.2-.9-.4-1.3s-.5-2.2-1.1-2.4-1.9.6-2.5,1.6A20.3,20.3,0,0,0,79.4,42.7Z"/><path class="cls-112" d="M94.7,37l.3.9c.8,1.5.9,3-.4,4.3s-3.1,1.5-5.2.5c-.4-.1-.7-.5-1.1-.8s-.8-1.8,0-2.8l1.5-1.7c1.6-1.5,3.3-1.7,5-.3Z"/><path class="cls-113" d="M94.8,37.1c.2-.2.3-.5.6-.7s2.9-1.9,2.8-4c0-.2.7-.7,1-.7s1,.4,1.1.7a3.4,3.4,0,0,0,2.1,2.9,11.7,11.7,0,0,0-.5,1.1,1.3,1.3,0,0,0-1.1.9c-.1,1.4,0,2.8-.1,4.2a1.6,1.6,0,0,1-1,.8,1.7,1.7,0,0,1-1.1-.6A3.5,3.5,0,0,1,98,40c0-2.3-1.5-2.7-3.3-3Z"/><path class="cls-114" d="M88.3,39.1v2.8l-2.1.9.9-3.7Z"/><path class="cls-15" d="M100.8,37.3l1.1-.9Z"/><path class="cls-2" d="M109.3,18.9l2.1-.8q-.7,2.1-1.5,4.5c-.9-1.4-1.7-2.5-3.4-1.8a9.9,9.9,0,0,0-.2-1.7Z"/><path class="cls-2" d="M113,18.1h1.1v1h-.9A1.1,1.1,0,0,1,113,18.1Z"/><path class="cls-2" d="M102.7,18.9c0-.3-.1-.6-.1-.9s2.9-.6,3.7,1.1Z"/><path class="cls-115" d="M189.8,25.8v5.6a2.3,2.3,0,0,1-1.1.6c-.1,0-.5-.4-.6-.6C187.9,29.4,188,27.4,189.8,25.8Z"/><path class="cls-116" d="M31.4,20.7l.3-1.6c1.1-.1,2,.2,2.2,1.3s.4,2.8.6,4.2c2-.9,1.5-2.5,1.7-3.8s.4-1.6,2.8-1.6a20.6,20.6,0,0,0,.3,2.6,11.1,11.1,0,0,0,.9,1.9,1.8,1.8,0,0,1,.2,2.1c-.6.3-1.2.8-1.7.7a2.8,2.8,0,0,0-2.6.4c-2.2,1.4-2.3,1.3-4.6-1.2C31,24,30.6,22.4,31.4,20.7Z"/><path class="cls-117" d="M40.4,25.8a14.9,14.9,0,0,1-.2-2.1,1.5,1.5,0,0,0,1.3-1.5c0-.7-.1-1.4-.1-2.1,1.7-1.7,3.8-1.2,5.7-1.1.2,0,.4,1.1.6,1.6a3.5,3.5,0,0,0-2.7,3,28.1,28.1,0,0,0-.1,2.9c-1.1.4-2.1.8-2.9-.5S40.9,25.9,40.4,25.8Z"/><path class="cls-118" d="M31.4,20.7c0,1.6.1,3.3.1,5h-1a6.6,6.6,0,0,0-.6-3.6c-.3-.5-.1-1.4-.2-2.2Z"/><path class="cls-105" d="M38.3,67.9V65C39.5,66.4,39.5,66.4,38.3,67.9Z"/><path class="cls-25" d="M41.1,79.4l-.9-1.9Z"/><path class="cls-105" d="M37.3,68.8l1-.9Z"/><path class="cls-25" d="M43.1,74.6H44Q43.6,75.5,43.1,74.6Z"/><path class="cls-95" d="M115.2,87.9l2.7-1.8c1.8.1,3.2,1.7,5.3,1.4s2.3,1.2,2.4,2.9a19.2,19.2,0,0,1,0,2.4l-.3.5c-1.9,2.1-4,1.6-6,.5a2.2,2.2,0,0,0-.5.8,2.4,2.4,0,0,1-.7,1.2l-.8.8A14.1,14.1,0,0,0,115.2,87.9Z"/><path class="cls-92" d="M98.9,70.7l.8,1Z"/><path class="cls-92" d="M99.7,71.7l.9,1Z"/><path class="cls-95" d="M114.3,87l.9.9Z"/><path class="cls-119" d="M139.1,87.1V88a2.1,2.1,0,0,1,0,2.9h0c-2.1,1.9-2.1,1.9-5.8,1-1.3,1.1-2.5.9-3.8,0h-1a13.4,13.4,0,0,1-.7-1.8c-.2-1.7.7-3.5,2-3.8a3.8,3.8,0,0,1,4.2,1.3c.5.6.8,1.3,1.3,1.9l1.2,1.6c1.6-1,1.7-2.3,1.3-4s.6-.8,1.3-.8.3.3.2.5S139.2,87.1,139.1,87.1Z"/><path class="cls-120" d="M129.5,91.9h3.8c.4.8.8,1.7-.1,2.5s-1.2,1.5-1.9,1.9-2.6-1.2-2.4-2.2A18,18,0,0,1,129.5,91.9Z"/><path class="cls-30" d="M125.6,92.8h1a17,17,0,0,1,.9,6.7h-.9c-1.1-2.1-3.4-4-1-6.7Z"/><path class="cls-119" d="M126.6,92.8l1.9-.9Z"/><path class="cls-77" d="M125.6,92.8c0,.8-.4,1.8,0,2.2s1,3,1,4.5h-1.9c-.6,0-1.3.1-1.3,1s-.3,1.9-1.6,1.6-2.8-1.2-2.4-2.2a3.9,3.9,0,0,0-1.3-4.2V93.7a.6.6,0,0,0,.2-.5l-.2-.3a5,5,0,0,1,.3-1.3c.7-.6,1.1-.1,1.5.4a15.8,15.8,0,0,0,1.2,1.5,1.2,1.2,0,0,0,1.9.1A11.2,11.2,0,0,1,125.6,92.8Z"/><path class="cls-2" d="M65,28.3c-.4,1.8-1.7,2.1-3.2,2.1s-2.8-.3-3.2-2.1A13.8,13.8,0,0,0,65,28.3Z"/><path class="cls-121" d="M69.8,24.6l-1,.7-.5-.4.8-.9Z"/><path class="cls-2" d="M57.6,27.5c-1.4-.8-1-2.1-1-3.3C57,25.3,57.3,26.4,57.6,27.5Z"/><path class="cls-2" d="M61.4,18.1c.4-.7.5-.6.6.1h-.3Z"/><path class="cls-2" d="M58.6,28.3l-1-.9Z"/><path class="cls-2" d="M62.1,18.2l1,.9Z"/><path class="cls-2" d="M114.3,19.9h.9a.8.8,0,0,1-.4.7A3.5,3.5,0,0,0,114.3,19.9Z"/><path class="cls-122" d="M214.9,88c1.4-.5,2.2-2.1,3.9-1.9l-2,4.8A10.8,10.8,0,0,0,215,92a17.1,17.1,0,0,0-2,1.8C212.8,91.6,214,89.9,214.9,88Z"/><path class="cls-122" d="M213,93.8v2.9C211.9,95.2,211.9,95.2,213,93.8Z"/><path class="cls-25" d="M41.2,91.9l-1,.8Z"/><path class="cls-123" d="M21.9,23.2c-.6.4-1.1,1.1-1.5,1s-.9-.7-1.3-1.1a5.5,5.5,0,0,1,1.5-.8C20.9,22.3,21.3,22.8,21.9,23.2Z"/><path class="cls-124" d="M26.9,22.4c.5.6,1.1.9,1,1.1a2.5,2.5,0,0,1-.8,1.2c-.2.1-1-.4-1-.5A8.3,8.3,0,0,1,26.9,22.4Z"/><path class="cls-2" d="M13.4,24.8a1.8,1.8,0,0,1,.9-2Z"/><path class="cls-125" d="M222.6,69.8c1.5,2.4,1.4,2.8-1,4.8l-.9,1h0l-1,.9h0c-.7-.4-1.7-.9-1.1-1.7a6.9,6.9,0,0,0,1.3-2.9A2.6,2.6,0,0,1,222.6,69.8Z"/><path class="cls-43" d="M217.8,80.4c-.1,1.3.5,2.8-1,3.8C217,82.9,216.4,81.3,217.8,80.4Z"/><path class="cls-43" d="M220.7,75.6l.9-1Z"/><path class="cls-43" d="M219.7,76.5l1-.9Z"/><path class="cls-126" d="M195.8,61.1l.4-.4a.3.3,0,0,0-.1.2l-.3.2Z"/><path class="cls-127" d="M244.3,59.1a.8.8,0,0,1-.4-.4h.4Z"/><path class="cls-93" d="M126.6,82.3l.4.2-.4-.2Z"/><path class="cls-29" d="M139.1,87.1v-.8a.8.8,0,0,1,.7-.1Z"/><path class="cls-29" d="M139.1,90.9V88l2.9,1.9Z"/><path class="cls-128" d="M70.3,59.5c.3,0,.4.1.4.4h-.3Z"/><path class="cls-129" d="M92.9,40a.9.9,0,0,1-1.3.7c-.6-.5-.3-1,.3-1.4A2.3,2.3,0,0,1,92.9,40Z"/><path class="cls-130" d="M92.9,40l-1-.7C92.5,39.1,92.9,39.2,92.9,40Z"/><path class="cls-30" d="M118.1,92.9l.3.6-.3.2A1.1,1.1,0,0,1,118.1,92.9Z"/></g></g></svg>