<svg xmlns="http://www.w3.org/2000/svg" viewBox="0 0 195.2 129.5"><defs><style>.cls-1{fill:#fff;}.cls-2{fill:#fefefe;}.cls-3{fill:#1a1919;}.cls-4{fill:#201c1c;}.cls-5{fill:#aaccc7;}.cls-6{fill:#201a1a;}.cls-7{fill:#1e1616;}.cls-8{fill:#313232;}.cls-9{fill:#343636;}.cls-10{fill:#060606;}.cls-11{fill:#241818;}.cls-12{fill:#202020;}.cls-13{fill:#100c0c;}.cls-14{fill:#1a1717;}.cls-15{fill:#181515;}.cls-16{fill:#adcec8;}.cls-17{fill:#d4d9d9;}.cls-18{fill:#2d2727;}.cls-19{fill:#bfd9d5;}.cls-20{fill:#060505;}.cls-21{fill:#a1c8c1;}.cls-22{fill:#b3d3cd;}.cls-23{fill:#85b5ad;}.cls-24{fill:#95c0b8;}.cls-25{fill:#bddbd7;}.cls-26{fill:#8db9b2;}.cls-27{fill:#98c2bc;}.cls-28{fill:#1e1b1b;}.cls-29{fill:#221e1e;}.cls-30{fill:#2c2020;}.cls-31{fill:#dddfdf;}.cls-32{fill:#dae4e4;}.cls-33{fill:#b2d6d2;}.cls-34{fill:#501111;}.cls-35{fill:#270606;}.cls-36{fill:#566462;}.cls-37{fill:#2c2525;}.cls-38{fill:#420909;}.cls-39{fill:#99c2bb;}.cls-40{fill:#abcec8;}.cls-41{fill:#c5dedc;}.cls-42{fill:#110f0f;}.cls-43{fill:#1b1919;}.cls-44{fill:#f1f4f4;}.cls-45{fill:#1c1818;}.cls-46{fill:#695151;}.cls-47{fill:#262323;}.cls-48{fill:#2e2828;}.cls-49{fill:#2e2424;}.cls-50{fill:#181414;}.cls-51{fill:#efecec;}.cls-52{fill:#2e2a2a;}.cls-53{fill:#1a2020;}.cls-54{fill:#403a3a;}.cls-55{fill:#ac8888;}.cls-56{fill:#0f0c0c;}.cls-57{fill:#2d2424;}.cls-58{fill:#1f1b1b;}.cls-59{fill:#201616;}.cls-60{fill:#211d1d;}.cls-61{fill:#818585;}.cls-62{fill:#080f0f;}.cls-63{fill:#141313;}.cls-64{fill:#8a8c8c;}.cls-65{fill:#201d1d;}.cls-66{fill:#181616;}.cls-67{fill:#1a1818;}.cls-68{fill:#141111;}.cls-69{fill:#262121;}.cls-70{fill:#342b2b;}.cls-71{fill:#c9cece;}.cls-72{fill:#642c2c;}.cls-73{fill:#a3cac4;}.cls-74{fill:#b1d3ce;}.cls-75{fill:#a8cbc5;}.cls-76{fill:#171515;}.cls-77{fill:#8ebbb3;}.cls-78{fill:#151212;}.cls-79{fill:#231b1b;}.cls-80{fill:#232121;}.cls-81{fill:#a0a4a4;}.cls-82{fill:#281c1c;}.cls-83{fill:#d5c8c8;}.cls-84{fill:#161111;}.cls-85{fill:#bbd6d6;}.cls-86{fill:#a9c7c7;}.cls-87{fill:#3e1919;}.cls-88{fill:#0e0c0c;}.cls-89{fill:#89b9b2;}.cls-90{fill:#ebf5f5;}.cls-91{fill:#492d2c;}.cls-92{fill:#cae6e6;}.cls-93{fill:#a09b9b;}.cls-94{fill:#242020;}.cls-95{fill:#590f0f;}.cls-96{fill:#181313;}.cls-97{fill:#f9fbfb;}.cls-98{fill:#b8b5b5;}.cls-99{fill:#8dbbb3;}.cls-100{fill:#726363;}.cls-101{fill:#306b6b;}.cls-102{fill:#e9eaea;}.cls-103{fill:#eceded;}.cls-104{fill:#e9eded;}.cls-105{fill:#d7e9e9;}.cls-106{fill:#b9c3c3;}.cls-107{fill:#272020;}.cls-108{fill:#c2bfbf;}.cls-109{fill:#e4e7e7;}.cls-110{fill:#9cc6c0;}.cls-111{fill:#a0cac4;}.cls-112{fill:#9bc4bd;}.cls-113{fill:#e5e8e8;}.cls-114{fill:#eff0f0;}.cls-115{fill:#d9e9e9;}.cls-116{fill:#e9e8e8;}.cls-117{fill:#9cc4bd;}.cls-118{fill:#b9cbcb;}.cls-119{fill:#153030;}.cls-120{fill:#e6eaea;}.cls-121{fill:#e9e5e5;}.cls-122{fill:#402626;}.cls-123{fill:#598079;}.cls-124{fill:#a9c8c8;}.cls-125{fill:#a5aaaa;}.cls-126{fill:#474d4d;}.cls-127{fill:#516e69;}.cls-128{fill:#537770;}.cls-129{fill:#525050;}.cls-130{fill:#424b48;}.cls-131{fill:#cddfde;}.cls-132{fill:#372f2f;}.cls-133{fill:#4a494a;}.cls-134{fill:#7e6664;}.cls-135{fill:#685e5a;}.cls-136{fill:#bcbfbf;}</style></defs><title>differentesassociations</title><g id="Layer_2" data-name="Layer 2"><g id="differentesassociations"><path class="cls-1" d="M143.3,100.8l-.3-.3c-1.3-1.2.2-3.4-1.7-4.2s-2.7-.8-4.1-1.3a8.9,8.9,0,0,1-1.6-.9c7.4-.3,7.6-7.8,11.5-11.5,1.1-1.1-.2-2.8-.1-4.2,0-5,2.3-9.2,5.2-13.1.8-1.1,1.9-2.4,3.5-1.8s1.9,2.1,2,3.6-.5,4.1-.7,6.1-1,3.3-.3,5a27.1,27.1,0,0,1,5.4-11.5c1.5-1.7,3.2-3.6,5.7-2.6s1.8,3.3,1.8,5.4-1,5.9-1.2,8.9a39.9,39.9,0,0,1,4.3-8.8c1.1-1.7,2.3-4,4.7-3.3s1.6,3.2,1.7,5c.2,4.3-2,8.5-.9,12.8.1,1,.4,2.1-.7,2.8-4.9,1.8-10,.4-15,1.4a34,34,0,0,0-9.4,2.8c-2.2.2-3.3,1.6-4.2,3.4S146,99.4,143.3,100.8Z"/><path class="cls-1" d="M130.9,26.9c1.8.1,3.5,1.5,5.5.2s1.8,0,2.5.7A18.8,18.8,0,0,1,145.2,43a4.6,4.6,0,0,1-1.6,3.3,3.1,3.1,0,0,0-.4,4.3,12,12,0,0,1,1.5,2.4c.3.7.5,1.8.1,2.2a8.4,8.4,0,0,0-1.5,5.9,2.9,2.9,0,0,1-2.2,3.2,10,10,0,0,0-2.8,1.7,4.2,4.2,0,0,1-5.3.6,3.7,3.7,0,0,0-3.9,0c-1.2.5-2.4.7-3.7,1.2L126,71a3.2,3.2,0,0,1-1.8,1c-1.1.2-2.2.2-3.3.3s-3.5,1.3-5.5,1.2c-.4.2-.9.4-.9.9-.8,6.4-.8,6.4-6,2.5a6.7,6.7,0,0,0-2.5-1.3,17.5,17.5,0,0,0-3.2.4c-2,0-3.7,1.2-5.6,1.5s-2.7-2.8-3.2-4.7a2,2,0,0,0-.6-.9c-1.2-.3-1.6,1.7-2.9,1S90.2,69.6,88,69s-1.7-1.1-2.7-1.7l-2.5-1.1c.1-3,1.8-3.8,4-2.3s7.1,2.1,10.9.8,6.5.6,9.8.5,8.4-1.6,12.7-1.3c2.6.2,2.6-1.7,2.7-3.5s-.1-3.4,1.6-3.5,1.3,2.2,2.3,3.1.8-1.8,1-2.7.7-3.3,2.8-3.1,2,1.6,2.3,3c1.2,5.2,1.4,5.3,6.5,4.2,3-2.9,1.7-5.6-.3-8.3h-3.2c-1.7-.2-3.8-.2-4.1-2.3s1.7-2.8,3.2-3.5,5.1-1.9,5.9-4.9.6-4.6-.8-6.7l-.8-1-.4-.5a23.9,23.9,0,0,1-1.3-2.1,1.5,1.5,0,0,0-1.9-.7h-1.2C132.6,30.4,129.8,30.2,130.9,26.9Z"/><path class="cls-2" d="M126.2,62.3c-.3-.4-.9-.9-1-1.5a9.1,9.1,0,0,0-.9-3.1c-.1,1.8-.1,3.6-.2,5.4s-.6,2-2.1,2.1a5.9,5.9,0,0,1-2.3,0,5.2,5.2,0,0,0-4,.5c-1.7.8-4,.5-6.1.5s-2.7-.7-4,.5a2.1,2.1,0,0,1-2.7-.1,6,6,0,0,0-6.3-.3c-3.8,1.7-7.1.9-10.4-1.4-1.5-1.1-1.6-1.1-2.9.5s-.3.6-.5.8h0l-.9,1c-2.9.2-4.1-1.1-3.6-4a2.5,2.5,0,0,1,.8-1c1.4-.1,3.8.9,2.5-2s2-2.3.9-3.9a1.4,1.4,0,0,1-.7-.8l1-1.7c2.1-1.3,3.2-2.9.9-4.7s-1.9-3.1-1.8-4.9V39.4c-2.4-3-7.2-1.7-9.4-5.1-.6-.9-2-1-2.4-2.3s-2.7-2.7-5-2.2A18.4,18.4,0,0,1,54,28.7c-.1-2.7,2.2-2.8,3.9-3.5,6.8-1.1,12.8,0,17.2,6,1.6,2.1,3.7,3.7,6.5,1.9.9-.7,1.4-1.7,2.2-2.4s2.5,1.5,3.8,1.9h2c1.2-.7,2.9-.6,3.8-1.9V27.8c-.4-1.7-.4-3.3,1.7-4a1.9,1.9,0,0,1,1,1c.1,4-.2,8.1.3,12.1-1.8,4-3.1,4.3-5.4.8s-3.3-2.2-5.1-.4c-3.3,4.9-.2,8.3,2.7,11.7l.3.5c0,.2.1.3.1.5a2.8,2.8,0,0,1,.1.9c.4.4.8.2,1.3.1l1.1-.2c2.1-.3,4.2.5,6.3.2a12,12,0,0,1,2-.3,121.3,121.3,0,0,0,20-.6l4.7-1,3.2-.7,1.2-.4a11.1,11.1,0,0,0,4-1.3l1.1-.6a21.6,21.6,0,0,0,5.9-3.4,2.9,2.9,0,0,1,2.4-.6c-.2,3.2-2.7,4.4-5.1,5.5s-2.6,1-3.9,1.6-.9,1.1-.7,1.5a1.9,1.9,0,0,0,1.3,1c1.6.2,3.2.1,4.7.2a1.6,1.6,0,0,1-1.2,1.7c-2.9,1.2-6-.6-8.9.6s-1.8,1.8-1.5,3.4S127.5,60.9,126.2,62.3Z"/><path class="cls-1" d="M172.1,44.2c-.1-.5-.1-1.1-.4-1.4a8.7,8.7,0,0,1-3.5-4.9,2.5,2.5,0,0,0-.4-.9c-3.8-2.4-2.2-6.3-2.2-9.6,0-1,1.2-2.1,1.9-3.1s.9-2.9-.9-4l-1.7-.9a3.7,3.7,0,0,1-2.4-2.7,8.8,8.8,0,0,0-1-2.2,1.5,1.5,0,0,0-2.4-.6,5.7,5.7,0,0,1-4.8,1,4.7,4.7,0,0,0-5,2,4.7,4.7,0,0,1-4.1,2.2,5,5,0,0,0-4,2.1c-1.4,1.8-4.2,1.6-5.8-.1a1.8,1.8,0,0,1,.2-2.9,5.5,5.5,0,0,0,1.7-.5,29,29,0,0,0,3.6-2.5c4.4-3.1,9.6-3.5,14.7-4.4a6.5,6.5,0,0,1,3.4-.1l3.1.8a2.7,2.7,0,0,1,1.2.3l1.7.7,1,.6a11.6,11.6,0,0,1,2.2,1.3c2.4,2,4.4,4.1,5,7.3s-.4,4.6-1.5,6.8a12.4,12.4,0,0,0-1.1,6.8c2.7,3.9,4.6.1,5.2-1.2,1.8-4.5,4.2-9.2,2.4-14.4l-.6-1-.9-1.5a4.1,4.1,0,0,0-.5-.9l-1.1-1.2-.8-.7-.7-.9a4.9,4.9,0,0,1-.4-1.1,3.2,3.2,0,0,1,.8-2.8c1.8.7,2.2,3.2,4.5,3.4.4,0,1,.8,1.1,1.4a4.4,4.4,0,0,0,2.2,2.9,3.3,3.3,0,0,1,1.7,4.1,24.4,24.4,0,0,0-.9,6.6,1.4,1.4,0,0,1-.3,1.3c-2.7,1.9-1.9,5.3-3.5,7.6a13,13,0,0,1-1.8,1.5c-2,1.8-3.3,3.9-3,6.7C173,45.6,172.5,45,172.1,44.2Z"/><path class="cls-2" d="M130.9,26.9c.7,2.4,2.6,3.3,4.8,3.9-.9,3.3-.2,5.7,3.6,6.4,1.5,4.9-2.7,4.8-5.3,6.1-4.8.6-9.5.1-14.3.3s-9-.3-13-2.8a5.8,5.8,0,0,1-1.1-3.1c0-4.8.3-9.5,4.4-12.9,2.4.9,1.5,2.7,1,4.3a26.6,26.6,0,0,0-1.6,5.5c-.4,3.3.5,3.9,4,2.5s2.7-1.7,3.1-3.5.4-2.7,2.3-1.7.6,3.5,1.2,5.1a2.4,2.4,0,0,0,2.5,1.8c1.3-.1,1.9-.9,2.1-2.2s-.3-5,.9-7.4,2.1.4,2.4,1.5,0,4,.7,6.5c.1-4.8.4-9-1-13.2s-3.2-4.9-6.5-2.3-4.5,3.6-7,.1c-1.3-1.8-2.7-.9-4,.4s-2,3.6-3.8,4.8a2.3,2.3,0,0,1-2.5-.6c-1.3-2.6-2.3-5.5-5.4-6.8a1.3,1.3,0,0,1-.4-1.2c3.7-2.8,2.5-7.1,3.2-10.9a7.5,7.5,0,0,1,.7-1.2c1.9.2,2-3.3,4.3-2s.1,3.4,0,5.1c-.4,5.6.4,6.4,5.9,6.3a6.3,6.3,0,0,1,3.6,1.9c1.6,1.6,2.9.8,4.2-.5s4.2-2.1,6.4-3a1.6,1.6,0,0,1,1.1.5c.6,1.1-.2,2.5.6,3.6l1.9,2a1.4,1.4,0,0,1,0,1.9c0,.6.1,1.3.1,1.9l.8,1A12.8,12.8,0,0,0,130.9,26.9Z"/><path class="cls-1" d="M28.1,85.4c-.6-.7-1.6-1.3-1.7-2.1a6.9,6.9,0,0,1,.4-3.7c.9-2.1,2.6-3.9,2.6-6.5,0-.4.9-1,1.4-1s3.9-.5,5.5.9a1.7,1.7,0,0,0,2.2-.2c2-1.5,4.1-2.2,6.7-1.1.7.3,1.8-.2,2.7-.4a8.8,8.8,0,0,1,6,.6c1,.5,2.2.7,3.1,1.2a3.9,3.9,0,0,0,4.8-.5c1.3-1,2.7-1.8,4.5-.9s1.2.1,1.8-.1,1.3-.6,1.8-.5c4.5.9,8.8-.5,13.3-.1,1.5.1,2.8.4,3.5,2a2.3,2.3,0,0,1-1.2,1.5,3.1,3.1,0,0,1-1.3.3c-2.7-.2-5.5-.9-8,1.1-.9.9-1.5,2.1-2.8,2.6a6.2,6.2,0,0,1-1.9.2c-3.3-.2-2.9,4.7-6.3,4.4a2.6,2.6,0,0,1-1.6-.9,2.4,2.4,0,0,1-.6-1.1,5,5,0,0,1-.2-1.2l.3-1a4.1,4.1,0,0,1,.5-.9l.3-.4a2.5,2.5,0,0,0,.4-.7v-.3l-.3-.2-.6.4-.5.6-.2.4a3.6,3.6,0,0,1-.4.9,4.1,4.1,0,0,1-.5.9c-.6.8-1.1,1.6-2.3,1s-1.2-2-2-2.8c-3.2.2-5.5-2.6-8.7-2.2a6.4,6.4,0,0,1-1.8.6c-2.7-1-5.3-1.6-7.5,1s-4-1.2-5.8-2.3c-3.9-.6-2,2.9-3,4.3S31,84.2,28.1,85.4Z"/><path class="cls-2" d="M85.7,73.9l1-.9h3.8L91.6,71c.3-.5.7-1.2,1.2-1.3s1.3.7,1.4,1.5h0c1.6.8,1,2.4,1.1,3.6a2.2,2.2,0,0,0,2.1,2.1,2,2,0,0,1,.4.8c.5,1.5-1.4,4.3,1.9,4.3s3.1-2.5,2.7-4.8a2.8,2.8,0,0,1,.5-2.2l3.3-.8c-.3,3.7,2.6,4.6,5.2,5.9.8.4,1.5,1.3,2.5.6s1-1.8.9-3-.9-3.7.4-5.5a3.4,3.4,0,0,0,3.3-.6c.5-.4,1.4-.2,2.1-.4s-.6,2.2-.3,3.3c1.4,5.6,1.4,5.8-.7,8.7a1.4,1.4,0,0,1-.8.9c-3.7,2.2-7.8.5-11.7.7s-7.9.6-11.6,2c-1.4.6-2.8.8-4-.4s-.1-2.6-.2-3.9a.9.9,0,0,1,.2-1.1c.7-.1,1.7.1,1.7-1.1s-.1-.8-.3-.8-.7.9-1.2,1.3-2.6-2.8-4.1-.2v1.9a2.8,2.8,0,0,1-2.8,3c-2.4-.1-5,3.6-7.1-.6a2.4,2.4,0,0,1,.6-1.1c1.7-3.8,1-5.9-3-8.7a9.2,9.2,0,0,1,6.3-1.8l3.2.7c-1.5,2.3-.1,4.4.3,6.6-.3-1.9-.5-3.7,1.4-5S84.3,75.2,85.7,73.9Z"/><path class="cls-2" d="M19.5,94.1h4.8c.3.4.2.7-.2,1.1-4.5,1.2-.5,4.9-2.6,7.1,2.6-.6,2.4-1.9,1.8-3.3s-.9-2.8.7-3.8a3.6,3.6,0,0,1,3.5.1c.9,2.2,2.8,4,2.6,6.9,3.3-1.8-1.3-6,2.5-7.5,1.9-1.5,4-1.4,5.3.6s2.1,1.2,3,1.9c-.5,4.4-1.1,4.7-4.8,3a3.3,3.3,0,0,0,5,.9c1.7-1.1.7-2.7-.4-4a.6.6,0,0,1-.3-.7c0-.3.1-.4.2-.4l3.8,1c1.5-.5,2.1-2.1,3.4-2.6s4.3-1.2,3.4,2.5c-1.3.9-3.9.8-3.5,3.1s2.3,2.2,4.2,1.7a10.4,10.4,0,0,1,6.5.5l.5.5c-1.2,1.2-2.4,2.1-4.2,1.4a3.1,3.1,0,0,0-2.3,0,6.1,6.1,0,0,1-4.6-.1,5.8,5.8,0,0,0-3.2-.1,8,8,0,0,1-4.6.2c-1-.3-2.2.3-3.2.5-4.3.7-8.7.7-13,1.3s-5.3.1-7.2-2.2-.8-3.2-1.5-5.1a7.6,7.6,0,0,0,1.7,5.4c-.4,1.1-1.1,1.4-2.1.6h-1a2.6,2.6,0,0,1-.9-1.9V95a2.1,2.1,0,0,1,0-2.8c.9-2.3,1.6-2.5,3.7-.9l-.5.5-.8.5c.1,0-.1.4-.1.4s.1.3.1.3h.4s-.2-.3-.1-.3.2-.5.4-.8l.6-.6c.9.3,1,1,1.1,1.8S18.3,94.9,19.5,94.1Z"/><path class="cls-1" d="M137.6,78.7l3,.3,3-6a4.9,4.9,0,0,0,.6-1.7,16.8,16.8,0,0,1,3-6.5c.7-1.2,1.3-2.5,1.9-3.8a6.9,6.9,0,0,0,.3-5.1,10.1,10.1,0,0,1,1.3-8.2c1.5-2.4,2.8-4.9,5-6.8s4.8-2,6.2,1.3a9.5,9.5,0,0,1,.6,2h4.8c.7,1.6-.7,2.6-1.3,3.8-1.9,3.8-1.9,3.8-4.4,0-1.2-1.1-1.3-3.7-3.6-3.2s-2.5,2.3-3.1,3.9c-1.5,3.6-.8,7.2.6,10.6a6.8,6.8,0,0,1-.2,1.4,41.4,41.4,0,0,0-9.1,15.2,8.3,8.3,0,0,0-.7,2.7c-.9,4.8-2.4,5.6-7.5,4.1a3.1,3.1,0,0,1-.9-1.1A2.6,2.6,0,0,1,137.6,78.7Z"/><path class="cls-1" d="M191.3,94.1a19.8,19.8,0,0,0,.8,2.6,13,13,0,0,0,1.8,2.3c2,2.9,1.8,4.6-1,6.8a13.9,13.9,0,0,0-2.7,3.2c-1.8,2.8-3.5,6-7.6,6.4a7.7,7.7,0,0,0-3,1.5,9.8,9.8,0,0,1-5.7,2.2,9.1,9.1,0,0,0-2.5,1.1c-2.3,1.3-4.7,1.6-6.8.2a8.1,8.1,0,0,0-5.4-1.3,5.6,5.6,0,0,1-4.7-1.8c-.9-.9-2-1.5-3-2.4-3.2-2.7-5.9-5.8-6.3-10.3,3.8-1.7,3.7,1.5,4.4,3.5l1,1.7a8.3,8.3,0,0,0,4.4,3l1.7,1c11.2,7.4,27.3.3,32.6-10.4,1-2-.1-3.3-.6-4.9a4.9,4.9,0,0,1,.5-4.4A1.5,1.5,0,0,1,191.3,94.1Z"/><path class="cls-2" d="M162.4,47.1,164,50a17.9,17.9,0,0,1,1.3-3.2,12.8,12.8,0,0,1,2-2.6h4.8l1.9.9-.2,2.1c-5.4-.5-7.2.8-7.9,5.8-.2,2.1-.2,4.4,2.4,5s3.7-1.7,4.3-3.9-.4-4.8,1.2-6.9c1,.2,1.2.9,1.2,1.8s2.8,1.4,3.4,3a3.6,3.6,0,0,1,.4.9c1.2,7.6,1.6,7.8,8.2,3.6.5.3.7.6.6,1.1a4.6,4.6,0,0,1-3.6,3.9c-1.4.4-3.1.8-3.2,2.8l-.6.3c-5.7,2.7-10.4.1-15.1-2.9-1.1-2-3.4-2.8-5-4.5A19.5,19.5,0,0,1,162.4,47.1Z"/><path class="cls-1" d="M54,28.7c1.8.3,3.8-.9,5.4.8,1.9-.1,3.9.3,5.8-.8s4.6-.2,5.5,1.2.3,1.9.8,2.5,1.8.8,2.4,1.4a7.4,7.4,0,0,0,6.2,2.8c1.8-.1,1.7,1.5,1.8,2.8a14.1,14.1,0,0,0-3.2-.9c-3.8.1-6.4-1.9-8.4-4.7s-4-3.2-6.9-3.1-4.8-.2-7.2-.3a2.6,2.6,0,0,0-1.7.5c-1.4,1.2-2.7,2.6-4.7,3.1s-1.2,1-1.6,1.6a4.7,4.7,0,0,1-4.6,2.8,3.1,3.1,0,0,0-2.8,1.5c-1.8,3.2-5,3.1-7.9,3s-3.7-.7-5.6-.7a3,3,0,0,1-3-1.9c1.3-1.5,3.2-1.3,4.9-1.2,7.5.7,13.1-3.6,18.8-7.4a15.5,15.5,0,0,1,5.3-3Z"/><path class="cls-1" d="M91.5,86.4c1.2-.2,2.7,0,3.7-.6a7.7,7.7,0,0,1,4.9-1.3,5.2,5.2,0,0,0,3.6-1,1.6,1.6,0,0,1,1.6.1,2.2,2.2,0,0,0,3-.1c1-.9,2-.7,3.1-.1s3,1.4,4.8.1,2.1,0,3.1,0,2.8-.2,3.9,1a3,3,0,0,1-2.6,1.8l-3.8.2c-.6.1-1.2.9-.8,1.4s2.3,4.5,5.6,4.4a4.1,4.1,0,0,1,2.6,1c1.1.8,1,1.8-.1,2.7a18.1,18.1,0,0,1-5.2,0,2.8,2.8,0,0,1-1.3-.3c-1.8-1-2.3-3-3.4-4.5l-.7-.9a3.6,3.6,0,0,0-4.4-.1l-1.1.7a2.4,2.4,0,0,1-1.2.3c-1.1-.8-.8-2-1-3a2.8,2.8,0,0,0-3.5-2.3,23.2,23.2,0,0,0-4.4,1.6,7.6,7.6,0,0,1-5.1.7C91.8,88,91.6,87.2,91.5,86.4Z"/><path class="cls-1" d="M22.4,40.3a3.2,3.2,0,0,1-3.1,1.9H10.2A5.1,5.1,0,0,1,8,41.6c-2-1.2-3.8-2.4-5.6-3.7S-.3,34.7.1,32.1,1,27.4,3,25.8A6.4,6.4,0,0,1,7.3,24H19.8c.5,0,1.1.6,1.6.9-1.9,1.9-5.4,1.5-6.8,4.3l-1.3.4a5.2,5.2,0,0,1-3.5-1.2c-2.7-2-4.6-.4-6,1.6s-.5,4.2,1.5,5.7a17.8,17.8,0,0,0,10.2,3.4C17.8,39.2,20.4,38.5,22.4,40.3Z"/><path class="cls-2" d="M81.7,128.5c-1.1.7-1.9.7-2.1-.1a16.5,16.5,0,0,1-.6-3.2c-.3-1.8-.6-2.2-2.4-2.3s-4.7,0-7.1,0-2.2,0-3-1l.3-.5a8.1,8.1,0,0,1,2.4-1.7,16.2,16.2,0,0,1,2.2-.1c.9-.5.8-1.3.5-2.1s-1-.2-1.5-.1H69.1c-1.8-1.8-4.8-1.5-6.6-3.6l.3-.6h3.8c2.1.1,3.6-.2,4.1-2.8s2.7-1.4,3.3.1,2.3,2.7,4.4,2.7l7.6.2a4.3,4.3,0,0,1,.1.5v.5l-.3,1.6a14.8,14.8,0,0,0,.1,2.1,1.3,1.3,0,0,0,.3.8l.4.3a3.2,3.2,0,0,0,1.4.1l1.1.2a2.2,2.2,0,0,1,.7.9.8.8,0,0,0-.2.5c-.6.2-1.2.7-1.8.7s-2.9,1.1-4.1,2.1c-1.4-1.5-.9-3.6-1.6-5.3s-1.4-3-3.4-2.7a3.1,3.1,0,0,0-2.7,2.4c-.3,1.9,1.4,1.9,2.8,2.4C82.6,122.1,80.6,125.9,81.7,128.5Z"/><path class="cls-2" d="M22.4,40.3H15.2c-4.5.3-8.3-1.6-11.7-4.3S1,30.6,2.8,28.9a18,18,0,0,1,3.9-2.7c1.1-.6,2.2.1,3.1.7s2.3,2.2,4.1,2C12.8,32,10.6,30.3,8.7,30s-2.6-.6-3.4.8.2,2.7,1.3,3.7,4.8,2.3,7.4,3.1,5.4.4,8.1,0h1.4c5.6,0,11.1-.3,16.2-2.6l2.4-1a10.7,10.7,0,0,0,3.8-2,3,3,0,0,1,2.9-.8l.5.4A9.5,9.5,0,0,1,43.8,36a15.5,15.5,0,0,0-4.6,2.4,9.4,9.4,0,0,1-6.3,1.9H22.4Z"/><path class="cls-2" d="M38.4,120.8,34,125.9l-.5-.5c-1.5-2.5-.2-5.3-.3-8.1-1.5.5-2.2,2.6-4.5,1.2,2,2.2,4.9,3.6,1.9,6.4H30c0-2-1.5-3-3-4.3-.7,1-1.1,2.2-2,2.7s-2.4.5-3.6.6a2.6,2.6,0,0,1-3.8,0h0a1.1,1.1,0,0,1,.2-1.2,3.5,3.5,0,0,1,1.2-.7c5.7-1.8,5.8-2.1,4.4-8.6-2.3,1.8-3.2,5.4-7,4.5a2,2,0,0,1,.2-2.6h1c.5-.5.4-1.4.9-1.9s1.5-.5,1.6-.9c.7-2.8,2.7-3.2,5.1-3h1a2.4,2.4,0,0,1,0,2.9c.5,2.9,1.4,3.6,3.5,2.2a5.8,5.8,0,0,1,3.9-1.2l6.2.2C38.7,115.8,35.8,117.8,38.4,120.8Z"/><path class="cls-2" d="M137.5,81.6a23.7,23.7,0,0,0,3.6.9c2,.1,2.9-.8,3.1-2.8s0-2.2.2-3.3.7-1,1-1.5c1.9,2.1.4,4.5.9,6.3.1-.9-.2-2.4,1.7-2.8l.6,2.3c.6,2.2.5,2.5-1.7,3.7s-1.7.9-1.6,2-2,4.2-2.5,6.5c-.1.4-1,.8-1.5.9s-3.8.2-5.7.3c-.4-2.7-4.2-3.5-3.8-6.7V82.6c.4-2.2,1-4.2,3.8-3.9h2c0,1-.1,2-.1,2.9-2.2,1-3,2.7-2.2,5s2.2,2.5,4,2.8a2.4,2.4,0,0,0,2.4-1.2c.5-1.1-.3-1.7-1.1-2.3S136.4,84.7,137.5,81.6Z"/><path class="cls-1" d="M118.4,105.6c-2.5.7-4.9,1.4-7.5.7a1.9,1.9,0,0,0-1.3.1c-4.4,2.3-9.1.7-13.6,1-1.9.1-2.8-1.9-4.3-2.7s-1.1-1.8-1.2-2.9a3.2,3.2,0,0,0-.3-1.4c-1.3-2.9.3-4.9,2.3-6.6a1.7,1.7,0,0,1,2.8.3c-.5,1.9-2,3.5-2.1,5.6s.2,2.7,1.7,3.3a40.9,40.9,0,0,0,16.7-.2l1.3.2C114.7,103.9,118.1,101.4,118.4,105.6Z"/><path class="cls-1" d="M87.6,32.6c-1.7.4-2.7-1-3.9-1.8l-.4-.4-.8-1.2a3.3,3.3,0,0,1-.6-1,10.9,10.9,0,0,0-1.3-1.7l-.6-1a15.2,15.2,0,0,0-3-3.7l-.8-.9a5.4,5.4,0,0,0-5.7-2.2,5.6,5.6,0,0,1-1.3,0l-2.5-.8a4.3,4.3,0,0,1-1-.9c-1.1-1.5-2.4-1.7-4.2-1.1s-3.4-.1-3.6-2.5c3.8-1.7,7.4-1.4,10,1a6,6,0,0,0,5.2,1.9,13.1,13.1,0,0,1,2.8.1c.8.1,1.8.2,2.2.7C80,19.4,82.6,21,83.7,24S86.3,29.8,87.6,32.6Z"/><path class="cls-1" d="M120.5,17c-.3,1.8-1.6,2.6-3.1,3.8a30.7,30.7,0,0,0-2.5-2.6,26.5,26.5,0,0,0-2.6-2.1.8.8,0,0,1,.2-.5,14.8,14.8,0,0,0,1.2-2.9l.3-1.2c.6-1.6,0-3.5,1.5-4.8,1.7-3,4.7-4.6,7.6-6.1s4.8-.4,6,2.4,2,3.6,1.7,5.8-.8,1.6-1.9,1.8-.9-2.8-1.5-4.1a5.4,5.4,0,0,0-.5-1.1c-3.2-2.2-5.6-.9-7.6,1.8l-.6,1.1c-1.5,2.8-1.9,5.5,1,7.8Z"/><path class="cls-2" d="M64.5,54.7c1.3-1.3,2.6-1.4,3.9,0s2.3,1.2,3.2,2.2a1.7,1.7,0,0,1-.8,2.2l-1.2.4c-2,1.7-1.2,3.3.1,4.8a3.3,3.3,0,0,0,1.7-.1,3.1,3.1,0,0,0,1.4-2.9c-.1-4.4,2.4-4.9,5.9-4.2a1.9,1.9,0,0,1,1,1c.4,1.5.6,3-.6,4.3h-.2c-2-.4-2.9,1.6-4.5,2s-.4,3.1-2.1,3.8c-3.6.2-7.2-1.2-10.8-.4a1.9,1.9,0,0,1-1-.8c.1-.2,0-.4.1-.5,3.9-5.2,3.9-5.2,0-10.3l.3-.6h.8C62.5,54.8,63.8,55.7,64.5,54.7Z"/><path class="cls-2" d="M43.4,113.5l3.9-.3.3.5a2.8,2.8,0,0,1,.1.9,1.8,1.8,0,0,0,.5.7l.8.5a1.4,1.4,0,0,1,.5,1.3,5.6,5.6,0,0,1-.5.8,2,2,0,0,0-.1,1.5c1.9,1.6,3.4,2,3.4-1.3,0-1.2-.3-2.4.4-3.5l.5-.5c.7.3,1.2.8,1.9-.2,1.7-2.6,4.6-3.4,7.1-1.9.3.2.4.8.6,1.2l-.3.3c-1,1-2.5.7-3.6,1.3s-2.2,3.1-.3,4.8l.3.5a3,3,0,0,1-3.2,2.8l-4.6.5c-.6,0-1.4.2-1.8-.1a4.4,4.4,0,0,0-5.6.2l-.8-.8C43.5,119.6,43,116.6,43.4,113.5Z"/><path class="cls-3" d="M81.7,128.5c-.9-.5-1.8-.8-1.8-2s.1-3.2.1-4.9l-2.6.3a3.2,3.2,0,0,1-2.5-4.9,4.8,4.8,0,0,1,6.9-2,2.7,2.7,0,0,1,1.3,1.8c.3,2.3.4,4.7.6,7v.5c-.6,1,0,2.4-1,3.3h0a1.4,1.4,0,0,1-1,1Z"/><path class="cls-1" d="M71.3,85.4c-1.7,2.6-4.5,3.1-7.1,2.8s-4.6-1.3-7-.2c-.5.2-1.2-.3-1.8-.4a13.1,13.1,0,0,0-2.8.1c-4.9,1.2-9.8.5-14.7.4-.4,0-.8-.5-1.1-.7-.5-1.7.6-2.1,1.8-2.3,6.8.8,13.5-.7,20.2-.8l1.2-.5a6.2,6.2,0,0,1,2.7,0,10.5,10.5,0,0,0,5,.2C69.1,84.1,70.4,84.3,71.3,85.4Z"/><path class="cls-2" d="M92.4,99.8c-.2-2.5.4-4.6,2.9-5.7h3.9c2-.5,3.2,1.3,4.8,1.9h.9a1.7,1.7,0,0,0,1.8-1c.1-1.2.1-2.5.1-3.8l1.1-.7c2,2.7,1.1,5.8,1.1,8.7s-1.3,3.5-3.6,3.4a2.4,2.4,0,0,1-1.4-.5,2.3,2.3,0,0,1-.6-1.2c-.8-3.3-1.9-.7-2.6,0s-2.9,2.2-4.7,1-.6-3.1.1-4.7c-1.2.9-1.7,2.4-3.1,2.8Z"/><path class="cls-1" d="M16.4,103.5a5.5,5.5,0,0,1,1.8.6,6,6,0,0,0,6.3.4,4.4,4.4,0,0,1,3.2-.2c1.8.5,3.7.8,5.4-.4s2.6-.4,3.7.7c-2.1,1.4-4.7,1.6-6.9,2.8-2.9-1.3-5.4,0-8,1a2.3,2.3,0,0,1-1.4-.1c-2.1-1-4.6-1.4-5.8-3.7.8,0,1.5-.2,1.7-1.1Z"/><path class="cls-1" d="M86.7,103.7c-1.3,2.4-2.3,3.2-4.3,2.5a6.6,6.6,0,0,0-5.8.6,8.3,8.3,0,0,1-6,.8c-1.5-.4-3.3-.6-4-2.1a36.6,36.6,0,0,1-1.7-5.9c0-.3.4-.8.7-1.2A3.4,3.4,0,0,1,68.4,97c1.2,1.9-1.9,4.3.6,6.2s4.4,1.5,6.6,0a3.8,3.8,0,0,1,3.7-.5l1.2.4a5,5,0,0,0,3.4.2l1.2-.2A1.7,1.7,0,0,1,86.7,103.7Z"/><path class="cls-1" d="M181.7,80.6a1.7,1.7,0,0,0,2.1.8c1.9-.7,3.9-1.2,5.4-2.8s2.5-.9,3.8.4,2.6,5.4,1.9,8.4a3.6,3.6,0,0,1-3.5,2.8A2.1,2.1,0,0,1,191,89c.1-2.3,1.2-4.6,0-6.9a1.2,1.2,0,0,0-1.2-.6,3.7,3.7,0,0,0-1.2.7l-1.3,1-2.4,1.7-1.1.4c-1.8.2-3.6.5-4.5-1.6a2.8,2.8,0,0,1,.1-1.3C179.9,81.5,180.2,80.2,181.7,80.6Z"/><path class="cls-2" d="M149.1,109.4a7.2,7.2,0,0,1-.9-2c-.5-2.4-.5-2.4-3-2.8s-2-2.2-1.9-3.8a10.3,10.3,0,0,1,1.1-2.1,22.8,22.8,0,0,0,4.9-7.4c.6-1.4,1.9-.9,2.9-.9.1,2.1-1.6,3.5-2.4,5.2a15.7,15.7,0,0,1-3.1,4.8c2.6-.9,4.7-3.8,7.5-1.2a1.9,1.9,0,0,1,.1,1.3c-.4,1.1-1.7,1.7-2.3,2.8l-.6,1.1c-.9,1.4-1,3.1-1.8,4.6Z"/><path class="cls-2" d="M68.4,103.7c-1.7-.9-2.2-1.4-1.8-2.5s1.2-2.8,1.8-4.2l1-1a8.9,8.9,0,0,1,2.9-2.9c.4-2.7.4-2.7,2.5-2.8h2.3c1.4,1.7,1.8,3.9,3,5.8a13.3,13.3,0,0,0-.1,7.4c-1.2.4-2.7-.8-3.9.3l-.5-.4c-1.3-2.7-.3-5.6-.9-8.6-2.7,2.4-5.2,4.8-5.8,8.6Z"/><path class="cls-4" d="M43.4,113.5c1.5,2.2,1.6,4.7,1.3,7.3s-1,1.5-1.8,1.9h-.1c-1.3-.8-.5-2.2-1.1-3.2V119c-1.9-.9-2.1,1.3-3.2,1.8h-.1c-.7,0-1.8.2-1.9-.7a22.6,22.6,0,0,1,0-4.5c0-.3.6-.6,1-.8l2.3-1.3h0a2.3,2.3,0,0,1,3.5,0Z"/><path class="cls-5" d="M155.9,11.6a13.8,13.8,0,0,1-2.7.8,32.8,32.8,0,0,0-12.6,4.1c-.9.3-1.2-.2-1.5-.9s.8-2,1.8-2.6l1.2-.7c3.2-2.7,7.7-1.3,11.1-3.3a4.4,4.4,0,0,1,1.5-.5c3.1-.2,6.3-.5,9.4.2a10.1,10.1,0,0,1,1.3.9h.9a.9.9,0,0,1-.1,1.3C162.9,12.9,159.2,9.8,155.9,11.6Z"/><path class="cls-6" d="M32.8,95.3c0,1.2-1.7,2.1-.2,3.8s.5,4.3-2.2,4.6a6.6,6.6,0,0,1-2.3-.4,1.2,1.2,0,0,1-.1-2.2c1.4-.6,1.5-1.1.2-1.9s-1.2-2.4-.8-3.9a1.3,1.3,0,0,1,.1-.6,6.1,6.1,0,0,0,1.8-.5h2.3l.5-.3a1.6,1.6,0,0,1,.8.8A.9.9,0,0,0,32.8,95.3Z"/><path class="cls-7" d="M101.5,117.2h.1c1.2.5,2.7.9,1.1,2.6h.1c-4.9,3.5-6.9,3.4-10.1-.4a5.9,5.9,0,0,1,0-3.7c.4-1.3,1.6-1.7,2.7-2.3h0a1,1,0,0,1,1.8,0h0c.7.3,1.5.8,1.4,1.6C98,118,99.5,117.9,101.5,117.2Z"/><path class="cls-2" d="M38.7,85.5c-.6.6-1.3,1.2-1.9,1.9h-2l-.3-.6c0-.3.1-.5.1-.7,1.8-4-.6-7.7-1-11.6l.3-.6A2.4,2.4,0,0,1,36,75.3c.8,1.4,2.1,1.6,3.6,1.4l.5.3c3.2,4.8,3.2,4.8-.8,8.1Z"/><path class="cls-2" d="M57.9,13.4c2.1,2,2.1,2,4.6.7a2.2,2.2,0,0,1,2.6.3,3.7,3.7,0,0,1,1.4,2.9c-1.1,1.1-2.4,1-3.8.9-4.9-1.3-9.9,0-14.8-.4l-.6-.5V14.4c3.1-1.9,6.5.4,9.6-1Z"/><path class="cls-1" d="M187.6,57.6l-.2-1a1.3,1.3,0,0,0-.1-.6c-.5-2.5,1.6-5.3-.8-7.6l-.9-.6a4.6,4.6,0,0,0-1.9-.8h-1.1a2.8,2.8,0,0,1-1.5-.4l-.3-.4c.3-.6.4-1.4.9-1.6a7.2,7.2,0,0,1,8.3,3c1.4,2.1,1.9,4.4.6,6.7S189.6,57.4,187.6,57.6Z"/><path class="cls-8" d="M80,103.4c-2.9-3.3-3.7-2.4-.1-7.4l.5-.4c1.9-.2,2.7.9,3,2.6s-.3,1.3-.3,2,1.1.4,1.8.3a2.4,2.4,0,0,0,.9-.6.6.6,0,0,0,.7.1c3.1,3-.5,2.7-1.8,3.6h0a4.3,4.3,0,0,1-4.6-.1Z"/><path class="cls-1" d="M135.6,13.4c1-.8,2.2-1.5,2.7-2.6s3.6-2.5,5.7-3a4.9,4.9,0,0,1,5.1,1.8c-2.5,1.5-5.8,1.3-7.7,3.8h0C139.5,14.2,137.6,15.2,135.6,13.4Z"/><path class="cls-2" d="M118.4,105.6c-.7-1.5-1.7-2.1-3.4-1.3s-1.8.4-2.1-.8.6-2.8,1.2-4,2.8-3.4,4.9-.8c-.6,5.4,4.4,4.2,7,5.9.2,2.3-1.6,1.7-2.8,2Z"/><path class="cls-1" d="M28.1,21.1c1.6-1.5,3.3-2.4,5.5-1.5a2.8,2.8,0,0,0,3.6-1c2.3-2.8,4.5-3,8.2-1.3-2.4,1.6-5.3,2.3-7.5,4.3a17.5,17.5,0,0,1-3.2,1.2c-2.2.5-4.3.5-6.2-1.1Z"/><path class="cls-1" d="M91.5,17.3q-3.9-.6-3.9-4.5a9.6,9.6,0,0,0,0-2.4c0-2.6,1.1-4.2,3.8-4.6.1.1.2.3.4.4a2,2,0,0,0,.1.7,19.5,19.5,0,0,0,.1,6.8l.3,1.2A3,3,0,0,1,91.5,17.3Z"/><path class="cls-1" d="M51,97.1c-.2-.7-.2-1.7-.7-2.1a2.6,2.6,0,0,0-2.1.1l-2.6,2c-.2.2-.8-.1-1.2-.1,3.3-4.6,2-3.8,7.3-3.9H55c.8,2.2-.5,4.1-1.1,6a3.6,3.6,0,0,1-.7,1,1.7,1.7,0,0,1-2.5-.7,1.7,1.7,0,0,1,0-1l.4-.9Z"/><path class="cls-1" d="M165.4,9.6h-1c-3.1-2.2-6.8-.2-10.1-1.3l-.4-.5c.2-.6.3-1.3.7-1.6C158.9,3.1,163.5,4.6,165.4,9.6Z"/><path class="cls-2" d="M53.2,99.9c-.3-2.5.9-4.6,1.8-6.8s2.6-1,3.8,0l1,1.9a4.3,4.3,0,0,1,1,3.9c-.1,1.1.1,2.2-1,2.9l-.5-.4c-1-1.3-1.2-2.9-2.2-4.6-.5,1.4,1,2.8-.1,3.7S54.4,101,53.2,99.9Z"/><path class="cls-1" d="M123.2,106.6a7.1,7.1,0,0,1,1.4-1l1.2-1.1a1.4,1.4,0,0,0,.2-.6,1.8,1.8,0,0,0,.3-2.1l-.9-.8c-1.4-1-2.8-2.1-1.2-4a4.8,4.8,0,0,1,4.2,3.2c.6,1.7.3,3.7.2,5.6a2,2,0,0,1-1.1,1.3C126,107.7,124.4,108,123.2,106.6Z"/><path class="cls-1" d="M60.9,67.3a2.9,2.9,0,0,1,1.3-.1c1.9.7,2.7-2.8,5-.9s3.4,1.3,5.1,1.9c-.4.2-.8.7-1.1.7H61.9c-.4,0-.8-.5-1.1-.7s-.3-.5-.2-.7Z"/><path class="cls-1" d="M71.4,56.9c-2.4.2-2.4.2-3-2.2a27.8,27.8,0,0,0,4-1.6c3.6-2,4.9-1.6,6.6,2.5l-.5.4h-.6c-2-.4-4.1-.8-5.9.6Z"/><path class="cls-1" d="M81.9,44.2c.2.2.6.4.6.6a5.6,5.6,0,0,0,2.6,4.1c1.4.9,1.3,3.2-.1,4.4s-1.4.3-2.2.5c1-1.7,1.2-3-.7-4.5S80.1,46.8,81.9,44.2Z"/><path class="cls-1" d="M74.4,64.4c.8-1.2,1.9-2.4,2-4,0-.1.5-.4.7-.4a.9.9,0,0,1,.7.5l1.1,1.9c-.2,2.4.6,4.1,3,4.8-.8,1.2-1.8,1.1-2.9.4Z"/><path class="cls-2" d="M93.2,119.1c1.7,2.6,4,2.9,6.6,2l3-1.3c-.4,2.1-2.2,2.7-3.8,2.9a36.6,36.6,0,0,1-7.4,0c-.7-.1-1.4-1.1-2-1.7l.2-.3.8-.7a17.7,17.7,0,0,0,1.7-1.2A.8.8,0,0,1,93.2,119.1Z"/><path class="cls-2" d="M14.7,28.8c.4-2.5,1.6-3.9,4.4-3.4a10.1,10.1,0,0,0,2.3-.4h3.8a1.2,1.2,0,0,1,2,.3C23.5,28,19.6,30.1,14.7,28.8Z"/><path class="cls-1" d="M78,84.6c1.7,1.7,1.9,1.9,3.3.8s2.3-.6,3.5.1c-.9,1.5-2,2.8-4,2.8s-4.4-.7-5.6-2.9C75.5,83.2,76.7,83.8,78,84.6Z"/><path class="cls-2" d="M123.2,84.5c-1.4-.2-2.9.4-3.9-1l.2-.2c3.4-1.4,5.7-3.3,3-7.3-1.4-2.1.1-3.5,1.5-4.9h2v2c-.4,1.2.5,2.5,0,3.8a16.9,16.9,0,0,0,.1,2.3A5,5,0,0,1,123.2,84.5Z"/><path class="cls-1" d="M56.9,13.4a4.6,4.6,0,0,1-5.4,1.7,19.4,19.4,0,0,0-4.2-.7c.4-.5.7-1.2,1.2-1.4C51.3,12.3,54.2,11.8,56.9,13.4Z"/><path class="cls-2" d="M60.9,67.3a2.8,2.8,0,0,0-.1.9l-2.9.9c-1.4,1-2.3.4-2.9-.9V64.8c0-1.9.1-3.8-1.3-5.4s-.4-1.8-.6-2.8a.8.8,0,0,1,.3-1.1,1.3,1.3,0,0,1,1.2.5c1.4,2.1,2.6,4.3,2.5,6.9s1.5,3.4,3.5,4Z"/><path class="cls-1" d="M16.6,115.2l.3,3v.6a6.5,6.5,0,0,0,.1,2.4,1.9,1.9,0,0,1,0,1.2l-.4.5h-.5c-1.8-.4-3.3-1.5-3.1-3.4S14,115.4,16.6,115.2Z"/><path class="cls-1" d="M40.6,96v1h0c-1.1.2-2.2,1.2-3.1-.7s-2.2-1.9-4.8-1.1h0a1,1,0,0,0-1.1-1h-.1c.9-1.2,1.8-2.2,3.5-2.1a3.9,3.9,0,0,1,3,1.9C38.8,95,39.3,96,40.6,96Z"/><path class="cls-2" d="M28.1,85.4c.3-1.3.8-2.5,1-3.9s0-2.1.8-2.9l.6.4c.7,1.9.6,4.2,3.6,4.5a1.6,1.6,0,0,1,.9,2.6l-.2.4a6.5,6.5,0,0,1-6.7-.1Z"/><path class="cls-2" d="M124.2,97c-.1,1.4,0,2.6,1.7,3s.5.7.7,1c-.9,2-2.6,1.9-4.3,1.4s-1-2-.9-3.2a1.6,1.6,0,0,0-1-1.9c-.9-.5-2.1-.7-2.2-2.1s2.6-.2,3.8-.1a7.8,7.8,0,0,1,2.1.9Z"/><path class="cls-2" d="M141.4,13.4a2.6,2.6,0,0,1,1.7-2.6c1.9-.7,3.9-1.5,6-1.2H152a.6.6,0,0,1,1,.1c-1.2,1.2-3,.6-4.5,1.2Z"/><path class="cls-2" d="M37.7,21.1c1.7-3,4.4-4,7.7-3.8h2c-.8,3.2-4.1,2.6-6,4.1l-1.3.4a3.1,3.1,0,0,1-1.9-.3Z"/><path class="cls-2" d="M91.5,17.3c0-1,.1-2,.2-3,2.6,1,4.4,3.2,6.5,5h0c.5,2.4-.2,4.2-2.8,4.9h-.1c-.9-1.6-.2-3.6-1.9-4.8Z"/><path class="cls-2" d="M64.7,121.1c-.3,1-.8,1.7-1.9,1.7a1.8,1.8,0,0,1-1.9-1.1,1.9,1.9,0,0,0-2-1.6l-.2-.2c-1-1.6-.6-2.9.9-3.6s2.3.5,2.9,1.7.7,2.1,1.8,2.6Z"/><path class="cls-1" d="M54.1,55.6l-1,1c-1.3-2.5-1-3.5,1-4.3s3.7-.7,4.7,1.5A6.3,6.3,0,0,1,54.1,55.6Z"/><path class="cls-1" d="M93.4,19.2a1.8,1.8,0,0,1,1.9,2V24c-.7,1.3-1.3,2.5-1.9,3.8-.5-.5-1.4-.9-1.5-1.6a2.1,2.1,0,0,1,.6-2C94.5,22.7,93.8,21,93.4,19.2Z"/><path class="cls-1" d="M131.8,87.4c.6.7,1,1.7,1.7,2s2.3,2.8,2.1,4.7l-3.5-2.3C130.6,90.6,130.6,89.8,131.8,87.4Z"/><path class="cls-2" d="M166.5,10.4c-.1-.2-.1-.5-.2-.8H174c0,1.3,0,2.7-.1,4C170.7,14.3,168.7,12.1,166.5,10.4Z"/><path class="cls-2" d="M135.6,13.4h5.8l-2,1.9c-.3,1.7-2.1,2.4-2.7,3.8l-1.1-.9v-.9A4.1,4.1,0,0,1,135.6,13.4Z"/><path class="cls-1" d="M79.9,96c-1.3-.2-2.4-.4-2.2-2.2a22.5,22.5,0,0,0-.6-3.6c1.9,1,3.8,1.8,4.8,3.9A5.7,5.7,0,0,1,80,96Z"/><path class="cls-2" d="M95.4,113.4c-.7.6-1.3,1.3-1.9,1.9l-1.1.6a5.8,5.8,0,0,0-3.2,1.6,5.1,5.1,0,0,1-1.6.9c-1.1-.1-1.4-.8-1.5-1.7a4.9,4.9,0,0,1,1-2.2l.5-.3A17.2,17.2,0,0,1,95.4,113.4Z"/><path class="cls-2" d="M78,84.6c-1.1-.1-2.2-.3-2.8.8l-3.8-.9L71,84a1.4,1.4,0,0,1,.7-1l1.2-.5c4.9-2.3,5.3-2.2,5.4,1.8Z"/><path class="cls-1" d="M106.1,4.1a7.5,7.5,0,0,0-1.3,1.1,3,3,0,0,1-2.7,1.4,1.3,1.3,0,0,1-.1-1.8,2.1,2.1,0,0,0,2-1.6c.9-2.6,1.1-2.7,3.8-1.3a1.4,1.4,0,0,1-.3.9l-.3.4-.7.7Z"/><path class="cls-1" d="M135.6,78.7l-3.8,3.9c-1.1-2.2-1.1-3.4,0-4.2S134.5,77.3,135.6,78.7Z"/><path class="cls-1" d="M91.6,81.4l-.3,1.1c-1.2-.6-2-2-3.7-1.9.2-1.1-.5-2.8.8-3.2S90.2,79,90.8,80l.7.6.3.4Z"/><path class="cls-1" d="M28.1,86.4h6.7v.9C31.7,89,30.4,88.8,28.1,86.4Z"/><path class="cls-2" d="M107.1,3l.7-1.1h4.8a1.7,1.7,0,0,1,1.9,1.7c0,1,.1,2,.1,2.9l-.6.3C112.3,4.6,109.5,4.2,107.1,3Z"/><path class="cls-2" d="M54.1,55.6a5.3,5.3,0,0,1,4.7-1.8,1.9,1.9,0,0,1,2.1,1.8l-.3.3a5.3,5.3,0,0,1-6.3,0Z"/><path class="cls-2" d="M34,125.9a17.4,17.4,0,0,1-.5,2.2,1.9,1.9,0,0,1-2.2,1.3,2.1,2.1,0,0,1-2-1.7,2.5,2.5,0,0,1,.7-2.9h.1c1,1.5,2.3.9,3.6.7Z"/><path class="cls-2" d="M181.7,80.6l-2,1.8c-1.6-3.1-.6-5.9,1.3-8.5h.7Z"/><path class="cls-2" d="M91.7,6.8l-.3-1a6.1,6.1,0,0,1,.1-1.4c.4-2.2.4-2.3,2.5-2.5h2.3a.7.7,0,0,1,1.1.1C96,4.2,93.7,5.4,91.7,6.8Z"/><path class="cls-2" d="M101.5,117.2a7.5,7.5,0,0,1-2,1c-2,.5-2.1.5-1.4-1.9s-.3-2.1-.9-2.9c1.1,0,1.8.4,1.9,1.6A2.2,2.2,0,0,0,101.5,117.2Z"/><path class="cls-1" d="M27.2,25h-2c.3-3.1.3-3.1,2.9-3.9,1.2,1.3.9,2.5-.3,3.6Z"/><path class="cls-1" d="M177.9,51.9c-1.2-.7-2.9-1-2.9-2.9l3.8-1,.3.5a5.1,5.1,0,0,1-.7,3Z"/><path class="cls-1" d="M104,96c-2.1.4-3.3-1.1-4.8-1.9a1.7,1.7,0,0,1,2.7-.4A15.5,15.5,0,0,1,104,96Z"/><path class="cls-1" d="M128,18.2c-2.4-.7-1-2.4-.9-3.8a1.1,1.1,0,0,1,.9-1C129.8,15.1,128.6,16.6,128,18.2Z"/><path class="cls-2" d="M66.5,121.9l-1.8-.8-.3-.3c-.8-1.3-.9-2.6.3-3.7a1.4,1.4,0,0,1,1.7,0c1.5,1.4,1.4,3,.4,4.6Z"/><path class="cls-1" d="M17.6,123.8h3.8a1.8,1.8,0,0,1-2.2,1.9C18.1,125.6,17.7,124.9,17.6,123.8Z"/><path class="cls-2" d="M80,96c.6-.7,1.3-1.3,1.9-1.9L83.8,96c.6,1.1.9,2.2-.5,3.1l-.6-.3C82.4,96.3,82.4,96.3,80,96Z"/><path class="cls-1" d="M126,76.8a7.5,7.5,0,0,0-.7-1.2c-1-1.4-1-1.4.7-2.6C127.3,74.8,127.3,75,126,76.8Z"/><path class="cls-1" d="M55,68.2l2.9.9a5.5,5.5,0,0,1-1.2,1.4,1.4,1.4,0,0,1-2-.4A1.1,1.1,0,0,1,55,68.2Z"/><path class="cls-2" d="M84.7,103.6l1.5-.9c1.3-.9,1.4-1.1.3-2.7,2.1.5,2.5,1.2,1.6,2.6l-1.4,1.1Z"/><path class="cls-2" d="M191.4,89.3v.9c0,1.3,0,2.6-.1,3.9h-1.8c-.1-.2-.3-.3-.5-.5a4.4,4.4,0,0,1,1.7-4.6Z"/><path class="cls-1" d="M58.8,93.1H55c.4-.4.6-1,1.1-1.3S58.1,91.2,58.8,93.1Z"/><path class="cls-1" d="M24,95.3l.3-1.2c1.4-1.2,1.4-1.2,2.9,0s.5.7.2,1.2H24Z"/><path class="cls-1" d="M60.8,98.9c-.4-1.3-.7-2.6-1-3.9C62.1,96,62.2,96.6,60.8,98.9Z"/><path class="cls-2" d="M127.9,5.8a7.5,7.5,0,0,1,1,2,26.1,26.1,0,0,1,0,2.8l-.9,2-.6-.6C126.5,9.8,126.3,7.7,127.9,5.8Z"/><path class="cls-2" d="M181.8,67.1c1.2,2.9,1.2,4.3-.1,6.8h-.1c-1.5-2-1.3-4-.4-6.2Z"/><path class="cls-1" d="M93.4,30.7a1.8,1.8,0,0,1-2,1.9H89.6A5.4,5.4,0,0,1,93.4,30.7Z"/><path class="cls-2" d="M38.5,120.8a26.4,26.4,0,0,1,1.5-2.9c.3-.4,1-.4,1.4-.6l.3,1.7Z"/><path class="cls-1" d="M97.5,2.1l-1.2-.2c1.9-2.3,2-2.3,3.8,0a1.9,1.9,0,0,1-1.6.7A1.4,1.4,0,0,1,97.5,2.1Z"/><path class="cls-2" d="M98.1,2.1l2-.2c1.1.7.9,1.8,1.1,2.8l-.7.3C99,4.7,97.9,3.9,98.1,2.1Z"/><path class="cls-2" d="M115.5,6.7a22.6,22.6,0,0,1-.1,3.7,6.9,6.9,0,0,1-1,1.9,4.2,4.2,0,0,1,0-5.5l.2-.2Z"/><path class="cls-2" d="M50.1,112.2c.9-1,1.8-.7,2.5.3a10.4,10.4,0,0,1,.6,1.6l-.2.2c-1.4.3-2.1-.5-2.8-1.4S50.1,112.4,50.1,112.2Z"/><path class="cls-2" d="M43.3,113.5H39.8C41,111.3,41.5,111.3,43.3,113.5Z"/><path class="cls-2" d="M85.8,99.9a1.3,1.3,0,0,1-.1.6c-1.2,1.3-2.5.8-3.9.3s.2-1.5.9-2H83c.5.6,1.3.2,1.8.8Z"/><path class="cls-1" d="M84.8,99.7c-.8.1-1.5,0-1.8-.8s.8-1.9.8-2.9C85.2,97,84.6,98.4,84.8,99.7Z"/><path class="cls-1" d="M106.7,95a6.6,6.6,0,0,1,.1,1.4c0,.3-.2.5-.3.8a2.2,2.2,0,0,1-1.1-.5c-.2-.1-.3-.4-.5-.7Z"/><path class="cls-1" d="M72.3,93.1,69.4,96A2.7,2.7,0,0,1,72.3,93.1Z"/><path class="cls-1" d="M19.5,94.1a5.6,5.6,0,0,1-.5.8c-.4.5-1,.9-1.5.3s-.3-.8-.3-1.2a1.8,1.8,0,0,1,.4-.9Z"/><path class="cls-2" d="M71.3,85.4l-3.8-.9-.3-.6a1.6,1.6,0,0,1,.9-.9A3,3,0,0,1,71,84.2l.4.3A2.8,2.8,0,0,0,71.3,85.4Z"/><path class="cls-2" d="M78,55.8l1-.2h2.8v.2c0,2-1.2,2.3-2.9,1.9h-.1C78.4,57.1,77.6,56.7,78,55.8Z"/><path class="cls-2" d="M102.7,119.8c.5-1.2-.3-1.9-1.1-2.6.9,0,2,0,2.1,1.3S103.1,119.4,102.7,119.8Z"/><path class="cls-1" d="M12.8,102.7l.9,1.9C11.9,104.2,11.8,104,12.8,102.7Z"/><path class="cls-1" d="M135.6,13.4v3.9C134.4,15.4,134.4,15.3,135.6,13.4Z"/><path class="cls-1" d="M153,9.7h-1a1.7,1.7,0,0,1,1.9-1.9,1.2,1.2,0,0,1,0,1.9H153Z"/><path class="cls-1" d="M64.5,54.7c-.6,1.2-1.8.9-2.8,1C62.4,54.6,63.5,54.8,64.5,54.7Z"/><path class="cls-2" d="M180.8,64.3c1.1.7.9,1.8,1,2.8l-.2.2c-1.8-.4-1.6-1.5-1.1-2.8Z"/><path class="cls-1" d="M12.8,92.2V95C11.6,93.6,11.6,93.6,12.8,92.2Z"/><path class="cls-1" d="M26.2,112.3v-2.9C27.4,110.9,27.4,110.9,26.2,112.3Z"/><path class="cls-2" d="M47.3,113.2c.7-1,1.8-.8,2.8-1l.2.3c-.5,1.8-1.6,1.6-2.8.9Z"/><path class="cls-2" d="M41.7,119.5c.3,1.1.7,2.1,1.1,3.2C41.1,122.1,41.7,120.7,41.7,119.5Z"/><path class="cls-2" d="M82.7,127.6c.3-1.1.7-2.2,1-3.3C83.7,125.5,84.2,126.8,82.7,127.6Z"/><path class="cls-1" d="M18.5,113.3l-.9,1.9Z"/><path class="cls-2" d="M97.2,113.4H95.4Q96.3,111.8,97.2,113.4Z"/><path class="cls-2" d="M27.4,95.3l-.2-1.2h2.1Z"/><path class="cls-1" d="M129.9,22.1V20.2C130.9,20.8,130.9,21.4,129.9,22.1Z"/><path class="cls-2" d="M128,13.4l-.9,1-.3-.2c-.4-1-.2-1.7.9-1.9l.3.3Z"/><path class="cls-2" d="M102,4.8a10.9,10.9,0,0,1,.1,1.8l-.3.3c-1.1-.2-1.3-.9-.9-1.9l.3-.3Z"/><path class="cls-1" d="M17.8,122.6l-.2,1.2-1-.9h0a1,1,0,0,1,.8-.5Z"/><path class="cls-1" d="M178.8,48l1-1,.3.6-.2.5-.6.3a1,1,0,0,0-.5-.4Z"/><path class="cls-1" d="M179.8,47l1-.9h0l.4.5-.3.6a.8.8,0,0,1-1.1-.2Z"/><path class="cls-1" d="M130.8,25l-.8-1Z"/><path class="cls-2" d="M81.7,128.5l1-1Z"/><path class="cls-2" d="M86.4,113.5l1.2.7-.2.3h-.6c-.2-.1-.3-.3-.4-.4Z"/><path class="cls-9" d="M86.4,113.5c0,.2.1.5.1.7l-.4.3-.4-.4.3-.6Z"/><path class="cls-1" d="M81.9,67.2l.9-1Z"/><path class="cls-2" d="M59.8,101.8l-.9.9-.2-.2a1.3,1.3,0,0,1,.9-1Z"/><path class="cls-10" d="M180.5,64.5c.4,1,.7,1.9,1.1,2.8v6.5c-.6,2.9-1.3,5.8-1.9,8.6h0c-.7.9-.2,3.5-2.6,1.8-.5-1.2-1-2.2-.6-3.6a60.5,60.5,0,0,0,1.5-8.5,24.8,24.8,0,0,0-.1-4.7,1,1,0,0,0-1.5-.5c-2.4,1.8-3.7,4.3-4.9,7s-.9,3.3-1.4,5a7.1,7.1,0,0,1-.7,2.2,2,2,0,0,1-1.6.7,1.8,1.8,0,0,1-1.2-1.3,12.3,12.3,0,0,1,.3-3.3c.6-3.1,1.3-6.2,1.8-9.4a9.2,9.2,0,0,0-.3-2.8c-.1-.2-.9-.6-1.1-.5a18,18,0,0,0-3.9,2.7,16.8,16.8,0,0,0-4.8,9.2,21,21,0,0,1-.9,4.2c-.1.4-.9.9-1.4,1a1.3,1.3,0,0,1-1.5-1.4,43.4,43.4,0,0,1,.7-5.2c.3-2.8.7-5.7.9-8.5.1-.9-.5-1.7-.9-3.1-4.3,4.5-6.9,9.3-7.5,15-.3,1.4-.5,2.7-.8,4a.7.7,0,0,1-.6.6,1,1,0,0,1-.8-.4,5.8,5.8,0,0,1-.7-2.1c0-1.9.2-3.7.3-5.6s1.1-2.6,1.6-3.9c1.8-4.2,4-8,7.8-10.6a2.7,2.7,0,0,1,2.6-.6c1.8.7,1.9,2.7,3.1,4,1.8-.6,2.8-2.7,5-2.3h1.4c2.5-.5,4,.5,4.6,3a3.7,3.7,0,0,0,.7,1.2c1,.2,1.3-.7,1.9-1.1C176.3,62.7,178.4,62.7,180.5,64.5Z"/><path class="cls-11" d="M149.1,95.1l3.1-4.7a17.7,17.7,0,0,1,11.1-3.5l9.9-.2,4.7-.2c1.9-1.9,4.7-.6,6.8-1.9h0a1.7,1.7,0,0,1,2.1-.4,2,2,0,0,1,.9,2c-2.7,3.4-6.7,4.1-10.7,4.3s-8.2.2-12.4,0a14.3,14.3,0,0,0-10.8,4l-1.2.7c-1.1.1-.1.9-.4,1.4C150.1,98.3,149.5,96.8,149.1,95.1Z"/><path class="cls-2" d="M184.7,84.6a9.2,9.2,0,0,1-6.8,1.9,20.9,20.9,0,0,1-.8-2.3c1.3.1,1.8-1.1,2.6-1.8a2.1,2.1,0,0,0,2.2,2.1Z"/><path class="cls-12" d="M126.2,62.3c0-1.2.1-2.5.1-3.7s.3-2.9-1.6-3.5-.3-1.2.5-1.4a16.2,16.2,0,0,1,2.2,0c2.8-.8,5.7-.2,8.6-.4,1.2,0,2.1,0,1.3,1.8s-2,3.5.3,5.1,2.9.1,2.9,2.2c-1.7,1.3-3.6,1-5.5.9a3.5,3.5,0,0,1-3.4-3.3c-.1-1.3,0-2.6,0-3.8a1,1,0,0,0-1.2-1.1,2.4,2.4,0,0,0-1.4.9c-.2,2.1-.2,4.1-.4,6.2S127.6,63.4,126.2,62.3Z"/><path class="cls-13" d="M115.2,72.2c.3,2.1.6,4.1.8,6.2a6,6,0,0,1-.2,2.3,2.4,2.4,0,0,1-4,1.5,26.1,26.1,0,0,1-2.5-2.3c-.2-.1-.7-.3-.8-.2a3.7,3.7,0,0,0-.5,1.1c-.1.4,0,.9-.1,1.3a1,1,0,0,1-.7.6c-.4-.1-1-.3-1.1-.5a11.6,11.6,0,0,1,.1-8,6.6,6.6,0,0,1,3.5,2.2l2.9,2.9c1.2-.2.8-1,.8-1.5a6.5,6.5,0,0,0-.2-1.9,18.5,18.5,0,0,1-.1-2.3C113.2,72.4,114.1,72.1,115.2,72.2Z"/><path class="cls-14" d="M124,71.1c.8,1.9-.9,2.4-1.8,3.3a10.4,10.4,0,0,1,2.1,2.1c2.4,3.3.7,6.6-3.4,6.9a3.2,3.2,0,0,1-1.4-.1,12.4,12.4,0,0,1-1.9-2.1,1.3,1.3,0,0,1,.2-1.3,1.3,1.3,0,0,1,1.2-.5,8.7,8.7,0,0,1,1.7.7c.7.4,1.3.3,1.5-.4a2,2,0,0,0-.3-1.7c-.5-.6-1.3-.8-1.9-1.3-2.2-1.4-2.3-2.4-.4-4.5l1-1Z"/><path class="cls-15" d="M102.9,75a20.4,20.4,0,0,1,1.1,3.5,4,4,0,0,1-1.4,4.2,4.3,4.3,0,0,1-4.8.6c-1.3-.8-1.7-2.3-1.2-4.2a14.3,14.3,0,0,1,.8-2.2C99,75.6,100.5,74,102.9,75Z"/><path class="cls-16" d="M134.6,42.1a41,41,0,0,0,4-2.3,1.5,1.5,0,0,0-.1-2.4c-1-.9-3.8.2-3.1-2.5s2.2-2.4,4.1-1.3h0a2.4,2.4,0,0,0,1.1.9,3.1,3.1,0,0,1,1.8,3c0,1.5-.1,3-.1,4.6l-1.7,1.2a5.4,5.4,0,0,1-3.3.7,4.7,4.7,0,0,1-2.4-1.3Z"/><path class="cls-17" d="M136.5,61.3a5.3,5.3,0,0,1-1.8-.5c-.9-.7-.9-1.4.1-2.2a2.3,2.3,0,0,0,1.1-.8c.2-.1-.1-.8-.3-.9s-1.8,0-1.6-1.3,1-.9,1.8-1,1.3,0,1.4-.9a.5.5,0,0,1,.2-.8l1.2-1h1.1c.9,1.1.1,2.5.6,3.6C142,59.5,140.6,61.3,136.5,61.3Z"/><path class="cls-18" d="M136.5,61.3l2.1-.7c1.4-.3,1.7-.5,1.3-1.8s-1.4-4.5-.2-6.8a5.8,5.8,0,0,1,1.4-.3c1,.1,1.7.9,1.2,1.5a3.2,3.2,0,0,0-.5,3.5,28,28,0,0,1,.6,2.8,2.5,2.5,0,0,1-1.9,2.9C139.4,61,137.8,61.6,136.5,61.3Z"/><path class="cls-19" d="M139.5,33.6a3.6,3.6,0,0,0-1.8.2,3.2,3.2,0,0,0-1.6,1.4c-.3.9.7,1.1,1.3,1.4a2.8,2.8,0,0,1,1.1.8H138c-4.4-.2-5.3-1.8-3.1-5.5a7.6,7.6,0,0,1,.8-1.1h0c1.3-.6,2.1.1,2.8,1Z"/><path class="cls-2" d="M138.5,31.8l-2.8-1c.5-.5,1-1.4,1.4-1.4S138.5,30.7,138.5,31.8Z"/><path class="cls-19" d="M140.6,34.5l-1.1-.9Z"/><path class="cls-20" d="M95.4,24.1c.9-1.7,2.1-3.1,2.8-4.9,2.7-.1,4.3,1.3,5.2,3.8a26.8,26.8,0,0,1,.7,2.7c.4.7.4,2,1.8,1.1s2.1-4.3,3.6-6.1,4.6-2.3,6.3.9a15.3,15.3,0,0,1,1.1,2.5c1.2-1.2,2.1-2.4,3.2-3.4,3.9-3.8,7.4-2.9,8.8,2.4a48.5,48.5,0,0,1,1,15.2,3.3,3.3,0,0,1-.7,1.7,1.9,1.9,0,0,1-1.3.3c-.3,0-.7-.3-.7-.5s-.3-2.2-.4-3.3l-.6-8c-1.8-.7-.5-4-2.7-3.8s-2.5,2.5-3.4,4.2-.8,2-1.8,2.6-.6,3-.8,4.5-.1,1.9-1.1,2.4-1.9-.6-2.7-1.3c-1.9-2.2.1-4.6-.4-6.8s.9-5-2.7-5.5a19,19,0,0,0-3.8,12.4c-2.8,3.7-4,1-4.7-1.4s-1-6.1-2.2-9.4c-2.6,4-.4,7.8-.8,11.4-.3,1-.7,1.8-1.8,1.9s-1.3-1.5-1.9-2.4A39,39,0,0,1,95.4,24.1Z"/><path class="cls-21" d="M106.8,40.3l12.5,2a1,1,0,0,1-.1,1.3,4.4,4.4,0,0,1-1.9.7c-.9.2-1.9-.2-3,.7,1.8,2.3,5.2,3,6.1,6a8.6,8.6,0,0,1-2.1.7c-4.8.3-9.7.2-14.5.8-1.5.2-3.1-.4-4.6-.6.1-4.3,2.6-8,2.7-12.3A5.1,5.1,0,0,1,106.8,40.3Z"/><path class="cls-22" d="M62.7,17.3h3.8c.8.9,2.1.1,2.9,1h0c2.9,0,5.7.4,7.6,2.9h0A45.4,45.4,0,0,1,80.9,26h0c.7.9,1.2,2,1.9,2.9h0c.6.5.4,1.4,1,2h-.1c0,1,.2,2.1-.9,2.8s-3.9-.3-4.7-1.8c-4-7-10.6-6.2-17-6.4a2.2,2.2,0,0,1-1-.9c-.5-1.7-.2-3.3,1.5-4.1S62.4,18.4,62.7,17.3Z"/><path class="cls-14" d="M113.5,55.7a3.8,3.8,0,0,1,1.7-.4c.6.1,1.1.7,1.6,1s1.6,3.1,3.8,3.2l.3-4.6c.1-.2.1-.4.2-.5s.7-.7,1-.6.9.5.9.8c-.1,2.7-.1,5.4-.4,8.1a1.3,1.3,0,0,1-2.4.9L116.6,60c-1.2.6-.6,1.5-.8,2.1s0,1.8-.5,2.3-1.4.1-2.2.2l-1.3.4c-4.5.6-5.8-1.9-6.1-4.9v-.5c0-4.1,0-4.1,4.1-5.1,1.3-.5,2.7.2,2.1,1.3s.8,3.6-.5,5.9C113.4,59.7,111.6,57.1,113.5,55.7Z"/><path class="cls-23" d="M88.6,49.9c-2.9-1.4-4.1-4.1-5.3-6.8a3.6,3.6,0,0,1-.1-2.3,32,32,0,0,1,1.7-4.3c3.3-1.7,5.4-.6,6.3,2.9s2.5,6.9.6,10.5A2.3,2.3,0,0,1,88.6,49.9Z"/><path class="cls-24" d="M101.1,40.3a11.2,11.2,0,0,0,2,1.8c.7.4,1.7.6,1.4,1.5s-1.1,1-1.8,1.4-.9,0-1.3.3-.5.9-.4,1,.8,2.6-.4,3.7a6.7,6.7,0,0,0-1.4,1.9H97.3c-1.6-.9-3.4-.2-5-.9-.8-3.4-.7-6.3,3.1-8.1,1.7-.8,2.7-2.6,4.3-3.6S101.2,39.2,101.1,40.3Z"/><path class="cls-25" d="M60.8,24.9c2.2-.5,4.4-1,6.8-.2s5,.4,7.4,1.2A2.5,2.5,0,0,1,77.1,28a7.9,7.9,0,0,0,5.7,5.6,15.3,15.3,0,0,1-2.7,1.7,3.1,3.1,0,0,1-3.5-.8,35.5,35.5,0,0,1-4.1-4.6,8.2,8.2,0,0,0-4.7-3,27.4,27.4,0,0,0-9.9-.9l-.3-.6a1.4,1.4,0,0,1,.7-1A2.3,2.3,0,0,1,60.8,24.9Z"/><path class="cls-26" d="M100.1,39.7c-1.9,2.1-3,5.1-6.3,5.6-.9.1-1.3.9-1.3,1.8s-.1,2.5-.1,3.7a.7.7,0,1,1-.9-.9c.3-3.7-.7-7.2-1.6-10.7s-.8-2.5-3.6-2.7H84.9l2.2-1.6c.8-.5,1.7-1.2,2.6-.5s2.8,1.1,2.4,3.1.6,1.6,1.7,1.7,1.3-1.1,1.6-1.9a10.5,10.5,0,0,0,.8,1.1c.4.4,1,.9,1.4.9s.5-1.2.8-1.8S100,38.5,100.1,39.7Z"/><path class="cls-27" d="M120.4,51c-.5-.3-1.3-.3-1.6-.8a7.9,7.9,0,0,0-4.5-3.1,3,3,0,0,1-2-1.8c-.5-1-.2-1.9.9-2h4.2c4,4.2,4.7,4.2,8.7-.3a12.8,12.8,0,0,1,3.4-.1c1.6.6,1.9,1.7,1.1,3.3s-2.2,1.9-3.3,2.9-1.6.2-2.2.9A8.6,8.6,0,0,1,120.4,51Z"/><path class="cls-28" d="M95.3,57.6l3.8-1.7.9-.2a2.9,2.9,0,0,1,2.8,1.6c.5.9.1,1.7-.5,2.5s-1.3,1.7.4,2.9l.3.4c.6,1.2,2,.4,2.8,1.1s-.9,1.3-1.6,1.1l-5.1-1.8c-1-.4-1.3.4-1.8.9s-2.6.8-3.3-.8S93.7,59.4,95.3,57.6Z"/><path class="cls-29" d="M79,57.6a29,29,0,0,0,2.9-1.9c1.3,0,2.5-.2,3.8-.1a1.4,1.4,0,0,1,1,.7c.2.8-.3,1.1-1,1.2a15.5,15.5,0,0,0-2.3.5c-.7.3-1.6.7-1.2,1.7s1.1.1,1.6.3a2,2,0,0,1,.9.7c.1.1-.1.6-.3.7a3.8,3.8,0,0,0-2.7,3.4c0,.5-1.3.6-1.5.1a13.6,13.6,0,0,1-1.1-2.5Z"/><path class="cls-30" d="M94.4,63.5c.7,1,1.9.8,2.9.9-3.1,1.3-6,1.6-8.1.8a5.4,5.4,0,0,1-1.6-1,3.5,3.5,0,0,1-.8-3.6c.6-1.4.3-3.7,2.7-3.9a6.4,6.4,0,0,1,1.6,1.1C93.1,59.2,91.8,62.5,94.4,63.5Z"/><path class="cls-31" d="M113.5,55.7c.1,1.5.2,3.1.2,4.7s-2.1,3.4-4.4,2.1c-.3-.1-.5-.7-.6-1.1a1.2,1.2,0,0,1,.5-.7l1.8-.6a1,1,0,0,0,.4-.8c0-.2-.3-.5-.5-.6s-1,.1-1.4,0a6.7,6.7,0,0,1-1.2-.6,7.5,7.5,0,0,1,1.1-1.3c.2-.2.7-.2.9-.3s1.7-.5,1.2-1.5-1.1-.3-1.7-.5c.9-1.1,1.8-1,2.7.1Z"/><path class="cls-32" d="M94.4,63.5a26.1,26.1,0,0,1-2.8,0c-.7-.2-1.8-.5-1.9-1s.9-.9,1.4-1.3a1.4,1.4,0,0,0,.5-1.1c.1-.1-.4-.4-.7-.5s-1.3-.6-.1-1.8,2-.4,2.8-1.2a9.5,9.5,0,0,0,1.7,1c0,1.3.1,2.7,0,4S94.7,62.9,94.4,63.5Z"/><path class="cls-1" d="M119.8,57.4l-3.3-3.3a.8.8,0,0,1-.2-.8.8.8,0,0,1,.7-.4c2.7-.2,3.4.2,3.2,3A5.4,5.4,0,0,1,119.8,57.4Z"/><path class="cls-16" d="M127,48.9l2.9-2.8c1.8-.7,3-3,5.4-2.2s-.9,2.2-1.5,3.2h0c-1.6.7-3.3,1-4.9,1.8h-.8A.7.7,0,0,1,127,48.9Z"/><path class="cls-33" d="M133.8,47.1l1.8-2.9v-.4l.5-.5h4.4C138.8,45.5,136.4,46.4,133.8,47.1Z"/><path class="cls-34" d="M137.4,52.9a.8.8,0,0,1-.2.8h-9.8C130.7,53.1,134,52.2,137.4,52.9Z"/><path class="cls-25" d="M57.9,26a5.5,5.5,0,0,1-1.5.8A3.6,3.6,0,0,0,54,28.7h0a1.4,1.4,0,0,1-2,.2c-.4-1.9.8-2.8,2.2-3.6a3.4,3.4,0,0,1,3.6.6Z"/><path class="cls-21" d="M91.3,50.8h4a18.6,18.6,0,0,1,2,1H90.4C90.2,51.1,90.5,50.7,91.3,50.8Z"/><path class="cls-33" d="M128.9,48.9a5.4,5.4,0,0,1,4.9-1.8A5.9,5.9,0,0,1,128.9,48.9Z"/><path class="cls-35" d="M93.6,56.6c-.3,2-1.8,1.1-2.8,1.2l-1.3-1.1A4.9,4.9,0,0,1,93.6,56.6Z"/><path class="cls-36" d="M91.3,50.8l-.9,1a.9.9,0,0,1-.7.3,1.5,1.5,0,0,1-1.1-1.3v-.9h2.9A2.9,2.9,0,0,1,91.3,50.8Z"/><path class="cls-33" d="M127,48.9h1.1a3.1,3.1,0,0,1-3,.9Z"/><path class="cls-37" d="M88.6,50.8l1.1,1.3-1.5.8-.3-1.2a2.2,2.2,0,0,0,.5-.8Z"/><path class="cls-38" d="M105.8,64.2c-1.1.1-2.3.2-2.8-1.1a7.8,7.8,0,0,1,2.2.2C105.5,63.4,105.6,63.9,105.8,64.2Z"/><path class="cls-23" d="M88.4,50.9a3.5,3.5,0,0,0-.5.8A3.5,3.5,0,0,1,88.4,50.9Z"/><path class="cls-39" d="M166.5,10.4a7.7,7.7,0,0,1,4.3,1.5l3.1,1.7h.1l1,1h-.1a4.3,4.3,0,0,1,2,2h-.1c.7.4.5,1.3,1,1.9h0c2.4,2.1,1.6,5.1,1.4,7.6-.3,5.4-3.7,10.2-7.6,11.2-2.9-1.5-1.5-3.6-.7-5.6s3.4-6.6,1.3-10.4-3.3-4.4-4.9-6.7c-.5-.6-1.4-.4-1.9-.9h0c-.6-.6-1.4-.4-2.1-.8h-.8c-.8-.9-2.1-.2-3-.9h-3.6c.1-.3.2-1,.3-1Z"/><path class="cls-2" d="M171.2,36.5c.7-.1,1.8,0,2.2-.5,3.1-4,5.9-8.2,5.4-13.6a30.6,30.6,0,0,0-1-4.1,7.5,7.5,0,0,1,1.3.6c.8.4,1.5.9,1.3,2.1a25.2,25.2,0,0,0-.6,4.7,5.7,5.7,0,0,1-.9,3.6,4.1,4.1,0,0,0-.9,2.6c0,3-2.2,4.4-4.1,5.9a4.1,4.1,0,0,1-2.7.4,2.3,2.3,0,0,1-1.9-1.9A1.4,1.4,0,0,1,171.2,36.5Z"/><path class="cls-40" d="M171.2,36.5l-1.9-.2c-.4-3.3-.2-6.4,1.7-9.2s1.2-3.9,1.2-6a3,3,0,0,1,1.8,3.1c-.2,3.1-.3,6.4-2.8,8.8S170.6,35.3,171.2,36.5Z"/><path class="cls-41" d="M136.7,19.1c-.1-1.9,1.3-2.9,2.7-3.8l1.2,1.2C139.7,18,138.1,18.4,136.7,19.1Z"/><path class="cls-5" d="M159.5,11.6c1.1-.1,2.3-.3,3,.9A3.6,3.6,0,0,1,159.5,11.6Z"/><path class="cls-2" d="M176.9,16.4l-2-2A1.8,1.8,0,0,1,176.9,16.4Z"/><path class="cls-2" d="M177.8,18.3a17.4,17.4,0,0,0-1-1.9A1.6,1.6,0,0,1,177.8,18.3Z"/><path class="cls-5" d="M165.4,13.5l1.9.9Z"/><path class="cls-5" d="M163.3,12.6a1.9,1.9,0,0,1,2.1.8Z"/><path class="cls-2" d="M175,14.5l-1-1Z"/><path class="cls-1" d="M118.3,31.5c.2-3.3,1.8-5.9,3.9-8.4.6-.7,1.4-1.5,2.4-1.1a2.8,2.8,0,0,1,1.2,1.9,35.7,35.7,0,0,1,.4,4.6c-.1,3.2-.1,6.3-.2,9.5s-.6,2.2-2.4,2.3h-1.9c-2.3-.1-3.2-.9-3.3-3.1S118.3,33.4,118.3,31.5Z"/><path class="cls-42" d="M100.9,5l.9,1.9a23.6,23.6,0,0,1,.4,2.8c.6,5,0,6.4-4,9.6a8.6,8.6,0,0,1-6.5-5h0a8.9,8.9,0,0,1,0-7.5h0l.9-2.1c.6-1.6,1.5-2.3,3.3-1.9s1-.4,1.6-.7a.4.4,0,0,0,.6,0Z"/><path class="cls-1" d="M110.6,24.8a2.9,2.9,0,0,1,.5-1.3,3.8,3.8,0,0,1,1.5-.9c.2,0,.7.6.8,1a22.7,22.7,0,0,1,.9,9.3l-.6,4.2a5.3,5.3,0,0,1-.5,1.8c-1,1.5-2.3,1.7-3.6.7a3.8,3.8,0,0,1-1.7-4.1,31.9,31.9,0,0,1,1.9-6.2A7.9,7.9,0,0,0,110.6,24.8Z"/><path class="cls-43" d="M114.4,6.8v5.5h0c-.5,1.4-.5,3-2,3.8h-.1l-.9.4c-3.7,1.5-6.1.2-6.6-3.7s.4-5.8,1.3-8.7h0A1.3,1.3,0,0,1,107,3h.1a2.7,2.7,0,0,1,.9,0c1.4.6,3.1-1,4.3.3A25,25,0,0,1,114.4,6.8Z"/><path class="cls-44" d="M100.1,39.7l-1.7-2.2a21.1,21.1,0,0,1-.1-12.2c.3-.8.8-1.6,1.4-2.8a14.9,14.9,0,0,1,1.4,2.9c.7,3.1,1.3,6.2,1.9,9.3a19.7,19.7,0,0,0,.3,2.4c.4,1.6,1.4,1.7,3.1.5.2-.1.2-.3.4-.4v3.1h-5.7Z"/><path class="cls-45" d="M127.7,12.3l-.9,1.9a7.9,7.9,0,0,1-6.3,2.8h-.1c-4.3-3-4.4-3.9-2-9.4h0c.6-4,4.3-3.3,6.8-4.2s2.1,1.1,2.7,2.3h0C127.9,7.9,127.8,10.1,127.7,12.3Z"/><path class="cls-16" d="M129.9,43.2H126c-2.2,1.5-4.5,1.7-6.7-.2v-.8l15.3-.2v.2C133.6,45.1,131.7,44,129.9,43.2Z"/><path class="cls-46" d="M105.9,26.8c-.3.5-.5,1-.7,1.4s-.8-.4-.9-.8a8.8,8.8,0,0,1-.2-1.7Z"/><path class="cls-47" d="M78.3,84.3c-.2-.5-.2-1-.4-1.4s-1.6-1.4-2.5-.4-.4.9-.7,1.2-1.6.2-2.4-.2c-1.6-2.3-.5-4,1.1-5.7l1.9-2.7h.9c2.3-.2,3.1.1,3.5,2.1a34.5,34.5,0,0,1,1,5.6C80.9,84.1,80.4,84.5,78.3,84.3Z"/><path class="cls-48" d="M71,84.2c-1.3.6-2.2-.6-3.4-.6a5.2,5.2,0,0,1-1.9,1.1,1.4,1.4,0,0,1-1.1.1l-1.5-.6-1-.6a2.5,2.5,0,0,1-.8-1,2,2,0,0,1-.3-1.1,14.5,14.5,0,0,1,.6-3,.6.6,0,0,1,.3-.8l.7-.9h0a2.2,2.2,0,0,0,1-.9h0a1.5,1.5,0,0,1,2,0,1.9,1.9,0,0,0,.2.7l-.2.3a2.8,2.8,0,0,0-.9,1h0a1.8,1.8,0,0,0-.9,1.2.6.6,0,0,1-.2.7.9.9,0,0,0-.3.6c.1.2.1.3.2.3a.8.8,0,0,1,.2.8,1.5,1.5,0,0,0,1.4,1c2.3-.6,2.8-2.4,3.4-4.4s1-1.3,2.8-.2.4,3.8.1,5.7A.8.8,0,0,0,71,84.2Z"/><path class="cls-49" d="M85.7,73.9l1,.2c4.1-.2,4.9,0,4.5.8s-2.9.9-4.3,1.4l-1,.6c.2,1.6.4,3.3.5,5a3.6,3.6,0,0,1-.3,1.8.9.9,0,0,1-.7.5.8.8,0,0,1-.8-.3c-.3-1.4-.7-2.8-.9-4.1s-.4-2.9-2.2-3.3-.4-1.2.2-1.4L84.8,74Z"/><path class="cls-50" d="M58.7,77l1.2,3.3a3.1,3.1,0,0,1,.7,2.1,1.9,1.9,0,0,1-1,1.8h0c-2.4,2.4-4.5,2.5-6.3-.5a5.9,5.9,0,0,1-.3-3.2C54,77.8,55.2,75.5,58.7,77Z"/><path class="cls-2" d="M39.6,76.7c.1-1.1.5-2.3,1.7-2.5a9.2,9.2,0,0,1,3.7.1,10,10,0,0,1,2.3,1.5l.5.4a5.6,5.6,0,0,1,.4,1.2A5.8,5.8,0,0,1,48,80a3.3,3.3,0,0,1-1.6,1.9H45.1c-1.3-.8-2.8-1.9-2.6-3.3.7-3.4-2-1-2.7-1.7Z"/><path class="cls-2" d="M58.7,77c-3.1-.4-3.6,0-4.8,3.3a1,1,0,0,1-1.1.9l-.9-.3-.8-.6-.4-.4-.7-.8a3.6,3.6,0,0,1-.4-.9,2.7,2.7,0,0,1,.3-1.5,1.2,1.2,0,0,1,.8-.4c.4.1.8-.2.7-.4s.2.2-.4.2l-1-.3a3.4,3.4,0,0,1-1.4-.5l-.4-.4c1.4-1.5,3.1-1.4,4.1,0s2.5,1.5,4.1,1A1.8,1.8,0,0,1,58.7,77Z"/><path class="cls-2" d="M29.9,78.6a23.3,23.3,0,0,1,.4-3.8,3.5,3.5,0,0,1,1.6-1.6,1.6,1.6,0,0,1,2,.7v.3c-1.1,1.6-1.1,4.1-3.7,4.6Z"/><path class="cls-51" d="M71.4,83.5V77.8h2.1c-.4,1.9-.7,3.8-1.1,5.7Z"/><path class="cls-52" d="M59.8,82.6a16.9,16.9,0,0,0,.1-2.3l1.7-1.8c0,1.3.1,2.7.1,4.1A1.4,1.4,0,0,1,59.8,82.6Z"/><path class="cls-53" d="M71.3,73.4c-.6.3-1,.7-1.3.6a2.8,2.8,0,0,1-.5-1.1,1.5,1.5,0,0,1,.6-.5A4.8,4.8,0,0,1,71.3,73.4Z"/><path class="cls-52" d="M65.6,75.8h-2C64.3,74.9,65,74.4,65.6,75.8Z"/><path class="cls-52" d="M65.1,82.4l-1.4-1Z"/><path class="cls-52" d="M63.5,80.6l-.3-.7.4-.2Z"/><path class="cls-52" d="M63.8,79l.9-1.2Z"/><path class="cls-52" d="M64.7,77.8l.9-1Z"/><path class="cls-52" d="M62.6,76.8l-.7.9Z"/><path class="cls-52" d="M63.6,75.8l-1,.9Z"/><path class="cls-2" d="M47.3,75.8l.9-.9.3.2v.6l-.4.4h-.6Z"/><path class="cls-54" d="M91.6,81.4c.2-.3.1-.5-.1-.8s-1-3.6,1.4-4.5c1.6,1.3,1.4,3.1,1.5,4.8s-.2,3.9-1.1,3.6S92.5,82.3,91.6,81.4Z"/><path class="cls-55" d="M94.2,71.2c-.1.6.2,1.4-.7,1.7a12.7,12.7,0,0,0-1.2-1c.3-1.3,1.2-.7,1.9-.7Z"/><path class="cls-56" d="M92.3,71.9l1.2,1C92.4,73.4,92.2,72.8,92.3,71.9Z"/><path class="cls-29" d="M40.7,97c1.2-.2,2.3-.2,2.6,1.3a28.1,28.1,0,0,1,.1,2.9c0,1.9-.1,1.9-2.1,1.7a8.8,8.8,0,0,0-2.3,0c-3,.3-4.3-.7-4.4-3.6a9.1,9.1,0,0,1,.3-2.3,1.1,1.1,0,0,1,.9-.8c.3-.1.9.3,1,.6s.4,2.2.7,3.3,1.1.7,1.6.3a5.2,5.2,0,0,0,1.6-3.3Z"/><path class="cls-57" d="M59.6,101.5l-.9,1a6.9,6.9,0,0,1-4.5.1,5,5,0,0,0-2.1.1c-1-.6-3.2.5-3-2s2.8.2,4-.8h2c.5,0,1.1.2,1.3,0s-.2-1.1-.5-1.6a10,10,0,0,1-1-2.1,2.2,2.2,0,0,1,2-2.3,3.1,3.1,0,0,1,1.2.5c.1.1.3.4.2.4-1.1,2.3,2,3.5,1.4,5.7A2.8,2.8,0,0,0,59.6,101.5Z"/><path class="cls-58" d="M24,95.2c-.3,1-1.3,2-.1,3a5.7,5.7,0,0,1,1.2,1.5,2.5,2.5,0,0,1-1.5,3.8,12.2,12.2,0,0,1-3.3.1,2.2,2.2,0,0,1-1.3-1.2,1.3,1.3,0,0,1,1.4-1.5l1.8-.4c-.8-.8-1.5-1.3-2-1.9s-.9-3.2,1-3.6a6.7,6.7,0,0,1,2.8.3v-.1Z"/><path class="cls-59" d="M49.3,100.8l2.8,1.9c-1.5,1-3.1.6-4.5-.1s-2.5-2.9-.8-4.9l.9-1.1c.9-.8,1.4-.7,3.3.5h0q.4.3.3.6l-.3.2h0A6.7,6.7,0,0,1,49.3,100.8Z"/><path class="cls-60" d="M16.4,103.5c-.6-.2-1.4-.2-1.6-.5a8.3,8.3,0,0,1-.4-6.9,1.1,1.1,0,0,1,1.1-.5,1.4,1.4,0,0,1,1,.8c0,2.4,0,4.7-.1,7.1Z"/><path class="cls-61" d="M16.5,91.3c0,.7.6,1.6-.7,1.9a1.2,1.2,0,0,1-.3-1.8Z"/><path class="cls-62" d="M15.5,91.4l.3,1.8h-.2a.5.5,0,0,1-.8-.1h-.1c-.5-.5-.7-1.1.1-1.6A.5.5,0,0,1,15.5,91.4Z"/><path class="cls-61" d="M14.8,91.4c0,.6-.1,1.1-.1,1.6S13.6,91.9,14.8,91.4Z"/><path class="cls-61" d="M14.8,93.1a.8.8,0,0,1,.8.1C15.1,93.9,15.1,93.9,14.8,93.1Z"/><path class="cls-63" d="M162.4,47.1a23.7,23.7,0,0,1-2.2,10.4c0,1.7-1,2.5-2.7,2.5s-1.8.3-2.6-.5a7.5,7.5,0,0,1-2.3-6.9,15.5,15.5,0,0,1,4.6-9.7c1.2-1.1,2.3-.8,3,.6S161.7,45.9,162.4,47.1Z"/><path class="cls-64" d="M154.9,59.5h2.8c.2.3.3.5.2.7s-.2.4-.3.4l-2.8-.2A1.3,1.3,0,0,1,154.9,59.5Z"/><path class="cls-2" d="M189.4,98.9c2.3,2.2,2.5,3.2,1,5.2a12.4,12.4,0,0,0-1.8,2.2c-1.5,3.9-4.5,5.9-8.1,7.7a76.7,76.7,0,0,1-7.8,3.4c-2.8.9-5.5,1.4-8.3.2a3.3,3.3,0,0,0-1.9-.4c-2.8.2-4.8-1.1-6.7-3l.5-.4a2,2,0,0,1,1.3-.4c2.8,0,5.1,1.7,7.8,2,9.7.6,16.6-4.2,22-11.7,1.3-1.1,1.3-2.8,1.6-4.4Z"/><path class="cls-2" d="M154.8,113.3a4.6,4.6,0,0,1-4.8-2.9l.6-.5c2.4-.6,3.8.5,4.5,2.7Z"/><path class="cls-2" d="M189.5,94.2c0,1.5,0,3.1-.1,4.7h-.2a1.9,1.9,0,0,1-2.2-1.3c-.1-1.8.1-3.4,2.3-3.7Z"/><path class="cls-2" d="M155.8,114.2l-1-.9h0c.9-.2,1.2.1,1,.9Z"/><path class="cls-2" d="M150,110.4l-.9-1h0c.9-.2,1.2.1.9,1Z"/><path class="cls-65" d="M173.8,47.2l.3,5.2a8.7,8.7,0,0,1-1.7,5.4,4.2,4.2,0,0,1-7.7-1.3,7.3,7.3,0,0,1-.1-3.3,15.6,15.6,0,0,1,1-3.7c.7-1.7,1.4-3.8,3.3-4.4s3.4,1.1,4.9,2.1Z"/><path class="cls-66" d="M182.8,46.2a.6.6,0,0,0,.8,0c.5.5,1.5.2,1.8,1h0c4.8,2.3,2.1,6.1,2,9.4h0a33.6,33.6,0,0,1-2.4,2.9,4.5,4.5,0,0,1-4.9,1,4.1,4.1,0,0,1-2.4-3.9,37.7,37.7,0,0,1,.2-4.7h0c.8-1.2.6-2.9,2.1-3.7h0a1.1,1.1,0,0,1,.9-1h0C181.3,46.3,182.3,46.6,182.8,46.2Z"/><path class="cls-1" d="M157.6,60.6c0-.4.1-.7.1-1.1l2.5-2h.5c2.9-.2,4.4,1.2,4.8,4L160,65.8Z"/><path class="cls-2" d="M52.1,28.8H54l-4.7,3h-.2C48.6,29,49.5,27.9,52.1,28.8Z"/><path class="cls-67" d="M118.2,95.2a3.3,3.3,0,0,0,3,.9,2.5,2.5,0,0,1-2.7,2.8c-.3-1.4-1.4-1.2-2.3-1s-1.2.9-1.2,1.7a19.7,19.7,0,0,1,.3,2.4c-.1,1.5-1.2,1.7-2.4,1.5h-.1a1.8,1.8,0,0,1-.9-.8c-.3-.3,0-.9-.5-1.2a2,2,0,0,1-.7,1.6,2.5,2.5,0,0,1-1.9,0c-1.1-.8-.1-2.1-.8-3.1,0-3.1,0-6.3-.1-9.4h0a2.2,2.2,0,0,1,2.6-.6c1.2,1.3.4,2.9.6,4.3s.5.1.4,0-.2-2.4-.2-3.6,2-2,3.2-.2h0c1.2,1.5.2,4.3,3,4.9A.4.4,0,0,0,118.2,95.2Z"/><path class="cls-2" d="M114.5,90.3a2.6,2.6,0,0,0-2.7,0c-.4.5-.8.5-1.3,0a3.9,3.9,0,0,0-2.6.1,2.4,2.4,0,0,1,2.2-2c1.4-.1,2.8-.5,4,.6S114.3,89.8,114.5,90.3Z"/><path class="cls-2" d="M117.5,95.2c-2.1.3-2.4.2-2.6-1.3s-.3-2.4-.4-3.6Z"/><path class="cls-24" d="M14.7,28.8a14.5,14.5,0,0,0,3.6-.8,33.6,33.6,0,0,1,8.2-2.4l.7-.6h0c1.5-1.3,3.1-2.3,5.1-1.9,4.5,1.5,5,4.4,1.7,9.5a3.1,3.1,0,0,1-1.5,1c-3.5.4-6.8.8-8,4.8-.1.4-.8.4-1.3.1h-.8c-1.8-.9-3.5-3.3-5.3.2-.4.7-2.3.5-3.4-.2a49,49,0,0,1-5.5-1.3c-2.5-.8-3.8-2.7-4.8-5A2.2,2.2,0,0,1,4,29.5c1.5-1.4,3.1-2,5.1-.6a3.8,3.8,0,0,0,4.8,0Z"/><path class="cls-68" d="M66.8,121.7v-.9c-.2-1.2.2-2.5-.9-3.4s-1.3,2.1-1.5,3.4c-2.1.9-2.4.8-2.8-1.1A26.1,26.1,0,0,0,61,117c-.1-.6-1-.6-1.4-.2a3.5,3.5,0,0,0-.9,3.1c-.4.3-.7.8-1,.9a3,3,0,0,1-1.6-.3c-.1-2.2-.1-4.4-.1-6.6a1.5,1.5,0,0,1,.6-.5c1.9.9,3.9-.7,5.9.1s1.1,1,1.4.9c2.8-.9,4.5.2,5.6,2.7a2.4,2.4,0,0,1,0,3C68.6,121.9,68.6,121.9,66.8,121.7Z"/><path class="cls-69" d="M85.7,114.1a.8.8,0,0,0,.8.1l.2.2c.7.7.3,1.5.2,2.3a6.1,6.1,0,0,0,.5,1.2l1.2-.6c.5-.7.9-1.5,1.5-2.3s1.6-.5,2.3.3.6,2.5.2,3.8-.3,2.2-2,1.7-.9-1.4-2-1a.7.7,0,0,1-.7.4,2.5,2.5,0,0,1-2.2-.1h0a3.9,3.9,0,0,1-.8-1,4.6,4.6,0,0,1,0-3.8,8.6,8.6,0,0,0,.7-1Z"/><path class="cls-70" d="M70.5,117.1a6.1,6.1,0,0,1,.5-1.8c0-.2.4-.5.6-.4s1.1.3,1.1.5a20.1,20.1,0,0,1,.5,5.4c-.1,1.1-1.2.5-1.8.1A4.3,4.3,0,0,1,70.5,117.1Z"/><path class="cls-71" d="M70.5,117.1l.9,3.8-1.9-.8v-3Z"/><path class="cls-72" d="M72.6,110.2c.2.4.6.8.6,1s-.5.6-.8.9l-1-1.2Z"/><path class="cls-9" d="M88.6,119.8c1.3-.8,1.5-.7,2,1h-.8Z"/><path class="cls-9" d="M85.7,120.1h2.2A1.3,1.3,0,0,1,85.7,120.1Z"/><path class="cls-9" d="M84.9,119a3.9,3.9,0,0,0,.8,1A3.9,3.9,0,0,1,84.9,119Z"/><path class="cls-9" d="M85.6,114.2l-.7,1C84.8,114.6,85,114.2,85.6,114.2Z"/><path class="cls-73" d="M23.2,38.5c1.7-.8,2.2-2,1.8-3.9s.5-1.8,1.5-1.9a3.2,3.2,0,0,1,1.4.1c1.7.9,3.4.1,5-.2s2.1-1.7,3.6-.9a3.9,3.9,0,0,1,1,.8,17.3,17.3,0,0,0,2.8,2.6,1,1,0,0,1,.4.5c-1.4.7-2.7,1.7-4.2,2-3.8.7-7.7,1.1-11.6,1.6C24.4,39.2,23.8,38.7,23.2,38.5Z"/><path class="cls-73" d="M42.6,34.7l-1.9.9h-.1c-1.1-1.4-3.8-2.1-2.1-4.7a1.9,1.9,0,0,1,1.8,0c.1,0,.1-.1.1-.2a2.8,2.8,0,0,0-2.2.3c-2.1-4-1.4-4.8,4.4-4.8-.5-1.6-2.4-2.2-2.5-3.8a2.8,2.8,0,0,1,.4-1.3h.1c1.3-.9,2.7-.3,4,.1s3.8-.6,4.7,1.3-1.6,2.3-2.1,3.7a8.5,8.5,0,0,0-.3,4.2,3.2,3.2,0,0,1-.2,1.3C45.7,33.2,44.1,33.8,42.6,34.7Z"/><path class="cls-74" d="M46.4,31.7v-1c.2-2.7-1.4-6.9,4.2-5.8.8.1,1.3-.8,2-1.3,2.8-2.3,5.5-1.9,8.2.4v.9H57.9c-1.1,1-2.8-.5-3.9.9l-1.9,2.9a3.1,3.1,0,0,0-3,2.8l-2.7,1.1a.6.6,0,0,1-.3-.7Q46.3,31.7,46.4,31.7Z"/><path class="cls-73" d="M13.7,38.4h1.8c1.1,0,1.8-.4,2-1.5s.1-.6.1-1,.1-1.9,1.4-2a1.7,1.7,0,0,1,2,1.9c-.2,1.5,1,1.8,1.4,2.7C19.5,39.6,16.6,40.1,13.7,38.4Z"/><path class="cls-75" d="M46.4,31.7v1a3.9,3.9,0,0,1-3.8,2Z"/><path class="cls-76" d="M16.9,118.2a7.6,7.6,0,0,1,2-2c1.9-1,3.2-2.2,3.3-4.6a1.4,1.4,0,0,1,.9-.9,2.1,2.1,0,0,1,1.4,1c1.2,3.1,1,6.5.7,9.8,0,.3-.7,1-.9.9-2.2-1-4.3,1.1-6.5.2h-.1c-.5,0-.8-.3-.8-.9h0c-1.2-1.1-1.1-2.3,0-3.5Z"/><path class="cls-60" d="M33.7,125.6c-.8.8-.6,2.9-2.1,2.6s-1.1-2.2-1.5-3.3,1.2-3.2-1-4.4-1.7-1.8-2.4-2.8,0-1,.3-1.2a1.3,1.3,0,0,1,1.3-.2l2.4,3c.5-1.5.8-2.2,1-2.9s.5-1.9,1.7-2,1.3,1,1.2,2.7l-.3,2.8Z"/><path class="cls-77" d="M137.5,81.6a9.6,9.6,0,0,0,1.2,2c.9.6,2,.9,3,1.5s2.4,2.3,1.9,3.4-3,3-4.7,2.4a10,10,0,0,1-2.1-1c-3.1-1.7-4-3.8-2.9-7.1a2.6,2.6,0,0,1,1.5-1.7c.6-.2,1.4.3,2.1.5Z"/><path class="cls-2" d="M112.5,102.8a.4.4,0,0,1,.3.6c-2.4.6-4.9.6-7.2,1.8-.4.2-1,.4-1.3.2-2.9-1.2-5.9-.5-8.8-.9-.5-.1-.8-.5-1.2-.8l.4-.5c1.8-.9,3.9-.2,5.8-1l2.5.3a8.6,8.6,0,0,0,2.3.2,5.3,5.3,0,0,0,1.7-.4,2.5,2.5,0,0,1,1.7.1c.5.7,1.2.4,1.8.3A1.3,1.3,0,0,1,112.5,102.8Z"/><path class="cls-2" d="M94.3,103.7c-2.9-1-3.2-1.6-1.9-3.9h.2a3.3,3.3,0,0,1,2,3.5Z"/><path class="cls-2" d="M77,21.2l-7.6-2.9c2.3-1.6,4.5-1,6.5.4A2.7,2.7,0,0,1,77,21.2Z"/><path class="cls-2" d="M80.9,26c-1.8-1.2-3.4-2.6-3.9-4.8C79.5,21.8,80.4,23.7,80.9,26Z"/><path class="cls-2" d="M82.8,28.8a3,3,0,0,1-1.9-2.9A2.7,2.7,0,0,1,82.8,28.8Z"/><path class="cls-2" d="M69.4,18.3c-1.1,0-2.2.1-2.9-1C67.6,17.3,68.7,17.1,69.4,18.3Z"/><path class="cls-2" d="M83.8,30.8a18.6,18.6,0,0,1-1-2A1.9,1.9,0,0,1,83.8,30.8Z"/><path class="cls-2" d="M127.9,5.8c-1.7-2.3-1.7-2-4-1.7a7.6,7.6,0,0,0-5.5,3.6c.4-3.2.4-3.2,2.9-3.9a23.3,23.3,0,0,1,3.6-.8,4,4,0,0,1,2.6.6C127.9,4,127.8,5,127.9,5.8Z"/><path class="cls-2" d="M118.4,7.7a9.7,9.7,0,0,1-.3,1.8c-1.4,3.2-.4,5.7,2.3,7.6A3.2,3.2,0,0,1,119,17a3.8,3.8,0,0,1-2.5-3.6C116.5,11.3,115.7,8.9,118.4,7.7Z"/><path class="cls-2" d="M112.4,16.1c.6-1.3,1.3-2.5,2-3.8C114.6,14,114.6,15.7,112.4,16.1Z"/><path class="cls-78" d="M54.3,55.9c2.1-1,4.2-.4,6.3,0a8,8,0,0,0,1.9,1.3c3.5,2.2,4.7,5.7-.3,8.8l-1.6.9c-4.4.9-4.4.9-4.7-3.5-.1-1.7.1-3.4-1.4-4.8S54.4,56.8,54.3,55.9Z"/><path class="cls-79" d="M78,55.8l.9,1.8-4.9,1a.8.8,0,0,0-.3,1.5c1.1.6,2.1,1.2.5,2.2s-.4,2.1-.8,3-.6,1-.7.9a3.4,3.4,0,0,1-1.5-.9,8.6,8.6,0,0,1-1.6-4.7,2.5,2.5,0,0,1,.9-2l.9-1.7h.1c1.9-2,4.1-2,6.5-1.1Z"/><path class="cls-80" d="M69.5,65.3H67.9c-.4-2.3-.8-4.5-1-6.8,0-.2.9-.6,1.4-.6s.7.5,1.1.8.4,1.4.5,2.2S70.6,63.9,69.5,65.3Z"/><path class="cls-81" d="M69.5,65.3V60.4h.7a7.7,7.7,0,0,1,.9,4.9Z"/><path class="cls-82" d="M65.3,55.6l.5-.8L67,55.9c-.4.2-.7.6-1,.5S65.5,55.9,65.3,55.6Z"/><path class="cls-83" d="M70.3,60.4h-.7a11,11,0,0,0-.2-1.8h1.1A11,11,0,0,0,70.3,60.4Z"/><path class="cls-84" d="M47.5,113.4l2.8-.9,2.7,1.8c.3,1.9.7,3.7,1,5.5a1.7,1.7,0,0,1-1.4,2.1,5.6,5.6,0,0,1-2.2.3,5.9,5.9,0,0,1-2.6-1c-1-.8-.5-1.9-.2-3a1.1,1.1,0,0,1,.8-.8l.9-.4c.3-1.2-.3-1.3-1.2-.9h-.7a4.3,4.3,0,0,1-1-.9Z"/><path class="cls-85" d="M48.1,116.1c.4-.2.8-.7,1.2-.7a1.2,1.2,0,0,1,1.1.5c.2.8-.3,1.1-1.1,1.1Z"/><path class="cls-85" d="M48.4,117.4l-.8.8Z"/><path class="cls-85" d="M46.4,115.2l1,.9C46.7,116.2,46.3,115.9,46.4,115.2Z"/><path class="cls-86" d="M79.3,118.3c-.5.4-.7.8-1,.8s-.6-.4-.9-.6a3.4,3.4,0,0,1,.8-.9A3,3,0,0,1,79.3,118.3Z"/><path class="cls-2" d="M54,83.6c1.6,2,2.1,2.2,4,1.4l1.6-.8a2,2,0,0,1-1.7,2,12.3,12.3,0,0,1-1.9.2c-2,.5-3.4-2-5.8-.7s-3.6.5-5.5.7a5.3,5.3,0,0,0-1.8.4c-1.8.7-3.1-.1-4.2-1.3l.3-.3c1.8-1.2,4.2-.8,6-2a3,3,0,0,1,1.3-.2,7.7,7.7,0,0,0,5.6-.7C53,82.1,53.5,82.8,54,83.6Z"/><path class="cls-2" d="M64.6,84.4h1a1.5,1.5,0,0,1,1.8,0h.1a3.6,3.6,0,0,1-4.9.1l.3-.5A2,2,0,0,1,64.6,84.4Z"/><path class="cls-2" d="M59.8,82.6h1.9l.9.9h.1c.3.1.4.3.3.4s-.1.3-.2.3l-.2.3-3-.4A8.8,8.8,0,0,0,59.8,82.6Z"/><path class="cls-84" d="M94.6,103.4c-.7-1.1-1.3-2.3-2-3.5,1-1.6,1.7-3.4,3.5-4.3a8.5,8.5,0,0,1,2.3-.4c.2,0,.5.4.6.6a.9.9,0,0,1-.1.9c-.9.9-1.9,1.6-2.7,2.5a1.4,1.4,0,0,0,.9,2.2,2.6,2.6,0,0,0,2.6-.8,32.5,32.5,0,0,1,2.3-2.9,2.8,2.8,0,0,1,2.2-.3c1,.5,1,1.5.6,2.5s-.7.7-1,1a.5.5,0,0,0,.2.8h0c.5.7,1.4.4,2,.9s.2.7-.2,1h-2.7c-.6-.5-1.5-.4-2.2-.8A8.2,8.2,0,0,1,94.6,103.4Z"/><path class="cls-87" d="M105.9,102.7c-.8,0-1.6-.1-1.9-1a6.5,6.5,0,0,1,2.4-.1c1.5.3,1.4-.8,1.6-1.7a2.4,2.4,0,0,1,.7,2.5l-1.8.3A.6.6,0,0,1,105.9,102.7Z"/><path class="cls-87" d="M104,101.7l-.5-.5.3-.3C103.9,101.2,103.9,101.5,104,101.7Z"/><path class="cls-2" d="M76.1,103.7c-.7,1.7-2.2,1.9-3.8,1.9s-3.1-.2-3.9-1.9l.3-.3a6.7,6.7,0,0,1,7.3.1Z"/><path class="cls-2" d="M80.1,103.5h4.6C82.7,105.1,81.9,105,80.1,103.5Z"/><path class="cls-2" d="M191.3,80.6c2.4,2.9,1.7,5.8.1,8.7h-.2c-1.8-2.6-1.4-5.3-.4-8Z"/><path class="cls-2" d="M186.5,84.3l-1.8.3c.3-1.5,1.4-2,2.8-2.1a1.4,1.4,0,0,0,.2.6C187.5,83.8,187.2,84.2,186.5,84.3Z"/><path class="cls-2" d="M189.4,80.6c.6-.9,1.3-1,1.9,0h-.1a1.2,1.2,0,0,1-1.5.3Z"/><path class="cls-2" d="M187.5,82.5l.9-1a1.4,1.4,0,0,1,.2.6,1.3,1.3,0,0,1-.9.7Z"/><path class="cls-2" d="M188.4,81.5l1-.9.3.3a1.3,1.3,0,0,1-1,.9Z"/><path class="cls-88" d="M149.1,95.1l1.2,1.2c.7.6,1.2.4,1.6-.4s-.2-.7.1-.9h-.1c6.9-4.1,14.4-4.1,22.1-2.9a36.5,36.5,0,0,0,4.7.1c1.4.1,3.1-.1,3.3,1.8s-1.3,2.5-2.6,3a24.1,24.1,0,0,1-6.6,1.2c-5.2.4-10.5-1.1-15.6,1.1a4.6,4.6,0,0,1-2,.9,1.3,1.3,0,0,1-1.3-.5,1.4,1.4,0,0,0-1.9-.9,10.4,10.4,0,0,0-5.4,3.6c-.3.5-.8,1-1.5.5a1.4,1.4,0,0,1-.4-2.1c.4-.6.8-1.5,1.4-1.8S148.2,96.5,149.1,95.1Z"/><path class="cls-89" d="M151,103.7l.3-1.1c1.2-.8,2.2-.1,3.2.6l1.1.9c.1.2.3.3.5.5,3.9,3.9,9,4.1,14,4,1.9,0,3.7-.6,5.5.4a2.3,2.3,0,0,1,.6,1.2c-3.3,3-8,2.5-11.6,4.9-1.3.9-3.2,0-4.4-1.1s-4.5-2.9-6.2-5l-.8-1-.8-1A5.8,5.8,0,0,1,151,103.7Z"/><path class="cls-90" d="M151,103.7c.7.9,1.3,1.9,2,2.9a3.9,3.9,0,0,1,.8,1h0c.2,2.5,4.4,3.2,3.1,6.5h-1.1l-1-.9c-1-2-2.4-3.1-4.8-2.9l-.9-1C149,107.3,149.1,105.2,151,103.7Z"/><path class="cls-91" d="M153.7,103.8l-2.4-1.2c.3-1.4,1.5-1.6,2.6-1.9a4.9,4.9,0,0,1,2.4.8,3.3,3.3,0,0,1,1.5,2.8c-.8,1.3-1.9,1-3,.4h0A2.4,2.4,0,0,0,153.7,103.8Z"/><path class="cls-92" d="M155.8,102l-1.9-1.3a1.4,1.4,0,0,1,0-.9l.9.2c.6.2,1.1.4,1.3,1A1,1,0,0,1,155.8,102Z"/><path class="cls-42" d="M76,103.5c-2.5.1-4.9.6-7.3-.1-.4-1.2-1.1-2.4-.4-3.6s1.5-2.6,2.7-3.2a4.1,4.1,0,0,0,2.6-3.9,2.2,2.2,0,0,1,.6-1.3A1.5,1.5,0,0,1,75,91c.4.2.9.4,1,.8a8.5,8.5,0,0,1,.3,2.3Z"/><path class="cls-2" d="M153.9,9.6V7.7l4.6-.4c2.3-.2,4.5-.1,5.9,2.2Z"/><path class="cls-2" d="M31.7,94.3l1.1,1Z"/><path class="cls-93" d="M92.6,119.1c-.1-1.3-.1-2.5-.2-3.8h1.1l-.3,3.8h-.6Z"/><path class="cls-76" d="M30.1,78.8a6.5,6.5,0,0,0,.8-1.7,3.8,3.8,0,0,1,2.8-2.9c.6.9,1.5,1.7,1.7,2.7s.9,4.9,1.3,7.4S36,85.8,35,86.1a6.9,6.9,0,0,0-.5-1.3c-1-1.5-1-1.5-2.3-.5l-.6.6c-.5-.1-1.5-.3-1.5-.6S30.1,80.6,30.1,78.8Z"/><path class="cls-94" d="M45.5,83.6c-1.8,2.2-4,2.5-6.5,1.6-.2-2.4-.2-2.4,1.4-2.5s1.5.1,1.7-.2-.3-1.4-.8-1.9a5.1,5.1,0,0,1-1.5-3.7c.9-.8,1.5-2.2,2.9-2.2a3,3,0,0,1,2.1.7c.6.7.1,1.5-.6,2.1a4.5,4.5,0,0,1-1.2.6l2.4,3.5A1.4,1.4,0,0,1,45.5,83.6Z"/><path class="cls-75" d="M60.8,24a11.6,11.6,0,0,1-2.8-.5,4.1,4.1,0,0,0-5.4,1.7l-.8,1.2c-1.1,1.4-1.4,1.4-2.7-.2a1.8,1.8,0,0,0-1-.7c-.1,0-.5.4-.6.6s-.8,3.1-1.1,4.6c-.3-.5-.9-1-.9-1.6s.4-1.6.3-2.3.6-2.8,2.4-3.1c.2,0,.5-.4.5-.7s-.4-.6-.5-.5c-2.8.6-5.1-1.1-7.6-1.4l3.6-2,3.2-1.7a36.3,36.3,0,0,1,12.7-1,13.4,13.4,0,0,1,2.6.9l.6.6c.7.5,2.1.4,1.8,1.7a2.1,2.1,0,0,1-2.2,1.5C60.9,21.1,60.7,22.5,60.8,24Z"/><path class="cls-2" d="M187.4,56.6c.1-.9.2-1.8.4-2.8a6.8,6.8,0,0,0-2.4-6.6c3.4.9,3.8,1.3,3.3,4.2a23.3,23.3,0,0,1-.4,3.7A6,6,0,0,1,187.4,56.6Z"/><path class="cls-2" d="M185.4,47.2l-1.8-1A1.5,1.5,0,0,1,185.4,47.2Z"/><path class="cls-2" d="M182.8,46.2l-1.9,1c0-.4-.1-.7-.1-1.1Z"/><path class="cls-95" d="M81.8,100.8l3.9-.3c-.9,1.7-2.4,1.4-3.9,1.1Z"/><path class="cls-96" d="M118.5,98.9l2.7-2.8c1.9.6,2.6,1.5,1.9,2.8s-1.3,1.7-2,2.7c2.1,1,3.8-.1,5.6-.6h0c1.5,1.6.9,2.6-.8,3.5h-.1l-2.7.4a4.6,4.6,0,0,1-4.3-1.3A4.1,4.1,0,0,1,118.5,98.9Z"/><path class="cls-2" d="M32,24l-4.8,1,.9-3.9a17,17,0,0,0,6.7.9,1.4,1.4,0,0,1,.2.6C34.5,24.1,32.7,23,32,24Z"/><path class="cls-2" d="M34.8,22c.7-1,1.9-.9,2.9-.9l.2.2a1.1,1.1,0,0,1-.4,1.2,2.1,2.1,0,0,1-2.6-.4Z"/><path class="cls-2" d="M91.7,6.8v7.5A6.2,6.2,0,0,1,91.7,6.8Z"/><path class="cls-2" d="M49.3,100.8,51,97.7c.2,1.3.8,2.1,2.1,2.2A4.1,4.1,0,0,1,49.3,100.8Z"/><path class="cls-2" d="M51,97.8a.6.6,0,0,1,0-.8l.6.4Z"/><path class="cls-2" d="M125.9,104.5c1-1,1.9-2.1.8-3.5,1.4.4,1.4,1.5,1.1,2.5S126.7,104.5,125.9,104.5Z"/><path class="cls-2" d="M78,55.7a9.8,9.8,0,0,0-6.5,1.1c.6-2.1,1.9-2.9,4.1-2.2S77.5,54.7,78,55.7Z"/><path class="cls-2" d="M16.9,118.2v3.5C15.2,120.3,15.2,119.8,16.9,118.2Z"/><path class="cls-2" d="M16.9,121.7l.8.9-1.1.3Z"/><path class="cls-75" d="M37.7,22.1c.1-.3.1-.6.2-.8l2.6-.3a4.1,4.1,0,0,1,.1,1.1A2.1,2.1,0,0,1,37.7,22.1Z"/><path class="cls-9" d="M86.9,116.7a17.9,17.9,0,0,1-.2-2.3h.7Z"/><path class="cls-9" d="M88.6,117.3l-1.2.6Z"/><path class="cls-2" d="M107,3l-.9,1.1Z"/><path class="cls-2" d="M180,48.2l-2.1,3.7a6.6,6.6,0,0,1,.9-3.9Z"/><path class="cls-78" d="M188.7,81.8l1-.9,1.5-.2a24.3,24.3,0,0,1,0,8.5L189.3,94l-1.9,3.8a2.8,2.8,0,0,1-1,.9c-1.3.4-2.7,1.1-3.3-1,.8-4.3,3.9-7.7,4.5-12a13.4,13.4,0,0,1-1.1-1.4l1.2-1.5A9.4,9.4,0,0,0,188.7,81.8Z"/><path class="cls-52" d="M67.4,84.4H65.6l2-.8A2.4,2.4,0,0,0,67.4,84.4Z"/><path class="cls-2" d="M180.9,47.2l-.9,1c-.1-.4-.1-.8-.2-1.2Z"/><path class="cls-97" d="M187.6,85.7c1.1.3.9,1.2.6,1.9-1.5,3.5-3.1,6.9-4.7,10.3a10.5,10.5,0,0,1-1.2,2.9,16.1,16.1,0,0,1-4.5,4.5l-1.1.6-1.2.5-3.1,1a18.1,18.1,0,0,1-4,.4,28.3,28.3,0,0,1-4.1-.3l-3-1.1a2,2,0,0,1-.9-.9c-.1-.8.5-1.4.9-2.1a10.4,10.4,0,0,0,.4-1l.6-.8a1.1,1.1,0,0,1,.8-.3v-.4l-.3-.2a2.2,2.2,0,0,1-.6-2.6c1.3-1.2,2.9-.4,4.4-.6s1.5,2.9,3.2.9,2.2-.5,3.1-1.3,4.4-.7,6.6-1.2a5.9,5.9,0,0,0,2-1.2c.2-.1.2-.6.1-.9s-.4-.6-.6-.6l-7.5.5c-1.2,0-2.2.1-2.5-1.5s-.9-.4-1.5-.2a56,56,0,0,1-5.4,1.7c-1,.2-2.2.5-2.7-1.1s-1.1-.4-1.6,0a14.1,14.1,0,0,1-7.1,2.7l-.9-.2c2.1-4,5.7-5.4,9.8-5.6s9.2-.2,13.9-.2a21.9,21.9,0,0,0,11.4-3Z"/><path class="cls-97" d="M152,95a2.8,2.8,0,0,1-.1.9l-.3-.7C151.6,95.1,151.9,95,152,95Z"/><path class="cls-98" d="M100.1,81.4l-.6-.4c-.1-.6-.4-1.3-.2-1.7a5.4,5.4,0,0,1,1.5-1.5c.1-.1.4,0,.4.1s.7,1.2.6,1.6A10.1,10.1,0,0,1,100.1,81.4Z"/><path class="cls-21" d="M129.9,43.2c1.6-.2,3.4.6,4.8-.9l1.9.9h0a9.4,9.4,0,0,0-1,1h0a10.1,10.1,0,0,0-2.4,1,5.5,5.5,0,0,1-3.3.9A2.8,2.8,0,0,0,129.9,43.2Z"/><path class="cls-99" d="M119.3,43.1l6.7.2c0,1.1.2,2.4-.9,3a9.5,9.5,0,0,1-3.9,1.3c-1,.1-2-.7-2.9-1.3s-.9-2-.9-3.1Z"/><path class="cls-22" d="M54,25.9c.5-1.1,1.2-1.8,2.5-1.2a5.8,5.8,0,0,0,1.4.3,2.8,2.8,0,0,1-.1.9Z"/><path class="cls-100" d="M100.3,58.5c-.3.3-.6.8-1,.8s-.6-.4-.2-.8A.9.9,0,0,1,100.3,58.5Z"/><path class="cls-101" d="M100.3,58.5H99.1c.3-.2.6-.6.9-.7S100.8,58.1,100.3,58.5Z"/><path class="cls-16" d="M135.6,44.2l1-1Z"/><path class="cls-102" d="M94,10c.5-1.8,1-3.6,1.6-5.3a.9.9,0,0,1,1.6-.2c2.3,2.3,3.2,7.4,2,10.1a2,2,0,0,1-3.7.4C94.5,13.7,94.2,12.6,94,10Z"/><path class="cls-103" d="M111.9,9c-.1,2-.2,3.8-1.6,5.1s-2.1.5-2.4-.3c-1.3-2.6-.6-5.2.5-7.6.2-.4,1.4-.5,2.1-.4A2.2,2.2,0,0,1,111.6,7,19.6,19.6,0,0,1,111.9,9Z"/><path class="cls-104" d="M125.6,8.4c-.2,2-.4,4.2-2.3,5.4a2.8,2.8,0,0,1-2.2.2c-.4-.1-.8-1-.8-1.5a6.2,6.2,0,0,1,3.1-6,1.3,1.3,0,0,1,2.1.9A3.4,3.4,0,0,0,125.6,8.4Z"/><path class="cls-105" d="M76.6,79.6c-.1-.2-.4-.4-.4-.6s.3-.3.5-.5.3.3.2.4A2.1,2.1,0,0,1,76.6,79.6Z"/><path class="cls-52" d="M62.8,84.3a1.7,1.7,0,0,0-.1-.7l1.9.8Z"/><path class="cls-52" d="M62.6,83.5l-.9-.9Z"/><path class="cls-106" d="M58.1,80.8c-.2.5-.2,1-.5,1.3a1.7,1.7,0,0,1-1.2.4c-.1,0-.4-.5-.4-.7a1.9,1.9,0,0,1,.3-1.3,1.7,1.7,0,0,1,1-.7C57.6,79.8,57.8,80.4,58.1,80.8Z"/><path class="cls-107" d="M54,83.6l-1.8-.9a1.5,1.5,0,0,1-.1-2.1l1.8-.3C53.9,81.4,54,82.5,54,83.6Z"/><path class="cls-94" d="M52.1,80.6a14.8,14.8,0,0,1,.1,2.1c-2.1,2.6-2.9,2.8-6,1-.5-.9.2-1.3.9-1.7a1.5,1.5,0,0,1,.9.2c.4.5-.5.3.2.3s.4-.4.4-.7a8,8,0,0,1-1.2-2.2c-.3-1-.6-1.9.1-2.8a2.2,2.2,0,0,1,.7-.9h.2c.9-.7,1.9-.4,3-.2h0a1.2,1.2,0,0,1-.2,1L51,77h-.4c-1,.3-1,.9-.4,1.7h.1a1.8,1.8,0,0,0,1,.9h0c.1.4.5.7.8,1Z"/><path class="cls-108" d="M47.4,79.6l1.9,1.1c.7.6.5,1.2,0,1.8s-.7.4-.9,0h-.1c-.5-.6-1.6-.1-2-1.1A17.4,17.4,0,0,0,47.4,79.6Z"/><path class="cls-107" d="M46.3,81.4l2,1.1a2.4,2.4,0,0,0-2.1,1.2.9.9,0,0,1-.7-.1,12.7,12.7,0,0,0-.1-2C45.8,81.7,46.1,81.7,46.3,81.4Z"/><path class="cls-107" d="M48.2,75.9l-.7.9V76Z"/><path class="cls-107" d="M51.4,75.6l-3,.2a1.7,1.7,0,0,1,.1-.7C49.5,75.1,50.7,74.1,51.4,75.6Z"/><path class="cls-107" d="M50.2,78.7c-.9-1.1-.9-1.1.4-1.7A8.5,8.5,0,0,0,50.2,78.7Z"/><path class="cls-107" d="M52.1,80.6l-.8-1Z"/><path class="cls-107" d="M51.3,79.6l-1-.9Z"/><path class="cls-107" d="M51.2,76.7a3,3,0,0,1,.2-1C52,76.1,52,76.5,51.2,76.7Z"/><path class="cls-109" d="M159.9,49.3a12.4,12.4,0,0,1-2.1,6.8c-.2.3-.9.7-1.1.6a3,3,0,0,1-1.3-1.2,3.6,3.6,0,0,1-.2-1.8,55.4,55.4,0,0,1,1.4-5.5,1.6,1.6,0,0,1,2.2-1.1c1,.3,1.1,1,1.1,1.8Z"/><path class="cls-110" d="M156.9,114.1c-.7-1-1.2-2.1-2-3.1a4,4,0,0,1-1.1-3.4c2.1,2.4,5.2,3.5,7.3,6s3.2,1.3,4.5-.1,2.6-2.4,4.6-1.5a1.6,1.6,0,0,0,1.2-.5c1.4-1.2,3-1.1,4.6-1.1a.7.7,0,0,1,1.1.2c-1.5,4.1-5.5,6-11.8,5.6l-4.9-1Z"/><path class="cls-111" d="M165.3,116.2c2.9-.8,5.8-1.4,8.6-2.3s2.2-2.2,3-3.5a44.8,44.8,0,0,0,8.1-6.9c1.6-1.7,2.5-1.6,3.5.2-3.7,7.3-10.2,10.8-17.8,12.6a22.9,22.9,0,0,1-2.8.7A2.6,2.6,0,0,1,165.3,116.2Z"/><path class="cls-112" d="M188.5,103.7a2.9,2.9,0,0,0-1.3-.5,2.5,2.5,0,0,0-1.2.2c.4,1.9-1.2,2.1-2.3,2.8a7.2,7.2,0,0,0-2.3,2.3c-1.1,1.9-2.7,2-4.5,1.9H176a3.8,3.8,0,0,1-.1-1c.1-.2.3-.3.5-.5a9.2,9.2,0,0,0,5.3-5.3,9.8,9.8,0,0,1,1.3-2.2,38.2,38.2,0,0,1,3.6-3.4l.8-.2,1.8,1.2c.2.5.3.9.5,1.3S190,102.9,188.5,103.7Z"/><path class="cls-113" d="M172,50.8c-.2,2.5-.4,4.4-1.9,5.9a2.4,2.4,0,0,1-1.7.4,1.2,1.2,0,0,1-.9-.9,9.1,9.1,0,0,1,2.1-8.4c.2-.2,1.4.1,1.6.4A10.2,10.2,0,0,1,172,50.8Z"/><path class="cls-114" d="M185.7,51.6c0,2.7-.6,4.8-2.6,6.2a1.5,1.5,0,0,1-2.6-.7c-.8-2.3.5-6.2,2.4-7.8a1.6,1.6,0,0,1,2.1.5A15.7,15.7,0,0,1,185.7,51.6Z"/><path class="cls-115" d="M112.5,102.8h-2V97.2c.9,1.5,1.3,1.8,1.4,2.3S112.3,101.7,112.5,102.8Z"/><path class="cls-116" d="M110.5,90.3h1.3c0,1.7.5,3.5-.6,5.2C109.9,93.8,111,92,110.5,90.3Z"/><path class="cls-117" d="M37.7,22.1h2.9a12.1,12.1,0,0,0,1.6,1.6c2.2,1.4,2.2,1.4,1.8,4.5a18.6,18.6,0,0,0-3.1-1,3,3,0,0,0-2.5.3c-1.1,1-.9,2.2.3,3.2h0c0,1.2-.2,2.5,1.5,2.9s.6,1.2.4,1.9c-2.3.4-3.1-1.2-3.8-2.9h0c-1.3-1-2.6.1-3.9,0a7.6,7.6,0,0,0,2-6c-.3-2.1-.2-2.1-2.9-2.6l2.9-1.9Z"/><path class="cls-75" d="M38.7,30.7A18.2,18.2,0,0,1,41,29.2a1.3,1.3,0,0,1,1.9.8,1.8,1.8,0,0,1-.1,1.6,2.4,2.4,0,0,1-2,.8,8.3,8.3,0,0,1-2.1-1.7Z"/><path class="cls-118" d="M20.7,120.1c-.4-.2-.6-.2-.6-.3s-.3-.5-.2-.7.6-.8.9-.9.8,0,1.2.2,0,.6-.1.7A4.8,4.8,0,0,1,20.7,120.1Z"/><path class="cls-119" d="M100.9,102.8a2,2,0,0,1,2.2.8Z"/><path class="cls-119" d="M105.9,102.7h1c0,.7-.4,1-1.1.9A2.8,2.8,0,0,0,105.9,102.7Z"/><path class="cls-120" d="M58.6,58.4a32.5,32.5,0,0,1,3.3,1.7c1.3.9,1.2,2.1-.2,3a3.8,3.8,0,0,1-1.7.8c-.3.1-1-.3-1-.5A15.6,15.6,0,0,1,58.6,58.4Z"/><path class="cls-121" d="M167.3,97.9c-1.6.2-3.4-.6-4.8.9s-.3.6-.7.5-.5.7-.7,1a2,2,0,0,1-.8.8,1.5,1.5,0,0,1-1.1.2,4.1,4.1,0,0,1-3.4-2.4c.2-.4.4-1,.7-1.1a8.8,8.8,0,0,1,2.8-.6H173l-2.8,1.5C168.9,99.7,168.2,98.6,167.3,97.9Z"/><path class="cls-122" d="M155.8,98.9l3.9,2.1,1,.2,1,.2c.4.4.4.9.7,1.3v1c-1.1.8-2.3.4-3.4-.1l-1.3-1-1.2-1-.9-.6-.9-1Z"/><path class="cls-123" d="M163.6,106.5l4.7.2c2.2,1.8,5.2-.1,7.5,1.4a.9.9,0,0,1,.1,1.3h0a9.3,9.3,0,0,0-2.9.1c-3.3,1-6.5.2-9.8-.1a10.5,10.5,0,0,1-8.4-4.7c1-.2,2.2.5,2.9-.8a1,1,0,0,0,.4-.5,3.3,3.3,0,0,1,2.6,1.9v.3C161.4,106.5,162.8,105.7,163.6,106.5Z"/><path class="cls-110" d="M153.8,107.6l-.8-1Z"/><path class="cls-123" d="M153.7,103.8l1.1.9Z"/><path class="cls-124" d="M157.8,101.7l1,1c-.1.5-.6.6-1,.9v.3l-1.9-1.9c0-.3-.1-.7-.1-1h.8A3.3,3.3,0,0,1,157.8,101.7Z"/><path class="cls-125" d="M73.4,100l-1.1,1.6c-.2.2-.8.2-.9,0a1.3,1.3,0,0,1-.5-1.1A7.2,7.2,0,0,1,72,99a1.3,1.3,0,0,1,.9-.1C73.1,99,73.1,99.4,73.4,100Z"/><path class="cls-126" d="M33.6,80.9c-.1.1-.3.2-.4.1s-.1-.2-.1-.4h.5Z"/><path class="cls-127" d="M186.6,98c-.2,1.8-1.5,2.8-2.9,3.8a1,1,0,0,1-1,.3c-.8-.6-.5-1.5-.8-2.2l1.6-2C184.5,99,185.6,97.6,186.6,98Z"/><path class="cls-128" d="M182.6,101.7h1.1a18.6,18.6,0,0,1-1,2c-2.2,1.6-2.7,5.7-6.8,4.7h-5.7c-1.2,0-1.7-.6-1.9-1.7l4.3-.2c1-.6,2.5.1,3.3-1h-.1l1.2-.4C179.4,104.9,180,101.5,182.6,101.7Z"/><path class="cls-129" d="M167.3,97.9c1.2-.6,2,.4,2.9.7s1.4,1.2,2,1.9-.2.8-.4,1.2a25.2,25.2,0,0,1-2.9-1.2A2.5,2.5,0,0,1,167.3,97.9Z"/><path class="cls-130" d="M182.6,101.7l-2.8,2.5a4,4,0,0,1-2.9,1.4c-.2-.2-.3-.4-.2-.6l.3-.3,4.9-4.8A13.4,13.4,0,0,1,182.6,101.7Z"/><path class="cls-131" d="M157.8,103.6l1-.9,3.7,1-1.8,1.6Z"/><path class="cls-132" d="M160.6,100.8v-1c.3-.4.4-1,1-1.1h.8l2,2.1c.1.9-.3,1.4-1.3,1h-.6c-.5-.1-.7-.5-1.2-.6h-.5Z"/><path class="cls-133" d="M163.2,101.9l1.3-1c.3.4.9,1.1.8,1.2S163.8,102.7,163.2,101.9Z"/><path class="cls-134" d="M163.6,106.5c-1.1,0-2.3.3-3-.9Z"/><path class="cls-135" d="M175.9,105.5c-.7,1.4-2.1,1-3.3,1Z"/><path class="cls-133" d="M161.6,100.8l1,1.1a1.1,1.1,0,0,1-.2.8,6,6,0,0,1-.8-.8C161,101.6,161,101.2,161.6,100.8Z"/><path class="cls-135" d="M177,104.7c0,.3-.1.6-.1.9h-1.1Z"/><path class="cls-107" d="M48.4,82.5h.9C48.9,83.1,48.6,83.2,48.4,82.5Z"/><path class="cls-89" d="M175.9,108.5c1.4,0,2.3-.9,3.3-1.7l3.5-3c-.2,2.4-2.3,3.6-3.7,5.2s-2,.3-3.1.4Z"/><path class="cls-73" d="M36.8,32.6l.2-.4-.2.4Z"/><path class="cls-88" d="M161.7,98.7l-1,1.1V98.2Z"/><path class="cls-133" d="M160.7,101.7l-1-.7.9-.2h0a.9.9,0,0,1,.3.6C160.8,101.5,160.8,101.7,160.7,101.7Z"/><path class="cls-136" d="M160.7,101.7a1.1,1.1,0,0,1-.1-1h1v1.1Z"/><path class="cls-133" d="M157.8,101.7l-1.3-.7Z"/></g></g></svg>