<svg xmlns="http://www.w3.org/2000/svg" viewBox="0 0 204.4 177.4"><defs><style>.cls-1{fill:#fff;}.cls-2{fill:#fefefe;}.cls-3{fill:#3f2222;}.cls-4{fill:#d4e5e0;}.cls-5{fill:#0e0c0c;}.cls-6{fill:#c3dfdc;}.cls-7{fill:#bad2ce;}.cls-8{fill:#aacdc7;}.cls-9{fill:#eef2f2;}.cls-10{fill:#c5dcd3;}.cls-11{fill:#d7e8e2;}.cls-12{fill:#020202;}.cls-13{fill:#b0d0cb;}.cls-14{fill:#1d0f0e;}.cls-15{fill:#0f1010;}.cls-16{fill:#a2c8c2;}.cls-17{fill:#b9d7d2;}.cls-18{fill:#2b2c2c;}.cls-19{fill:#98bfb8;}.cls-20{fill:#040303;}.cls-21{fill:#080807;}.cls-22{fill:#b9d6d1;}.cls-23{fill:#a6cbc5;}.cls-24{fill:#a8ccc6;}.cls-25{fill:#a0c7c1;}.cls-26{fill:#a9ccc6;}.cls-27{fill:#d6e6e0;}.cls-28{fill:#cbdcd6;}.cls-29{fill:#091f1f;}.cls-30{fill:#c6ded6;}.cls-31{fill:#3b2e2d;}.cls-32{fill:#ebecec;}.cls-33{fill:#312e2e;}.cls-34{fill:#cee0da;}.cls-35{fill:#0d0d0d;}.cls-36{fill:#151213;}.cls-37{fill:#bfd8cf;}.cls-38{fill:#c5d9d2;}.cls-39{fill:#151212;}.cls-40{fill:#141111;}.cls-41{fill:#343030;}.cls-42{fill:#829797;}.cls-43{fill:#624040;}.cls-44{fill:#a8ccc7;}.cls-45{fill:#b2cfca;}.cls-46{fill:#2d3e3e;}.cls-47{fill:#9ac2bb;}.cls-48{fill:#a4c9c3;}.cls-49{fill:#9bc3bc;}.cls-50{fill:#d3e3de;}.cls-51{fill:#251818;}.cls-52{fill:#f6e9ec;}.cls-53{fill:#99c2bb;}.cls-54{fill:#a8cbc6;}.cls-55{fill:#a3c8c2;}.cls-56{fill:#accec9;}.cls-57{fill:#a1c7c1;}.cls-58{fill:#c1dbd8;}.cls-59{fill:#b1d1cc;}.cls-60{fill:#b9d7d3;}.cls-61{fill:#a3c4be;}.cls-62{fill:#b0d0ca;}.cls-63{fill:#c4ddd9;}.cls-64{fill:#c4dcd2;}.cls-65{fill:#b7d4cf;}.cls-66{fill:#bfdcd8;}.cls-67{fill:#b8d6d1;}.cls-68{fill:#abccc6;}.cls-69{fill:#cbded8;}.cls-70{fill:#b4d3ce;}.cls-71{fill:#a2c9c3;}.cls-72{fill:#aed0ca;}.cls-73{fill:#b5d5d0;}.cls-74{fill:#aacec8;}.cls-75{fill:#cde0de;}.cls-76{fill:#c0dbd8;}.cls-77{fill:#b7d6d2;}.cls-78{fill:#bdd9d5;}.cls-79{fill:#9ec5bf;}.cls-80{fill:#c2deda;}.cls-81{fill:#c3dad8;}.cls-82{fill:#b3d3cf;}.cls-83{fill:#191818;}.cls-84{fill:#2c2d2d;}.cls-85{fill:#342121;}.cls-86{fill:#b3d2cd;}.cls-87{fill:#aacac5;}.cls-88{fill:#adcec9;}.cls-89{fill:#c5ddda;}.cls-90{fill:#bad6d2;}.cls-91{fill:#d4e6e0;}.cls-92{fill:#bdd3ca;}.cls-93{fill:#a1b3af;}.cls-94{fill:#350b0a;}.cls-95{fill:#cee1da;}.cls-96{fill:#e2efee;}.cls-97{fill:#d4e6e3;}.cls-98{fill:#1c1c1c;}.cls-99{fill:#bbd7d3;}.cls-100{fill:#c8e0dd;}.cls-101{fill:#151211;}.cls-102{fill:#101111;}.cls-103{fill:#6c7572;}.cls-104{fill:#c9dfd7;}.cls-105{fill:#bed8cd;}.cls-106{fill:#d0e3dd;}.cls-107{fill:#1d1a1a;}.cls-108{fill:#a7c5ba;}.cls-109{fill:#9ebcb8;}.cls-110{fill:#dee7e6;}.cls-111{fill:#774848;}.cls-112{fill:#b0cbc0;}.cls-113{fill:#d1e5e2;}.cls-114{fill:#c5dddb;}.cls-115{fill:#a3c9c3;}.cls-116{fill:#9cc3bd;}.cls-117{fill:#360101;}.cls-118{fill:#4f8383;}.cls-119{fill:#0f0d0d;}.cls-120{fill:#080707;}.cls-121{fill:#96c5be;}.cls-122{fill:#92a19d;}.cls-123{fill:#c7dfdc;}.cls-124{fill:#d9e9e7;}.cls-125{fill:#c7dfdb;}.cls-126{fill:#534343;}.cls-127{fill:#a7c9c4;}.cls-128{fill:#2b2e2e;}.cls-129{fill:#c6dfdc;}.cls-130{fill:#bbd8d4;}.cls-131{fill:#a0c6c0;}.cls-132{fill:#0d0b0b;}.cls-133{fill:#b9d8d3;}.cls-134{fill:#d2e6e3;}.cls-135{fill:#cfe4e1;}.cls-136{fill:#c4deda;}.cls-137{fill:#c7e0dd;}.cls-138{fill:#d2e5e2;}.cls-139{fill:#cae0dd;}.cls-140{fill:#deeceb;}.cls-141{fill:#0a0a0a;}.cls-142{fill:#151313;}.cls-143{fill:#b6cbc9;}.cls-144{fill:#b5d4d0;}.cls-145{fill:#b6c5c3;}.cls-146{fill:#1f090b;}.cls-147{fill:#1b1a1a;}.cls-148{fill:#121212;}.cls-149{fill:#141010;}.cls-150{fill:#cbdad9;}.cls-151{fill:#ebf4f4;}.cls-152{fill:#131010;}.cls-153{fill:#a8cdc6;}.cls-154{fill:#d0dcda;}.cls-155{fill:#0e0d0d;}.cls-156{fill:#c0ddd9;}.cls-157{fill:#bcc9c7;}.cls-158{fill:#c2dad6;}.cls-159{fill:#d1e4e1;}.cls-160{fill:#dbebe9;}.cls-161{fill:#e7f2f1;}.cls-162{fill:#100e0f;}.cls-163{fill:#130f10;}.cls-164{fill:#1e191a;}.cls-165{fill:#57605f;}.cls-166{fill:#c0d3d0;}.cls-167{fill:#a5c0be;}.cls-168{fill:#e3e0df;}.cls-169{fill:#f0f3f3;}.cls-170{fill:#dfeceb;}.cls-171{fill:#e4f1f1;}.cls-172{fill:#dcecea;}.cls-173{fill:#e0edec;}.cls-174{fill:#bed4d2;}.cls-175{fill:#e1ebea;}.cls-176{fill:#deeae9;}.cls-177{fill:#cbe0dd;}.cls-178{fill:#d9e0e0;}.cls-179{fill:#d1e5e3;}.cls-180{fill:#5d6464;}.cls-181{fill:#edf4f4;}.cls-182{fill:#d4e2e0;}.cls-183{fill:#deeae8;}.cls-184{fill:#d8e8e6;}.cls-185{fill:#dfedec;}.cls-186{fill:#d3e8e5;}.cls-187{fill:#090a0a;}.cls-188{fill:#d9eae8;}.cls-189{fill:#d2e7e5;}.cls-190{fill:#323433;}.cls-191{fill:#e5f1f0;}.cls-192{fill:#cfe3e0;}.cls-193{fill:#c3cdcc;}.cls-194{fill:#618b88;}.cls-195{fill:#91bbb9;}.cls-196{fill:#98b8b5;}.cls-197{fill:#ebf1f1;}.cls-198{fill:#110d0e;}.cls-199{fill:#e3f0ef;}.cls-200{fill:#e3e9e8;}.cls-201{fill:#dae1e1;}.cls-202{fill:#202020;}.cls-203{fill:#e8f3f2;}.cls-204{fill:#181515;}.cls-205{fill:#141414;}.cls-206{fill:#0b0a0b;}.cls-207{fill:#181617;}.cls-208{fill:#4e0f11;}.cls-209{fill:#574242;}.cls-210{fill:#e3e6e5;}.cls-211{fill:#d2dbda;}.cls-212{fill:#eef5f4;}.cls-213{fill:#92aaaa;}</style></defs><title>etrevoisin</title><g id="Layer_2" data-name="Layer 2"><g id="etrevoisin"><path class="cls-1" d="M18.3,124.9a12.6,12.6,0,0,1,2.8.5,11.9,11.9,0,0,1,3.3,2.6c1,1,.6,2.3.3,3.6s.3,1.7,1.3,1.3,2.7.1,3.9,1a2.1,2.1,0,0,0,3-.2c2-2.4,4.9-3.5,7.4-5.2s4-2.4,6.1-2.2,2.9-1.2,3.8-2.4-.4-1.4-.6-1.4c-3.2.1-6.6-1.6-9.6,1-.6.5-1.8.4-2.7.4H30.1c-3.6,0-4.7-1.1-5.1-4.7v-1a2.4,2.4,0,0,1,2.2-.8c5.3,1.4,10.4,1.6,15.8-.7,3.1-1.3,6.7,1.5,10.1,2.4s4.3,1.9,6.5,2.8a4,4,0,0,1,1.2,1c.7,2.1-.8,2.8-2.4,3.1a11.6,11.6,0,0,0-5.5,3.1c-6.3,1.6-12.5,3.2-17.1,8.2-.9,1.1-2.5,1.1-4,.9s-5.3-2.1-8.1-2.7a2.8,2.8,0,0,1-2.4-2.1c-.2-2.5-2.1-3.8-3.4-5.6A2.4,2.4,0,0,1,18.3,124.9Z"/><path class="cls-1" d="M112.4,52.9a9.2,9.2,0,0,1-6.2,1.9c-3.6.1-7.3-.2-10.9.9s-4.7-.4-6.8-1.5a2.7,2.7,0,0,0-3-.1c-2.2,1.2-4.6,2.3-7.2,1.1a1.6,1.6,0,0,0-2.1,1.4,30.1,30.1,0,0,0,0,5.2,15.5,15.5,0,0,0,.6,2.3c.4,3.3,1.2,6.4.3,9.8s-.2,6.4-.2,9.5,0,5.8-.1,8.6A2.8,2.8,0,0,1,74,95.2c-2.4-3.3-1-7.1-1.3-10.7a53.7,53.7,0,0,1-.1-5.7V76.3c0-.8.1-1.5.1-2.3V68.7c-.1-3.2.7-6.5-.9-9.6L71,57.9l-.9-1.2-.3-.7c-1.1-4.5,2.1-4.8,5.2-5.2s6.3.8,8.7-2.2c.9-.4,2-.9,2.8-.5,7.5,3.9,15.8,1.2,23.6,2.7a6.7,6.7,0,0,1,1.8.7A1.4,1.4,0,0,1,112.4,52.9Z"/><path class="cls-1" d="M133.5,74c-.8-.1-1.7-.3-1.7-1.3a4.2,4.2,0,0,1,.6-2.6,10.5,10.5,0,0,1,3.9-1.7c1-.3,2.2,0,3.3-.2a11.1,11.1,0,0,0,4.1-.8,12.5,12.5,0,0,1,8.9-.6c2.8.8,5.3.9,7.5-1.5a8.1,8.1,0,0,1,2.9-1.6l11.6-4.4a7.1,7.1,0,0,1,6.9.4,13,13,0,0,0,6.2,2c2.8.2,4.3,3.6,3,6.3a2.7,2.7,0,0,1-2.5,1.2c-1.3-.7-1.7-2.2-2.9-3l-1.4-1.1a7.2,7.2,0,0,0-2.1-1.2c-2-1.3-4.1-.9-6.2,0l-1.2.4a16.1,16.1,0,0,0-4.7,1.5l-1.2.4c-2.7.4-4.8,2.2-7.2,3.3l-1.2.5a36.2,36.2,0,0,0-4,1.9,6.2,6.2,0,0,1-3.3,0c-3.2-2.1-6.2-1-9.1.6h-1.3a8.1,8.1,0,0,0-3.1.1,4.1,4.1,0,0,1-2.2.1c-.4,0-.5-.9-1.2-.4l-.8.6A5.4,5.4,0,0,1,133.5,74Z"/><path class="cls-2" d="M107.6,102.8c0,3-.2,6.1,1.1,8.9a2.2,2.2,0,0,1,0,1.8,45.4,45.4,0,0,1-3.9,4.8,3.3,3.3,0,0,1-2.2.8c-1.8.1-3.7,0-5.9,0,3.1,2.6,3.1,2.5,6,2.2a57.7,57.7,0,0,1,7.2-.1,2.1,2.1,0,0,1,2.2,1.5c.2,2,2.3,2,3.2,3.1l-.6.6a3.8,3.8,0,0,1-3.6,0c-4.7-2.7-9.8-2-14.8-2.1a16.3,16.3,0,0,1-3.1-.3c-3.2-.7-6.4-1.1-9.6-.1l-3.8.6a16.1,16.1,0,0,1-9.7.1,5.8,5.8,0,0,1,4.6-7.6,52.8,52.8,0,0,1,5.6-.1H97.8c1.4-.1,3.2.8,4.2-1.2a6.2,6.2,0,0,1-.1-1.3c.4-3,.5-6,1.1-9a2.8,2.8,0,0,1,1-.9,1.3,1.3,0,0,1,1.2.5c.7,1.5.3,3,.5,4.5v-3.6c-.1-2.3-1-4.7.7-6.8,1.8-.3,1.8.5,1.2,1.8Z"/><path class="cls-2" d="M59.5,123a12.1,12.1,0,0,1-1.8-.5c-3.1-1.6-6.5-2.5-9.7-3.7s-5.7-1.5-8.7.6-4.9.9-7.4.3L25,118.2H22.1c-2.3.6-4.4-.7-4.1-2.5.8-4.1-.9-7.8-.9-11.8a4.4,4.4,0,0,1,1.2-3V99a5,5,0,0,1,0-6.7V85.5a8.3,8.3,0,0,1-1.9-8.6c0-3.2,0-6.4-.1-9.6a1.4,1.4,0,0,1,.2-2.1,1.8,1.8,0,0,1,1.4.8c2.4,9.4,2.8,19.1,3.5,28.8.4,5.7,1.2,11.4,1.1,17.1-.1,3.2,1.4,3.7,4.2,3.4,5.5-.7,11.1-.3,16.6-.9,5.3,2.8,11.9,2.6,16.4,7.2A1.1,1.1,0,0,1,59.5,123Z"/><path class="cls-1" d="M157.5,52.9a20.2,20.2,0,0,1-.7,2.3,3.6,3.6,0,0,1-4.1,2.5,15.2,15.2,0,0,0-7,1.2,7.8,7.8,0,0,1-6,.1,12,12,0,0,0-9.3-.5c-1.4.5-3.2.2-4.8.2s-4.1-1.3-4.6-4.4V52.9c.2-.1.3-.3.4-.2,5.3,3,10.5.9,15.8-.4,5.3,4,10.9.7,16.3.4C154.9,52.7,156.2,51.7,157.5,52.9Z"/><path class="cls-2" d="M157.5,52.9c-.9.2-2,.1-2.7.6a4.1,4.1,0,0,1-4.8.6,2.9,2.9,0,0,0-2.1.5c-3.4,2.1-6.5,1.6-9.6-.7l-1-1,.5-.5a6.6,6.6,0,0,1,2-.6h1.4a27.5,27.5,0,0,0,7.5-.9c2.9,0,5.7-.3,8.5-.4a31.4,31.4,0,0,0,8.1-.1,12.3,12.3,0,0,0,9-1.2c4-1.6,6.7-5.5,11-6.8-.6,1.5-1,3-1.7,4.4a4,4,0,0,1-1.8,1.3c-.7.4-1.8.3-2.2.8-2,2.5-4.9,3.1-7.7,4.1Z"/><path class="cls-2" d="M185.4,111.5a6.1,6.1,0,0,0,0,1.9c.3.6.7,1.5,1.2,1.7a9,9,0,0,0,4.1,1.1c2.3-.4,4.7.2,7-.6s3.1-.2,4.7-.2,1.9.4,2,1.5a2.4,2.4,0,0,1-1.3,2.8c-1.9.5-3.7,1.3-5.5,1.3a36.1,36.1,0,0,0-6.6.1c-1.8.3-3.4-1.6-5-.4s0,3.2-1.6,4.2l-.5-.5c-.8-2.1-1.7-4.3.8-5.9a6.1,6.1,0,0,1,2.3-.3h14.7c.4.3-.2.6.2.2s-.1-.5-.5-.4h-8.5c-2.1-.1-4.3.1-6.4-.2a5,5,0,0,1-2.7-2c-1.3-3-.6-6.2-.7-9.3s-1.3-5.8,2-7.7c1.5,1.2,1.1,2.5.2,3.8C185.3,105.7,185.4,108.6,185.4,111.5Z"/><path class="cls-1" d="M185.3,102.8V99c0-.3-.1-.5-.1-.8-.7-5,1.3-9.8.9-14.8l.3-1.4a6.4,6.4,0,0,1,1.8-3.2c2,.2,2.7,1.8,2.8,3.4.1,4.3.9,8.8-1.7,12.8a5.8,5.8,0,0,0-1,3.6C188.5,101,187.2,102.1,185.3,102.8Z"/><path class="cls-1" d="M2.9,136.4c-.4-.1-1-.1-1.3-.4a6.3,6.3,0,0,1-.4-7.9c1-1.4,1.5-3.3,2.8-4.3s2.9-.8,4.4-1.3a14,14,0,0,0,1.6-1,4.6,4.6,0,0,1,4.1,0c1.4.8,1.3,2.1,1.3,3.4a2.2,2.2,0,0,1-.9.7,3.7,3.7,0,0,1-1.8-.1,5,5,0,0,0-2.7.2,9.6,9.6,0,0,0-3.2,1.2c-2.5,1.9-1.3,5-2.2,7.5A3.7,3.7,0,0,1,2.9,136.4Z"/><path class="cls-1" d="M18.3,100.9a19.7,19.7,0,0,0,1.3,9.3,3.4,3.4,0,0,1-.5,3.9c-.8,1.3-.6,2,.5,2.8l2.5,1.3c-.1,1.1-.5,1.8-1.7,1.9s-2.8.1-3.4-1.2-1.7-2.8-1.1-4.5a8.5,8.5,0,0,0,0-4.2,36,36,0,0,1-.4-6.6C15.5,101.9,16.6,101,18.3,100.9Z"/><path class="cls-1" d="M102.6,72.1a8.1,8.1,0,0,1-2.1-1c-2.2-2.2-2.1-9,.1-11.7a4.6,4.6,0,0,1,7.8,1.2,12.1,12.1,0,0,1,.5,1.8c.2,1.4-.2,2-2.3,3a5.8,5.8,0,0,1-1.8-2.3l-.7-.8c0,.1-.5-.1-.5-.1h-.4a2.7,2.7,0,0,0-.7.8c-.1,1.8.6,3.5,1,5.3a6.8,6.8,0,0,1,.2,2C103.5,71.1,103.3,71.8,102.6,72.1Z"/><path class="cls-2" d="M133.5,74c.1-1.3.7-1.9,2.1-1.6,1.3,3,.2,6,.2,9,.2,9.2,0,18.4.1,27.6.1,6.7-1.2,7.7-7.8,5.8-.8-2,.3-1.8,1.6-1.4h1.9a1.7,1.7,0,0,0,1.8-1.7c.1-1.3.1-2.5.1-3.8Z"/><path class="cls-1" d="M102.8,95.2a4.8,4.8,0,0,1-2.9-5.1c.1-1.7,0-3.5,0-5.3s.9-2.9,2.9-3.1,1.4,2.1,1.8,3.3a18.2,18.2,0,0,1,0,7.7A4.1,4.1,0,0,1,102.8,95.2Z"/><path class="cls-1" d="M103.7,104.7a30.8,30.8,0,0,1-1,10.5,1.7,1.7,0,0,1-2.8-.1c0-2.7.1-5.3,0-7.9s.7-4.2,2.9-5.3C103.8,102.6,103.8,103.6,103.7,104.7Z"/><path class="cls-1" d="M129.7,113.4l-2,1a2.4,2.4,0,0,1-1.8.9c-3.1.3-6.3-1.7-9.4.2a1.3,1.3,0,0,1-1.2-.3c-.4-2.9,1.6-4.1,3.9-4.5a38.6,38.6,0,0,1,7.6,0A3.1,3.1,0,0,1,129.7,113.4Z"/><path class="cls-2" d="M137.3,52.9c-1.4.6-2.9,1.1-4.3,1.8a10.8,10.8,0,0,1-5,1.1c-1.9,0-3.8.1-4.9-2-.3-.5-1.4-.6-2.1-.9h-1.9c-1.3-.1-1-.7-.4-1.4s3.5-.7,5.3-.4,5,0,7.5-.3,3.8-.3,5.5.7a1,1,0,0,1,.4,1.3Z"/><path class="cls-2" d="M74,77.9v32.6c.7,1.1.9,2.2-.5,3-3.2-2.6-1.2-6.1-1.8-9.2-.1-7-.2-14-.1-21C71.6,81.3,70.9,78.7,74,77.9Z"/><path class="cls-1" d="M74,113.4v-2.9a24.1,24.1,0,0,1,3.8.1c2.7.4,5.2,1.5,5.9,4.6l-.4.5a4.1,4.1,0,0,1-3.4.3c-1.9-.6-4-.6-5.6-2Z"/><path class="cls-3" d="M115.3,115.2h.9c1.9-1.2,3.9-.9,5.8-.6s6.5.4,9.8.7c1.8.2,3.7-.5,5.4.7s-.3,1.6-1.2,1.9c-5.4-.2-10.7-.6-16.1.3a15.5,15.5,0,0,1-6.1-.3c-1.8-.3-2-1.4-.5-2.5h2Z"/><path class="cls-2" d="M2.9,136.4l.9-2,.5.4a7.7,7.7,0,0,1,.8,4.2c.3,6.1.3,6.1,6.4,6.3a2.2,2.2,0,0,1,1,.9c-2,2-4.5,1.8-7,1.7A3.1,3.1,0,0,1,2.9,146Z"/><path class="cls-1" d="M18.3,92.3V99a9.5,9.5,0,0,1-1.8-.5c-1.9-.9-2.3-1.8-2-3.7s1.2-2.4,2.9-2.5Z"/><path class="cls-2" d="M153.6,2.1h6.8c3.9-.4,7.2.6,9.6,3.8-2.8,1.6-5-1-7.6-1a13.2,13.2,0,0,0-4.4-.5C156.3,4,154.1,4.6,153.6,2.1Z"/><path class="cls-2" d="M107.6,79.8V94.2c1,1.7,1.6,3.2-1.3,3.6-1.8-6.5-1.4-13-.2-19.5.5-.6,1.1-.7,1.5-.2S107.9,79.2,107.6,79.8Z"/><path class="cls-2" d="M99.9,115.1h2.8v.2c0,.3-.1.9-.2.9a39.8,39.8,0,0,1-18.8,0c-.2,0-.2-.6-.3-.9l.2-.2Z"/><path class="cls-1" d="M16.4,76.9c.6,2.9,1.2,5.8,1.9,8.6a2.6,2.6,0,0,1-2.8-2,29.9,29.9,0,0,0-.8-3.2A2.7,2.7,0,0,1,16.4,76.9Z"/><path class="cls-2" d="M188.2,78.8c0,1.1.2,2.2-.9,2.9-1.7-1.6-1.3-3.8-1.3-5.8a64.9,64.9,0,0,0-.9-9.8l.3-.7c2.3.3,2.5,2.1,2.8,3.8v2.9a2.9,2.9,0,0,1,0,3.9Z"/><path class="cls-1" d="M106.5,98c1.6-.9.9-2.5,1.1-3.8,2,.2,2.7,1.8,2.7,3.4a3,3,0,0,1-2.7,3.3,17.4,17.4,0,0,1-1-1.9A1.1,1.1,0,0,1,106.5,98Z"/><path class="cls-2" d="M104.6,61.7c1.5.8,1.8,2.2,2,3.7s.1,5.8.2,8.6a2.6,2.6,0,0,1,0,3,1.1,1.1,0,0,1-1.4-.1c-1-1.3-.9-2.8-1-4.4V70.4a16.2,16.2,0,0,0-.3-5.4,5,5,0,0,1-.1-2.1A3.4,3.4,0,0,1,104.6,61.7Z"/><path class="cls-2" d="M103.8,84.6c-1.2-.7-1-1.8-1-2.9-.1-3.2-.1-6.4-.2-9.6l.3-2.2a1.5,1.5,0,0,1,1.4.7c.7,1.9.3,3.9.4,5.8S105.8,82.1,103.8,84.6Z"/><path class="cls-1" d="M106.5,77.1l.3-3.1a2.7,2.7,0,0,1,2.5,1.8c.3,1.2.5,2.5-.4,3.5s-.9.3-1.3.5l-1-1.9-.3-.4Z"/><path class="cls-2" d="M103.7,104.7c-1.1-.7-.9-1.8-.9-2.8V95.2a18.6,18.6,0,0,1,1-2,12.4,12.4,0,0,1,.1,11.4Z"/><path class="cls-1" d="M118.2,51.9l.9,1c-.4.5-.6,1.1-1.1,1.4s-2,.5-2.7-1.4a1.8,1.8,0,0,1,.4-1,3.1,3.1,0,0,1,1-.5,2.1,2.1,0,0,1,1.1.1Z"/><path class="cls-1" d="M188.2,76V72.1a1.8,1.8,0,0,1,1.9,2.2C190,75.4,189.2,75.8,188.2,76Z"/><path class="cls-2" d="M15.4,63.5l2.9-2,.4.6c.3,1.7-.7,2.6-2.1,3.1l-.3.3c-.4.3-.6.2-.9-.1Z"/><path class="cls-2" d="M14.5,124.9h3.8v2.9l-.6.2a9.4,9.4,0,0,1-2.8-1.5C14.5,126.1,14.1,125.6,14.5,124.9Z"/><path class="cls-2" d="M116.1,51.9l-.8,1h-2.9V52a1.2,1.2,0,0,1,.5-.5A2.6,2.6,0,0,1,116.1,51.9Z"/><path class="cls-1" d="M15.4,65.4h.9v1.8C15.8,66.8,14.2,66.7,15.4,65.4Z"/><path class="cls-4" d="M136.3,117.3l1.1-.8a23.5,23.5,0,0,1-.4-6.5V99.1c.1-2-.2-4,.8-5.9,3.7-2.4,5-1.9,5.6,2.1.3,2.2-.2,4.4.5,6.5a25.5,25.5,0,0,1,1.3,6.1c.2,3.5-1.5,7.7,3.6,9.5,1,.3,1.4,2.1,1.3,3.4a.9.9,0,0,1-1.2.4h-1c-2.4,1-5,.6-7.3.3S135.7,120.7,136.3,117.3Z"/><path class="cls-2" d="M165.9,130.9l7.7-.2a2.9,2.9,0,0,1,1.9,1.1,53.7,53.7,0,0,1,2.9,6.5,2.5,2.5,0,0,1-.7,3l-.5-.4a57,57,0,0,0-3-5.4c-.3-.5-.5-1.1-.8-1.7s-1.6-1.1-2.4-.2.1,1.7.8,2.3,3.7,3.1.4,5c1.5,1.2,2.9.3,4.1.9l.5.4a3.4,3.4,0,0,1-3.1,1.9c-1.6,0-3.3.2-4.4-1.2a2.8,2.8,0,0,0-3.4-.9c-1.3-1.4-1.5-3.1-2-4.8a6.7,6.7,0,0,0,2,4.8,2.2,2.2,0,0,1-1.8,2l-4.5,1.4a28.3,28.3,0,0,1-4.2.6c-1.7,0-2.5-1.1-2.8-2.7l.6-.4h.9c2.3.8,4.5.9,5.9-1.3s-1.6-6.3-3.8-7.1l-1.3-.6a1,1,0,0,0-.4-.5c1.2-1.2,2.7-.9,4-.9s3.1-.4,3.9-2.1a2.4,2.4,0,0,1,.9-1.1,3.5,3.5,0,0,1,1.7-.4c1,.2,1,1.1.9,1.9Z"/><path class="cls-5" d="M146.9,134.5l.3.3.3-.2c3.8,1.4,4.5,4.2,3.4,7.6-.4,1.2-.8,2.8-2.3,2.9s-.8-1.7-1.3-2.6-1.4-2.2-2.4-.6c-3.6,5.7-3.9,0-5.5-1.5-1.4.2-1,2.2-2.2,2.6h0c-.6,1.1-1.2,2.2-2.6.9h0c-1.5-2.2.1-4.9-1-7.1h0c.3-2.5,2.5-1.7,3.9-2.3h0c2.5-2,5,.6,7.6-.1h0A1.1,1.1,0,0,1,146.9,134.5Z"/><path class="cls-2" d="M137.2,143c-.1-1.7-.3-3.5,1.2-4.8a2.1,2.1,0,0,1,1.7-.5c.3,0,.7.6.8,1s.1,2.2.1,3.3.5,1.7,1.4,1.6,1.2-.8,1.5-1.4.7-2.1,1.2-3.1a1.2,1.2,0,0,1,1.1-.7,1.1,1.1,0,0,1,.8.8c.3,1.4.4,2.9.7,4.3s.8.8,1.3,1,.8-.5.9-.9c.8-3.4.7-6.6-2.4-9a18.4,18.4,0,0,0,7-1.1l.2.2c.5,1.3-.7,2-1.2,2.9s-.6.6-.5.8-.3.1.3-.1a3.5,3.5,0,0,1,.7-.9,5.1,5.1,0,0,1,1.6-.9c3.5-.5,3.1,1.6,1.8,3.4a11.9,11.9,0,0,1-4.5,4.1l-.3.3c-1.1-.1-1.6.7-2.2,1.4s-2.5,1.7-3.5-.8-.9-1.5-1.9-.6-2,1.8-4.7.6A18.1,18.1,0,0,0,137.2,143Z"/><path class="cls-2" d="M136.3,117.3c.5,2.8,2.6,3.5,4.9,3.7s4.5.1,6.7.1a9.5,9.5,0,0,1-2.1.9H141a5.8,5.8,0,0,1-5.1-2.1c-1.1-1.6-2.5-1.7-4.1-1.7s-4.2-.1-6.2,0a11.6,11.6,0,0,0-3.8.6c-2.8,1.4-5.5.5-8.3.2a1.1,1.1,0,0,1-.9-.4,5.4,5.4,0,0,1-1-2c0-1,.9-1.1,1.7-1.2-.9,1.6-.8,2.1.6,2.1l8.1-.2Z"/><path class="cls-2" d="M115.3,125.8a6.1,6.1,0,0,0,1.9-.1c1.4-.4,2.3-.5,2.5,1.5s1.1,1.8,1.9,2.5c3.2,3.1,5.2,7,7.5,10.7a6.2,6.2,0,0,1,.5,2.7c.1,1.6.1,3.2.2,4.8l-.7.2c-1.6-.8-1.4-2.6-2-3.9a13.5,13.5,0,0,0-3.4-7.1c-.8-1.1-1.4-2.3-2.2-3.5a8,8,0,0,0-1.7-1.5l-.9-.9a21,21,0,0,0-3.8-4.1,1.1,1.1,0,0,1,.1-1.2Z"/><path class="cls-2" d="M148.9,121.2h.9c1.3-.5,2.2-1.2,2.2-2.7a3.4,3.4,0,0,1,4.2-2.6c1.8,1.2,2.8,3.4,5.2,3.6s5.2.5,6.8,2.9a6.4,6.4,0,0,1-.2.7c-3.8-.6-7.8-.6-11.5-2.3a1.8,1.8,0,0,0-1.6.3C152.2,123.7,151.7,123.7,148.9,121.2Z"/><path class="cls-2" d="M183.4,125.9a3.2,3.2,0,0,1-.1,1.4,1.5,1.5,0,0,1-2.1,1.2l-6.8-3.2a17.5,17.5,0,0,0-3.3-.4A3.3,3.3,0,0,1,168,123l.2-.2c2.1-1.6,4.2-.2,6.3.1s2.8,1.5,4.4,1.7,2.8.1,4.1.8Z"/><path class="cls-2" d="M129.8,147.9c4,1,5.7,3.7,5.6,7.7l-.6.3c-3.4-1.6-4.7-4.5-5.1-8Z"/><path class="cls-2" d="M135.4,155.6c3,1.7,4,4.4,3.9,7.7h-.1c-1.9.2-1.8-1.6-2.6-2.6s-2.4-2.9-1.3-5Z"/><path class="cls-2" d="M145.1,134.6c-.6.9-1.6,1.4-2.4.7s-3.4-.8-5.2-.6c.6-1.5,2.1-.9,3.1-1.4s2.3,0,3.2.9S144.6,134.5,145.1,134.6Z"/><path class="cls-2" d="M133.6,136.9c.3,2.3.7,4.7,1,7.1-.3-.6-1-1.3-1-1.9A30.1,30.1,0,0,1,133.6,136.9Z"/><path class="cls-2" d="M137.5,134.7c-.4.2-.8.8-1.1.7s-2.3.3-2.8,1.6c.5-2.3.5-2.4,2.5-2.4A3.4,3.4,0,0,1,137.5,134.7Z"/><path class="cls-2" d="M134.6,143.9c1.1.3,1.8-.3,2.6-.9s.1,1.5-.9,1.8A1.2,1.2,0,0,1,134.6,143.9Z"/><path class="cls-2" d="M146.9,134.5h-1.8C145.7,133.4,146.3,133.6,146.9,134.5Z"/><path class="cls-2" d="M184.4,124.9l-1,1h0q-.3-1.2.9-.9Z"/><path class="cls-2" d="M177.7,141.3l-.9.9-.3-.2a.9.9,0,0,1,.9-1Z"/><path class="cls-6" d="M185.3,42.3a24,24,0,0,1-4.1,4.3c-1.5,1.1-3.5,1.1-4.8,2.7s-1.1.5-1.6.7c-.9-3.1,1-5,3.1-6.8s3-1.7,3.9-3.3c2.3-3.3,2.3-7.5,4.2-10.9a.8.8,0,0,1,1.2,0,11.5,11.5,0,0,1,.1,1.9c1.1,4.1-.9,7.7-2,11.4Z"/><path class="cls-2" d="M172.9,6.8l2.3-.6a1.8,1.8,0,0,1,2,.9c1,1.8,1.9,3.6,2.8,5.4a7.6,7.6,0,0,0,.7,1.3c3.9,3.2,3.9,8.1,5.6,12.2l-.6.2c-2-.5-2.8-2.2-3.3-3.8-1.1-3.6-3.4-6.4-5.9-9.1a21.3,21.3,0,0,0-2.9-3.1,4.2,4.2,0,0,1-1-2.8Z"/><path class="cls-2" d="M185.3,42.3c.5-2.4.9-4.9,1.3-7.3s.5-2.8.7-4.1c.2.2.5.4.6.7A11.9,11.9,0,0,1,185.3,42.3Z"/><path class="cls-7" d="M162.3,3.9c2.8-.4,5.1,1.5,7.7,1.9a1.1,1.1,0,0,0,.8.1.9.9,0,0,1-.1,1.4c-3.4.8-7,2.3-8.6-2.6A2.4,2.4,0,0,1,162.3,3.9Z"/><path class="cls-2" d="M187.2,29l-.8-.2a1.8,1.8,0,0,1-.2-2.7h.1C187.4,26.7,187.2,27.9,187.2,29Z"/><path class="cls-2" d="M170.9,6.8a2.8,2.8,0,0,0-.1-.9,2.2,2.2,0,0,1,2.1.9l-.2.2A1.4,1.4,0,0,1,170.9,6.8Z"/><path class="cls-2" d="M195.9,21.2c.6-1,1.3-.9,1.9,0h0a1.2,1.2,0,0,1-1.9,0Z"/><path class="cls-2" d="M83.6,49.1c-.6,2.7-.6,2.8-2.7,2.8H75.2a8.7,8.7,0,0,0-3.2.6c-1.7.5-1.9,1.2-1.3,3.3l.4.9a1.6,1.6,0,0,1-1.1.5H67.6a4.1,4.1,0,0,1-1.9-.1,3,3,0,0,1-1.1-.6,3.4,3.4,0,0,1-1-1.6c-1.1-3.2-3.1-2.3-5.2-1.3s-4,3.7-7.1,3.3l-.4-.4,2.9-3a1.2,1.2,0,0,0,.1-1.3c-.2-.3-.7-.8-1-.8a30.3,30.3,0,0,0-11.8,3c-2,1-3.3.5-4.4-1.1L35.6,52l.4-.5a3.2,3.2,0,0,1,2.1-.4c2.7.8,5.3.1,7.9-1.1,5.5-.5,10.7-2.9,16.4-3,3.7.5,7.5,1.3,11.2.3a7.6,7.6,0,0,1,3,0c2.1.7,4.5.2,6.5,1.3C83.3,48.7,83.4,48.9,83.6,49.1Z"/><path class="cls-2" d="M32.7,52A4.7,4.7,0,0,1,28,53.7c-2.2-.7-4.8-.9-6.3-3a45.8,45.8,0,0,0-4.2-4.6c-1.5-1.5-2.5-3.5-4-5.1s-1-2.6-1-4.1a6.5,6.5,0,0,0-1.8-5.6C8.9,29.4,9.5,26.7,9,24.5s1-2.2,1.6-3.3h0c1.6,1.4,1,3.5,1.7,5.2a21.3,21.3,0,0,0,1.8,4.1,25.6,25.6,0,0,1,2.1,4c.4,2.2-.7,4.6,1,6.6a3.6,3.6,0,0,1,.7,1,7.6,7.6,0,0,0,2,2,5.3,5.3,0,0,1,1.2,1.4c2.4,4.5,6.7,5.5,11.2,6Z"/><path class="cls-2" d="M18.3,61.5c3.5-1.6,4.7-1.8,7.6-1.4h2.3a28.5,28.5,0,0,1,10.5.1,6.1,6.1,0,0,0,2.7,0l4.7-.5c.1.3.1.5.2.8-1.2,2.6-3.6,2.2-5.8,2.5-4.5.5-9.1-1.2-13.7-.1-2.8-.2-5.7.7-8.3-1Z"/><path class="cls-2" d="M48,58.6a3.4,3.4,0,0,1,2.9-1.9l.2.3c-.1,1.7-1,2.3-2.7,2Z"/><path class="cls-2" d="M35.6,52H32.7a.9.9,0,0,1,.1-1.2,2.2,2.2,0,0,1,2.7,0,1.1,1.1,0,0,1,.3.8c-.1.3-.1.4-.2.4Z"/><path class="cls-2" d="M46.1,59.6l1.9-1,.2.2c-.1,1.3-.9,1.4-1.9,1Z"/><path class="cls-8" d="M144.1,1.2l8.6.9h.9c1.4,1.4,3.2.6,4.8,1a.9.9,0,0,1,0,1.2c-.8.6-1.9.6-3.3,1,3.1,1.4,4.3,3.4,3.3,6.4a6.7,6.7,0,0,1-5.7.1A6.9,6.9,0,0,1,151,6.2a8,8,0,0,1-5.3.2,1.9,1.9,0,0,1-1.1-.7A34.4,34.4,0,0,1,144.1,1.2Z"/><path class="cls-2" d="M18.4,127.8l2.1.9a2,2,0,0,1,1.6,2.1,9,9,0,0,0,.2,2.3c.2.5.8,1.2,1.2,1.2,3.1.3,5.5,2.1,8.3,3l-.4.5c-.9.6-2,.6-2.9,1.2l-.8.8-.2.4a3.6,3.6,0,0,0,0,2.7l.5,1.7.3,1.2A2.4,2.4,0,0,1,28,147a3.3,3.3,0,0,1-3.4,1.4l-.6-.5c-2.4-1.2-4.9-2.4-7.9-1.4-.7.3-1.7-.3-2.6-.5s.2-1.3.7-1.7,1.9-1.2,1.8-2.5c-.3-4.8,2.2-9.2,2.2-13.9Z"/><path class="cls-9" d="M14.5,145l-1,1-1,.2-.8-.2a10.4,10.4,0,0,0-2.9-3c-2.9-2.2-2.6-3.5.9-5.7a1.1,1.1,0,0,0,.7-.3c0-.3-.2-.5-.5-.7-3.1-1.7-2.5-4.4-1.9-7.1l.9-1a14.2,14.2,0,0,1,4-.8h1.3a2.6,2.6,0,0,1,1,2.3c0,.5-.1.9-.1,1.3s.3,2.7.5,4C15.7,138.5,16.6,141.9,14.5,145Z"/><path class="cls-2" d="M21.2,150.8a2.7,2.7,0,0,1,2.8-2.9l.2.2c0,1.9-.9,2.9-2.9,2.8Z"/><path class="cls-10" d="M59.5,123v-.9c3.8-2.7,2.4-7.1,3.7-10.7,2.8-.5,4.1-2.7,5.4-4.9s1.1-2.3,2.5-1.6a2.5,2.5,0,0,1,1,3c-.7,2.5-1.1,5,1.3,6.9.7,1.9,2.4,1,3.7,1.3s3.3-.3,3.8,2l-6.6.3a2.3,2.3,0,0,0-1.7.5,22.3,22.3,0,0,0-1.2,3.1c-.2.8-2,.6-1.2,2s-1.3,1.6-2.5,1.5-4.8-1.5-7.2-2.3Z"/><path class="cls-2" d="M31.8,137.3c2.5.2,4.3-.6,5.1-3.2a1.8,1.8,0,0,1,1.3-1.2c2.3-.1,4-1.7,5.9-2.6a18.7,18.7,0,0,1,8.7-1.6,6.4,6.4,0,0,1,.2.7c-3.5,2.9-8.7,2.8-11.8,6.4L38.7,138c-2.4,1.3-4,3.5-5.9,5.3s-2.6.8-3.2-.5.7-3.7,2-5.2Z"/><path class="cls-2" d="M60.5,123.2a3.2,3.2,0,0,0,1.4-.2c2.3-.9,4.1-.3,5.3,1.8l-.3.7c-1.8,2.2-4.3,2.5-6.9,2.6a18.1,18.1,0,0,0-5.1,1.2,2.4,2.4,0,0,1-2-.5h-.1c.2-2.4,2.1-3,3.9-3.6s1.9-.1,2.8-.4S60.2,123.7,60.5,123.2Z"/><path class="cls-11" d="M70.1,56.8h1l1,.9H72c2,3.3.9,7.1,2,10.6V74a1.3,1.3,0,0,0,0,2v1.9c-1.3,1.1-.9,2.6-.9,4-.1,7.6-.1,15.2-.1,22.8-3.3-2.8-5.3-9.5-3.7-12.2l-.2-.3a2,2,0,0,1,.2.9c-2.4,1.4-2.5,2.9-.7,4.9s2.3,2.5,1.2,3.8-3.4,1.8-5.3,1.5-2.1-2.1-2.2-3.7-.1-3.5-.2-5.2c.2-4.9-.7-9.8.9-14.6l1.5-3.3a7.6,7.6,0,0,1,.8-1.1c1.4-1.1,3.7-1.3,4-3.6l.3-1.2a5.7,5.7,0,0,0-.2-5.8C69.4,62.1,68.7,59.4,70.1,56.8Z"/><path class="cls-2" d="M112.4,52c-3.7-.2-7.4.4-11-.8-1-.4-2.5.1-3.7.4s-5.5.8-7.8-.9a9.1,9.1,0,0,0-6.3-1.6h-.1a1.1,1.1,0,0,1,.4-1.4c1.4-.8,3-.7,4.6-.7,3.2.1,6.3,1,9.5,1.2a26.1,26.1,0,0,0,2.7.6l1.3.2c2,.3,4.1.8,6.2.4l1.2.2a9.2,9.2,0,0,1,2.3.9,1.3,1.3,0,0,1,.8,1.4Z"/><path class="cls-2" d="M74,68.3c-.2-.2-.6-.5-.6-.7-.5-3.3-.9-6.6-1.4-9.9a5.3,5.3,0,0,1,2,4.5Z"/><path class="cls-2" d="M74,76c-1-.7-1-1.3,0-2Z"/><path class="cls-2" d="M72.1,57.7l-1-.9Z"/><path class="cls-12" d="M178.3,125.7c-1.8.5-2.3-1.3-3.6-1.8a6.2,6.2,0,0,1-.3-3c.1-15.5-.2-30.9.9-46.4.4-6-.8-6.4-6.3-4.2s-7,4.2-6.3,9.3-1.2,7.5-.8,11.1a2.6,2.6,0,0,0,2.6-.2c1.5-.6,3.1-1.3,4.1.7s.7,4-1.2,4.6c-5.3,1.8-6.1,5.6-5.7,10.5s-.6,9,2.7,12.7c-.3,2.2-1.7,1.5-3,1.3h-.5c-3.3-.1-3.3-.1-4.1-3.1l-.3-.9c-2.3-3.4-.9-7.2-1.3-10.8-.2-2,.5-4.4-2.1-6.7-1.9,7.1-.6,13.6-.4,20.1.2.4.6.8.6,1.2s-.5,2.2-1.8,1.8l-1.7-.8c-.8-1.5-1.7-3-2.7-4.7a5.8,5.8,0,0,1-1.4,1.2,2.2,2.2,0,0,1-1.7.4c-.9-.3-.8-1.2-.7-2,1.1-4.4.7-8.8-.2-13.2s-.2-6.6-.5-9.8-.5-7.5,1.5-10.9c1-1.4,2.2-2.2,3.8-.8s.1,1.7,0,2.5,0,.3.1.1.2-.6.4-.8a1.8,1.8,0,0,1,1.6-.9c3.6,1.3,2.8,4.1,2.3,6.8s-1,3.1,1.1,3.4,1.8-1.4,2.1-2.6c1-3.9.7-7.9.9-11.9.1-.9-.6-1.4-1.5-1.5-4.1,0-8.2-.3-12.3.7-2.6.6-4,1.8-3.9,4.4.4,5.9-1,11.6-.9,17.5.2,3.9-.4,7.9.4,11.8,0,1.3.1,2.5.1,3.8s0,1.6-.9,1.9l-12.3-.3c-1.1,0-2.2.2-3-.9,1.1-1.1,2.7.1,3.9-.8h1.7a60.4,60.4,0,0,0,7.4.1c-1.9-11.6-.4-22.9-.7-34.2a24.1,24.1,0,0,1,1.2-7.9h.1c.1-.4.3-.5.7-.1h2.8c1-.2,1.9-1.2,2.9-.2h1c3.2-.8,6.2-2.5,9.6-.9h3.8a8.6,8.6,0,0,1,4-1.8h.1c2.8-1.3,5.3-3.3,8.6-3.7h0c1.6-1.5,3.8-1.4,5.7-2h0c1.1-1,2.4-.6,3.7-.5s1.8,2.6,2.1,4.2a21.1,21.1,0,0,1,.2,2.5v48a23.6,23.6,0,0,1-.3,5.3A4,4,0,0,1,178.3,125.7Z"/><path class="cls-2" d="M152.7,71.2l-9.6.9,2.8-1.9C148.4,68.8,150.7,68.9,152.7,71.2Z"/><path class="cls-2" d="M169.2,65.7a31.1,31.1,0,0,1-8.6,3.7C163.1,67.3,165.3,64.7,169.2,65.7Z"/><path class="cls-2" d="M178.6,63.6h-3.7c3.7-2.5,4.1-2.5,7.6-.1a1.2,1.2,0,0,0-.5.5A3,3,0,0,1,178.6,63.6Z"/><path class="cls-2" d="M174.9,63.6l-5.7,2C170.5,63.3,172.7,63.3,174.9,63.6Z"/><path class="cls-2" d="M160.5,69.4c-1.3.8-2.3,2.1-4,1.8C157.3,69.4,158.7,69,160.5,69.4Z"/><path class="cls-2" d="M142.1,72.1a2.8,2.8,0,0,1-2.9.2C140.6,70.9,140.6,70.9,142.1,72.1Z"/><path class="cls-2" d="M182.5,63.5l1.9.9-.5.4c-.9,0-1.8,0-1.5-1.3Z"/><path class="cls-2" d="M136.4,72.2l-.3.2h-.4C135.7,71.6,136,71.6,136.4,72.2Z"/><path class="cls-2" d="M184.4,64.4l1,1h-.1q-1.2.3-.9-.9Z"/><path class="cls-13" d="M115.2,125.9c.1.3.1.6.2.9-2.3,2.7-3.6,5.5-.5,8.6a1.7,1.7,0,0,1-.1,2.5c-1.5.9-2.8,2.2-4.6,2.7a1.4,1.4,0,0,1-1.2-.6c-1.1-3.2-.7-6.8-2.4-9.9-.3-1.5.1-3.4-2.6-2.5s-3.1.3-4.2,1.8c-1.1,3.2-.2,6.6-.5,9.9s.3,4.2-1.3,5.9c-3.2-.8-1.9-3.5-2.3-5.5s0-3.2,0-4.8a43.4,43.4,0,0,0-.1-5.1c.1-2.3-4.2-4.8.5-6.8h8.4a8.5,8.5,0,0,1,4.9,1.4A9.9,9.9,0,0,0,115.2,125.9Z"/><path class="cls-14" d="M80.9,118.1l-6-.7H73c-.6,0-1.3-.3-1.2-1s.8-.8,1.2-1.1a2.7,2.7,0,0,1,1.4-.7c1.7.4,3.6.1,5.3.7l3.8.2a26.6,26.6,0,0,0,3.7.7,67.8,67.8,0,0,0,15.6-.7l1.6,1a6.4,6.4,0,0,1-1,1.3,3.7,3.7,0,0,1-1.8.4l-2.4.2Z"/><path class="cls-15" d="M103.9,75.9l-.3-5.4c0-2.7-2.7-5.7.9-7.9l.4,1.5c.5,1.7.2,3.5.3,5.2s-.3,1.9.4,2.8.2,3,.2,4.4c.7,8.4.1,16.7.3,25,.1,1.8-.3,3.5.4,5.2s.2,4.7.2,7.1c0,.2-.6.5-1,.6a1.2,1.2,0,0,1-.8-.4,5.8,5.8,0,0,1-.4-1.8v-7.1c-.6-8-.1-16-.3-23.9C104.2,79.4,104.6,77.6,103.9,75.9Z"/><path class="cls-16" d="M67.2,124.8c1.1.1,2.2.3,3-.8,3.2-.3,6.4.4,9.6-.9,1.7,3.9,4.6,1.8,7.1,1.5s1.8.2,2,1.3a6.9,6.9,0,0,1-.2,1.3,6.1,6.1,0,0,1-.7,1l-.4.5c-1.6,2.4-3.4-.1-5.1.3H81.2a13.1,13.1,0,0,1-3.9-.5c-1.5-1-3.2,0-4.8-.5s-3.2.3-4.8,0-1.3-1.9-.4-3.1Z"/><path class="cls-17" d="M96.1,123c-1.5,1.9-1.6,1.9-.6,3.5s.9,1.6,1.4,2.4-1,3.1-2.4,2-5,0-7.4-.5a2.7,2.7,0,0,1,.3-2.6h0l1-1h0c1.5-1.3,2.8-3,4.8-3.8Z"/><path class="cls-18" d="M106.5,106.7c-1.2-1.2-.9-2.7-.9-4.1V82.2c0-1.9.2-3.8.2-5.7l.7.6a.5.5,0,0,0,.1.8V99C106.6,101.6,106.5,104.1,106.5,106.7Z"/><path class="cls-18" d="M103.9,75.9c.2.8.8,1.5.8,2.2,0,9-.1,18-.2,27l-.6-.5c0-3.8-.1-7.6-.1-11.4V75.9Z"/><path class="cls-19" d="M87.4,124.9c-2.5,2.5-5.4,1.6-8.3,1,.2-.9.4-1.8.7-2.8l3.6-.3C85.3,122.4,87.3,122,87.4,124.9Z"/><path class="cls-13" d="M87.4,124.9c-.7-1.8-2.4-1.9-4-2.1a13.3,13.3,0,0,1,9.8.2,16,16,0,0,0-1.6,2.3c-.7,1.4-1.9,1.6-3.2,1.5Z"/><path class="cls-20" d="M64.3,78.8a77.3,77.3,0,0,0-1,15.9,23.2,23.2,0,0,0,.3,9.8,12,12,0,0,1-.3,7c.3.9,1.1,1.5.8,2.6a50.3,50.3,0,0,0-.9,5.6c-.2,1.9-.4,2.2-2.7,2.4h-1c-2.9-2-6.2-3-9.6-4s-4.3-.9-5.7-2.9-1-6.7-1.3-10,.1-3.8-.1-5.7A3.3,3.3,0,0,0,41.7,98l-.8-.9a15.6,15.6,0,0,0-1.6-2c-2.3-2.3-4.5-4.7-7.3-6.4A31.7,31.7,0,0,1,24.1,76c-1.8-5.7-1.1-7,4.9-7.4,4.2-.4,3.9,2.4,3.2,5a10.7,10.7,0,0,0,2.7,10.5l1,.8,1.6.8c2.1,1,3.5,0,4.5-1.8a30.7,30.7,0,0,0-.1-17c-4.1-1.8-8.5-1.9-12.8-2.1s-6,.5-8.9-.6c-1.1-.9-1.7-1.7.3-2.1s4.4.6,6.4-.7,4.1-.3,6.2-.2a82.7,82.7,0,0,1,8.6.5,4.8,4.8,0,0,0,4.6-1.9l1.9-1L51.1,57l6.5-4a33,33,0,0,1,3.2-1.8q2.9-1.5,3.3,1.8a26.6,26.6,0,0,1,.3,2.8l.8,1.6a61,61,0,0,1-.1,18.1C64.6,76.6,65.2,77.9,64.3,78.8Z"/><path class="cls-21" d="M26.9,61.4a2.4,2.4,0,0,1-2.3,1.1l-4.1.2c-.1,0,0,.6,0,1s.5,3.2.9,4.8c.4,4.8,1.3,9.6,2,14.4,1,6.4.6,13,1.8,19.4.4,2.7-.2,5.5.6,8.2s2,1.6,3.4,1.6h8.5c3.1.1,4.2-1.2,4.3-4.2s-1-7.3,1-10.7c1.3.6,1.2,1.7,1.2,2.8v15.2c-6.4,1.5-13,1.1-19.5,1.6a12.3,12.3,0,0,1-3.3-.3c-1-.2-1.4-1-.7-2.1a4.6,4.6,0,0,0,.6-3.2c-.7-8.4-1.2-16.8-2-25.3-.5-6.3-1.3-12.6-2-19a6.1,6.1,0,0,0-.7-1.7c.7-1.1,1.3-2.3,1.9-3.4Z"/><path class="cls-22" d="M148.9,51.9a21.3,21.3,0,0,1-8.7,1c-.5-1.1,1.2-1.8.9-1.9-4.2-.5-6.5-5.1-11.5-4.5a68.5,68.5,0,0,0-10.4,2.3,30.1,30.1,0,0,1-7.8,1.6,2.2,2.2,0,0,1-1.9-.4h0c-2.4-2.3-4.5-4.5-.4-7.1,2.7,1.9,2-3.4,4.4-2.1s3.7,2.7,5.2,1.6c4.3-2.9,9.5,1.2,13.6-2.2.8-.7,2.2.2,3,1,4.2,3.6,8.8,4,13.7,1.6a2.3,2.3,0,0,1,1.8,0,2.4,2.4,0,0,1,1.3,2.9C149.9,47.2,149.9,49.8,148.9,51.9Z"/><path class="cls-23" d="M182.5,40.5c-.4.6-.6,1.6-1.2,1.8a11.2,11.2,0,0,0-6.5,7.7c-3.1,1.9-6.2,2.7-9.6,1-1.3-2.3,4-1.8,1.9-4.5-.6-.7,2.1-1.8-.2-2.4s-2.8-.7-3.3,1c-1.8,6-3,2.1-4.4-.2a3.3,3.3,0,0,1-.1-1.4,4.8,4.8,0,0,1,2.1-2.6,5.8,5.8,0,0,1,2.5-.9c1.6-.6,4.8,2.6,4.8-2.5,0-1.7,3.7-2.3,6.2-1.3a5.8,5.8,0,0,1,1.3,1.4c1.5,2.3,4.6-1.3,5.9,1.6a1.1,1.1,0,0,0,0,.8A.6.6,0,0,1,182.5,40.5Z"/><path class="cls-24" d="M111.4,50c.3-.2.5-.6.7-.6a21.2,21.2,0,0,0,7.7-2.2,3.5,3.5,0,0,1,3.2-.6,1.8,1.8,0,0,0,1.6-.3c1.1-2,2.6-1.5,4.1-.9s3,1.1,4.3-.5,1.5-.1,1.7.3c1.9,3,4.8,4.4,8.1,5.3.2,0,.5.4.5.7s-.3.5-.5.6l-2.6,1.1h-.9c-.6-.5-1.5-.2-2-.8a34.8,34.8,0,0,0-8.5.6c-1.6.4-3.4.7-5-.6a1.3,1.3,0,0,0,.1-.6c.3-1,.5-2.1-1-1.6a17.6,17.6,0,0,1-5,1.3,5.3,5.3,0,0,0-1.7.8h-3.7l-1-.9c-.4-.2-.5-.4-.4-.6S111.3,50,111.4,50Z"/><path class="cls-25" d="M159.4,44.3l2.6,2.8c.8-1.1-.1-2.6.6-3.8,2.8-1.4,5.3-.7,8.1,1.2l-2.4,1.2a1.8,1.8,0,0,0-.5.7,3.5,3.5,0,0,0,1.1.3l.9-.2a1.3,1.3,0,0,1,.7.5,1.3,1.3,0,0,1-.1.9,5.7,5.7,0,0,1-1.6,1.1,6.5,6.5,0,0,0-3.6,2,6.5,6.5,0,0,1-4.9.7l-2.8-.2c-1.8-2-.3-4,0-6a3.7,3.7,0,0,1,.7-1.2A.9.9,0,0,1,159.4,44.3Z"/><path class="cls-26" d="M158.5,45.2c-.3,2.1-.7,4.2-1,6.3l-8.6.4a4.6,4.6,0,0,1-.7-.7c-1.2-1.3-1.3-1.4-.1-2s1.6-.8,1.3-2-.2-1.3,1.4-1.1h1.5l.9-.6,1.1-.2C155.7,45.5,157,44.6,158.5,45.2Z"/><path class="cls-22" d="M137.3,52l2,.8h-1.9C137.4,52.6,137.3,52.3,137.3,52Z"/><path class="cls-27" d="M184.4,64.5l.9.9a12.4,12.4,0,0,1,2,7.7c-.2,2.9,0,5.7,0,8.6a1.4,1.4,0,0,0,0,.9c-1.1,5.4-1.2,11-2,16.4h0a10.6,10.6,0,0,0-.9,2.5c-.1,1.7,0,3.4,0,5.2a.8.8,0,0,1-1.2,0c-.5,0-.4.1-.2.6s-.7.4,0,.4c-3,1.7-2.4-1-2.9-2.3V89.7c0-.7,0-1.6,1.2-1.4s1.4,1.4,2.1,2.2c-.3-1.1-1-2-1-3.2a4.1,4.1,0,0,1,.2-1.9,12.9,12.9,0,0,0-.3-13.3c.1.3-.5.9-1.5,1.2s-.6-1.5-.7-2.3V69.7c-.1-.8.2-1.7-.5-2.4l-1-3.7h3.8Z"/><path class="cls-28" d="M180.6,106.6l.7.7c.5.5.9.9,1.1-.2a6.1,6.1,0,0,0,.1-1.4h0l1.9,1c0,3.2,0,6.4-.1,9.6a2.1,2.1,0,0,1-1.1.4c-1-.1-2.1.3-3-.5a7.1,7.1,0,0,1-.1-1.4C180.3,112.1,179.5,109.3,180.6,106.6Z"/><path class="cls-29" d="M186.8,117.2h6.1a15.1,15.1,0,0,0,7.9,0h1.7c.2.1.4.3.3.5s-.1.3-.2.3h0l-.7.7c-5.3.8-10.5.3-15.8.1-1.6-.9-3.5.9-5.2-.4s-.9-1.3.2-1.8A13.8,13.8,0,0,1,186.8,117.2Z"/><path class="cls-30" d="M178.3,125.7l1.2-1.8c1.7-1.3-.9-4.3,2.1-5.2,1,.1,2.1-.4,2.9.6a17,17,0,0,0-.4,2.2c0,1.1.1,2.3.2,3.4l-.9.9Z"/><path class="cls-31" d="M200.8,117.3a8.2,8.2,0,0,1-7.9,0Z"/><path class="cls-31" d="M186.8,117.2h-6.1a.5.5,0,0,1-.4-.5q.1-.3.3-.3a.9.9,0,0,0,.9-.2,1.3,1.3,0,0,1,1.9-.1h.9Z"/><path class="cls-31" d="M184.5,119.3l-2.9-.2-.2-.7c1.6-.1,3.3-.7,4.7.6Z"/><path class="cls-31" d="M201.9,118.9a4.6,4.6,0,0,1,.7-.7A4.6,4.6,0,0,0,201.9,118.9Z"/><path class="cls-31" d="M202.6,118.2a2.2,2.2,0,0,1-.1-.8l.7.3Z"/><path class="cls-2" d="M185.3,99a70.4,70.4,0,0,1,1.2-15.2c0-.4.5-.8.8-1.2-.2,3.4.3,6.7-.8,10a12.2,12.2,0,0,0-.2,3.8A2.8,2.8,0,0,1,185.3,99Z"/><path class="cls-2" d="M3.8,134.4a36.2,36.2,0,0,1,.2-4.7c.2-1.8.6-3.5,2.8-3.9l.3.6v.7c0,.2-.1.4-.1.6L6.6,129c-1.1,1.7.4,4.7-2.5,5.7Z"/><path class="cls-32" d="M14.7,130.8c-.3-1.1-.1-2.3-1.2-3a4.1,4.1,0,0,1-1.2-1.4,2.5,2.5,0,0,1-.1-1.2l.3-.5,2,.2,1.2,1.2C16.5,127.9,17.1,129.7,14.7,130.8Z"/><path class="cls-2" d="M6.8,125.8c1-1.3,2.5-.7,3.8-.9l.3.5a1.2,1.2,0,0,1-.6,1,3.5,3.5,0,0,1-1.1.3,2.7,2.7,0,0,1-2.3-.7Z"/><path class="cls-2" d="M10.6,124.9c.5-.9,1.2-1.1,1.9-.2v.3a1.3,1.3,0,0,1-1.8,0Z"/><path class="cls-2" d="M102.8,68.3c-1.6-1.4-1.1-3.5-1.7-5.2s.7-1.4,1.8-1.3A12,12,0,0,1,102.8,68.3Z"/><path class="cls-33" d="M102.8,68.3c0-2.2.1-4.4.1-6.5h0c.6-.8,1.1-.7,1.7,0h0a2.8,2.8,0,0,1-.1.9,18.2,18.2,0,0,0-.7,2.5,48.7,48.7,0,0,0-.2,5.4l-.7-.6C102.9,69.4,102.8,68.8,102.8,68.3Z"/><path class="cls-2" d="M104.6,61.7h-1.7C103.7,60.6,103.7,60.6,104.6,61.7Z"/><path class="cls-2" d="M126,114.5l-3.9.8h-5.9c.2-.8.5-1.7,1.4-1.7l5.2.3A18.3,18.3,0,0,1,126,114.5Z"/><path class="cls-24" d="M123.8,52h-5.6a.8.8,0,0,1,.3-1.3c1.8.6,4.3-2.1,5.4,1.3Z"/><path class="cls-34" d="M63.3,111.5l-.3-.3a60.8,60.8,0,0,1,.3-16.5c.1,2.2.1,4.4.3,6.6s.9,1.6,2,1.2l.7-.6c1-.3,2-.4,3-.6a31.1,31.1,0,0,0-2.5-3.8c-.4-.6-1.7-.7-1.8-1.2s1-1.3,1.6-2l2.6-2h0c.6.4.9,1,.3,1.5s-1.4,1.8-.3,2.7a8,8,0,0,1,3,7.1c0,.4.5.8.8,1.1,0,2.1-.1,4.1.1,6.2a6.3,6.3,0,0,0,.9,2.5h-.1c.6.6.7,1.2.1,1.8H73l-2.3-1.5c.7-1.8-1.4-3.6.2-5.4a2.5,2.5,0,0,0,.5-1.7c0-.3-.5-.7-.8-1a1.8,1.8,0,0,0-.6.5,6.7,6.7,0,0,0-.6,1.2c-.2,2.2-2.4,2.8-3.5,4.2S64.2,111.6,63.3,111.5Z"/><path class="cls-2" d="M74,115.2a10.9,10.9,0,0,0-.1-1.8c2,.6,4.1.5,5.8,1.8Z"/><path class="cls-35" d="M9.7,125.8a.5.5,0,0,1,.6-.1,3,3,0,0,1,2.6,0c1,.5.6,1.3.6,2.1h-.1a1.5,1.5,0,0,1-1.4.4c-.4-.2-.8-.6-1.3-.1l-1,.2a1.8,1.8,0,0,0-1.4.4,3,3,0,0,0-.4,1,18.1,18.1,0,0,1,.3,2.3c-1.3,4,2.3,3.6,4.3,4.7a.2.2,0,0,0,0,.4c-.3.5-.5.9-1,1.1l-2.4.2a2.7,2.7,0,0,0-1.4,3.4,1.2,1.2,0,0,0,.6.6,19.4,19.4,0,0,1,2.4.2c2,.4,2.2,1,1,3.4l-4.3.8c-2.4.4-3.7-.7-3.6-3.1s.2-4.8.3-7.2a10.8,10.8,0,0,0,0-1.8c.2-1.2.4-2.4.7-3.5a33.8,33.8,0,0,1,1.1-3.4l.8-1h0C7.6,126,8.9,126.8,9.7,125.8Z"/><path class="cls-7" d="M158.5,3.9a2.2,2.2,0,0,0-.1-.8c1.4-.1,2.8-.4,3.9.8h-.1a1.9,1.9,0,0,1-1.2.7A2.3,2.3,0,0,1,158.5,3.9Z"/><path class="cls-33" d="M104.8,70.2c0-2,0-4.1.1-6.1a11.5,11.5,0,0,1,.6,6.1C105.3,70.6,105,70.6,104.8,70.2Z"/><path class="cls-18" d="M104.8,70.2h.7v1.9Z"/><path class="cls-2" d="M118,51a2.9,2.9,0,0,1,.2.9h-2l1-.9C117.5,50.6,117.8,50.6,118,51Z"/><path class="cls-36" d="M14.7,130.8c.3-1.6.7-3.2,1-4.7s1.8,1,2.5,1.8,0,2.2,1.8,2.9a1.5,1.5,0,0,1,1,.7c.3.8-.3,1.1-1,1.1s-2.1,1.1-2.2,2.5-.2,5.4-.4,8-.5,1.9-2.9,1.9c0-2.9.1-5.9.1-8.8a25.1,25.1,0,0,0-.4-2.7c-.1-1-.6-2,.5-2.7Z"/><path class="cls-37" d="M137.4,99c0-7-.1-14-.1-21,0-1.9.3-2.1,2.2-2.2l13.3-1a24.1,24.1,0,0,1,3.8.1c-1.1,3.8-4.4,2.1-6.7,2.2s-5.1,1.1-4.8,4.7a12.6,12.6,0,0,0-1,6.9c.1,1.2.8,2.9-.8,3.9-2.2-1.8-1.1-5.1-3.7-6.9-.3,2.6.4,5.3-1.3,7.6V99Q137.9,99.6,137.4,99Z"/><path class="cls-38" d="M138.3,93.3v-8a19.4,19.4,0,0,1,.2-2.4c.1-.2.4-.5.6-.5a.7.7,0,0,1,.8.2l2.7,4.4a5.3,5.3,0,0,1,.5,1.8c.1,1.3.1,2.5.2,3.8s-.3,3.4-.4,5.1.1,3.4.2,5.1a7.5,7.5,0,0,1-.9-2.5c-.2-2-.1-4-.2-6s-.7-2.1-2.4-1.6Z"/><path class="cls-38" d="M137.4,99h.9c-.1,3.9-.1,7.9-.1,11.8C136.8,107,137.2,103,137.4,99Z"/><path class="cls-39" d="M152.9,143a4.6,4.6,0,0,1,2.9-3.8,4.2,4.2,0,0,0,1.6-.9,1.5,1.5,0,0,0,.2-1.3,1,1,0,0,0-1.3-.8l-1.4.4a1.8,1.8,0,0,0-1.2.9h0a.5.5,0,0,1-.8-.2c-.6-.7-.3-1.4.2-2s1.1-1.1,1.6-1.6l1.9-.3c2.4-.1,3.3.6,3.8,2.7s.3,4.1,1.6,5.8a1.6,1.6,0,0,1-.5,1.2c-1.6,1.3-3.5,1.5-5.4,1.7S153.8,143.9,152.9,143Z"/><path class="cls-40" d="M177.4,141l-.9,1-3.1,1.1a2.9,2.9,0,0,1-3-1.1,3.3,3.3,0,0,1-.4-2.2c.1-.2,1.1-.4,1.6-.5l1,.2c.2,0,.7-.1.8-.3a.8.8,0,0,0-.3-.8l-3.2-2a2.4,2.4,0,0,1-.3-3.7,3.4,3.4,0,0,1,3.5-1.2c.9.3,1.8.8,1.6,2s-.8,1.2-.1,1.9S178.1,138.3,177.4,141Z"/><path class="cls-41" d="M165.9,142c-.7.2-1.9.7-2.1-.2a55.8,55.8,0,0,1-1.3-6.9c0-.4.7-1,1.2-1.3a1.9,1.9,0,0,1,.9.9c.4,1.5.7,3.1,1,4.7a26.6,26.6,0,0,1,.3,2.8l.2.2Z"/><path class="cls-42" d="M174.6,135.4l-1.7-.7c-.2-.1-.3-.5-.4-.8a1.9,1.9,0,0,1,.8-.3h1.4A12.1,12.1,0,0,1,174.6,135.4Z"/><path class="cls-43" d="M165.9,130.9c.1.9.5,1.9-1,1.9a1.1,1.1,0,0,1-.8-.8c-.1-1.5.9-1.2,1.8-1.1l.2-.2Z"/><path class="cls-44" d="M137.5,160.2l1.7,3.1c.1,1.1.1,2.2.1,3.3a7.7,7.7,0,0,1-2.9,6.7,4.9,4.9,0,0,1-2.9,1.4,9.5,9.5,0,0,0-5.6,1.9,3.5,3.5,0,0,1-4,.3l-5.8-2.2a2.1,2.1,0,0,1-.6-1.7,9.7,9.7,0,0,0,.4-6.7,3.3,3.3,0,0,1,2.1-1.5,3.9,3.9,0,0,1,2.6.7,4.9,4.9,0,0,1,2.2,2.5c.6.7.2,2.7.9,2.3,2.9-1.7,6.5-.4,9.2-2.2S134.9,162.3,137.5,160.2Z"/><path class="cls-45" d="M113.2,174.8l-.8-.9c1.1-4.3,1.6-4.4,5.7-1v1.8Z"/><path class="cls-46" d="M152.9,137.3a1.2,1.2,0,0,1,.8.2C153.2,138.1,153.2,138.1,152.9,137.3Z"/><path class="cls-46" d="M153.7,137.5l1.2-.9Z"/><path class="cls-47" d="M137.5,160.2c0,1.4-.4,2.9.1,4.1s-.3,3.7-2.2,4.8-1.3-.2-1.7-.7-2-1.7-3.5-2c-4.3-.9-4.3-.9-1.6-4.5a8.6,8.6,0,0,0,1-1.6c1.2-2-.5-3.3-1.3-4.7-1.9-3.3-2.1-7.3-5.4-9.9-1.4-1.2-.5-3.7,1.1-4.5s2.8,1.5,3.8,2.9l.9,2a16.2,16.2,0,0,0,1,1.8,47.1,47.1,0,0,0,2.9,4.8,25.2,25.2,0,0,0,2.7,3C136,157.2,136.7,158.7,137.5,160.2Z"/><path class="cls-48" d="M127.8,144.1l-.7-.6c-.7-.8-1.2-2.5-2.4-1.7s-.9,2.2-1.4,3.3.8.4,1.2.3,2.2-.2,2.2.9a18.4,18.4,0,0,1-.3,3.3c-.2,1.3.4,1.8,1.6,1.6s1.6.4,1.2,1.3-.2,2.9,1.2,4.1,1.5,1.6.1,3.9c-2.3.1-4.4-.8-6.5-1.6a3,3,0,0,1-.4-1.8c0-7-.9-8-8-9a6.5,6.5,0,0,1-2.7-.5,1.1,1.1,0,0,1-.2-2.1c2-1,4.6-.2,6.4-2a4.6,4.6,0,0,0,1-2.1c1.1-1.8,3.1-3,3.8-5A7.6,7.6,0,0,1,127.8,144.1Z"/><path class="cls-48" d="M114.3,137.5c0-.4.3-1,.2-1.2s-1.5-1.2-2-1.9a3.2,3.2,0,0,1-1-1.9,19.8,19.8,0,0,1,1.4-4.9c.2-.5,1.6-.6,2.5-.8,2.7.4,3.5,2.8,4.7,4.8-1.7,2.1-3,4.2-.5,6.8.7.8,1.4,2.2-.1,3.2s-3-.7-4.4-1.1S113.8,138.7,114.3,137.5Z"/><path class="cls-49" d="M119.1,141.2c.7-.5.5-1.1.1-1.6s-1.6-1.6-2.2-2.5a1.9,1.9,0,0,1-.5-1.7c.5-1.9,1.2-3.7,3.6-3.8h0c.4.6,1.3.4,1.8,1l2,3.8a2.8,2.8,0,0,1,.1.9c.5,2.2.5,2.3-1.5,3a2.4,2.4,0,0,0-1.6,2.1,1.5,1.5,0,0,1-1.8,0A.9.9,0,0,1,119.1,141.2Z"/><path class="cls-48" d="M121.9,132.6l-1.8-1Z"/><path class="cls-50" d="M152.7,118.9c-.3-.2-.7-.3-.7-.6-2-6.2-1.7-12.5-1.1-18.9.2-1.6.9-2.1,2.6-2h1c1.5.2,2,.7,2,2.1v16.8C154.8,116.5,153.3,117,152.7,118.9Z"/><path class="cls-51" d="M161.4,120.3c.9-.4,2.2,0,2.8-1.2,4.4-1.6,7.8.9,11.4,2.7l-.9,2.1-6.5-1.1-4.8-1.7Z"/><path class="cls-52" d="M195.9,21.2h1.9a5.6,5.6,0,0,1,0,1.3,1.8,1.8,0,0,1-.8.9,1.3,1.3,0,0,1-.6-.5C196.2,22.4,196.1,21.8,195.9,21.2Z"/><path class="cls-53" d="M181.5,40.4c-.2-.9-.3-1.9-1.7-1.4a18.9,18.9,0,0,0-2.1.9c-1.6.7-2.3-.2-2.9-1.4a5.9,5.9,0,0,1,4.5-5.1c-2.4-4.5-3.8-9.7-6-14.7a3.8,3.8,0,0,1-.9-1.2c-.9-5.2-.1-6.1,4.4-5l4.2,4.4a5.9,5.9,0,0,1,1.5,2.8,11.6,11.6,0,0,0,3.7,6.4,24.5,24.5,0,0,0,.2,2.7c.1,3.7-1.8,6.9-2.6,10.4-.1.5-.8.9-1.3,1.3Z"/><path class="cls-54" d="M161.3,4h.9c.9,1.9,2.1,3.2,4.4,2.9a30.9,30.9,0,0,1,4.3-.1l1.8.2c.5.9.9,1.8,1.3,2.7s-1.7-.1-3.1-.1c2.5,2.6,0,6.4,2.9,8.8h0c1.4,2.5-1.5,2-2.2,3.1s-3-1.1-4.6-1.5-2.1-2.8-4.1-3-2.6-1.6-2.8-3.4c1.9-2,3.6-3.9,1-6.6A2.1,2.1,0,0,1,161.3,4Z"/><path class="cls-55" d="M173.8,18.4c-2.1-.3-2.2-.3-2-2s.2-3.1-1.2-4.3a1.7,1.7,0,0,1-.5-1.2c-.2-.9-.6-2.3-.1-2.7s1.9.3,2.8.9l1.2.6c1.2.7,2.6,1.2,2.8,2.8-4.3.4-4.6.8-3.4,5Z"/><path class="cls-8" d="M104.7,2.9a13.4,13.4,0,0,0,7.4-.9,6.6,6.6,0,0,1,5.5-.3,3.9,3.9,0,0,0,1.8.2c4.4-1.2,8.8-.3,13.1-.9,3.7,2.8,8.1,3.9,12.5,4.9h0c.8,1,.4,1.8-.5,2.4a4.6,4.6,0,0,1-3.2.7c-11.4-1.9-23,.4-34.5-1.3-1.8-.8-1.3-2.9-2.3-4.2A1.4,1.4,0,0,0,104.7,2.9Z"/><path class="cls-56" d="M11.5,27.1a12.9,12.9,0,0,1-.8-2.6,18.2,18.2,0,0,1-.1-3.3,26.4,26.4,0,0,0,1.8-3.8c1-3.7,3.2-6.1,7-6.9l2.7-.8c.9,3.1-2.1,3.8-4,6.4,6-2.3,10.6-6.4,16.6-5.8a1.4,1.4,0,0,1,1.1.5c.7.8-.4,2.3,1.1,2.8a3.5,3.5,0,0,1,1.6.8,1.7,1.7,0,0,1,.1,1.2,13,13,0,0,1-3.1,2.1,1.9,1.9,0,0,1-1.3-.2c-5.1-1.8-7.1-1.1-10.7,4.3-2.1-.5-3.5,1.4-5.5,1.6C13.7,20.9,13.4,25.3,11.5,27.1Z"/><path class="cls-57" d="M35.6,10.7c-1.7.8-3.3,1.8-5.4,1.1a3.3,3.3,0,0,0-2.6.7c-2.9,2.4-6.5,3.2-9.5,5.3a1.1,1.1,0,0,1-1.6-1,2.5,2.5,0,0,1,1.1-2.4c1.9-1.3,3.8-2.4,4.5-4.7S24,7,25.9,6.8c3.8-.2,7.2-2.2,11-2.3,1.8-.1,4.2-.7,4.7,1.9s-2,2.3-3.5,3S36.5,10.4,35.6,10.7Z"/><path class="cls-58" d="M38.5,14.5H36.6c-1.1-2,.2-3.5,1-5.1,2.4-1,5.9-1.3,3.7-5.4a8.3,8.3,0,0,1,7.8,0c-.2.5-1,.1-1.2.7s.9-.3,1.2-.7c2.3-.1,4.6.2,6.8-.7A6.1,6.1,0,0,1,58.6,3c1.7,2.1,1.3,4.5,1.1,6.8a2.4,2.4,0,0,1-.5,1.4c-1.9,1.7-2.2-.7-3.1-1.4s-4.4-3-6.9,0-6.4,3.7-10.1,4.8Z"/><path class="cls-59" d="M89.3,2.1h12.3a15.8,15.8,0,0,1,3.1.9v.2c-3.8,2.1-7.6.4-10.8.6,2.6,1,6.7-.8,9.7,1.7a1.4,1.4,0,0,1,.3,1.5c-1.6,1.6-3.6,1.9-5.8,1.9-3.6-1.5-7.7,1-11.4-1.1-2.2-1.6-4.4-.9-6.6.2S77.6,9.8,75.8,9a6.6,6.6,0,0,1-1.2-1.7L74,5.9c-.1-.2-.1-.5-.2-.7,0-2.5,1.9-1.7,3.1-1.7A37,37,0,0,0,89.3,2.1Z"/><path class="cls-60" d="M89.3,2.1a14.8,14.8,0,0,1-7.2,1.8c-2,.1-4.1.1-6.2,0s-1.2,1-1,2c-2.2,2-4.6,3.7-7.9,2.5-1.5-.6-1.9.6-2.4,1.4s-2.2,2.8-4.2,2.7a2.6,2.6,0,0,1-1.8-.9v-.9C60.2,5.4,64.9,4,69.2,2a35.7,35.7,0,0,1,6.5.6c2.8.5,5.7.1,8.5,0Z"/><path class="cls-61" d="M145,5.9a23.1,23.1,0,0,1-3.7.3c-1.6-.1-3.2.4-4.4-1.6s-3.5-1.7-5.8-1.6l1.4-2h0a20.1,20.1,0,0,1,8.8,0l2.8.2a2.3,2.3,0,0,1,1,3.2A3.7,3.7,0,0,0,145,5.9Z"/><path class="cls-62" d="M69.2,2c.2.7.8,1.6-.4,2L66,4.8a7,7,0,0,0-5.5,4.6,2.1,2.1,0,0,1-1.9,1.3V3C62.1,1.8,65.6,1.9,69.2,2Z"/><path class="cls-56" d="M41.3,3.9c.9.2,1.9.4,1.6,1.7a22.9,22.9,0,0,0-.7,2.8c-.2,1-.9,1.2-1.7.8a1.5,1.5,0,0,0-2,.5c-1,.4-1.6,1.6-2.9,1h0a2.7,2.7,0,0,1,2.1-2.8c.8-.2,1.6-.1,2.4-.3a1.3,1.3,0,0,0,.7-1,1.7,1.7,0,0,0-.6-1.1A2.9,2.9,0,0,0,38.4,5a18.5,18.5,0,0,0-4.6.8,21.2,21.2,0,0,1-7.9,1c3.2-1.5,8.4-2.9,11.2-2.9Z"/><path class="cls-8" d="M141.3,1h-8.8A10.4,10.4,0,0,1,141.3,1Z"/><path class="cls-63" d="M62.5,48.1c-3.7.8-7.5.9-11.1,2.5-1.8.7-4.1.4-6.2.5s-2.9-2-2.9-4,1.7-2.3,2.5-2c6.4,1.8,12.2-3.2,18.5-1.7a2.4,2.4,0,0,1,1.1.6C64.9,45.9,62.8,46.6,62.5,48.1Z"/><path class="cls-64" d="M64.4,76V56.8c.3-.3.6-.4.9,0h0c.7.7,1.3.5,2,0s1.9-.5,2.8,0c1,2.9,0,5.7,0,8.6s.6,3.8,0,5.8h0c-.6.8-1.1,2.2-2.3,1.9s-1-1.7-.9-2.8a16.9,16.9,0,0,0-.4-5c-.5,3.6.9,7.3-1.2,10.7h0Q64.9,76.6,64.4,76Z"/><path class="cls-65" d="M62.5,48.1c-.8-1.3-.6-2.3.9-2.9a4.3,4.3,0,0,0,1-.9c2.9-.5,5.9-.2,8.8-1.4s3.6.8,4.7,2.4a1,1,0,0,1-.2,1.2c-.9,1.3-3.4-.9-3.6,1.7a6.5,6.5,0,0,1-2.2.8C68.7,49.1,65.5,49.2,62.5,48.1Z"/><path class="cls-66" d="M42.3,47.1a2.2,2.2,0,0,0,.6.7,2.7,2.7,0,0,1,2.3,3.3c-2.3,2.7-5,1.6-7.7.8-.6-.6-1.5-.3-2-.8H32.8a.9.9,0,0,1-1.3.1,1.8,1.8,0,0,1,.7-2.4c3-1.4,6.1-2.6,9.6-2Z"/><path class="cls-67" d="M83.6,48.1c0,.3-.1.6-.1.9-2.3,0-4.6.6-6.8-.8.8-.5,1.8-.8,1.1-2h0a5,5,0,0,1,5.6-.7C85,46.1,85,47.1,83.6,48.1Z"/><path class="cls-68" d="M77.8,46.2c.6,1.6.6,1.6-1.1,2H74.1c-1.4-.6-1.7-1.1-.9-1.6a3.4,3.4,0,0,1,1.9-.7A12.4,12.4,0,0,1,77.8,46.2Z"/><path class="cls-69" d="M67.3,56.8l-.5.7c-.9.9-1,.8-1.5-.7Z"/><path class="cls-63" d="M35.5,51.1l2,.8H35.6C35.6,51.6,35.5,51.3,35.5,51.1Z"/><path class="cls-69" d="M65.3,56.8h-.9v-1Z"/><path class="cls-70" d="M17.3,42.4c-2.1-1.5-3.1-3.3-2-5.9a5.3,5.3,0,0,0,.1-1.8c.7-.4,1.3,0,1.8.4s1.8-.3,1.7-2.4-1.8-4.3.9-5.8c1.2.5,1.9,1.7,2.9,2.3,2.7,1.8,1,5.3,2.9,7.4a5.3,5.3,0,0,1,.5,3.9A8.2,8.2,0,0,1,17.3,42.4Z"/><path class="cls-71" d="M20.2,27c-1.2.9-1.1,2.2-.6,3.4a12,12,0,0,1,.4,6.5c-.2,1-1.3,1.3-2.2.6l-1.4-1.9c.5-2.3-.2-4.5-.9-7-1.1.6-1.1,1.9-2,2.3a6.2,6.2,0,0,1-2-3.8,18.3,18.3,0,0,1,.7-3.2c.8-2.7,2.4-3.4,5.3-2.3.4.2.5,1,.8,1.6a4.6,4.6,0,0,1,2.2,3.2Z"/><path class="cls-72" d="M17.3,42.4c.1-.1.2-.3.3-.3s2.9-.3,4.3-.6A31.1,31.1,0,0,0,26,40.4l.4.5c2.2,1.9,2.5,5.5,5.8,6.3a1.7,1.7,0,0,1,.5,1.9l-1,1.9c-5.8,2.1-8.5-2.3-11.6-5.7l-.9-1a11.4,11.4,0,0,1-1.9-1.9Z"/><path class="cls-53" d="M13.5,30.9l1-4.6a27,27,0,0,1,3,3.5,1.8,1.8,0,0,1,.2,1.6c-1.1,1-.6,1.6.3,2.2s1.1.8.7,1.5a2.9,2.9,0,0,1-1.3.5,3.4,3.4,0,0,1-1,0l-1-.9C14.7,33.4,13.3,32.6,13.5,30.9Z"/><path class="cls-63" d="M20.1,45.3A16.3,16.3,0,0,1,23,47.6,9.4,9.4,0,0,0,31.7,51h1.1a2.8,2.8,0,0,0-.1.9H29.8C24.6,52.6,22,49.4,20.1,45.3Z"/><path class="cls-70" d="M17.3,42.4l1.9,1.9A1.9,1.9,0,0,1,17.3,42.4Z"/><path class="cls-73" d="M105.7,6.8c3,.2,5.9-.1,9,.5s4.6-.4,7-.5a3.3,3.3,0,0,1,2.2.2c2.5,1.6,4.5.8,6.3-1.2l1-.9c.9-.7,1.7-.3,1.9.5s2,2.5,4,2.4h6.1A1.7,1.7,0,0,0,145,5.9a5.3,5.3,0,0,1,2.8-.3c1.1.2,2.3-.3,3.7-.5.4,2,.8,4.3,1.2,6.5l-.5.5c-2.2,1.3-4.2,2.6-6.6-.2s-4.5-.7-6.8-1-3.5,0-5.2-.1c-3.4-.8-6.6-.6-9.5,1.4a3.3,3.3,0,0,1-3.1.8c-4.7-1.8-10-1.5-14.4-4.1a3.9,3.9,0,0,1-1-.8,1.4,1.4,0,0,1-.2-.7Z"/><path class="cls-55" d="M161.3,4c-.4,2.7,1.9,3.9,3.3,5.8a14.4,14.4,0,0,1-1.8,2.5,13.6,13.6,0,0,1-2.4,1.3.8.8,0,0,1-.9.3,2.7,2.7,0,0,1-.7-.8,3.2,3.2,0,0,1-.3-.9v-.6a1.2,1.2,0,0,1-.4-.8c-.4-2.7-1.6-4.6-4.7-4.6-.2,0-.5-.8-.4-1.1a1.1,1.1,0,0,1,.8-.9l4.7-.3Z"/><path class="cls-73" d="M159.4,12.6v.9c-4.5,2.1-5.9,1.8-6.7-1.9h0c1.9.1,3.8-.8,5.8,0h0Z"/><path class="cls-74" d="M38.4,174.9c-4.3-.2-8.5-.8-12.3-3a11.8,11.8,0,0,1-2.1-1.8c.5-.9,1.5-1.4,1.7-2.4.2-3.6-1.5-6.8-1.7-10.3s.8-5.9,5.8-6.8a1.8,1.8,0,0,1-.4,2.8c-2.6,1.5-1.1,4.1-1.8,6-.1.3.7-.4,1.2-.2a5,5,0,0,1,2.1,2.2,4.9,4.9,0,0,1-.7,3.9c-.8,1.3.9.6,1,1.2,2.8,3.7,3.7,3.8,9,.4a13.8,13.8,0,0,0,1.7-2.5,1.3,1.3,0,0,1,1.2-.3,3.1,3.1,0,0,1,1.1,1.4,4.2,4.2,0,0,0,.9,1.4c1,1.1,2.6,1.2,3.2,2.7a1.4,1.4,0,0,1-.7,1c-1.1.6-2.7.6-3.1,2C43.4,176.1,41,175.6,38.4,174.9Z"/><path class="cls-48" d="M29.8,150.8l-2.1,1.1c-2.6,1.5-3,2.1-2.6,4.9s1.4,3.6.6,5.5c-.1.1,0,.4.1.5,3,1.6,1,4.1,1.1,6.3-4.6-1.3-4.8-4.1-4.9-9.8,0-2.2,1.8-4.8-1-6.6l.3-1.8,2.9-2.8L28,146a19.4,19.4,0,0,1,6.8-1.1,6.1,6.1,0,0,1,.5,1.2,2.5,2.5,0,0,1-.5,1.9C33.1,148.9,32.1,151,29.8,150.8Z"/><path class="cls-75" d="M48,170v-1l.4-.4a2.8,2.8,0,0,1,1.8-.2,2.2,2.2,0,0,1,1.1.5c1,.2.2-.4.1-.4s.2.1,0-.5c.5-2.8,0-5.6.2-8.4a2.2,2.2,0,0,1,2.1-1.4c1.8.9,3.6,1.9,4.5,3.9a4.2,4.2,0,0,1,.2,2.5,15.7,15.7,0,0,0-.4,2.3l.3,1.7v1.2c-.3,1.4-.4,2.9-1.6,4H54.8c-.6-.7-1.5-.4-2.2-.6s1.1,0,1.3.6a13.4,13.4,0,0,1-2.6.9H47.1A4.5,4.5,0,0,1,48,170Z"/><path class="cls-76" d="M78.8,172a7.8,7.8,0,0,0-1.5,1,5.7,5.7,0,0,1-5.2,1.8c-1.7-.1-3.5.5-5-.8a4.9,4.9,0,0,0,2.5-5.1,5,5,0,0,1,.2-1.2l.5-1.2A11.7,11.7,0,0,1,73,163c2.2-.2,1.3-4.2,4.2-3.4s-.1,5.3,2.5,7C80.5,168.6,80.8,170.5,78.8,172Z"/><path class="cls-77" d="M69.9,167.9c.4.9,1.2,1.7.8,3a17.8,17.8,0,0,0-.5,2.8l-3.1.3-4.6-.2a2.6,2.6,0,0,0-2.9,0h-1c-2.7-1.1-.3-3.2-.9-4.7l-.2-1a1.4,1.4,0,0,1,.2-.6,3.1,3.1,0,0,1,.7-.9,2.3,2.3,0,0,1,1.7-.8,1.4,1.4,0,0,1,.9.8c.3.6.1,1.9,1,1.8s.5-2,1.6-2.5A17.8,17.8,0,0,1,69.9,167.9Z"/><path class="cls-78" d="M103.7,173.9H98.5a12.9,12.9,0,0,1-2.6-.8c.5-.9,1.7-1.1,2.3-2.4a11.4,11.4,0,0,0-3.1,2.3H89.4l-.4-.5c-.7-4.1,2.8-4.1,5.2-5.2s2.4-3.4,3.6-5a1.3,1.3,0,0,1,1.7.6c.6,1.2.8,2.9,2.9,2.5a3,3,0,0,1,2.4.6c.6,1.4,0,2.7-.6,3.9S104.1,172.6,103.7,173.9Z"/><path class="cls-79" d="M21,152.7c1.7-.2,2.4,0,2.5,1a4.1,4.1,0,0,1,.1,1.9c-.2,1.5-.5,3-.7,4.5s1.4,2.7.4,4.4.4,1.1.7,1.5,2,2.1,2.9,3.1c-.7,1.1-1.8.9-2.9,1h0a17.4,17.4,0,0,0-3-3.7,3.4,3.4,0,0,1-1.7-3.6q.4-4.6,1.2-9.3C20.5,153.2,20.8,153,21,152.7Z"/><path class="cls-80" d="M48,170a7.3,7.3,0,0,1-.9,4.8c-1.2.2-2.3.6-3.5.7s-3.7.9-5.2-.6h1.4c2.8-.1,2.8-.1,3.1-3a1.6,1.6,0,0,1,1.4-1.6C45.5,170,46.8,170.1,48,170Z"/><path class="cls-81" d="M78.8,172c.3-1.8.5-3.5.8-5.2a1.7,1.7,0,0,1-.1-1.2,10.6,10.6,0,0,1,.9-2.5c1.5-1.5,2.8-1.9,4,.3.8,3.8-.3,6.6-3.7,8.5Z"/><path class="cls-82" d="M103.7,173.9c-.5-.5-1.2-.9-1.7-1.5s-.8-1.1-.6-1.5.9-.6,1.4-.8h1.4l.8.4h.4a1.3,1.3,0,0,0,.8-.3c.6-.3,1.1-.8,1.7.1a2.3,2.3,0,0,0,0,2.9l.8,1.6A8.8,8.8,0,0,1,103.7,173.9Z"/><path class="cls-76" d="M80.7,171.9a9.5,9.5,0,0,1,1.1-2c1.8-2,1.9-4.3,1.8-6.7,2.5.4,1.8,2.4,2.1,4s-.4,3.8,1,5.5a1.1,1.1,0,0,1-.2,1.1C84.2,174.2,82.6,172.8,80.7,171.9Z"/><path class="cls-82" d="M95.1,172.9c.1-1.9,1.5-3,2.6-4.3s1.1-.3,1.2-.1a4.2,4.2,0,0,1,.9,1.9,1.8,1.8,0,0,1-1.1,2.3,26.6,26.6,0,0,1-2.8.3Z"/><path class="cls-80" d="M57.7,169.1c.2.5.7,1.1.6,1.4a3,3,0,0,0,.3,3.3H56.7A7.7,7.7,0,0,1,57.7,169.1Z"/><path class="cls-48" d="M21,166.3c1.7.6,3,1.7,3,3.7A5.6,5.6,0,0,1,21,166.3Z"/><path class="cls-80" d="M53.9,173.9l-2.8-.2c-.2,0-.4-.4-.6-.6s.4-.5.5-.4,2.9-.2,3.8,1.2Z"/><path class="cls-78" d="M86.5,173.8v-.9a2,2,0,0,1,2.8,0h.1C88.6,174,87.5,173.9,86.5,173.8Z"/><path class="cls-80" d="M59.6,173.8c1.4-1.1,1.4-1.1,2.9,0Z"/><path class="cls-83" d="M34.7,145.2a6.3,6.3,0,0,1-6.7.8h0a2.9,2.9,0,0,1-1-1.2l-.2-1.2c-.3-1.4-.7-2.8.1-4.1l.2-.2a3,3,0,0,1,.8-.8c.9-1.8,2.2-1.5,3.7-.9s-.5,2.7-1.4,3.8a1.2,1.2,0,0,0-.1,1.3,4.2,4.2,0,0,0,1.6.4,4.2,4.2,0,0,0,1.2-.8c1-.9,2.2-2.1,3.4-.5S36.2,144.5,34.7,145.2Z"/><path class="cls-84" d="M20.1,140.6v-.4c.1-1.3.3-2.5.4-3.7a36.3,36.3,0,0,1,4.5-1c.4-.1,1.2.5,1.4,1s-.1,1.4-.4,1.5c-2.1.9-2.7,2.5-2.9,4.5a8.5,8.5,0,0,1-.3,2.3c-.1.3-.8.6-1.2.6s-1.1-.3-1.1-.6-.4-2.8-.6-4.2Z"/><path class="cls-84" d="M26.9,139.5c0,1.4-.1,2.7-.1,4.1C26,142.2,25.3,140.8,26.9,139.5Z"/><path class="cls-84" d="M27.9,138.5l-.8.8A6,6,0,0,1,27.9,138.5Z"/><path class="cls-48" d="M27,144.8l1,1.2Z"/><path class="cls-32" d="M12.5,136.7c-1.3-1.2-3.7.4-4.5-1.5s-.3-3-.4-4.5a1.5,1.5,0,0,1,.1-1.9h.2c.3-.3.5-.3.8.1s.1,2.1,0,3.2.5,3.5,2.9,3.7C11.9,135.7,12.2,136.3,12.5,136.7Z"/><path class="cls-32" d="M11.5,127.6l1.9.2c-1.1,1.5-2.6.8-4,.7v-.6l1.2-.3A.6.6,0,0,1,11.5,127.6Z"/><path class="cls-32" d="M14.7,130.8c-.2.9-.3,1.8-.5,2.7C13.2,131.9,13.2,131.8,14.7,130.8Z"/><path class="cls-85" d="M9.5,127.9a1.3,1.3,0,0,0-.1.6.5.5,0,0,0-.7.3H7.8A1.3,1.3,0,0,1,9.5,127.9Z"/><path class="cls-32" d="M11.5,138.2l1-1.1Z"/><path class="cls-86" d="M52.9,128.8h1.9c2.6,2.4,2.6,2.4,7.6,2.6.4,3.9-2.6,4.7-5.2,5.8H55.9l-1.9-.6a5.3,5.3,0,0,1-1.7-.8c-1.1-.6-1.9-1.4-3,.4a11.2,11.2,0,0,1-6.1,4.8,2.7,2.7,0,0,1-1.2-.6,39,39,0,0,1-1.7-4.8,10.4,10.4,0,0,1,5.2-3.8Z"/><path class="cls-86" d="M34.7,145.2l.4-.8c.6-.7,1.3-1.4.6-2.4s-1.6,0-2.4.2h-.4a9.8,9.8,0,0,1,5.5-5.1,23.1,23.1,0,0,1,3.9,3.1h0a1.5,1.5,0,0,1,.4,1.7,1.7,1.7,0,0,1-1,.6,4.5,4.5,0,0,0-3.1,1.1,3.4,3.4,0,0,1-.8.9,3.4,3.4,0,0,1-.8.9l-.5.4a1.7,1.7,0,0,1-1.8.1Z"/><path class="cls-87" d="M42.3,140.3c-3.1-.3-3.1-.3-3.9-3.1l1.9-1.8C42.2,136.5,43.3,138,42.3,140.3Z"/><path class="cls-88" d="M62.5,131.6a5,5,0,0,0-4.3,1.8,6.2,6.2,0,0,1-1.6,1,1.1,1.1,0,0,1-.9-.2c-.1-.1-.3-.6-.2-.7,1.2-1.9.4-3.3-.7-4.8a4.3,4.3,0,0,1,3.6-1.7,19.4,19.4,0,0,0,8.9-2.1c0,1.1-.2,2.2.9,2.9s.1.4.2.6-1.9,1.4-2.8,2S63.9,132.2,62.5,131.6Z"/><path class="cls-69" d="M65.3,76c.1-4.2,0-8.3.1-12.4a3.1,3.1,0,0,1,.5-1.2c.4.4,1.1.7,1.2,1.1a42.5,42.5,0,0,1,1.5,5.9c.1.9-.7,1.9-1.3,3.4l2.8-1.6v1.4c0,1.2-.3,2.1-1.6,2.4Z"/><path class="cls-69" d="M67.3,82.8a26.1,26.1,0,0,1,0-2.8,3.5,3.5,0,0,1,.8-1.6c0-.1.7.1.7.2s.8,1.6.6,2.1A3,3,0,0,1,67.3,82.8Z"/><path class="cls-69" d="M70.1,71.2V65.4c1.6.7,2.2,1.7,1.3,3.3S70.6,70.3,70.1,71.2Z"/><path class="cls-34" d="M69.2,92.3c-1.4-1-.5-1.9,0-2.8a1.1,1.1,0,0,1,1.1-.1c.3.2.6.9.4,1.2s-1,1.1-1.5,1.7Z"/><path class="cls-69" d="M64.4,76h.9c0,1,.2,2.2-1,2.8Z"/><path class="cls-89" d="M109.5,43.3c-1.2.6-2.1,1.3-1.4,2.9l1.4,3.9c-2.6,1.2-5.1.2-7.7-.1-1.2-2.2-2.8-2.9-5.4-2.3s-5,.7-7.2-.8a1.1,1.1,0,0,1,.4-1.2c3.9-1.9,7.8-3.9,12.3-3.9,2.2,3.8,3.9-.2,5.8-.5S109.8,41.8,109.5,43.3Z"/><path class="cls-89" d="M83.6,48.1c.2-.8.8-1.8-.8-1.9h-5l-2.7-1.9c-1.6-1-3-.9-4.2.6s-2.1,1.2-3.4.5a16.3,16.3,0,0,0-3.1-1.1h0a1.1,1.1,0,0,1-.1-1.2,3.4,3.4,0,0,1,1.2-.6c2.6.4,4.8-.8,7.1-1.7s3.7.7,5.5,1.4,4.6,2,7.4,1.1a2.9,2.9,0,0,1,3.8,2.9h0c-.6.5-.6,1.2-.9,1.9Z"/><path class="cls-90" d="M88.4,48.1c-.6-1.6-.6-1.6.9-1.9a9.5,9.5,0,0,0,2.1.9c1.9.3,3.7-1.1,5.6-.3h.4c.8-.7,1.7-2,2.8-1s1.1,2.2,1.6,3.3a3.3,3.3,0,0,1,0,1h-.9c-.6-.6-1.5-.4-2-.9C95.3,49.6,91.9,48.2,88.4,48.1Z"/><path class="cls-89" d="M111.4,50a2.8,2.8,0,0,0,.1.9l-2-.9Z"/><path class="cls-89" d="M98.9,49.1l2,.9Z"/><path class="cls-2" d="M175.6,121.8c-1.7.6-3.1-.4-4.6-.9s-4.3-1.9-6.8-1.8a13.4,13.4,0,0,0-1.8-.7,2,2,0,0,1-1.7-2c0-1.1-.2-2.2-.2-3.3V97.6c2.2-.9,4.4-1.7,6.6-2.7s1.5-1.6,1-3.2a1.4,1.4,0,0,0-2.3-.8c-1,.7-1.9,1.6-3,2.3a2.3,2.3,0,0,1-1.8.3,2.3,2.3,0,0,1-.5-1.6c-.1-1.1.1-2.2.1-3.3.2-5,.5-9.9.7-14.9a1.7,1.7,0,0,1,1.1-1.8l11.9-5.1c1.2-.5,1.9,0,1.9,1.3.1,5.2.2,10.5.1,15.8-.1,7.5-.4,15-.6,22.5C175.6,111.5,175.6,116.7,175.6,121.8Z"/><path class="cls-91" d="M145.1,81.8l-.3-.3c-1.7-4.1-1.6-5.3,3.2-5.5h6.1a2.9,2.9,0,0,0,2.5-1c.6-.2,1.3-.2,1.5.6a2.8,2.8,0,0,1,.1.9c-.5,5.5-1,11.1-1.6,16.6,0,1-.6,1.4-1.5,1.4s-3.5.2-4.6-1.6-.8-1.5-.2-2.5a11.7,11.7,0,0,0,1.4-3.5,4.1,4.1,0,0,0-1.6-4.2c-.7-.4-1.8-.1-2.3-.9S146,81.6,145.1,81.8Z"/><path class="cls-92" d="M181.4,118.4a6.4,6.4,0,0,1,.2.7c-.9.5-1,1.4-1.1,2.4s0,1.9-1,2.4c0-13,.1-26,.1-39,.1-4.9.1-9.8.1-14.7.3-.4.6-.4.8,0a26.2,26.2,0,0,1,.1,2.8,18.6,18.6,0,0,1,0,15.5v28a2.5,2.5,0,0,1,.1.8C180.4,118.1,180.9,118.3,181.4,118.4Z"/><path class="cls-93" d="M148.7,83.6a19.3,19.3,0,0,1,.3,3.3,2,2,0,0,1-1,1.4c-.5.3-1.4-.6-1.4-1.5s.3-2.2.5-3.3S148.2,83,148.7,83.6Z"/><path class="cls-94" d="M148.7,83.6h-1.6a13.4,13.4,0,0,1,.7-1.8c.9-.1,1.8-.2,2.3.9Z"/><path class="cls-95" d="M179.6,67.3l.9,1.9c-.3.4-.6.4-.8,0Z"/><path class="cls-28" d="M179.7,69.2h.8v1h-.8Z"/><path class="cls-96" d="M76.8,159.5c-.9.5-.8,1.5-1,2.4s-.3,2.2-2.8,1.4l-5.7-4c1.7-3.5,5.2-3.3,8.1-3.5s4.9-2.4,4.6-5.8c-.9,2.5-.9,5.6-4.7,5.6s-5.2-1.6-7.1-4-3.9-1.7-4-4.2a2,2,0,0,1,.5-1.9,5.1,5.1,0,0,1,1.8-.9l1.2.2c2.2,1.4,4.3.8,6.4-.3s5.2,3.7,8,.4c1.2-.7,1.4-2,2.1-3a5.2,5.2,0,0,1,1.6-1.7c2.5-1.6,1.2,4.9,4.2,1.9s2.6,1.8,4.2,1.9.3-1.3.3-1.9a2.8,2.8,0,0,1,.2-1.8c.5-.8,1.1-1.3,2.1-.9a22.2,22.2,0,0,0,.3,3.7,5.2,5.2,0,0,0,1.1,1.9c2.4,0,4.9.7,7-1.1a1.7,1.7,0,0,1,1.2-.1l.9.6c.4.5.8,1.2,1.6,1.1H111l.8.6a3.3,3.3,0,0,0,.6,1h0c1.5,2.5-.1,3.3-2.2,4.1.5.6,1.3.3,2,.3s2.8-1.6,3.8.2-.6,2.9-1.9,3.7-3.3,3-5.6,3.5-4.1,1.2-6.2.3c-.3-.2-.7-.5-.6-.7,3-4,.6-5.4-2.7-7.7s-4.1,1-5.5,2-.4,2.7,1.1,3.6,2.7,1.3,2.4,3.1a38.2,38.2,0,0,0-8.3,5.4H87.4C85.4,159.8,80.4,161.2,76.8,159.5Z"/><path class="cls-97" d="M96.8,139.4l-1.9.9a2.2,2.2,0,0,1-1.4-.3c-7.2-2.8-9.6-1.7-11.5,5.2-4.4.7-5,0-4.6-5.2-1.5.3-1.6,2.4-3.2,2.5s-5.1-1.3-4.2-5.2c-1.9,1.4-1.4,3.3-2,4.9a7.2,7.2,0,0,1-1.7,2.9l-1.1.9c-1.6-3.2-.8-7.5-4.7-9.6,2.2-4.5,7.7-7.3,12.1-6a34.2,34.2,0,0,1,5.4,1.8c4.1,1.3,8.2-.2,12.2-.3s5,.4,6.7,2.7C96.8,136.2,96.8,137.8,96.8,139.4Z"/><path class="cls-98" d="M105.6,144.1c-3.1,3.2-3.3,3.2-7.4.9-.1-5.2-.3-10.5-.4-15.7,0-1.2.9-1.4,1.9-1.4l.6.4c1,1.5.6,3.4,1.2,5s.4,2,.7,2.9.9,1,1.6,1.3l1.1.4a4.9,4.9,0,0,1,1.2,1.3,7.2,7.2,0,0,1,.9,2,2,2,0,0,1,0,1.1A3.6,3.6,0,0,1,105.6,144.1Z"/><path class="cls-99" d="M100.8,137.4v-3.3c-1-2,.3-4.4-1-6.3h-.1a9.3,9.3,0,0,1,2-1c1-.3,2.1-.4,3.1-.8s2.2-.5,3.1.6-.3,1.9-1,2.6l-.2.4v.7a12.7,12.7,0,0,1,.1,2,6.6,6.6,0,0,1,.1,1.4c-.3,1.8.6,4.2-2.3,4.8h0C103.7,137.1,101.9,138.5,100.8,137.4Z"/><path class="cls-100" d="M96.9,134.6c-1,.4-1.9.6-2.5-.5a13.8,13.8,0,0,0-.8-2c-1.5,1.1-3.1,1.9-4.9,1.4s-5.9-.2-8.8.8a1.7,1.7,0,0,1-2.1-.8,3.9,3.9,0,0,0,.8-1c1.8-3.5,5.2-1.2,7.6-2.1a.9.9,0,0,1,1.2.3c2.8-3.2,3.2-3.5,6.5-1.1,1.8,1.3,2.1-.2,3-.7Z"/><path class="cls-101" d="M114.3,137.5c.3.9.7,1.8,1.1,2.8.1,2.8,2.6,1.7,4,2.4s1.1.6.8,1.4c-2.2,2.6-5.1,2.1-7.9,1.9-.3.4-.6.3-.6-.2h-.1a2.3,2.3,0,0,1-2-2,4,4,0,0,1,.8-3.6C111.4,138.9,112.4,137.7,114.3,137.5Z"/><path class="cls-102" d="M105.7,132.1h0a9.9,9.9,0,0,1,.9-2.4h.1c.7.1,1.7,0,1.8,1,.4,3.2.8,6.3,1.1,9.5.6,1.1.3,2.4.4,3.7s.1,1.5-.7,1.9h0c-1.4,1.5-1.9.1-2.6-.9a1.4,1.4,0,0,0,0-.9,1.1,1.1,0,0,1-.1-1.8v-1a4.4,4.4,0,0,1-.5-2.2C106,136.7,106.5,134.3,105.7,132.1Z"/><path class="cls-103" d="M109.6,144.2v-4h.8v3.9C110.2,144.6,109.9,144.6,109.6,144.2Z"/><path class="cls-77" d="M86.5,130.7a8,8,0,0,1-2.5,1.1c-2.4.4-4.3.9-5.2,1.7-.7-1-1.6-1.8-1.6-3.2a2.4,2.4,0,0,1,.6-1.1c1-1.3,2.7-.5,3.9-1.4h.9C84.3,128.2,85.2,129.7,86.5,130.7Z"/><path class="cls-77" d="M73,126.8l3.9,1c.5.5,1.5.8.9,1.9h0c-3.1,3.5-3.8,3.3-6.1-1.4C71.7,127.5,72.5,127.3,73,126.8Z"/><path class="cls-13" d="M86.5,130.7c-1.9-.2-2.6-1.9-3.9-2.9.8.1,1.9-.1,2.3.4s1.7-.1,2.5-.4v2.9Z"/><path class="cls-13" d="M77.8,129.7l-.9-1.9h4.8Z"/><path class="cls-88" d="M73,126.8l-.9,1a4.2,4.2,0,0,1-1.2.8,2.7,2.7,0,0,1-2.7-.8h0C69.6,126.2,71.4,127.1,73,126.8Z"/><path class="cls-13" d="M88.4,126.8l-1,1Z"/><path class="cls-2" d="M58.5,117.1c-2.6-1.5-5.6-2.1-8.5-2.9s-3-.9-3.1-3.9c-.2-12.3-.4-24.6-.7-36.8a49.9,49.9,0,0,0-.6-7.7A2.4,2.4,0,0,1,46.8,63l11.3-7.1c.8-.4,1.8-1,2.6-.8s.6,1.6.6,2.4c.5,10.4-.3,20.8-1.1,31.1s-.6,17.9-.5,26.8C60.1,116.5,60.3,117.5,58.5,117.1Z"/><path class="cls-104" d="M22.2,82.7a73,73,0,0,1-2-15.4c3.1.1,6.6-1.3,9,2.1-.3.7-.3,1.8-1.5.8a4.3,4.3,0,0,0-1-.9c-.9-.5-2.2.1-2.2,1a9.2,9.2,0,0,0,.2,3.7c2.6,7.7,2.6,7.7,8.1,14.1,0,1.4,1.3,2.5.6,4s-.6,1.5.6,1.1c3.8-1.3,2.6,1.9,3.2,3.5s-.1,4.7.6,7.1-.9,3.8-3.5,2.3-2.1-1.6-3.3.5-3.9,2.2-4.8-.9a37.3,37.3,0,0,0-1.6-3.5,15.5,15.5,0,0,1-1-6C24,91.6,23.1,87.1,22.2,82.7Z"/><path class="cls-105" d="M25,102.8c2.1.3,2.1.3,2.1,2s-.6,2,.9,2.3l1.8.2a5,5,0,0,0,.1-1.7c-.1-1.5,1.1-1.9,2-2.3s1.1.1,1.2.2,1.4,1.1,2,1.7.9,1.1,1.5.3,1.1-1.8.3-2.1-1.1-1.6-.5-2.8a6.7,6.7,0,0,0-.1-2.8c-.2-1.4-.5-2.7-.8-4.2l-1,.8c-1.2,1.2-1.7,1.3-2.7.7s-.6-1.7-.2-2.5a15.8,15.8,0,0,0,1.2-1.5c.1-.1-.2-.6-.4-.6s-.8-1-.1-1.6a1.4,1.4,0,0,0,.5-.8,16.6,16.6,0,0,1,7.5,7.3c.7.3.4,1.3,1.2,1.5h0c2,4.6,1.1,9.6,1.2,14.4,0,1.9-1.6,1.5-2.9,1.6-3.9.2-7.9-.5-11.8.4l-1.8.2c-1.1,0-1.4-.7-1.3-1.7-.7-2.7-.2-5.5-.3-8.3A1.6,1.6,0,0,0,25,102.8Z"/><path class="cls-106" d="M29.2,69.4c-1.2-.6-2.5-1.6-3.9-1s-3.5-.4-5.1-1.1-1.1-2.2.3-3.6a180.2,180.2,0,0,1,19.4.5,4,4,0,0,1,3.3,2.2c.9,1.2.4,2.7.5,4.1s-.2.7-.4.7c-3.4-1.4-3.4-1.5-5.3,2.5s-1.4,7.1-.4,10.8a2.7,2.7,0,0,1-2.3,1.2c-4.5-3.3-5.8-7.3-4.3-12.3a20.2,20.2,0,0,0,.7-2.3C31.9,69.8,31.3,69.4,29.2,69.4Z"/><path class="cls-107" d="M43.1,71.1c.1-1.6.1-3.1.1-4.7a6.2,6.2,0,0,1,1,2c.1,4.5-.1,9,.1,13.4.1,1.9-1.3,2.8-2.2,4a2.5,2.5,0,0,1-1.2.1,8,8,0,0,1-3-.9l-.4-.5-.5-.8c-3.6-4.6-3.5-6.3.6-10.5C38.9,71.2,41.7,72.9,43.1,71.1Z"/><path class="cls-108" d="M28,113.3a12.5,12.5,0,0,1,2.5-.9h8.6c2.9,0,3.2-.2,3.1-3.3s.3-5-.4-7.5.4-3.1-.3-4.6l1.5.3.3,14.3c0,1.4-.4,1.7-1.6,1.7Z"/><path class="cls-109" d="M39.5,89.8a13.7,13.7,0,0,1,2.8-1c.2-.1.9.4.9.6s-.1,2.5-.2,4.1C41.3,92.6,40.6,91.2,39.5,89.8Z"/><path class="cls-110" d="M41.3,85.5l.8.3a2.3,2.3,0,0,1-2.6,1.5l-3-.9c-.3-.2-.5-.7-1.1-.6h-.1l2.2-1.2h.1C38.6,85.7,40.2,84.5,41.3,85.5Z"/><path class="cls-111" d="M58.5,117.1c1.1-.1.9-1.1,1.2-1.7s.6.5.6.7a8.8,8.8,0,0,1-.2,1.7Z"/><path class="cls-108" d="M41.5,96.9c-.9-.1-1.1-.7-1.2-1.5Z"/><path class="cls-106" d="M35.4,85.8l1.1.6Z"/><path class="cls-105" d="M22.2,82.7c1.1.7.6,2.1,1,3,1.4,2.6,1,5.5.8,8.2s.7,5.9,1,8.9h0c-.3.5-.6.5-1,0s-.3-1.2-.4-1.8C23.1,94.9,22.7,88.8,22.2,82.7Z"/><path class="cls-112" d="M24,102.8h1c0,3-.1,6-.1,9A24.7,24.7,0,0,1,24,102.8Z"/><path class="cls-113" d="M109.5,43.3l-1.9-1.9c-.1-.2-.1-.4-.2-.6,1.2-3.4,4-1.1,6-1.8l1.2-.3a19,19,0,0,1,2.5-.3h1.1a10.2,10.2,0,0,0,3.5-.3,2,2,0,0,1,1.1,0c.4-.1.8,1.1,1.2.1a2.4,2.4,0,0,1,1.1-.6c3.7-.1,7.4-1.6,11.1-.3l.6.2.6.4a3.9,3.9,0,0,1,1,.8l.9.9c2,1.8,4.1.3,6.2.1l1.2-.2c3.2-2.7,8-2.5,10.8-5.9a2.1,2.1,0,0,1,1.8.8,6.9,6.9,0,0,1,.5,1.3,2.2,2.2,0,0,0-.1.8c-1.3,1.8-1.9,4-3.5,5.5s-3.1,2.9-5.4,1.3a11.3,11.3,0,0,0-2.2.8c-2.1,1.4-4.2,2.3-6.7,1.3a6.3,6.3,0,0,0-2.4-.2,3.4,3.4,0,0,1-2.9-1.4,4,4,0,0,0-1.3-1.3c-2.7-1.8-2.8-1.9-5.3.1-1,.7-1.7,1.3-2.9.3s-1.4.2-2.2.2a4.8,4.8,0,0,1-1.7-.5c-1.6-.7-1.6-.7-2.1.8s-.6,1.4-1.6.8-1.4-.7-1.8-.5c-2.2,1.1-3.2,0-4-1.8-.1-.3-.8-.2-1.3-.2a3.7,3.7,0,0,0,.1,1.1c0,.3.3.6.4.9s0,1.5-.8,2a1.4,1.4,0,0,1-2-.6A5.5,5.5,0,0,1,109.5,43.3Z"/><path class="cls-114" d="M150.8,43.3c2.7-.4,5.1-1.4,5.7-4.3s2.2-2.2,3.1-3.5,4-.3,6-.3a2.1,2.1,0,0,1,1.2,2.3,2.9,2.9,0,0,1-3,2.5c-2,.2-3.8.7-4.6,2.8a3.9,3.9,0,0,1-.8,1c-1.2,2.5-4.2.7-5.7,2.4h0a.9.9,0,0,1-1,0h0Z"/><path class="cls-115" d="M171.9,21.2c.3-.4.4-1.3.8-1.3s1.1-.7,1.1-1.5a5,5,0,0,1,2.1.9c.7.5.8,1.3-.3,1.8s-1,.4-1,.7.6.8,1.2.9a25.2,25.2,0,0,1,3.7.8,29.8,29.8,0,0,0-2.4,2.2c-.7.8-.2,1.7,1,1.9s.6-.1.9-.1,1.6,1.4.8,2.5-1,.8-1.6,1.4l4.3,2.1-3.1.8a12.7,12.7,0,0,0-2.7,1.8,22.3,22.3,0,0,0-1.9,2.4V36.6a3.5,3.5,0,0,1-1.1-4.7,3.6,3.6,0,0,0,.1-3.6C172.9,26,171.6,23.8,171.9,21.2Z"/><path class="cls-13" d="M174.8,27.9c1.2,1,1.4,2.5.5,3.4s-.9,3.5-.5,5.3a8.8,8.8,0,0,0-6,1.5l1.3.7a1.3,1.3,0,0,1,.5,2c-.4.6-1.3,1.3-1.9,1.2a55.2,55.2,0,0,1-5.4-1.6l-.4-.4a1,1,0,0,1,.4-.5,2.8,2.8,0,0,0,2.8-2C169.3,34.6,172.9,32,174.8,27.9Z"/><path class="cls-13" d="M161.3,41.4l-1.9,1.9-.4-.6c0-1.2.6-1.8,1.8-1.7A1,1,0,0,1,161.3,41.4Z"/><path class="cls-53" d="M181.5,40.4c-.2.3-.3.6-.6.7l-.6-.3.3-.3Z"/><path class="cls-13" d="M163.3,40.4l-2,1h0c0-1.7.9-1.6,2-1Z"/><path class="cls-13" d="M159.4,44.3h-.9c-.3-.2-.4-.4-.3-.7l.3-.3h0q.5-.6.9,0h0Z"/><path class="cls-116" d="M118,51c-.2.1-.5,0-.8,0,2-.9,3.9-1.9,5.9-2.7a3.4,3.4,0,0,1,2.2.2,2.6,2.6,0,0,1,1.1,1.4,1.9,1.9,0,0,1-.8,1.1,9.1,9.1,0,0,1-1.7.9C122.2,50.3,120,51.2,118,51Z"/><path class="cls-22" d="M158.5,43.3v1.9c-1.7,1.9-3.8,1.1-5.8,1,.1-1,.5-2.1,1.6-1.7S157.2,44,158.5,43.3Z"/><path class="cls-22" d="M151.7,46.2h1C152.4,46.9,152.1,46.9,151.7,46.2Z"/><path class="cls-95" d="M180.6,88.5V73c1.5-1.2.5-3,1.1-4.4s.4-.7.5-.7,1,.4,1,.7a9.7,9.7,0,0,1,.2,2.4c.2,2.1.2,4.3,2.4,5.6a1.1,1.1,0,0,1,.3,1.2c-.5,1.3-.4,2.7-1.1,4.1s-2.3,5.1-.9,8.1c.6,1.3-.2,2.4-1,3.4a.8.8,0,0,1-.8.2,1,1,0,0,1-.4-.7,7.4,7.4,0,0,1,.4-1.4A2.5,2.5,0,0,0,180.6,88.5Z"/><path class="cls-95" d="M183.5,99.4l-1.2,1c-.2-.4-.7-.7-.7-1.1a11.5,11.5,0,0,1,.6-1.7s.7.1.8.3A6.4,6.4,0,0,1,183.5,99.4Z"/><path class="cls-28" d="M182.5,105.7l-.4-.2.4.2Z"/><path class="cls-92" d="M183.4,116.2h-1.9C182.1,115.3,182.8,115.3,183.4,116.2Z"/><path class="cls-85" d="M9.7,125.8c-.7,1.1-1.8,1.2-3,1a1.9,1.9,0,0,1,.2-.8Z"/><path class="cls-85" d="M6.7,126.8l-.8,1C5.8,127.2,6,126.8,6.7,126.8Z"/><path class="cls-85" d="M12.9,125.7H10.3a2.5,2.5,0,0,1,.4-.7h1.8A2.5,2.5,0,0,1,12.9,125.7Z"/><path class="cls-85" d="M7.7,128.8v1.9C6.9,130,6.6,129.4,7.7,128.8Z"/><path class="cls-85" d="M11.5,127.6h0Z"/><path class="cls-117" d="M158.4,142.1q-.9,1.7-1.8,0A1.5,1.5,0,0,1,158.4,142.1Z"/><path class="cls-118" d="M158.4,142.1h-1.8C157.2,141,157.7,141.1,158.4,142.1Z"/><path class="cls-119" d="M102,158.9l6.4-1.2c1.4.7,2.7.2,4.1-.2,4.6-1.1,6.1-.3,8.5,4.2a3.8,3.8,0,0,1-.9,3.5l-1.9,1a1.9,1.9,0,0,1-1.6-1.1c-2.4-4-2.8-.4-3.7.9a2.4,2.4,0,0,1-2.4.9,2.1,2.1,0,0,1-1.1-.4,7.7,7.7,0,0,1-1.2-2.6,5.6,5.6,0,0,1-.5-.8.9.9,0,0,0-.7-.3.8.8,0,0,0-.6.4,5.6,5.6,0,0,0-.5.8,6.9,6.9,0,0,1-.5,1.3,2.7,2.7,0,0,1-.8.7,2.9,2.9,0,0,1-2.7.2c-.2-.2-.4-.3-.5-.5a4.6,4.6,0,0,1-.6-2.5,7.4,7.4,0,0,1,0-2.1A2.4,2.4,0,0,1,102,158.9Z"/><path class="cls-120" d="M124,158.6c2.4-.3,4.8-.2,6.5,1.9,0,2-1.5,2.9-2.9,4,.5,1.1,1.4.7,2.1.7a19.3,19.3,0,0,0,2.4-.1c2,0,2.3.3,2.3,3-3.5,2.3-7,2.4-10.5,0l-2-2a4.5,4.5,0,0,1-.7-5.2,2.4,2.4,0,0,1,.6-1.1A2.9,2.9,0,0,1,124,158.6Z"/><path class="cls-78" d="M117.2,165.1a5.2,5.2,0,0,0,1,1.1c1.8,1.3,2.2,2.8,1,4.8l-1.1,1.9-1.8-.2c-.9-.1-1.3-1.8-2.3-1.1s-1.1,1.5-1.6,2.3h0a3.4,3.4,0,0,1-.8-.9l-3.3-2.7C111.8,169.3,115.3,168.6,117.2,165.1Z"/><path class="cls-121" d="M123.9,168.1c3.5,1.2,7,1.6,10.5,0l1,1c-1.4,1.7-3.6.4-5.2,1.6-2.1-.9-3.5.3-4.9,1.5a1.6,1.6,0,0,1-.9.3,1.1,1.1,0,0,1-.8-.1.8.8,0,0,1-.1-.8C124.7,170.5,123.8,169.2,123.9,168.1Z"/><path class="cls-122" d="M122,160.5a7.7,7.7,0,0,0-.1,5.6l-1.8-.9v-3.8C120.5,160.6,121,159.9,122,160.5Z"/><path class="cls-123" d="M117.2,165.1c-.1,2.6-.6,4.8-4,4.6a1.2,1.2,0,0,0-.7.5c-.3,1.4-.9,1.2-2,.5a11.9,11.9,0,0,0-2.2-.5h-.4l-2.2,1.6-1-.9h0l-1-1h0l.9-4a.8.8,0,0,1,.2-.8c.5-.6.4-1.5.7-2.2a.5.5,0,0,1,.4-.6,1.1,1.1,0,0,1,1-.5,2.2,2.2,0,0,1,1.7.5h.2v.3c.4,1.1,0,2.4.8,3.4h0c1,.6,2,.9,2.8-.3s0-2.8,1.2-3.8,1.6-1.1,2.5-.6a3.8,3.8,0,0,1,1.2,1.8A5.4,5.4,0,0,1,117.2,165.1Z"/><path class="cls-45" d="M111.6,172.9l.8.9Z"/><path class="cls-124" d="M122,160.5l-1.9.9a12.8,12.8,0,0,0-1.7-2.2c-1.4-1.3-3.2-1.8-4.7-.7s-3.7.6-5.3-.8c.6-.2,1.4-.2,1.8-.6s2.8-2.4,4.4-3.3.7-1,1-1.5,0-.4-.1-.4l-.8-.5c-.1-.1-.3,0-.4.1s-1.9,1.9-2.6,1.7-2.4-1.3-3.9-2.3a18,18,0,0,1,2.4-1c2-.1,2.2-1.4,2.2-2.9l2.8.2c3.6,3.7,7.4,7.3,6.8,13.1Z"/><path class="cls-125" d="M122,160.3c-.5-1.1-2.3-2.1-.8-3.7.1-.1-.4-.9-.7-.9s-2.1-.5-2-2.3-1-2.3-1.6-3.4a26.1,26.1,0,0,1-1.7-2.8c2.3-.7,4.3.6,6.4.9.5.1.9.8,1.4,1.1s.6,3.4,1.6,4.6-.4,3.2-.6,4.8Z"/><path class="cls-126" d="M120.2,144.1l-1.4-1.2a.7.7,0,0,1,.3-.8l1.8.3A12.2,12.2,0,0,1,120.2,144.1Z"/><path class="cls-124" d="M111.7,145.8a.5.5,0,0,1,.6.2,3.1,3.1,0,0,1,.1,1Z"/><path class="cls-127" d="M119.1,142.1a1.3,1.3,0,0,0-.3.8c-1.4.2-2.7.5-4.1.6a.8.8,0,0,1-.6-1.3c.4-.7.9-1.3,1.3-1.9s2.6,0,3.7.9Z"/><path class="cls-128" d="M165.2,35.6c-1.9,1.5-3.8.9-5.6-.1h-.1a1.8,1.8,0,0,1-.9-1l-.9-.9h-.5l-.9-1-.5-.6c-.5.3-.3.8-.5,1.2a3.6,3.6,0,0,1-.7,1,3.3,3.3,0,0,1-2.4.2,3,3,0,0,1-1-.7,6.5,6.5,0,0,1-1.1-2.2,7.8,7.8,0,0,1-.4-2.6,5.3,5.3,0,0,1-.1-1.3,13.8,13.8,0,0,0-.5-4.5,4.1,4.1,0,0,1,.1-2.2c1.5-2.8,3.2-2.4,5.1-.3s4.5,6.2,7.5,9.6a42.9,42.9,0,0,0,.2-7.9c.2-2-.5-4.2,1.6-5.7s2.3-.9,2.9,1.1a8.4,8.4,0,0,0,.5,1.7,11.3,11.3,0,0,1,1,1.3,28.7,28.7,0,0,1,.1,9.7C167.3,32.2,167.5,34.6,165.2,35.6Z"/><path class="cls-129" d="M163.6,16.5l-.5,6.6c-.8.2-1.2-.3-1.6-.9-2.5-3.8-6.3-5.5-10.7-5.8-1.4-.1-2.8.6-4.2.5s-1.6-1.2-2.6-1a4.5,4.5,0,0,1-2.8-.9,3.9,3.9,0,0,1-1-.8c-1.7-2.4-4.7-1.7-7-2.7a1.6,1.6,0,0,1,.3-1.8l9,.2a3.5,3.5,0,0,0,1.7-.4,1.2,1.2,0,0,1,1.9.5c.6,1.1,1.3,2.1,2.1,3.4a12.1,12.1,0,0,1,2.3-1.9,8.3,8.3,0,0,1,2.2.1c.1,1,.5,1.8,1.7,1.9h6Z"/><path class="cls-130" d="M167.1,20.3v-1c1.9-.2,3.7.1,4.9,1.9s1.6,4.7,2.9,6.7-2.2,4.7-3.2,7.1c-2.2.2-3.6,1.9-5.5,2.5l-.9-1.9,1.8-5c1,.8,1.9,1.8,3.2.5a2.6,2.6,0,0,0,.7-2.9A52.3,52.3,0,0,0,167.1,20.3Z"/><path class="cls-131" d="M103.7,5.9c-3.7-1.1-7.8-.4-11.3-2.2,0-.3-.1-.5,0-.5l.4-.2h11.9l.6.6c2.2,1.1,2.2,1.1.6,2.8l-.2.3h0C104.5,7.5,104.3,6.4,103.7,5.9Z"/><path class="cls-132" d="M35.5,17.4c.3-1.9.6-2,2.9-2.1a3.5,3.5,0,0,1,1.3-.5,16,16,0,0,1,2.3.3c1.7.3,3.9.5,4,2.5s-2.2,1.7-3.6,2-3.4.6-1.7,2.9c3.5,1.5,4,3.2.5,5.5-1.9,1.2-2.3,2.9-.2,4.5h2.5a5.5,5.5,0,0,1,2.8.7c2.6,4.3-1.5,4-3.5,5.1s-6.2,1.7-8.4-1.8l-.6-1.3a9.1,9.1,0,0,1-.3-2.3,16.4,16.4,0,0,1,.4-3.8C35.1,25.4,33,21,35.5,17.4Z"/><path class="cls-133" d="M22.2,29.9c-1.8-.6-1.8-.6-2-2.9h0c.7-2.1-.7-5.2,2.9-5.8,1.8-1.2.4-2.9.7-4.4h1c.7.3,1.5.8,1.6-.6s.7-1.6,1.6-.9,2.1.9,3.3-.2,2.1,0,3.3,2.3c-2.5,1.4-5.6,2.1-7.1,5.1S25.5,28.6,22.2,29.9Z"/><path class="cls-134" d="M26.9,22.2A3.9,3.9,0,0,1,28.8,19a18.8,18.8,0,0,1,3.6-2.1c.6-.2,1.5.3,2.2.5h.9c-.1,4.3.5,8.6-.7,12.8-1-.6-1.1-1.5-1.3-2.5a7.4,7.4,0,0,1,0-2.1,12.1,12.1,0,0,1,0-1.9V22.5a8.6,8.6,0,0,0,.1-1.6,1.9,1.9,0,0,0-.1-.8.5.5,0,0,0-.6-.3l-.8.3-1,.8-.7.7a3.9,3.9,0,0,0-1.1,1.7,2.3,2.3,0,0,0,.4,1.6l.8.9.3.5a5,5,0,0,1,.4,1.3c-.9,2.3-1.9,4.4-4.5,5.3C24.2,29.3,25.1,25.7,26.9,22.2Z"/><path class="cls-70" d="M23.1,21.2c-.8,1.1-2.1,1.7-1.5,3.5s-.9,1.5-1.4,2.3c-.5-1.4-2.1-2.2-1.9-3.8l.8-.5c.5-.7.8-1.9,1.3-2.1S22.2,21,23.1,21.2Z"/><path class="cls-133" d="M35.6,10.7l2.9-1c-.7,1.6-1.3,3.1-1.9,4.7a5.3,5.3,0,0,1-1.8-.1.9.9,0,0,1-.5-1.4A25.3,25.3,0,0,0,35.6,10.7Z"/><path class="cls-58" d="M39.4,15.4h-1a2.2,2.2,0,0,0,.1-.8h0c.4-.3.7-.4,1.1-.1A.8.8,0,0,1,39.4,15.4Z"/><path class="cls-135" d="M39.4,14.5h-.9c.9-1.3,2.3-1.5,3.7-2s5.8-1.6,7.2-4.8c.3-.8,1.8-1.1,2.8-1.4s1.8.3,2.4,1.1a2.3,2.3,0,0,0,1.1.7c1.6-.2,1.9.7,2,2a6,6,0,0,0,.9,1.5h1.9c2.4,1.3,3.3-.9,4.7-1.9s2-1.7,2.8.2a4.5,4.5,0,0,1,0,2.8c-.7,1.7-2.4,2.4-3.8,3.3-4.1.7-7.7-1.1-11.4-2.2-2.1-.5-4.1-1.1-5.9.4S42,16,39.4,14.5Z"/><path class="cls-56" d="M49.1,3.9,47.3,5.3a1.7,1.7,0,0,1-2.1-.1.8.8,0,0,1-.2-.4c.2-1.2,1.1-.7,1.8-.8Z"/><path class="cls-136" d="M133.5,9.7v1.9c1,2.2-.3,2.6-1.9,2.2s-3.2-1.2-4.9-.4-1.5,3-2.7,4.2-1.6-.6-2-1.4-4.1-3.2-6.9-1.9a4.1,4.1,0,0,1-1.1.7,2.3,2.3,0,0,1-1.8-.2,19.8,19.8,0,0,0-3.1-1.9A29.3,29.3,0,0,0,95,12.7c-6.7,1.7-12.2-.2-18.2-1.7a2,2,0,0,1-.2-1.3,28.9,28.9,0,0,1,9.9-2.9c1.9.4,3.8,1.1,6,.2a6.1,6.1,0,0,1,5.5.8c2.5,2.1,5.1-.6,7.7,0a38.9,38.9,0,0,1,4.4,1.6c.5.2.9.9,1.6.4s3-.1,4.4.5,1.5,1.5,2.5,1,2.4,1.6,3.9.9,1.7-2.5,3.5-2c1.7-1.9,3.6-1.5,5.6-.7A4.1,4.1,0,0,0,133.5,9.7Z"/><path class="cls-137" d="M67.3,9.7c-.6-.4-.9-.2-1,.4-.4,2.1-2.5,1.5-3.7,2.3s-1.5-.1-2.1-.8a7.7,7.7,0,0,0,2.4-1.2,6.8,6.8,0,0,0,1.4-2.5c1.2-2,1.5-2,3.3-.4a1.7,1.7,0,0,0,2.1.3,54.4,54.4,0,0,1,5.2-1.9h0l1,.9V8.7c.3.3.4.5.3.8s-.1.4-.2.4-2.6-.3-3.6.7S68.7,11.2,67.3,9.7Z"/><path class="cls-60" d="M75.9,9.7v-1c.6-.1,1.4-.1,1.7-.5,2-2.5,5-2.3,7.6-2.9,1-.3,1.1.8,1.3,1.5a12.7,12.7,0,0,0-2.7,1.8,2.8,2.8,0,0,1-2.5.6,22.8,22.8,0,0,0-4.4.5C76.5,10,76.2,10,75.9,9.7Z"/><path class="cls-73" d="M105.7,7.8c-1.1,1.3-2.8,1.4-4.3,1.8A2.8,2.8,0,0,1,98,7.8l5.7-1a7.5,7.5,0,0,1,2,1Z"/><path class="cls-8" d="M105.7,7.8l-2-1V5.9l2,.9Z"/><path class="cls-60" d="M75.9,6.8l-1-.9Z"/><path class="cls-138" d="M64.4,43.3v1c-1.3,0-2.6.1-3.9,0s-4.1,0-5.5,1.1-4.8.7-7.2,1.1c-1.5-1.6-2.8-.6-4.1.3a2.2,2.2,0,0,1-1.4.3h0a5.8,5.8,0,0,0-5,0c-1.8.7-3,.4-3.8-1.4l-.7-1.1a8.6,8.6,0,0,1-.7-1,1,1,0,0,1-.4-.5,12.9,12.9,0,0,1-2.3-4.7,2.1,2.1,0,0,1,.5-1.2,3.5,3.5,0,0,1,3.3-.3,2.8,2.8,0,0,1,1.1.8c1.6,4.6,5,6,9.6,5.2l1.2-.4a10.2,10.2,0,0,1,2.5-.6,3.3,3.3,0,0,1,1.3.4c3.7-1.2,7.4-.2,11.1-.1C61.5,42.2,63.2,41.9,64.4,43.3Z"/><path class="cls-63" d="M33.7,44.3l1,1.5c.3.9,1,1.4,1.7.8,2.3-2,4.1-.7,5.9.5A43.4,43.4,0,0,0,33,49.3c0,.1-.2-.1-.3-.2a4.7,4.7,0,0,0-1-1C30.7,46,31.2,44.6,33.7,44.3Z"/><path class="cls-139" d="M26.9,22.2c-.2,2.2-1.2,4.4-.2,6.8.3.5-.3,1.4-.4,2.2s.4,1,.6,1.6h.7l1.1.8a3.2,3.2,0,0,1,.4,3.8c-2,2.7-3,.5-4.1-.9s-2.1-1.2-1.8-2.6.5-3-1-4.1l2-4.1C24.9,24.4,25.3,22.9,26.9,22.2Z"/><path class="cls-63" d="M25,36.6c1.3.5,2.2,2.2,3.9.9l.4.2a5.6,5.6,0,0,0,.5.8l2.9,4.8c-3.1,1.2-4.9-1-6.7-2.9h0C25.7,39.2,25.3,37.9,25,36.6Z"/><path class="cls-70" d="M26,40.4l6.7,2.9h0a9.4,9.4,0,0,0,1,1h0c-1,1.1-2.3,2-2,3.8-.7-.1-1.1-2.4-2.3-.3a1.4,1.4,0,0,1-1.5.5,1.3,1.3,0,0,1-.5-1.9l.3-.4c1.1-1.1.6-2-.4-2.8s-1.2-.6-1.4-1.1S25.9,41,26,40.4Z"/><path class="cls-8" d="M159.4,12.6l-.9-1Z"/><path class="cls-140" d="M53.8,158.6l-2.1,1.1a4.2,4.2,0,0,1-.9,1.4,5.9,5.9,0,0,0-1.1,1.9,3.6,3.6,0,0,1-.7,1,2.4,2.4,0,0,1-1.1.6l-.6-.2c-1.5-1-1-2.8-1.8-4.1H45l-.4.3c-.5,1.1-.2,2.3-.8,3.4l-.4.5H42.3a4,4,0,0,1-1.6-2,6.1,6.1,0,0,1-.4-2.4,6.5,6.5,0,0,0-.5-2.7,17.4,17.4,0,0,0-1.1-1.8,13.7,13.7,0,0,1-1.6-1.8,2.5,2.5,0,0,1-.1-1.2c3.3-2.5,4.6-6.8,8.2-9,1.3-.9,2.5-2,4.2-.8s3.1,2.2,2.6,4.5-2.2.5-3.2,1-1.8,1.3-.7,2.2,3.6,6.5,8.3,4.1c1,.4,1,1.2,1,2.1a2.5,2.5,0,0,1-.4,1.2,6.5,6.5,0,0,1-1.5,1l-.6.2A1.1,1.1,0,0,1,53.8,158.6Z"/><path class="cls-141" d="M41.2,159.7l.2,2.6a6.6,6.6,0,0,1,0,4.8c-1.7,2.4-4.3,3.1-6.9,3.6a5.4,5.4,0,0,1-3.1-1c-1.1-.8-.8-2.2-.7-3.5a1.3,1.3,0,0,1,.1-.6,3.3,3.3,0,0,1,.5-1.2c1.1-1.5,3-1.7,4.4-2.6s1.5-1.2.9-2.3-1.1-.3-1.7-.1l-2,1-.8.5-1,.4h-.5c-1.7-.1-1.7-.1-1.9-1.8a3.5,3.5,0,0,1,.8-1.6,15.1,15.1,0,0,1,4.9-3.8c1-.4,1.9-1,3-.3h.1c.5.5,1.3.3,1.9.8a19.8,19.8,0,0,0,1.1,2C41.1,157.5,40.6,158.7,41.2,159.7Z"/><path class="cls-142" d="M49.9,160.4l1.8-.7a8.9,8.9,0,0,1,.1,9.3c-.2.3-.5.3-.8,0h0a2.3,2.3,0,0,0-3,0h0a3.5,3.5,0,0,1-4.3-2c.2-.5-.4-.8-.3-1.2v-1.4h0c1.1-1.8-.6-4,1.1-5.7.2.1.4.1.5-.1,1.8.6,1.5,2.1,1.6,3.5s-.5,2.6,1.6,2.4h.1c0-.6.4-.8.6-1.2s.4-.4.3-.7S49.4,161.1,49.9,160.4Z"/><path class="cls-143" d="M33.5,159.1a6.5,6.5,0,0,1,4-2.1c.2,1.3.5,2.6.7,3.8s-.1,2.1-1.7,2.3a11.1,11.1,0,0,0-5.2,2.3.6.6,0,0,1-.5.6v.2a4.7,4.7,0,0,1-1,1,1.3,1.3,0,0,1-.7.4c-.2,0-.5-.4-.4-.6.6-1.9,1.4-3.8,2-5.7h.1c.4-.1.7-.5,1-.8h.1C32.3,159.9,33.3,160,33.5,159.1Z"/><path class="cls-144" d="M29.6,158.5l-.9,1a21.4,21.4,0,0,1-1.3,1.9c-.9-.7-.3-1.7-.5-2.5s-1-2.9-.6-4.1,2.1-1.7,3.1-2.7.3-.8.4-1.3,2.3-3.3,4.8-2.9l.4.6c-.5,2.6-2.5,4.2-3.9,6.2S29.3,156.9,29.6,158.5Z"/><path class="cls-145" d="M41.4,167.1v-4.8l.9,2C42.3,165.4,42.5,166.4,41.4,167.1Z"/><path class="cls-145" d="M43.4,165.8l.3,1.2Z"/><path class="cls-144" d="M34.7,146l1.8-.9c.9,1.9.3,2.9-1.9,2.9h0C34.6,147.3,34.7,146.7,34.7,146Z"/><path class="cls-146" d="M59.7,166.4l-.6.9a2,2,0,0,0-1.1.3,1.8,1.8,0,0,1-.8-.9,3.2,3.2,0,0,1,.4-1.6v-2.2c.5-2.4-2.6-2.5-2.9-4.4h.2c.5-.4,1.2-.3,1.8-.8h.1c.8-1.3.2-2.7.1-4s.4-1.9,1.6-1.9,1,2.8,2,4,2.9.9,3.2,2.7-2.2,1.1-2.7,2.3a11.1,11.1,0,0,0-.2,1.9A6,6,0,0,1,59.7,166.4Z"/><path class="cls-147" d="M54.7,158.5c.2.2.4.5.7.6,2.1.5,2.5,1.9,2.2,3.8-.6-1.5-1.2-2.9-3.2-2.8-.1.1-.4-1-.6-1.5A1,1,0,0,1,54.7,158.5Z"/><path class="cls-80" d="M48,169c1.5-1.7,1.5-1.7,3,0Z"/><path class="cls-147" d="M57.6,165.1v2.1c-.4.2-.6.2-.8-.2S57.3,165.7,57.6,165.1Z"/><path class="cls-80" d="M56.8,167l.8.2h0c.3.1.3.3.3.5a.4.4,0,0,1-.1.3h-.3Z"/><path class="cls-80" d="M51,169h.8C51.6,169.7,51.3,169.7,51,169Z"/><path class="cls-148" d="M76.8,159.5c.5-.1,1.1-.6,1.3-.4a3.2,3.2,0,0,0,3,.3c2.5-.9,3.9-.2,5.1,1.9a16,16,0,0,1,1.3,3c.8,3.5.1,4.3-2.8,3.4-.4-1.5-.7-3-1.1-4.5s-.9-1.3-1.6-.8a5.9,5.9,0,0,0-1.3,1.8c-.6.6-.4,1.4-.9,2a.4.4,0,0,0-.2.6c-2.5.5-2.9.3-2.9-1.8S76.8,161.3,76.8,159.5Z"/><path class="cls-149" d="M67.3,159.4c3.3-.6,4.6,1.5,5.7,3.9-.7,1.3-1.3,2.6-1.9,3.9a2.6,2.6,0,0,1-1.1.7h-.1c-2.5.5-4.7.3-6.5-1.7a2.7,2.7,0,0,1-.9-2.2,5,5,0,0,1,.2-1.2l.6-1.1.3-.4.8-.8.9-.6,1.5-.5Z"/><path class="cls-77" d="M70,167.9l1.1-.7Z"/><path class="cls-150" d="M63.3,163.3c0,1,.1,1.9.1,2.9a5.9,5.9,0,0,0,.2,1.3,2.3,2.3,0,0,1-.4,2.6c-.1.2-.9.1-1.1-.1s-2.5-1-1.7-2.7a6.5,6.5,0,0,0,0-1.4,1.7,1.7,0,0,1,0-1.8C61.8,165.7,62.1,162.7,63.3,163.3Z"/><path class="cls-147" d="M60.6,164.3l-.2,1.6-.7.5c0-1.8,0-3.5.1-5.3a1.3,1.3,0,0,1,1.2.5A2.4,2.4,0,0,1,60.6,164.3Z"/><path class="cls-147" d="M57.8,168a2.4,2.4,0,0,1-.2-.8h1.5Z"/><path class="cls-151" d="M102,158.9c0,.8-.1,1.7-.1,2.5a1.8,1.8,0,0,0-.6,1.5,1.4,1.4,0,0,1-.8.9,1.3,1.3,0,0,1-1.5-.6l-.9-.8a2,2,0,0,1-.8-.8,4.2,4.2,0,0,1-.4-1.5v-.5c-1.3-1.8-3.1-2.6-5.1-3.4a1.5,1.5,0,0,1-.7-2.6c1.4-1.5,2.1-3.6,4.5-4.1.4-.1.8-.9,1-1.4s1-.9,1.1-.2,1.7,2.2,3,2.8a10,10,0,0,1,2.9,1.5c2.2,1.8,2,3.6-.4,5.4A7.7,7.7,0,0,0,102,158.9Z"/><path class="cls-152" d="M97.9,161.6a.5.5,0,0,0,.2.8c.4,2.7-.9,4.4-3,5.8-6.4.8-6.6.7-6.6-3.8a12.4,12.4,0,0,1,1.7-2.3,6.6,6.6,0,0,1,6.7-2.5h0C97.7,160.1,97.5,161,97.9,161.6Z"/><path class="cls-153" d="M88.5,164.4c1,3.7,1.4,4,4.8,4l1.8-.2c-.5.3-1,.9-1.5.8-2.8-.1-4,1.4-4.3,3.9H86.5c-2.4-.8-2.4-.8-2.1-2.9a18.1,18.1,0,0,0,.3-2.3c.9.3,1.8.3,2.2-.8a19.8,19.8,0,0,0,.6-2.6Z"/><path class="cls-154" d="M99,163.2h1.8c1,.7,0,2.2,1.1,2.9h0c-1.4.6-2.2.6-2.5-.3A12.6,12.6,0,0,1,99,163.2Z"/><path class="cls-76" d="M79.8,166.2l.9-2Z"/><path class="cls-78" d="M103.7,170l1,1Z"/><path class="cls-78" d="M104.7,171l1,.9Z"/><path class="cls-155" d="M52.1,146.8l-3-3.6a2.4,2.4,0,0,1-.7-1.6l.3-1a14.2,14.2,0,0,0,.5-1.6c.1-.4.3-.7.4-1.1a4.1,4.1,0,0,0,.5-.9,7.1,7.1,0,0,1,.7-.9l1.5-.6h2.3a1.7,1.7,0,0,1,1,1.2h-.1c.7.1.8.7.8,1.3a8.8,8.8,0,0,1-.5,1.5l-.3.5c-.1.2-.2.3-.2.5l-.7.8-.3.3-.8.7-.4.2h-.4l.3.3.7.6.7.5h.5a1.7,1.7,0,0,0,1-.3,3.5,3.5,0,0,0,.5-.8c.3-1.1.2-2.3.4-3.4a4.9,4.9,0,0,1,.4-1.1l.8-.9,1-.6,1.1-.2h.6a10.2,10.2,0,0,1,3,.8,3.4,3.4,0,0,1,1.6,3.1c0,1.9-.1,3.7-.1,5.6l-1,.7c-2.5.5-2.4-1.5-2.7-3C58.9,147.9,56.4,148.8,52.1,146.8Z"/><path class="cls-156" d="M59.6,137.3l-.2.2h-.3a2,2,0,0,0-1.4.8h-.1c-1.2,1.7.3,3.9-.9,5.6h-.2a2.2,2.2,0,0,1-2.7.1h0a3.2,3.2,0,0,0-1-1h0a1.1,1.1,0,0,1,0-1.1h-.1a1.4,1.4,0,0,0,1-1h0a1.3,1.3,0,0,0,.9-1h0a1.1,1.1,0,0,0,.7-1.1l.3-1c0-.4-.1-.9-.1-1.4a10,10,0,0,0,7-5c1-.5,1.3-2.1,2.8-1.9s4-.8,5.8-1.9h1a6.7,6.7,0,0,0,.6,1.2c1.7,2.9,1.7,2.9,4.7.9l.4-.2c.3,1.3.7,2.6,1,3.8h-1a4.8,4.8,0,0,0-1.6-.8c-.9-.3-2.1,0-2.7-.5s-4-1.2-5.7-.4-5.9,1.4-7.1,4.7h-.1Z"/><path class="cls-144" d="M51.1,136.9c0,.3-.1.5-.4.5l-.6,1.1h0c-1.1.7-.3,2.1-1,2.9h0a20.2,20.2,0,0,1-5.5,1.4,2.1,2.1,0,0,1-1.3-.5v-1.9c2.3-.9,3.8-2.7,5.7-4s.2-1.2.3-1.7,1.7-2.2,3.1-1a13,13,0,0,1,1.5,1.8h-.1C52.3,136,51.2,135.9,51.1,136.9Z"/><path class="cls-157" d="M55.6,136.7l-1-1.2Z"/><path class="cls-158" d="M42.3,142.2h1c.4.5.6,1.5.2,1.7-4.7,2.2-5.5,7.6-8.8,10.9l-5.1,3.7c-1.5-.9-1.9-1.6-1.4-2.4l2-2.1c.5-.5,1.3-1.1,1.4-1.7s1.4-2.3,2.6-3,.3-.9.4-1.3a2.9,2.9,0,0,0,1.9-2.9h0a9.4,9.4,0,0,0,1-1v-.9c1.5-1.1,3.2-.5,4.8-1Z"/><path class="cls-144" d="M42.3,142.2c-1.3,1.6-3.2.7-4.8,1C38.8,141.5,40.4,141,42.3,142.2Z"/><path class="cls-144" d="M37.5,144.1l-1,1A9.4,9.4,0,0,0,37.5,144.1Z"/><path class="cls-77" d="M71.1,127.8c-1.5,1.9-3.6,2-5.8,1.9l2.9-1.9Z"/><path class="cls-159" d="M89.3,46.2a18.4,18.4,0,0,0-2.2-1.7c-.5-.4-1.1-.8-1.7-.2s-2.2,1-3.5.6A47.8,47.8,0,0,0,77.1,43l-5-1.6a6.4,6.4,0,0,1-.2-.7,3.9,3.9,0,0,1,.8-1c3-1.1,5.2-.7,8.5.6s8.5,2.7,13,.6c2.5-1.2,5.4-3,8,.2a1.6,1.6,0,0,1-.4,1.3c-.6-.1-1.6-.4-1.7-.2-1,1.8-2.5,2.1-4.3,2.1a4.2,4.2,0,0,0-2.5.9C92.1,46.3,90.7,46.1,89.3,46.2Z"/><path class="cls-113" d="M101.8,42.4v-1c1.9-2.2,3.9-.9,5.8,0h0c-.1,1-.3,2.4-1.2,2.2s-2.6,1.7-4.4,2C101.9,44.4,101.9,43.4,101.8,42.4Z"/><path class="cls-160" d="M64.4,43.3c-2.5,0-5.1.1-7.6,0a5.6,5.6,0,0,1-2.6-.7c-1.7-1.1-1.6-.2-1.9,1.1s-1.4,1.7-2.4.8a18.1,18.1,0,0,1-1.8-2.1c.5-1.8,2.1-1.9,3.5-2.5l1.2-.3a14.9,14.9,0,0,0,9.8-.6c2.3-1,3.9-.8,5.1,1.6s-1.3,2-2.4,2.7Z"/><path class="cls-159" d="M65.3,43.3c.6-1,2.1-1.4,2-2.9l.3-.4a3.4,3.4,0,0,1,1.7-.3l1.1.3a5.5,5.5,0,0,1,1.7,1.4h0l-1,1c-1.1,1.1-2.2,2-3.9,1.1A4,4,0,0,0,65.3,43.3Z"/><path class="cls-161" d="M52.1,146.8a16.4,16.4,0,0,0,3.8.2c2.4-.4,4.7-1.1,4.6-4.3,0-.5.5-1.1.8-1.6l.8-.4c.1,1.4.3,2.7.4,4s.8,1.6,1.7,2,1.2.6,1.4,1.1.8,1.8,2.7,1.6,1.4-.3,1.1.8,1,2.1,2.1,3.1,3.9,1.7,6,.5,1-1.2.4-1.9-.8-.8-.8-1.2.4-1.4.7-1.5,2.7-.6,4.2-1c-.3.9-.9,2-.7,2.3,1.4,1.9.5,2.9-1,3.9s-1.1.6-.4,1.3.6,1.4-.4,1.2c-4.4-.8-8.4.4-12.2,2.5h-.1c-.5.5-1.4.3-1.7,1h-.1a2.4,2.4,0,0,0-.9.8h-.1a1.5,1.5,0,0,0-.8,1.1.9.9,0,0,1-.3.7c-.8.5-1.3,2.2-2.7,1l-.2-2.7c-.6-1.6.8-1.8,1.7-2.3l1.2-.4c.9-1,.3-1.8-.7-1.8-2.6.1-3-1.6-3.1-3.5a4,4,0,0,0-.8-1.6c-1.3-.4-1.2.4-1.2,1.2a1.7,1.7,0,0,1-.7,1.5c-1,.3-1.4,1.8-2.9,1.1s-1.4.3-2.2.5-2.7.3-2.5-2a6.5,6.5,0,0,0,.4-1.3c-.1-.4-.5-1-.8-1-2,.3-2-1.5-2.6-2.6a3.2,3.2,0,0,1-.3-.9C47.7,146.9,49.6,146,52.1,146.8Z"/><path class="cls-162" d="M81.4,145c.1-1,0-1.9.1-2.9s-.4-2.8.6-4.1c2,.2,4-1.5,5.9-.1a2.5,2.5,0,0,0,2.2.3c2.5-.8,2.6-.8,4.1,1.4l.6.7.2,1.9a2.4,2.4,0,0,1,0,2.9c-.4.6-.8,1.5-1.7,1.2s-.8-.9-1-1.5a5.8,5.8,0,0,1-.3-1.4,8.9,8.9,0,0,0-.3-1.4c-2,.5-1.2,2.4-1.9,3.4s-1,1-1.4.9a1.4,1.4,0,0,1-1.1-1.2c-.2-1.1-.1-2.2-.2-3.3a1.5,1.5,0,0,0-.9-1c-.2-.1-.8.3-.9.6s-.7,2.7-1.3,4-1,.5-1.5.7S81.6,145.6,81.4,145Z"/><path class="cls-163" d="M67.5,142.1c-.7-2.4-.4-4.4,1.7-5.9a2.3,2.3,0,0,1,2.7-.1c.7.6.9,1.5.2,2s-1.8.5-1.5,1.5,1.1.6,1.6.9l1.9,1.5a2.3,2.3,0,0,1-.1,3c-.6,1.8-2.1,2.2-3.8,2.2s-2.2-1-2.8-2.1S67.6,143.1,67.5,142.1Z"/><path class="cls-164" d="M74,145c0-1,0-2,.1-3a34.7,34.7,0,0,1,1.8-3.3,2.2,2.2,0,0,1,1.4-1.1,2,2,0,0,1,1.7.2,1.7,1.7,0,0,1,.5,1.6,6.3,6.3,0,0,1-1.3,2c-1.1,1.8-.4,3.3,1.8,3.6h1.4l1.2,1.1-.8.4a4.3,4.3,0,0,1-5.5-.4C75.7,145.5,75.1,144.7,74,145Z"/><path class="cls-161" d="M67.5,142.1c.9.3,1.2.9.6,1.8l-.7,1.2H66.3C66.3,143.9,66.2,142.8,67.5,142.1Z"/><path class="cls-124" d="M106.7,144.9a2.4,2.4,0,0,0,2.6.9,1.3,1.3,0,0,1-1.7,1C106.7,146.5,106.7,145.7,106.7,144.9Z"/><path class="cls-124" d="M109.6,144.2h.8l1.2,1.7h-2.3Z"/><path class="cls-97" d="M95.1,145.1v-2.9C96.3,143.6,96.3,143.6,95.1,145.1Z"/><path class="cls-165" d="M106.6,142.2V144h-1.1Z"/><path class="cls-166" d="M105.7,132.1l.8,7.1c-.2.5-.5.6-1,.4l-.9-1a3.6,3.6,0,0,0,1.1-2.9Z"/><path class="cls-167" d="M102.2,143.7a21.2,21.2,0,0,1-1.3-2c.4-.2.8-.6,1.1-.5s1.3.5,1.3.8S102.7,142.9,102.2,143.7Z"/><path class="cls-166" d="M99.8,127.8c.3.7.9,1.3,1,2s0,2.9,0,4.3C100.5,132,100.1,129.9,99.8,127.8Z"/><path class="cls-166" d="M100.8,137.4c1.3.2,2.9-.6,3.8,1.1a26.6,26.6,0,0,1-2.8-.3C101.4,138.1,101.1,137.7,100.8,137.4Z"/><path class="cls-165" d="M105.5,139.6l1-.4c0,.7.1,1.3.1,2Z"/><path class="cls-166" d="M106.6,129.7l-.9,2.4A2.5,2.5,0,0,1,106.6,129.7Z"/><path class="cls-112" d="M28.3,111.3l-1.7-1.5c.3-.3.6-.8,1-.9s1.7.4,1.6,1.1S28.8,110.7,28.3,111.3Z"/><path class="cls-168" d="M43.1,71.1a7.8,7.8,0,0,1,.2,1.4c-.1,1-.5,1.3-1.1.9s-3-.4-4.6-.2c-.1-.3-.5-.9-.3-1.1,1.1-2,2.4-3.9,4.6-4.9Q42.5,69.3,43.1,71.1Z"/><path class="cls-169" d="M43.3,75.3v8.2a23.5,23.5,0,0,1-3.8-1.4,4.2,4.2,0,0,1-2.1-4.4c.4-1.6,1.7-2.5,4-2.6Z"/><path class="cls-106" d="M41.3,85.5c-1.3-.1-2.8.5-3.7-1C38.8,84.9,40.3,84.3,41.3,85.5Z"/><path class="cls-170" d="M122.8,15.6a1.7,1.7,0,0,0,1.3,1.7,10.5,10.5,0,0,1,1.3-2.3,9.3,9.3,0,0,1,1.4-1.4,2.7,2.7,0,0,1,3.5.1,2.2,2.2,0,0,0,3.4-.1c2.9-2.9,5.2-1.3,7.5.9h0c.2,2.3-2.1,1.8-3,2.9-2.8,1.4-3.1,4.5-4.5,6.8a1.3,1.3,0,0,1-1.7-.5c-2.7-5.6-7.6-5-12.5-4.5-1.1.2-2.4.2-3.4,1.1a41.2,41.2,0,0,0-2.8,3.1,5.1,5.1,0,0,0-1,2.1,4.9,4.9,0,0,1-.4,1.1,8.7,8.7,0,0,0,.1,4.8l.5,1.2a2.8,2.8,0,0,0,2.5,2.2h1.2a4.5,4.5,0,0,1,2.3.2l.9.6c.7,1.5.6-1,1.2-.3a6.5,6.5,0,0,0,3.4-.1l1.3.2c.7.3,1.6.7,1.5,1.6s-2.2.4-2.9,1.5h0c-.3.3-.6.3-1,0H122c-1.1,1-2.8-.1-3.9,1h-.9a1.9,1.9,0,0,0-2.9,0h0c-2.4,1-4.4-1.8-6.8-.8a3.1,3.1,0,0,1-.9-1.8,6.7,6.7,0,0,1,0-2l.3-1.3a15.1,15.1,0,0,0,.6-3.7,5.8,5.8,0,0,1,.4-1.8c.3-1,.5-2,.7-3a2.7,2.7,0,0,1,.3-1.2,11,11,0,0,0,.4-3.1,6.3,6.3,0,0,1,1.1-3.8c.9-1.5,2.5-1.8,3.9-2.5h0c.5-.6,1.3-1.6,1.8-.9C117.9,16,120.5,15,122.8,15.6Z"/><path class="cls-171" d="M150.7,28.9l.2,2.5a7.9,7.9,0,0,1,.4,2c-.4,3.1-2.6,4.9-4.4,7H146a12.7,12.7,0,0,0-7.7-.9h0l-1-1h0a17,17,0,0,0-1.4-1,1.9,1.9,0,0,1-.7-2,2.1,2.1,0,0,1,1-.6,8.2,8.2,0,0,0,2-1.2,20.8,20.8,0,0,0,3.2-3.4,4.5,4.5,0,0,0,.3-3.4l-.3-1-.6-.9-.3-.4-.8-.6-1-.5-1.4-1a1.4,1.4,0,0,1-.1-1.1c.7-1.1,2-1.3,3.1-1.8a6.1,6.1,0,0,1,3-.1l1,.7a2.5,2.5,0,0,1,.2,1.2,14.7,14.7,0,0,0,.5,2.9,18.4,18.4,0,0,1,0,6.2,3.9,3.9,0,0,0-.3,2.1,3.6,3.6,0,0,0,.4.9c.3.3.7.5,1.1.1a3.6,3.6,0,0,0,.4-.9,53.3,53.3,0,0,0-.2-9.8,6.8,6.8,0,0,1-.2-1.4,4.2,4.2,0,0,1,.4-1.2,2,2,0,0,1,1.9-.5c.7.2,1,.8,1.3,1.4v1.6c.6,1.4.3,2.8.4,4.1A2.8,2.8,0,0,0,150.7,28.9Z"/><path class="cls-172" d="M107.6,38.5c1.6-.9,3.1-1.3,4.6.2s1.4.5,2.1.8c-1.1,1.4-2.5,1-3.8.5s-2.3.2-2.9,1.4-1.6.6-1.8.3-2.6-.3-4-.3a2.7,2.7,0,0,0-3.4-.8,16.6,16.6,0,0,0-4.8,1.9c-2,1.1-3.9,1.2-5.7-.2a3.2,3.2,0,0,0-3.5-.3c-2.6,1.2-4,.6-5.6-2-.2-.3-.9-.8-.9-.7-1.7,1.4-4,.4-5.8,1.1l-.3-.4c-.3-1.1-1.5-1.8-1.1-3.1a1.3,1.3,0,0,1,.9-.7c2.1.3,4.2-.4,6.2-.1s3.8,1.9,5.8,2.7a2,2,0,0,0,1.1.3,3.2,3.2,0,0,0,1.7-.2h1.3c1.9.6,3.8,1.6,5.7-.4s5.5-1.1,8.2-1A14.2,14.2,0,0,1,107.6,38.5Z"/><path class="cls-172" d="M135.4,35.5l1,2.1c.2.2.3.4.2.6s-.1.3-.2.3a7.1,7.1,0,0,0-5.5-.5c-2.3.6-4.7.4-7,.5.4-.3.7-.7,1.1-.8s.7-1,.1-1.6l-.3-.4c0-.2.1-.5.1-.7,1.3-3.7-.2-7.8,1.3-11.5,2.5-1.4,2.2.9,2.5,2s0,3.5.4,5.2.6,4.3,3.7,3.7A1.9,1.9,0,0,1,135.4,35.5Z"/><path class="cls-173" d="M146.9,40.4c.2-.1.4-.1.4-.3.1-2.2.3-4.3,3-5.1.3-.1.3-.8.5-1.3s.6-.4.9,0h.1c.9.5,1.9.8,2.8-.2h-.1c1-.2.2-2.4,2-1.8h0c.6.4.4,1.4,1.2,1.7h0c-.9,1.3-1.7,2.6-2.7,3.8a1.5,1.5,0,0,1-1.2.5,10.8,10.8,0,0,1-1.8,0c-1.7,0-3,.5-3.3,2.5S147.6,41.2,146.9,40.4Z"/><path class="cls-173" d="M138.3,39.5c2.7-2.4,3-2.5,5.5-.8.8.5,1.5,1.2,2.2,1.7l-4.4,1.3C139.3,42.2,139.3,42.2,138.3,39.5Z"/><path class="cls-172" d="M114.3,39.5c1.4-1.9,1.5-1.9,2.9,0Z"/><path class="cls-172" d="M118.1,39.5c1.1-1.4,2.6-.9,3.9-1C121,39.9,119.5,39.3,118.1,39.5Z"/><path class="cls-173" d="M137.3,38.5l1,1Z"/><path class="cls-172" d="M122.9,38.5h1C123.6,39.2,123.3,39.2,122.9,38.5Z"/><path class="cls-173" d="M136.4,38.5v-.9l.9.9Z"/><path class="cls-114" d="M158.6,34.5l.9,1Z"/><path class="cls-22" d="M159.4,43.3h-.9c-.3-1.6.6-2.6,1.7-3.6s2.1-.1,3.1-.2v.9l-2,1C160.1,41.4,159.5,42.1,159.4,43.3Z"/><path class="cls-78" d="M112.3,165.9c-1.2,1.6-1.2,1.6-2.8.3A3.1,3.1,0,0,0,112.3,165.9Z"/><path class="cls-174" d="M109.5,166.2c-1.3-.9-.9-2.2-.8-3.4C108.9,163.9,109.2,165,109.5,166.2Z"/><path class="cls-78" d="M101.9,166.2c-1.3-.7-1-1.9-1.1-2.9h0q.5-.6.9,0Z"/><path class="cls-174" d="M105.5,163a1.9,1.9,0,0,1-.7,2.2A1.9,1.9,0,0,1,105.5,163Z"/><path class="cls-154" d="M101.7,163.3h-.9l1.1-1.9Z"/><path class="cls-78" d="M108.6,162.4h-2l-.3-.3.3-.3C107.6,161,108.3,161.1,108.6,162.4Z"/><path class="cls-174" d="M106.6,161.7v.6h-.7A4.6,4.6,0,0,1,106.6,161.7Z"/><path class="cls-175" d="M162.3,22.2l.8.9a4.4,4.4,0,0,1,.2,1c-.2,2.7.9,5.6-1,8.1-2.5-1.4-3.4-4.1-4.9-6.2s-2.5-3.3-3.7-4.9-.4-3.9,2-2.9S160.9,19.5,162.3,22.2Z"/><path class="cls-176" d="M162.3,22.2l-6.7-3.3c-1.1-.5-1.5-.2-1.9,1.2a3.3,3.3,0,0,0,0,1l-.8-.5c-1.9-1.7-1.9-1.7-3.1.6l-.9-.9c-2.4-2.9-5.4.6-7.9-.9-.2-2.1,1-3,2.9-3.4a1.9,1.9,0,0,1,2,.4,42.9,42.9,0,0,1,6-1.3,5.3,5.3,0,0,1,4.4,1.6,5.6,5.6,0,0,0,3.7,1.7c2,.2,2,.4,2.3,2.8Z"/><path class="cls-177" d="M167.1,20.3c1.3,1.3,2.6,2.6,3.8,4s.2,1.1.2,1.7a2.1,2.1,0,0,0,1,1.9c1.6,1.1,1.6,1.6.4,2.7s-2.2,2.2-3.4,3.2a1.4,1.4,0,0,1-1.2.3,2.1,2.1,0,0,1-.7-1.1c-.1-.8-.1-1.6-.2-2.4C167,27.2,167,23.7,167.1,20.3Z"/><path class="cls-113" d="M156.5,31.8l-2,1.8c0-1.1,0-2.1.1-3.2a1,1,0,0,1,.4-.7l.7.5C156,30.7,156.2,31.3,156.5,31.8Z"/><path class="cls-178" d="M149.8,27.9c.1-1.7.1-3.4.1-5.1.3,1.7.5,3.4.7,5.2C150.4,28.2,150.1,28.2,149.8,27.9Z"/><path class="cls-113" d="M154.6,33.6c-1.3,1.4-1.3,1.4-2.8.2Z"/><path class="cls-113" d="M157.7,33.6a1.5,1.5,0,0,1-1.2-1.7Z"/><path class="cls-178" d="M151.7,33.7h-.9c0-.7.1-1.5.1-2.3Z"/><path class="cls-176" d="M149.8,27.9h.8v.9Z"/><path class="cls-179" d="M141.2,14.5l-3.2-1c-1.7-.6-3.3-1-4.4,1.2a2.2,2.2,0,0,1-.7.6c-1.2.7-2,.8-3.1-.7s-2-.5-2.9,0a2,2,0,0,1-1.1-1.3c-.1-.2-.1-.4-.2-.6,2.1-1.6,4.1-1.5,6.2.1s1.5-.2,1.7-1.2c2.5-1.6,4.7-.3,6.8.9C140.8,12.8,140.9,13.8,141.2,14.5Z"/><path class="cls-179" d="M144.4,16.3a6.2,6.2,0,0,0-3.2,3,1.3,1.3,0,0,1-1.2,0l-2.6-2.8,1.9-1,1.9-1,2.7,1C144.3,15.6,144.4,15.9,144.4,16.3Z"/><path class="cls-180" d="M144.4,16.3a1.1,1.1,0,0,0-.5-.8c.1-.2,0-.4.1-.5l1.1-1.2a6.4,6.4,0,0,1,1,1.3,3.4,3.4,0,0,1-.2,1.3Z"/><path class="cls-181" d="M42.3,37.6l3-1.2c1.4-.6,1.4-1.5.7-2.7a2.1,2.1,0,0,0-2.7-.1l-2.7.3c-3.2-.8-1.4-3.3-1.5-5s1.2-1.6,2.4-.9c.7-1.3,2.6-1.9,2.1-4s.6-4.3,3-5.2c4.5-.3,3.4,3.2,3.8,5.7s-.2,4.7,0,7.4c1.3-3.3,1.1-6.4,1.2-9.5s.4-4.6,3.3-5.1a4.1,4.1,0,0,1,3,.8c2.2,4.7.8,9.4.4,14.1.2.4-.4,1.5.9,1.1s.4-1.2.7-1.9a1.6,1.6,0,0,1,.6-.8,1.7,1.7,0,0,1,1,0,5.8,5.8,0,0,1,1,1.2l.6.8.6.8.6,1a4.2,4.2,0,0,1,.4,1.6,1.6,1.6,0,0,1-.5,1.1,77.1,77.1,0,0,1-12.3,3.3h0a22.6,22.6,0,0,1-6.8,1.2c-1.7.1-3.5.1-4.2-2S41.5,38,42.3,37.6Z"/><path class="cls-182" d="M49.1,25.3c0-1.1-.1-2.2-.1-3.3s-.2-2.2-2.8-2.6c-2.6,1.1-5.7,1.5-6.8,4.7-1.7-.8-.8-2.4-1-3.7s.1-2,2.1-2h4.3c.3,0,.8-.6.8-.8a1.4,1.4,0,0,0-.8-1l-5.4-1.3v-.9h1.5c2.1.5,3.9.4,5.4-1.5s3.5-1.8,5.3-.9c3.4,1.6,7.1,1.9,10.5,3.1a9.5,9.5,0,0,0,2.4.1c1.1-.7,2.1-.7,2.9.5C64.6,18,62,21,57.9,18.4l-3.3-.2c-.3-2.6-2.1-1.4-3.2-1.2s-.7,1.7-.6,2.6S52.1,24.1,49.1,25.3Z"/><path class="cls-160" d="M42.3,37.6l-.9,1c.3.8-2.8,1.1-.3,2s3.4.8,4.1,2.7c-1.8,1.7-4,1.1-5.9.7s-4.9-1.4-5.2-4.6c-.1-.6-.3-1.2-.4-1.8a1.8,1.8,0,0,1,1-2,4.4,4.4,0,0,0,5.8,2.2Z"/><path class="cls-140" d="M39.4,24.1c0-4.8-.1-4.8,4.9-4.7h1.9c-1.1,1.5-2.3,3-2,5.1s-1.7,2.8-2.3,4.4l-.8-.2c-.7-.4-1.3-.4-1.5.4s-.7,3.5,1,4.8c-.9.6-2,.8-2.1-.5a37.2,37.2,0,0,1-.1-5.8l4.5-1.8c.2,0,.3-.5.3-.7s-.3-.7-.5-.7Z"/><path class="cls-183" d="M34.7,35.6a12.4,12.4,0,0,0-1,2h0c-5.9-2.7-6.6-6.4-2.2-10.4a2.4,2.4,0,0,1,3-.2l.3,3.2-.3,3.5a1.2,1.2,0,0,0,.2,1.9Z"/><path class="cls-140" d="M43.3,33.6c1.5-1.1,1.5-1.1,2.7.1Z"/><path class="cls-160" d="M34.7,35.6c-1-.5-1.1-1.2-.2-1.9Z"/><path class="cls-160" d="M34.5,27c-2.4.3-3.8,1.8-4.6,4a4.5,4.5,0,0,0-.4,2.2c.2.7,1,1.2,1.5,1.7l2.7,2.7H29.8c-.3.3-.6.3-.9-.1h0c-.4-1.2-.7-2.5-1-3.8a4.3,4.3,0,0,0-1-.9h0L30.8,27c-.4-.3-.6-.7-1-1h0l-.9-.9-1-1.9a6.3,6.3,0,0,0,2.9-2.9h0c.5-.6,1.4-.4,1.9-1h0l1-.9.9,1.9a1.2,1.2,0,0,0,0,1.9v1c-1,.6-.9,1.2-.1,1.9Z"/><path class="cls-184" d="M30.8,20.3c-.3,2.6-.3,2.6-2.9,2.9C28.9,22.2,29.8,21.2,30.8,20.3Z"/><path class="cls-183" d="M34.5,25.1a11.5,11.5,0,0,1-1.7-.6c-.4-.2-.8-.9-.7-1.2s1-.3,1.5-.3l1,.2A12.8,12.8,0,0,1,34.5,25.1Z"/><path class="cls-184" d="M34.6,22.2c-1-.7-1-1.3,0-1.9Z"/><path class="cls-184" d="M32.7,19.3l-1.9,1Z"/><path class="cls-184" d="M33.7,18.4l-1,.9Z"/><path class="cls-184" d="M29.8,26l1,1Z"/><path class="cls-184" d="M28.9,25.1l.9.9Z"/><path class="cls-185" d="M67.3,16.3c-.7-1.1-1.8-.8-2.8-1a1.6,1.6,0,0,1,1.2-1.7,8.6,8.6,0,0,0,1.6-1c2.8.1,4.9-2,7.5-2.3,3.9,1.5,1.5,4.2,1.2,6.5a9.2,9.2,0,0,1-2.2,1.7c-2.4,1.1-2.1,3.2-2.4,5.3-.4,4.2,1,8.5-.2,12.7l-.2.2a2.5,2.5,0,0,1-2.4-1c-.9-1.5-2.5-2.4-3.5-3.8s-3.4-5.9,0-8.6S66.4,18.6,67.3,16.3Z"/><path class="cls-186" d="M74.9,10.7a4.9,4.9,0,0,0-2,1.1c-1.7,1.6-3.6,1.4-5.6.8V9.7l2.5,1c.4.1,1.1,0,1.1-.2.8-2.4,2.5-1.9,4.2-1.2l.8.4h1v1A1.5,1.5,0,0,1,74.9,10.7Z"/><path class="cls-187" d="M109.5,24.1a.5.5,0,0,0-.1.7c-.6,1-.2,2.2-.7,3.1l-.3,1.7c-.8,1.3.1,2.9-.8,4.1s-.3.4-.1.7-1.3,3-3.4,2.7a3.4,3.4,0,0,1-1.2-.6,4.4,4.4,0,0,1-.8-1.1l-1.2-3.1c-1-3.5-2.5-6.8-3.8-10.1-.5-1.6-1.6-3.5.8-4.3s3.1,1.3,4,2.9a22.9,22.9,0,0,1,1,2.3l.5.9.6,1.4c.1.2.1.3.2.4l.3.3a4.5,4.5,0,0,0,.1-1.6,8.5,8.5,0,0,1,.4-2.3l.9-3.7a21,21,0,0,1,2-4.9,2.8,2.8,0,0,1,1-.9h.7c2-.3,2.1-.3,2.6,1.9s-.1,2-.8,2.9-.7,2.3-1.1,3.4S110.3,23.1,109.5,24.1Z"/><path class="cls-188" d="M108.7,13.8l-2,4.8c-1.7-2.2-2.9-5.6-6.6-2-.8.8-3-1.4-4.8-.4H94c-3.8.8-7.5,1.2-10.9-1.2-.8-.6-1.8-.1-2.7-.2s1.2,1.4.9,2.4a1.6,1.6,0,0,1-1.1,1.4,9.4,9.4,0,0,1-2.3-1c-.8-.3-1.6-.5-2-1.3s-1.5-2.9.2-4.2l-1.2-1.4h2a19.2,19.2,0,0,0,8.9.8c1.4-.1,2.4-.2,3.5.9a3.5,3.5,0,0,0,2.1,1,9.8,9.8,0,0,0,2.2-.5,12.2,12.2,0,0,1-.7-1.7,1.1,1.1,0,0,1,0-.8c.2-.2.7-.3.8-.2,2.4,2,5.2,1.8,7.8,1.3s5,.4,7.5-.1a6.4,6.4,0,0,1,.6,1.2h-.1A1.5,1.5,0,0,0,108.7,13.8Z"/><path class="cls-189" d="M122.8,15.6c-.9.3-1.8.7-2.7.9s-2.3.7-3.5-1.4-1.4-1-2.3-.6.1-1.2.2-1.8a1.4,1.4,0,0,1,.6-.7l7.4,2.3C122.7,14.4,122.7,15.1,122.8,15.6Z"/><path class="cls-190" d="M126,15.5a2.5,2.5,0,0,1-1.9,1.8c-.7-3.1-.7-3.1,1.5-4.6h.1C126.7,13.5,126.3,14.5,126,15.5Z"/><path class="cls-189" d="M111.4,17.4c.3-1,.5-2,.8-2.9h2.1C113.3,15.5,112.3,16.4,111.4,17.4Z"/><path class="cls-191" d="M45.2,43.3c-2.3-1.2-4.6-2.4-7.7-2.5,1.1-1.7,2.8-1.4,3.9-2.2a1.7,1.7,0,0,0,1.9,1.8h8.6l-3.8,2h-1c-.5.5-1.4.3-1.9.9Z"/><path class="cls-160" d="M45.2,43.3l1.9-.9Z"/><path class="cls-63" d="M33.7,44.3l-1-1Z"/><path class="cls-139" d="M28.9,37.5h.9v.9Z"/><path class="cls-134" d="M26.9,32.8l1,.9Z"/><path class="cls-192" d="M34.7,154.8c-.5-.4-1-1.2-.5-1.6a8.7,8.7,0,0,0,3.5-4.9c.8-2.4,1.4-4.7,4.7-4.6.3,0,.6-1,.9-1.5a7.2,7.2,0,0,1,2-.9,24.1,24.1,0,0,1,3.8,0v1.9c-.6-.1-1.6-.4-1.7-.2a5.7,5.7,0,0,1-3.4,2.3,1.9,1.9,0,0,0-1.2,2.7c.4,1.1-.2,1.7-1.1,2.1l-2.2.9c-1.5.4-1.9,1.5-2.1,2.8Z"/><path class="cls-193" d="M48.2,164.5a6.1,6.1,0,0,1-.7,1l-.7-.4-.3-3.7a3.3,3.3,0,0,0-1.5-2.8c1.5-.2,2,.7,2.2,1.9S46.9,163.4,48.2,164.5Z"/><path class="cls-145" d="M44.5,158.7a28.7,28.7,0,0,1-.5,3.1,24.4,24.4,0,0,1-.6,2.6c-.1-1.4-.2-2.7-.2-4.1A1.7,1.7,0,0,1,44.5,158.7Z"/><path class="cls-147" d="M56.8,154.7l.7-1.5c.1,1.5.7,3.1-.7,4.3Z"/><path class="cls-145" d="M41.2,159.7c-.3-1-.5-2.1-.7-3.1C41.6,157.4,41.6,158.5,41.2,159.7Z"/><path class="cls-147" d="M56.7,157.6l-1.8.8Z"/><path class="cls-193" d="M49.9,160.4c-.2.8-.5,1.5-.7,2.2A1.6,1.6,0,0,1,49.9,160.4Z"/><path class="cls-192" d="M39.4,154.6l-1.9-.8A1.6,1.6,0,0,1,39.4,154.6Z"/><path class="cls-193" d="M48.9,163.3l-.6,1.2Z"/><path class="cls-194" d="M37.3,166.2c-.4.5-.6.9-.7.8l-1.5-.3.3-.3Z"/><path class="cls-74" d="M33.5,159.1c-.1,1-.8,1.3-1.7,1.3A10.9,10.9,0,0,0,33.5,159.1Z"/><path class="cls-74" d="M31.7,160.5l-1,.8Z"/><path class="cls-74" d="M30.8,166a1,1,0,0,1,.5-.6A.6.6,0,0,1,30.8,166Z"/><path class="cls-150" d="M59.7,152.7c.1.2.3.2.3.4.6,1.9,1.2,3.6,3.6,3.9s.7,1.2-.5,2.2a.5.5,0,0,1,0-.7c.3-.8-.1-1-.8-1.1s-2.1.3-2.7-.8S58.7,154,59.7,152.7Z"/><path class="cls-147" d="M59.7,152.7c0,1.3-.1,2.6-.1,3.9-1.5-1.3-.8-3.1-.9-4.6Z"/><path class="cls-147" d="M63.1,158.5v.7h-.4l-.2.3a3.2,3.2,0,0,1-2.7.3C60.3,157.9,61.9,158.7,63.1,158.5Z"/><path class="cls-150" d="M59.8,159.8l2.7-.3-2.1,2.1-.6-.5Z"/><path class="cls-195" d="M70.2,163.3a5.2,5.2,0,0,1-1.3,1.3,2.7,2.7,0,0,1-1.8.1c-.1,0-.3-.5-.2-.7a2,2,0,0,1,2-1.6C69.3,162.5,69.6,162.9,70.2,163.3Z"/><path class="cls-150" d="M65.5,160.5c.2-.8.8-1.1,1.7-1Z"/><path class="cls-150" d="M64.5,161.4l.9-.8Z"/><path class="cls-150" d="M63.6,162.6a7.6,7.6,0,0,0,.8-1.1A7.6,7.6,0,0,1,63.6,162.6Z"/><path class="cls-154" d="M97.9,161.6a12.4,12.4,0,0,1-1-2C98,160,98.1,160.7,97.9,161.6Z"/><path class="cls-196" d="M94.7,162.6a2.2,2.2,0,0,1,.7.9,2.1,2.1,0,0,1-2.9,1.8.8.8,0,0,1-.3-.8A2.5,2.5,0,0,1,94.7,162.6Z"/><path class="cls-157" d="M56.7,144c0-1.2-.1-2.5,0-3.7a6.6,6.6,0,0,1,.9-1.9,26.9,26.9,0,0,1-.3,4A4.4,4.4,0,0,1,56.7,144Z"/><path class="cls-157" d="M53.8,144.2h2.7C55.2,145.3,55.2,145.3,53.8,144.2Z"/><path class="cls-86" d="M49.1,141.3c-.1-1.1-.3-2.2,1-2.9C49.8,139.4,49.4,140.4,49.1,141.3Z"/><path class="cls-86" d="M51.1,136.9a1.5,1.5,0,0,1,1.7-1.4Z"/><path class="cls-157" d="M55.6,138v1.3a.4.4,0,0,1-.7,0Z"/><path class="cls-157" d="M57.7,138.3l1.4-.8Z"/><path class="cls-86" d="M50.1,138.5l.6-1.1Z"/><path class="cls-157" d="M59.6,137.3l1-.8Z"/><path class="cls-157" d="M52.8,143.2l1,1Z"/><path class="cls-157" d="M52.8,142.1v1.1C52.3,142.9,52.1,142.5,52.8,142.1Z"/><path class="cls-86" d="M53.7,141.1a9.4,9.4,0,0,1-1,1A9.4,9.4,0,0,0,53.7,141.1Z"/><path class="cls-86" d="M54.6,140.1l-.9,1Z"/><path class="cls-86" d="M55,139.3h.7l-1.1.8A.7.7,0,0,1,55,139.3Z"/><path class="cls-172" d="M72.1,41.4l-2-1a1.4,1.4,0,0,1,2,0h0Z"/><path class="cls-191" d="M72.1,40.4h-2a2.1,2.1,0,0,0-2.8,0h0a4.7,4.7,0,0,1-1.2-.7c-.7-.6-1.3-.9-2.1-.3s-3.2,2.1-5.3,1.4c-.3-.1-.8.4-1.1.7a1.4,1.4,0,0,1-2.1,0,5.3,5.3,0,0,0-3.6-1.1l.6-.7c1.3-1.2,3-.5,4.4-1s2.5-1.4,3.7-1.9,1.3.1,1.9.2,1.6-.7,2.1-1.5,3.1,0,4.6.1L71,36.7c.2.5.3,1.2.7,1.5S72.4,39.6,72.1,40.4Z"/><path class="cls-172" d="M67.3,40.4c1.4-1.1,1.4-1.1,2.8,0Z"/><path class="cls-197" d="M132.6,34.6v1.8c-.8-.1-2,.1-2.2-.2-1.1-1.8-2.9-3.3-2.6-5.8a45.1,45.1,0,0,0-.1-5.2,7.2,7.2,0,0,0-.9-2,2.2,2.2,0,0,1-.7-.9l-.4-.9-.5-.6h-.7a1.3,1.3,0,0,0-.4.7,7.6,7.6,0,0,0-.1,1.5,51.7,51.7,0,0,1,.1,6.8v1.9l.3,1.7a4.9,4.9,0,0,1,.1,1.2,1.5,1.5,0,0,1-.6.9,12.5,12.5,0,0,1-.8,1.2,1.2,1.2,0,0,1-2-.2l-1-1c-.4.5-.7.5-1,0h0c-.7-1.3.5-2.2.9-3.3a9.3,9.3,0,0,1,.5-1,4.8,4.8,0,0,0,.4-2.7c0-.9.1-1.8.1-2.8s-.1-1-.2-1.5l-.4-.9-.7-.8-.3-.4a2.7,2.7,0,0,1-.7-.8,4.5,4.5,0,0,1-.3-1.1,2,2,0,0,1,.7-1.9c1-.5,1.9-1,3.1-.5s2.6.4,4-.4,3.5-.6,3.8,1.8a2.3,2.3,0,0,0,1.3,2.1,11.6,11.6,0,0,1,2.3,2.6,3.1,3.1,0,0,1,1.9-.1c2.1.5,4,1.2,4.6,3.6a3.9,3.9,0,0,1-1.5,4.2c-2.2,1.5-4.2,1.1-6.1-.4-.6.1-.6.6-.6,1a2.4,2.4,0,0,0,.2.9,3.6,3.6,0,0,1,.4.9A1.1,1.1,0,0,1,132.6,34.6Z"/><path class="cls-198" d="M131.4,29.9l.4-.3c1.7-1,1.8-1,2.2.5s1.1,2.2,2.5,1.7,2.8-1.4,3-3.2a2.5,2.5,0,0,0-1.5-2.7,41.7,41.7,0,0,1-4.4-1.9,4.8,4.8,0,0,1,1.4-5.4l2.4-2.1a2.7,2.7,0,0,1,.9,0c1.9.1,2,.1,2,1.9v.9l-.4.5c-.4,1.4-3.1.1-2.7,2.4h.1c.6.4,1.4.3,1.9.7a.7.7,0,0,0,.8.3,1.8,1.8,0,0,1,1.1.8h.1a1.8,1.8,0,0,1,.8,1.1.7.7,0,0,0,.3.8,7.5,7.5,0,0,1,0,4.7l-4,4a18.7,18.7,0,0,1-2.2.7l-.3-.2-.4.2-2.8-.9h0c-.4-.3-.8-.5-.9-1h0C130.6,32.5,131.1,31.2,131.4,29.9Z"/><path class="cls-132" d="M121.8,25.5v3.1c-.7.9,0,2.3-1,3.1h0a6.2,6.2,0,0,1-5.1,3.8l-.2-.2h-.2a4.1,4.1,0,0,1-3.9-2.9c.1-.3.1-.5-.2-.7a11.4,11.4,0,0,1,0-5.8.8.8,0,0,0,.2-.8c.5-.6.3-1.5.8-2l3-3.9c2.2-1.4,3,.2,3.8,1.8h.1a3.4,3.4,0,0,0,.8.9h.2l.8,1h0A4.5,4.5,0,0,1,121.8,25.5Z"/><path class="cls-199" d="M103.1,35.5l.8.7c1,2.2,2.5-.6,3.7.4v1.9c-2.6.8-3.6.8-6.1-.3-.9-.5-1.4-.2-2.1.3s-1.6,1-2.4,0-1.7-.6-2.4.1-2.3,2.2-3.2,2.9l-4.9-2c-1.5-2.6-1.3-4.1,2.3-4.2s6.2-1.3,9.5-.8l1.2.3A11.5,11.5,0,0,0,103.1,35.5Z"/><path class="cls-172" d="M115.8,35.5a11.3,11.3,0,0,0,5.1-3.8c.4,1.7-1.3,2.6-1.8,3.9Z"/><path class="cls-172" d="M111.5,32.5l3.9,2.9c-.4.2-.9.6-1.2.5S111.3,34.5,111.5,32.5Z"/><path class="cls-200" d="M119.1,21.1c-.9-1.3-1.9-2.5-3.8-1.8,1-1.4,2.5-.8,3.8-.9Z"/><path class="cls-172" d="M107.6,36.6a12.2,12.2,0,0,1-1.7.7c-1,.3-1.7.1-2-1.1,1.8.6,2.6-.7,3.6-1.8Z"/><path class="cls-201" d="M111.3,26v5.8A4.8,4.8,0,0,1,111.3,26Z"/><path class="cls-201" d="M107.6,33.7c.3-1.4.6-2.7.8-4.1C108.5,31.1,109,32.6,107.6,33.7Z"/><path class="cls-201" d="M108.7,27.9c.2-1,.5-2,.7-3.1C109.5,25.9,109.7,27.1,108.7,27.9Z"/><path class="cls-136" d="M126,15.5l-.3-2.8c1,.2,1.1,1.1,1.2,1.9Z"/><path class="cls-201" d="M109.5,24.1c.3-1.1.6-2.2.8-3.3C110.5,22,110.7,23.2,109.5,24.1Z"/><path class="cls-172" d="M119.1,35.6h1l-.5,1.3Z"/><path class="cls-201" d="M112.3,23.2l-.8,2Z"/><path class="cls-172" d="M123.9,35.6l.2-1.3c.6.2,1,.5.8,1.2v.2Z"/><path class="cls-202" d="M144.2,33.5a.7.7,0,0,0-.2-.8c-.2-.2-.3-.4-.2-.6s.1-.3.2-.3V23.1a1.1,1.1,0,0,1,.2-1.8h-.1c.3-.5.4-1,.9-1.3a2,2,0,0,1,1.1,0,4.1,4.1,0,0,1,.7,1.5.6.6,0,0,0,.2.7,36.9,36.9,0,0,1-.1,12.4h0C145.4,35.7,144.7,34.7,144.2,33.5Z"/><path class="cls-173" d="M145.7,20.4h-.5a1.1,1.1,0,0,1-1.2-.1h-3.7q-.5-.3-.3-.6c0-.2.1-.3.2-.3h1c.8-.1,1.7,0,2.2-.4s3.2-1.1,4.8-.8,1.1,1.3.7,2.2H147A1.2,1.2,0,0,1,145.7,20.4Z"/><path class="cls-178" d="M146.9,34.6c0-4.1.1-8.3.1-12.4.3.4.7.7.7,1.1q.2,5.1,0,10.2C147.7,33.9,147.2,34.3,146.9,34.6Z"/><path class="cls-176" d="M140.2,19.4c0,.3.1.6.1.9l-3.1,1.9-.7-.4c.3-.5.4-1.2.8-1.4S139.4,20.3,140.2,19.4Z"/><path class="cls-176" d="M142.3,30.8V26.1A3.5,3.5,0,0,1,142.3,30.8Z"/><path class="cls-173" d="M144.2,33.5c.7.8,1.4,1.6,2.7,1.2C145,36,144.6,35.8,144.2,33.5Z"/><path class="cls-172" d="M136.1,35.5l2.2-.7A2.1,2.1,0,0,1,136.1,35.5Z"/><path class="cls-176" d="M139.2,23l-1.9-.7Z"/><path class="cls-173" d="M144.2,21.3l-.2,1.8C143.1,22.5,143.1,21.8,144.2,21.3Z"/><path class="cls-176" d="M144,20.3h1.2l-1.1.9A3.4,3.4,0,0,0,144,20.3Z"/><path class="cls-176" d="M144,31.8v.9c-.1-.2-.3-.4-.3-.6S143.9,31.9,144,31.8Z"/><path class="cls-176" d="M142,25.3a10.5,10.5,0,0,0-.8-1.1A10.5,10.5,0,0,1,142,25.3Z"/><path class="cls-176" d="M141.1,24.1l-1.1-.8Z"/><path class="cls-176" d="M145.7,20.4H147c-.1.4-.1.8-.2,1.2Z"/><path class="cls-203" d="M99.9,35.6H95.6a9.9,9.9,0,0,0-5.1.9,3.6,3.6,0,0,1-1.8.2c-2.1-.1-2.1-.1-2.2,1.8a3.4,3.4,0,0,0,0,1c-.6.5-1.5.3-2,.9h-.9c0-2.8-3.8-2.2-4.2-4.7C81,33,82.5,30.1,84.9,28s.9-5.2-.5-6.6-3.9-.2-5.3,1.7-1.2,2.9-2.8,3.8c-3.2,1.1-3.7-1.4-4.2-3.5s.3-4.7,3-5.6a4.6,4.6,0,0,1,4.4.4l1.3-.7c3-.5,5.9-2.3,8.7.3.9.9,1.3.3,1.8-.4s1.1-2.4,2.8-1.9h0c1.1.8,4.4-.1,2.3,3.2-.9,1.4,1.1,2.3,1.6,3.5a29.7,29.7,0,0,1,4,10.1c.6.9-.4,2.5,1.1,3.2h0C101.5,36.8,101.4,36.8,99.9,35.6Z"/><path class="cls-204" d="M79.5,18.2a45.9,45.9,0,0,0-5.1,1,1.7,1.7,0,0,0-1,1.4,18.2,18.2,0,0,0,.1,3.3c.2,2.6.2,2.6,3.3,2.2a1.5,1.5,0,0,1,.1,2.1c-2.7,3.2-.9,4.6,2.1,5.5a1.9,1.9,0,0,1-1.2,2.8l-1.8.7a3.9,3.9,0,0,1-4.8-.7,16.5,16.5,0,0,1-.9-7c.1-2.8.3-5.7.2-8.6a3.2,3.2,0,0,1,3-3.6c1.7-.8,3.7.1,5.4-.8S79.6,17.5,79.5,18.2Z"/><path class="cls-199" d="M77.8,36.5c.6-.8,1.5-1.5,1.1-2.7,1.5,0,1.5.8.9,1.8s.6.8,1,.9c2.3.4,2.9,1.9,2.8,3.9-.5-.4-.9-1.1-1.4-1.1C80.1,39.3,79,37.8,77.8,36.5Z"/><path class="cls-199" d="M84.5,40.4l2-.9Z"/><path class="cls-205" d="M124.9,35.5l-.8-1.2c.1-.2.1-.4-.2-.6a2.1,2.1,0,0,1-.5-1.3V21.7a2,2,0,0,1,.6-1.4h0c.6-.7,1.2-.7,1.7-.1h.1c.6.6.5,1.5.9,2.1a.5.5,0,0,0,.1.8l.3,6.6c0,1.4,0,2.9-.1,4.3S126,35.5,124.9,35.5Z"/><path class="cls-206" d="M69.2,35.6c-2,1.6-2,1.6-4.6-.1h0c-.8-.3-.5-1.3-1.2-1.7h0c-.3-.4-.7-.6-.8-1.1h0c-.7-.3-.5-1.3-1-1.8h-.1c-.4-.3-.4-.7-.5-1.1a1.5,1.5,0,0,1-.4,1.1l-.2,2.6c-1.1,2.4-2.3,2.3-3.6.1l1.1-15.1c.3-.1.5-.3.8-.3a23.5,23.5,0,0,0,4.2-1c1.3-1.1,2.8-1,4.4-.8,1.8,2.3,1.4,4.4-.2,6.5l-1,1.1c-.8.9-1.7,1.8-2.5,2.8a32.3,32.3,0,0,0,2.2,4.1c.7,1.1,1.2,2.6,3,2.7C69,33.5,69.1,34.9,69.2,35.6Z"/><path class="cls-207" d="M49.1,25.3c.3-1.4.6-2.8.8-4.2s-.1-2.9-2.2-2.8c-.2,0-.7-.7-.7-1s.5-1,.8-1l9.5-.5c.2,0,.5.5.5.8a.9.9,0,0,1-.5.7l-2.7.9c-.8-.1-1.7-.1-1.8.9a9.7,9.7,0,0,0-.1,2.4c-.2,3.7-.3,7.3-.5,11a20,20,0,0,1-.4,2.4c-.1.3-.7.8-1.1.7a1.8,1.8,0,0,1-1.4-.8,6.2,6.2,0,0,1-.4-2.3C49,30.1,49.1,27.7,49.1,25.3Z"/><path class="cls-191" d="M56.8,33.5c1.9,1.5,1.9,1.5,3.6-.1.1,1.2-.3,2.1-1.7,2.2S56.8,34.8,56.8,33.5Z"/><path class="cls-191" d="M63.4,33.8l1.2,1.7A1.5,1.5,0,0,1,63.4,33.8Z"/><path class="cls-191" d="M61.6,30.8l1,1.8C61.7,32.4,61.5,31.6,61.6,30.8Z"/><path class="cls-191" d="M60.6,30.8l.2-1.2.7,1.2Z"/><path class="cls-191" d="M62.6,32.6l.8,1.1Z"/><path class="cls-208" d="M78.9,16.5c-1.6,1.5-3.6.8-5.4.8l2.4-1Z"/><path class="cls-185" d="M98,22.2l-2.7-1.9c-1.1-.8-1.1-.9.3-2.2l.6-.6c.1-.1.1-.3.2-.5l-2.3-1.5,3-1.4h1.3c.8.4.5,2.3,1.8,1.8s.8-1.6,1.4-2.4a1.5,1.5,0,0,1,2.1-.4,5.5,5.5,0,0,1,2.1,1.9,21.1,21.1,0,0,1,.9,3.6c-.3,1.2-.6,2.4-1,3.6s-.4,1.9-.5,2.9a2.8,2.8,0,0,1-.4,1.2,1.1,1.1,0,0,1-1.1-.2h0c-.5-.6-.3-1.5-.9-2h0c-.6-.5-.4-1.4-1-1.9l-2.1-3.1a2.8,2.8,0,0,0-1.1-.8,1.9,1.9,0,0,0-1.3.1,1.5,1.5,0,0,0-.4,1.2A14.5,14.5,0,0,0,98,22.2Z"/><path class="cls-209" d="M104.7,26c.2-.1.3-.3.1-.5s.3-.6.8-.5a11.7,11.7,0,0,1-.4,2.6c0,.3-.7.4-1,.6l-.5-1.2A9.4,9.4,0,0,1,104.7,26Z"/><path class="cls-199" d="M103.1,35.5c-1.7-.7-1.2-2-1.1-3.2C102.3,33.3,102.7,34.4,103.1,35.5Z"/><path class="cls-210" d="M105.6,25l-.8.5c0-1.2-.4-2.5.9-3.3Z"/><path class="cls-210" d="M102.8,24.1c.8.4.9,1.1.9,2Z"/><path class="cls-210" d="M101.8,22.2a1.9,1.9,0,0,1,1,1.9Z"/><path class="cls-136" d="M108.7,13.8a10.5,10.5,0,0,1,.8-1.1Z"/><path class="cls-210" d="M104.7,26c0,.6-.2,1.1-1,1a1.4,1.4,0,0,1,0-.9Z"/><path class="cls-185" d="M94.1,15.5A3.1,3.1,0,0,0,92.2,18a8.1,8.1,0,0,1-.7,2.2,1.1,1.1,0,0,1-1.9.1,14.2,14.2,0,0,0-.8-1.8c-.6-1.2-1.1-1.2-2.9-.6a4.6,4.6,0,0,1-2.3.3,22.9,22.9,0,0,1-2.8-.7c-.1-1.4-1-1.9-2.1-2.3s-.3-.4-.5-.7l.8-.3a7.1,7.1,0,0,0,2.2-.7,1.9,1.9,0,0,1,2.9.2c2.3,2.6,5.1,2.8,8,1.4C93,14.7,93.6,14.6,94.1,15.5Z"/><path class="cls-172" d="M123.6,21.2c.1,3.2.1,6.4.2,9.6q-.5.8-.9,0c.1-3.2.1-6.4.1-9.6Z"/><path class="cls-172" d="M131.4,29.9l.3,3.7C130.3,32.1,130.3,31.9,131.4,29.9Z"/><path class="cls-200" d="M120.9,31.7c.3-1,.6-2,1-3.1C122,29.8,122.3,31,120.9,31.7Z"/><path class="cls-200" d="M122.9,30.8h.9v2a.7.7,0,0,1-.9,0Z"/><path class="cls-200" d="M121.8,25.5a20.9,20.9,0,0,1-.8-2.3A1.9,1.9,0,0,1,121.8,25.5Z"/><path class="cls-170" d="M126.7,22.4l-.9-2.1C126.7,20.7,126.8,21.5,126.7,22.4Z"/><path class="cls-170" d="M125.7,20.3H124C124.6,19.3,125.1,19.3,125.7,20.3Z"/><path class="cls-200" d="M123.6,21.2H123l1-.9Z"/><path class="cls-172" d="M131.7,33.6l.9,1Z"/><path class="cls-172" d="M122.9,32.8h.9v.9Z"/><path class="cls-200" d="M121,23.2a3.9,3.9,0,0,1-.8-1A3.9,3.9,0,0,0,121,23.2Z"/><path class="cls-200" d="M120,22.1l-.8-.9Z"/><path class="cls-211" d="M114.1,28.3c.4-1.2.8-2.8,1.4-4.4a1.3,1.3,0,0,1,1.1-.8,2.8,2.8,0,0,1,1.1.8,5.7,5.7,0,0,1-.2,7c-.3.5-1.2,1-1.5.8a3.8,3.8,0,0,1-1.6-1.5A10.5,10.5,0,0,1,114.1,28.3Z"/><path class="cls-212" d="M79.8,35.6l-.9-1.8-4.7.5a20,20,0,0,1-.5-2.6c-.3-1.8.2-3.1,2.1-3.5s1.4-1.1,1-2.1a.7.7,0,0,1,.1-.5c1.9-5.9,1.3-5.1,6.6-5.4l1.4-.2,2.7,4.5c.8,1.5.8,2.4-.6,3.3a10.4,10.4,0,0,0-4.1,4.9C82.4,33.9,80.9,34.6,79.8,35.6Z"/><path class="cls-199" d="M100.3,34.4l.3.2c-.1.3-.1.6-.3.8s-.5.3-.4-.2A3,3,0,0,1,100.3,34.4Z"/><path class="cls-213" d="M62,23.6c.4-2,.9-4,3.3-4.5.1,0,.3.1.3.2C65.8,21.9,63.8,22.7,62,23.6Z"/></g></g></svg>