<svg xmlns="http://www.w3.org/2000/svg" viewBox="0 0 571.8 126.4"><defs><style>.cls-1{fill:#fff;}.cls-2{fill:#335899;}.cls-3{fill:#fefefe;}.cls-4{fill:#335898;}.cls-5{fill:#34599a;}.cls-6{fill:#355999;}.cls-7{fill:#365a9a;}.cls-8{fill:#4264a0;}.cls-9{fill:#345899;}.cls-10{fill:#345999;}.cls-11{fill:#355a9a;}.cls-12{fill:#fdfdfe;}.cls-13{fill:#91b7d2;}.cls-14{fill:#345898;}.cls-15{fill:#35599a;}.cls-16{fill:#516ea4;}.cls-17{fill:#c0c2d4;}.cls-18{fill:#f9fafb;}.cls-19{fill:#375a9a;}.cls-20{fill:#375b9b;}.cls-21{fill:#102751;}.cls-22{fill:#385b9b;}.cls-23{fill:#365b9b;}.cls-24{fill:#375b9a;}.cls-25{fill:#abcee1;}.cls-26{fill:#0f2650;}.cls-27{fill:#ebf3f5;}.cls-28{fill:#d8fbfc;}.cls-29{fill:#3a5c9b;}.cls-30{fill:#45629d;}.cls-31{fill:#4a669f;}.cls-32{fill:#edf3f7;}.cls-33{fill:#d2f5f9;}.cls-34{fill:#fcfcfd;}.cls-35{fill:#bdd0de;}.cls-36{fill:#f6f9f9;}.cls-37{fill:#afcddd;}.cls-38{fill:#fdfdfd;}.cls-39{fill:#fafbfc;}.cls-40{fill:#628fa5;}</style></defs><title>lesgrandsvoisinscom</title><g id="Layer_2" data-name="Layer 2"><g id="logo-lesgrandsvoisins"><path class="cls-1" d="M210.2,14.4a14.3,14.3,0,0,1-2.1-1.2,2.1,2.1,0,0,1-.7-1.1c-.3-2,1.6-5.6,3.4-6.3,3.7-1.5,7.1-1.6,9.9,1.8a1.9,1.9,0,0,0,2.1.6,25.6,25.6,0,0,1,2.7-.5c.3.4.8.9.7,1.3-4.8,12.9-2.6,26.3-3.3,39.6a7.6,7.6,0,0,1-.3,2.1c-.8,3.3-3.7,5.9-2.8,9.9s3.2,7.2,8.3,7.4,8.4-.3,11.4-4.4,4.8-3.9,7.8.1,3.9,4.5,7.7,4.4c8.1-.3,10.2-1.8,11.6-9.9a22.3,22.3,0,0,1,.4-2.3,10.9,10.9,0,0,1,1.2-3.6c3.7-5.3,2.5-10.4-.7-15.4-.6-4.9-3.4-8-7.7-10-2.1-5.8-1.5-7.3,4.2-8.7,3.6-.8,2.8-3.2,1.8-5S263,8.5,260,9s-5,3.2-5.8,6.1c-1.4,4.7-3.9,8.2-8.8,9.5a2.1,2.1,0,0,1-1.1-.7c-.6-5.7-3.9-9.3-8.9-11.8a9.3,9.3,0,0,1-4.1-4.4c.6-.5,1-1.3,1.7-1.5a2.2,2.2,0,0,1,1.7.4c1.9,1.5,3.6,3.3,6.2,3.2a1.2,1.2,0,0,1,.9.5c1.5,2.4,4.9,3,5.9,5.9.1.3.8.4,1.2.5s.5-.5.5-.7a19.4,19.4,0,0,0,.2-2.4,3.2,3.2,0,0,1,1.4-2.9c2.5-1.7,4.6-3.9,7.5-5.1s6.7-.4,8.6,2.1c.4.5.6,1.2,1.1,1.6,3.3,3.1,2.9,6.7,1.5,10.5a2.8,2.8,0,0,1-2.3,2.2l-1.8.4c-1.3.5-1.6,1.7-.6,2.6l1.5,1.1c2.3,2.1,4.3,4.3,4.2,7.7a3.1,3.1,0,0,0,1.8,2.7c1.7.8,2,2.3,2,4,0,3.3-.1,6.7,0,10a5.2,5.2,0,0,1-1.9,4.7c-1.2,1.1-2.2,2.3-1.2,4.1-.8,3-.9,6.1-3.4,8.3a5.2,5.2,0,0,0-1.6,1.7c-1.2,2.9-3.9,3.3-6.3,3.6a25.1,25.1,0,0,1-6.7,0c-2.4-.3-4.7-.9-6.4-2.9a9.6,9.6,0,0,0-2.2-1.8c-1.7-1-2.3-1-3.8.4-5.9,5.3-12.7,5.1-19.8,3.4l-.9-.3c-1.2-.3-1.3-2.5-2.9-2.1s-2.1,1.4-3.3,1.9-4,1.6-6.4.6-3.1-2.6-4-4.5a6.9,6.9,0,0,0-.5-1.3,1,1,0,0,0-.7-.4c-.3,0-.7.3-.7.5C199.7,72,199.7,72,194,72H184c-3.6,0-5.3-1.2-6.3-4.7s-1-4.6-1.5-7c-1.6,1.2-1.4,2.8-1.6,4.4s-.6,3.3-3.4,3.4a8.1,8.1,0,0,0-5.6,2.4c-2.5,2.3-5.6,1.8-8.6,1.1-.8-.1-1.5-1.1-2.1-1.8a27.5,27.5,0,0,1-1.4-3c-.5-1.1-1.2-1.3-1.7-.5s-2.7,2-4.6,1.9a18.2,18.2,0,0,0-3.3,0c-2.3.1-4-.4-5.2-2.5s-2.3-1.6-3.7.2a9.5,9.5,0,0,0-1.2,1.6c-1.5,3.4-4.5,4.2-7.8,4.5a54,54,0,0,0-8,.7,6.2,6.2,0,0,1-5.6-2.1,102.6,102.6,0,0,1-6.9-7.9,8.8,8.8,0,0,1-1.7-5.3c.3-2.9.2-6.1,2.7-8.4,2.7.8,3,3,2.7,5.3-.6,4.9,1.6,8.4,5.4,11.1,1.2,2.8,3.6,2.5,6,2.5,8.8.1,10.8-1,11.6-10.4a9.4,9.4,0,0,1,.6-2.8,40.8,40.8,0,0,0,3.1-6.3c.5-1.6,1.1-3.2,3.2-2.8s2,2.2,2.1,3.8a13.3,13.3,0,0,1-1,6.5c-.8,2.1-.7,3.9,1,5.6s3.4,2.7,5.8,2.5c.6.1.6.1.4-1.4.2-3.3-.1-6.6.2-10s.7-4,3.1-4,2.6,1.9,3.1,3.7-.5,6.5,2.6,8.7c1,1.1,1.1,2.6,1.3,4,.4,3.1,2.5,4,4.9,1.9a10.3,10.3,0,0,1,5.7-2.8c3.5-.4,1.6-4,3-5.7s3.2-4.8,4.7-7.2a3.3,3.3,0,0,1,3.6-1.6c1.7.4,1.2,1.9,1.5,3.1,1,4.2-.3,8.6,1.1,12.7.6,2.2,2,3.1,4.3,2.7l1.9-.3c9-.8,9-.8,9-10.1a55.8,55.8,0,0,1,.2-8.2c.4-2.6,1.3-4.8,4.7-3.3a3.1,3.1,0,0,1,.9,1.1c.9,2.9.5,5.9.5,8.8s.2,4.1,2.4,5.2a4.4,4.4,0,0,1,.8,1.1c.1.6,0-.1.2.4.8,2-.5,5.6,3.3,5.3s2.3-3.8,2.7-6.1l.3-1.4c.5-4.4-.1-9,2.8-12.9.5-.7.3-1.8.2-2.8-.9-8.6.7-17.1.3-25.7a3.5,3.5,0,0,1,.3-1.4,6.4,6.4,0,0,0,.3-4.9l-.5-1.2c-3.2-3.4-4.3-3.2-5.5.7C211,13.2,210.9,13.9,210.2,14.4Z"/><path class="cls-1" d="M29.7,122.9a4.1,4.1,0,0,1-1.9-.2c-2-1-3.5-.7-4.7,1.4a4,4,0,0,1-3.7,1.7H8.4l-1.8-.2c-1.2-.4-5.6-6.2-5.6-7.4a2.8,2.8,0,0,1,1.8-3c3.8,4.8,8.2,8,14.8,5.9a7.1,7.1,0,0,0,3.2-1.7c3-2.9,6.6-2.8,10.2-1.1,5.5,2.8,5.5,2.9,9.7-1.7a5.5,5.5,0,0,1,2.1-1.9c2.7-.5,3.2,1.4,3.5,3.4s.6,2.4,2.3,2.4,2.1-1.3,2.5-2.5.2-4.7.5-7.1,1-4.5,3.6-4.3,2.5,2.5,2.6,4.4.1,5.2.1,7.7.6,2.5,2.5,2.6,2.5-.8,2.6-2.5-.1-5.4.1-8.1.6-4,3.2-3.9,2.8,1.9,3,3.7.1,2.2.1,3.4c.1,6.7.1,6.7,6.5,7.2s7.2-1.7,7.1-6.8a9.5,9.5,0,0,0-.5-2.3c-.6-2.4-.4-4.7,2.6-5.1s3.3,1.8,3.4,4.1a12,12,0,0,1,0,1.9,6.9,6.9,0,0,1-.2,1.3,6.6,6.6,0,0,0-.5,3.4l.3,1.2a8.6,8.6,0,0,1,.5,2.3c0,1.2.7-.2,1,.1,2.5-.1,3.7-1.5,4.1-3.9a15.8,15.8,0,0,1,.5-3.8c.4-1.5,1.2-2.6,2.9-2.7s2.9,1.2,3.2,2.9.3,4.2,1.7,5.9,3,1.6,3.6-1l.3-1.4c.9-2,.4-6.4,4.8-3.1a5.9,5.9,0,0,1,.4.8c1.2,2.2-.8,5.6,1.9,6.9s4.8.1,7.1-.2c4.3-.6,8.6.2,12.9-.1,1.9-.1,3-.6,3.2-2.5l.6-1.3c3.6-3.3,3.7-7.6,3.4-12.1a5,5,0,0,1,.5-1.3,5.2,5.2,0,0,1,1.1-1,3.5,3.5,0,0,1,1.4-.3c3.6.7,2.7,3.5,2.9,5.8a15.2,15.2,0,0,1-.3,2.1,6.4,6.4,0,0,0-.4,4.7,5.6,5.6,0,0,1,.4,1.2,32.7,32.7,0,0,1,.4,4.4.7.7,0,0,1-.6.7c.5.2,1.1-.3,1.6-.2,2.8.6,3.9-.8,4-3.3a116.2,116.2,0,0,0,0-17.7c-.4-5.8-5.2-7.4-10.2-4.6a13.9,13.9,0,0,1-14.3-.1c.3-2.2,2.1-2.6,3.8-2.8a25.7,25.7,0,0,1,4.8,0,7.6,7.6,0,0,0,5.3-1.8c2.4-1.9,5.3-2.7,8.4-1.2a5.5,5.5,0,0,1,2.6,1.9,8.8,8.8,0,0,0,2.5,2.2,2.1,2.1,0,0,0,1.7-.2,33.2,33.2,0,0,0,2.8-2.6c2.1-1.8,3.2-1.7,5.5.7-2.4,2.4-6.5,3.3-6.7,7.5a24.3,24.3,0,0,1-.2,10.4,5.5,5.5,0,0,0,.2,3.8c.8,4.2,4.3,4.3,7.4,4.2a81,81,0,0,0,8.6-.6c2.2-.2,4.2.1,5.1,2.5s-.6,1.8-1.8,1.9c-3,.2-6.1-.3-9,.8h-.9c-3.2-1.4-6.7-.2-10-1-1-.3-1.4.5-1.8,1.1a8.2,8.2,0,0,1-7.3,3c-2.8-.2-3.8-.9-4.7-3.7-.3-.8-.6-1.6-1.2-2.9-.7,1.6-1.2,2.8-1.8,3.9a4.8,4.8,0,0,1-4.7,2.7h-12c-1.1,0-2.3-.3-3.3.1-3.4,1.3-6.5-.1-9.8-.6-.9-.2-2-.6-2.8-.2-3.5,1.6-6.1.2-8.4-2.4a1.2,1.2,0,0,0-2,.3l-.6.7a4.5,4.5,0,0,1-4.5,2.1h-.5c-2.3.2-4.4-.6-6.6-.8s-4.4.8-6.6.7a53.1,53.1,0,0,1-8.9-1.3,4.5,4.5,0,0,0-3.6.4c-3,1.7-6.1,1.4-9.2.3-1-.4-1.6-.7-2.6-.1s-4.6.9-7,.5-2.2-1.1-3.2-1.8-1.2-1.3-1.8-1.3-1.3.8-1.9,1.3C36.3,126.9,33.3,126.7,29.7,122.9Z"/><path class="cls-2" d="M479,34.6l.2-.2v-.3c.9-2.3,0-5.1,2-7h0c.1-1.6.4-3,1.8-4h0c1.6-5.6,5.6-9.5,10-12.9,2.2-1.7,5.1-2.4,7.6-.6s4.3,3.9,3.3,7.3-1.4,5.3-4.4,5.6-2.5-3-3.3-5.1a23.4,23.4,0,0,0-7.7,11.2,55.1,55.1,0,0,0-3.3,21.7c.2,2.6.5,5.2,3.5,6.2s4.2-1.7,6.2-3.2c5.6-4.4,6.1-10.6,7.3-16.8s4-13.1,9.3-17.9c3.2-3,6-2.6,8.7.9,9.8,13.1,6.9,26.5.9,40h.1c-.8,2.2-1.3,4.7-3.9,5.7h0c-4.6,5.1-11.2,1.1-14.7-3.3a5.6,5.6,0,0,1-1.3-3.5,4.9,4.9,0,0,1,.5-2.3c-.8.5-.4,1.9-.8,3-3.8,6.6-10,6.5-16.3,5.5s-6.5-5.8-7.5-9.6A29.2,29.2,0,0,1,479,34.6Z"/><path class="cls-3" d="M521,59.5a10.6,10.6,0,0,1,.4-1.9c3.4-9,3.9-18.3,2.9-27.8-.4-3-1.3-5.6-3.7-7.5a4.3,4.3,0,0,1-1.4-2.4c-1.1-2.6-3.5-3.5-5.8-1.9a15.8,15.8,0,0,0-3.6,3.7A36.8,36.8,0,0,0,503,37.4c-.6,3.3-.9,6.7-1.2,10-.1,1.4-.2,2.5-2,2.6s-2.5,1.2-3.3,2.5l-1.5,3c-1.8,2.8-6.1,3.8-8.8,1.9a2.5,2.5,0,0,1-1.1-1.4,22.7,22.7,0,0,1-1.3-5.6,64.1,64.1,0,0,1,3.1-21.7,28.7,28.7,0,0,1,9.4-13.6,2.5,2.5,0,0,1,1.7-.2c.3.1.5.8.5,1.3a13.7,13.7,0,0,1-.2,1.9,9,9,0,0,0-.6,2.2,2,2,0,0,0,.9,1.5,2,2,0,0,0,1.7-.2c2.3-2,3.2-6.7,1.9-9.3a5,5,0,0,0-6.6-2.4,17.2,17.2,0,0,0-4,2.6,29.8,29.8,0,0,0-7.1,8.3l-1.6,2.3c-.6-2.4,1.3-4.6.6-7a2.7,2.7,0,0,1,1.1-.6c.6-.1,1.6.2,1.7,0,1.4-2.9,5.3-3.9,4.8-7.8h4.8c2.7-.1,5.5-.3,6.9,2.9.2.5,1,.8,1.6,1a1.9,1.9,0,0,1,1.4,2.1c.1,1.2,0,2.3.1,3.4a2.1,2.1,0,0,0,3.4,1.7,8.6,8.6,0,0,0,1.3-1.4,5.2,5.2,0,0,1,6-1.5c1.8.6,3.6.8,4.3,3.1s2,1.9,3.1,2.8c1.7-1.4,1.3-3,1.7-4.5s.7-1.8,1.9-1.6a5.9,5.9,0,0,0,1.9-.1c2.9-.2,2.9-.2,3.3,3.1v.5l-.6.5c-3.2.9-2.9,3.4-2.9,5.8.3,13-.7,26.1.9,39.1l-.3.7c-4.1-.3-4.4-.6-4.8-4.8-.1-.9.1-2-.9-2.5s-1.9.8-2.8,1.3Z"/><path class="cls-1" d="M47.9,7.7a3.4,3.4,0,0,1,3.6-1.9,2.8,2.8,0,0,0,2.8-1.4c1.2-2.6,3.7-2.9,6-3.3s6,.4,8.9,1.1a3.5,3.5,0,0,1,1.5,1.2l3.4,5.1a4.8,4.8,0,0,1,.4,4.6,8.7,8.7,0,0,0-.1,7.4,2.3,2.3,0,0,1,.2,1.8c-1.6,2.9.4,5.6.4,8.4,0,.8.9,1.7,1.6,2.3s2.1,3.4,2.1,5.6c-.1,4.1-.1,8.3,0,12.4,0,2-.2,3.8-1.9,5.2a5.7,5.7,0,0,0-2.1,4.1,4.5,4.5,0,0,1-2.8,3.6,6.8,6.8,0,0,0-1.7.9c-2.4,3-6,2.5-9.1,3.3a6.2,6.2,0,0,1-4.6-.9,5.2,5.2,0,0,0-5.5-.1c-1.1.6-2.4.8-3.5,1.4s-4.7.2-6.8-.9c-.3-.2-.3-.9-.4-1.3s.8-1.6,1.5-1.6c4.8.1,8.6-2.9,12.9-3.9a3.4,3.4,0,0,1,1.4.5c3.9,4.1,7.6,3.6,11.6-.2,6.1-5.7,6.9-12.8,6.8-20.4,0-2.1-1.3-3.1-2.6-4.3a3.5,3.5,0,0,1-.7-1.2c.1-5.1-2.7-7.4-7.6-7.7a2.3,2.3,0,0,1-.8-1.1,4,4,0,0,1,2.7-4.1c4.5-1.6,5.2-4.6,4.7-9-.3-2.4-.3-4.5-2.3-6.3a6.4,6.4,0,0,0-9,0c-3.4,3-5.6,6.5-5,11.2a25.4,25.4,0,0,1,.1,3.9v2.7a21.9,21.9,0,0,0,.4,5.7c.5,1.9,1.1,3.6,3.7,3.3s4.1,1.9,6.1,3.1a3.4,3.4,0,0,1,.9,1.2c.8,3.1,1.3,6.1.4,9.3s-1.7,3.7-4.2,3.6l-1.4-.2a4.7,4.7,0,0,0-3.1.1l-1.3.5c-2.7,3.2-6.1,4-10.2,3.7s-5.3-1.6-5.7-5,.8-8.1,4.2-8.9c1.8-.5,3.4-.7,3.4-3.1s-1.8-2.1-3.3-2.3-3.8-1.6-3.8-4.1a118.1,118.1,0,0,1-.2-11.9c.2-2.3,1-3.9,3.4-4.6C48.9,13.7,48.9,13.6,47.9,7.7Z"/><path class="cls-4" d="M394.5,31.7a7.6,7.6,0,0,0,.1-1.5,51.9,51.9,0,0,0,0-14.2v-.2c1.6-3.4,3.8-3.6,5.8-.1s3.9,7.3,4.5,11.5a34.5,34.5,0,0,0,1,5.6h-.1a40.4,40.4,0,0,1,4.7,10.4c-.1-9,.9-16.8.4-24.7a10,10,0,0,1,1.4-5.9c1.6-2.5,3.6-3.8,6-.7v0a4.4,4.4,0,0,1,1.4,4.3c-1.5,14.2-.3,28.5-.7,42.7v.5c-.1,5.1-1.8,8.5-4.6,8.3s-5.6-3.6-6.9-6.9c-.6-1.7-.7-3.5-1.3-5.1h0c-3.1-3.5-3.7-8.2-5.7-12.3.6,8.1-1.6,15.9-2.4,23.9V67a2.5,2.5,0,0,1-1.9,2h0c-3.7,1.1-5.3-1.3-5-4.1C392.2,53.7,391.4,42.5,394.5,31.7Z"/><path class="cls-3" d="M198.6,86.4c0-2.4,0-4.9.1-7.4s.6-2,2-2.1h3.7c3.9-.4,3.8,2.5,3.5,4.8a12.4,12.4,0,0,1-1.6,5.8,9.5,9.5,0,0,0,2.1.9c1.2.1,2.5,0,3.7,0,1.6-2.2,1.7-5.6,5.3-6a1.4,1.4,0,0,1,1,.8c.7,1.6-.4,3-.5,5,2-1.4,1.8-4.2,4-4.8,2.7,4.6.7,8.9-5,10.9,5.5-.5,8.6,3.6,12.7,5.8.4,6.5-2.2,11.4-8.1,14.4-2.4,1.2-4.7,1.1-6.3-1.3s.6-3.6,2.2-4.8,3.5-2.9,4.2-5.1.5-2.9-.8-4a3.4,3.4,0,0,0-4-.2c-5.4,2.4-8,10.6-4.9,15.7s6.6,5,11.1,2.2,5-2.2,7,1.1,4.7,3.3,7.7,2.2,4.1-3.5,3.9-6.5-1.9-9,.6-13.5c.8-1.4-.4-3.1-1.9-4s-3.6-.6-5.4.5-2.8,4.2-5.8,2.8c-1.6-3.1.7-4.8,2.6-6.3s7-2.5,10.4-1.3,4.5,4.8,4.1,7.9c-.5,5.3,0,10.5-.2,15.8s-2.2,8.5-8.8,8.6c-3.8,0-7.7.7-11-2.1-1-.9-2-.6-3,.1-3.9,2.8-7.5,2-10.7-1.2s-4.1-3.8-7.1-1.1a3.9,3.9,0,0,1-5.3-.4c-1.9-1.7-3.2-3.6-1.6-6.2,2.2-.8,2.8,3.5,4.6,2s.4-4.2.2-6.4-.1-2.9-.2-4.3c-.1-9.5-.1-9.5,7.9-13.9-8.5,1.5-7.6-5.1-9.5-9.6.6,6-3,11.1-1.8,17.3a27.8,27.8,0,0,1-.5,13.7c-1,.8-2.3,1.2-2.9,2.4-2.7,6.3-7.8,6.4-13.4,5.2a1.3,1.3,0,0,1-.8-1.1c1.1-2.9,2.1-5.9,6.4-4,1.9.9,2.8-.5,2.6-2.1a55.2,55.2,0,0,1,.1-11.5c.2-1.5-.1-3.6-2.1-3.6s-1.5,2.1-1.6,3.4c-.3,3.6-.8,7-2.9,10.1-.9,1.3-2,2.7-3.8,2.3s-2.2-2.2-2.4-3.8a51.5,51.5,0,0,1,.2-12.4,3.7,3.7,0,0,1,.7-1.2c4.2-1.5,7.8-5,12.8-3.6,1.4.4,1.6-.8,2-1.5S197.2,87.9,198.6,86.4Z"/><path class="cls-1" d="M106.5,44.2a3,3,0,0,1-1.9-3V32.1a4.1,4.1,0,0,1,1.2-3,10.6,10.6,0,0,0,2.6-8c0-1.1.1-2.2,0-3.3s.5-3.7,2.5-4.7a5.6,5.6,0,0,0,2.2-2.4,9.4,9.4,0,0,1,4.2-4.4,9.5,9.5,0,0,0,3-3c2-3.1,9.4-3.3,11.5-.2s3,2.8,4.5,4.2,1.5,1.1,3.4-.3a4.7,4.7,0,0,1,2.5-1.1c1.2-.1,1.6.8,1.7,1.8A1.9,1.9,0,0,1,142.7,9c-1,.5.2,1.3-.2,2,.2,8.1-.3,16.2-.2,24.3,0,2.9-1.6,4.3-4.5,4.4s-7-.1-10.5.1-4.8,1.8-3.7,5.2,1.8,3.8,2.4,5.7-1,5.2-3,7-3.9,1-5.5-.9a4.7,4.7,0,0,1-.6-1.5c-.4-8.1-.2-16.2-.1-24.2a7.8,7.8,0,0,1,.2-1.6c2.1-3.3,3.9-6.5,4.4-10.7s3.9-5.2,8.1-2.9l.9,1c2.1,1.9,3.4.4,4.6-1.2s.9-2.8-.5-4-2.1-2.4-3.6-3.1l-1-.7c-1.9-2.9-3.7-3.3-5.7-.2a2.8,2.8,0,0,1-1.1.8c-5.5,1.2-10.4,6.8-11.2,12.4-.4,3-.1,6-.6,9a5,5,0,0,1-.4,1.3c-1.7,2.7-3.4,5.2-2.9,8.7A4.7,4.7,0,0,1,106.5,44.2Z"/><path class="cls-3" d="M87.4,114.5c-.1-1.8-.1-3.5-.2-5.3a1.5,1.5,0,0,0-1.5-1.5c-.9-.1-1.7,0-2,.9s-.6,2.1-.2,2.7c1.5,2.1,1,4.2.2,6.3s-.7,2.1-1.1,3.2a3.1,3.1,0,0,1-3.9,2c-3.3-1-6.7,0-10.3-.5l-.3-10.9a9.7,9.7,0,0,0-.2-2.4,1.5,1.5,0,0,0-1.7-1.3c-.9,0-1.6.3-1.7,1.2a19.4,19.4,0,0,0-.2,3.4c-.1,2.8,0,5.7-.1,8.6a1.7,1.7,0,0,1-2.1,1.9l-2.4-.3c-3-.1-3.1-.1-3.1-3.1v-9.1a9.3,9.3,0,0,0-.4-2.3c-.2-.8-1.3-.9-2-.4a3.7,3.7,0,0,0-1.4,2.9,46.9,46.9,0,0,1-.1,5.3,11.6,11.6,0,0,1-.9,4.1c-1.6,3.5-1.6,2.9-5.1,1.8a2.4,2.4,0,0,1-1.6-2.2,13.4,13.4,0,0,0-.1-2c-.2-1.8-.2-1.8-2.8-2.2l-.4-.6c-.6-2.3.7-4.3.9-6.5.9-7.5-.1-9.4-7.1-11.8q-1.1-3.7,2.7-4.2h2c2.1,1,4.1,1.9,6.3-.3s3.2-.8,4.9.1l1,.8c1.6,1.4,2.9.2,4.3-.4s2.7-.8,3.7.6a2.3,2.3,0,0,1-.6,3.6c-1.4.8-3.1.9-4.4,2s-4.2,2-6.4-.9c-2.1,5.9-1.9,11.4-1.7,16.9.1.9.3,2.1,1.5,2.2s1.3-1.2,1.5-2.1.1-3.2.2-4.8a9.4,9.4,0,0,1,1.6-4.5c1.2-1.7,2.6-3.9,4.7-3.5s1.8,3.4,1.9,5.4-.2,5.7.2,8.6c.1.8.4,1.7,1.4,1.7s1.2-.9,1.4-1.6a19.3,19.3,0,0,0,.2-4.8c-.2-3.9,1.7-6.7,4.2-9.4.9-.9,2-1.8,3.4-1.2s1.5,1.9,1.5,3.2c.2,2.9-.9,5.7-.7,8.6s-.2,3.1,1.8,5c.5-7.6,2.9-14.5-1.5-21.2l2.2-.2a19.6,19.6,0,0,1,11.5,0H95a5,5,0,0,1,5.7,0h3.9a8.9,8.9,0,0,0,7.1-.5c3.3-1.5,7.2-.3,10.3,2.1a3.6,3.6,0,0,1,.8,1.2c1,4.9-.5,9.5-2.3,13.9-.6,1.5-1.6,3-3.5,2.8s-1.9-2.2-2.1-3.8c-.4-3.3.5-6.9-1.2-10.7-3.2,4.3-1,9-2.9,12.9l-.6.5c-2.3-1-2.4-1-2.7,1.2a6.8,6.8,0,0,1-.2,1.4c-.2.4-.6.6-1,.9-1.8-3.1-1-6.5-.7-9.8.7-7.5-2.9-10.5-9.9-7.7-1.7.7-2.9.3-4.4-.6-4.4-2.6-11.8.9-12.6,5.9a32.5,32.5,0,0,0,0,13.9c2.1-2.4,1.6-4.7,1.6-6.7a11.7,11.7,0,0,1,4.8-10c2.2-1.8,4.2-1.6,4.2,1.5S91.2,111.7,87.4,114.5Z"/><path class="cls-3" d="M342.9,64.1c-1.1.1-2-.2-2.1-1.4,0-2.8,0-5.5-.1-8.2a13.1,13.1,0,0,0-.1-2.8,1.9,1.9,0,0,0-1-1.4,1.8,1.8,0,0,0-2.3,1.1c-.4,2-1.1,4-.5,6.1s.3,1.2.4,1.9a1.3,1.3,0,0,1-1,1.8c-1.6.3-2.3,1.5-3,2.8a2.5,2.5,0,0,1-2.4,1.3l-7.1-.3a2.6,2.6,0,0,1-1.1-.7,17.1,17.1,0,0,0-2.6-2.1c-1.9-.9-2.7-2.2-2.2-4.2s-.3-4.4-.1-6.6,0-4.1,0-6.2-.8-2-2.2-1.1a15.8,15.8,0,0,0-1.5,1.2l-.6-.5c-1-1.9-.3-3.8.2-5.6,2.1-7.4,3.3-15,5-22.5a8.9,8.9,0,0,0,.3-2.8c-.2-.9-.5-1.6-1.3-1.8s-1.5.5-1.9,1.2a28.1,28.1,0,0,0-1.6,6.5c-1.3,7-1.9,14.3-5.7,20.6a1.7,1.7,0,0,1-1.4.2,5.6,5.6,0,0,1-1.9-3.8c-.7-6.6-3.7-12.8-3.8-19.6,0-1.1-.4-2.5-1.7-2.4s-1.6,1.8-1.4,3,.7,4.7,1.1,7,.7,3.8-.3,5.6l-.6.5c-2.8-1.6-4.1-4.1-3.4-7.1a11,11,0,0,0,0-5.1c-.4-2.1-.1-4.4-.1-6.7a15.9,15.9,0,0,1,8.7.4,3.4,3.4,0,0,1,2.6,3.6V27a4.3,4.3,0,0,0,1.6,3.8,1.2,1.2,0,0,0,1.9-.6,9.7,9.7,0,0,0,.3-2.3c.2-2.7-.4-5.5.6-8.1a1.2,1.2,0,0,0,0-1c-1.4-2.8.1-4.8,2.1-6.6a14.3,14.3,0,0,0,1.4-2c2-2.7,2.7-2.9,6.5-1.5h0c.3,1.2.6,2.3,1,3.5A5.3,5.3,0,0,0,322,14a1.8,1.8,0,0,0,3,.7c1-1,1.7-2.3,3.4-2a3.6,3.6,0,0,1-.6,2.7c-5.2,8.5-7.1,18-7.6,27.8A30.9,30.9,0,0,0,323.3,59c1,1.9,2.4,3.6,4.8,3.5s3.1-2,3.9-3.8c5.2-11.3,6.2-23.3,5.3-35.5-.4-5.6-5.1-7.7-8.9-10.6,1.1-1.7,2.8-.9,4.3-1s3.7.2,4.3,2.5a1.5,1.5,0,0,0,.9,1c1.7.5,2.5,1.7,3.4,3s1.2,1,2.6-.2l.7-.6c1.8,1.9,1.5,4.2,1.4,6.4-1,11.9-1.9,23.9-1.9,35.8A6.8,6.8,0,0,1,342.9,64.1Z"/><path class="cls-2" d="M440.5,52.2v.3c.2,6.7-3.2,11-9.2,13.6-4.5,1.9-8.2.7-10.2-3.9a18.5,18.5,0,0,1-.6-13.1c.7-2.1,2-3.8,4.5-3.6s3.1,2.4,3.4,4.6-.3,3.8.6,5.6c4.7-2.8,4-11.4-1.4-15-3.3-2.1-6-4.6-6.2-8.5a31.7,31.7,0,0,1,3-15.4c.3-.7,1.1-1.2,1.3-1.9,1.1-3.8,3.4-6.3,7.5-5.9s6.5,4.6,6.9,9.2a6.5,6.5,0,0,0,.4,1.3v2.3c-.9,3.5.2,7.2-1.2,10.7-.9,1.5-2.3,2.3-4,1.4s-1.5-2.3-1.3-3.7a32.9,32.9,0,0,0,.3-9.9,1.9,1.9,0,0,0-.9-1.6c-4.3,4.3-4.1,11.3.4,14.9a15.8,15.8,0,0,1,3.6,3.7c2.4,2.9,2.5,6.3,2.7,9.8C440.2,48.8,439.8,50.6,440.5,52.2Z"/><path class="cls-3" d="M440.5,19.5l-.7-2.2a12.5,12.5,0,0,0-1-2.7c-1.3-2.5-3.2-4.6-6.2-4.7s-4.6,1.9-5.8,4.2a24.5,24.5,0,0,0-2.4,5.8,57.7,57.7,0,0,0-1.7,9.4c-.6,4.5.9,8.2,5.4,10.1a6.5,6.5,0,0,1,4.2,4.9,46.9,46.9,0,0,1,1.2,7.5,6.1,6.1,0,0,1-4.5,6.5c-.4.2-1.4-.4-1.4-.7a36.4,36.4,0,0,1-.4-5.7c-.1-1.1.1-2.3,0-3.4a2.6,2.6,0,0,0-4.3-1.5,5.2,5.2,0,0,0-1.4,2.5,21.5,21.5,0,0,0,.4,11.8,8,8,0,0,0,1.9,3.2,4.4,4.4,0,0,0,4.8,1.4,21.7,21.7,0,0,0,8.5-5.1,10,10,0,0,0,2.6-5.1,29.9,29.9,0,0,1,.8-3.2v.4c.2,7,.2,7-4.1,12a5.3,5.3,0,0,1-2,1.3l-3.3,1.9c-2.4,1.6-4.1,1.5-6.4-.5l-1.4-1.2c-1.6-1.4-3.6-1.6-5.1,0a9,9,0,0,1-3,2.1c-2,.8-3.5.8-5-1.1s-3.3-1.9-3.9-3.3-.2-4.1-.3-6.1a19.4,19.4,0,0,1,.2-2.4c1,2.1,2,4.2,3.1,6.3a18.4,18.4,0,0,0,2.6,4,3.3,3.3,0,0,0,5.6-1.7,24.8,24.8,0,0,0,.3-4.7c0-11-.2-22-.1-33,0-3.2.5-6.3.6-9.5.1-1.7,0-3.5,0-5.2,1.5-.3,2.8-.3,3.1,1.8a2.7,2.7,0,0,0,.6,1.2c.6.8,2.6.6,2.9-.3a3.2,3.2,0,0,0,.3-.9A4.7,4.7,0,0,1,427,9.4a8.3,8.3,0,0,1,5.8-1.7,12.7,12.7,0,0,1,2.8.6,2.3,2.3,0,0,1,1.2.6c1.2,1.7,2.4,3.3,3.5,5.1a8.2,8.2,0,0,1,.6,2.7A27,27,0,0,1,440.5,19.5Z"/><path class="cls-3" d="M440.5,120.1a7,7,0,0,0-4.7-1,1.4,1.4,0,0,0-.2-.6c1.8-5.1-.2-9.9-.5-15-2.1.9-1.8,2.3-1.9,3.5a9.6,9.6,0,0,1-1.1,4.1c-.9,1.5-1.6,3.6-3.7,3.1s-1.3-2.7-1.4-4.2,1.1-4.3.3-6.6c-2.6,2.7-3.8,10.8-2,13.4s3,1.4,4.6.3,4.1-1.7,5.1,1.4c-.1.2-.1.4-.2.6-1.6-.1-3.1-.1-4.3,1.4a8.1,8.1,0,0,1-2.3,1.7,1.7,1.7,0,0,1-2.1,0,10,10,0,0,1-2.4-1.6c-1.5-1.5-3.4-1.5-5.3-1.7a33.2,33.2,0,0,0,1.7-14c-.2-2.5.1-5.6-3.1-6.3s-4.6,2-6.4,4.3c2.1.7,4.6-2.3,5.7,1s-.8,4.4-3.3,5.4a15.7,15.7,0,0,0-3.3,1.9c-1.8,1.6-3.8,3.3-2.6,6s3.7,2.7,6.2,2.3,3.3-1.7,5.1-.6a20.9,20.9,0,0,0-.8,2.3c-.3,1.4-1.2,1.7-2.5,1.7s-3.2.1-4.8.3-3.6-.1-4.2-2.5c-.2-.6-1-1.1-1.6-1.7s-2.7-.2-2.4-2.3.1-4,2.1-5.1,2.9-3.2,3.2-5.8.1-5.1,2.4-7c.6-.5.7-1.7,1.1-2.7,2.5,0,5.1-.2,7.6,0s3.6.5,3.6,2.9c.1.3.6.6,1,.8h1c6.8,0,13.7-.1,20.6,0,1.9,0,3.5-.3,3.8-2.6a2.1,2.1,0,0,1,1.3-1.1,7.1,7.1,0,0,1,2.9,0,3.3,3.3,0,0,1,1.9,1.3c.8,1.8,1.6,3.8.2,5.8a28.5,28.5,0,0,0-1.6,3,7.5,7.5,0,0,0-1,5.1l-.7.2c-2.7-1-2.1-3-1.5-5.1s1.9-3,1.1-5.4c-2.1,3.6-4.6,6-9.3,3.3,4.4,5.7,2.2,10.5-.7,15.3Z"/><path class="cls-5" d="M70.7,96.2c3,1.7,4,4.4,4,7.7a19.3,19.3,0,0,1-.1,2.4c-.3,3.4-.9,6.9-.3,10.4a2.1,2.1,0,0,1-1.8,2.5,2.4,2.4,0,0,1-2.8-1.4,7.1,7.1,0,0,1-.7-3.2c0-2.5.4-5,.6-7.6s.8-3.7,0-5.6c-2.5.1-3.2,2.4-4.5,3.8a7.4,7.4,0,0,0-2,5.7,46.9,46.9,0,0,1-.1,5.3,5.9,5.9,0,0,1-.4,2.3,3.1,3.1,0,0,1-1.7,1.5,1.8,1.8,0,0,1-2.4-1,9,9,0,0,1-.9-3.2c0-2.7.2-5.4.2-8.1s0-3.2-.1-4.8a1.2,1.2,0,0,0-.5-.7,1.1,1.1,0,0,0-.8.1c-1.4,1.8-2.9,3.4-4.1,5.3a6,6,0,0,0-.6,2.7c0,2.1.1,4.2.1,6.3a2.6,2.6,0,0,1-2.2,2.7,2.9,2.9,0,0,1-3.3-2.1,12.3,12.3,0,0,1-.3-3.3c.2-5.4.5-10.8.7-16.3a.6.6,0,0,1,.1-.4c.5-.6.9-1.5,1.5-1.7a2.7,2.7,0,0,1,2,.9A20.2,20.2,0,0,1,52,100c2.4-2.7,4.7-4.8,8.3-3.9H61c2.8,3.8,5.6.4,8.3,0Z"/><path class="cls-1" d="M14.3,36.5c-1-.5-2.1-1.4-1.7-2.5.9-2.8-.1-5.3-.7-7.9A11.5,11.5,0,0,1,12,20a9.7,9.7,0,0,0,0-5.6,20.1,20.1,0,0,1-.5-4.2c-.1-2.2,1.1-3.5,3.1-4.4a8.4,8.4,0,0,1,7.7.3,3.7,3.7,0,0,1,2.6,3.7c-.3,2.8.7,5.3,2,7.7a8.3,8.3,0,0,1,.9,4.6c-.4,3.3.8,6.3,1.2,9.4,0,.2.7.4,1,.5s.5-.6.5-.7c-1.3-2.5-.2-5,.3-7.4A10.8,10.8,0,0,0,30,17c-.5-1.2-1.5-2.4-1-4s1.5-4.3,3.2-5.8a7.7,7.7,0,0,1,3.5-1.3c1.1-.2,1.6.8,1.7,1.8s-2.8,2-2.9,3.9a5.6,5.6,0,0,1-.4,1.2,5.2,5.2,0,0,0,.3,3l.3,1.4c.2,3.9.1,7.7.1,11.6a20,20,0,0,1-.4,2.4c-2.8,5.7-3.2,11.8-3.3,18.1-.1,3.1-.8,5.7-4.8,5.7s-4.7-2.6-4.6-5.8c.2-5.2-.5-10.3,1.8-15.5s.5-8.5-.5-12.6-1.1-5.3-1.7-7.9-.9-4.1-3.5-3.7-1.5,2.5-1.7,4c-1.1,6,.7,12.1-.5,18.1C15.3,33.3,15.8,35.1,14.3,36.5Z"/><path class="cls-3" d="M33.6,12.6c.1-1.1.4-2.1.4-3.2s.8-1.8,2-1.7H47.9a2.7,2.7,0,0,1,1.9,2.6,11,11,0,0,1-.7,4.1A3.1,3.1,0,0,1,46,16.3c-1.1.1-2.2,0-3.3.2a2.2,2.2,0,0,0-1.3,1.2,12,12,0,0,0-.5,3.8c0,3.6.2,7.3.4,11,.1,1.4.6,1.9,2.1,2l3.8.2a1.6,1.6,0,0,1,1.6,1.9,10.8,10.8,0,0,1-.3,1.9c-.3,3.5-.3,3.5-3.8,3.8a6.1,6.1,0,0,0-1.9.1c-.5.2-1.3.7-1.3,1.1-.2,2.8-1.3,5.6-.3,8.5a2.3,2.3,0,0,0,2.4,1.8h5.3c2.1.1,3.8-.1,4.2-2.7,0-.4.8-.9,1.4-1a9.6,9.6,0,0,1,2.4,0c-1.3,3.7-.4,7.5-1.1,11.2a22.2,22.2,0,0,0-5.2,2.3,10,10,0,0,1-6.2,1.8,18.7,18.7,0,0,0-4.1.9H37.4c-4.4,1.2-5.2-3.4-8-4.8A8.3,8.3,0,0,1,29,60c0-2.7-1.7-3.6-4-3.9s-4.1-1.8-4.2-4.4c-.2-12.4-.5-24.9.2-37.3a3.9,3.9,0,0,1,.5-1.4l.6-.6a7.4,7.4,0,0,1,.8,2.2c.2,2,0,4,1.4,5.9s.5,2.1.6,3.2-.1,4.7.7,7a4.2,4.2,0,0,1-1.2,4.9A4.6,4.6,0,0,0,23,39V51.4c.1,1.8.6,2.3,2.3,2.4h2.4c1.1,0,2-.6,1.9-1.7-.3-3.6,1-7.1.3-10.8a4.9,4.9,0,0,1,.3-2.7c1.1-2.6,2.3-5.2,3.4-7.7,2.2,3,1.4,6.5.9,9.7-1,6.1-.5,12.1.4,18.1.5,2.6,1.5,4.9,4.4,4.7s6.9-.5,9.1-3.6c1.1-1.5-.3-2.5-1.7-2.3-3.8.3-7.2.9-8-4.7-1.3-8.6-1.1-10.1,4.5-13.7.4-.2.6-.6.7-1.5-5.1-.3-5.4-3.8-5.4-7.9,0-2.6-.5-5.1-.5-7.7.1-6.1,0-6.1,6.1-8,1.1-.3,2.4-.6,2.4-1.9s-1.6-1.7-2.8-1.9C40,9.7,37.1,12.5,33.6,12.6Z"/><path class="cls-3" d="M536.7,91.5c.2-2.9.5-3.2,2.8-3.1a9.9,9.9,0,0,1,2.4.3,2.8,2.8,0,0,1,2.3,3.1c.1,1.3,0,2.6.1,3.8.2,3.3,1.2,4.2,4.4,4.3l8.1.4a3,3,0,0,0,3-1.9c.9-2.2,2.6-2.5,4.6-2.4l5.7.2a1.9,1.9,0,0,1,1.6,2.4,26.2,26.2,0,0,1-1.5,3.9,4.7,4.7,0,0,1-1.9,1.2,1,1,0,0,1-.4-.5c-.5-1.7-.8-3.6-3.2-3.4s-3.9,1.8-5,3.9-.3,3.3,1.2,4.6l.8.6c2.1,1.2,4.5,2.6,3.2,5.4s-4,1.3-6.2.9-3.3-.4-4.8.2-2.9.6-3.9-.8a3.3,3.3,0,0,1,0-4c.9-1.5,2.1-2.8,2.6-4.6s.5-2.2-.6-3-2.1-.2-3,.6c-2.7,2.1-4,7.8-2.5,10.9s4.8,4.7,8.5,2.2c1.1-.7,2-2.1,3.7-1.4s1.8,5.2,5.4,3.8,4.2-4,3.9-7.3a7.8,7.8,0,0,1-.2-3.7l.5-.6c2.7,1.1,3.1,1.4,2.6,3.1s0,2.8.2,4.2.3,4.1-2.5,4.8c-1,.2-1.7,1.4-2.6,2s-3.4,1.7-5.3.4a4,4,0,0,0-1.8-.7c-.9-.1-2.1-.2-2.6.3s-3.2,1.3-4.9,1.3-2.6.1-3.1-1.9a2.3,2.3,0,0,0-3.5-1.3,2.1,2.1,0,0,1-2.6-.4,2.3,2.3,0,0,0-3.4-.1c-1.1.8-5.6.9-7.2.4s-.4-.4-.6-.7a13.3,13.3,0,0,1,6.3-3.3c2.9-.5,3.7-2.2,3.8-4.9.2-5.3-1.2-10.4-1.1-15.6C540,93,538.5,92.1,536.7,91.5Z"/><path class="cls-3" d="M367.7,64.4c-1.3,1.5-3.8,1.7-4.4,4.1,0,.2-1,.4-1.6.4s-1.6-.5-2.3-.3-2.8.5-3.6-1.5-2.2-1.7-3.7-1.8h-4.7c1.2-14.6.4-29.3.6-43.9,0-2.3.5-5-3.3-4.8-.5-5.4.5-5,4.9-4.9,2.1,0,2.6.5,2.6,2.6s.1,4.1,0,6.2.1,1.8-.4,2.3c-2.5,2.8-.8,5.6.3,8s1.1,3.1.3,4.9a11.4,11.4,0,0,0-.7,3.2,5.4,5.4,0,0,0-.1,2.8,6.9,6.9,0,0,1,0,5.1,3,3,0,0,0,3.5,3.7l2.8-.4a1.8,1.8,0,0,1,1.9,1.1,20.1,20.1,0,0,0,1.4,2.5,1.3,1.3,0,0,0,2.3-.4c1.6-3.9,1-7.8.2-11.7-1.5-1.4-2.6-3.2-4.9-3.5a1.9,1.9,0,0,1-1.6-1.5,17.4,17.4,0,0,1-1.1-5.6c.1-2.6-.2-5.1.1-7.7s.2-6.1,3-8.1c.5-.4.5-1.2.8-1.7s.6-1.4,1-1.5,3.3-1.1,3.4-3.4a1.9,1.9,0,0,1,1.1-.4,24.5,24.5,0,0,0,2.7.2c2.5-.2,2.5-.3,3.3,2.2a2.8,2.8,0,0,1,.1.9l-.6.4c-7.1.2-9.6,5.3-11.5,10.9s-1.9,10.8,3.8,14.8,6.1,12.5,3.4,17.6-6.4,5.3-9.8,1.2c-1.8-2.1-2.7-1-3.3.7-1.4,3.9,2.2,8,6.6,7.6,2.3-.2,4.5-1.6,7-.7Z"/><path class="cls-5" d="M379.2,60.3V42.6c.7-8.4.4-16.8.9-25.2.1-1.8.4-3.5,2.3-4.3s3.4-.7,4.4,1.4h0c2.9,5.8,2,12.2,1.3,18.2-.9,7.9-.5,15.8-.8,23.7-.1,1.3.4,2.8-.6,4.1h.1c-.9,1.3-.1,2.9-.8,4.2s-1.3,3.2-3.2,3-3-1.7-3.1-3.6S379.9,61.4,379.2,60.3Z"/><path class="cls-3" d="M202.6,47c-2.9-.8-3.8-.4-3.9,2.1s-.1,7.6,0,11.4a27.5,27.5,0,0,1-1,7,2,2,0,0,1-2.1,1.6,18.2,18.2,0,0,1-3.3,0,10.2,10.2,0,0,0-6,.5c-1.5.7-2.8-.3-4.1-.8s-.6-.7-.7-1.1a19.3,19.3,0,0,1-.1-2.4h.7c4.6,1.5,5.5,1,5.6-3.6q.2-21.3,0-42.6a9.7,9.7,0,0,0-.4-2.9c-.5-1.8-.1-4.7-2.8-4.9s-3.1,2.3-4.3,3.9-.9,6.5-4.5,7.9c-2.4-5.9-.2-12.4,5-15.1a3.2,3.2,0,0,1,3.6-.2h1.9c4.6-2,6.2,2.4,8.9,4.4a40.3,40.3,0,0,1-.3,10.4c-1.4,10.5-1.8,21-2.3,31.5-.2,3-.3,6.3,2.2,8.9,2.1-1.6,1.6-3.6,1.6-5.5.1-7,0-14,0-21a11.6,11.6,0,0,1,.8-5.2,1.7,1.7,0,0,1,1.3-.8C202.3,35.4,204.4,40.7,202.6,47Z"/><path class="cls-3" d="M145.9,122c-1.2-1.9-1-3.9-.9-5.9,4.5,2,5.3,1.6,5.4-3.5s.5-7.7-.8-11.5-3.5-4.4-6.7-3.3-4.9,3.5-8.2,3.8c-1.4.1-2.1,14.9-.8,15.9s2.2.1,3.2.5a7.6,7.6,0,0,1,.1,1.5c.2,2.9-.5,3.3-3.6,3.2l-9.8-.2a83,83,0,0,0-9.9,1c-1.8.2-2.8-.4-3.1-2.5s-.4-4.4-.6-6.6l.2-.2a1.9,1.9,0,0,1,1.9,1.2c1.6,3.4,3.8,5,7.3,2.2a2.7,2.7,0,0,1,2.7-.5c4.2,2.1,4.1-.8,4.1-3.5s-.1-6.4.1-9.5-1.1-5.5-4.5-6.1l-.2-.2c-.5-1-.5-1.9,1-1.8h3.9a47.4,47.4,0,0,0,11.9.1c1.7-.1,2.8-.9,3-2.5s1-1.5,1.9-1.3a32,32,0,0,1,4.2,1,1,1,0,0,1,.8.4c1.1,2.6,4.4,3.7,4.2,7.3-.4,5.4-.1,10.8-.1,16.2-.1,1.7-.5,3.4-.8,5.3C149.8,123.3,147.8,123.8,145.9,122Z"/><path class="cls-3" d="M324.5,119.1c-.7,1.2-1.6,2.2-3.1,1.3-3.4-2-7.1-1.3-10.7-1.2-1.8,0-3,1.5-4.4,2.6s-2.1,1.5-3-.1-3.6-2.4-5.2-3.9-2.2-.8-3.4.9a2.6,2.6,0,0,1-1.8,1.3,2.1,2.1,0,0,0-2.1,2.2,1.4,1.4,0,0,1-1.6,1.3l-6.1-.6c-2.1-.2-4.1-.3-6.1-.6-.5,0-1-.6-1.4-1.1a14.3,14.3,0,0,1-1.2-2.1l.6-.4a3.1,3.1,0,0,1,1.9,0c12.6,2.8,20.8-3.5,21.3-16.5.2-4.2-.3-8.3-.1-12.4l.5-.6c1.8,1,3.1,2.1,2.9,4.4s.4,2.5.5,3.7.2,2.6,2.5,2.6h16.6c1.5,0,2.8-.2,3.8-1.6s1.8-1.1,2.8-1.5,1.4.2,1.5,1.1a12.1,12.1,0,0,1,.1,1.9l-.5.5c-2.6.4-3.4,2.4-4.2,4.6-1.7,4.5-2,4.5-5.1.8-.3-.4-.7-.7-1.9-.6,1.5,4.9-.1,11,6.5,13.5Z"/><path class="cls-6" d="M344.7,16.5a.5.5,0,0,0,.2-.4c.7-1.2,1.2-2.9,3.1-2.3s1.7,2.1,1.8,3.6-.1,4.4-.1,6.7l-.3,30.1c0,1.9-.1,3.8-.1,5.7a6.8,6.8,0,0,1-1.9,5.3h0c-1.9,1.3-3.3.2-4.6-1.1h.1a16.9,16.9,0,0,1-.4-3.8c.5-11.5,1.2-22.9,1.7-34.4.2-2.9.3-5.7.4-8.6A.8.8,0,0,0,344.7,16.5Z"/><path class="cls-1" d="M184.3,7.7c-3.6.2-5.5,3-7.2,5.4s-1.1,4.2-1.4,6.3a24.1,24.1,0,0,0,0,3.8l-.3.5c-2.8,1.7-1.5,4.5-2,6.9s-.2,4.7-.7,7a8.3,8.3,0,0,1-.7,1.3c-2.4,2.2-2.6,5.2-2.8,8.2s.1,3.5-.5,5.2a2.6,2.6,0,0,1-.8,1.3c-4.1,1.6-7.2.1-8.4-4.5-.8-3-1.1-6.1-2.5-9s1.8-4.8,2.8-7.2c3.5-1.5,2.9-4.8,3.6-7.6a3.7,3.7,0,0,1,1.7-2.2c2.4,1.4,2.8,3.4,2,6.1s-.9,3.7-2.3,5.1-3.3,5.7-1.8,9.2c.2.4.1.9.3,1.4s1.2,2,1.9,1.7.8-1.3.8-2.1a13.9,13.9,0,0,1,2-7.7,8.5,8.5,0,0,0,.9-3.1c.1-2.1,0-4.2,0-6.3s.6-5,3.2-6.4a3.5,3.5,0,0,0,1.6-3.3,12.1,12.1,0,0,0,0-1.9,6.6,6.6,0,0,1,2.5-6.3,6.7,6.7,0,0,0,1.4-1.9,3.3,3.3,0,0,1,3.2-1.8A3.4,3.4,0,0,1,184.3,7.7Z"/><path class="cls-3" d="M330.2,122c-.3-1-.7-1.9-1-2.9l.6-.3c3.8,1,7.5-.8,10.9-.9,7-.3,5.5-4.4,5.6-8.1s2.2-4.8,4.7-6.2c-5.1-2-7-1.1-7,3.5s-2.9,6.8-6.3,8.8a3.1,3.1,0,0,1-4.3-.7c-1.4-1.6-.7-3,.6-4.2l1.7-1.6c4.3-4.6,3.6-7.2-2.3-9.1l-.4-.5a12.1,12.1,0,0,1,.1-1.9c.3-1.4,1.1-2.1,2.3-1.8s3.8.5,4.6,2.7,1.5,1.5,2.7,1.5l7.5-.4c1.6-.1,2.9-.2,3.1-2.2s1.6-1.6,2.9-1.7c1.4,3.6,1,7.1.6,10.8s-1.7,8.7,2.8,11.7l.4.6c-2.2,2-4.1.1-6.1-.5-.3-.1-.5-.8-.6-1.3-.5-2.1-1.3-4.2-1.1-6.5a2.3,2.3,0,0,0-1.7-2.6c-1-.5-2-.1-2,1.1-.1,2.8,0,5.7-.1,8.6a19.2,19.2,0,0,1,0,2.4c-.1,2-.5,2.6-2.6,2.6-5.2.1-10.5.3-15.6-.9Z"/><path class="cls-3" d="M142,8.7l1.9-1h11.6c6.1-.9,10.4,4.4,8.6,10.7-1.9.1-2.6-1.6-3.5-2.8a20.4,20.4,0,0,0-4.5-4.3c-6.1-3.6-11.5-.6-11.8,6.3-.6,13.7-2.3,27.3-1.9,41.1a6.1,6.1,0,0,1-.8,3.2l-.6.6-1.5-1.2c-1.6-1.2-2.1-2.5-1-4.4a14.3,14.3,0,0,0,1.4-9.3c0-.5-.7-1.1-1.2-1.2a1.9,1.9,0,0,0-1.3,1c-.7,2.8-1.6,5.5-3.9,7.4l-.6-.4c-1.1-3.7-1.4-7.1,2-9.9,1.8-1.4,1-2.5-.9-2.8a12.4,12.4,0,0,0-4.3.4c-4.6.9-4.7.9-2,4.6s-1.1,12.8-4.9,14.1-4.6-.7-4.8-4.1a13.4,13.4,0,0,0,1.8.7,2.6,2.6,0,0,0,3.3-1.2,15.7,15.7,0,0,1,1.9-2.6c.6-.7.9-1.6.2-2.2s-1.7-4-2.9-5.9-.4-4.6.6-7.1h16.2a1.9,1.9,0,0,0,1.9-1.8,28.1,28.1,0,0,0,.1-2.9c0-3.4.2-6.7-.1-10.1s1.1-8.1.2-12.2c-.2-.8.5-1.8.8-2.7Z"/><path class="cls-7" d="M536.7,91.5a7.2,7.2,0,0,1,1.5-1.1,1.6,1.6,0,0,1,2.4.9,18,18,0,0,1,.6,2.2l1.2,16.6a24.4,24.4,0,0,1-.1,3.8c-.4,2.1-1.6,3-3.7,2.5a2.5,2.5,0,0,0-2.9.8,5.5,5.5,0,0,1-4.7,1.7h-.1a5.9,5.9,0,0,1-3.9-3.8c-.9-2.4-.3-4.8.1-7.2s.8-3,2-3.6c5-2.6,7.2-6.7,7.5-12.1A.5.5,0,0,0,536.7,91.5Z"/><path class="cls-3" d="M371.6,11.4l4,.4c-.6,4,0,7.9.2,11.8a20.6,20.6,0,0,1-.8,6c-.1.5-.9.9-1.4,1.1s-3,.6-2.9,2.5,1.6,1.9,2.8,2.2,1.2,1.2,1.3,2.5a90.8,90.8,0,0,1,.5,12.8c0,2.2.2,4.4-.6,6.6s.2,1.8.2,2.7a1.9,1.9,0,0,1-.5,1.2c-1.7.4-2.7,1.7-4,2.6a10.7,10.7,0,0,1-2.7.6l-.3-.3c-.1-1.4.8-2.3,1.6-3.4,6.8-10,5.1-20.9-4.6-28a5.7,5.7,0,0,1-2.6-5.3,22.2,22.2,0,0,1,3.2-9.9c.7-1.3,1.7-2.5,3.4-2.1s2,1.8,2.2,3.3.1,5.1.5,8.5c2.1-5.8.2-10.7.4-15.6Z"/><path class="cls-8" d="M356.3,95.4c.2-1.8.4-3.5.7-5.2a18.9,18.9,0,0,1,.5-2.3,1.6,1.6,0,0,1,2.5-.1,12,12,0,0,1,.8,2.7,26.2,26.2,0,0,1,.1,2.8l.3,2.5,4.8-.9a4.4,4.4,0,0,1,1.9-.3c.6.2,1.3.6,1.4,1.1a1.7,1.7,0,0,1-.5,1.6,26.9,26.9,0,0,1-2.9,1.6,19.7,19.7,0,0,1-3.2,1,2.2,2.2,0,0,0-1.8,2.4c-.1,4-.2,8-.1,12a7.9,7.9,0,0,1-1.1,4.5c-3.4.1-4.4-.6-4.5-3.4s.2-6.4.4-9.6.6-4,0-6.1.3-2.4.6-3.7A.5.5,0,0,0,356.3,95.4Z"/><path class="cls-3" d="M42.2,115.3a5.1,5.1,0,0,1-2.7,4.2,6.7,6.7,0,0,0-1.9,1.4c-1.6,1.8-1.7,1.9-3.2,1a26.1,26.1,0,0,1-2.7-1.9c-3-2.5-6.2-1.8-9.4-.8-.3.1-.9.7-.9.9.5,2.9-1.2,2.2-2.8,1.9a3.1,3.1,0,0,0-1.9.3c-2.8,1.5-5.6-.2-8.4.1a1.9,1.9,0,0,1-1.2-.7,11.9,11.9,0,0,0-3.5-3.9c-.6-.5-.5-1.7-.8-2.6v-.9a1.8,1.8,0,0,1-.2-2,1.5,1.5,0,0,1,1.3.1c1.1,1,1.5,2.4,2.3,3.6a8.2,8.2,0,0,0,8.6,3.7c3.9-.6,6.1-3.1,7.7-6.4a2,2,0,0,0-.3-2.6,2.3,2.3,0,0,0-2.7,0c-1.5.8-2.6,2.3-4.2,3s-4.5.4-4.8-2.6c3.1-.7,4.7-5,8.6-3.6H23a71.9,71.9,0,0,0,5.8-8.6c1-2.2,2.4-4.3,5.4-3.3s-.3,2.9-1,4.2a27.9,27.9,0,0,0-3.7,8.7c-.8,3.7.1,6.7,3,9s5.1-.1,7.2-1.7a2.9,2.9,0,0,1,2.2-.8Z"/><path class="cls-3" d="M182.4,119.1l-1,.9h-2.9c-2.1-1.1-4.1-1.9-6.7-1.1s-4.9.4-7.5.7A11.4,11.4,0,0,1,158,118c-1.8-1.2-1.5-3-1.6-4.7l.7-.2c5.5,4.3,7.7,4.7,11.2,2a5.7,5.7,0,0,0,2.7-4.8c-.1-3.8-.3-7.6-1.9-11.2s-4.3-4.7-7.8-1.9c-1.4,1.1-2.4,2.6-4.3,2.9l-.6-.2c.1-1.6,0-3.1,1.4-4.3s3.5-3.6,6.3-3.4H166c2.7-1.2,5.2-1.4,7.4.9a1.5,1.5,0,0,0,2.1.2,3,3,0,0,1,1.1-.6,3,3,0,0,1,1.3-.2,3.4,3.4,0,0,1,1.2.6c.7.8,1.3,1.7.5,2.8l-.3.3c-4.7,5.4-3.6,11.8-2.8,18.1.4,3,3.8,3,5.7,4.6Z"/><path class="cls-3" d="M551,69.2c-.5-.2-1.2-.2-1.3-.5-1.2-2.1-2.1-4.3-1.3-6.8a13.7,13.7,0,0,0,.1-8.5c-.4-1.3-.2-2.8-.4-4.2a5.3,5.3,0,0,0-.8-2.2,2.1,2.1,0,0,0-1.6-.2c-.4.1-.7.7-.9,1.1a3.1,3.1,0,0,1-3.4,2.1h-.9c-5.5,1.7-5.5,2-3.7,6.4,1,2.8.5,4.9-.9,7.3a2.9,2.9,0,0,1-3.1,1.5l-.3-.7c2-7.3-.4-14.6-.1-21.9a27.9,27.9,0,0,1,.2-5.8c.2-.9.4-2,1.5-2.2s1.6.9,2.1,1.7a22.8,22.8,0,0,1,1.5,3.6c.8,1.8,1.1,4.4,3.5,4.7s3.3-2.6,4.5-4.4a21.6,21.6,0,0,1,2.2-3.6c1.5-1.6,2.4-1.2,3.1.7a11.9,11.9,0,0,1,.3,3.3c.1,9.2.1,18.5,0,27.8Z"/><path class="cls-1" d="M19.1,107.5a4.8,4.8,0,0,0-3.6,1.9c-1.2,2.1-3,2-5,2a4.4,4.4,0,0,1-.8-1.1,8.5,8.5,0,0,1,0-4.2,9.3,9.3,0,0,1,.4-1.3c1-2.2,2.6-4,3.5-6.2A5.9,5.9,0,0,1,17.8,95c3.6-.9,6.3-3.1,6.6-7s-3.9-5.6-7.8-6.3a6.1,6.1,0,0,1-1.8-.5,1.2,1.2,0,0,0-.5-.5c.2-.8.4-1.5,1.3-1.8,2.4-.8,4.7-.2,7,0,.7,0,6,5.1,6,5.7,0,2.6.1,5.1-.1,7.6-.1.6-.9,1.2-1.5,1.8s-2.1,1.5-2.7,2.5A4.4,4.4,0,0,1,20,99c-1.3-.1-1.8,1-2.3,2C16.5,103.6,17.7,105.6,19.1,107.5Z"/><path class="cls-3" d="M501.9,57.7a27.6,27.6,0,0,0,1.8,3.9c3.3,4.9,7.6,6,13.5,3.5a3.8,3.8,0,0,1,.1,1.5c-.1,2-.7,2.6-2.5,2.5s-3.6-.8-5.6-.1-2.3.1-3.4-2.1a4.4,4.4,0,0,0-1-1.5,12.1,12.1,0,0,1-3.6-3.1,1.4,1.4,0,0,0-2.4.3c-.7,2.3-2.6,2.6-4.4,2.7-4.5.1-8.9,0-13.4,0-1.3,0-2-.6-1.8-1.7.5-2.9-.8-5-2.8-6.7a3.9,3.9,0,0,1-1.3-2.9c.1-4.4,0-8.7.1-13,0-1.4.7-2.8.8-4.2s1.4-2.3,3-2.2c-.5,4.4-1,8.8-1.4,13.3a20.7,20.7,0,0,0,1.7,10.7,8.9,8.9,0,0,0,8.6,5.7h1.4c5.2.4,9-1.7,11-6.6C500.8,57,501.3,57.1,501.9,57.7Z"/><path class="cls-3" d="M555.8,11.5c1.6,0,2.9.3,2.9,2.3s1,2.3.4,3.7a1.9,1.9,0,0,0,.3,1.8c1.4,1.6,1.1,3.5,1.2,5.4a76,76,0,0,1-1.7,18.4,15.9,15.9,0,0,0-.2,3.8V66.4c-.1,2.2-.1,2.2-2.9,2.8-.1-.3-.3-.5-.4-.8.1-11.9-.8-23.8.7-35.7.9-6.8-.9-13.6-.7-20.4A3,3,0,0,0,555.8,11.5Z"/><path class="cls-3" d="M14.3,36.5c.2-3.6-.4-7.3.8-10.8.3-.8-.3-1.9-.3-2.8a25,25,0,0,1-.3-6.1c.5-2.9.2-5.8.8-8.8,2.1-.9,4,.2,5.8,1s.7,1,.9,1.6a10.9,10.9,0,0,1,.1,1.8l-.2.2c-2.8.3-4.3,1.7-4.3,4.7.4,12.4-1.5,24.8-1,37.2.3,6.5,1.5,7.6,7.8,6.4,1.7-.3,3.5-.9,5.1.3l.3.3c.2,3.8-1.9,5.1-5.3,5.1H20.7c-7.3-.1-9-2.7-6.4-10Z"/><path class="cls-3" d="M231.3,7.7a3.5,3.5,0,0,1,2.3,1.4,17.9,17.9,0,0,0,4.2,3,25.5,25.5,0,0,1,5.6,4.8,6.4,6.4,0,0,1,1.3,3.4,24.1,24.1,0,0,1,0,3.8c-3-.3-3.3-3.2-4.6-5.1-2.3-3.5-5.2-5.9-9.7-6-2.6-.1-4.3.9-4.4,3.7-.3,9-2,17.8-2.1,26.8,0,2,.8,4.6-2.1,5.8,0-7-.4-14,.3-20.9.2-1.7-.3-3.4-.3-5.2s-.4-2.8.9-3.9.7-2.2,0-3.4-1.3-2.8.9-4.2a4,4,0,0,0,1.9-4Z"/><path class="cls-1" d="M194.9,11.7c-1.6-.2-3.3.2-4.2-2.1s-2.7-1.9-4.5-1.9c1.5-2.7,4-2.2,6.2-1.5a15,15,0,0,0,3.5.9c2.9.3,5.3,2.1,7.7,3.4s1.4,1.7,1.7,2.7.8,4,1.2,6.2l3.6-2.1a2.9,2.9,0,0,1,1,2.6,7.7,7.7,0,0,1-.2,1.5c-1.6,6.3-1.7,6.3-8.1,2.5a2.8,2.8,0,0,1-.9-1c-1.5-2.9.9-6.7-2.2-9.1l-1-.6-1-.5-.9-.5-1.4-.4Z"/><path class="cls-3" d="M385,99.8c1.5.2,3,1,2.6,2.7s.6,3.4,1.7,4.6a3.7,3.7,0,0,1,1.1,3.8,4.6,4.6,0,0,0,.3,2.3c.8,1.8.1,3-1.2,4.1a43.5,43.5,0,0,1-5.7,4.9c-1.7,1-3.8,1.9-5.9,1s-5.5-.8-8.3-.5a38.8,38.8,0,0,1-4.9.1v-3.7l.3-.3c2.9-.4,6,.2,8.8-1.6,1-.7,2.2-.1,3.1.5,3.4,2.3,6.1,1.2,8.4-1.6s2.5-5.7-.1-8.6l-.8-1.2-.3-1.3c.4-1.6-.1-3.3.6-4.9Z"/><path class="cls-1" d="M179.6,95.9l-1.1-2.7h-1.9a12.9,12.9,0,0,1-.9,1.6c-1.2,1.6-2.1,1.6-2.9-.3s-1.7-2.4-3.6-2a11.9,11.9,0,0,1-3.2-.3,3,3,0,0,1,3-1.9l11.4.4c.4,0,.9.3,1.3.2,2.6-1,5.4-.4,8-.7.9-.1,2.2-.4,2.5-1,1.4-2.9,3.8-3,6.4-2.8a2.8,2.8,0,0,1-1.6,2.8,5,5,0,0,0-2.7,3.6c-.4,1.5-.8,1.7-1.8.8s-1.6-.9-2.5-.1-1.1.5-1.3.3-2.6-.2-3.8.8A6,6,0,0,1,179.6,95.9Z"/><path class="cls-3" d="M418.3,11.8l-.9-.3c-2.7-.7-4.2-.1-4.6,2.4a55.3,55.3,0,0,0-1.1,9c-.2,6.6-.1,13.1-.1,19.6a12.5,12.5,0,0,1-.3,3.8c-2.1-2.5-4.4-8.1-5.5-13.6,1.2.3,1.6,2.4,3.2,1.5s.8-2.3.8-3.5c.3-2.8-.3-5.7.8-8.4.2-.5-.1-1.3-.2-1.9s-.4-1.5-.5-2.3c-.5-4.7-.2-5.3,3.4-8.5.8-.7,1.5-2,2.7-1.5S418.7,9.9,418.3,11.8Z"/><path class="cls-1" d="M14.3,56.7c.3,2.8.6,5.5.9,8.6h9.4a6.7,6.7,0,0,0,3.2-.4c.6-.3.6-1.5,1-2.3a5,5,0,0,1,1-1.1c1.2,0,2.8-.1,3.2,1.2s2.6,2.7,4.4,3.6c-.9,1.7-1.7,2.4-2.7,1.7s-4.6-.8-7.1-.3-7.3,1.8-11.2.6c-2.4-.7-4.2-1.9-4.7-4.2s-.8-5.2,1.8-6.9Z"/><path class="cls-3" d="M386.7,60.5c.1-9.3.3-18.5.3-27.8,0-6.1-.2-12.2-.2-18.2,2.1.9,2.9,2.5,3,4.8.1,3.9,1.2,7.7,1,11.7a11.7,11.7,0,0,0,.8,3.6c-2.8.4-3.8,2.3-3.8,5V57.1C387.8,58.3,388,59.6,386.7,60.5Z"/><path class="cls-3" d="M532.8,19.2c4,.8,5.6,3.7,6.7,7.2a18.1,18.1,0,0,0,1.3,3.5c.3.5,1.4.7,2.1.6s1.1-.8,1.2-1.2c.3-2.7.1-5.4,1.1-8,.2-.4.2-1.2.5-1.3,2.8-.9,2.1-3.5,2.9-5.5s1.4-2.9,3.3-3l.3.7c-2.2,6.7-3.5,13.8-6.6,20.3-.8,1.7-1.4,4-3.6,4s-2.7-2.4-3.3-4.1a57.1,57.1,0,0,0-4.9-8.7c-.8-1.3-2.1-2.5-1.2-4.3Z"/><path class="cls-3" d="M398.1,67.2c.5-8.6.9-17.2,1.4-25.9a7.8,7.8,0,0,1,.2-1.4c0-.2.3-.5.5-.6a1,1,0,0,1,.7.4c1.8,5.3,3.6,10.6,5.3,15.9l-2-.8c-1.8-1.2-1.9-1.2-2.1,1.1a2.7,2.7,0,0,1-1.3,2.4c-1.3.7-1.5,1.9-1.5,3.2a24.1,24.1,0,0,1-.1,3.8C399.1,66,398.5,66.5,398.1,67.2Z"/><path class="cls-1" d="M60.3,96.1a3.4,3.4,0,0,0,.1-1.4c-.4-1.9-1.1-2.3-2.6-1.6a21.9,21.9,0,0,0-2.9,1.7c-1.5,1-1.5,1-2.7-.8a5.9,5.9,0,0,1-.4-.8h0c-4-1.5-4-1.5-7.1,2.1a1.7,1.7,0,0,1-2.5.1,33.7,33.7,0,0,1-1.9-3.2A8.4,8.4,0,0,1,46,90.3a50,50,0,0,1,6.7.2,6.6,6.6,0,0,0,3.7-.3c2-1,3.8-.4,5.4.5s2.2,2.6,2.4,4.4a2.8,2.8,0,0,1,.1.9c-1.3,1.2-2.6.8-3.9.1Z"/><path class="cls-1" d="M2.8,92.2a5.6,5.6,0,0,1,2.6-4.3c2.4-1.5,3.8-3.7,5.7-5.5s1.8-1.8,3.2-1.7c2.8,2.8.2,4.2-1.5,5.6a24.8,24.8,0,0,0-8.9,19,7.1,7.1,0,0,1-.4,2,2.4,2.4,0,0,1-1.6,1.2c-1.5-.7-2.4-1.9-1.6-3.4A9,9,0,0,0,1,99.5a24.6,24.6,0,0,1,0-4.7A2.8,2.8,0,0,1,2.8,92.2Z"/><path class="cls-3" d="M106.5,44.2c.1-1.1.1-2.2.3-3.3s.5-1,.3-1.3c-1.8-4,1-6.3,3.4-8.8,1.8,2.3,1.2,4.9.8,7.4-.9,5.2-.5,10.4-.4,15.7s2.2,7.2,3.5,10.7l-.3.8c-1.9,0-3.4-.5-3.8-2.7a2.3,2.3,0,0,0-.6-1.3c-2.6-1.6-2-4.3-1.6-6.3s-.3-4.3-1.6-6.1Z"/><path class="cls-3" d="M394.5,31.7c0,1.6,0,3.2-.1,4.8-.7,8.4-1.5,16.7-2.2,25.1a14.2,14.2,0,0,0-.2,2.9c.1,2.9.8,3.7,4.3,4.4-.3.4-.6,1-.9,1-2.8.1-4.6-1.5-4.7-4.1s0-5.4,0-8.1.5-5.4,0-8.1a3.5,3.5,0,0,1,.2-2.3,4.1,4.1,0,0,0,.3-4.8,5.8,5.8,0,0,1-.1-3.2,24.2,24.2,0,0,0,.5-4.7,1.9,1.9,0,0,0,2-1.5C393.7,32.6,394.2,32.2,394.5,31.7Z"/><path class="cls-3" d="M310,64.4c.3,2.4-.2,4.4-2.9,5.2a6,6,0,0,1-2.3.2l-2.8-.6c-2.6-.5-4-2.2-3.3-4.7a11.1,11.1,0,0,0-.1-6.5,15.8,15.8,0,0,1-.1-3.8c0-7.8-.1-15.5-.1-23.3l.2-.2c2.6.7,2.2,2.9,2.1,4.6-.2,7.4,1.5,14.6,1.1,21.9a15.8,15.8,0,0,0,.5,4.3c1.1,5.2,2.4,5.7,7,2.8Z"/><path class="cls-1" d="M163.9,18.6c.5-2.3-.7-4.2-1.2-6.4-2.2-.7-2.7-3.8-5.4-4.1a5.8,5.8,0,0,1-1.8-.4c.1-.8.3-1.6,1.3-1.7a9.2,9.2,0,0,1,3.3-.1,5.2,5.2,0,0,1,2,.9c.7.6,1.2,1.6,1.9,2.1,3.8,2.6,3.5,6.4,2.8,10.2-.1.8-1.1,1.4-1.7,2.1a2.8,2.8,0,0,1-1.2-1.4A2.4,2.4,0,0,1,163.9,18.6Z"/><path class="cls-3" d="M271.6,101.7c-.6-5.1,2.7-8.7,5.1-12.6,3.5-2,6.4-5.1,11-4.6a54.2,54.2,0,0,0,5.7,0,5.2,5.2,0,0,1,3.6.9,5.1,5.1,0,0,1,1.6,3.8l-.2.2c-3.3-.5-6-2.5-9.9-2.1-6.2.6-9.8,3.8-12.6,8.7-1.2,2-1.5,4.6-3.7,6Z"/><path class="cls-1" d="M34.8,96.3c-2.6-.6-4.4.5-4.9,3a8.2,8.2,0,0,1-2.1,3.5c-.9.9-1.9,1.6-2,3.1s-1.5,1.6-2.8,1.6c.3-1,.2-2.3.9-3.1a12,12,0,0,0,3.2-6.7,4.1,4.1,0,0,1,1-2.1c.5-.6,1.3-1.3,1.9-1.3,2.5.1,4.1-1.3,5.9-2.7a1.6,1.6,0,0,1,2.4.6l-2.8,3.9-.3.2Z"/><path class="cls-3" d="M405.9,32.8c-.9-2.7-1.9-5.3-2.8-8s-2-6.4-4-9.2a10.5,10.5,0,0,0-.8-1.1c-.9-1-1.8-1-2.9.1a12.5,12.5,0,0,0-.8,1.2c.1-4.5.6-4.8,4.6-3.5a3.9,3.9,0,0,1,2.8,3,12.1,12.1,0,0,0,2.9,6.4,5.2,5.2,0,0,1,1.1,3C406.1,27.4,405.9,30.1,405.9,32.8Z"/><path class="cls-3" d="M463.7,57.6c3,1.3,3.4,2,1.8,4.3s-2.1,4-4.6,4.5l-.4.2c-1.7,4-4.9,2.1-7.9,2.6-.1-3.9-1.4-7.3.5-10.6l2.8-1,.3.6a5,5,0,0,1-.3,1.3c-.8,1.9-2.5,4.1.6,5a4.3,4.3,0,0,0,5.7-2.9c.5-1.1.3-2.5,1-3.6Z"/><path class="cls-1" d="M122.8,96l-1,1.8-4.5-1.2-4.2-.5c-1.6-.2-2.5.5-2.9,2.2s-1.5,1.8-2.6.6l-3-2.9c.2-1,.6-1.8,1.8-1.8h14.7C122.2,94.2,122.7,95,122.8,96Z"/><path class="cls-3" d="M386.8,14.5a10.6,10.6,0,0,0-2.1-1.1,2.8,2.8,0,0,0-3.5,2.3,9.7,9.7,0,0,0-.2,2.4c-.4,6.6-.7,13.2-1.1,19.9a36.5,36.5,0,0,1-.7,4.6c0-8.3-.1-16.6,0-24.9a29.7,29.7,0,0,1,.9-5.2h0c1.9-.2,3.6-1.4,5.6-.8s1.3.5,1.4,1S386.9,13.9,386.8,14.5Z"/><path class="cls-3" d="M452.2,111.4a2.6,2.6,0,0,1,2.7,2.2c.2,1.5.5,3.2-.7,4.5a3.3,3.3,0,0,1-2.1.9,3.3,3.3,0,0,0-3.4,2,1.7,1.7,0,0,1-2.2,1.2,8.8,8.8,0,0,0-2.8.1c-2.1.4-2.1.4-3.2-2.2l.2-.2c1.7-.5,3.3-1,4.1-2.8s1.4-2.6,2.8-1.9c4.7,2.4,3.7-1.5,4.3-3.6Z"/><path class="cls-3" d="M536.6,92.2c-.1,2.7,0,5.4-.2,8a1.8,1.8,0,0,1-1.1,1.3c-4.4.3-5.8,3.7-7.4,7a1.7,1.7,0,0,1-2.1.2c-1.1-1.8-1.9-3.7-.9-5.8l.2-.2c1.5.9,2.7,1.4,4.2-.3a11.7,11.7,0,0,1,3.6-2.1,2.7,2.7,0,0,0,1.7-3.1,5.8,5.8,0,0,0-.3-1.9c-.3-.8-.5-1.6.2-2.2A13.3,13.3,0,0,1,536.6,92.2Z"/><path class="cls-3" d="M344.6,3.8c.1-.2.1-.7.2-1.1A3.4,3.4,0,0,1,349.1.1,3.7,3.7,0,0,1,352,4.3c-.4,3.4-1.4,4-4.6,2.9a3.2,3.2,0,0,0-.9-.3C345.1,6.6,344.5,5.9,344.6,3.8Z"/><path class="cls-3" d="M380.6.5c.4,0,1-.2,1.3,0s2.9-.9,3.5.4a16.3,16.3,0,0,1,1.2,5.4c.1.4-.7,1.2-1.2,1.2a14.8,14.8,0,0,1-4.2,0,2.2,2.2,0,0,1-1.8-2.8A38.6,38.6,0,0,1,380.6.5Z"/><path class="cls-3" d="M314,45.3c-.1,4.2-.1,8.5-.1,12.7,0,1.7-.1,3-2,3.8s-1.2,1.7-1.9,2.6v-.2c-2.3-5.6,1.1-10.7,1.6-16,.1-1.3.4-3,2.3-3.1Z"/><path class="cls-1" d="M206.3,87.4c.2-1.8-.8-3.6.6-5.4s-.4-2.6-.7-3.9-1-1.2-1.8-1.3a1.8,1.8,0,0,1,2.2-1.8c1.2.1,2.3.7,2.4,1.9a46.9,46.9,0,0,1,0,7.5C208.9,85.8,207.6,86.7,206.3,87.4Z"/><path class="cls-3" d="M210.3,20.4c-.1-1-.1-2.1-.2-3.1s0-1.9.1-2.9a35.4,35.4,0,0,1,.2-4.6,2.3,2.3,0,0,1,2.7-1.9l1.8.6c2.8.8,2.8.8,2.8,4.1-3.7-.6-5.6.6-5.5,4.6C212.3,18.5,212.2,20.1,210.3,20.4Z"/><path class="cls-3" d="M474.2,92.2a7.9,7.9,0,0,1,4.8,2.4,4.3,4.3,0,0,0,3.8,1.4l.3.2c.7,2.3-.6,3.8-2.3,4.6s-2.9-.8-3.9-2-3.3-3.4-3.1-6.1Z"/><path class="cls-1" d="M217.8,82.6l-2.3,1.6c-.8.5-.8,1.1-.8,2s-1.2,2.1-2.6,2.1a5.2,5.2,0,0,1-.6-1.3c-.1-2.5,2.7-6.3,5.3-7,.2-.1.7.4,1.1.7A1.3,1.3,0,0,1,217.8,82.6Z"/><path class="cls-3" d="M440.5,52.2a12.8,12.8,0,0,1-.5-2.7,29.9,29.9,0,0,0-3.3-12c-.8-1.6-1.1-3,1.3-3.3l.7.4c-.6,1.1-.7,2.3.2,3s1.7,3.3,1.7,5.2S440.5,49.1,440.5,52.2Z"/><path class="cls-1" d="M84.4,96a41.4,41.4,0,0,1-6,.9,37,37,0,0,1-5.5-.9c1.3-2.7,4-2,6.2-2.4s3,.4,4.5.9S84.2,95.5,84.4,96Z"/><path class="cls-3" d="M271.5,115.3c-2.8-1.3-3-1.4-2.3-3.6a8.5,8.5,0,0,0,.1-4.2,5.4,5.4,0,0,1,2.3-5.8h.1c1.9,4.3,0,8.7.4,13Z"/><path class="cls-3" d="M379.2,60.3l.9,3.1a7.1,7.1,0,0,0,.7,2.2A2,2,0,0,0,383,67a3,3,0,0,0,1.8-1.3,21.7,21.7,0,0,0,1.2-3.6l.8-1.7a12.8,12.8,0,0,1-.1,3.4,10,10,0,0,1-1.9,3.7,2.7,2.7,0,0,1-3.4.8c-1.2-.6-2.2-1.3-2.2-2.8Z"/><path class="cls-3" d="M60.4,96.1h3.9l5,.2L63,100.8a16,16,0,0,0-1-2.3Z"/><path class="cls-3" d="M455.9,57.6a26.4,26.4,0,0,1,.2-2.8,11.7,11.7,0,0,1,7.4,0c.1.9.1,1.8.2,2.8l-.3.2c-2.4.1-4.9.8-7.3,0Z"/><path class="cls-3" d="M527.7,115.4c1.1,1.1,2.2,2.3,3.2,3.5H523c-1.2,0-1.6-.8-1.8-1.8l.2-.2c1.3-.4,2.8-.3,4-1.2S526.9,114.9,527.7,115.4Z"/><path class="cls-3" d="M568.3,103.7a3,3,0,0,0,0,3.8l-.3.3a2.7,2.7,0,0,1-2.3.1c-1.8-.9-4.6-1.6-3.3-4.2s3.7-2,5.6-.3Z"/><path class="cls-3" d="M438.6,32.4c.6-3.5,1.3-7.1,1.9-10.6,0,3.5,0,7,.1,10.5a2.1,2.1,0,0,1-1.9,2.3h0A1.7,1.7,0,0,1,438.6,32.4Z"/><path class="cls-3" d="M329.2,119.1h-4.7l-.2-.2a5.9,5.9,0,0,1,1.9-5.7c1.5-.4,2,.8,2.6,1.7s1.4,2.5.7,3.9Z"/><path class="cls-3" d="M394.6,16a34,34,0,0,1,0,14.2Z"/><path class="cls-3" d="M551.9,11.5c.2-.6.2-1.3.6-1.7s1.4-1.4,2.1-1.4,1.1,1.3,1.2,2.2v.9l-.3.4a2.7,2.7,0,0,1-3.4-.2Z"/><path class="cls-3" d="M517.2,65.1l3.9-5.7-.3,3.1C520.4,65.1,520.3,65.1,517.2,65.1Z"/><path class="cls-3" d="M329.3,99.8H333l.2.3a5.1,5.1,0,0,1-2.2,4.3c-3-.1-3.3-.8-1.9-4.4Z"/><path class="cls-3" d="M481.1,27.1c-.6,2.3-1.3,4.6-2,7,0-1.9-.1-3.8,0-5.6S480.1,27.1,481.1,27.1Z"/><path class="cls-1" d="M100.7,96H95c1-2,2.7-2.1,4.6-1.7S100.6,95.3,100.7,96Z"/><path class="cls-3" d="M482.9,23.1l-1.8,4C479.7,24.2,479.9,23.9,482.9,23.1Z"/><path class="cls-3" d="M555.8,69.2a4.3,4.3,0,0,1-1,.9c-2,1.1-2.1,1.1-3.8-.9l.2-.3a3.6,3.6,0,0,1,4.4,0Z"/><path class="cls-3" d="M164.1,19.2a18.6,18.6,0,0,0,1,2v1.9l-.9,2-.6-.6C162.8,22.7,162.6,20.9,164.1,19.2Z"/><path class="cls-3" d="M342.8,64.1a6.8,6.8,0,0,0,4.6,1.1C345.1,66.9,344.3,66.7,342.8,64.1Z"/><path class="cls-3" d="M217.8,82.6V80.7h2.8a1.9,1.9,0,0,1,.8,2.3,7.8,7.8,0,0,1-3.4-.2Z"/><path class="cls-3" d="M274.4,119.1c-2.2-.3-2.4-2.1-2.9-3.8l.3-.2c2.3.1,2.9,1.7,3,3.7Z"/><path class="cls-3" d="M1.9,108.5l.9-.9a3.2,3.2,0,0,1,.1,4.7l-.2.2a.5.5,0,0,1-.8-.1Z"/><path class="cls-3" d="M482.9,89.3l1.1-.5a4.1,4.1,0,0,1,.7,1.1l-.4.3Z"/><path class="cls-3" d="M532.8,65.3c-1.5,1.2-1.5,1.2-2.9,0l.2-.3a2.1,2.1,0,0,1,2.5.1Z"/><path class="cls-3" d="M396.3,69l1.9-2C398,68.8,398,68.8,396.3,69Z"/><path class="cls-1" d="M1.9,112.4h.8a10.9,10.9,0,0,0,.1,1.8C2.2,113.7.7,113.7,1.9,112.4Z"/><path class="cls-3" d="M330.2,122l-.2.4.2-.4Z"/><path class="cls-3" d="M435.8,119.1c-.3.6-.7.6-1,0l.2-.3.4-.2.3.3Z"/><path class="cls-3" d="M473.3,91.2l.9,1-.3.3a1.3,1.3,0,0,1-.9-1Z"/><polygon class="cls-3" points="453.1 58.6 452.7 58.4 452.8 58.2 453.1 58.6"/><path class="cls-3" d="M380.1,12.5l-.4-.2.4.2Z"/><path class="cls-3" d="M320.6,8.7l.2-.4-.2.4Z"/><path class="cls-9" d="M210.3,20.4c.2-1.2.5-2.4.7-3.7s.1-1.9.3-2.8c.7-3.1,3-3.8,5.7-1.9l.7.6h0a4.1,4.1,0,0,1,0,4.7h.1c-.4,8.7-1,17.3-1.7,26-.5,6.1-1.7,12.1-2.1,18.3a.5.5,0,0,0,0,.7c-.7,2-.3,4.7-3.5,4.9s-3.4-2.5-4.1-4.7h0c-3.9-4.5-2.7-10.2-3.9-15.4h.1c-.3-5.6-2.1-10.9-4-16.2a1.6,1.6,0,0,1-.3-1.6c-.2.5-.1,1.1-.5,1.6-.1,8.5-.2,16.9-.2,25.4,0,1.9.1,3.8.1,5.7a4.6,4.6,0,0,1-.6,2.3,2.7,2.7,0,0,1-4.7.1,6.5,6.5,0,0,1-.8-2.7,130.2,130.2,0,0,1-.2-15.3c.4-10.1,1.7-20,2.3-30.1.1-1.6,0-3.2,1.2-4.5h0a1.2,1.2,0,0,1,1.8-.1c.2.3.4.3.6.2a1.8,1.8,0,0,1,1.3.9h0c2.9,3,2.8,7,3.8,10.6h-.1c3.5,4.5,4.3,10.2,5.9,15.4.1.8.1,1.5.2,2.3s.9-.2.3.2.1.1-.2-.4a4,4,0,0,1-.2-1.9c-.3-6,.9-11.8,1.9-17.7A.5.5,0,0,0,210.3,20.4Z"/><path class="cls-2" d="M221.8,49.3a5.9,5.9,0,0,0,.5-1.9c.7-8.7,1.4-17.4,2-26.2.2-2.1.1-4.1.1-6.2s.6-3.2,3.3-3.6c5.3-.7,9.5,1.1,12.5,5.4,1.6,2.3,3,4.8,4.5,7.3h0a6.1,6.1,0,0,1,2.1,4.1c.6,9.9.9,19.8-3,29.2-3.1,7.4-8.6,11.2-16.1,11.3-4.1,0-6.8-2.4-7.3-6.5a27,27,0,0,1,1.3-11.3Z"/><path class="cls-3" d="M221.7,50.9c0,3.8-.1,7.7-.1,11.5a5.8,5.8,0,0,0,1,3.6,5.6,5.6,0,0,0,5.9,2.3c6.2-1,10.9-3.9,13.5-10A41.6,41.6,0,0,0,245.5,45c.4-5.1.3-10.2.2-15.3a26.3,26.3,0,0,0-1-5.6,5.2,5.2,0,0,0,4.5-3.1c.2-.4.4-1,.8-1.2,2.9-.9,2.9-3.6,3.1-5.7s.4-2.5,2.2-2.8a2.5,2.5,0,0,0,1.3-1.8c.2-1.7,1.3-1.9,2.7-1.8h2.4A2.7,2.7,0,0,1,264.1,9a17.1,17.1,0,0,0,2.2,2.5,4.8,4.8,0,0,1,1.5,3.8c-.1,3,.2,4-3.6,4-1.2,0-3,0-3.5.7a5.4,5.4,0,0,0-.7,5,11.1,11.1,0,0,1,.2,1.9l-.5.4c-2.9.7-3.5-1.1-3.2-3.2s1.1-6.1,4.5-7.3c1.8-.5,3.1-1.5,2-3.4s-2.5-.9-3.8-.1c-6.8,4.2-7.7,14.2-1.7,19.3a10.4,10.4,0,0,1,2.8,3.8c3.2,7.4,2.6,14.7-1.2,21.7-1.8,3.4-3.7,3.6-6.4,1.3-1.1-.9-1.9-2.5-3.6-1.2s-1,2.8-.3,4.4c2.1,4.6,6.9,5.5,11.2,2.5s4.3-6.7,7.1-9.5h.7c-.2,1.7-.5,3.5-.6,5.2a8.8,8.8,0,0,0,0,2.3c.1,1-.1,1.7-1.1,1.6s-1.7.6-2.1,1.6a6.8,6.8,0,0,1-1,2.1,3.2,3.2,0,0,1-2,1c-3.2,0-6.4-.2-9.5-.3-1.4-.1-2.3-.3-3-1.8a28.7,28.7,0,0,0-3.6-5,2.1,2.1,0,0,0-3.3,0l-.3.4-5.3,6c-3.6.1-7.3.3-10.9.2a3.5,3.5,0,0,1-2.6-1.1c-1.6-2-4.1-3.6-3.7-6.8a4.9,4.9,0,0,0-.4-2.4c-.7-1.5-.2-2.6.8-3.9A32.2,32.2,0,0,0,221.7,50.9Z"/><path class="cls-3" d="M160.3,32.7a6.5,6.5,0,0,1-2.2,5.1,1.7,1.7,0,0,0-.1,2.5c2.2,1.9,2.5,4.3,2.3,6.9s2.2,4.3,3.7,6.3c.2.3.9.3,1.3.2l2.7-.8c2.1,2.7-.6,5.6.5,8.5,1.4-.6,1.3-2.5,2.7-3l.6.2-.6,6.4-1.7.3c-2.4-.1-4.7,0-6,2.7-.3.6-1.5,1-2.4,1.1a21.6,21.6,0,0,1-3.6,0c-1.4-2.5-1-5.1-1.1-7.5l.6-.3c2,.3,2.5,4.4,4.8,2.6s-.3-3.9-.9-5.8c-1.6-5-3.2-10-5-14.9s-1.3-7.2,3.8-10.7Z"/><path class="cls-3" d="M156.4,61.6c-2.9-.7-3.7-1.4-3.4-3.6s-.8-4.6-.6-7c0-.5-.9-1.3-1.6-1.6s-1.9.7-1.9,1.7c-.1,2.6-.1,5.1-.1,7.7s.1,3.8-1,5.6h0a5,5,0,0,1-6-.3c-.4-.4-.5-1.1-.8-1.6l.3-.2c4.5-.4,5.4-3.2,4.7-7.1a41.9,41.9,0,0,1-.4-10c.2-2.2,1-4.2,3.5-4.6s3.6,1.6,4.1,3.7c1.2,4.3,2.5,8.6,3.7,12.9.3,1.4.7,2.9-.3,4.2Z"/><path class="cls-3" d="M214,61.5c-.3-7.5.5-15,1.2-22.5l1.5-15.7c.3-2.1,0-4.2,1.1-6.1.1,5.8.3,11.5.4,17.3a3.7,3.7,0,0,1-.5,1.7c-1.2,1.8-.8,3.7-.5,5.6s.5,3.4.7,5.2-.2,2.9-1.6,3.7a3.1,3.1,0,0,0-1.3,2.9v5.3A2.9,2.9,0,0,1,214,61.5Z"/><path class="cls-3" d="M133.5,54.8c-.1,1.3.1,2.6-.1,3.8-.5,2.8.2,6.1-3.2,7.7-.3.2-.4.9-.6,1.3s-.6.9-.9.9c-3.6.3-7.2.6-10.9.6s-3-.3-3.7-3.7l.2-.2c1-.8,2.1-.2,3.1.1,6.7,2.1,9.8.6,12.7-5.8.8-1.8.6-4.3,3.1-4.9Z"/><path class="cls-3" d="M181.4,65.3a3.2,3.2,0,0,1-1.3-3.3,15.2,15.2,0,0,0-.3-7.9,2.8,2.8,0,0,1,0-1.8c.1-.7.8-1.7-.4-1.9a3.7,3.7,0,0,0-2.1.8c-.4.4-.5,1.1-.8,1.6-1.4,2.1-2.3,4.6-4.7,5.8l-.2-.2c-1.8-6.6,2.3-11.6,9-11,1.5.2,2.6.9,2.4,2.3-.7,5.2,1,10.6-1.5,15.5Z"/><path class="cls-3" d="M267.9,36.5c.1.1.2.1.3.3s2.5,1.9,2.7,3.1a52.6,52.6,0,0,1,.6,8.9,2.6,2.6,0,0,1-.7,1.7c-1.7,1.4-1.7,3.7-3,5.2h-.2c-.2-.3-.5-.5-.5-.8-.2-5.9-.7-11.9.2-17.8Z"/><path class="cls-3" d="M206.4,62.4a17.9,17.9,0,0,0,1.2,2.4c1.5,2.3,4.3,2,5.5-.4a14.5,14.5,0,0,0,.9-2.2,23.6,23.6,0,0,1,.2,3.7c-.3,3-1.5,3.9-4.3,3.6a6,6,0,0,1-2.3-.6,1.8,1.8,0,0,1-1.1-1.3C206.4,65.9,206.4,64.1,206.4,62.4Z"/><path class="cls-3" d="M202.5,47c1.2,4.2,2.3,8.5,3.4,12.7.2.9.3,1.8.5,2.7l-2.2-.9c-1.4-.3-1.7-1.3-1.7-2.5Z"/><path class="cls-3" d="M260.2,26.9c2.5-.4,4.1,1,5.5,2.8s3.1,4,2.2,6.8l-.3.2c-3.4-2.5-5.1-6.4-7.7-9.6Z"/><path class="cls-3" d="M217.7,17.3V12.6C219.2,14.5,219.3,15.3,217.7,17.3Z"/><path class="cls-3" d="M147.8,64.4l.4.2-.4-.2Z"/><path class="cls-10" d="M87.4,114.5a29.2,29.2,0,0,0,1-11.4.8.8,0,0,0-1.4-.5,60.9,60.9,0,0,0-4.6,5.5,6.4,6.4,0,0,0-.7,3.1c-.1,2.3,0,4.5-.1,6.8a6.5,6.5,0,0,1-.6,2.3,2,2,0,0,1-2.3,1.2,3.2,3.2,0,0,1-1.8-1.4,9.1,9.1,0,0,1-.4-3.3c.3-4.9.7-9.8,1.1-14.8a6.8,6.8,0,0,1,.2-1.4c.4-1.7,1.8-2.1,3.2-.9l1.2,1.6A15,15,0,0,1,84,98.9c3.4-3.3,5.9-3,9.1.9l.5.6,2-1.6a7.2,7.2,0,0,1,11.4,4.8,23.8,23.8,0,0,1,.1,3.8c-.3,3.5-.5,7-.8,10.5h.1c-.7,1.9-2.2,2.3-3.9,1.7s-2.2-2.2-2.4-3.8c-.4-3.5.3-6.9-.5-10.6a20.3,20.3,0,0,0-5.5,9.9c-.1.7,0,1.5-.1,2.3s-.7,3.6-2.8,3.9-3.1-1.6-3.8-3.4h0a2.3,2.3,0,0,1-.1-2.9A.4.4,0,0,0,87.4,114.5Z"/><path class="cls-11" d="M137.1,118c-1.1.8-1.9,2.4-3.6,1.7s-1.9-2.4-1.8-4c.2-4.6.4-9.2.7-13.8.1-2.2,1-2.7,3.1-1.9s1.3.6,2-.2l2.5-2.2a9.4,9.4,0,0,1,5.4-1.7,4.7,4.7,0,0,1,4.8,3.2,20.6,20.6,0,0,1,1.2,6c.2,3.5,0,7-.1,10.5a12.9,12.9,0,0,1-.4,1.9,2.5,2.5,0,0,1-1.9,1.9,2.8,2.8,0,0,1-2.9-1.2,8.4,8.4,0,0,1-1.1-2.1h0a5.1,5.1,0,0,1-.1-4.8,7.6,7.6,0,0,0,.1-1.5,10,10,0,0,0,.4-4.2c.1-2.8-1.2-3.2-3.5-2.1h0a2.1,2.1,0,0,1-.9,1h0c-1.6,4.3-.7,9.4-3.9,13.4Z"/><path class="cls-3" d="M87.4,118a9.8,9.8,0,0,0,1.7,2.3,2.4,2.4,0,0,0,3.9-1,6.3,6.3,0,0,0,.3-1.9c.2-4.4,2-8.3,3.7-12.3a7,7,0,0,1,1-1.6,1.9,1.9,0,0,1,2.5-.5,2.3,2.3,0,0,1,1.2,1.8,54.8,54.8,0,0,1-.5,5.7c-.1,1.7-.3,3.5-.3,5.2s.5,2.9,2.1,3.5,2.4-.4,3.4-1.2c-.1.9-.1,1.8-.2,2.8s-2.3,2.9-3.9,1.1-3.5-4-2.9-7-.7-3.2-1.9-3.3-2.3,1-2.5,2.8a35.5,35.5,0,0,1-.6,4.7c-.7,2.8-1.6,3.3-4.7,3.1l-1.4-.2h0A5.7,5.7,0,0,1,87.4,118Z"/><path class="cls-3" d="M156.4,110.4c0-1.3,0-2.5.1-3.8s-.7-5-.7-5.6.4-.8.6-1.1h.1c2,.9,3.4-.6,4.8-1.4s3.9-1.7,5.3.7-.3,3.4-2.1,4.2c-3.4,1.5-4.9,4.9-7.5,7.2Z"/><path class="cls-3" d="M137.1,118.1c.7-3.3,1.3-6.5,2.1-9.7a25.3,25.3,0,0,1,1.8-3.7,29.5,29.5,0,0,0,.2,4.2C142,113,140.4,115.9,137.1,118.1Z"/><path class="cls-3" d="M141.9,103.6a6.5,6.5,0,0,1,1.7-1.6,1.2,1.2,0,0,1,1.8.9,12,12,0,0,1-.4,7c0-1.1,0-2.2-.1-3.3S144.8,104.3,141.9,103.6Z"/><path class="cls-3" d="M144.9,111.4c0,1.6.1,3.2.1,4.8C143.4,114.6,143.5,113,144.9,111.4Z"/><path class="cls-3" d="M30.7,121.1c.3.6.5,1,.4,1.1a1.7,1.7,0,0,1-1,.6c0,.1-.3-.3-.3-.3Z"/><path class="cls-3" d="M156.4,113.3c-1.1-1.4-1.1-1.4,0-2.9h.1a1.9,1.9,0,0,1,.1,2.7Z"/><path class="cls-3" d="M87.3,115.2a28.1,28.1,0,0,1,.1,2.9C86.1,116.7,86.1,116.7,87.3,115.2Z"/><polygon class="cls-3" points="145.9 122 145.6 122.4 145.5 122.2 145.9 122"/><path class="cls-3" d="M88.3,122l-.3.4.3-.4Z"/><path class="cls-3" d="M141,104.6l.9-1Z"/><path class="cls-12" d="M508.2,47.2c.5-3.7.9-7.5,1.5-11.3a33.8,33.8,0,0,1,3.8-9.7c.7-1.1,1.3-1.1,2.4-.3a5.3,5.3,0,0,1,2.5,3.8c1,8.5.7,16.8-2.3,24.9a18.6,18.6,0,0,1-2.5,4.6c-.5,1-1.5,1-2.4.4a5.2,5.2,0,0,1-2.7-4.2c-.1-2.7,0-5.4,0-8.1Z"/><path class="cls-13" d="M501.9,57.7h-1.6a8.5,8.5,0,0,1,.6-1.7c.1-.3.5-.4.7-.6s.4.6.4.8A6.1,6.1,0,0,1,501.9,57.7Z"/><path class="cls-14" d="M532.6,65.1h-2.5c-1.8-1.7-1.7-4-1.8-6.2-.1-8.4-.2-16.7-.4-25,0-4.1,0-8.3-.1-12.4s1.1-3.6,3.9-2.5l.9.5a5.3,5.3,0,0,0,.8,1.7,50.9,50.9,0,0,1,7.4,13.3,17.8,17.8,0,0,0,1,2.1c.6-.9,1.2-1.5,1.6-2.2a76.3,76.3,0,0,0,5.8-16.2c.5-2.3,1.1-4.6,2.9-6.4l3.4.2a6.9,6.9,0,0,1,1.5,4.4,135.1,135.1,0,0,1,.3,19.1c-.3,4.2-.2,8.5-.3,12.8V63.5a8.5,8.5,0,0,1-1.4,5.4h-4.4c-1.4-1.7-1.4-3.8-1.4-5.9V36.7c-1-.3-1.2.7-1.5,1.3s-1.6,3.4-2.5,5.2a8.2,8.2,0,0,1-1.2,2c-1.9,2.4-4.6,2.3-6.3-.2a19.2,19.2,0,0,1-1.7-3.9c-.6-1.7-1.1-3.4-1.7-5s-.4-.5-.5-.8-.8.8-.8,1.3l.6,14.8c.2,3,.2,6,.3,9A5.5,5.5,0,0,1,532.6,65.1Z"/><path class="cls-9" d="M55.8,61.3a20,20,0,0,1-1-2.1c-.8-3.4-.7-6.5,2.1-9.1a.5.5,0,0,0,.7-.2,1.2,1.2,0,0,1,1.8.1h0c2.2-.1,1.9,4,4.1,2.8s1.5-3.6,1.8-5.6a20.3,20.3,0,0,0-.9-9.8h0a19.2,19.2,0,0,0-6.9-4.1c-4.3-1.2-4-5.2-4.7-8.6V22.5c.9-2.5.3-5,.9-7.6s3.4-6.4,6.5-8.4,7.2-.6,8.9,2.8,1.1,5.5.9,8.4a3.1,3.1,0,0,1-3.1,3.1c-1.8.1-2.4-1.2-2.7-2.7s0-2.3-1-3.2c-3.3,3.6-3.3,7.4,0,12.1h.1c4.9.9,7.7,3.8,8.6,8.6h0c4.9,8,2.8,20.3-4.5,25.8-4,3.1-7.6,3-11.7-.1Z"/><path class="cls-3" d="M63.2,27c-3.4-.9-3.7-1.1-3.8-3.8s0-6.7,2-9.6A13.3,13.3,0,0,1,63,11.9c.4-.4,1.5-.1,1.6.4l.6,3.3a15.7,15.7,0,0,0,.5,3.7,1.7,1.7,0,0,0,1.4,1,1.7,1.7,0,0,0,1.3-1,17.2,17.2,0,0,0,.1-9c-1.2-3.7-4.6-5-8-3a11.5,11.5,0,0,0-4.8,5.2,46.1,46.1,0,0,0-2,6.3c-.4,1.2-.6,2.5-.9,3.7,0-2.4-.2-4.8,0-7.2s.5-5.4,3.3-6.9A4.4,4.4,0,0,0,57.4,7c2-3.4,5.2-3.3,8.4-3a5.1,5.1,0,0,1,2.4,1.5,16.5,16.5,0,0,0,2.4,2.2,2.2,2.2,0,0,1,1.2,2.8,8.8,8.8,0,0,0-.1,6c.7,2.4-.8,4.7-3.2,5.6S63.7,23.9,63.2,27Z"/><path class="cls-3" d="M55.7,61.3C61.9,65,71.8,60.7,73,51.2a36.8,36.8,0,0,0-.6-12.8c-.2-.9-.3-1.9-.5-2.8l1.3.6a3.6,3.6,0,0,1,2.6,4.1c-.1,1.2-.3,2.5-.4,3.8a5.5,5.5,0,0,0-.1,1.8c.8,4.4-.8,8.1-3,11.7a6.5,6.5,0,0,1-1.6,1.7,10,10,0,0,0-1.9,2.2c-1.6,3.5-4.4,4.3-7.9,3.8h-.5c-2.5.4-3.9-.6-4.4-3.1Z"/><path class="cls-3" d="M64.4,37.4c.4.8,1,1.6,1.3,2.4a30.7,30.7,0,0,1,.7,10.5A6.3,6.3,0,0,1,64,54.8c-1,.9-2.7,1.3-2.9.7a4.9,4.9,0,0,1-.1-2.1c.2-1.5-.9-2.3-1.6-3.4,1.4-.1,3.1.1,4-.6s.7-2.5,1.2-3.8a5.5,5.5,0,0,0,.1-3.6A23.7,23.7,0,0,1,64.4,37.4Z"/><path class="cls-3" d="M52.8,24.7a6.7,6.7,0,0,1,.7,1.8A8.8,8.8,0,0,0,59,33.2l3.5,1.6a3.5,3.5,0,0,1,1.9,2.6c-1.1,0-2.3.2-3-1s-2.2-1.9-4.1-1.3-2.9.1-3.6-2.3A20.3,20.3,0,0,1,52.8,24.7Z"/><path class="cls-3" d="M71.9,35.6A18.4,18.4,0,0,0,63.3,27a29.4,29.4,0,0,1,4.2,0,4.7,4.7,0,0,1,4.4,4.3C72,32.7,71.9,34.2,71.9,35.6Z"/><path class="cls-3" d="M59.4,50H57.6C58.2,49,58.9,48.9,59.4,50Z"/><path class="cls-9" d="M229.5,100c1.6-1.6,3.1-3.2,4.8-4.7a5.6,5.6,0,0,1,4.9-1.3c2.8.5,5,2.9,4.5,5.8a21.4,21.4,0,0,1-2,5.3c-.5.8-1.1,1.4-.3,2.4,2,2.5,1.9,5.4,1.5,8.3a7.3,7.3,0,0,1-6.3,6.3c-3.7.6-6.4-.7-8-3.7-.5-1-.8-2.1-1.3-3.4l-3.1,2.6c-6.3,5.6-13.4.6-14.9-5.1s2.3-12.9,7-15.2a4.8,4.8,0,0,1,6.8,5.8c-1,3.1-3.2,5-5.9,6.6-.9.5-2.6.5-2.1,2.1a3.4,3.4,0,0,0,3.2,2.5,2.8,2.8,0,0,0,1.8-.3,24.6,24.6,0,0,0,6.9-5.9,2.5,2.5,0,0,0,.6-1.3c-.2-2.5,1.3-4.6,1.9-6.9Z"/><path class="cls-6" d="M182.2,118.9c-5,.2-7-1.5-7.5-6.3a45.2,45.2,0,0,1,1.2-15.1c.3-1.3,1-1.5,3.4-1.3.1,2,.3,4.1.3,6.2s0,5.1.1,7.6,0,2.6,1.2,2.8,1.7-1.2,2.4-2.1a16.6,16.6,0,0,0,2.9-9,31.7,31.7,0,0,1,.2-4.3,2.4,2.4,0,0,1,2.1-2.2,2.7,2.7,0,0,1,3.2,1.4,12.3,12.3,0,0,1,.8,3.7c-.1,4.5-.5,8.9.3,13.4a2.8,2.8,0,0,1-1.8,3.1,2.6,2.6,0,0,1-3.1-.6l-1.8-1.6Z"/><path class="cls-15" d="M198.8,113.1a.6.6,0,0,0-.1-.7c.1-4.7.1-9.3.2-13.9.1-1.7.1-3.1-1.4-4.3s-1-2,.2-2.8a4.2,4.2,0,0,0,1.8-4.1c0-2.3,0-4.5.1-6.7a3.7,3.7,0,0,1,.5-1.8,1.4,1.4,0,0,1,2-.5c.5.6,1.2,1.2,1.3,1.9.4,2.5.7,5.1,1,7.6a1.6,1.6,0,0,0,1.9,1.6h4.8a3.7,3.7,0,0,1,1.8.4,1.2,1.2,0,0,1,.8,1c.1.4-.1,1.2-.4,1.3l-4.5,1.7-3.9.8c-.1,1.1-.3,2.2-.3,3.2.1,5.5-.2,10.9,1,16.3a3.2,3.2,0,0,1,.1,1.4,2.7,2.7,0,0,1-1.7,2.7,2.9,2.9,0,0,1-3.4-1.2C199.9,115.7,199.4,114.4,198.8,113.1Z"/><path class="cls-16" d="M218.1,82.8a2.2,2.2,0,0,1,3.4.2.5.5,0,0,0,.1.6c-.5,1.3-1,2.6-1.6,3.9a9.7,9.7,0,0,1-1.5,2.4,1.7,1.7,0,0,1-1.7.2c-.4-.1-.7-1-.6-1.5s.5-1.1.7-1.7Z"/><path class="cls-9" d="M133.2,54.6c-.8,2.1-1.6,4.1-2.5,6.1-3.5,7.6-7.6,8.9-15.1,5l-1.3-.5c-3.6-3.4-4.8-7.8-4.8-12.5s.3-10.5.6-15.7c.1-2,.2-4.1.4-6.2h-.1c.9-5.5,1.2-11.1,4.5-16.1,2.3-3.5,4.6-6.2,8.8-7h.1a4.9,4.9,0,0,1,6.6.2h0c4.2,2.4,5.5,5.2,4,8.7s-2.8,3.4-4.8.7h.1c-1-1-.5-3.3-2.8-3.3s-3.5,1.2-4.5,3c-2,3.7-2.3,8.1-4.4,11.8a.6.6,0,0,0-.1.7,196.8,196.8,0,0,0,0,26.6.5.5,0,0,0,.1.6,2.8,2.8,0,0,0,1.3,2.4c2.4,1.9,3.5,1.7,5-.7a26.1,26.1,0,0,0,3.4-8.9c.2-1.8,0-2.1-1.7-2.8a5.6,5.6,0,0,1-1.8-.7,3.2,3.2,0,0,1-1.2-1.8c-.3-1.1.5-1.8,1.4-2.3l.4-.2,10.4-1.4a2.6,2.6,0,0,1,2.7,2.2,2.8,2.8,0,0,1-1.4,2.8,3.4,3.4,0,0,1-1.2.6,2,2,0,0,0-1.6,2.1C133.6,50.2,133.4,52.4,133.2,54.6Z"/><path class="cls-3" d="M123.7,7.7c-5.5,2.6-8.6,7.2-10.4,12.8-.8,2.7-1.4,5.4-2.1,8.2a18,18,0,0,1-.8,2.1c.1-3.3-.6-6.6.5-9.9a3.3,3.3,0,0,0,0-1.4c-.9-1.9-.1-2.9,1.6-3.8a2.9,2.9,0,0,0,1.5-1.6c.2-1.7,1.6-2.3,2.3-3.4C118.1,7.7,120.7,7.4,123.7,7.7Z"/><path class="cls-3" d="M118,28.8a26.6,26.6,0,0,1,3.6-12.2c1.2-2.1,2.9-3.8,5.5-4.1s2.5.4,2.6,1.9a28.1,28.1,0,0,1,0,2.9c-.2-.1-.3-.1-.4-.3s-2.6-2.2-4.2-1.4a4.6,4.6,0,0,0-2.9,4.4C122.4,23.7,121.3,26.8,118,28.8Z"/><path class="cls-3" d="M129.6,17.2c.3.2.5.5.8.6s2.5.6,2.9-.8c1-3.3,1-6.3-2.3-8.5a2.2,2.2,0,0,1-.6-.7c.8.1,1.8-.1,2.3.3s2.7,2.6,4,3.9a2,2,0,0,1,.4,1.3c.3,2.9-3.1,6.2-5.9,5.9A1.7,1.7,0,0,1,129.6,17.2Z"/><path class="cls-3" d="M117.9,56.1a11.8,11.8,0,0,1-.8-3.1,137.7,137.7,0,0,1,.2-21.3,10.4,10.4,0,0,1,.6-2.2Z"/><path class="cls-3" d="M130.4,7.9l-6.6-.2c.3-.9.3-2,.8-2.6A3.7,3.7,0,0,1,128.1,4c.4.1,1,.4,1.1.7A30.3,30.3,0,0,1,130.4,7.9Z"/><path class="cls-3" d="M142,8.7l-.4-.2.4.2Z"/><path class="cls-6" d="M122,98c1-.7,2.1-1.4,3.5-.8a4.2,4.2,0,0,1,2,3.1,12.1,12.1,0,0,1,.1,1.9c.1,4.9.2,9.8.4,14.7a2.8,2.8,0,0,1-1.5,2.8,2.7,2.7,0,0,1-3.1-.3l-.7-.6-1.2-1.3a17.5,17.5,0,0,1-2,1.9c-2.6,2-5.5,1.5-7.3-1.3-.7-1.2-1.2-2.6-1.8-3.9l.6-11.9a3.6,3.6,0,0,1,.3-1.8,3.3,3.3,0,0,1,1.6-1.5,1.7,1.7,0,0,1,2.3,1.2,6.3,6.3,0,0,1,.6,2.7c.1,1.6,0,3.2,0,4.8a45.3,45.3,0,0,0,.3,5.2c0,.8.1,1.9,1,1.9a3.1,3.1,0,0,0,1.7-1.5,33.2,33.2,0,0,0,2.3-6.7A80.8,80.8,0,0,0,122,98Z"/><path class="cls-15" d="M34.8,96.3a.6.6,0,0,0,.7-.2l2.8-.2A4.4,4.4,0,0,1,43,98.4c2,4,1.8,8,.6,12.1-.5,1.5-1.1,3-1.7,4.5l-2.6,2.8c-4.1,3.7-8.8,1.2-10.3-2.1a10.8,10.8,0,0,1-1-6.1C29,104.5,30.7,99.8,34.8,96.3Z"/><path class="cls-14" d="M313.8,45.1c-.4,1.5-1,3-1.3,4.6-.9,4.8-1.7,9.7-2.6,14.5l-1.1,2.2a3.4,3.4,0,0,1-3.9,2c-1.6-.1-2.5-1.2-3.1-2.6a8.6,8.6,0,0,1-.5-2.3c-.3-2.4-.6-4.8-.8-7.1l-.9-19.6c-.1-2.1.1-4.2-1-6.1-.6-4.1-1.1-8.2-1.6-12.3a29.7,29.7,0,0,1-.3-4.2,1.7,1.7,0,0,1,2-1.6,11.7,11.7,0,0,1,3.4,1.6,2.5,2.5,0,0,1,.9,2.9,5.3,5.3,0,0,0-.2,3.7c1.5,6.5,2.9,13.1,4.3,19.6.6.4.5.9.4,1.5s.1-1.1.5-1.6c1.9-6.7,3.9-13.5,4.8-20.5.3-1.8.7-3.7,1.2-5.6a14.3,14.3,0,0,1,.9-2.7,3.2,3.2,0,0,1,3.2-1.7,3.4,3.4,0,0,1,2.5,3.1,18.8,18.8,0,0,1-.5,3.3c-2.1,9.2-4.2,18.3-6.2,27.5A6.1,6.1,0,0,0,313.8,45.1Z"/><path class="cls-9" d="M328.4,12.6c1.4-.2,2.8-.6,3.8.9a13.1,13.1,0,0,0,2.1,2,10.7,10.7,0,0,1,4.6,9.5c-.1,5.3-.4,10.5-.7,15.8s-2.4,12.5-5,18.4a17.4,17.4,0,0,1-1.8,3.3,4,4,0,0,1-5.6,1.1,10.8,10.8,0,0,1-5.2-7.1,51.3,51.3,0,0,1-1.6-9.4,67.5,67.5,0,0,1,2-19,42.3,42.3,0,0,1,7.4-15.4Z"/><path class="cls-17" d="M308,40.3c-.1.5-.3,1.1-.4,1.6l-.5-1.5Z"/><path class="cls-18" d="M438.6,32.4a15.5,15.5,0,0,0,.1,2.2c-1.8.6-1.8.6-2,2.9-1.9-1.6-3.7-3.5-6.3-4.2a2.1,2.1,0,0,1-1.5-2.2,27.8,27.8,0,0,1,2.8-14.4c.7-1.4,2.1-1.5,2.8,0a9.4,9.4,0,0,1,1.3,4c0,3-.3,6-.4,9a16.2,16.2,0,0,0-.4,1.9c-.1.8-.2,1.6.8,2a1.7,1.7,0,0,0,2.1-.5Z"/><path class="cls-11" d="M418.4,118.9a22.8,22.8,0,0,1-3.6,1.5,17.3,17.3,0,0,1-5.1.5c-3.7-.4-5.3-3.7-3.8-7.1a11.2,11.2,0,0,1,4.7-4.7l2.5-1.3c2.9-1.2,2.9-1.2,2.1-5.2a30.2,30.2,0,0,1-4,2.6c-.4.3-1.5.3-1.7,0s-.9-1.6-.6-2.1a11.6,11.6,0,0,1,6.4-6.1c2.5-.8,4.5.2,5.2,2.8a12,12,0,0,1,.7,4.2c.2,2.2,0,4.5.2,6.7a9.3,9.3,0,0,1-3,8.2Z"/><path class="cls-19" d="M435.7,118.9l-.4-.2H435l-2.5-2.7a23.8,23.8,0,0,1-2.6,2.8c-2,1.7-4.3,1.4-5.6-.9a6.8,6.8,0,0,1-.9-2.2,35.4,35.4,0,0,1,1.7-13.7c.1-.3.2-.7.5-.8a2.7,2.7,0,0,1,1.7-.6c.5.1,1.3.6,1.3,1.1a23,23,0,0,1,.2,3.7c-.2,2.6-.4,5.1-.6,8.1,2.5-1.1,3.1-3,3.6-4.9a13.7,13.7,0,0,0,.2-2.9,15.7,15.7,0,0,1,.4-2.3,2.5,2.5,0,0,1,2.3-2.1c1.2-.1,2.1,1,2.2,2.6.3,3.8.5,7.6.8,11.4C437.9,117.1,437,118.1,435.7,118.9Z"/><path class="cls-20" d="M451.9,111.6c.4,1,1,2,1.4,3a2.4,2.4,0,0,1-1,2.9,2.1,2.1,0,0,1-2.6-.1l-2.8-2-1.6,3.6c-1.1,2.2-1.8,2.3-4.6.9-.2-2.5,1.1-4.6,2.2-6.7a4.1,4.1,0,0,0-.2-4.5,36.2,36.2,0,0,1-2.2-3.2,1.8,1.8,0,0,1-.1-2.2,2.2,2.2,0,0,1,2.5-.7,6.9,6.9,0,0,1,2,1.3,9.6,9.6,0,0,1,1.7,1.4l2.4-3.5a12.9,12.9,0,0,1,1.9-2.1,1.2,1.2,0,0,1,1.3,0,2,2,0,0,1,1,1.4,4.8,4.8,0,0,1-.5,2.3c-.6,1.3-1.3,2.5-1.9,3.8S449.8,109.4,451.9,111.6Z"/><path class="cls-21" d="M473,91.5l.9,1,5.3,7.3a.9.9,0,0,0,1.6.1l2.3-3.7c1.2-1.4,2.3-2.9,3.5-4.4a12.9,12.9,0,0,1,1.6-1.7,2.1,2.1,0,0,1,3,.5,9.4,9.4,0,0,1,1,3.1c.1,7.8.1,15.7.2,23.5a4.6,4.6,0,0,1-.6,2.3,2,2,0,0,1-2.3,1.3,3.7,3.7,0,0,1-2.2-1.4,7,7,0,0,1-.6-3.2V100.6c-1.7.7-2.2,2.2-3,3.2-2,2.6-3.2,2.8-6,1a15.8,15.8,0,0,1-1.5-1.2c-2.2-.3-1.5,1-1.2,2.1l.3,8.6a19.3,19.3,0,0,1-.1,2.4,3,3,0,0,1-2.5,2.5,3.1,3.1,0,0,1-3.2-1.6,15.1,15.1,0,0,1-.9-4.1c-.1-6.7,0-13.4,0-20a3.3,3.3,0,0,1,0-1c.2-1.6,1.5-2.2,3.1-1.7Z"/><path class="cls-22" d="M526.1,116.2c-2,2.2-2,2.2-4.7.8-.1-2.7-.3-5.4-.5-8.1-.1-.8-.3-1.8-.8-2.1s-1.7.4-2.4,1.1-2.6,3.2-2.3,5.5a5.3,5.3,0,0,1-.2,2.8,2.6,2.6,0,0,1-1.8,1.3,2.4,2.4,0,0,1-1.9-1.1,4,4,0,0,1-.5-2.2c-.1-3.1-.1-6.1-.2-9.1a11.1,11.1,0,0,1,.2-1.9,1.5,1.5,0,0,1,2.6-.8c1,.8,1.6,1.2,2.7.2,2.9-2.3,5.8-2.4,8.6.3l1.3,5.6C527.4,111.1,526.9,113.6,526.1,116.2Z"/><path class="cls-23" d="M509.5,108.1c-.2,3.4-1,6.2-2.9,8.5s-6.6,3.2-9.2.2a8.2,8.2,0,0,1-2-4.2,11.5,11.5,0,0,1,2.1-8.6c3.2-4.6,8.6-4.1,11,.9A14.1,14.1,0,0,1,509.5,108.1Z"/><path class="cls-9" d="M33.6,12.6C37,8.8,41.5,8.7,45.9,8.8A3.3,3.3,0,0,1,49,12a3.7,3.7,0,0,1-3.4,3.4h-.4c-1.9-.1-3.8-.5-5.5.7-.1,1.7-.2,3.4-.2,5.2l.3,12.4c0,1.2.3,1.8,1.6,1.9h3.3a2.1,2.1,0,0,1,2.1,1.7,2.4,2.4,0,0,1-1.4,2.3l-3.5,1.4c-2.4.8-2.5.8-2.4,3.3s.6,7.3,1,11c.1.9.8,1.3,1.8,1.2a50.3,50.3,0,0,1,5.6-.8,2.7,2.7,0,0,1,3,1.9,3.1,3.1,0,0,1-1.3,3.8,28.3,28.3,0,0,1-4.3,2,37,37,0,0,1-5.5,1.4,4.7,4.7,0,0,1-6-4.1c-.9-6.5-1.6-13-.8-19.5.4-3.5.4-7,.6-10.5V29.2a45.6,45.6,0,0,0,0-13.8h0a2.2,2.2,0,0,1,0-2.9Z"/><path class="cls-3" d="M33.6,15.4c.2.4.7.8.7,1.2.1,4.2.4,8.4-.7,12.6Z"/><path class="cls-3" d="M33.6,12.5v2.9C32.4,13.9,32.4,13.9,33.6,12.5Z"/><path class="cls-9" d="M29.5,61.2l-8,1.7c-3.6.7-6.1-1-6.1-4.6-.1-7.4,0-14.7.1-22.1s.6-12.4.8-18.6c.1-1.3.1-2.6.2-3.9a3,3,0,0,1,2.2-2.8c1.3-.4,2,.6,2.8,1.4s.2.2.4.3c.1,8.3.2,16.6.2,24.9V51.4c0,1.1.2,2.2.3,3.3h4.4c3.7.1,5,2.3,3.2,5.7A2.2,2.2,0,0,1,29.5,61.2Z"/><path class="cls-20" d="M568,103.4l-1.8-.5c-1.6-.4-2.1-.2-3.1,1.2s-.5,1.2.2,1.6,3.1,1.4,4.7,2.1a10.3,10.3,0,0,1,1.6,5.4,7.6,7.6,0,0,1-4.6,7.1c-3.2,1.5-5.7.2-6.2-3.3a5.4,5.4,0,0,1,0-1.8h-.1c1.2-.5,2.3-1.8,3.8-.6s1.2.7,1.7,0a2.4,2.4,0,0,0,.1-2.7,4.8,4.8,0,0,0-1.1-.9l-1.8-.7c-3.5-1.4-5.3-4.6-1.9-8.8a11.7,11.7,0,0,1,3.8-2.8,4,4,0,0,1,4.8.7C569.3,100.8,568.6,102.1,568,103.4Z"/><path class="cls-24" d="M558.8,115.2c-1.1.9-2,1.9-3.1,2.9-3.1,2.7-7,2.2-9.5-1.2-3.7-5.1-.6-13.4,3.6-15.5a3.1,3.1,0,0,1,3.1-.1,3,3,0,0,1,1.5,3.3,11,11,0,0,1-2.2,5.2l-1.9,2.1a1.7,1.7,0,0,0,.3,2.2c.5.6,1.2,1.2,2.1.7a33.7,33.7,0,0,0,3.1-2.1c1.5-.9,2.4-.4,2.8,1.6a2.8,2.8,0,0,0,.1.9Z"/><path class="cls-9" d="M371.5,11.6c3.2,5.5,2.3,11.3.8,17.1a1.4,1.4,0,0,1-.6.7,3.1,3.1,0,0,1-1.3.3c-.2-.1-.6-.4-.6-.6s-.1-2.2-.1-3.3c-.1-2.7-.2-5.5-.4-8.2a2.1,2.1,0,0,0-.9-1.5,2.3,2.3,0,0,0-1.6.8A21.1,21.1,0,0,0,363,28.5a2.8,2.8,0,0,0,1.9,3c5.6,2.2,7.7,6.8,8.7,12.2a25.9,25.9,0,0,1,.1,10,17.2,17.2,0,0,1-6.3,10.4c-2.3.6-4.6,1.4-6.9,1.8a7.7,7.7,0,0,1-8.2-10.6,4.4,4.4,0,0,1,1.5-1.8,2.5,2.5,0,0,1,4.1,1.4,12.5,12.5,0,0,1,.3,1.9c.4,1.4,1.1,1.9,2.5,1.6a6.4,6.4,0,0,0,5.4-4.8,18.3,18.3,0,0,0-1-12.6,6,6,0,0,0-2.9-3c-4.5-2.3-5.7-6.2-5.1-10.9a29.6,29.6,0,0,1,4.3-11.6,9,9,0,0,1,1.5-1.9C365.3,11.1,368,9.9,371.5,11.6Z"/><path class="cls-9" d="M181.5,65.2c.2-5.2.4-10.5.5-15.7.1-1-.5-1.4-1.5-1.1L175,50.1a2.6,2.6,0,0,0-2,1.8c-.5,2.2-.9,4.4-1.4,6.5a39.9,39.9,0,0,1-1.9,4.8,2.1,2.1,0,0,1-1.4,1c-.9.1-1.4-.7-1.4-1.5a43.8,43.8,0,0,1,.4-5.2c.2-1.5.5-3.1.7-4.6h0c1.1-4.9.4-10.2,3.8-14.5.2-.1.3-.3.1-.6,1.5-4.8.6-10.3,3.8-14.7h0c1-2.6,1.9-5.1,2.8-7.6a13.7,13.7,0,0,1,3.7-5.5c2.1-2,4.8-1.4,5.6,1.4a43.4,43.4,0,0,1,1.1,6.1,31,31,0,0,1,.2,4.3c0,13.9-.1,27.7-.1,41.6a6.2,6.2,0,0,1-.2,1.9c-.3,1.5-1,2.7-2.6,3a3.3,3.3,0,0,1-3.7-1.6C182.2,66.3,181.8,65.8,181.5,65.2Z"/><path class="cls-25" d="M197.8,30.8l.4-1.6c.1.6.3,1.1.4,1.6Z"/><path class="cls-26" d="M274.8,118.8l-3-3.7a18.7,18.7,0,0,1-.3-11,16.4,16.4,0,0,0,.2-2.3c.7-1.5,1.3-3.1,2.1-4.7a22.9,22.9,0,0,1,5.4-7.7c2.1-1.9,4.3-3.2,7.3-2.9a15.5,15.5,0,0,0,3.7-.4,6.6,6.6,0,0,1,7.2,2.3l1,1c2.2,6.4,1.6,12.9,0,19.3a18.4,18.4,0,0,1-4.1,7.5,14.5,14.5,0,0,1-17.8,3.4Z"/><path class="cls-24" d="M314.9,109.4c-.1,2.5-.1,4.2-.3,6s-1.4,2.6-3.4,2.3a3,3,0,0,0-2.6.5,5.8,5.8,0,0,1-2.1,1,4.3,4.3,0,0,1-5.6-3.1,4.2,4.2,0,0,1-.3-1.9c.2-3.6.4-7.3.8-10.9a1.7,1.7,0,0,1,1.9-1.7,1.9,1.9,0,0,1,2,1.7c.3,1.7.5,3.4.7,5.1s0,2.6.1,3.8a.9.9,0,0,0,.5.7c.3,0,.7-.1.8-.3a19.3,19.3,0,0,0,1.5-4,23.6,23.6,0,0,0,.2-3.8,15.7,15.7,0,0,1,.4-2.3,2.3,2.3,0,0,1,2.5-1.7,2,2,0,0,1,2,1.7C314.4,105,314.7,107.6,314.9,109.4Z"/><path class="cls-7" d="M329.1,100c.1.9.3,1.8.4,2.8s.1,1.2,1.5.6c1.6,3.3-.3,5.7-2,8.1-.6-.6-1.3-.1-2.5,2l-2.2,5.4c-3.7.3-4.6-.1-5.5-3s-1.2-5-1.8-7.4l-.9-3.3a2,2,0,0,1,1.3-2.3,2.1,2.1,0,0,1,2.5.8,10.5,10.5,0,0,1,1.2,2.1l1,2.4a30.2,30.2,0,0,0,1.2-2.9c.4-1,.6-2.1,1-3.2S325.9,99.3,329.1,100Z"/><path class="cls-3" d="M175.7,23.1a53.1,53.1,0,0,1-3.8,14.7c0-2.5-.4-5,.5-7.4s-.2-2.2-.4-3.2a3.9,3.9,0,0,1,.8-3.1C173.5,23,174.7,23.1,175.7,23.1Z"/><path class="cls-3" d="M171.8,38.4c-1.3,4.9-2.5,9.7-3.8,14.5a36.6,36.6,0,0,1,1-12.3A2.8,2.8,0,0,1,171.8,38.4Z"/><path class="cls-3" d="M164.2,25.1c0,1.2,0,2.4-.1,3.7-.1,3.1-.3,3.3-3.8,3.9l-.2-.2a6.7,6.7,0,0,1,3.8-7.6Z"/><path class="cls-15" d="M328.5,111.4c.8-2.7,2.2-5.1,2.5-8l2.2-3.3a16.7,16.7,0,0,1,3.8-.3,3.3,3.3,0,0,1,2.9,3.3,6.3,6.3,0,0,1-1.5,4.9,59.7,59.7,0,0,1-4.4,4.3,1.4,1.4,0,0,0-.5,1.6,2.1,2.1,0,0,0,2.1,1.7,2.4,2.4,0,0,0,1.8-.5c2.8-1.8,5.5-3.6,5.2-7.7a12.4,12.4,0,0,1,.6-4.7c.2-.6,1.3-1.5,1.6-1.4s3.2-.1,4.7-.2a6.2,6.2,0,0,1,2.7.5,2,2,0,0,1,1,1.5,2.2,2.2,0,0,1-.8,1.5,11.9,11.9,0,0,1-2.6,1.1,3.6,3.6,0,0,0-2.6,3.6c0,1.6,0,3.2-.1,4.8a28.1,28.1,0,0,1,0,2.9,2.7,2.7,0,0,1-1.8,2.6c-1.3.4-2.1-.3-2.8-1.3s-.5-.3-.7-.4c-5.5,4.2-7.2,4.3-12.3.9-.4-1.1-.9-2.3-1.3-3.5S327.1,112.6,328.5,111.4Z"/><path class="cls-2" d="M163.9,24.9c-1.2,2.5-2.5,5.1-3.8,7.6s-3.5,3.5-4.4,5.6,1.3,4.4,2,6.7c1.8,5.6,4,11.1,6,16.6a3.2,3.2,0,0,1,.3.9,3,3,0,0,1-1.4,3.7,2.9,2.9,0,0,1-3.8-1c-.8-1.1-1.5-2.4-2.2-3.6-1.7-6.3-3.5-12.5-5.2-18.8a1.5,1.5,0,0,0-1.8-1.2c-1.4.1-2.4.8-2.5,1.7a9.6,9.6,0,0,0,0,2.4l.3,10.4a20.6,20.6,0,0,1,0,4.3c-.4,3.3-2.3,4.1-5.3,2.6l-.8-.5c0-7.2-.1-14.3.2-21.5.3-9,.9-18.1,1.4-27.1a12.8,12.8,0,0,0,.1-1.9,2.6,2.6,0,0,1,1.8-2.1c8.5-3,14.2-.1,17.8,6.4.4.9.9,1.7,1.3,2.5s-.1.5.2.6C164,21.1,164,23,163.9,24.9Z"/><path class="cls-1" d="M536.6,107.6a6.9,6.9,0,0,1-2.8,6.2c-.4.3-1.3-.1-1.4-.7s.2-4,1.2-5.9,1.6-1.7,2.1-1.2A4.4,4.4,0,0,1,536.6,107.6Z"/><path class="cls-1" d="M526.1,116.2v-7.7h1.7c0,2.3-.1,4.6-.2,6.9Z"/><path class="cls-6" d="M384.7,100.1c.9,1.5,1.2,2.9.2,4.5s-1.4.5-2.2.5a.8.8,0,0,1-.5-.2c.3,1,2.1-.4,2.5.9a5.9,5.9,0,0,1,3.6,4.7,7.1,7.1,0,0,1-1.6,5.8,12.7,12.7,0,0,1-3.1,3c-2.9,1.9-5,1.6-7.6-1a4.5,4.5,0,0,1-.6-1.2c-5.3,3.6-5.5,3.6-10.4,1.7a2.9,2.9,0,0,0-.2-.9c-.7-.3-.4-1.3-1.1-1.6h0c-.7-.9,0-2.1-.8-3-.6-3.6.7-6.7,3-9.5a5.3,5.3,0,0,1,3.5-2.1,4.4,4.4,0,0,1,4,2,2.3,2.3,0,0,1,0,2.9h0c-.6.5-.4,1.4-.9,1.9h-.1c-.8.8-.3,2.2-2.2,3.3a11.5,11.5,0,0,1,10.3.6c-1.5-1.3-4-1.4-4.2-4h0a1.3,1.3,0,0,1-.1-1.9,27.5,27.5,0,0,1,1.4-3C379.2,100.9,381.4,99.4,384.7,100.1Z"/><path class="cls-27" d="M376.3,108.5c1.2,2.1,3.3,2.2,5.4,2.5s1.9,1.4.7,2.7-1.6,1.3-2.6.2-3.5-1.4-5.1-2.4-1.5.2-2.1.6-1.6,1.5-2.5,2.2a1.5,1.5,0,0,1-2-.6,2.5,2.5,0,0,1,.4-1.7l3.9-3.4c.2,1,.6,1.7,1.8,1.8A1.9,1.9,0,0,0,376.3,108.5Z"/><path class="cls-27" d="M373.4,106.6v-2.9C374.6,105.2,374.6,105.2,373.4,106.6Z"/><path class="cls-8" d="M362.9,113.3c1.1.8.9,1.9.8,3A2.5,2.5,0,0,1,362.9,113.3Z"/><path class="cls-8" d="M363.7,116.3l1.1,1.6Z"/><path class="cls-27" d="M376.2,106.6v1.9C375.3,107.9,375.3,107.3,376.2,106.6Z"/><path class="cls-27" d="M372.5,108.5l.9-1.9Z"/><path class="cls-26" d="M2.9,112.3c0-1.6-.1-3.2-.1-4.7s.1-1,.1-1.5a30.5,30.5,0,0,1,12-21.7c2.8-2.2,5.2-2.5,7.8.3a5.4,5.4,0,0,1-.3,8c-2.1,2-3.9,2-4.8-1.1,0-.6.4-1.1.3-1.7s-.3.8-.4,1.3a71.4,71.4,0,0,0-7.1,14.4h0a8.3,8.3,0,0,0,0,5.4v.3l.2.2c1.2,2.2,2.8,2.9,4.3,1.8a27.2,27.2,0,0,0,2.4-2.4c.7-.6,1.3-1.4,2-2a3.5,3.5,0,0,1,4,.2,3.1,3.1,0,0,1,1.1,3.4c-1.2,5.1-7,9.3-12.1,8.7a9.7,9.7,0,0,1-8.1-5.7C3.6,114.4,3.3,113.3,2.9,112.3Z"/><path class="cls-15" d="M156.6,113.2c0-.9-.1-1.8-.1-2.7,2.7-6.2,5-7,9.8-9,0-.3.1-.6,0-.8-1.1-3-1.6-3.2-4-1.6l-2.6,2c-1.5,1.1-1.9.9-3.2-1.2,1-1,2-2.1,3-3a12.6,12.6,0,0,1,2.6-2.1c2.8-1.6,5.4-1,7.1,1.6a15.1,15.1,0,0,1,1.1,2.2,31,31,0,0,1,1.8,13.5,4.1,4.1,0,0,1-2.6,3.7,11.6,11.6,0,0,0-2.4,1.4c-2.9,1.8-5.5,1.6-7.9-.7A41.9,41.9,0,0,1,156.6,113.2Z"/><path class="cls-3" d="M18.3,90.2c0,.4-.1.7-.1,1a1.8,1.8,0,0,0,.9,2,2.4,2.4,0,0,0,2.7-.5,6.8,6.8,0,0,0,1.5-5.8,4.1,4.1,0,0,0-5.5-3.1,13.6,13.6,0,0,0-4,2.5,29.7,29.7,0,0,0-9,13.9c-.7,2-1.3,4-1.9,5.9.2-2.8.3-5.6.5-8.4a2.2,2.2,0,0,1,.8-1.5c2.2-1.6,2.4-4,3-6.2.1-.6.5-1.5.8-1.5,3.1-.3,3.8-3.5,6.1-4.8s.8-2,.2-3h2.9c2.1-.1,4.1,0,5.2,2.4a3.3,3.3,0,0,0,1.3,1.3,3.6,3.6,0,0,1,2.2,3.3c0,1.8-.1,3.5-1.9,4.6a4.4,4.4,0,0,0-1.3,1.4,4.8,4.8,0,0,1-4.3,2.4A3.5,3.5,0,0,0,14.6,99c-.7,2.7-2.6,4.6-4.2,6.6.3-6,2.9-10.9,6.8-15.3A.7.7,0,0,1,18.3,90.2Z"/><path class="cls-3" d="M10.4,110.9a5.5,5.5,0,0,1,0-5.4Z"/><path class="cls-3" d="M207.5,39.3c-1.4-4.2-2.9-8.3-4.2-12.5-.4-1.2-.7-2.4-1-3.6,2.1-.1,3.5,1.1,5.1,2.2s1.5.1,1.7-.8-.2-2.6,1.1-3.5a121.7,121.7,0,0,1-1.1,19.1C208,40.9,207.8,39.9,207.5,39.3Z"/><path class="cls-3" d="M202.4,23.2c-1.3-3.5-2.6-7.1-3.8-10.6,3.4.4,3.8.7,3.9,3.4S202.4,20.8,202.4,23.2Z"/><path class="cls-3" d="M196.7,11.5h-1.8C195.4,10.6,196.1,10.6,196.7,11.5Z"/><path class="cls-3" d="M198.6,12.6l-1.3-.9Z"/><path class="cls-28" d="M384.7,105.8h-2.3c-.3,0-.4-.4-.6-.6s.5-.5.7-.5h2.4C384.8,105,384.8,105.4,384.7,105.8Z"/><polygon class="cls-3" points="178.5 93.2 178.7 92.8 178.9 92.9 178.5 93.2"/><polygon class="cls-3" points="176.6 93.2 176.2 92.9 176.4 92.8 176.6 93.2"/><path class="cls-3" d="M51.8,93.2l.2-.4-.2.4Z"/><path class="cls-3" d="M4.7,93.2c-.7.3-1,.5-1.1.4a2.6,2.6,0,0,1-.7-1s.3-.4.4-.3Z"/><path class="cls-29" d="M456.1,57.8c2.4-1.3,4.9-1.8,7.3,0,.2.8.4,1.6.5,2.3,0,3-.9,4.3-3.7,5.3a14.6,14.6,0,0,1-3.6.9,3.2,3.2,0,0,1-3-4.6A42.5,42.5,0,0,1,456.1,57.8Z"/><path class="cls-30" d="M349.7,5.1c-.4.2-1,.8-1.7.8A1.5,1.5,0,0,1,346.5,4a1.4,1.4,0,0,1,1.7-1.2A1.8,1.8,0,0,1,349.7,5.1Z"/><path class="cls-31" d="M383.6,6.9a1.7,1.7,0,0,1-1.9-1.6,1.5,1.5,0,0,1,1.4-1.6,2,2,0,0,1,2.2,1.4C385.5,5.9,384.7,6.8,383.6,6.9Z"/><path class="cls-1" d="M328.5,111.4l-.3,3.9-1.7-1.8c.3-1.4.7-2.8,1-4.2h.5C328.2,110,328.3,110.7,328.5,111.4Z"/><path class="cls-3" d="M228.5,38.4c.1-6.4.2-12.8.2-19.2.1-2,1.2-2.4,2.9-1.8l1.6,1c3,3,5.3,6.6,5.7,10.8.7,7.5.5,15.1-1.8,22.3a37.7,37.7,0,0,1-2.9,6.1,5.2,5.2,0,0,1-2.1,1.8c-3.4,1.4-3.9,1.6-3.9-2.3V38.4Z"/><path class="cls-9" d="M259.9,27.1c4,2.1,5.8,5.8,7.7,9.6a63,63,0,0,1,0,18.9c-.5,1-.9,2-1.3,3a18.6,18.6,0,0,1-6.5,8.2c-3.5,2.6-7.2,2.3-10.2-1a17.2,17.2,0,0,1-2.6-4,4.7,4.7,0,0,1,.4-4.6,3,3,0,0,1,5.2-.2,13.9,13.9,0,0,1,1.1,2.1c.9,1.4,1.8,1.4,3.1.2a12.4,12.4,0,0,0,3.1-5.3,34.9,34.9,0,0,0,.8-12.9c-.1-.7-.3-1.5-.5-2.3a9.3,9.3,0,0,0-4.4-5.9c-4-2.2-4.9-4.5-4-8.8a21.8,21.8,0,0,1,5.9-11.2,9.1,9.1,0,0,1,3.2-2,3.1,3.1,0,0,1,3.9,2,6.2,6.2,0,0,1-.5,4.6,1.7,1.7,0,0,1-2.5.6c-1.1-.6-1.8-.4-2.3.6s-1.5,3.6-2,5.4a2.8,2.8,0,0,0,.3,2.2A4.9,4.9,0,0,0,259.9,27.1Z"/><path class="cls-1" d="M233.4,104.1c.9-1.3,1.7-2.6,2.7-3.9s1.3-1.6,2.4-1.2.8,1.6.6,2.5-.5,2.5-.7,3.7C235.7,105.5,235.7,105.5,233.4,104.1Z"/><path class="cls-32" d="M234.6,111.3c1-.1,2-.2,2.4,1a3.4,3.4,0,0,1-.4,3.5c-.6.7-2.8.7-2.9-.1-.4-2.6-2.9-2.9-4.2-4.3a1.8,1.8,0,0,1,.9-1,1,1,0,0,1,.9.1C232.3,111.2,233.6,110.8,234.6,111.3Z"/><path class="cls-1" d="M215.8,106.2l-.6-.5a6.6,6.6,0,0,1,3-4.4c.2-.2.7,0,.8.1a1.5,1.5,0,0,1,.4.8A5.4,5.4,0,0,1,215.8,106.2Z"/><path class="cls-33" d="M234.6,111.3c-1.2.1-2.4.4-3.3-.8Z"/><path class="cls-33" d="M230.4,110.4l-.9,1C229.5,110.8,229.2,109.8,230.4,110.4Z"/><path class="cls-1" d="M39.4,104.6a12.7,12.7,0,0,1-3,8.4,1.8,1.8,0,0,1-1.6.8c-.4,0-1-.7-1.1-1.2-.8-3.6.2-6.9,2-10,.2-.5,1-.7,1.5-1a1.3,1.3,0,0,1,1.9.8,2.9,2.9,0,0,0,.2.9A5.7,5.7,0,0,0,39.4,104.6Z"/><path class="cls-34" d="M327.6,55.5c-4.1-8.5-3.1-25.6,2.1-35.7a4.7,4.7,0,0,1,3.2,3.7,2.9,2.9,0,0,1,.2.9c-.1,10.3-.2,20.5-4.7,30C328.3,54.7,328,54.9,327.6,55.5Z"/><path class="cls-35" d="M410.9,115.3c.4-.4.7-1,1.2-1.3a14.5,14.5,0,0,1,2.9-1.1c0-.1.4.4.4.7s-1.4,1.8-2.4,2.3a2,2,0,0,1-1.3.1C411.5,116,411.3,115.7,410.9,115.3Z"/><path class="cls-1" d="M502.5,105.9a3.3,3.3,0,0,1,2.2,2.8,5.5,5.5,0,0,1-1.8,4.7,1.6,1.6,0,0,1-2.1-.2c-1.3-1.8-.9-5.5.8-7.1Z"/><path class="cls-36" d="M182.3,24c.1,5.8.1,11.5.1,17.2,0,2.1-.2,2.3-2.4,2.8l-4,.7c-.2-.5-.5-.8-.4-1.1,1.9-6.5,3.9-13,5.8-19.5C181.7,23.6,182,23.6,182.3,24Z"/><path class="cls-37" d="M182.3,24h-.9a9.8,9.8,0,0,0,.5-1.6Z"/><path class="cls-38" d="M292.5,99.1c-.6,2.6-.9,5.2-1.6,7.6a13,13,0,0,1-2.4,4.1,9,9,0,0,1-3.6,2.2c-3.6,1.1-6.5-1.1-6.3-4.8s1.6-10.1,5.1-14.2c1.4-1.6,5.1-2.4,6.9-1.5a3.5,3.5,0,0,1,1.2,1.5C292.1,95.7,292.2,97.4,292.5,99.1Z"/><path class="cls-1" d="M335.9,105.4a5.4,5.4,0,0,1-.5,1.1,2,2,0,0,1-.8.4,2.1,2.1,0,0,1-.3-.7,3.4,3.4,0,0,1,.6-1.2l.7-.5Z"/><path class="cls-39" d="M146.9,25.6V16.5c0-2.1.9-2.8,2.9-2.8a8.6,8.6,0,0,1,8.3,7.3,6.6,6.6,0,0,1-.8,3.6,73.4,73.4,0,0,1-6,8.6c-.9,1.2-2.4,2-3.6,3-1.6-1.4-.5-3.2-.6-4.9a54.2,54.2,0,0,1-.1-5.7Z"/><path class="cls-40" d="M18.3,90.2H17.2a3.6,3.6,0,0,1,.7-1c.2-.2.7,0,1.1,0Z"/><path class="cls-1" d="M162.4,111.6a4.5,4.5,0,0,1,2.9-3.8,1.6,1.6,0,0,1,1.2.2,1.6,1.6,0,0,1,.4,1.3,4.1,4.1,0,0,1-3.2,3.1C163.3,112.5,162.8,111.8,162.4,111.6Z"/></g></g></svg>