<svg xmlns="http://www.w3.org/2000/svg" viewBox="0 0 261.2 114.5"><defs><style>.cls-1{fill:#fff;}.cls-2{fill:#040303;}.cls-3{fill:#fefefe;}.cls-4{fill:#eeaaac;}.cls-5{fill:#181515;}.cls-6{fill:#241e1e;}.cls-7{fill:#f0c2c4;}.cls-8{fill:#423c3c;}.cls-9{fill:#feffff;}.cls-10{fill:#eb8f91;}.cls-11{fill:#eaa8ab;}.cls-12{fill:#eb8386;}.cls-13{fill:#eb9c9d;}.cls-14{fill:#d9a1a2;}.cls-15{fill:#b5a5a4;}.cls-16{fill:#daa8aa;}.cls-17{fill:#eeb1b3;}.cls-18{fill:#eb999a;}.cls-19{fill:#ec898b;}.cls-20{fill:#eb8284;}.cls-21{fill:#ea8b8d;}.cls-22{fill:#ecb2b5;}.cls-23{fill:#563839;}.cls-24{fill:#efbcbf;}.cls-25{fill:#0e0c0c;}.cls-26{fill:#0f0c0c;}.cls-27{fill:#f1c6c8;}.cls-28{fill:#eea9aa;}.cls-29{fill:#eea5a7;}.cls-30{fill:#ec9496;}.cls-31{fill:#ec9191;}.cls-32{fill:#efb6b8;}.cls-33{fill:#efb9bb;}.cls-34{fill:#eea9ab;}.cls-35{fill:#eea9ac;}.cls-36{fill:#edb2b5;}.cls-37{fill:#ecb5b7;}.cls-38{fill:#151414;}.cls-39{fill:#1a1616;}.cls-40{fill:#1a1818;}.cls-41{fill:#ed9697;}.cls-42{fill:#eaa7a8;}.cls-43{fill:#100f0f;}.cls-44{fill:#1f1616;}.cls-45{fill:#232121;}.cls-46{fill:#161212;}.cls-47{fill:#171515;}.cls-48{fill:#191616;}.cls-49{fill:#f1c2c4;}.cls-50{fill:#efb5b7;}.cls-51{fill:#eeaeaf;}.cls-52{fill:#493334;}.cls-53{fill:#272525;}.cls-54{fill:#111010;}.cls-55{fill:#020101;}.cls-56{fill:#161414;}.cls-57{fill:#141111;}.cls-58{fill:#181414;}.cls-59{fill:#3c3f3f;}.cls-60{fill:#161313;}.cls-61{fill:#f1c5c6;}.cls-62{fill:#f2ccce;}.cls-63{fill:#f3d4d5;}.cls-64{fill:#ecbabc;}.cls-65{fill:#281a1a;}.cls-66{fill:#161515;}.cls-67{fill:#ebaeb1;}.cls-68{fill:#302f2f;}.cls-69{fill:#b7c0c0;}.cls-70{fill:#1a1a1a;}.cls-71{fill:#3e4d4d;}.cls-72{fill:#070505;}.cls-73{fill:#edbabc;}.cls-74{fill:#e3a6a9;}.cls-75{fill:#4b3736;}.cls-76{fill:#222122;}.cls-77{fill:#110c0d;}.cls-78{fill:#1c1010;}.cls-79{fill:#f0cfd0;}.cls-80{fill:#f1c8c9;}.cls-81{fill:#ebc4c6;}.cls-82{fill:#f3d2d4;}.cls-83{fill:#f1cbcd;}.cls-84{fill:#f2cacc;}.cls-85{fill:#f0c4c6;}.cls-86{fill:#f1ccce;}.cls-87{fill:#f2d3d5;}.cls-88{fill:#ecbbbd;}.cls-89{fill:#0b0909;}.cls-90{fill:#f1cacd;}.cls-91{fill:#0d090a;}.cls-92{fill:#e9bcbe;}.cls-93{fill:#f0c6c8;}.cls-94{fill:#f2dcdd;}.cls-95{fill:#c3a4a4;}.cls-96{fill:#f4dddf;}.cls-97{fill:#412e2e;}.cls-98{fill:#e7efef;}.cls-99{fill:#f0d7d8;}.cls-100{fill:#eacdcf;}.cls-101{fill:#f5e9e9;}.cls-102{fill:#f3ddde;}.cls-103{fill:#f2dfe1;}.cls-104{fill:#f4d9db;}.cls-105{fill:#0d0a0a;}.cls-106{fill:#f3dedf;}.cls-107{fill:#f5e3e3;}.cls-108{fill:#f7ecec;}.cls-109{fill:#f0e4e4;}.cls-110{fill:#f2f0f0;}.cls-111{fill:#f4e5e6;}.cls-112{fill:#f2e5e5;}.cls-113{fill:#120f0f;}.cls-114{fill:#ede0e0;}.cls-115{fill:#3b2c2c;}.cls-116{fill:#f3e7e7;}.cls-117{fill:#171414;}.cls-118{fill:#191414;}.cls-119{fill:#f1e7e7;}.cls-120{fill:#181413;}.cls-121{fill:#211d1d;}.cls-122{fill:#e4d4d6;}.cls-123{fill:#f4e0e1;}.cls-124{fill:#f4dee0;}.cls-125{fill:#e4c8ca;}.cls-126{fill:#e5d9da;}.cls-127{fill:#221c1c;}.cls-128{fill:#121010;}.cls-129{fill:#211f1e;}.cls-130{fill:#757070;}.cls-131{fill:#0d0303;}.cls-132{fill:#8c7979;}.cls-133{fill:#a2999a;}.cls-134{fill:#8b898d;}.cls-135{fill:#161110;}.cls-136{fill:#d1c7c8;}.cls-137{fill:#d9d5d6;}.cls-138{fill:#a3acad;}.cls-139{fill:#cad9da;}.cls-140{fill:#508685;}</style></defs><title>lesgrandsvoisinslefilme</title><g id="Layer_2" data-name="Layer 2"><g id="Layer_24" data-name="Layer 24"><path class="cls-1" d="M110.4,97.1c-.1.8-.3,1.5-1.2,1.8-2.9.9-5.8,2.2-8.7,2.5s-6.7.2-9.1-2.8-2.6-3.9-1.6-6.6a5.3,5.3,0,0,0,.2-3.7,11.2,11.2,0,0,1-.1-7,1.1,1.1,0,0,0-1-1.4c-1.6-.1-3.4-.5-4.8.1S80,80,78,79.7c-3.9-.5-5.9-3.9-4.6-7.7.1-.4,1-.6,1.5-.9a5.7,5.7,0,0,1,1.8,2c.9,2,2.6,3.2,4.6,2.3s6.1-.9,9.1-1.7c1.3-1.5-.1-4.8,3.3-4.8s.6,5.1,4.3,4.4a6.7,6.7,0,0,1,4.4.8l1.2.6c5.3,1.1,8.8-.8,8.8-4.8a2.9,2.9,0,0,0-1,.3l-.8.7-.5.4-1.1.4a2.8,2.8,0,0,1-1.3-.3c-1.7-1.1-.6-3.8-2.6-4.9l-1.1-.8c-.9-2.3,1.3-2.5,2.3-3.5,4-3.5,9.1-1.1,13.6-2.7,1.5-.6,1.9,1.2,1.8,2.5s-.6,4.1-.2,6.1c.2.4.3.8.5,1.3l.6,1.1.3.6a6.1,6.1,0,0,1,.5,1.2,5.1,5.1,0,0,1,.2,1.3c.2,1.8,1.4,2.1,2.7,1.4a7.4,7.4,0,0,1,7.2.3,4.5,4.5,0,0,0,2.8.3,110.1,110.1,0,0,1,22.2-2.3c.4,0,.8-.4,1.2-.6l1.3-.5,3.9-.5a1.6,1.6,0,0,1,1.2.4c-.9,3-3.5,3.4-6,3.8a27.1,27.1,0,0,1-5.7,0c-2.1,0-4.1,0-6,1.2a3.6,3.6,0,0,1-3.6.2c-2.7-1.1-4.9.8-7.3,1.2-.8.1-1.2,1.7-.9,2.5l.7,1.2c2.5,5,3.3,9.9-.3,14.8-.4,3.1-3.2,4.5-5,6.6a4.1,4.1,0,0,1-5.3.5,8.6,8.6,0,0,1-1.4-1.3,9.7,9.7,0,0,0-9.2-3.8c-1.4.1-2.6-.2-2.8-1.9s2.4-2,4.1-1.8a6.9,6.9,0,0,0,3.2,0,11.4,11.4,0,0,1,5.2,0,2.4,2.4,0,0,1,1.1.6c.9,1.1,0,2.7.9,3.9s2.9-.3,4.2-.7a2.3,2.3,0,0,0,1.8-2.6,2.8,2.8,0,0,1,1.1-2.2c4.5-4.4,1.3-8.3-.9-12.2-.8-.8-.4-3.1-2.6-2.1l-1.2,1.3a13.7,13.7,0,0,1-1.3,2c-1.5,2.2-4.4,2-6.1,3.7a7.7,7.7,0,0,1-1.8,1.8,2.1,2.1,0,0,1-1.9,0c-1.1-.6-2.2-1.4-3.3,0s-1,2.4-2,3.2-2.6.8-3-1.1-1.1-3.8-3.7-2.2-1.4,3.4-3.5,2.3-1.2-2.8-1.3-4.4a3.9,3.9,0,0,0-.4-1.8c-1.8-.4-.9,1-1.1,1.7a5.4,5.4,0,0,1-.7,4.1c-2.1,1.7-2.7.2-3.2-1.5s.1-3.8-.8-5.5-2.2-1.8-2.5.3a23.4,23.4,0,0,0,.3,9.5c1.1,3.9,4.1,4.5,9.9,2.1a7.5,7.5,0,0,1,5.1-.1A2.5,2.5,0,0,1,110.4,97.1Z"/><path class="cls-1" d="M26,80.7c1.4-1.5,2-1.6,2.8-.4a6.2,6.2,0,0,1,1,2.2,2.3,2.3,0,0,0,2,2.1,60.9,60.9,0,0,1,7.1,2.7,7.2,7.2,0,0,1,1.5,1.1,7.3,7.3,0,0,1-2.6,1.7c-1.8,1.1-3.1.2-4.4-.9a1.8,1.8,0,0,0-2-.2l-1.3,1L29,91.3c-1.1,1.4-.9,3.1-1.5,4.6s-1.1,2.2-.1,3.3l1.4,1.1c1.8.8,3.3-.2,4.9-.9a6.5,6.5,0,0,1,3.1-.3,2.7,2.7,0,0,0,2.7-.6c3.1-1.8,6.4-.3,9.5-.2s7.2,1,10.8-.5a4.3,4.3,0,0,1,4.1.1c1.7,1.1,3.3.5,4.9-.3s4.3-.4,5.1-3.1c.4-1.2,1.2-2.1,2.8-1.5s1,2.9,2.1,3.9a1.5,1.5,0,0,0,1.7-.1c1.4-1.5.1-2.9-.4-4.2a15.5,15.5,0,0,0-1.2-2.2c-1.2-2.1-3-1.8-4.8-1.3s-2.4.4-3.2,1.4a6.3,6.3,0,0,0-.8,2.3c-.4.9-.8,1.8-2,1.7s-1.4-1.1-1.4-2.1.4-2.6-1.4-3H64.1c-2.5.1-3.2-2.9-5.5-3l-1,.6c-1.1,1-2.1,2.5-4,2.2a2.7,2.7,0,0,1-1.2-.3c-1.6-.3-2.1.9-2.8,1.9s-1.7,2.4-3.3,1.2A21.1,21.1,0,0,0,44,90a4.4,4.4,0,0,1-1.7-1.6c.4-.5.7-1.2,1.2-1.4,4.2-1.4,8.2-3.3,12.4-4.8a7.6,7.6,0,0,1,6.4.4,17.9,17.9,0,0,0,3.3,1.8c2.5.8,4.9,1.5,7.4.1l.9-.4c4.4-1.7,7.7,1.1,8.6,5a8.1,8.1,0,0,0,2.1,4c1.5,1.6,1,3.5.2,5.4a3.7,3.7,0,0,1-3.8,2.4c-1.9,0-3.8-.1-5.7,0a9.1,9.1,0,0,0-3.7.8,12.2,12.2,0,0,1-8.4.8,6.7,6.7,0,0,0-3.7.2,13,13,0,0,1-9.3.4,15.8,15.8,0,0,0-3.8-.3c-1.4,0-3,.3-4.3-.1s-5-.1-7.3,1a9.5,9.5,0,0,1-4.6,1.1c-1.9-.1-2.8.8-3.3,2.7s-1,2.7-4,3-6.1-1.4-8-4.7S12.4,96.1,12.6,91a3.6,3.6,0,0,1,.2-1c1.9-3.8,3.6-7.8,7.2-10.4a5.7,5.7,0,0,1,2.2-.7c1.2-.1,1.7.7,1.8,1.8-6.4,5.3-7.5,12.2-6,19.8.5,1.8.3,3.9,2.2,5s1.8,1,2.7.5.4-1.7.1-2.6-2-3.2-2.6-5a15.9,15.9,0,0,1-.2-7.2,17.8,17.8,0,0,1,2.1-4.4,6.6,6.6,0,0,1,2.1-2.3,11.5,11.5,0,0,0,1.7-1.4,1.7,1.7,0,0,0,.1-1A6.8,6.8,0,0,1,26,80.7Z"/><path class="cls-2" d="M250,1.2l.3.2.3-.2a6.4,6.4,0,0,1,5.7,0h0a1.5,1.5,0,0,1,.9,1h0c1.9,3.7,1.2,7.7,1.9,11.6h0a124.2,124.2,0,0,1,1.6,21.9c0,2.1-1,3.2-2.8,4-6.2,1.4-12.7,1.5-19,2.9s-13.9-.2-20.8,1.2a4.3,4.3,0,0,1-1.6,0,11.2,11.2,0,0,1-3.2-.3,4.4,4.4,0,0,1-1.5-.8c-1.8-2.1-1.9-4.8-2.6-7.3s-.2-4.8-.3-7.2.1-3.3.1-4.9.3-6-.7-9a33.8,33.8,0,0,1,1.2-10h0a22.9,22.9,0,0,1,9.4-1h2c3.6-1.2,7.4.2,11-.9h2.4c3.3-1.9,6.7-.4,10.1-.5S248.1,1.8,250,1.2Z"/><path class="cls-1" d="M61.5,73.1c1.7,2.4,1.6,2.8,0,4.2a10.5,10.5,0,0,1-9.4,2.3,14.8,14.8,0,0,0-4.2,0,73.5,73.5,0,0,1-10.5.1c-2.5-.1-5.2-3.3-5.6-6.4-.2-1.2,0-2.5-.1-3.8s-1-3.3-2.9-3c-4.5.7-7.8-1.7-11.3-3.9a19,19,0,0,1-2.1-1.9c-2.5-2.3-4.3-5.5-7.7-6.8.1-1.5-.1-2.9-1.6-3.7a12.5,12.5,0,0,1-1.2-.8,4.9,4.9,0,0,1-1.3-2C3.3,44-.3,42,0,38.3c.2-1.6,0-3.2.1-4.8s1.1-5.3,4.4-5.9A5.2,5.2,0,0,0,5.8,27a1.8,1.8,0,0,1,.5,1.7c-4,9.8,1,16.6,7.5,22.9.4.5-.2,0,.3.4,3.9,4.9,7.3,10,15.1,9.8s7.4,1.7,7.6,8.3c.1,1.4-.1,2.9.7,4.2,3,2.4,6.5,1.5,9.8.8s3.5-.8,5.4.1S58.7,74.2,61.5,73.1Z"/><path class="cls-3" d="M209.5,4.1c-.8,1.4-.3,2.8-.2,4.2s.1,4,.2,6.1a2.8,2.8,0,0,1,.1,2,1.6,1.6,0,0,1-1.3.3c-4.1-2.1-4.4-2.1-5.1,2.3-.9,6.1-.6,12.3-.6,18.5a14.9,14.9,0,0,1,.2,2.1,8.2,8.2,0,0,1-.7,4.3l-.5.4c-.6-.3-1.5-.5-1.6-.9s-1.8-2-3.1-2.5a1.5,1.5,0,0,0-2,.7,6.2,6.2,0,0,1-4.7,2.9,8.4,8.4,0,0,0-3.7,2c-1.1,1-2.2,1.8-3.8,1.6a5.1,5.1,0,0,0-4.6,1.9,6.9,6.9,0,0,1-1.8,1.6,4.1,4.1,0,0,1-4,.7,10.4,10.4,0,0,0-8.3.1c-.7.4-1.8.1-2.7,0l-2.8-.4a1.9,1.9,0,0,0-.2-.7,1.8,1.8,0,0,1,1-1.1c7.2-2.4,15-2.3,22.2-4.9a48.9,48.9,0,0,0,10.8-5.8,10.5,10.5,0,0,0,4.5-7.5c.1-.5.3-.9.4-1.3a21.8,21.8,0,0,0,.9-2.3c.6-2.2-.3-4.1-1-6.1s-2.2-5.1-3.4-7.6v-.6l.3-.6c2.7-.2,4.8.4,5,3.7,0,.2.6.5,1,.6a1.3,1.3,0,0,0,.5-.7,9.4,9.4,0,0,1,.7-4c.9-2.6,2.2-3.5,4.9-3.5s2.3-.3,1.8-2.7S208,4.5,209.5,4.1Z"/><path class="cls-3" d="M61.5,73.1c-.7,2.8-3.4,2.9-5.5,3.8-.3.1-.7-.1-.9,0-2.6,1-4.8-3.4-7.4-.4l-8,.4a4,4,0,0,1-1.9-.2A7.6,7.6,0,0,1,36.5,75c.2-.2.4-.3.5-.5,2.6-.6,5.4,1,8-.5-6.1-2-6.5-2.7-5.4-10.2a4.1,4.1,0,0,1,4.6-3.1c3.4.3,6.8,0,10.2.5a1.7,1.7,0,0,1,.6,1.2,7.7,7.7,0,0,1-1.7,1.9c2.6,2,4.8,4.1.7,6.8-.7.5-1.2,1.3-.4,2s1.7.7,2.7.5A1.9,1.9,0,0,0,58,71.3c-.3-3-1.4-5.9-1.8-8.8,2.1-3.5,6-1.9,8.9-3.1,3.3.3,6.5-1.7,9.9-.6a2.2,2.2,0,0,1,1.1,1C75.6,63.7,73,65,69.5,65c-1.1.1-2.2-.2-3.3-.2-4.8-.2-5.6.7-4.8,5.5.1.6.4,1.2.1,1.8Z"/><path class="cls-3" d="M123.9,5.8a20,20,0,0,1,1-2.6,1.8,1.8,0,0,1,2.4-1c2.3.9,4.6.1,6.9,0,6.4-.1,12.7-.9,19.1.5a2.8,2.8,0,0,0,1.8-.1c2.8-1,5.7-.4,8.5-.6a5.4,5.4,0,0,1,4.8,1.8,12.8,12.8,0,0,0,2.6,2l-.4.6c-1.9,1.5-4,.5-6,.6a28.1,28.1,0,0,1-4.1-.1,70.6,70.6,0,0,1-13-.2c-4.4-.9-8.7.3-13.1.5S127.1,8.3,123.9,5.8Z"/><path class="cls-1" d="M61.5,72.1a7.7,7.7,0,0,1-1.9-6.2,2.5,2.5,0,0,1,2.6-2.3,24.8,24.8,0,0,1,6.1.1c2.9.7,5,0,6.5-2.5l1.1-1.5c6-2.4,11-.5,15.5,3.4a2.4,2.4,0,0,1,1.1,2.5c-.2,1-1.1,1.4-2.1,1.5-2.6.3-5.4.8-7.2-2a2.4,2.4,0,0,0-2.5-.9,3.6,3.6,0,0,0-1.8,1.2c-.7.7-1.2,1.5-1.9,2.3s-1.1,1.9-2.1,2.5a5.1,5.1,0,0,0-4.7-3.1c-1.7-.1-3.3-1.1-5.1-.5s-2.7,1.1-2.6,2.9A2.8,2.8,0,0,1,61.5,72.1Z"/><path class="cls-4" d="M123.9,5.8l11.5.2c.2,1.2.4,2.4,1.5,3a2.5,2.5,0,0,1,.8,1.7c-1.1,4-3.7,1.1-5.6,1.4s-2.5,0-3.2-.7c-3.3-3.7-5.9-1.6-8.5.9-6.8-2.1-13.7-.9-20.6-1.1-1.3-.1-2.6.1-3.7-.7s-2-2.6.5-3.5a3.8,3.8,0,0,1,1.5.1,10.3,10.3,0,0,0,7.7-.7c4.5-.4,9,.5,13.5-.5h.6a2.7,2.7,0,0,0,3.1,0A1.4,1.4,0,0,0,123.9,5.8Z"/><path class="cls-3" d="M49,9.7h3.8C58.7,3.9,65.7,3.8,73,5.9h2.9a1.2,1.2,0,0,1,1.9,0H96q1.8-1.2,2.1.9a1.5,1.5,0,0,1-1.3.5,40.2,40.2,0,0,1-8.5.9c-5.4-.2-10.7,1.1-16.1.7a88.4,88.4,0,0,0-10.5,1.7c-7.5,1.8-15.3,2.1-22.9,3.6a3.7,3.7,0,0,1-2.3-.4,3.3,3.3,0,0,1-.7-1.6c.5-3.9,3.6-3.7,6.4-3.8S47,8.1,49,9.7Z"/><path class="cls-1" d="M5.8,26c-2.2-2.2-2.5-3.3-1-5.1a36.5,36.5,0,0,1,3.1-3.6,8.1,8.1,0,0,1,2.8-1.7c2.1-.7,4.3-1.2,5.6-3.2S21.6,10,24.5,11s3.6.5,4.3,2.5a6.1,6.1,0,0,1-6.6,2.3c-2.6-.5-3.7.8-4.8,2.5C11.8,18.2,9.8,23.7,5.8,26Z"/><path class="cls-3" d="M256.9,38.7c2.9-.5,3.9-2.4,3.6-5.2s-.5-6.6-.8-9.9l-.6-10a9.3,9.3,0,0,1,1.1,1.9,118.3,118.3,0,0,1,1,19.7v2.3c-1.5,2.6-3.7,4.7-4.2,7.9-.2,1.6-1.8,2.6-3.5,2.7h-3.4c-5.8.1-11.7.4-17.6.3-3.4-.1-6.9-.5-10.3.3-.4.1-.9-.4-1.3-.5l-.3-.7a2.2,2.2,0,0,1,1-1.1c7.8-.2,15.4-1.9,23.2-1s8.7-.2,10.7-5A4.6,4.6,0,0,1,256.9,38.7Z"/><path class="cls-3" d="M5.8,26c.2-.6.2-1.4.6-1.8,1.9-2,4.2-3.7,6-6s3.2-.7,4.8.1l.3.6c-.3,1.2-1.4,1.7-2.3,2.3C5.3,28.6,4.3,37.8,12.3,47.5a13.3,13.3,0,0,1,1.4,1.9,2.8,2.8,0,0,1,.2,2l-.4.6c-3.2-.8-5-3.1-6.3-5.9a59.2,59.2,0,0,1-4-10.9,4.7,4.7,0,0,1,.7-4A31.7,31.7,0,0,0,5.8,27Z"/><path class="cls-3" d="M149.7,59.6a2,2,0,0,1,2.1-1.9h1.8a12.1,12.1,0,0,1,.1,1.9c.1,1.1.6,1.8,1.7,1.9s2.3-.2,2.9,1.2c-1.5,1.6-4.6,2.3-3.8,5.4a3.5,3.5,0,0,0,4,2.6c-4.2-2.6-1.2-5.3-.2-8l1.1-.2c1,.9.9,2.8,2.8,2.7s2.2,2.5,2.4,4.3a2.7,2.7,0,0,1-.3,1.2c-.6,1.3-2,1.5-3,2.4h-.9a23.8,23.8,0,0,1-3.8-.1,5.5,5.5,0,0,1-4.8-3.7c-.5-1.2-.5-1.2-1.9,0l-.5-.4c-.9-2,.3-3.7.8-5.5s1.4-2.3,0-3.4Z"/><path class="cls-1" d="M73,5.9c-2.5.1-5.1-.4-7.5.7a1.7,1.7,0,0,1-1.4,0c-2.5-1.4-4.4-.2-6.5,1.1a25.5,25.5,0,0,1-4.8,2,3.7,3.7,0,0,1,2.1-3.9A22.9,22.9,0,0,1,69.6,3.1C71.2,3.3,72.8,3.8,73,5.9Z"/><path class="cls-1" d="M49,9.7H40.1c-2.7.1-3,.5-3.6,3.8a4,4,0,0,1-5.7,0,11.2,11.2,0,0,1,11-6.7c1.3.1,2.6-.1,3.8.1S48.8,7.7,49,9.7Z"/><path class="cls-3" d="M171,5.8c4.5-.2,9.1.3,13.7.2,2.1-.1,4.5.2,5.6,2.7a3.1,3.1,0,0,0,1.5,1c1.9.6,2.2,2.1,2.2,3.8h-.1c-2.5,1.3-3.4-1-4.9-2l-1.6-1-1.2-.5c-3.8-1-7.9-.1-11.6-1.6-1.3-.7-3.5-.3-3.7-2.5Z"/><path class="cls-3" d="M166.1,72.1h-.9a1.4,1.4,0,0,1-1.1-1.8l.2-.3c1.2-1,2.8.1,4.2-.6-2-.5-3.5-1.3-2.6-3.5s-.1-3.3-.9-4.8c.7-2.2,2.2-2.3,4-1.5,0,1.6.1,3.2.1,4.8s2,.1,2.8,1a7.6,7.6,0,0,0,.9.9v4.8c-.7,1-1.8,1-2.8,1Z"/><path class="cls-1" d="M98,6.8l-2-.9c.8-1.5,1.8-2.7,3.6-2.8s4.1-.5,5.9.9.7,1.2,1.1,1.9C103.9,8.1,101.1,8.6,98,6.8Z"/><path class="cls-1" d="M187.2,56.7a7.1,7.1,0,0,1,.8,1.8c.2,1.3-.2,2.5-1.3,2.7s-3.5,1.3-5.3,2.1a2.7,2.7,0,0,1-3-.7c-.7-.8-.5-1.4.2-2a5.2,5.2,0,0,1,2.5-1.4l1.1-.4a5.2,5.2,0,0,0,2.6-1C185.6,57.4,186,56.2,187.2,56.7Z"/><path class="cls-3" d="M30.8,13.5h5.8a1.1,1.1,0,0,1-.3,1.3,3.1,3.1,0,0,1-1.3.6,27,27,0,0,0-8.9,1.7c-2,.6-4.2.1-6.1.9s-1.8.8-2.7.2h-.1c.4-1.2.7-2.5,1.1-3.7a1.1,1.1,0,0,1,1.6-.6c2.5,1.5,5,1.1,7.5-.2l1.4-.3Z"/><path class="cls-3" d="M17.2,101l-.3-.4c-.9-4.5-1.2-9.2.5-13.6A10.1,10.1,0,0,1,24,80.7h2l1,1-.5.5c-5.6,2.2-8,6.4-8,12.3,0,2,.3,4.1-.7,6Z"/><path class="cls-3" d="M250,1.2l-7.6.8c-2.7.1-5.4,0-8.1,0A2.8,2.8,0,0,1,236.8.2a3.8,3.8,0,0,1,1.5-.1C242.1.9,246.1.6,250,1.2Z"/><path class="cls-3" d="M98,6.8a22.8,22.8,0,0,0,8.6-.9h12.7c-1,1-2.3.9-3.6.9h-7.5c-.8.1-1.7.6-2.6.8a12.3,12.3,0,0,1-7.6.1h-.1a.9.9,0,0,1-.3-.6q.2-.3.3-.3Z"/><path class="cls-1" d="M162.5,65.6c-3,1.2-3,1.2-3.1-2.1v-1l3.8-1,.4.4a1.8,1.8,0,0,1,.2,1,3.6,3.6,0,0,1-.2,1l-.5.9A1.6,1.6,0,0,1,162.5,65.6Z"/><path class="cls-3" d="M218.9,3.1l-9.4,1C212.9,1.8,215.9,1.5,218.9,3.1Z"/><path class="cls-3" d="M259.1,13.7c-.6-3.9-1.3-7.7-1.9-11.6,1.6,1.5,1.9,3.5,2,5.5S259.2,11.7,259.1,13.7Z"/><path class="cls-3" d="M110.4,97.1l-1-.9.4-.5c1.1-.7,2.4-.8,3.5-1.3s3.9-1.7,5,1.1a1.4,1.4,0,0,1-.2.6,8,8,0,0,0-4.8,1Z"/><path class="cls-3" d="M231.9,2.1c-3.6,1.1-7.3,1-11,.9a7.5,7.5,0,0,1,2.5-.9C226.2,2,229.1,2.1,231.9,2.1Z"/><path class="cls-1" d="M169,59.6c-1.6,0-3.1.1-3.7,2l-.5.4a1.5,1.5,0,0,1-1.6-.5C165.3,58.2,165.8,58,169,59.6Z"/><path class="cls-3" d="M74.9,70.2c0-1.4,0-2.8,1.9-3l.5.5c.7,1.9,0,3.5-.9,5.1l-.6.4-.9-2.1Z"/><path class="cls-3" d="M42.3,88.4l2,.9-.4.5c-2,1.2-4,1.8-6.1.1l-.4-.5c.8-1.1,1.9-.9,3-1Z"/><path class="cls-3" d="M181.3,59.5c-.5,1.3-1.7,1-2.7,1.1V56.7l1.2-.7A7.8,7.8,0,0,1,181.3,59.5Z"/><path class="cls-1" d="M170,72.1c.7-1.1,1.8-.9,2.8-1C172.1,73.3,171.8,73.4,170,72.1Z"/><path class="cls-3" d="M256.3,1.2h-5.7A4,4,0,0,1,256.3,1.2Z"/><path class="cls-3" d="M123,5.9c-1,1.1-2,1-3.1,0Z"/><path class="cls-1" d="M171.9,65.4c-1-.1-2.2.2-2.8-1C170.1,64.5,171.2,64.3,171.9,65.4Z"/><path class="cls-1" d="M77.8,5.9H75.9C76.5,4.9,77.2,4.9,77.8,5.9Z"/><path class="cls-1" d="M172.8,66.3l-.9-.9Z"/><path class="cls-3" d="M257.2,2.2l-.9-1Z"/><path class="cls-3" d="M82.6,63.4c.6.3,1.5.5,1.6.9.6,2,1.9,2.2,3.7,1.8a18.2,18.2,0,0,1,3.3,0c.2,0,.5-.4.6-.6a1.5,1.5,0,0,0-.2-.9,1.4,1.4,0,0,0-.6-.7c-2.2-.4-3.6-1.9-5.1-3.3a2.7,2.7,0,0,0-3.1-.8c-2,1.1-4,.2-5.9-.1a3.4,3.4,0,0,0-1,0h0a1.1,1.1,0,0,1,.2-1.4c2.7-1.4,5.8-.3,8.5-1.4a7.6,7.6,0,0,1,1.6-.3c2.8,0,5.7-.7,8.2,1.1a14.7,14.7,0,0,1,.3,11.1l-.7.6a1.7,1.7,0,0,0-1.8,1.8c-.1,1.3.4,2.9-1,3.9l-.5-.4a12.5,12.5,0,0,1-1-2.7c-.6-2.4-1.8-2.6-3.7-1.1s-4.1,4.3-6.4,1.9-.1-5,1.4-7.3l1.1-1.6Z"/><path class="cls-5" d="M108.9,71.3h.4l.2-.3,1.1-.8h0a1.2,1.2,0,0,1,1-1h0c2.5.5,3.2,1.9,1.1,3.5s-5.9,4.3-9.7,1.9h-.1c-4.2-3.7-3.5-6.5,2-9.2a.4.4,0,0,0,.6,0c2,.7,1.7,2.4,1.5,3.9S107.2,71.7,108.9,71.3Z"/><path class="cls-3" d="M104.9,65.5a8.6,8.6,0,0,0-1.4,1.3c-2.8,3.2-2.8,3.8-.6,7.9L98,74.1l-.6-.6c-.8-1.5-.6-3.1-.7-4.7-.3-3.9.8-6.7,5.3-6.7a6.1,6.1,0,0,0,3.1-1.3l.7-.3c.9.8.8,1.9.8,3l-1.9,1C104.6,64.6,104.8,65.2,104.9,65.5Z"/><path class="cls-1" d="M122,86.5c.5-1.1,1.2-1.9,2.4-1.8s2.8-1.2,4.1-2c3.5,2.5,3.6,6.1,3,9.9a10.5,10.5,0,0,1-1.4,2.8c-1,.9-1.9,1.7-3.3.7s.2-6.1-2.7-8.2l-1.2-.5A2,2,0,0,1,122,86.5Z"/><path class="cls-3" d="M99.8,90.3c0-1.6,0-3.2.1-4.8l.4-.4a8,8,0,0,0,1.9-1.3l.5-.2c.3.5,1,1.2.9,1.6s0,3.4.4,5.2c1.3,0,1.1-1.3,1.6-1.9s2.8-2.5,4.9-1.8a3.5,3.5,0,0,1,1.6,1.6,1.8,1.8,0,0,1-.6,2.1l-.5-.2-1.1-1.1-.9-.4-.8.2-.4.3a5.9,5.9,0,0,1-.4.8l-.4.9a2.8,2.8,0,0,0-.1,1.3,5.9,5.9,0,0,0,.4.8l.5.7c0-.1.4.2.4.2l.8.5a2.3,2.3,0,0,1,.7.7.8.8,0,0,1-.1.9l-.2.2h-5.7l-.5-.4c-1.8-1.3-.5-4.3-2.9-5.2Z"/><path class="cls-3" d="M103.7,96.2a3,3,0,0,1-2.6,1.8H98.8c-1.4-.1-3.2.1-4.1-.6a7.9,7.9,0,0,1-2.5-5.5c0-3,0-6,.1-9.1,0-1.5.8-2,2.5-2A1.9,1.9,0,0,1,97,82.7l-.4.5c-2,1.6-1.6,4-1.8,6.1-.3,4.2,1,5.4,5.3,5.3a4.8,4.8,0,0,1,3.4,1.3Z"/><path class="cls-1" d="M134.4,81.7c3.3,2.6,4.2,6.1,3.8,10-.1,1.7-1.4,2.7-2.8,3.4-2.4-2.9-.6-6.6-1.6-9.7a5.4,5.4,0,0,1,.1-3.1Z"/><path class="cls-3" d="M91.2,75a1.6,1.6,0,0,1-2,.7c-2.2-1.1-4.3-.6-6.3.5a2,2,0,0,1-.8.4c-3.5,1.1-4.8.3-6.3-3.4l.3-.3c3.1,1.5,6,1.7,9.1-.4s4.2.5,5.8,2.3Z"/><path class="cls-3" d="M103,74.8a10.6,10.6,0,0,0,8.5-1.6,6.5,6.5,0,0,0,1.6-1.7,1.6,1.6,0,0,0,.1-1.6c-.3-.4-1.1-.3-1.6-.5s.5-1.6,1.4-1.4a1.8,1.8,0,0,1,1.1,1.3c.6,2.9-.3,4.6-3,5.6a42,42,0,0,1-5,1.7C104.6,77.1,104.3,76.9,103,74.8Z"/><path class="cls-3" d="M123.7,86.7c2.6.6,2.9.9,3,2.8s.1,4.4.1,6.6h-6.7l-.3-.5a3.2,3.2,0,0,1,1.7-2.5,1.8,1.8,0,0,1,1.6-.1l.9.3c.3,0,.5,0,.7-.3s.1-.6.1-1a11.8,11.8,0,0,0-.4-2l-.5-1.1-.3-1.1a1.3,1.3,0,0,1-.1-.6Z"/><path class="cls-3" d="M122,86.5l1.2.2c0,.2.1.4.1.6v.6a28.2,28.2,0,0,1-.7,3.1c-1.9,3-3.6,3.5-5.3-.2a7.1,7.1,0,0,0-1.8-2.8l-.3-.5c2.3-1.5,2.9-1.4,4,.9.6.8,1.2.7,1.8,0A17.4,17.4,0,0,1,122,86.5Z"/><path class="cls-3" d="M134.6,84.5a4.2,4.2,0,0,1,.8,3.1v7.5a18.6,18.6,0,0,1-1,2,1.6,1.6,0,0,1-1.6,1.1,1.3,1.3,0,0,1-.8-1.1c1.4-3.9.8-8.2,2-12.1Z"/><path class="cls-3" d="M97,82.7a2.6,2.6,0,0,1,1,2.5c0,1.5-.1,3.1,0,4.7s1.1.5,1.8.4h.2c.8,2.2-.3,3.6-2.2,3.8s-2-1.9-2-3.2-.8-5.7,1.1-8.2Z"/><path class="cls-3" d="M130.6,93.2c.5-3.7-.6-7.2-2.1-10.5a19.8,19.8,0,0,0,1.1-2l.6.5c2.1,3.9,4.1,7.8,1.1,12.1Z"/><path class="cls-3" d="M111.5,90.4a3.4,3.4,0,0,0,.4,1.2c.7.6,1.2,0,1.5-.5l1.8-3.6.3.2c1.3,2,.9,3.8-.5,5.6a5.5,5.5,0,0,1-4.1.9l-1.3-.5a2.4,2.4,0,0,1-.7-1.2,2.5,2.5,0,0,1,.2-1.2,2.7,2.7,0,0,1,.8-1l.6-.3h.6Z"/><path class="cls-3" d="M121,69.2a10.7,10.7,0,0,1,1.8-5.8l.6.4c1,2,.7,4.1.4,6.1a3.1,3.1,0,0,1-.6,1.3.8.8,0,0,1-1.2-.1l-1-.9Z"/><path class="cls-3" d="M108.9,71.3c-1,1-2.2.9-3.5.5s.8-1.8,1.2-2.7a2.6,2.6,0,0,0-1.1-3.6c1.1,0,1.9.4,2,1.6a8.6,8.6,0,0,0,.2,2.3A7.6,7.6,0,0,0,108.9,71.3Z"/><path class="cls-1" d="M130.6,79.8c.1-.8.3-1.8,1.3-1.7a2.5,2.5,0,0,1,1.9.9,6.3,6.3,0,0,1,.6,2.7c-1,.7-1.9,0-2.8-.4A2.5,2.5,0,0,1,130.6,79.8Z"/><path class="cls-3" d="M132.5,99.9a11.1,11.1,0,0,1-2.7,1.7,2.8,2.8,0,0,1-2.2-.1c-.4-.2-.6-1-.9-1.6l.6-.3c1.8,0,3.1-2,5.1-1.7l.2.2A1.2,1.2,0,0,1,132.5,99.9Z"/><path class="cls-3" d="M126.8,96.1l2.8-1,.4.5c.3,2.4-1.2,3.5-3.1,4.2h-.2c-.8-.5-.7-1.2-.4-2A9.5,9.5,0,0,0,126.8,96.1Z"/><path class="cls-3" d="M98,74.1c-.6.7-1.3,1.1-2.1.6a2.9,2.9,0,0,1-1.5-1.6,15.8,15.8,0,0,1-.4-3.8l.3-.2c2.5.6,1.7,3.5,3.4,4.7Z"/><path class="cls-3" d="M126.8,73.1c-1.9,2.3-2,2.3-3.9,0,0-.4-.1-.7-.1-1l-.2-.4.2-.4.3-.3c1.4,0,2.3.9,3.3,1.6A1,1,0,0,1,126.8,73.1Z"/><path class="cls-1" d="M164.1,70.3l1.1,1.8c-1,1.4-2.5.8-3.9,1A5.1,5.1,0,0,1,164.1,70.3Z"/><path class="cls-1" d="M132.5,99.9a10.9,10.9,0,0,0,.1-1.8l1.8-1c1,.6,1,1.5.1,2.1A5.9,5.9,0,0,1,132.5,99.9Z"/><path class="cls-3" d="M99.9,85.5a1.1,1.1,0,0,1-.3-1.9c.8-1,1.5-1,3.1,0v.2a5.1,5.1,0,0,1-2.5,1.6Z"/><path class="cls-1" d="M121,88.4c-.1.7-.1,1.7-1.2,1.5s-.4-1-.6-1.5Z"/><path class="cls-3" d="M120.1,96.1c-.7,1-1.3,1-2,0l.2-.2a1.3,1.3,0,0,1,1.6-.1Z"/><path class="cls-3" d="M130.6,79.8l1.1.9-.5.4a1.9,1.9,0,0,1-1.3-.1l-.3-.3Z"/><path class="cls-1" d="M122.8,71.3a1.1,1.1,0,0,1,0,.8,3.9,3.9,0,0,1-.8-1Z"/><path class="cls-1" d="M121,70.2l1,.9Z"/><path class="cls-3" d="M110.6,70.3l-1.1.8Z"/><path class="cls-3" d="M111.6,69.4l-1,1Z"/><path class="cls-3" d="M46.2,91.2c.7.3,1.3.8,2-.1a25.5,25.5,0,0,1,2.6-3.8c.7-.9,1.4-.4,1.9,1.2s-1.2,1.5-1.6,2.4-2.8,3.8-.6,6,6.3-.2,7.6-2a1.3,1.3,0,0,0-.3-1.7c-2.3.8-3.6,5.4-6.5,3s.5-5.1,1.5-7.7A3.3,3.3,0,0,0,56,87a6.9,6.9,0,0,1,1.9-1.2h0a1.3,1.3,0,0,1,2.2-.8,6.1,6.1,0,0,1,1.5,1.7,4,4,0,0,0,3.1,1.9,4,4,0,0,1-.2,1.9c-1.3,5.1-1,5.7,4.3,7.1l.4.5c-2.4,2.2-3.4,2.5-5.6.9s-2.3-1.1-3.4-.1a5.7,5.7,0,0,1-4,1.1c-2-.1-4.1.2-6.1-.2s-3.4-1.5-5.2,0c-.3.2-1.1-.3-1.7-.5s-2-.9-3.8.7l-.4-.5c-.8-1.8,0-3.4,1-4.9s3.1-2.4,4.4.4c1-1,.5-2.5,1.3-3.4Z"/><path class="cls-3" d="M65.3,88.5c1.5-.7,2.7-.4,2.7.8a22.1,22.1,0,0,1-.4,3.7c0,.2.3.6.5.6a.8.8,0,0,0,.8-.4c.6-1.2-.2-2.9,1.3-3.8l.4.4c.8,1.3.4,2.8,1.1,4.6,1.3-.5,1.4-2,2.3-2.7s3-1.6,3.2,1.2l-.5.4c-.4.2-1,.2-1.2.5s-.5,1.1-.8,1.6c-1.5,3.5-1.5,3.5-5.5,2.7l-.3-.3c-3.7-.8-5.3-2.7-3.7-6.6A4.9,4.9,0,0,0,65.3,88.5Z"/><path class="cls-6" d="M65.3,88.5c2.1,1.7,2.1,1.7,1.4,3.3a8.3,8.3,0,0,0-.8,1.2c-1.1,2.1-.7,2.8,2,2.9s1.2,1,1,1.9c-2.1,1.1-4,.9-5.5-1a4.8,4.8,0,0,1-.3-5.8,12.5,12.5,0,0,1,1.6-2.4A.4.4,0,0,0,65.3,88.5Z"/><path class="cls-3" d="M37.5,100H33.7l-.3-.6c2.1-3.5-.3-7-.2-10.5.2-.2.3-.4.5-.5a3.6,3.6,0,0,1,1,.7,1.9,1.9,0,0,0,2.7.3l.4.3c1.8,3.2.2,6.5.1,9.7Z"/><path class="cls-3" d="M21.3,98.9c2.1,1.6,2.9,4,3.6,6.4a1.9,1.9,0,0,1-1.7,2.3c-2,.3-3.3-.8-4.7-1.8s-1.1-2.2-1.2-3.4a6.6,6.6,0,0,0-.1-1.4l.3-.3c2.3.2,2.2,3,4.2,3.6.1-1.8-1.7-3.2-.9-5Z"/><path class="cls-3" d="M26.9,96.1a17.6,17.6,0,0,0,0-2.3,3.5,3.5,0,0,1,1.9-3.5h.6c1.4.5,3.7.6,3.3,2.6s-3.1,2.8-5.2,3.4Z"/><path class="cls-3" d="M80.8,92.2l1.1,1.5c1,2.3,1,2.3-1.2,4.4l-.5-.5a5.3,5.3,0,0,1,0-4.9Z"/><path class="cls-3" d="M21.2,90.3c0,2.9.1,5.7.1,8.6h-.2c-3.7-2.6-2.5-5.6-.8-8.7Z"/><path class="cls-3" d="M73.9,88.3c3.6-1.5,4.6-1.2,5.9,2l-.6.3a18.9,18.9,0,0,1-4.9-1.7A2.1,2.1,0,0,1,73.9,88.3Z"/><path class="cls-3" d="M33.7,100a3.1,3.1,0,0,1-2.5,1.8c-1.2.1-2.5.3-3.4-.9l.5-.5c1.7-.6,3.3-1.5,5.2-.7Z"/><path class="cls-3" d="M78.8,98.1c-1.3-.2-1.9-.8-1.9-2.1a24.5,24.5,0,0,0-.2-2.7l.3-.2c2.3.7,2.3,2.5,2.2,4.4Z"/><path class="cls-3" d="M26.9,100c-2.3-2-2.3-2,0-3.9l.3.2a2.9,2.9,0,0,1,.2,3.2C27.2,99.7,27.1,99.9,26.9,100Z"/><path class="cls-3" d="M23.1,86.5a5.4,5.4,0,0,1-1.9,3.8H21c-1.1-1.9-.4-3.1,1.5-3.9Z"/><path class="cls-3" d="M70.2,89.4c.9-1.4,2.4-.8,3.7-1.1l.2.3c-.8,2.2-2.2,1.8-3.8.9Z"/><path class="cls-3" d="M30.7,88.4c1.5-1.9,1.6-1.9,3,0l-.3.3a2.1,2.1,0,0,1-2.3.2Z"/><path class="cls-3" d="M25.1,84.7l-2,1.8-.3-.2q-.6-2.2,1.8-2.1C24.7,84.4,24.9,84.5,25.1,84.7Z"/><path class="cls-3" d="M44.3,89.3a1.9,1.9,0,0,1,1.9,1.9l-.3.3c-1.3,0-2-.6-1.8-2Z"/><path class="cls-3" d="M39.4,100c-.6.9-1.3.9-1.9,0v-.2a1.2,1.2,0,0,1,1.6-.1Z"/><path class="cls-3" d="M80.7,98.1c-.7.9-1.3.9-1.9,0v-.3a1.3,1.3,0,0,1,1.6,0Z"/><path class="cls-3" d="M79.8,90.3a17.4,17.4,0,0,0,1,1.9l-.3.2c-1.2-.2-1.4-.9-.9-2Z"/><path class="cls-3" d="M27,83.6l-1.9,1.1-.3-.4c.2-.8.7-1.1,1.6-1Z"/><path class="cls-3" d="M27,81.7c.9.6.9,1.3,0,1.9l-.3-.2a1.2,1.2,0,0,1,0-1.5Z"/><path class="cls-3" d="M28.8,90.3l.9-1,.3.6a1,1,0,0,1-1.1.5Z"/><path class="cls-3" d="M29.7,89.3l1-.9.2.2c-.1.7-.3,1.1-1.1.8Z"/><path class="cls-3" d="M27.8,100.9l-.9-.9.2-.2a.8.8,0,0,1,1,.9Z"/><path class="cls-7" d="M127.7,55.8h-1c-3.3.8-6.6.4-10,.7a3.9,3.9,0,0,1-2-4c2.4-3.3,6.1-.2,8.8-1.9l1.4-.8c.4-.5.2-.9-.1-1.4-.7-3.7,2.1-3,3.7-2.4a5.1,5.1,0,0,0,4.8-.3,2.9,2.9,0,0,1,2.3.9,4.1,4.1,0,0,0,2.8,1.7l1.1.3,1.5.8,1,.7a3.6,3.6,0,0,1,1.3,1.9,1.7,1.7,0,0,1-.2,1.2,6.9,6.9,0,0,1-2,1.3l-2.3.8a2.4,2.4,0,0,1-1.1-.6c-1.1-.9-1.6-2.7-3.3-2.4s.5,3.1-1.4,3.9-2.3.4-3.4-.4h-.8A.8.8,0,0,0,127.7,55.8Z"/><path class="cls-3" d="M128.6,59.5c2-1.3,3.8-1.4,5.3.8a2.7,2.7,0,0,0,1.1,1c3.2,1.4,3.3,3.7,2.1,6.6s-.5,1.7,1.2,2.2,1.9,1,1.8,2.4a2.4,2.4,0,0,1-2.4,2.4,6,6,0,0,1-5.3-1.7,7.1,7.1,0,0,1-.6-2.2c1.5-.3,2.6.9,4.4,1.2-3.2-1.5-2.1-4-1.6-6.5-3,1-1.7,3.7-2.8,5.3-2.6-1.6-3.7.5-5,2.1l-.2-.2c-1.6-4.1-1.9-8,2.3-10.9a1,1,0,0,0,.3-1.6A1.8,1.8,0,0,1,128.6,59.5Z"/><path class="cls-3" d="M116.2,55.7h10.5c-.9,1.2-2.3,1-3.5.9a6.9,6.9,0,0,0-5.6,1.9,5.2,5.2,0,0,1-3.1,1h-6.6a6,6,0,0,0-2.1.8l-.4.3c-2.9.7-6.2,3.5-8.3-1.3.4-3.8,3.3-3.9,6.2-4S111.9,54.3,116.2,55.7Z"/><path class="cls-3" d="M220.9,48.2c-.7,3.4-.9,3.7-3.7,3.7s-5.5-.1-8.2.1-4.8-1.3-6.2-3.6a17.7,17.7,0,0,1-1.2-4.1h0l.6-.4h.7a11.2,11.2,0,0,1,2.2,1.6l1.1.8c3.1.8,6.2.2,9.3.4s3.8-.1,5.3,1.3Z"/><path class="cls-3" d="M139.2,54.8l2-1c.5-.5,1.4-.3,1.9-.9h0c3.2-2.9,6.9-2.4,10.7-1.7,1.1.5,2.2,1.1,3.4.4a1.4,1.4,0,0,1,1.1.2l.2.2a12.8,12.8,0,0,1-1.6,2.8,2.1,2.1,0,0,1-2.6.7c-2.2-.9-4.2-.4-6.5,0a48,48,0,0,1-8.5.3,1,1,0,0,1-.4-.5Z"/><path class="cls-3" d="M142,69.3a11.4,11.4,0,0,1-1.5-1.7c-.5-1.2-.7-2.7.4-3.6s2.4-.5,3.5.3l1.1.6a6.8,6.8,0,0,1,3.3-4.4l.4.5c-.7,6.2-1,6.6-6.6,8Z"/><path class="cls-8" d="M181.3,59.5c-1.8-.1-1.9-.2-1.8-1.7l.3-1.8h0c.3-.7.2-1.5.7-2.1s.3-.3.1-.6.5-1.1,1.2-1.2h.4a2.1,2.1,0,0,1,1.8,2.4,25.2,25.2,0,0,1-1.7,4.1l-.9.9Z"/><path class="cls-3" d="M129.6,55.8l3.5-.2c1.5-1.6,3.1-1.7,4.9-.5a3.5,3.5,0,0,1,1.2.7h.1c-.5.9-1.1,1.7-2.1,1.6l-6.4-.8A4.2,4.2,0,0,1,129.6,55.8Z"/><path class="cls-3" d="M183.6,54.8a4.2,4.2,0,0,0-1.4-2.7c1.8-.3,3.3,0,4.1,1.8l-.3.4a3.9,3.9,0,0,1-1.4.8A1,1,0,0,1,183.6,54.8Z"/><path class="cls-3" d="M145,73.1c-2.7-.4-2.7-.4-3-3.8l.3-.2c2,.2,2.5,1.7,2.9,3.3A1.4,1.4,0,0,1,145,73.1Z"/><path class="cls-3" d="M187.2,56.7l-1.9,2-.4-.5a3.1,3.1,0,0,1-.2-1.9,5.7,5.7,0,0,1,1.3-2.1l.3-.3C187.4,54.6,187.2,55.7,187.2,56.7Z"/><path class="cls-3" d="M149.9,69.3c0,.6-.1,1.2-.1,1.8a1.8,1.8,0,0,1-1.9,2l-.3-.6c.2-1.4-.1-3.2,2.1-3.3Z"/><path class="cls-3" d="M122.8,63.4c.3-1.8,1.2-2.8,3-2.8.1.2.1.4.2.6s-1.2,2.7-3,2.3Z"/><path class="cls-3" d="M125.8,60.6c.6-1.1,1.8-.9,2.8-1.1v.2c-.3,1.9-1.5,1.7-2.8,1Z"/><path class="cls-3" d="M147.9,73.1c-1.4,1.2-1.5,1.2-2.9,0l.2-.2a1.9,1.9,0,0,1,2.6,0Z"/><path class="cls-3" d="M180.5,53.9a17.2,17.2,0,0,0-.7,2.1A1.6,1.6,0,0,1,180.5,53.9Z"/><path class="cls-3" d="M148.8,60.5l.9-.9h.2a.8.8,0,0,1-.8,1.1Z"/><path class="cls-3" d="M127.7,55.8c.3-.7.7-.6,1.1,0Z"/><path class="cls-3" d="M181.8,52.1l-1.2,1.2Z"/><path class="cls-9" d="M229.7,37.2l-13.3,1a1.5,1.5,0,0,1-1.7-1.3,18.2,18.2,0,0,1-.1-3.3c-.2-4-.3-8-.4-11.9a60.5,60.5,0,0,0-1.5-12.8c-.3-1,.1-1.5,1-1.8h1l34.8-2.4a19.2,19.2,0,0,1,2.4,0c1.4,0,1.9.4,2.2,1.9a12.3,12.3,0,0,1,.2,1.9c.7,7.5,1.4,14.9,2,22.4a19.3,19.3,0,0,1,.1,2.4,1.3,1.3,0,0,1-1.4,1.5l-25.2,2.9A.7.7,0,0,0,229.7,37.2Z"/><path class="cls-10" d="M201.6,37.6a4.8,4.8,0,0,1-.5-1.4c.7-7.2-.1-14.6,1.6-21.8.1-.4.6-1.1.8-1.1a15.3,15.3,0,0,1,3.6.7,2.3,2.3,0,0,1,1.3,2.4,2,2,0,0,1,.4,2.5c-1.3.8-2,1.7-1.4,3.4a5.7,5.7,0,0,1-.6,5.5c-2.1,2.9-1.7,4.9,1.4,6.8.7.4,1.6.4,2.2,1l1.9,6.4c.1,2.7-1.9,2-2.5,1C207.7,40,204.3,39.4,201.6,37.6Z"/><path class="cls-11" d="M220.8,48.1H207.1c-1.3,0-2.5-.3-2.7-1.9,3.3-.9,6.4-2.4,9.8-2.8l1.1-.6c.5-.1,1.1,0,1.6-.4s3.1-.6,4.7-.7l17.4-.5.3.6c-3.5,3.1-6.5,6.6-12.1,3.9-1.2-.6-4.3.5-6.3,1.5C220.9,47.6,220.8,47.8,220.8,48.1Z"/><path class="cls-12" d="M210.4,35.6l-3.4.7-1.8-3.2c-.5-.8-.8-1.6-1.9-2s-.6-1.3-.2-1.9a4.2,4.2,0,0,1,1.5-1.1c.5-.5,1.5-.8,1.7-1.4a8.5,8.5,0,0,0,.3-3.2c-.2-1.4-.8-2.7-1.1-4.1a5.6,5.6,0,0,1,.4-1.2l1.2.4,1.3.7a2.2,2.2,0,0,1,1.4,1.4v2.7c.2,1.6-.5,3.2.5,4.7S210.4,33.1,210.4,35.6Z"/><path class="cls-13" d="M215.1,43.4c-.8,2.4-.9,2.5-2.6,1.6s-1.8-.6-2.2.7-.7,1.2-1.7,1l-4.2-.4h0a3.1,3.1,0,0,0-1.9-2h0c-1-1.4.3-3.4-.9-4.8V37.6l5.9.9a2,2,0,0,1,1.8,1.9,5.6,5.6,0,0,0,.9,2.1c.8.9,1.6.5,2.1-.5l1,.5C213.8,43,214.7,42.6,215.1,43.4Z"/><path class="cls-14" d="M256.9,38.7l-.6.9c-1.7,3.2-4.2,4.5-7.9,3.3s-6.4.6-9.3-1.3v-.3l7.5-1.4C249.9,39.4,253.4,39.1,256.9,38.7Z"/><path class="cls-15" d="M209.3,23.1a28.1,28.1,0,0,0-.1-2.9,6.1,6.1,0,0,1-.1-4,11.6,11.6,0,0,1,.4-1.8c1,2.8.8,5.8.7,8.8C209.9,23.6,209.6,23.5,209.3,23.1Z"/><path class="cls-16" d="M209.3,23.1h.9c0,1.6.1,3.2.1,4.8C208.7,26.7,209.5,24.8,209.3,23.1Z"/><path class="cls-10" d="M215.1,43.4l-1.8-.9H216v.6Z"/><path class="cls-13" d="M216,43.2v-.6h.9Z"/><path class="cls-1" d="M163.2,95.1l-.9,2Z"/><path class="cls-3" d="M36.5,75a2.8,2.8,0,0,1-.9-2.6c0-2.1,0-4.1-.1-6.2s-.8-2.5-2.3-2.6-5.4-2-8.3-.3a2.2,2.2,0,0,1-1.8-.5c-1.6-1.1-2.8-3-5-3.5-.4-.1-.5-1.1-.9-1.6s-.9-1.5-1.5-1.6c-2.5-.6-2.2-2.4-2.2-4.1h.1c3.9,1.6,8.2,2.7,9.9,7.3a1.7,1.7,0,0,0,1.4.8,5.6,5.6,0,0,1,2.1-.9,5.2,5.2,0,0,0,3.5-.1,5,5,0,0,1,2.1,0c3.5.3,5.4,2.1,5.3,5.8s.8,6.8-1.1,9.9Z"/><path class="cls-3" d="M2.7,39.5l-.3.3a.5.5,0,0,1-.2-.4c0-.1.2-.2.3-.3Z"/><path class="cls-17" d="M182.5,46.2a67,67,0,0,1-12.5,3c-3.8.4-7.5,1.1-11.3,1.7h-.6a3.6,3.6,0,0,1-.7-1,2.1,2.1,0,0,1,0-1.9l15.1-5.2,1.2.7c1.3,1.2,2.4.4,3.1-.6s4.5-4.3,6.1-7V33.9c.5-3.9.6-7.7-4.1-9.3a1.8,1.8,0,0,1-.5-1.2c.4-.9,1.4-1.5,1.2-2.6s-3.4-2.2-2.8-4.6a3.6,3.6,0,0,1,1.2-.8c6.5-1.3,8.1.4,9.6,9.4a5.6,5.6,0,0,0,.4,2.3c2.2,3.1,1.8,6-.4,8.8-.6,2.1-1,4.5-3,5.7S181.9,44.1,182.5,46.2Z"/><path class="cls-18" d="M182.5,46.2a6.7,6.7,0,0,0-.8-1.7c-.5-.6-.7-1-.2-1.6a5.2,5.2,0,0,1,1-1.1,8.7,8.7,0,0,0,3.9-6.2c3.5-1,5.4-2.8,3.3-6.7-.6-1.3-.5-2.8,1.4-3.3,2.9,1,5.7,2.1,6.8,5.4s-1.3,6.4-3.9,8.7S186.5,44.4,182.5,46.2Z"/><path class="cls-19" d="M187.3,9.7l.9.3a1.6,1.6,0,0,1,.9.7l2.3,1.6,2.5,1.3c0,.3.1.6.1.9s-1.3,2.2-1.1,3.7-.2,3.5-2.5,3.9c-3.2-1.6-6.7-8.6-5.7-11.5C185.2,9.4,186,8.9,187.3,9.7Z"/><path class="cls-20" d="M190.1,21.2c1.1-.1,2-.5,1.9-1.7s-.6-3-1-4.8l3-.2c2.5,1.8,3.5,4.5,3.9,7.4s.3,4.1-2.8,2.7a7.1,7.1,0,0,0-3.2-.7,2.3,2.3,0,0,1-2.2-1.4A2,2,0,0,1,190.1,21.2Z"/><path class="cls-21" d="M191.9,23.4c.5-.3,1.1-1,1.4-.9a28,28,0,0,1,3,1.5c1.1.6,1.2.5,1.5-1.2a2.8,2.8,0,0,0,.1-.9,40.1,40.1,0,0,1,1.6,4.9c.1.6-.5,1.4-.7,2.1s-.5,1.4-.9,2h0c-2-2-4.8-3-6.8-5S191.2,24.1,191.9,23.4Z"/><path class="cls-11" d="M201.6,39.5c1.6,1.3.8,3.2.9,4.8h-.9Z"/><path class="cls-22" d="M209.1,16.2c0,1.4.1,2.7.1,4l-.8-.9V16.4Z"/><path class="cls-18" d="M197.9,30.9a1.8,1.8,0,0,1,.9-2Z"/><path class="cls-23" d="M158.3,51.8h-.7c-.4-.7-.1-.9.6-.8s.4,0,.5-.2Z"/><path class="cls-24" d="M65.3,60.5a14.5,14.5,0,0,1-6.2,1,1.9,1.9,0,0,0-2.3,1.8c-1,.8-1.5.1-2-.7s-1.2-1.2-2-.8a8.8,8.8,0,0,1-6,.2,11.8,11.8,0,0,0-4.6-.1c-.6.1-1.1,1-1.7,1.5-2-2.1-1.5-4.4-.9-6.8a2.1,2.1,0,0,1,1-1.1c1.9.3,1.6,2,2.1,3.3a4.9,4.9,0,0,0,.1,1.2l.2-.5a2.6,2.6,0,0,1,.9-.9c3.9-2.5,8.5-1.8,12.8-2.7a3.1,3.1,0,0,1,1.3.3,15.3,15.3,0,0,0,5.2.8,8.6,8.6,0,0,1,2.3.5c1.1.3,2.8.2,2.6,1.9S66.1,59.7,65.3,60.5Z"/><path class="cls-25" d="M40.3,55.8c.1,2.5.2,5.1.2,7.6s-.3,4.1-.3,6.1.3,2.3,2.5,2.5,2.8.1,4.2.3a2.2,2.2,0,0,1,1.4,1.1,1.5,1.5,0,0,1-1,1.9,3.5,3.5,0,0,1-1.7.6c-3,.1-6,.3-8.8-1.2-.9-3.4,0-6.8-.1-10.2s-1.5-6.1.1-9.2a2.1,2.1,0,0,1,1.9-1A1.8,1.8,0,0,1,40.3,55.8Z"/><path class="cls-26" d="M54.8,62.6l2,.7a6.9,6.9,0,0,1,2,4.7,16.5,16.5,0,0,0,.7,3.2c.7,2,.5,2.9-1.3,3.5a8.1,8.1,0,0,1-5.1.5A2.5,2.5,0,0,1,51.9,71a15.6,15.6,0,0,1,2.8-1.6,2,2,0,0,0,.5-3.1c-.2-.2-.7-.5-.8-.4A10.3,10.3,0,0,0,52.3,67c-.8.5-1.7.7-2.1-.1s.3-1.5.7-2a5.2,5.2,0,0,1,1.8-1.5c.7-.5,1.5-.3,2.1-.8Z"/><path class="cls-27" d="M65.3,60.5l2-1.5-4.9-1.3c-.3-1.3.7-1.5,1.6-1.9,3.3-.8,6.2-3.1,9.9-3.2a1.9,1.9,0,0,1,.4,1.2,7.6,7.6,0,0,1-3.7,4.9c.3-.1,1.4.2.9-.2a3.5,3.5,0,0,1,3.5-.6,2.2,2.2,0,0,1,1,.9c0,.2-.1.5-.1.8l-6.4.7Z"/><path class="cls-24" d="M54.8,62.6l-2.1.8A1.5,1.5,0,0,1,54.8,62.6Z"/><path class="cls-28" d="M137.3,10.7l-.9-1c.5-3,3.2-1.6,4.9-2.4l1.2-.4c1.7-.7,3.9.6,5.4-1.1h12.5a5.2,5.2,0,0,1,1.4,3.1,1.8,1.8,0,0,1-.5,1.2c-4,2.4-8.2-.1-12.4.7s-5.9.3-8.7,1.3a3.4,3.4,0,0,1-2-.4A3.8,3.8,0,0,1,137.3,10.7Z"/><path class="cls-29" d="M161.3,9.7V8.8c1.2-1.1,4,0,3.9-2.9,1.9,0,3.7.8,5.7.1l2,.9,2,.8c-.9,1.1-2,.3-2.9.6,5.6,1.6,7.7,4.5,5.7,8.1h-1a1,1,0,0,1-1.1.4l-1-.7-1-.8c-1.2-.9-2.8-.7-4.2-1.3S162.7,13.7,161.3,9.7Z"/><path class="cls-30" d="M147.9,5.8a2,2,0,0,1-2.1,2h-3.7c-.7,1-1.8.9-2.9,1s-2.1-.1-2.8.9l-1.7-.9c-1.1-.8-1.1-.9,0-2.1a4.6,4.6,0,0,0,.7-.7C139.5,5.4,143.7,4.4,147.9,5.8Z"/><path class="cls-31" d="M165.2,5.9c.2,1,1.7,1.5,1.2,2.8s-1.4,1-3.3.5l-1.8-.4c-1.1-.8-.9-2-.9-3.1Z"/><path class="cls-3" d="M76.8,67.2a3,3,0,0,1,2-2.8l.4.5c.1,1.6-.5,2.5-2.2,2.5Z"/><path class="cls-3" d="M78.8,64.4l1.8-1,.3.5a1.3,1.3,0,0,1-1.9.8Z"/><path class="cls-3" d="M80.6,63.4c.7-.9,1.4-.9,2,0v.2c-.7.4-1.2.5-1.8-.1Z"/><path class="cls-32" d="M97.9,6.9v.9L96.1,8a1.2,1.2,0,0,0-.5.7,1,1,0,0,0,.4.8c.9.2,1.9.8,2.8.6s4.7-.1,7-.1l7.2-.3c2.2,0,4.4-.3,6.2,1.6.3.4,1.2.2,1.8.3a1.5,1.5,0,0,1,0,1.3c-2,1.1-4,1.8-6.2.6s-2.1-1-2.6-.1c-1.8,3.2-4.1,1.6-6.3.9s-6.7.8-9.8-.8l-1.2-.4-1.2-.5-.6-.2c-4.3,2.7-8.9,1-13.4,1.3s-8.6,3.1-13-.4A8.5,8.5,0,0,1,64.4,17c-7.9,1.2-15.1,5.4-23.4,5-3.1-1.6-6.2-.3-9.3.2-1.3.2-2.6.7-3.9.2s-.7-4.2-1.9-6c2.9-2.1,6.3-2.1,9.7-1.9A66.5,66.5,0,0,0,58.3,14c1.9-.4,3.8-1.6,3.1-4.3.1-.1.2-.3.4-.3,3.4-.8,6.7-1.8,10.3-1.6,1,1,1.7,2.4,3.5,1.9A29.6,29.6,0,0,1,86.7,9c2.1.3,1-1.5,1.7-2.1Z"/><path class="cls-33" d="M161.3,9.7c1.6,1,3,2.2,5.1,2a4.4,4.4,0,0,1,3.6,1.8c.5,1.1-.2,1.8-.9,2.4l-1.4.2c-3.6-1.1-7.2-2-10.9-3a14.1,14.1,0,0,0-10.1.9,4.6,4.6,0,0,1-2.6.4,33.8,33.8,0,0,0-7.1.1c-1.9.2-3.9.1-4.7-2.2a1.9,1.9,0,0,0,.2-.7c.8,0,1.7-1.5,2.3-.2s.9.9,1.5.2l1-.9h1l.9.9c3-2.3,6.4-2.4,9.9-1.8.6.1,1.4.4,1.8.1s3.2-1.1,4.8-.3S159.5,9.6,161.3,9.7Z"/><path class="cls-33" d="M121,12.6v-1a9.4,9.4,0,0,1,.7-2.2c.8-1.4,1.7-2,3-1.4s3.2.2,3.7,2.1c.1.3,1.1.5,1.7.5s1.8.1,2.4,1h0a6.2,6.2,0,0,1-3.6,1.6A70,70,0,0,0,121,12.6Z"/><path class="cls-32" d="M98,7.8h7.6A7,7,0,0,1,98,7.8Z"/><path class="cls-34" d="M61.4,9.7h1c.8.1,1.6.3,1.8,1.2s-.5,1.5-1.5,1.4a1,1,0,0,0-1.2,1.1c-.1,1.6-1.2,2.1-2.6,2.1H54.1c-.7.1-1.7.5-1.9,1s-1.1,1-2.2.6a13.9,13.9,0,0,0-7.8-.9,18.8,18.8,0,0,1-5.3.1c-.9-.1-1.2-.9-1.3-1.8h.9c.5-.6,1.5-.3,1.9-1a7.4,7.4,0,0,1,2.1-.9,15.1,15.1,0,0,0,7-1.3c1.4-.6,2.7-.1,4.1-.2C54.9,10.8,58.1,10.2,61.4,9.7Z"/><path class="cls-35" d="M88.4,6.9a10.9,10.9,0,0,1,1.4,2.3,1.7,1.7,0,0,1-.5,1.6c-.2.3-1,.5-1.2.3s-3.3-1.6-5.2-.7c-2.8-1.1-5.5.2-8.2.8s-2.3.2-2.6-1.9a7.5,7.5,0,0,1,0-1.5,4.1,4.1,0,0,1,3.1-.5,8.4,8.4,0,0,0,4.7.1C82.7,6.6,85.5,6.8,88.4,6.9Z"/><path class="cls-32" d="M38.4,13.5a1.9,1.9,0,0,1-1.9,1c0-.3.1-.6.1-.9Z"/><path class="cls-36" d="M239.1,41.6l9-.2c1.1,0,2.3-.3,3.2.7s.9.2,1.5-.2l3.5-2.3a12.1,12.1,0,0,1,0,1.9c-.2,3.4-2,5.3-5.3,5.2s-5.9.6-8.9-.4a10.7,10.7,0,0,0-5.6.1c-3.1.8-6.3.7-9.4.8h-6.2a7.2,7.2,0,0,1,1.9-1.1c1.1-.1,1.9-.1,2.6-1.4s2.2-.8,3.3.3a2.7,2.7,0,0,0,1.5.9,8.8,8.8,0,0,0,2.8-.2,1.4,1.4,0,0,0,1.1-.6c.4-2.5,2.2-2.9,4.2-3.1C238.6,42.1,238.8,41.8,239.1,41.6Z"/><path class="cls-34" d="M17.3,18.3l1.9-1.1a3.1,3.1,0,0,1,.9,1.1,6.6,6.6,0,0,1-.2,4.4c-4.3,3-6.1,6.8-3.6,11.9l.6,1.2.6,1.2c1.2,2.5,3.7,5.5-2.1,5.8-.8.1.7.9.4,1.5-.4,2.1,1.8,5.3-2.4,5.8-1.6-1.5-3.2-3-4.7-4.6a4.5,4.5,0,0,1-.8-1.7,10.7,10.7,0,0,0-.8-2.7c-2-2.5-1-5.5-1-8.2A13.6,13.6,0,0,1,8.9,25c1.5-1.9,3.8-3.3,5.7-4.9Z"/><path class="cls-37" d="M13.4,50.1c1.5-.7,2.2-1.7,1.4-3.4a1.7,1.7,0,0,1,.6-2.4l.6.3c1.4,1.6,3.2,2.8,3.9,5.1s4.2,1.6,5.9,3.2a5.8,5.8,0,0,1,1.3,1.4,2.1,2.1,0,0,1,.4,1.1,2.5,2.5,0,0,1-.1,1.2c-.6.5-.6.9,0,1.4s.1,1.2-.5,1.5l-1.7,1.9c-1.1.5-.5-3.3-2.4-.9a14.3,14.3,0,0,0-.8-2.2c-.4-.6-.8-1.6-1.4-1.7-3-.7-4.8-3-7-4.7C13.5,51.3,13.5,50.7,13.4,50.1Z"/><path class="cls-38" d="M149.1,60.8l.8-1.1a9.3,9.3,0,0,1,1.3-.4c1.2-.1,2,.8,1.4,1.6a19.2,19.2,0,0,0-2.9,8.3l-1.9,3.7h-2.6c-1-1.3-2-2.5-2.9-3.8v-.4c0-1.2-1.1-2.7.6-3.2s1.5,1.2,2.2,1.9a1.4,1.4,0,0,0,1,.5c.2,0,.5-.3.6-.6C147.4,65.1,148.3,63,149.1,60.8Z"/><path class="cls-39" d="M158.3,62.7c1.2,2.4-.6,4.2-1.6,6,1.4,1.4,2.8.6,4.1.4s1.1.3,1.1.5a1.3,1.3,0,0,1-.4,1.2,5.5,5.5,0,0,1-7.4-.3,3.8,3.8,0,0,1-1.2-4.4c.8-1.9,1.8-3.8,4.4-3.5Z"/><path class="cls-40" d="M165.3,61.6a6.5,6.5,0,0,1,1.4,0c1.2.2,1.8,1.1,1.5,1.9a12.6,12.6,0,0,1-1.3,2.6c-.3.5-.8,1-.2,1.6a2.8,2.8,0,0,0,1.7.5,4.5,4.5,0,0,0,1.8-.7c.7-.2,1.4-.2,1.5.5a1.9,1.9,0,0,1-.6,1.6c-1.5,1.2-3.1,1.8-4.9,1l-1.9-.6-1.8-4.4h0c.3-.7.1-1.6.9-2.1h-.1a4.1,4.1,0,0,1,1.9-2Z"/><path class="cls-41" d="M177.7,16.4a3.2,3.2,0,0,1,.2-1.4c.5-1.2.6-2.2-1-2.4s-1.8-.4-2.1-1.5-2.2-2.5-4.1-2.2a7.7,7.7,0,0,1-1.8-.2c2.2-1.4,4.2-.6,6-1l3.6.5a15.6,15.6,0,0,0,3.7.2,6.1,6.1,0,0,1,5.1,1.3c-1.3.1-2.2.6-1.8,2.1a49.1,49.1,0,0,0,3.7,9.2c.1.2.6.2.9.2v1a4.6,4.6,0,0,1-3.6,3.1c.5-2.6-1.8-4.7-1.5-7.3a17.9,17.9,0,0,0-2.6-2,6.3,6.3,0,0,0-2.3.2Z"/><path class="cls-41" d="M189.1,10.7l-.9-.7Z"/><path class="cls-3" d="M181.4,59.5a.8.8,0,0,1,.2-.8c.4-.6.7-1.4,1.6-1.4a4.1,4.1,0,0,1,2,1.2v.2C184.2,60.1,182.7,59.5,181.4,59.5Z"/><path class="cls-42" d="M19.3,18.4a4.9,4.9,0,0,1-.1-1.2c2.1-1.5,4.4-.7,6.7-.8l1.2.6c1,.5,1.8,1.1,1.2,2.5a11.7,11.7,0,0,0-.4,2.7c-.3,2.5-3.5,4.1-2.6,7.1v2.8c.2,3.6-.8,7.5,1.8,10.7-3.4,1.9-4.8,1.3-5.2-2.4s-.1-9.8-.2-14.7C21.6,23.1,21.8,20.3,19.3,18.4Z"/><path class="cls-43" d="M26.7,81.9v1.5l-1.9.9a2.9,2.9,0,0,0-2,2A4.8,4.8,0,0,0,21,90.2a10.1,10.1,0,0,0,.1,8.8c.1,2.4,1.8,4,2.8,6,.1.3.1,1.1-.2,1.2s-1.3.6-1.6.4a8.4,8.4,0,0,1-2.4-2.2,22.6,22.6,0,0,1-2.2-3.7,43.6,43.6,0,0,1-.5-5.2c-.1-4.6,1.1-8.8,4.6-12.2C23,81.9,24.6,81.1,26.7,81.9Z"/><path class="cls-3" d="M165.2,61.6l-1.9,2a14.8,14.8,0,0,0-.1-2.1Z"/><path class="cls-3" d="M163.4,63.5l-.9,2.1C162.3,64.7,162.4,63.9,163.4,63.5Z"/><path class="cls-44" d="M119.9,95.8h-1.6c-1.3-2-2.9-1.1-4.5-.7a6.9,6.9,0,0,1-4.5.1h-.4l-.4-.3-1-.7h0a7.6,7.6,0,0,0-.9-.9h0a3.8,3.8,0,0,1-.1-3.3c-.2-.3-.1-.4.2-.5a6.1,6.1,0,0,0,.7-1h.1l1-.7a1.3,1.3,0,0,1,2.1.5,2.2,2.2,0,0,1-.1,2.2h-.1a2,2,0,0,0-.8,1.2c.1.3.1.5-.2.7s-.2.6.2.8h0c1.4,1.1,3,.8,4.6.2a3.7,3.7,0,0,0,1.2-3.3,8.7,8.7,0,0,1,.1-2.3c2.5-.3,2.5-.3,2.8,1.6a6.1,6.1,0,0,0,.1,1.4l1,2.1,1.8-1.3a12.5,12.5,0,0,0,.8-1.2c.9-.7.1-2,.9-2.7l.2-.2a.5.5,0,0,1,.8-.1h.1c.1.5.5.7.9,1l.2.2v.3c.6,1.4-.1,3,.7,4.3v1c-.5.6-1.1.5-1.7,0h-.1c-.5-.5-.6-1.8-1.7-.7Z"/><path class="cls-45" d="M109.3,95.3h4.5c-1.2,1.3-2.8.6-4.2.8A.9.9,0,0,0,109.3,95.3Z"/><path class="cls-46" d="M80.7,63.5h1.8c.3,1.1.7,2.2-.5,3a5.5,5.5,0,0,0-2.4,3.9,2.5,2.5,0,0,0,.3,1.7,2,2,0,0,0,1.7.2,48.4,48.4,0,0,0,4.6-3.3c2.8-2.4,3.3-2.2,4.6,1.5.4,1.4.8,2.7.2,4.2s-2.6-1.3-3.9-2.4l-2.9,2c-3.7,2.1-5,1.8-8.1-1.5l.9-5.5,2-2.7Z"/><path class="cls-47" d="M39.2,99.7H37.6a18,18,0,0,1-.6-3.2c.2-2.3.5-4.6.8-6.9,2.1,1,4.2-.2,6.3-.2l1.8,2c.1,1.9.3,3.8.3,5.7a1.4,1.4,0,0,1-.8.9,2.4,2.4,0,0,1-1.6-.7c-.3-.3-.2-.9-.4-1.3s.5-2.6-1.2-2.5-1.4,1.5-1.8,2.5A21.7,21.7,0,0,0,39.2,99.7Z"/><path class="cls-48" d="M97.8,59.7c0,.6.2,1.3,1,1.2h6.6c.1.8.2,1.7-.7,2a11.3,11.3,0,0,1-3.2.6c-3.7.3-3.7.5-3.5,4.3,0,1.1.1,2.2.1,3.3s-.3,1.8-.4,2.8a2.3,2.3,0,0,1-2.5-1.6l-.9-3.1L94,57.7c-1.2-2.8-1.1-4.6,2.7-4.3S96.9,57.7,97.8,59.7Z"/><path class="cls-49" d="M96.6,54c-2.4,0-2.4,0-2.5,1.9a10.9,10.9,0,0,1-.1,1.8H85.5c-2-2.7-5.1-2.8-8-3.2-1.2-.1-2.5.5-3.5-.6v-1a7,7,0,0,1,9.2-1.8c3.7,2.1,5.2.4,6.8-2.2l1.3-.5a2.7,2.7,0,0,1,.9,0c2.1,1.1,3.3,4.5,6.6,2.3.4-.3,1.3.8,1.6,1.5C100.2,55.1,98.9,55.6,96.6,54Z"/><path class="cls-50" d="M74,53.9h.4c3.5-1.2,6.7-.3,9.8,1.3l2.5,1.1-1.2,1.5h-.9c-2.6-.3-5.3.3-7.9-.6s-1.5.6-1.8,1.4H71.2C72.4,55.4,72.4,55.4,74,53.9Z"/><path class="cls-51" d="M74.9,58.6a5.8,5.8,0,0,1-1.1-1.8c-.1-.4.7-1,1.2-1.3s1.1-.3,1.3-.1c1.5,1.7,3.4,1.3,5.3,1.3s2.3,0,3,1.1a16.7,16.7,0,0,1-3,.8l-5.6.2Z"/><path class="cls-52" d="M89,58.9a1.6,1.6,0,0,1,1.4,1.9c0,.3-.5.8-.8.9a1.3,1.3,0,0,1-1.4-1.5C88.3,59.7,88.8,59.3,89,58.9Z"/><path class="cls-3" d="M129.6,95.1a17.4,17.4,0,0,1,1-1.9l.2.2c.4,1,.2,1.7-.9,2Z"/><path class="cls-53" d="M123.9,87.3l-.4.2h-.4c0-.2.1-.4.1-.7s.4.2.5,0S123.8,87.1,123.9,87.3Z"/><path class="cls-54" d="M96.9,82.8c0,3.1,0,6.3.1,9.4a1.4,1.4,0,0,0,.6,1.1c.7.4,1.1-.3,1.4-.8a20,20,0,0,0,1-2.1l.8-1.6a2,2,0,0,1,1.1-.6c.4.1.9.5.9.9.3,2.2.5,4.5.7,6.8-.6,0-1.4.3-1.8.1s-1.4-1.2-2.6-.1-3.9,1.2-4.7-1.1a9.7,9.7,0,0,1-.7-3.7c-.1-2.5.1-5,.2-7.6,0-.7.1-1.7,1.1-1.8S96.2,82.4,96.9,82.8Z"/><path class="cls-55" d="M100.1,85.4c.4-1.2,1.1-1.9,2.5-1.6s0,.4-.1.5C102.3,86.4,102.1,86.5,100.1,85.4Z"/><path class="cls-45" d="M106.5,89.9c0,1.1,0,2.2.1,3.3A2.2,2.2,0,0,1,106.5,89.9Z"/><path class="cls-45" d="M110.5,90.3c0-.7.1-1.5.1-2.2a14.6,14.6,0,0,1,.5,2Z"/><path class="cls-45" d="M107.4,88.4a8.6,8.6,0,0,0-.7,1A8.6,8.6,0,0,1,107.4,88.4Z"/><path class="cls-45" d="M108.5,87.6l-1,.7Z"/><path class="cls-45" d="M107.5,94.3l1,.7Z"/><path class="cls-45" d="M106.6,93.3l.9.9Z"/><path class="cls-3" d="M131.7,80.7l2.7,1c.1.9.1,1.9.2,2.8l-.3.2c-2.1-.4-2.8-1.8-2.9-3.7Z"/><path class="cls-53" d="M125.7,93.2c-1.3-1.2-.8-2.8-.7-4.3C125.2,90.4,125.5,91.8,125.7,93.2Z"/><path class="cls-53" d="M122.1,93.5l1.2-.8a8.8,8.8,0,0,1,.5,1.5Z"/><path class="cls-53" d="M123.9,94.2h1.7C124.8,95.2,124.7,95.2,123.9,94.2Z"/><path class="cls-53" d="M124.9,88.4l-.9-1C124.7,87.4,124.9,87.8,124.9,88.4Z"/><path class="cls-53" d="M122.9,87.6c.1,1,.2,2.1-.9,2.7C122,89.3,121.8,88.2,122.9,87.6Z"/><path class="cls-56" d="M131.4,81l2.9,3.7v.9a16.5,16.5,0,0,1-1.9,12.3l-2.1,1.9c-1.1,1.1-2.2.9-3.4,0l1.3-1.8a23.3,23.3,0,0,1,1.7-2.6l.9-2c1.6-3.4,1-6.7-.9-9.8a2.4,2.4,0,0,1,0-2.6Z"/><path class="cls-45" d="M114.2,93.3c-2.2,1.3-2.7,1.3-4.6-.2A8,8,0,0,0,114.2,93.3Z"/><path class="cls-45" d="M109.6,93.1c-.7-.1-.8-.4-.2-.8A1.9,1.9,0,0,1,109.6,93.1Z"/><path class="cls-45" d="M109.6,91.6l.8-1.2Z"/><path class="cls-57" d="M125.9,60.7l2.8-1a28.1,28.1,0,0,1,2.9-.1c.3.1.9.4,1,.8a1.4,1.4,0,0,1-.4,1.2c-1.7,1.3-4.6,1.3-5.2,3.7s-.2,4.1-.2,6.2a5.9,5.9,0,0,0-.2,1.4c-2,.9-2.7-.6-3.5-1.9s-.1-5-.1-7.5Z"/><path class="cls-58" d="M52.8,88.5a2.9,2.9,0,0,1,0,2.7,15.4,15.4,0,0,0-1.5,3.5,1.3,1.3,0,0,0,.5,1.1,1.7,1.7,0,0,0,1.4.1,6.9,6.9,0,0,0,3-3.5,6.8,6.8,0,0,1,.9-1.7,1.5,1.5,0,0,1,1.3-.3,1.6,1.6,0,0,1,1,.8c.1,2.1.1,4.1,0,6.2,0,.2-1.2.7-1.4.5s-2.1-1.1-3.3,0a4.5,4.5,0,0,1-1.7.8,3.7,3.7,0,0,1-4.7-2.8c-.4-1.7.3-3.1.9-4.5s1.7-2.8,3.5-2.9Z"/><path class="cls-59" d="M57.9,85.8l.9.2a2.4,2.4,0,0,1,.6,1.1l-.6.4a2.2,2.2,0,0,1-.9-.7c-.2-.3,0-.6,0-1l-.2-.2Z"/><path class="cls-48" d="M79.6,90.4l.9,2v5.4H78.9c-.6-1.5-1.3-3.1-1.9-4.7a4.8,4.8,0,0,0-.9-1.4c-.2-.2-1,.2-1.2.5a21.1,21.1,0,0,0-1.6,3.4c-.4,1-.8,1.9-2,1.6s-1.1-1.4-1.1-2.4.1-3.5.1-5.3h1.8c.9.1,1.6,0,2-.8C76.4,87.8,78.1,88.9,79.6,90.4Z"/><path class="cls-60" d="M28.1,100.7l-1-.9c0-1.2,0-2.3.1-3.5s2.6-2.5,4.6-2.8c.2,0,.5-.8.4-1.1s-.7-.3-1.1-.4-.3.2-.4.2c-1.7.4-1.7.4-1.8-1.8l.9-1,1.1-.8h2.5a16.3,16.3,0,0,1,1.9,5.2,5.3,5.3,0,0,1-1.8,5.8C31.7,100.4,30,101.3,28.1,100.7Z"/><path class="cls-61" d="M172.9,43.3c-.9.2-2.1.2-2.7.8a9.8,9.8,0,0,1-6.1,2.9c-1.8,0-3.4,1.4-5.4.8-.3-.1-.8.8-1.3,1.3a2.3,2.3,0,0,1-.7.7c-.7.5-.6,1.2-.6,1.8s-.3,1.7-1.4,1.4a2.6,2.6,0,0,0-2.5-1c-3.1-.3-6.1.5-9.1.9L141.2,50c3.3-2.3,8-1.2,11-3.8,4.8-4.2,11.1-1.1,16-4.1a15.7,15.7,0,0,1,5.1-2.3c3.3-.8,4.5-3,4.2-6.2l-.3-1.2v-.6A5.8,5.8,0,0,1,178,30a3.9,3.9,0,0,1,.8-1,2.3,2.3,0,0,1,1.8-.3,3.4,3.4,0,0,1,.7,1.1c.3,1.2.2,2.5.6,3.6l.6,1c.4.7,1.3.8,1.9,1.2s-.1.7-.3.9c-2.6,2.9-5.2,5.9-8,8.7-.3.4-1.2.8-1.6.6a7.5,7.5,0,0,1-1.6-1.5,1.2,1.2,0,0,0,.4-.8C173.3,43.4,173.1,43.3,172.9,43.3Z"/><path class="cls-62" d="M99.9,52c-1.1-.6-2.1-1.2-3.2.2s-1.5.9-2.1-.3-1.6-2.7-3.4-2.8c0-3.1,2.2-3.4,4.5-3.4s1.9,2.1,3.1,2.9,2.3,1.2,2.6-.9,4.3.3,6.3-.9c5,1.5,10.2-.2,15.2,1.3a2.6,2.6,0,0,1,1.1.7,7.7,7.7,0,0,1,.7,1.6c.1.2.1.4.2.6-1.7,1.2-3.4,1.9-5.5,1.2a19.3,19.3,0,0,0-4.2-.3l-1-.3a3.9,3.9,0,0,0-2.4.2,7.7,7.7,0,0,1-3.7,0,5,5,0,0,0-3.6.5C102.9,52.9,101.3,53.2,99.9,52Z"/><path class="cls-63" d="M169,42.3c-.1.5-.2,1.3-.5,1.3-2.3.7-4.6,2.2-7.3,1.1a5.9,5.9,0,0,0-2.3-.4,3.7,3.7,0,0,0-1.8.5c-.8.7-.8,2-2.2,2.3-4.6.9-8.8,3.3-13.7,2.9h0c-.5-.6-1.4-.4-2-.9h.1c-1.2-.9-3.2-.1-3.9-1.9l-1.9-1a1.5,1.5,0,0,1-.3-1.9c1.3-1.1,2.4-.1,3.5.2,4.3,1.1,8.3,3.5,13,1.1,1.4-.8,3.4-.6,4.6-2s3.8-2.1,6.1-1.8S166.2,41.6,169,42.3Z"/><path class="cls-64" d="M107.7,51h4.7a2.1,2.1,0,0,1,2.8,0v.9c.4,1.3.7,2.6,1,3.8s-1.9,1.1-2.6.9c-3.3-.8-6.6.4-9.9.1a.8.8,0,0,1-.3-.9,3,3,0,0,1,.8-.8l1-1.4C105.8,52.5,106.3,51.2,107.7,51Z"/><path class="cls-65" d="M138.3,55.7c-.4.1-1.1.4-1.2.2s-2.7-.4-4-.3-1.8-.8-1.6-2.1,1.7-3.2,2.9-3.3a2.4,2.4,0,0,1,1.7.6c.9,1.3,1.6,2.7,2.4,4A.6.6,0,0,1,138.3,55.7Z"/><path class="cls-62" d="M133.5,44.3v1.9l-1,1c-1.3,1.6-1.3,1.6-2.7.5s-1.5-1.4-2.8-1.2-2.1.2-1.2,2.6l-.4.4a1.2,1.2,0,0,1-1.5-.4h0c-2.3-4.1-2.1-4.4,3.8-5.3H129c1.1.2,2.2.7,3.4.2A1.5,1.5,0,0,1,133.5,44.3Z"/><path class="cls-61" d="M135.4,47.2l3.9,1.9h-1C136.1,49.6,136.1,49.6,135.4,47.2Z"/><path class="cls-61" d="M143.1,52.9l-1.9.9Z"/><path class="cls-61" d="M139.2,49.1l2,.9Z"/><path class="cls-61" d="M138.3,55.7a1.5,1.5,0,0,1,.2-.9h.7v1h-.9Z"/><path class="cls-62" d="M125.8,50l-.9,1h-.1c-.1-.5-.1-.9.4-1.2Z"/><path class="cls-62" d="M125.8,49.1q1,.4,0,.9h0q-.5-.3-.3-.6t.3-.3Z"/><path class="cls-66" d="M131.8,71l-.8-1.7c-.2-.5-.5-1.1-.4-1.3a33,33,0,0,1,3-4.3,1.7,1.7,0,0,1,2.5,0,3.4,3.4,0,0,1,.5,2.2,7.8,7.8,0,0,1-1.1,2c-1.1,1.9-.7,2.9,1.4,3.3a11.1,11.1,0,0,1,1.9.2,1.2,1.2,0,0,1,.2,1.2,2.6,2.6,0,0,1-2.8,1.2c-1.9-.4-3.1-1.7-4.4-2.8Z"/><path class="cls-67" d="M103.8,55.6a4.5,4.5,0,0,1-.1,1.1h-2.8c-2,0-2.7,1.2-3.1,2.9L96.6,54c2.7.5,2.7.5,3.3-2a9.2,9.2,0,0,0,4.9-1C105.9,52.8,104.7,54.2,103.8,55.6Z"/><path class="cls-11" d="M202.5,44.3c1.4,0,2,.6,1.9,2Z"/><path class="cls-68" d="M154.7,53l.9-2a1.5,1.5,0,0,1,1.1-1.3c.6-.1,1.2-.2,1.6.4s-.1.6-.1,1l-.6.8a8.3,8.3,0,0,1-.9,1.6C155.8,54.4,155.1,54.1,154.7,53Z"/><path class="cls-69" d="M183.2,57.8l-1.6.9c.3-1.5.4-3,2-3.9s.3-.2.5,0a1,1,0,0,1,.6,1C184.4,56.6,184.2,57.5,183.2,57.8Z"/><path class="cls-70" d="M184.1,55.6a1.1,1.1,0,0,0,0-.8l1.9-.6a2.3,2.3,0,0,1-.6,2.5C184.3,57,183.9,56.6,184.1,55.6Z"/><path class="cls-71" d="M184.1,55.6a6.9,6.9,0,0,0,1.3,1.1,11,11,0,0,0-.2,1.8c-.8.1-1.6.3-2-.7Z"/><path class="cls-72" d="M226.7,14.4a10,10,0,0,1,2.6.5l12,4.5a10.5,10.5,0,0,1,3,2.2,2,2,0,0,1-.2,3l-2.5,1.3-9.4,4.7-1.7.9c-2.2.9-3.9.1-3.9-2.4a21,21,0,0,0-2.4-9.6,3.6,3.6,0,0,1,.7-4A8.7,8.7,0,0,1,226.7,14.4Z"/><path class="cls-3" d="M162.2,113.5h-2.7C160.9,112.2,160.9,112.2,162.2,113.5Z"/><path class="cls-3" d="M163.1,114.5l-1-1Z"/><path class="cls-73" d="M26.9,54.8l-.9-.9a2,2,0,0,1,.9-1.5c1.2-.8,2.8-.9,3.9-1.7l1.1-.7,1.1-.5a2.8,2.8,0,0,1,1.3.1A8.6,8.6,0,0,1,37.8,55c-.1,1.7-.2,3.4-.4,5s-.5,3-.7,4.5l-.3-1.3c-.3-2.3-.3-2.2-2.2-2.7a10.4,10.4,0,0,1-2.5-.8C30.9,57.2,28.3,56.6,26.9,54.8Z"/><path class="cls-74" d="M26.9,54.8a9.9,9.9,0,0,1,2.6.7,16.6,16.6,0,0,1,3,2.2,4.1,4.1,0,0,1,.7,1.1l-1.5.9H29.9c-2.9.1-1.4-3.1-3-4Z"/><path class="cls-75" d="M22.8,60.5c.1-1.6,0-3.2.2-4.7s.8-.8,1.3-1a1.4,1.4,0,0,1,.8.9c.1,1.1.1,2.2.1,3.3v2.4A1.6,1.6,0,0,1,22.8,60.5Z"/><path class="cls-76" d="M26.9,55.7c1.9.2,1.9.2,2.2,2a10.4,10.4,0,0,0,.8,2c-.6,1.9-.8,2-2.2.8l-.8-1a7.6,7.6,0,0,1-.1-1.5,1.9,1.9,0,0,1,0-1.5A2.2,2.2,0,0,1,26.9,55.7Z"/><path class="cls-77" d="M180.6,29.6c.2-.3.2-.5-.1-.7s-1.4.6-2,.9h0c-.4.7-.3,1.5-.9,2.1h0c-.7.7-.1,2-1.2,2.6s-3.2-.6-3.6-2.4a12.6,12.6,0,0,1,.2-6.1c1.3-2.4,3.7-1.3,5.6-1.7,3.8,0,4.3.3,5.1,3.5s.9,4.6-.3,6.9c-.6.6-1.3.7-1.8-.2v.2C180.2,33.2,181.7,31.1,180.6,29.6Z"/><path class="cls-78" d="M186.4,25.3c1-1.3,1.9-2.7,3.6-3.1l1.9,1.2-.8,2.6c-.3.4-1,1-.9,1.3a16.8,16.8,0,0,0,1.5,3c1.4,3.4-.5,5.8-4.4,5.6l-.9-.3c-.3-2.4-.3-2.4,2.5-3.3C188.3,29.9,186.1,28,186.4,25.3Z"/><path class="cls-33" d="M175.7,16.4h1c.3.3.6.8,1,.9,2.3.3,3,1.9,2.8,3.9-2.7,1.9-4.6-1.2-7-1.1a2.8,2.8,0,0,1-1-.9c-.2-1.5-2-2.2-1.7-3.9s2.7-1.7,4,.2h0Z"/><path class="cls-79" d="M178.6,24.2c-1.1,2.6-3.1,1.1-4.7,1-.7-1.9-5.9-1.8-2.3-5.4a2.4,2.4,0,0,1,2.2.4c0,.9.3,1,.9.5s2.9,1.2,3.9,2.5Z"/><path class="cls-80" d="M178.6,23.2l-2.4-1-2.4-1h0l-1.9-.9a1.3,1.3,0,0,1-.3-.8c.1-.2.1-.3.2-.3s.7-.2,1.1.1c1.9,0,3.9-.3,5.5,1.5s1.4.3,2.1.4.7,1.6-.5,1.9Z"/><path class="cls-81" d="M181.6,34.4l1.8.2a9.4,9.4,0,0,0,1,1C183.3,35.6,182.1,35.9,181.6,34.4Z"/><path class="cls-81" d="M172.9,43.3c.3-.3.6-.6.7.1s-.5.6-.7.9A3.3,3.3,0,0,1,172.9,43.3Z"/><path class="cls-23" d="M158.3,50.1h-1.7q-.7-.7.3-.9c.2.1.4.1.5-.1Z"/><path class="cls-82" d="M90.3,49.1c.1,1.7-2,2.8-1.4,4.8,0,0-.7.6-1,.5a14,14,0,0,1-3.3-1.5,6.7,6.7,0,0,0-6.1-1.1c-1.5.4-3.2.2-4.5,1.1s-1.7.4-2.1.9-1.7,2.2-3.4,1.4-1,.7-1.5.9l-2.6.6c-2.3-1.7-4.5-.6-6.8,0-5-.2-10.1-1-14.4,2.9h0a.6.6,0,0,1-.9,0c-1.4-1-.8-2.5-1-3.8a1.8,1.8,0,0,1,2.2-.2c-.9-.6-2-.1-2.9-.4A1.4,1.4,0,0,1,40,54a4.1,4.1,0,0,1,2.1-1.6,2.8,2.8,0,0,1,1.3-.3c1.9.1,3.8.4,5.6-.6l1.1-.6c1.3-1,4,.6,4.2-2.3a2.1,2.1,0,0,1,2.3-1,6.6,6.6,0,0,1,1.7,1.2c3.5,3.3,6.1,3.8,10.1,1.5a13.6,13.6,0,0,1,5.5-1.4c3.4-.3,7-.1,10.2-1.9s3.7,1.2,5.7,1.7Z"/><path class="cls-83" d="M43.2,59.6l-.3-.8c-.4-.9-.4-1.8.6-1.9,4.4-.6,8.7-1,13.1-1.4.3,0,.7.8,1,1.2H56.2a24.1,24.1,0,0,1-7.6,1.1C46.8,57.8,45,59,43.2,59.6Z"/><path class="cls-83" d="M57.6,56.7A5.5,5.5,0,0,0,59,55.5c1-1.7,1.8-2,3-1.1s1.6,1.6,2.4,2.3l-2,1C60.6,58.5,59.1,58,57.6,56.7Z"/><path class="cls-83" d="M40.4,54.7l2.2.2a1,1,0,0,1,.7.4c-.2.1-.4.4-.7.4H40.3l-.7-1C39.8,54.4,40.1,54.4,40.4,54.7Z"/><path class="cls-83" d="M42.3,59.6h.9Q42.8,60.6,42.3,59.6Z"/><path class="cls-84" d="M40.4,54.7h-.8l-1.8.2-4.2-5c-1.3-2.4-.2-3.5,2.1-3.8s4.1-.2,3.9,2.6,1,3.3.8,5.1Z"/><path class="cls-4" d="M139.2,11.6l-.9-.9Z"/><path class="cls-17" d="M174.8,15.5c-1.3-1.1-2.6,0-3.9,0a1.3,1.3,0,0,1-1.9,0l1-2h2.7A1.8,1.8,0,0,1,174.8,15.5Z"/><path class="cls-17" d="M175.7,16.4l-.9-.9Z"/><path class="cls-28" d="M142.1,7.8l-.4-.2.4.2Z"/><path class="cls-85" d="M64.4,16.4c0-1.7,1.3-2.7,2.3-4.1,2,2,4.6,1.8,7,2a3.1,3.1,0,0,0,2.1-.7c1.4-1.4,3.2-1.3,4.9-1.7s2.7.6,3.9,1.3,2.9.9,4.3-.3A16.5,16.5,0,0,1,91.6,11a1.8,1.8,0,0,1,2.5.6c-1.2,1.8-1,4.2-3,5.6-5.3,1.3-10.8,1.2-16.3,1.7-3.1-.4-5.8-.1-8,2.4-.8.9-1.9,1.9-3.1.3A4.7,4.7,0,0,1,64.4,16.4Z"/><path class="cls-86" d="M91.2,16.4a8.3,8.3,0,0,0,.8-2.2c.2-1.9.1-1.9,2.1-2.6h0l1,1h0c3.2,3.4,7,.4,10.6.9,1.2.2,2.5-.3,3.6.8s1.1.2,1.1-.5c.1-2.5,2.6-1.7,3.8-2.8s.7.3.7.5c.5,2,1.7,1.9,3.3,1.3a6.5,6.5,0,0,1,2.8-.2c1.3-.5,2.6-1.3,3.9-1.3s2.5.8,3.8,1.3a1.4,1.4,0,0,0,.2.6c-.2.7-.7,1.5-1.2,1.4-5.6-1.7-10.1,1.9-15.1,2.9-2.3.5-4.4,2-6.6-.4-.7-.9-1.8-.3-2.5.4C99,21.7,95.1,19.6,91.2,16.4Z"/><path class="cls-86" d="M64.4,16.4c0,2.1.1,4.1.1,6.1s.4,3.7-1.8,4.6a3.4,3.4,0,0,1-2-3c-.4-3.1-2.2-3.7-4.9-2.9l-1.2.4-1.1.5a22.3,22.3,0,0,0-4.4,2.1l-1,.8-1.2.4a2.8,2.8,0,0,1-1.7-.7c-1.6-1.5-3.4.6-5-.4a2.2,2.2,0,0,1-.5-1.9,1.9,1.9,0,0,1,.7-1.2c1.5,0,2.9-1.2,4.6-.2s1.4-.2,2.1-.4,1.1-1,1.6-1A13.1,13.1,0,0,0,56.6,17a1.8,1.8,0,0,1,1.4-.2C60.2,18,62.3,16.8,64.4,16.4Z"/><path class="cls-87" d="M40.4,21.2v1c-1,2.8-4,3-6.1,4.2S28,30.8,24.2,31.8a28.1,28.1,0,0,0-.1-2.9c2.3-2.8,4.1-6.1,7.6-7.7,1.7-1.1,3.8-.3,5.6-1.5S39.6,20.2,40.4,21.2Z"/><path class="cls-88" d="M31.7,21.2c-.6.9-1.4,1.6-1.9,2.5a12,12,0,0,1-5.7,5.2V26.5A2.2,2.2,0,0,1,25.7,24a9.2,9.2,0,0,0,2.2-1.8Z"/><path class="cls-85" d="M105.7,13.5a19.7,19.7,0,0,1-3.2,1,2.9,2.9,0,0,0-1.7,1.4c-.9,1.3-1,1.3-2,.3l-3.7-3.6,3.3.3c.6,0,1.5.4,1.8.1C102.3,11,103.9,12.5,105.7,13.5Z"/><path class="cls-85" d="M95.1,12.6l-1-1Z"/><path class="cls-89" d="M144.2,13.9a3.3,3.3,0,0,1,2.7-.4,2.6,2.6,0,0,1,.8,2.3l-.3,1.3c-.3,1-.5,2.1-.7,3.1a83.7,83.7,0,0,1-2.6,11,38.9,38.9,0,0,1-1.6,4.4c-1.7,3.7-3.2,4-6.6,1.2a22.1,22.1,0,0,1-1.5-5,34.7,34.7,0,0,0-1.9-7.7c-.7-4.7-.4-5,3.9-3.6,1.9,1.8,1.8,4.5,2.8,6.8a17.5,17.5,0,0,0,1.1-3.5c.3-1.2.7-2.3.9-3.5a3.6,3.6,0,0,1,.4-1.1c.4-.9.6-1.8.9-2.6a9.5,9.5,0,0,1,.9-2.1A1.2,1.2,0,0,1,144.2,13.9Z"/><path class="cls-90" d="M147.2,16.4l-.3-2.9V11.8c2.8.6,5.4-.9,8.2-.7.5,0,1.1.5,1.6.7s1.8,1.2,2.5,1.1c2.6-.7,4.5.8,6.7,1.6l2.1,1a.8.8,0,0,1,0,1.2,3.1,3.1,0,0,1-2.5.5,20.9,20.9,0,0,0-4.9-.8l-1.1-.4c-.5-.4-1-.1-1.6,0l-1.2-.2c-2.9-1.1-5.7-1.2-8.3.7A1.3,1.3,0,0,1,147.2,16.4Z"/><path class="cls-86" d="M144.2,13.9a.4.4,0,0,1-.3.6c-.4.6-.2,1.4-.8,1.9l-.9,3c-.8-.4-1.2-1.8-1.7-1.5-5.8,2.2-8.5-2.3-11.8-5.3h0c1-1.4,2.5-.8,3.8-1a3.3,3.3,0,0,0,4.4,1.8c2.1-.8,4.3.2,6.3-.4C143.5,12.9,143.9,13.6,144.2,13.9Z"/><path class="cls-80" d="M168,16.4v-.9h2.9l2,1.1c.9.6.7,1.2-.1,1.7C170.5,19.5,169.3,18,168,16.4Z"/><path class="cls-32" d="M46.6,14.1l.2.4-.2.4Z"/><path class="cls-91" d="M19.3,18.4c2.2-1.1,2.8-1,3.1.8a49.1,49.1,0,0,1,.6,6.6c.2,5.2.3,10.4.5,15.6.1,1.9.5,2.2,2.4,1.7l1.2-.7a4,4,0,0,1,3.5-1.5c2.6,2.5,2.5,3.2-1.4,5.5-3.1.5-6,2.9-9.3.9a5.5,5.5,0,0,1-.8-1.5c-.2-7.1-.2-14.1-.3-21.1a2.4,2.4,0,0,1,.5-1.6Z"/><path class="cls-92" d="M19.3,23.1a.4.4,0,0,1,.1.7c.7,3.7.1,7.4.3,11.1-.5,1.7-1.7,2.1-3.3,1.7h0c-.4-.3-.6-.7-1-1-1.6-2.5-.9-5.6-1.7-8.3a1.5,1.5,0,0,1,.5-1.2C15.8,25,17.1,23.3,19.3,23.1Z"/><path class="cls-37" d="M16.4,36.6l2.8-1a19.1,19.1,0,0,1,.1,8.9c-1.4,2-2.6.3-3.9-.2h0l-3-2,2.7-.3,2.3-.3c.9,0,.9-.8.7-1.3S16.9,37.9,16.4,36.6Z"/><path class="cls-41" d="M7.6,33.3A15.5,15.5,0,0,1,8,31.8a1.3,1.3,0,0,1,.7-.6,15.9,15.9,0,0,1,2.1,1.5c.2.2.1,1-.1,1.3s-1.2,1.6-2.2,1.1S7.9,33.8,7.6,33.3Z"/><path class="cls-37" d="M15.4,35.6l1,1Z"/><path class="cls-93" d="M15.4,44.3c1.5-1.2,2,.4,2.9.9s1.3.4,1.8.9.3.4.2.7c1.8,2.5,6.1,2.3,6.6,6.1l-.9,1-5.5-1.5c-1.8-.4-2.2-.5-2-2.3s.1-1.8-.9-2.4A4.1,4.1,0,0,1,15.4,44.3Z"/><path class="cls-75" d="M26.8,56.5V58C26.3,57.5,26.2,57,26.8,56.5Z"/><path class="cls-94" d="M29.8,41.4c-.7,1-1.7.9-2.7,1-2.8-.6-2.9-.6-2.9-2.6v-8c1.8,0,1.2-2.4,3-2.7S30,27.8,31.3,27s2.2-1.9,3.5-2.3,4-1.1,5.6-2.5v1.9a1.9,1.9,0,0,1,.4,1.9c-.7,1.3-1.9,1.6-3.2,1.8-3.3.3-5.8,2.3-8.1,4.5s-3.4,5.2,0,8.4Z"/><path class="cls-82" d="M96,46.2c-1.9.3-3.7.9-4.8,2.9h-.9c.2-4.2,1.5-5,5.8-3.7A2.2,2.2,0,0,1,96,46.2Z"/><path class="cls-95" d="M31.1,97l.4.5-.7.3-.4-.3Z"/><path class="cls-96" d="M157.5,15.5h.9c.4-.3.7-.3,1,0s2.6.1,1.9,2-1.3.8-1.4,1.6a.4.4,0,0,0,.6.4c.8-.5.4-1.4.7-2a2.7,2.7,0,0,1,2.9-.9l1.2.5c.7,1.3,1,2.6,1.6,3.9a9.4,9.4,0,0,0,.6,1.5c1.1.5,1.1-.4,1.3-1l.4-1.2c.6-1.2,1.3-2,2.7-1v1c-.6,2.4-.6,2.5,1.1,2.8s1,1.2.9,2.1-.2,4.7-.1,7,.6,2,2.9,1.4a1.8,1.8,0,0,1,1.1-.8c1.1.1,2,.6,1.6,1.8a62.7,62.7,0,0,1-2.9,5.8c-.2.2-.6.4-.8.3-2.6-.9-4.3,1.6-6.7,1.6l-3.1,1a4.6,4.6,0,0,1-5.5-1c-.1-.2-.1-.4-.2-.6,1.1-2,3.1-2.3,5.2-2.6s5.1-1.2,5-4.6-1.1-5.3-3.6-6.8l-4-2.2c-2.1-2.3-5.1.1-7.4-1.3.9-3.5-2.8-4.6-3.8-7.1C153.1,14.8,155.1,14.5,157.5,15.5Z"/><path class="cls-17" d="M156.9,49.2l-.3.9-1,.9c-.3-.1-.6-.2-.7-.5a1.5,1.5,0,0,1-.4-1.1c-.1,0,.4-.3.7-.3Z"/><path class="cls-81" d="M180.6,29.6c.4,1.6.8,3.3,1.1,5a5.8,5.8,0,0,1-1.1-1.8A17.1,17.1,0,0,1,180.6,29.6Z"/><path class="cls-81" d="M178.5,29.8a7.6,7.6,0,0,1,.6-1.6c.2-.3.7-.3,1.1-.4l.3,1.1Z"/><path class="cls-81" d="M177.8,32.8l-1.1.8.9-1.8C177.7,32.1,177.7,32.5,177.8,32.8Z"/><path class="cls-81" d="M177.6,31.8l.9-2.1A1.8,1.8,0,0,1,177.6,31.8Z"/><path class="cls-96" d="M129.6,44.3h-.9c-4.1-.7-7.9,3.1-12.2.9-2,4.7-5.9,1.4-8.9,1.9-1,2.1-1.3,2.3-2.8,1.1s-1.9-1.4-3-.1a2.8,2.8,0,0,1-3.9-.2c-1.2-1.6-.3-3.3.8-4.8a3,3,0,0,1,2.1-.4,12.6,12.6,0,0,0,9.7-.5c3.1-1.4,6.6-.7,9.8-1.6,5.2-.9,10.5,1.7,15.7-.6,1.3-.5,2.5.5,3.3,1.6s3.5,2.5,5.9,2.4a38.4,38.4,0,0,0,4.8,0l1-.4a5.7,5.7,0,0,0,1.1-1.1,2.7,2.7,0,0,1,.8-.7,7.1,7.1,0,0,1,1.4-1l1-.7c2.4-1,4.1-.1,5.1,2.2h0c-.6.3-1.2.8-1.6.6a2.4,2.4,0,0,0-3.3,1c-1,1.7-2.4,2.2-4.2,2.6a11.4,11.4,0,0,1-3.2,0c-.9,0-1,1.7-2.3,1.9s-2.4.6-3.5-.5-1.5-1.6-2.3-1.5c-2.5.2-4.4-1.2-6.5-2.1h-1A2.3,2.3,0,0,1,129.6,44.3Z"/><path class="cls-63" d="M107.6,47.1a5,5,0,0,1,2-.8,12.5,12.5,0,0,0,6.4-1.7,2.8,2.8,0,0,1,1.8,0c1.1.5,2.2.8,3.2.1s3.8-1,5.8-.5a6.1,6.1,0,0,0,1.9.1c-1.1,1.4-2.6.8-4,1s-1.5.4-1.2,1.9a16.2,16.2,0,0,0,.4,1.9c-1.7-.6-3,.1-4.3,1s-.6.1-.9.1-.1-.6.1-.8,1-1,.3-1.6-1.4-.4-1.7-.1c-2.7,2-5.4,1.7-8.1.3Z"/><path class="cls-82" d="M98.9,43.3l-.6,4.1,3.5.7a1.5,1.5,0,0,1,.7,2c-.4.9-1.2.7-2,.7-2.8-.3-3.6-2.4-4.5-4.6h0c.8-1.3-1.7-3,.4-4.1S98.4,42.2,98.9,43.3Z"/><path class="cls-97" d="M103.8,55.6c-.6-1.8.9-3,1-4.6s1.9-1.1,2.9,0l-2.1,4.2a1.3,1.3,0,0,0-.9.5Z"/><path class="cls-63" d="M125.8,49.1V50a9.4,9.4,0,0,1-1,1c-1.5-.3-1.5-.3-.9-1.9Z"/><path class="cls-7" d="M115.2,51h-2.8C113.8,49.8,113.8,49.8,115.2,51Z"/><path class="cls-67" d="M104.7,55.7l.9-.5Z"/><path class="cls-63" d="M129.6,44.3h2.9C131.2,46.2,131,46.2,129.6,44.3Z"/><path class="cls-98" d="M229.9,19.4a77.7,77.7,0,0,1,9.2,3.3l-6.2,3.2c-1.2.6-1.8.3-2-1S230.3,21.5,229.9,19.4Z"/><path class="cls-99" d="M28.8,45.4A7.2,7.2,0,0,0,31.2,44a2.6,2.6,0,0,0,.2-2.1c-.1-.3-1-.4-1.6-.5v-.2c.3-1.8,1.5-2.2,3.1-1.8,1.5,4.4,5.8,2.8,8.8,4.1,1.1,3.1-.6,6.3.7,9.4l-1.9,1-1.2-1.4a3.4,3.4,0,0,1-.6-4.2,1.9,1.9,0,0,0-.1-1,8.7,8.7,0,0,0-2.3-.1c-2.1.1-2.1.1-2.6,2.8h-.9c-.3.4-.7.6-1,1h0C29,50.1,28.4,48,28.8,45.4Z"/><path class="cls-100" d="M28.8,45.4,31.7,51c-.5.5-1,1.2-1.6,1.4a11.3,11.3,0,0,1-3.2.5c-1-.7-1.6-1.7-2.9-2.1a5.7,5.7,0,0,1-3.7-4,4.5,4.5,0,0,0,3.6.1C25.5,46.3,27.2,45.9,28.8,45.4Z"/><path class="cls-100" d="M31.7,51a4.7,4.7,0,0,0,1-1A4.7,4.7,0,0,1,31.7,51Z"/><path class="cls-79" d="M171.9,19.3c-1.4.1-1.9,1-2.1,2.2a2.4,2.4,0,0,1-2.6.1,13.5,13.5,0,0,1-2-4.2h0c-.3-.2-.4-.4-.3-.7s.2-.3.3-.3H168l2.4,1,2.4.9c0,.4.1.7.1,1Z"/><path class="cls-80" d="M173.8,21.2l-.2.4.2-.4Z"/><path class="cls-101" d="M57.6,49.1l-.9-1a.8.8,0,0,1-.4-.8c-4.9,3-5.9-.8-7.2-4s-1.4-5.1-2.5-7.5c2.3-4.1,6.4-6.5,9.8-9.5,1.7-1.6,4.1,0,5.7,1.8a8.3,8.3,0,0,1,.6,2.1c.1,1.2,0,2.5.1,3.7.1,6.2.3,6.4,6.3,7.6,2.8,2,1.7,4.5-.6,4.9S61.5,49.1,57.6,49.1Z"/><path class="cls-102" d="M57.6,49.1c3.1-2,6.2-3.6,10-3.3a2.1,2.1,0,0,0,1.5-.7c.7-.9,1.2-2,0-2.9s.4-1.2.6-1c2.4,1,3.3.1,3.4-2.3a2,2,0,0,1,1.4-1.7,2,2,0,0,1,1.3.1,2.4,2.4,0,0,1,.6,1.1,5.1,5.1,0,0,0,1.3,4.4c.8,1,3.4,2.6-.2,3.5-.4,0-.7-.2-.6-.2s1.3.9,1.7.7c3.9-2.8,9.3-1.1,13.2-4.3a9.3,9.3,0,0,1,5.5-2.7l2,.2c1,.1,2.3-.4,3,.9s.5,2.5-1.5,2.4H98.9l-1.2-.5c-1.1-.3-1.5,0-1.3,1s.7,1.7-.4,2.4-.7-.8-1-.8c-2.4,0-3.7,1.1-4.7,3.7-1.4.8-2.5.9-3.7-.6s-1.4-1.4-2.6-.2-2.5,1.9-4.2,1c-2.5,1-5,.6-7.6.7a5.2,5.2,0,0,0-4.3,2.5,1.9,1.9,0,0,1-2.9.6,2.6,2.6,0,0,0-1.7-.5C60.1,53.5,58.7,51.6,57.6,49.1Z"/><path class="cls-103" d="M49.8,43.1c.5.4.8,1,1.4,1.2s.8,2,.3,3.4c1.5.2,2.7-.6,3.9-1.1s1.1-.5,1.3,1v.5l-1.9,1a2.6,2.6,0,0,1-3.1,1.4c-1.2-.2-1.6.4-1.7,1.4h0c-2.3.4-4.7-.3-6.8,1h-.9c-.8-.1-1.7-.4-1.8-1.3s.2-3.5.3-5.2l.3-3.3.5-.2a2.7,2.7,0,0,1,1.5.5l.9.5a2.6,2.6,0,0,0,1.5.2C47,44,48.3,42.8,49.8,43.1Z"/><path class="cls-99" d="M50,51.9a8,8,0,0,1-.8-1.6,2.5,2.5,0,0,1,.2-1.2c.2,0,.6,0,.7.2,1.7,1.4,3.1.4,4.7-.2l.3,1.7c.2,1.3-.6,2-1.4,1.3A2.9,2.9,0,0,0,50,51.9Z"/><path class="cls-99" d="M43.2,52.9a15.3,15.3,0,0,0,2.7-1.7c.7-.7,1.2-.4,2,0a7.4,7.4,0,0,0,2.1.7C48,53.9,45.6,53.6,43.2,52.9Z"/><path class="cls-104" d="M128.7,12.6c1.6-.1,2.5,1.1,3.5,2.1s1.8,1.8,3.2,1.5.7.4,1,.7c1.6,1.9,2,1.8,2.9-.6.1-.3.3-1,.6-1a2.3,2.3,0,0,1,1.2.6c1.1.9,1,2.2,1.1,3.5h0c-.5.4-.7,1-1.3,1.3l-4.6.8a16.6,16.6,0,0,0-2.7-1.3c-.3-.1-1.1.7-1,1.1a11.1,11.1,0,0,0,1,2.9c-3.2-.1-3.5-2.1-2.8-4.5s.5-2.5-1.2-3a13.5,13.5,0,0,0-17.5,8.8,2.4,2.4,0,0,1-.8.9c-1.8.5-1.5,2.2-2.1,3.4s-1.1,2.1-2.3.6-.6-3.7-.5-5.6-3.7-4-5-1.5c-3.1,6.1-8.4,6-13.8,6.4-3.7.2-5.1-2.9-6.8-5.1s-2.8-2-3.8.3-3.7,4.1-1.6,7a1.7,1.7,0,0,1-.5,1.2c-1.5.4-3.1-.1-4.4.8s1.1,1.6,1.1,2.6a2.9,2.9,0,0,1-.1,1.3l-.8,1-1.1.7a7.5,7.5,0,0,1-1.8.7,2.6,2.6,0,0,1-1.9-.4,4.7,4.7,0,0,1-1-1,3.5,3.5,0,0,1-.5-1.3,36.5,36.5,0,0,1-.3-6.6,9.9,9.9,0,0,1,2.1-6c2-2.3,5.7.4,7.4-2.7.3-1.3.2-2.7,1.3-3.6s2.8-1.3,4.3-.8a2.2,2.2,0,0,0,2.8-.8c1.5-1.7,1.7-1.7,3.5-.4A3.2,3.2,0,0,0,89,17l2.2-.6a6.4,6.4,0,0,1,3.6,1.1c3.4,2.1,4.4,1.9,7.4-.7a13.5,13.5,0,0,1,3.4-1.7c1.1-.5,1.8-.1,1.9,1.2s.7,1.5,1.9,1.2,2.9-1.4,4.8-1.4,2.7-1.6,4.2-2.1a30.4,30.4,0,0,1,6-1.2c.7-.1,1.4.6,2.1.9S128.2,13.4,128.7,12.6Z"/><path class="cls-105" d="M67.2,25a9.1,9.1,0,0,0-1.9,5.7,16.6,16.6,0,0,0-.1,8h0c.4.1.7.5,1,.8h2.1a2,2,0,0,1,1.2-.6c.4.1.6,0,.7-.4a2.7,2.7,0,0,0,.8-.7v-.2c1-1.3.3-1.9-.9-2.3s-2.1-.9-.9-2.2l2.2-.8a2.8,2.8,0,0,1,3.4.7,3.1,3.1,0,0,1-.2,4.7l-.9,4.6-.9,2.6a.8.8,0,0,1-.8.3c-.3,0-.7-.1-.8-.3s-.3-1.6-.5-2.3-1-.9-1.7-.2l-1.4.2c-3.7.9-6.4-2-6.4-5.6s.2-4.4.3-6.6a9,9,0,0,0,.4-2.8l.5-.4,2-4.5a21.4,21.4,0,0,1,2.8-3.2A11.2,11.2,0,0,1,71,17.2c1.4-.5,2.7.4,3.9,1.3s-.1,2.9-.1,4.3a1.4,1.4,0,0,1-1.9.8C70.2,21.5,68.7,23.1,67.2,25Z"/><path class="cls-106" d="M61.4,28l-1.8-.6c-1.7-.6-3.6-1.6-4.1,1.5-.1.3-.6.6-1,.9s-3.1,1.9-4,3.3-2.5,1.3-3.4,2.4-.7.3-.8.1c-.8-2-1.4-2.3-3.4-2-1.3-1.8-1.8-3.8-.3-5.8s6-1.4,8.4-3.4,1.8-2.2,2.8-3.2h0l1-.9c1.6-1.3,3.6-.3,5.4-.8a2.2,2.2,0,0,1,1.1,1.2c.5,2.1.8,4.2,1.2,6.3h0C62.1,27.3,62,27.9,61.4,28Z"/><path class="cls-94" d="M51.9,25.1c-1.2.9-2.1,2.5-4,1.4s-2.1-.3-3,.7-1.1.5-1.7.7-2.4-.4-2-2.2,2.7-2.9,4.9-1.6l1,1,.9-1h0C49.6,23.4,51.2,22.5,51.9,25.1Z"/><path class="cls-87" d="M51.9,25.1c-1-1.4-2.5-.9-3.9-1,.7-.6,1.2-1.4,2-1.7a24,24,0,0,1,3.8-1.2C53.9,22.9,53.6,24.3,51.9,25.1Z"/><path class="cls-87" d="M46.1,24.1c-2-.4-3.3,1.1-4.8,1.9a.6.6,0,0,1-.9,0V24.1a3.3,3.3,0,0,0,1.3-.4C43.8,22.4,43.8,22.3,46.1,24.1Z"/><path class="cls-87" d="M48,24.1l-.9,1Z"/><path class="cls-87" d="M54.8,20.3l-1,.9Z"/><path class="cls-107" d="M111.6,25.9a20.5,20.5,0,0,0-.5-2.4,1.6,1.6,0,0,1,.8-2c.5-.3,1.3-.6,1.5-1,1.6-3.4,5-4.2,7.9-5.5a4.5,4.5,0,0,1,3.2-.3,4.2,4.2,0,0,0,4.7.2,1.3,1.3,0,0,1,1.3.2,10.4,10.4,0,0,1,2.3,2.4c.3.3.1,1.1-.2,1.6s-1.4,1.2-1.4,1.7a5.8,5.8,0,0,0,1.2,2.5c.2.4.8.5,1.2.8a17.1,17.1,0,0,1,1.8,7.7c-1.5-.1-2.8-.3-4.4.8-4.9,3.3-8.6,1.9-10.7-3.6-.3-.9-.3-2.1-1.6-2.1s-1.7,1.2-2,2.3-1,2-2.4,1.8S113.4,27.1,111.6,25.9Z"/><path class="cls-108" d="M116.3,29c-.2-.2-.6-.4-.6-.7s.9-2.3,1.9-2.9a3.1,3.1,0,0,1,3.2.2,1.9,1.9,0,0,1,.6.7,7.7,7.7,0,0,1-.2,1.5,4.7,4.7,0,0,0,3,4.8,6.1,6.1,0,0,0,6.4-1l.6-.7c2.1-2.3,2.1-2.3,3.8.6l.4.3c.3,1.4.7,2.9,1.1,4.4s7.3,4.7,9.6,3.8,5.2-2,4.8-5.5a3.2,3.2,0,0,1,1.8-3,1.3,1.3,0,0,1,1.3.4,10.1,10.1,0,0,1,1.8,5,7.1,7.1,0,0,1-1.2,4.5h0c-.5.5-1.4.4-1.9.9h0c-.6.6-.4,1.4-1,2h0c-1.8,1-4-.8-5.7.9h-2.9c-2.1.2-3.8-.1-4.3-2.6a2.4,2.4,0,0,0-1.3-1.3,2.1,2.1,0,0,0-1.7-.2c-2.2,2.1-5,1.5-7.3,1.1s-5.7-.2-8.4-.8l-.4-.5V39.7c0-.4.1-.8.1-1.2C118.9,35.2,116.5,32.5,116.3,29Z"/><path class="cls-109" d="M151.7,17.4a8.3,8.3,0,0,0,1.6.9c3.4.7,3.7,1.2,2.8,4.5a5,5,0,0,1-.5,1.3c.4.6,0,1-.4,1.4l-.8.6a12.4,12.4,0,0,0-1.4,1.8,1.8,1.8,0,0,1-1.1.4c-3.3-.7-4.9,1-5.6,3.9-.4,1.3-.1,2.9-1.7,3.6-2.5-1.1-.9-3.3-1.4-5,.9-3.8,1.9-7.7,2.8-11.5.9-.7,0-2,.9-2.7l.3-.2h.8C149.5,15.5,151.1,14.9,151.7,17.4Z"/><path class="cls-110" d="M143.2,30.8c.3.9.6,1.7.8,2.5s.1,1.8,1.1,2.2,4.3-.9,6.6-1c.9,2.6.9,2.6-.8,4a40.5,40.5,0,0,1-3.4,2.3c-1.9,1.2-3.2,1.4-5,0s-2.6-1-3.9-1.4a2.7,2.7,0,0,1-2.1-3.2,8.1,8.1,0,0,0,.9,1c1.4,1.2,2.8,1.1,3.4-.3S142.4,32.8,143.2,30.8Z"/><path class="cls-107" d="M136.3,21.4c1.3-1.8,2.8-2.4,4.8-1.1a2.4,2.4,0,0,1,.1,3,18.5,18.5,0,0,1-1.7,7l-.7.2a.8.8,0,0,1-.2-.4c-.6-2.1-1.1-4.3-1.6-6.4S136.5,22.2,136.3,21.4Z"/><path class="cls-86" d="M141.2,23.3c0-1,0-2-.1-3l1.1-1A6.3,6.3,0,0,1,141.2,23.3Z"/><path class="cls-94" d="M146.9,16.6c0,1,.2,2.1-.9,2.7C146,18.3,145.6,17.2,146.9,16.6Z"/><path class="cls-33" d="M143.1,16.4c.3-.6.5-1.2.8-1.9S143.4,15.8,143.1,16.4Z"/><path class="cls-94" d="M151.7,17.4c-.9-1.4-2.4-.8-3.7-1,.2-.6.4-1.4.8-1.6a7.4,7.4,0,0,1,8.7.7c-1.7-.1-3.3-.1-4.5,1.5S152.2,17.3,151.7,17.4Z"/><path class="cls-94" d="M165.2,16.4v1h-3.9l-1.9-1.9h3.7A9.5,9.5,0,0,1,165.2,16.4Z"/><path class="cls-94" d="M159.4,15.5h-1C158.8,14.8,159.1,14.8,159.4,15.5Z"/><path class="cls-34" d="M20.1,46.1l-1.8-.9a25.9,25.9,0,0,0,.9-4,52.3,52.3,0,0,0,0-5.6c.1-3.9.1-7.9.2-11.8a12.6,12.6,0,0,1,.5,2.8C20,33.1,20.1,39.6,20.1,46.1Z"/><path class="cls-111" d="M40.4,26h.9l1.9,1.9a3.8,3.8,0,0,0-.2,3.6,8,8,0,0,1,.3,2.3c1.4,1.7,3.1,3.4,3.3,5.8s-2.5,1.5-4.1,1.4-2.2.2-3.3-.1a1.8,1.8,0,0,1-1.3-1.5c-.2-2.1,3.1-4.8.8-5.8s-3.5,2.6-4.8,4.6a3.3,3.3,0,0,1-1.3,1.3l-2.9,1.7-3-1.1c-1.4-.5-1.9-1.1-1.6-2.2s1.4-3.8,2.2-5.7,1-.6,1.5-.9,1.2-.4,1.6-.9.8-1.9,1.5-2.2a49.1,49.1,0,0,1,5.8-1.6Z"/><path class="cls-112" d="M154.6,41.4l.2-5.1c1.9-1.8.4-4,.6-6s0-4.1,3.1-3.3,3.2,4.3,3.1,7.6c2.8-.7,4.9-7.7,8-.9a3,3,0,0,0,.8.8h.5c1.6.8,2,1.5,1.1,2.2s-3.2,2.1-4.2,3.8-1,.5-1.2.3c-1.9-1.7-3.6-.4-5.2.5a4.3,4.3,0,0,0-1,.9l-.8-.4C158,40.3,156.4,40.1,154.6,41.4Z"/><path class="cls-113" d="M170.2,35.5a1.7,1.7,0,0,1-1.9-1.1,27.6,27.6,0,0,0-.8-2.7,1.2,1.2,0,0,0-1-.6c-.2-.1-.6.2-.7.5a14.2,14.2,0,0,1-.7,2.2,8.4,8.4,0,0,1-2.2,2.4,2.3,2.3,0,0,1-2.1-.2,4.1,4.1,0,0,1-.9-2,1.7,1.7,0,0,1,.5-1.3,1.6,1.6,0,0,0-.2-2.5c-.6-.7-1.1-1.5-1.7-2.3s-.6-2.7.6-3.6,2.6-1.2,3.6.5,2.1,3.1,4.5,2.4,2.3.1,2.6,1.4.8,4,1.1,6h0A2.7,2.7,0,0,0,170.2,35.5Z"/><path class="cls-94" d="M162.8,25.9c-.1-.9-.1-2-1.4-2.1a1.9,1.9,0,0,0-2.1,1.4c-.3.9-.5,1.8-.8,2.7s-1.8-.2-2,1.4-.1,1.2-.1,1.9c-2.7-1.3-2.1-3.8-2.2-6l1.4-1.1c2-.3,3.9-1.3,6-.9a2.1,2.1,0,0,1,1.8,1.9A.8.8,0,0,1,162.8,25.9Z"/><path class="cls-94" d="M160.8,21.4a14.5,14.5,0,0,1-2.5-1.1,1.8,1.8,0,0,1-.5-1.6,1.8,1.8,0,0,1,1.2-1.2c1-.1,2.1-.5,3,.6s1.6,1.3.8,2.3S161.6,21.1,160.8,21.4Z"/><path class="cls-114" d="M162.8,25.9l.6-.8a4.9,4.9,0,0,1,3.8,2.1L165,29a1.8,1.8,0,0,1-2.5-.7A1.4,1.4,0,0,1,162.8,25.9Z"/><path class="cls-94" d="M165.2,17.4a5.4,5.4,0,0,1,1.9,3.8l-.5.4-.5-.4C165.6,20,163.9,19.1,165.2,17.4Z"/><path class="cls-114" d="M169.9,22a2.1,2.1,0,0,1-1.7,2.4c-1.2.4-1.6-.4-2.1-1.3l.9-.7A9.7,9.7,0,0,1,169.9,22Z"/><path class="cls-115" d="M169.9,22c-.8.7-1.5,1.6-2.8,1.1a1.2,1.2,0,0,1,0-1.9h0a2.9,2.9,0,0,1,2.7.3C169.7,21.7,169.7,21.8,169.9,22Z"/><path class="cls-79" d="M167.1,21.2v1.9h-1V21.2Z"/><path class="cls-116" d="M111.6,25.9c1.1-.5,2.2-.4,2.5,1s.2,2.8.3,4.2,2.1,2.7,3.2,4,1.1,3.6-1.3,4.5a.5.5,0,0,0,.4.7,16,16,0,0,1,2.3.3,3.9,3.9,0,0,1,1,.8h.1c-1,1.2-2.3,1-3.5.9s-4.7.1-6.4,1.4-4.1.6-6.1,1.2-2.4-.5-3.3-1.6c1.2-.8,1-1.9.9-3-3-2.1-2.2-5.8-3.7-8.5.6-7.4,3.3-9.6,9.5-7.6v6.6c.6,2.1-1.3,3-2.1,4.5s-1.8,2.4-.6,3.9a2,2,0,0,0,2.5.6,3.3,3.3,0,0,0,2.7-3c.2-2.7-.1-5.4.2-8.1a4.1,4.1,0,0,1,.9-2.6Z"/><path class="cls-112" d="M146,45.2c.4-.9.9-1.6,2.1-1.4l3.6.5a7.2,7.2,0,0,1-2,.9Z"/><path class="cls-112" d="M151.7,44.3c.3-.7.7-1.3,1-2S152,43.6,151.7,44.3Z"/><path class="cls-112" d="M152.7,42.3l1.9-.9Z"/><path class="cls-117" d="M39.4,40.5l2.6-.9c1.7,1.6,1.1,2.6-.8,3.5h-.1a16,16,0,0,1-3,1.3c-2.6.8-4.2-.1-5.1-2.6a10.1,10.1,0,0,1-.4-2.3,28,28,0,0,1,1.3-4.1c.8-1.6,1.8-3.1,3.5-3.7a3.6,3.6,0,0,1,2.3-.1,2,2,0,0,1,1.2,2.3,9.9,9.9,0,0,1-2.5,5.6c-.1.3-.6.7-.2,1.1S39,40.7,39.4,40.5Z"/><path class="cls-118" d="M46.3,39.3c-1.3-1.7-3.5-2.9-3-5.5a27.2,27.2,0,0,1,2.9-3,2.1,2.1,0,0,1,2.9.7c.4.9-.1,1.9-1.3,2.5l-1.2.5.5,1c2.2,2.1,3.7,4.4,2.7,7.6-1.5,1.4-3.1,2.5-5.3,2-.6-.2-1-.5-1.1-1h0c-1.3-1.6-1-2.7,1.1-3.1S46.8,41,46.3,39.3Z"/><path class="cls-86" d="M61.4,28l1.1-1-.9,3.2A16.4,16.4,0,0,0,61.4,28Z"/><path class="cls-119" d="M97.8,40.4a23.6,23.6,0,0,0-6.5,3.8c-2,1.4-4.1,2.5-6.6,1.6a1.8,1.8,0,0,0-2.4.9,3,3,0,0,1-3.8,1.2l-3.9-1.8a.7.7,0,0,1-.2-.8c0-.2.4-.4.7-.3l4.1.8c-1.6-1.5-2.6-2.2-3.4-3.1s-1.4-2.9.1-4.2,1.7-2.8,2.6-4.1a5.9,5.9,0,0,1,3.8-3.1c1.1-.1,2,.7,3,1,4.5,1.6,4.5,1.9-.3,7.1,1.9,1.5,3.8.6,5.6-.2l1.2-.2a11.4,11.4,0,0,0,3.7-.2,2.9,2.9,0,0,1,2.4.4A.8.8,0,0,1,97.8,40.4Z"/><path class="cls-120" d="M95.1,39.5c-1.5,1.2-1.5,1.2-3,0s-1.4-4.7-.5-7.2,4.7-2,7.3-.4A8.6,8.6,0,0,1,101,37c.1,1.1.5,2.2.7,3.3s-1.5,1.8-2.9,1-.4-2.4-1.4-3.3S96,39.1,95.1,39.5Z"/><path class="cls-121" d="M82.7,31.8c-2.7,1.3-4.1,3.3-3.6,6.5a1.5,1.5,0,0,1-.2.9c-.2.3-.5.8-.9.9s-.8-.2-1.2-.5l-.9-1.1v-.9c-.7-3-.2-5.5,2.3-7.4a4.1,4.1,0,0,1,2.1-1C82,29.2,83.6,29.3,82.7,31.8Z"/><path class="cls-122" d="M78.7,30.8c-1.1.8-2.4,1.3-2.3,3.1a16.8,16.8,0,0,1-.6,3.7H74.7l.2-4.7.2-.4C75.8,30.7,76.6,29.3,78.7,30.8Z"/><path class="cls-82" d="M98.1,37.4c.2,1.3.5,2.6.7,3.9l-1-.9a2.7,2.7,0,0,0,0-.9A1.6,1.6,0,0,1,98.1,37.4Z"/><path class="cls-99" d="M46.3,39.3a1.3,1.3,0,0,1,.7,1.9c-.3.8-1,.4-1.6.4s-1.9-.1-2,2.5l-2.2-1c.5-1.1,1.5-2.1.8-3.5l1.6.5A2.1,2.1,0,0,0,46.3,39.3Z"/><path class="cls-99" d="M45.9,48.7c0-.1,0-.3.1-.3h.4a.5.5,0,0,0-.1.3Z"/><path class="cls-99" d="M43.4,44.1l1.1,1Z"/><path class="cls-123" d="M98.9,31.9a3.8,3.8,0,0,0-1.5-.1,11.9,11.9,0,0,1-2.7.7,9.2,9.2,0,0,1-2.6-.7c-.4.7-.8,1.3-1.8,1.2a3.8,3.8,0,0,1-1.7-1.4c-.5-.6-1.1-1.1-1.5-1.7a1,1,0,0,1,.3-1c.9-1.2,2.2-.9,3.5-.9,6-.2,6.1-.1,8.9-5.4.9-1.7,1.7-2.4,3.6-1.7s1.2-.3,1.8-.4c2.7-.3,3.4.7,2.3,3.7h-2.7a4.8,4.8,0,0,0-5,3.5C99.4,29.1,99.2,30.5,98.9,31.9Z"/><path class="cls-66" d="M111.2,26.1c0,3.7.1,7.4,0,11a6.4,6.4,0,0,1-.3,2.8c-.3.5-1.4.5-2.1.7l-1.3.7a2.9,2.9,0,0,1-3.5-.5,3.3,3.3,0,0,1-1-3.5,9.4,9.4,0,0,1,3-4.8l1.6-1.7c1.1-1.6.3-3.4.6-5.1a2.4,2.4,0,0,1,.9-1.5c.9-.4,1.4.3,1.7,1.1Z"/><path class="cls-124" d="M87.4,28.9v.8a2.8,2.8,0,0,1-1.8,1.6H84.3c-1.4-.7-2.2-3.5-4.5-1.4l-1.1.8c-1.6-.4-2.6.8-3.6,1.6s-.2-.7-.5-.9-1.5-.5-1.5-.9a4.5,4.5,0,0,1,.5-2.5c.8-1.5,2.2-2.8,2.8-4.4s.1-2.8,2.3-1.9c.3.1.9-.7,1.5-.9s1.2,0,1.1.8-.4,1.1-.2,1.3a35.4,35.4,0,0,0,3.8,4.7A9.6,9.6,0,0,0,87.4,28.9Z"/><path class="cls-125" d="M67.2,25a7.4,7.4,0,0,1,3.4-4.7c.8-.6,1.6-.2,1.8,1s.3,2.1,2.4,1.5c-.9,2-2.6,2.4-4.5,2.1A6.5,6.5,0,0,0,67.2,25Z"/><path class="cls-126" d="M69.3,32.9c0,.7-.4,1.5.7,1.8s2.1.8,1.1,2.7c-.1-1.3-1.2-1.5-2.1-2.1S68,33.6,69.3,32.9Z"/><path class="cls-126" d="M65.2,38.7c-1.7-2.7-1-5.4.1-8C65.2,33.3,65.2,36,65.2,38.7Z"/><path class="cls-126" d="M69.5,38.7l-1.2.6Z"/><path class="cls-126" d="M66.2,39.4l-1-.8Z"/><path class="cls-126" d="M71,37.6l-.8.7Z"/><path class="cls-127" d="M114.4,40.4c0-2.7,0-2.6,2.2-2.1.4.1,1.1,0,1.2-.3a1.3,1.3,0,0,0,0-1.2,18,18,0,0,0-2-1.9,4,4,0,0,1-1.4-3.8l1.9-2.1a7.1,7.1,0,0,1,1.4-.1c1.5.3,2,1.3.9,2.2s-1.4,1.5-.2,2.5,3,3.2,2.5,5.7c-.1.4-.5.7-.8,1H120a2.8,2.8,0,0,1-1,.9h-3.7A2.4,2.4,0,0,1,114.4,40.4Z"/><path class="cls-128" d="M151.7,34.5l-1.1.8a4.1,4.1,0,0,1-5.5.2c-1-3.1.2-5.6,2.3-7.8s2.1-1.7,4.1-.5a9.4,9.4,0,0,1,1.2.9c1.2,1.2,1,2.5.1,3.8Z"/><path class="cls-129" d="M154.2,25.2a3.2,3.2,0,0,1,1.6,2.3,25.8,25.8,0,0,0,.6,3.7c.2.8.3,1.7.6,2.6s.3,2.4-2.2,2.5c-.5-1.5-.9-2.9-1.4-4.3s-.1-3.3-.2-4.9-.2-1.7,1-2Z"/><path class="cls-130" d="M153.5,26.8c0,1.8,0,3.5-.1,5.2h-.6c0-1.3-.1-2.5-.1-3.8V27C152.9,26.6,153.1,26.6,153.5,26.8Z"/><path class="cls-96" d="M119,41.3l1-.9a1.7,1.7,0,0,1,0,1Z"/><path class="cls-96" d="M120.1,40.3l.8-1Z"/><path class="cls-131" d="M154.5,21.9c-1.1.3-1.1-.9-1.7-1.2s.4-.7.9-.9h.6a1.1,1.1,0,0,1,.7,1A.9.9,0,0,1,154.5,21.9Z"/><path class="cls-94" d="M153.5,26.8a1.2,1.2,0,0,1-.8.2,1.7,1.7,0,0,1,1.5-1.9C154,25.7,153.7,26.3,153.5,26.8Z"/><path class="cls-132" d="M154.5,21.9c.1-.6.1-1.1.2-1.7s.6-.2.9,0S155.5,21.8,154.5,21.9Z"/><path class="cls-94" d="M155.6,20.2h-.9c-.4-.2-.5-.3-.4-.5a.5.5,0,0,1,.4-.3Z"/><path class="cls-132" d="M154.7,19.3a1.4,1.4,0,0,1,0,.9h-1.1a.8.8,0,0,1,0-.9Z"/><path class="cls-94" d="M153.6,19.3a1.4,1.4,0,0,0,0,.9l-.8.5Z"/><path class="cls-133" d="M39.4,40.5a2.5,2.5,0,0,1-2.7,1.2c-.2,0-.5-.3-.6-.5a.7.7,0,0,1,.3-.7,12.4,12.4,0,0,1,2-1A9.4,9.4,0,0,1,39.4,40.5Z"/><path class="cls-96" d="M170.2,35.5l.7-.8Z"/><path class="cls-96" d="M114.4,40.4l.9.8Z"/><path class="cls-134" d="M37.4,36.6l-.4.6c-.1-.2-.4-.4-.3-.6a1,1,0,0,1,.4-.7Z"/><path class="cls-135" d="M89.2,31l1.1,1.8a7.9,7.9,0,0,1,1,6.7c-.6,1.1-1.3,2.2-2.8,2.2s-3.5.2-5-1a2,2,0,0,1-.3-2.5,4.2,4.2,0,0,1,3.1-1.9c1-.2,2-.4,1.6-1.8s-1.1-1.4-2.2-1.1h-.9c-1.4-1.3-.2-1.9.7-2.6h0C86.8,30.2,88,30,89.2,31Z"/><path class="cls-102" d="M98.1,37.4l-.3,2.1H95.1a4.9,4.9,0,0,1,1-3.9c.3-.4.8-.7,1.1-.6a1.4,1.4,0,0,1,.8,1A6.1,6.1,0,0,1,98.1,37.4Z"/><path class="cls-136" d="M91.3,39.5c-.3-2.3-.7-4.5-1-6.7l1.8-1v7.7h-.8Z"/><path class="cls-104" d="M85.5,30.9c-.5.8-1.2,1.5-.7,2.6l-2.1-1.7c-.3-2.1-.3-2.1-2.9-1.8,1.7-1.3,2.1-1.3,3.5-.5Z"/><path class="cls-104" d="M89.2,31H85.5l1.9-1.2Z"/><path class="cls-137" d="M108.2,36.1c-.1,2-.7,3-1.7,3.2H106c-.9-1.3-.2-2.4.5-3.4s.8-.7,1.1-.6S108,35.9,108.2,36.1Z"/><path class="cls-138" d="M148.1,31.9c.2-.9.4-1.9,1.5-1.9s.6,1-.4,2.5-.2.2-.4.2A1.8,1.8,0,0,1,148.1,31.9Z"/><path class="cls-139" d="M148.1,31.9l.7.8-.7.4Z"/><path class="cls-140" d="M87.8,38.9v.3h-.7v-.6Z"/></g></g></svg>