<svg xmlns="http://www.w3.org/2000/svg" viewBox="0 0 170.8 295.7"><defs><style>.cls-1{fill:#fff;}.cls-2{fill:#335899;}.cls-3{fill:#fefefe;}.cls-4{fill:#335898;}.cls-5{fill:#34599a;}.cls-6{fill:#355999;}.cls-7{fill:#345899;}.cls-8{fill:#fdfdfe;}.cls-9{fill:#91b7d2;}.cls-10{fill:#345898;}.cls-11{fill:#c0c2d4;}.cls-12{fill:#f9fafb;}.cls-13{fill:#abcee1;}.cls-14{fill:#3a5c9b;}.cls-15{fill:#45629d;}.cls-16{fill:#4a669f;}.cls-17{fill:#fcfcfd;}.cls-18{fill:#f6f9f9;}.cls-19{fill:#afcddd;}.cls-20{fill:#fafbfc;}</style></defs><title>logo-squarish2</title><g id="Layer_2" data-name="Layer 2"><g id="logosquareish2"><path class="cls-1" d="M106.4,87.7a13.2,13.2,0,0,1-2-1.2,1.4,1.4,0,0,1-.7-1.1c-.4-2,1.5-5.6,3.4-6.3,3.6-1.5,7.1-1.6,9.8,1.7a1.6,1.6,0,0,0,2.1.6l2.8-.4c.3.4.7.9.6,1.3-4.7,12.9-2.6,26.3-3.2,39.5a14.3,14.3,0,0,1-.4,2.2c-.8,3.3-3.6,5.9-2.7,9.9s3.2,7.2,8.3,7.4,8.4-.3,11.3-4.5,4.9-3.8,7.8.2,3.9,4.5,7.7,4.4c8.1-.3,10.3-1.8,11.6-9.9a18.5,18.5,0,0,1,.4-2.3c.4-1.2.5-2.6,1.2-3.6,3.8-5.3,2.5-10.4-.7-15.4-.5-4.9-3.4-8-7.7-10-2.1-5.8-1.4-7.3,4.3-8.7,3.5-.8,2.8-3.2,1.7-5s-2.8-4.7-5.8-4.2-4.9,3.2-5.8,6.1c-1.4,4.7-3.8,8.2-8.8,9.5a2.1,2.1,0,0,1-1.1-.8c-.6-5.6-3.9-9.2-8.8-11.7a9,9,0,0,1-4.2-4.4c.6-.5,1.1-1.3,1.7-1.5a2.1,2.1,0,0,1,1.7.4c1.9,1.5,3.6,3.3,6.3,3.2a1.5,1.5,0,0,1,.8.4c1.5,2.5,4.9,3.1,6,6,.1.3.7.4,1.1.5s.5-.5.5-.7a19.4,19.4,0,0,0,.2-2.4,3.4,3.4,0,0,1,1.4-2.9c2.5-1.7,4.6-3.9,7.5-5.1a7.9,7.9,0,0,1,8.7,2.1c.4.4.5,1.1,1,1.6,3.4,3.1,2.9,6.7,1.5,10.5a2.8,2.8,0,0,1-2.2,2.2l-1.9.4a1.4,1.4,0,0,0-.6,2.5l1.5,1.2c2.3,2.1,4.3,4.3,4.3,7.7a2.8,2.8,0,0,0,1.7,2.7c1.7.8,2.1,2.3,2,4,0,3.3,0,6.7.1,10a5.6,5.6,0,0,1-2,4.7c-1.2,1.1-2.2,2.3-1.2,4.1-.7,2.9-.9,6.1-3.4,8.2a6.7,6.7,0,0,0-1.6,1.8c-1.2,2.9-3.8,3.3-6.3,3.6a25.1,25.1,0,0,1-6.7,0c-2.4-.3-4.7-.9-6.4-2.9a9.6,9.6,0,0,0-2.2-1.8c-1.7-1-2.3-1-3.8.4-5.9,5.3-12.7,5.1-19.7,3.4l-.9-.3c-1.3-.4-1.4-2.5-2.9-2.1s-2.2,1.4-3.3,1.8-4.1,1.7-6.4.7-3.2-2.6-4.1-4.5a6.9,6.9,0,0,0-.5-1.3,1,1,0,0,0-.7-.4.8.8,0,0,0-.7.5c-2.1,5.6-2.1,5.6-7.7,5.6H80.2c-3.6,0-5.3-1.2-6.2-4.7s-1-4.6-1.5-7c-1.7,1.2-1.5,2.8-1.6,4.4s-.7,3.3-3.5,3.4a7.7,7.7,0,0,0-5.5,2.4c-2.5,2.3-5.7,1.8-8.7,1.1-.8-.1-1.5-1.1-2-1.8a14.8,14.8,0,0,1-1.5-3.1c-.4-1-1.1-1.2-1.7-.4s-2.7,2-4.6,1.9H40.1c-2.2.1-3.9-.4-5.2-2.5s-2.3-1.6-3.7.2a7.2,7.2,0,0,0-1.1,1.5c-1.5,3.5-4.6,4.3-7.8,4.6a55.4,55.4,0,0,0-8.1.7,6.3,6.3,0,0,1-5.6-2.1A83.6,83.6,0,0,1,1.8,136,8.3,8.3,0,0,1,0,130.7c.3-2.9.3-6.1,2.7-8.4,2.8.8,3,3,2.8,5.3-.7,4.9,1.5,8.3,5.3,11,1.2,2.9,3.7,2.6,6,2.6,8.8.1,10.8-1.1,11.6-10.4A14,14,0,0,1,29,128a37.8,37.8,0,0,0,3.1-6.4c.5-1.5,1.1-3.1,3.2-2.7s2,2.2,2.2,3.8a14.6,14.6,0,0,1-1.1,6.5c-.8,2.1-.7,3.9,1,5.6s3.4,2.7,5.8,2.5c.6.1.6.1.4-1.4.2-3.3,0-6.7.2-10s.7-4,3.1-4,2.6,1.9,3.1,3.7-.5,6.5,2.6,8.7c1,1.1,1.1,2.6,1.3,4,.4,3,2.5,4,4.9,1.9s3.4-2.6,5.8-2.8,1.5-4,2.9-5.7,3.2-4.8,4.7-7.2a3.2,3.2,0,0,1,3.7-1.6c1.6.4,1.1,1.9,1.4,3.1,1.1,4.2-.3,8.6,1.2,12.7.6,2.2,2,3.1,4.3,2.7a5.7,5.7,0,0,1,1.8-.3c9-.8,9-.8,9-10.1a55.8,55.8,0,0,1,.2-8.2c.4-2.6,1.3-4.8,4.7-3.3a2.4,2.4,0,0,1,.9,1.1c1,2.9.5,5.9.6,8.8s.2,4.1,2.3,5.2a4.4,4.4,0,0,1,.8,1.1c.2.6,0-.2.2.4s-.5,5.5,3.3,5.2,2.3-3.7,2.8-6a6.8,6.8,0,0,1,.2-1.4c.6-4.4-.1-9,2.8-12.9a4.4,4.4,0,0,0,.3-2.8c-1-8.6.7-17.1.2-25.7l.3-1.4a6.4,6.4,0,0,0,.3-4.9,5.6,5.6,0,0,1-.4-1.2c-3.3-3.4-4.4-3.2-5.6.7C107.2,86.4,107.1,87.2,106.4,87.7Z"/><path class="cls-2" d="M70.8,259.4l.2-.2-.2-.3c.9-2.3.1-5,2.1-7h0a4.5,4.5,0,0,1,1.7-4h0c1.6-5.6,5.6-9.4,10-12.8,2.3-1.8,5.1-2.5,7.6-.7s4.3,4,3.3,7.3-1.3,5.3-4.4,5.6-2.5-2.9-3.3-5.1a24.2,24.2,0,0,0-7.7,11.3,54.3,54.3,0,0,0-3.2,21.6c.1,2.6.4,5.2,3.4,6.2s4.2-1.7,6.2-3.2c5.6-4.4,6.1-10.5,7.3-16.7s4-13.1,9.3-18c3.2-3,6.1-2.6,8.7.9,9.8,13.2,6.9,26.5.9,40h.1c-.8,2.3-1.2,4.7-3.9,5.8h0c-4.6,5-11.2,1.1-14.7-3.4a6.7,6.7,0,0,1-1.3-3.4,4,4,0,0,1,.6-2.4c-.9.6-.5,1.9-.9,3-3.8,6.7-9.9,6.6-16.2,5.5s-6.5-5.8-7.5-9.5A28.4,28.4,0,0,1,70.8,259.4Z"/><path class="cls-3" d="M112.7,284.3c.2-.6.2-1.3.4-1.9,3.5-9,3.9-18.3,2.9-27.8a10.5,10.5,0,0,0-3.7-7.5,5.3,5.3,0,0,1-1.4-2.4c-1-2.6-3.5-3.4-5.7-1.9a16.7,16.7,0,0,0-3.7,3.8,37.5,37.5,0,0,0-6.8,15.7c-.6,3.2-.8,6.6-1.2,9.9-.1,1.4-.2,2.5-2,2.6s-2.5,1.3-3.2,2.5-1,2-1.6,3a6.3,6.3,0,0,1-8.7,2,4.2,4.2,0,0,1-1.2-1.5,26.8,26.8,0,0,1-1.3-5.6,60.9,60.9,0,0,1,3.2-21.6A26.5,26.5,0,0,1,88.1,240a2.4,2.4,0,0,1,1.7-.3c.2.1.4.9.4,1.3a12.3,12.3,0,0,1-.2,1.9,9.8,9.8,0,0,0-.6,2.3,1.9,1.9,0,0,0,.9,1.4,1.9,1.9,0,0,0,1.8-.2c2.2-2,3.1-6.7,1.8-9.3a4.9,4.9,0,0,0-6.5-2.3,18.2,18.2,0,0,0-5.8,4,24.5,24.5,0,0,0-5.3,6.7,20.7,20.7,0,0,1-1.7,2.4c-.6-2.3,1.4-4.5.6-7a2.8,2.8,0,0,1,1.1-.5c.6-.1,1.7.1,1.8-.1,1.3-2.8,5.2-3.9,4.8-7.7h4.7c2.8,0,5.5-.2,6.9,3,.2.4,1,.7,1.6.9a2.1,2.1,0,0,1,1.5,2.2v3.3a2.2,2.2,0,0,0,3.5,1.7,5.3,5.3,0,0,0,1.3-1.3,5.1,5.1,0,0,1,6-1.6c1.8.7,3.5.8,4.2,3.2s2,1.8,3.1,2.7c1.7-1.3,1.4-3,1.7-4.4s.7-1.8,2-1.7h1.8c2.9-.3,2.9-.3,3.3,3v.5l-.6.5c-3.1.9-2.9,3.5-2.8,5.8.2,13.1-.8,26.2.9,39.3l-.6.6c-3.9-.4-4.2-.7-4.6-4.9-.1-.9.2-1.9-.9-2.5s-1.8.9-2.7,1.3Z"/><path class="cls-1" d="M43.1,6.8a3.3,3.3,0,0,1,3.5-1.9,2.9,2.9,0,0,0,2.9-1.4C50.7.9,53.2.6,55.5.2s6,.4,8.9,1.1a3.2,3.2,0,0,1,1.4,1.2l3.5,5.1a4.5,4.5,0,0,1,.3,4.6,8.7,8.7,0,0,0,0,7.4c.2.5.4,1.4.1,1.8-1.6,2.9.5,5.6.5,8.4,0,.8.9,1.7,1.6,2.3s2.1,3.4,2.1,5.6c-.1,4.1-.1,8.3,0,12.4,0,2-.3,3.8-1.9,5.2a5.7,5.7,0,0,0-2.1,4.1A4.5,4.5,0,0,1,67.1,63a6.8,6.8,0,0,0-1.7.9c-2.4,3-6,2.5-9.2,3.3-1.5.5-3.1-.1-4.6-.9a5,5,0,0,0-5.4-.1c-1.1.6-2.4.8-3.5,1.4s-4.7.3-6.8-.9c-.3-.2-.3-.9-.5-1.3s.8-1.6,1.6-1.6c4.7.1,8.5-2.8,12.9-3.9a2.9,2.9,0,0,1,1.3.5c4,4.1,7.7,3.6,11.7-.1,6.1-5.8,6.9-12.9,6.8-20.5,0-2.1-1.4-3.1-2.6-4.3a4.1,4.1,0,0,1-.7-1.1c.1-5.2-2.7-7.5-7.6-7.8a1.8,1.8,0,0,1-.8-1.1,4,4,0,0,1,2.7-4.1c4.5-1.6,5.2-4.6,4.7-9-.3-2.4-.3-4.5-2.3-6.3a6.4,6.4,0,0,0-9,0c-3.4,3-5.6,6.5-5,11.2a25.4,25.4,0,0,1,.1,3.9v2.7a27.3,27.3,0,0,0,.3,5.7c.5,1.9,1.2,3.6,3.7,3.3s4.2,1.9,6.2,3.1a4.2,4.2,0,0,1,.8,1.2,17.3,17.3,0,0,1,.5,9.3c-.6,2.4-1.8,3.7-4.2,3.6l-1.4-.2a5,5,0,0,0-3.2.1l-1.3.5c-2.6,3.2-6.1,4-10.1,3.7s-5.3-1.6-5.7-5c-.6-4.9.7-8.1,4.1-8.9s3.4-.7,3.5-3-1.9-2.2-3.3-2.4-3.8-1.6-3.9-4.1c0-4-.4-7.9-.1-11.9.1-2.3.9-3.9,3.4-4.6C44.1,12.8,44.1,12.7,43.1,6.8Z"/><path class="cls-4" d="M109.1,181.6c0-.5.1-1,.1-1.6a55.5,55.5,0,0,0,0-14.1v-.3c1.6-3.3,3.8-3.5,5.8,0s3.9,7.3,4.5,11.5a34.5,34.5,0,0,0,1,5.6h-.1a41.2,41.2,0,0,1,4.7,10.3c-.1-8.9.9-16.7.4-24.6a10,10,0,0,1,1.4-5.9c1.6-2.5,3.6-3.9,6-.7v-.3l-.2.3a4.2,4.2,0,0,1,1.5,4.3c-1.5,14.2-.4,28.4-.7,42.7v.4c-.1,5.2-1.8,8.5-4.6,8.4s-5.7-3.6-6.9-7c-.7-1.6-.7-3.4-1.3-5.1h0c-3.1-3.6-3.7-8.3-5.7-12.3.6,8.1-1.6,15.9-2.4,23.8h.1a2.3,2.3,0,0,1-1.9,1.9h0c-3.7,1.1-5.3-1.3-5-4.1C106.8,203.6,105.9,192.4,109.1,181.6Z"/><path class="cls-1" d="M2.7,117.5a3.2,3.2,0,0,1-1.9-3.1v-9a4.1,4.1,0,0,1,1.2-3c2.1-2.3,2.7-5,2.7-8-.1-1.1,0-2.2-.1-3.3s.5-3.7,2.5-4.7A5.6,5.6,0,0,0,9.3,84a9.4,9.4,0,0,1,4.2-4.4,8.6,8.6,0,0,0,3-3c2.1-3.1,9.4-3.3,11.5-.2s3.1,2.8,4.6,4.2,1.4,1.1,3.3-.4a6,6,0,0,1,2.5-1c1.2-.2,1.7.8,1.8,1.8A2.5,2.5,0,0,1,39,82.3c-1.1.5.1,1.3-.3,2,.2,8.1-.2,16.2-.2,24.3,0,2.9-1.6,4.3-4.5,4.4s-7-.1-10.5.1-4.8,1.8-3.7,5.2,1.8,3.7,2.5,5.7-1,5.2-3.1,6.9-3.9,1.1-5.4-.8a7.7,7.7,0,0,1-.7-1.6c-.4-8-.2-16.1-.1-24.2a4,4,0,0,1,.3-1.5c2-3.3,3.9-6.5,4.4-10.7s3.8-5.3,8-2.9l.9,1c2.2,1.9,3.4.3,4.6-1.2s.9-2.8-.5-4.1-2.1-2.3-3.5-3l-1.1-.7c-1.8-2.9-3.7-3.3-5.6-.2a3.8,3.8,0,0,1-1.1.8C13.8,83,9,88.5,8.2,94.2c-.5,3-.2,6-.7,9a6.5,6.5,0,0,1-.4,1.3c-1.7,2.6-3.4,5.2-2.8,8.7A5,5,0,0,1,2.7,117.5Z"/><path class="cls-3" d="M57.4,213.9c-1,.2-1.9-.1-2-1.4s0-5.4-.1-8.1a14.1,14.1,0,0,0-.1-2.9,2.3,2.3,0,0,0-1-1.4,1.8,1.8,0,0,0-2.3,1.2c-.4,2-1.1,4-.5,6.1s.3,1.2.4,1.8a1.3,1.3,0,0,1-1,1.9c-1.6.3-2.3,1.5-3,2.8a2.5,2.5,0,0,1-2.4,1.3l-7.1-.4a2.3,2.3,0,0,1-1.2-.6,10,10,0,0,0-2.5-2.1c-1.9-.9-2.7-2.2-2.2-4.2s-.3-4.4-.1-6.6,0-4.2,0-6.2-.9-2-2.2-1.1a8.3,8.3,0,0,0-1.5,1.1l-.6-.5c-1-1.8-.3-3.7.2-5.6,2-7.4,3.3-14.9,5-22.4a9.6,9.6,0,0,0,.3-2.9,2.2,2.2,0,0,0-1.4-1.8c-.9-.2-1.4.6-1.8,1.3a28.1,28.1,0,0,0-1.6,6.5c-1.3,7-1.9,14.2-5.7,20.6a1.7,1.7,0,0,1-1.4.1,5.4,5.4,0,0,1-1.9-3.7c-.7-6.6-3.7-12.8-3.8-19.6,0-1.1-.4-2.5-1.7-2.4s-1.6,1.8-1.4,2.9.7,4.8,1.1,7.1.7,3.8-.4,5.6l-.5.4a6.1,6.1,0,0,1-3.4-7.1,12.5,12.5,0,0,0,0-5.1c-.4-2.1-.1-4.3-.1-6.6a15,15,0,0,1,8.7.4,3.3,3.3,0,0,1,2.6,3.5v11.1a4.3,4.3,0,0,0,1.6,3.8,1.3,1.3,0,0,0,1.9-.6,9.9,9.9,0,0,0,.3-2.4c.2-2.7-.4-5.4.6-8a1.7,1.7,0,0,0,0-1c-1.4-2.9.1-4.8,2.1-6.7a13.3,13.3,0,0,0,1.4-1.9c2-2.8,2.6-2.9,6.5-1.5h0l.9,3.5a12.1,12.1,0,0,0,.5,1.8,1.8,1.8,0,0,0,3,.7c.9-1.1,1.7-2.3,3.4-2.1a3.9,3.9,0,0,1-.6,2.8c-5.2,8.5-7.1,18-7.6,27.8a30.9,30.9,0,0,0,3.1,15.8c1,1.9,2.4,3.5,4.7,3.4s3.2-2,4-3.7c5.2-11.3,6.2-23.3,5.3-35.6-.4-5.5-5.1-7.7-8.9-10.5,1.1-1.7,2.8-.9,4.2-1s3.8.1,4.4,2.5a1.5,1.5,0,0,0,.9,1c1.6.4,2.5,1.6,3.4,3s1.2,1,2.6-.2l.7-.6c1.7,1.8,1.5,4.2,1.3,6.3-.9,12-1.8,23.9-1.8,35.9C58.7,211,58.6,212.6,57.4,213.9Z"/><path class="cls-2" d="M155.1,202.1v.2c.1,6.8-3.2,11.1-9.2,13.6-4.5,2-8.2.8-10.2-3.8a18,18,0,0,1-.6-13.1c.7-2.1,2-3.8,4.5-3.6s3.1,2.4,3.3,4.5-.2,3.9.6,5.7c4.8-2.8,4.1-11.4-1.3-15-3.3-2.1-6-4.7-6.2-8.6a32.4,32.4,0,0,1,2.9-15.3c.4-.7,1.2-1.2,1.4-2,1.1-3.7,3.3-6.2,7.5-5.8s6.5,4.6,6.9,9.1a3.3,3.3,0,0,0,.4,1.4v2.3c-1,3.5.1,7.2-1.2,10.7-.9,1.5-2.3,2.3-4,1.4s-1.5-2.3-1.3-3.7a33.5,33.5,0,0,0,.3-10,2.1,2.1,0,0,0-.9-1.5c-4.3,4.3-4.1,11.3.3,14.9a14.5,14.5,0,0,1,3.7,3.7c2.4,2.8,2.5,6.3,2.7,9.8C154.8,198.7,154.4,200.4,155.1,202.1Z"/><path class="cls-3" d="M155.1,169.4a20.2,20.2,0,0,1-.7-2.3,20,20,0,0,0-1-2.6c-1.3-2.5-3.2-4.6-6.2-4.8s-4.6,2-5.9,4.3a28.3,28.3,0,0,0-2.3,5.7,77.8,77.8,0,0,0-1.8,9.4c-.5,4.6,1,8.3,5.5,10.2a6.6,6.6,0,0,1,4.2,4.8,63.3,63.3,0,0,1,1.2,7.6c.2,3.2-1.5,5.4-4.5,6.5-.4.2-1.4-.4-1.4-.7a36.4,36.4,0,0,1-.4-5.7c-.1-1.2.1-2.3,0-3.4a2.6,2.6,0,0,0-4.4-1.5,8.4,8.4,0,0,0-1.4,2.4,22.9,22.9,0,0,0,.5,11.9,8.8,8.8,0,0,0,1.9,3.2,4.3,4.3,0,0,0,4.8,1.4,20.8,20.8,0,0,0,8.5-5.2,9.7,9.7,0,0,0,2.6-5c.2-1.1.5-2.2.8-3.3v.5c.2,7,.2,7-4.2,12a6.4,6.4,0,0,1-1.9,1.3,34.7,34.7,0,0,0-3.3,1.8c-2.5,1.6-4.2,1.6-6.4-.4l-1.4-1.3c-1.6-1.3-3.6-1.5-5.1,0a8.1,8.1,0,0,1-3,2.2c-2,.8-3.5.8-5-1.2s-3.4-1.8-3.9-3.2-.3-4.1-.3-6.2a19.4,19.4,0,0,1,.2-2.4c1,2.2,2,4.3,3.1,6.4a17.7,17.7,0,0,0,2.6,3.9,3.3,3.3,0,0,0,5.6-1.6,25.8,25.8,0,0,0,.3-4.8c0-11-.2-21.9-.1-32.9,0-3.2.5-6.4.6-9.5a44.7,44.7,0,0,0-.1-5.2c1.6-.3,2.9-.3,3.2,1.7a2.6,2.6,0,0,0,.6,1.3c.6.8,2.6.5,2.9-.3a3,3,0,0,0,.2-1,4.8,4.8,0,0,1,1.9-4.1,8.1,8.1,0,0,1,5.8-1.7l2.8.5a2.9,2.9,0,0,1,1.2.7c1.2,1.7,2.4,3.3,3.5,5.1a5.9,5.9,0,0,1,.5,2.7A14.1,14.1,0,0,1,155.1,169.4Z"/><path class="cls-1" d="M9.5,35.6c-1.1-.5-2.1-1.3-1.7-2.5.9-2.8-.2-5.3-.7-7.9a11.5,11.5,0,0,1,.1-6.1,9,9,0,0,0-.1-5.6,19.3,19.3,0,0,1-.4-4.2c-.1-2.2,1.1-3.5,3-4.4a8.9,8.9,0,0,1,7.8.3c1.5.7,2.7,1.9,2.5,3.7a13,13,0,0,0,2.1,7.7,7.4,7.4,0,0,1,.8,4.6c-.3,3.3.8,6.3,1.2,9.4.1.3.7.5,1.1.5s.5-.5.4-.7c-1.2-2.5-.1-5,.4-7.4a10.9,10.9,0,0,0-.8-6.9c-.6-1.2-1.5-2.4-1-4s1.5-4.3,3.2-5.8A7.8,7.8,0,0,1,30.8,5c1.2-.2,1.6.8,1.8,1.8-1.4,1.1-2.8,2-2.9,3.9s-.3.8-.4,1.2a4.4,4.4,0,0,0,.3,3l.3,1.4c.2,3.9.1,7.7.1,11.6a20,20,0,0,1-.4,2.4c-2.9,5.7-3.2,11.9-3.4,18.1,0,3.1-.7,5.7-4.7,5.7s-4.7-2.6-4.6-5.8c.2-5.1-.5-10.3,1.8-15.4s.4-8.6-.6-12.7c-.6-2.6-1-5.3-1.7-7.9S15.5,8.2,13,8.6s-1.5,2.5-1.7,4c-1.1,6,.6,12.1-.5,18.1C10.5,32.4,11,34.3,9.5,35.6Z"/><path class="cls-3" d="M28.8,11.7c.1-1.1.4-2.1.4-3.2s.7-1.8,2-1.7a6.5,6.5,0,0,0,1.4,0H43.1A2.8,2.8,0,0,1,45,9.4a13.5,13.5,0,0,1-.7,4.1,3.2,3.2,0,0,1-3.1,1.9c-1.1.1-2.2,0-3.3.2a2.1,2.1,0,0,0-1.3,1.3,15.9,15.9,0,0,0-.6,3.7c.1,3.7.3,7.3.5,11a2,2,0,0,0,2,2l3.9.2A1.7,1.7,0,0,1,44,35.7c0,.7-.3,1.3-.3,1.9-.3,3.5-.3,3.5-3.8,3.8a5.9,5.9,0,0,0-1.9.1c-.5.2-1.3.7-1.3,1.1-.3,2.8-1.3,5.6-.3,8.5a2.3,2.3,0,0,0,2.4,1.8c1.7,0,3.5-.1,5.3,0s3.8-.1,4.1-2.7c.1-.4.9-.9,1.5-1a8.8,8.8,0,0,1,2.3,0c-1.2,3.7-.4,7.5-1.1,11.2a39.5,39.5,0,0,0-5.1,2.3,10.3,10.3,0,0,1-6.3,1.8,21.7,21.7,0,0,0-4.1.9H32.6c-4.4,1.2-5.2-3.4-8-4.8a8.3,8.3,0,0,1-.4-1.5c0-2.7-1.7-3.6-4-3.9S16,53.5,16,50.8c-.3-12.4-.5-24.9.1-37.3a3.9,3.9,0,0,1,.5-1.4l.7-.5a6,6,0,0,1,.8,2.1c.1,2,0,4.1,1.4,5.9s.5,2.1.6,3.2-.1,4.7.7,7.1a4.3,4.3,0,0,1-1.2,4.8,4,4,0,0,0-1.4,3.4c0,4.1-.1,8.2,0,12.4,0,1.8.6,2.3,2.3,2.4h2.4c1,0,2-.6,1.9-1.6-.4-3.7,1-7.2.3-10.9a5,5,0,0,1,.3-2.7c1-2.6,2.2-5.2,3.3-7.7,2.2,3,1.5,6.5.9,9.7a57.8,57.8,0,0,0,.5,18.1c.4,2.6,1.4,4.9,4.4,4.7s6.9-.5,9-3.5-.2-2.6-1.7-2.4c-3.8.3-7.1.9-8-4.7-1.2-8.6-1.1-10.1,4.5-13.7.4-.2.7-.6.7-1.5-5.1-.3-5.3-3.8-5.4-7.9,0-2.5-.4-5.1-.4-7.7,0-6.1,0-6.1,6.1-8,1.1-.3,2.4-.6,2.4-1.9s-1.6-1.7-2.8-1.9C35.2,8.8,32.3,11.6,28.8,11.7Z"/><path class="cls-3" d="M82.3,214.3c-1.3,1.5-3.8,1.7-4.4,4,0,.3-1,.5-1.6.5s-1.6-.5-2.3-.3-2.8.5-3.7-1.5-2.1-1.7-3.6-1.8L62,215c1.2-14.6.3-29.2.6-43.8,0-2.3.5-5.1-3.3-4.8-.5-5.4.5-5,4.9-4.9,2.1,0,2.6.5,2.6,2.5s.1,4.2,0,6.3a4.1,4.1,0,0,1-.4,2.3c-2.5,2.7-.8,5.5.2,8s1.2,3.1.4,4.9a11.4,11.4,0,0,0-.7,3.2,5.4,5.4,0,0,0-.1,2.8,6.9,6.9,0,0,1,0,5.1,3,3,0,0,0,3.5,3.7l2.8-.4a1.8,1.8,0,0,1,1.9,1.1,20.1,20.1,0,0,0,1.4,2.5,1.3,1.3,0,0,0,2.3-.4c1.6-3.9.9-7.8.1-11.7-1.4-1.5-2.6-3.2-4.8-3.6a1.7,1.7,0,0,1-1.6-1.4c-.5-1.9-1.3-3.6-1.1-5.6s-.2-5.2.1-7.7.2-6.1,3-8.2c.4-.3.5-1.1.8-1.7s.5-1.3,1-1.4,3.3-1.2,3.4-3.4a1.9,1.9,0,0,1,1.1-.4,24.5,24.5,0,0,0,2.7.2c2.5-.2,2.5-.3,3.3,2.1a3.4,3.4,0,0,0,.1,1l-.6.4c-7.1.1-9.7,5.3-11.6,10.9s-1.8,10.8,3.9,14.8,6.1,12.5,3.4,17.5-6.4,5.3-9.8,1.3c-1.8-2.2-2.7-1-3.3.7-1.4,3.9,2.2,8,6.6,7.6,2.3-.2,4.5-1.6,7-.7Z"/><path class="cls-5" d="M93.8,210.1V192.5c.7-8.4.4-16.8.9-25.2.1-1.8.4-3.6,2.3-4.4s3.4-.6,4.3,1.5h0c3,5.8,2.1,12.2,1.4,18.2-1,7.9-.5,15.7-.8,23.6-.1,1.4.4,2.9-.6,4.2h.1c-.9,1.3-.1,2.8-.9,4.1s-1.2,3.2-3.2,3.1-2.9-1.7-3.1-3.6S94.5,211.3,93.8,210.1Z"/><path class="cls-3" d="M98.8,120.3c-2.9-.8-3.8-.4-3.9,2.1s-.1,7.6,0,11.4a27.5,27.5,0,0,1-1,7,1.9,1.9,0,0,1-2,1.6,19.3,19.3,0,0,1-3.4,0,10.3,10.3,0,0,0-6,.5c-1.5.6-2.7-.3-4-.8s-.7-.7-.8-1.1a19.3,19.3,0,0,1-.1-2.4h.7c4.7,1.5,5.6,1,5.6-3.6q.1-21.3,0-42.6a14.3,14.3,0,0,0-.3-2.9c-.6-1.8-.2-4.7-2.8-4.9s-3.2,2.3-4.4,3.9-.9,6.5-4.5,7.9c-2.3-5.9-.2-12.4,5-15.2,1.2-.6,2.4-1,3.6-.1h1.9c4.7-2,6.2,2.4,9,4.3A40.9,40.9,0,0,1,91,95.8c-1.4,10.4-1.7,21-2.3,31.5-.2,3-.2,6.3,2.3,8.9,2-1.6,1.5-3.7,1.5-5.5.1-7,0-14,0-21,.1-1.8,0-3.5.8-5.2a1.6,1.6,0,0,1,1.4-.8C98.5,108.6,100.6,114,98.8,120.3Z"/><path class="cls-6" d="M59.3,166.4l.2-.4c.7-1.3,1.2-2.9,3.1-2.3s1.7,2.1,1.7,3.5,0,4.5,0,6.7L64,204.1c0,1.9-.1,3.8-.1,5.7A6.9,6.9,0,0,1,62,215h0c-1.9,1.3-3.3.2-4.6-1.1h0a23.4,23.4,0,0,1-.3-3.8c.5-11.4,1.1-22.9,1.7-34.3.2-2.9.3-5.7.4-8.6A.8.8,0,0,0,59.3,166.4Z"/><path class="cls-1" d="M80.5,81c-3.6.2-5.5,3-7.2,5.4s-1.1,4.2-1.4,6.3a16.3,16.3,0,0,0,.1,3.8,1,1,0,0,0-.4.5c-2.7,1.7-1.5,4.5-1.9,6.9s-.3,4.7-.8,7l-.6,1.2c-2.5,2.3-2.7,5.3-2.9,8.3a22.4,22.4,0,0,1-.4,5.2,5.7,5.7,0,0,1-.8,1.3c-4.2,1.6-7.3.1-8.5-4.5-.8-3-1-6.1-2.5-9s1.8-4.8,2.8-7.3c3.5-1.4,3-4.7,3.6-7.5a3.4,3.4,0,0,1,1.7-2.2c2.4,1.4,2.9,3.4,2.1,6.1s-1,3.7-2.3,5.1-3.4,5.7-1.8,9.2c.1.4.1.9.2,1.4s1.2,2,1.9,1.7a1.8,1.8,0,0,0,.8-2.1,14,14,0,0,1,2.1-7.7,8.4,8.4,0,0,0,.8-3.1q.2-3.1,0-6.3c0-2.7.6-5,3.2-6.4A3.2,3.2,0,0,0,69.9,91a12.1,12.1,0,0,0,0-1.9,6.6,6.6,0,0,1,2.5-6.3,5.2,5.2,0,0,0,1.4-1.9A3.3,3.3,0,0,1,77,79.1,3.2,3.2,0,0,1,80.5,81Z"/><path class="cls-3" d="M38.3,82l1.9-1H51.7c6.1-.9,10.4,4.4,8.6,10.7-1.9,0-2.5-1.6-3.5-2.8a18.4,18.4,0,0,0-4.5-4.3C46.2,81,40.9,84,40.6,90.9c-.6,13.7-2.3,27.3-2,41.1a6.1,6.1,0,0,1-.8,3.2l-.5.6-1.6-1.2c-1.6-1.2-2.1-2.5-1-4.5a14,14,0,0,0,1.5-9.2c-.1-.5-.8-1.2-1.2-1.2a1.7,1.7,0,0,0-1.3,1c-.8,2.8-1.6,5.5-4,7.4l-.5-.4c-1.2-3.7-1.5-7.1,2-9.9,1.7-1.4,1-2.5-1-2.8a12.8,12.8,0,0,0-4.3.4c-4.6.9-4.6.9-2,4.6s-1,12.8-4.8,14.1-4.6-.7-4.8-4.1a12.2,12.2,0,0,0,1.7.7,2.5,2.5,0,0,0,3.3-1.2,17.1,17.1,0,0,1,2-2.7,1.5,1.5,0,0,0,.1-2.1c-1.8-1.5-1.7-4-2.8-5.9s-.4-4.6.6-7.1H35.4a1.9,1.9,0,0,0,1.8-1.8c.1-1,.1-2,.1-2.9,0-3.4.2-6.7-.1-10.1s1.1-8.1.2-12.3c-.2-.7.5-1.7.9-2.6Z"/><path class="cls-3" d="M86.2,161.3l4,.3c-.6,4.1,0,8,.2,11.8a24.9,24.9,0,0,1-.8,6.1c-.1.4-.9.9-1.4,1s-3,.7-2.9,2.6,1.6,1.8,2.7,2.2,1.3,1.2,1.4,2.4a91.9,91.9,0,0,1,.5,12.8c0,2.3.2,4.5-.6,6.7s.2,1.8.2,2.7a1.9,1.9,0,0,1-.5,1.2c-1.7.4-2.7,1.7-4,2.5a7.7,7.7,0,0,1-2.7.7L82,214c-.1-1.4.8-2.4,1.5-3.4,6.9-10,5.1-20.9-4.5-28a5.8,5.8,0,0,1-2.7-5.3,23.3,23.3,0,0,1,3.3-9.9c.7-1.3,1.7-2.5,3.4-2.2s2,1.9,2.2,3.3,0,5.1.5,8.6c2.1-5.8.2-10.8.4-15.7Z"/><path class="cls-3" d="M142.7,294c-.4-.1-1.1-.2-1.3-.5-1.2-2.1-2.1-4.3-1.2-6.8a14.2,14.2,0,0,0,0-8.4c-.3-1.4-.2-2.9-.4-4.3a4.9,4.9,0,0,0-.8-2.1,1.8,1.8,0,0,0-1.6-.2c-.4.1-.7.7-.9,1.1a3,3,0,0,1-3.3,2h-1c-5.5,1.7-5.5,2-3.7,6.5,1.1,2.7.5,4.9-.8,7.2a3.2,3.2,0,0,1-3.2,1.6l-.4-.5c2.2-7.4-.3-14.8,0-22.2a35.7,35.7,0,0,1,.3-5.7c.1-1,.3-2.1,1.5-2.2s1.6.9,2.1,1.7a36.8,36.8,0,0,1,1.5,3.5c.7,1.9,1,4.5,3.4,4.7s3.4-2.5,4.5-4.4a19.9,19.9,0,0,1,2.3-3.6c1.4-1.6,2.4-1.2,3,.7a12.4,12.4,0,0,1,.4,3.3c0,9.3.1,18.5,0,27.8A4.3,4.3,0,0,1,142.7,294Z"/><path class="cls-3" d="M93.7,282.6a21.1,21.1,0,0,0,1.7,3.8c3.3,4.9,7.7,6,13.5,3.6a5.9,5.9,0,0,1,.2,1.4c-.2,2.1-.8,2.7-2.6,2.6s-3.6-.9-5.6-.2-2.3.1-3.4-2.1a3.1,3.1,0,0,0-1-1.5,11.9,11.9,0,0,1-3.6-3.1,1.4,1.4,0,0,0-2.4.5c-.8,2.2-2.6,2.5-4.4,2.5H72.7c-1.3,0-2-.6-1.8-1.7.5-2.9-.8-4.9-2.7-6.7a3.3,3.3,0,0,1-1.3-2.9c0-4.3-.1-8.6,0-13,.1-1.4.7-2.7.9-4.1s1.4-2.3,3-2.3l-1.5,13.3a19.8,19.8,0,0,0,1.8,10.7,8.9,8.9,0,0,0,8.5,5.8H81c5.3.4,9-1.6,11-6.6C92.5,281.9,93.1,281.9,93.7,282.6Z"/><path class="cls-3" d="M147.6,236.4c1.6-.1,2.8.3,2.8,2.3s1.1,2.3.5,3.6a2.2,2.2,0,0,0,.2,1.8c1.4,1.6,1.2,3.5,1.2,5.4a71.3,71.3,0,0,1-1.7,18.4,23.6,23.6,0,0,0-.2,3.8v19.5c-.1,2.2-.1,2.2-2.7,2.8l-.6-.5c.2-12-.8-24,.8-36,.9-6.9-1-13.8-.7-20.7Z"/><path class="cls-3" d="M9.5,35.6c.2-3.6-.5-7.3.8-10.8.3-.8-.3-1.9-.4-2.8s-.6-4.1-.2-6.1.1-5.8.7-8.8c2.2-.9,4,.3,5.9,1a2.4,2.4,0,0,1,.8,1.6,11.1,11.1,0,0,1,.2,1.9l-.3.2c-2.8.2-4.3,1.6-4.2,4.6.4,12.4-1.6,24.8-1,37.2.3,6.5,1.5,7.6,7.8,6.4,1.7-.3,3.4-.9,5.1.3l.2.4c.3,3.7-1.8,5-5.2,5H15.9c-7.4-.1-9-2.6-6.4-10Z"/><path class="cls-3" d="M127.5,81a3.7,3.7,0,0,1,2.4,1.4,15.5,15.5,0,0,0,4.1,3,25.4,25.4,0,0,1,5.6,4.7,7.1,7.1,0,0,1,1.3,3.5,24.1,24.1,0,0,1,0,3.8c-3-.4-3.3-3.2-4.5-5.1-2.4-3.5-5.3-5.9-9.7-6.1-2.7,0-4.4,1-4.5,3.8-.3,9-1.9,17.8-2,26.8-.1,2,.7,4.6-2.1,5.7-.1-6.9-.5-13.9.2-20.8.2-1.7-.3-3.4-.3-5.2s-.4-2.8.9-4,.8-2.1.1-3.3-1.4-2.8.8-4.2a4.2,4.2,0,0,0,2-4Z"/><path class="cls-1" d="M91.1,85c-1.6-.3-3.3.2-4.2-2.1s-2.7-2-4.5-1.9c1.5-2.8,4.1-2.2,6.3-1.5a17.9,17.9,0,0,0,3.5.9c2.8.3,5.2,2.1,7.7,3.4a4.1,4.1,0,0,1,1.6,2.7,52.5,52.5,0,0,1,1.2,6.2l3.6-2.1a3,3,0,0,1,1.1,2.6c-.1.5-.1,1-.2,1.5-1.7,6.3-1.8,6.3-8.2,2.5a5.3,5.3,0,0,1-.9-1.1c-1.4-2.8.9-6.6-2.2-9l-1-.6-1-.5-.9-.5-1.4-.4Z"/><path class="cls-3" d="M132.9,161.7l-.9-.3c-2.7-.7-4.2-.1-4.6,2.4a54,54,0,0,0-1.1,9c-.2,6.5-.1,13.1-.1,19.6a17.1,17.1,0,0,1-.3,3.8c-2.1-2.5-4.4-8.2-5.5-13.6,1.2.3,1.6,2.4,3.2,1.5s.7-2.3.8-3.5c.2-2.8-.4-5.7.8-8.4a4.1,4.1,0,0,0-.2-1.9c-.1-.8-.4-1.5-.5-2.3-.5-4.7-.2-5.3,3.4-8.5.8-.7,1.5-2,2.7-1.5A3.3,3.3,0,0,1,132.9,161.7Z"/><path class="cls-1" d="M9.5,55.8c.3,2.8.6,5.5.9,8.6h9.4a8.3,8.3,0,0,0,3.2-.3c.6-.3.6-1.6,1-2.4s.6-.7.9-1,2.9-.2,3.3,1.1,2.6,2.8,4.4,3.6c-.9,1.7-1.8,2.4-2.7,1.7s-4.6-.7-7.1-.3-7.4,1.8-11.2.6-4.3-1.9-4.8-4.2S6,58,8.7,56.3Z"/><path class="cls-3" d="M101.3,210.4c.1-9.3.3-18.6.3-27.8,0-6.1-.2-12.2-.3-18.2,2.2.9,3,2.5,3,4.8.2,3.9,1.3,7.7,1.1,11.6a12.3,12.3,0,0,0,.8,3.7c-2.9.4-3.9,2.2-3.8,5V207C102.4,208.2,102.6,209.5,101.3,210.4Z"/><path class="cls-3" d="M124.5,244c4,.8,5.6,3.8,6.7,7.2a15.8,15.8,0,0,0,1.4,3.6,2.6,2.6,0,0,0,2,.5,1.5,1.5,0,0,0,1.2-1.2c.3-2.7.1-5.4,1.1-8,.2-.4.2-1.2.5-1.3,2.8-.9,2.2-3.5,2.9-5.4s1.4-2.9,3.3-3.1l.4.5c-2.2,6.8-3.5,14-6.6,20.5-.9,1.7-1.5,4-3.6,4.1s-2.7-2.5-3.4-4.2-3.1-5.8-4.8-8.7c-.8-1.3-2.2-2.4-1.3-4.3Z"/><path class="cls-3" d="M112.7,217c.5-8.6.9-17.2,1.4-25.8a3.4,3.4,0,0,1,.2-1.4c0-.2.3-.6.5-.6a1,1,0,0,1,.7.4c1.8,5.3,3.6,10.6,5.3,15.9l-2.1-.9c-1.8-1.1-1.8-1.2-2,1.2a3.1,3.1,0,0,1-1.3,2.4c-1.3.7-1.5,1.8-1.5,3.2a24.4,24.4,0,0,1-.1,3.8A5.8,5.8,0,0,1,112.7,217Z"/><path class="cls-3" d="M2.7,117.5l.3-3.3c.1-.4.5-1,.4-1.3-1.8-4,.9-6.3,3.3-8.8,1.8,2.3,1.2,4.9.8,7.3-.8,5.3-.5,10.5-.4,15.7s2.2,7.3,3.5,10.8l-.3.8c-1.9,0-3.4-.5-3.8-2.7a2.3,2.3,0,0,0-.6-1.3c-2.6-1.6-2-4.3-1.6-6.3s-.3-4.3-1.6-6.1Z"/><path class="cls-3" d="M109.1,181.6c0,1.6,0,3.2-.1,4.7-.7,8.4-1.5,16.8-2.2,25.2a14.2,14.2,0,0,0-.2,2.9c0,2.9.8,3.6,4.3,4.4-.3.3-.6,1-.9,1-2.8,0-4.6-1.5-4.7-4.2s0-5.4,0-8.1.5-5.3,0-8a3,3,0,0,1,.1-2.3,4.3,4.3,0,0,0,.4-4.8,4.4,4.4,0,0,1-.1-3.2,25.9,25.9,0,0,0,.5-4.7,2,2,0,0,0,2-1.5C108.3,182.5,108.8,182.1,109.1,181.6Z"/><path class="cls-3" d="M24.6,214.2c.3,2.5-.2,4.5-2.9,5.3a6,6,0,0,1-2.3.2,22.9,22.9,0,0,1-2.8-.7c-2.6-.5-4-2.1-3.3-4.6a11.1,11.1,0,0,0-.1-6.5,16,16,0,0,1-.1-3.8c0-7.8-.1-15.6-.1-23.4h.2c2.5.7,2.2,2.9,2.1,4.6-.2,7.3,1.5,14.6,1.1,21.9a16.3,16.3,0,0,0,.5,4.3c1.1,5.2,2.4,5.7,7,2.7Z"/><path class="cls-1" d="M60.1,91.9c.5-2.3-.7-4.3-1.2-6.4-2.2-.8-2.7-3.8-5.4-4.1a5.8,5.8,0,0,1-1.8-.4c.1-.8.4-1.6,1.3-1.8a12.2,12.2,0,0,1,3.3,0,3.7,3.7,0,0,1,2,.9c.7.6,1.2,1.6,1.9,2.1,3.9,2.6,3.6,6.4,2.9,10.2-.2.8-1.2,1.4-1.8,2a2.4,2.4,0,0,1-1.1-1.3A1.7,1.7,0,0,1,60.1,91.9Z"/><path class="cls-3" d="M120.5,182.7c-.9-2.7-1.9-5.3-2.8-8.1a30.8,30.8,0,0,0-4-9.1,9.4,9.4,0,0,0-.9-1.2c-.8-.9-1.7-.9-2.8.2a10.5,10.5,0,0,0-.8,1.1c.1-4.4.6-4.8,4.6-3.4a3.7,3.7,0,0,1,2.8,3,11.5,11.5,0,0,0,2.9,6.3,5.5,5.5,0,0,1,1.1,3.1C120.7,177.3,120.5,180,120.5,182.7Z"/><path class="cls-3" d="M55.6,282.5c2.9,1.3,3.2,2,1.7,4.3s-2.1,4-4.6,4.5l-.5.2c-1.6,4-4.9,2-7.9,2.5-.1-4.2-1.6-7.9,1.1-11.5l2.4.3a.3.3,0,0,1,.1.2,3.5,3.5,0,0,1-.3,1.4c-.8,1.8-2.5,4,.6,5a4.6,4.6,0,0,0,5.8-2.9c.4-1.2.2-2.7,1-3.8Z"/><path class="cls-3" d="M101.3,164.4a7.8,7.8,0,0,0-2-1.1,2.8,2.8,0,0,0-3.6,2.3c-.1.8-.1,1.6-.2,2.4-.3,6.6-.6,13.2-1,19.8a38.1,38.1,0,0,1-.7,4.7c0-8.3-.1-16.7,0-25a30.3,30.3,0,0,1,.9-5.1h0c1.9-.2,3.6-1.4,5.6-.9a2.6,2.6,0,0,1,1.4,1.1C101.9,163.1,101.5,163.8,101.3,164.4Z"/><path class="cls-3" d="M59.2,153.7a9.7,9.7,0,0,0,.2-1.2,3.3,3.3,0,0,1,4.3-2.5,3.8,3.8,0,0,1,2.9,4.2c-.4,3.4-1.4,4-4.7,2.9l-.8-.4C59.7,156.5,59.1,155.8,59.2,153.7Z"/><path class="cls-3" d="M95.2,150.4c.4,0,1-.2,1.3,0s2.9-.9,3.5.4a15.8,15.8,0,0,1,1.2,5.4c.1.4-.7,1.1-1.2,1.2a14.8,14.8,0,0,1-4.2,0,2.2,2.2,0,0,1-1.8-2.8A38.6,38.6,0,0,1,95.2,150.4Z"/><path class="cls-3" d="M28.6,195.1c-.1,4.3-.1,8.5-.1,12.8,0,1.6-.1,3-2,3.8s-1.3,1.7-1.9,2.5h-.1c-2.3-5.6,1.1-10.7,1.6-16,.1-1.3.4-3,2.3-3.1Z"/><path class="cls-3" d="M106.5,93.7c0-1-.1-2.1-.2-3.1a28.1,28.1,0,0,0,.1-2.9,35.4,35.4,0,0,1,.2-4.6,2.2,2.2,0,0,1,2.8-1.9,11.5,11.5,0,0,1,1.7.6c2.9.8,2.9.8,2.8,4.1-3.6-.7-5.6.6-5.5,4.6C108.5,91.8,108.5,93.4,106.5,93.7Z"/><path class="cls-3" d="M155.1,202.1a26.1,26.1,0,0,1-.6-2.7,28.3,28.3,0,0,0-3.2-12.1c-.8-1.6-1.1-2.9,1.3-3.3l.7.5c-.6,1-.8,2.2.2,3s1.7,3.2,1.7,5.2S155.1,199,155.1,202.1Z"/><path class="cls-3" d="M93.8,210.1l.9,3.2a9.4,9.4,0,0,0,.7,2.2,1.9,1.9,0,0,0,2.2,1.3,2.6,2.6,0,0,0,1.8-1.2,21.7,21.7,0,0,0,1.2-3.6,13,13,0,0,1,.8-1.7,12,12,0,0,1-.1,3.3,10.5,10.5,0,0,1-1.9,3.8,2.7,2.7,0,0,1-3.4.8c-1.2-.6-2.2-1.3-2.2-2.8Z"/><path class="cls-3" d="M47.6,282.4c.1-.9.1-1.9.2-2.7a12,12,0,0,1,7.5,0c0,.8.1,1.8.1,2.7l-.3.3c-2.4,0-4.8.7-7.3,0Z"/><path class="cls-3" d="M153.2,182.3c.6-3.5,1.2-7.1,1.9-10.6,0,3.5,0,7,.1,10.5a2.1,2.1,0,0,1-1.9,2.3h0A1.7,1.7,0,0,1,153.2,182.3Z"/><path class="cls-3" d="M109.2,165.9a33.5,33.5,0,0,1,0,14.1Z"/><path class="cls-3" d="M143.6,236.3c.2-.5.2-1.3.6-1.7s1.4-1.4,2.1-1.3,1.1,1.2,1.2,2.1a3.4,3.4,0,0,0,.1,1l-.3.3a2.7,2.7,0,0,1-3.5-.2Z"/><path class="cls-3" d="M108.9,290l3.9-5.8c-.1,1.1-.1,2.1-.3,3.2S112.1,289.9,108.9,290Z"/><path class="cls-3" d="M72.9,251.9l-2.1,7c0-1.9-.1-3.7,0-5.6S71.9,251.9,72.9,251.9Z"/><path class="cls-3" d="M74.6,247.9c-.6,1.4-1.2,2.7-1.7,4C71.5,249.1,71.6,248.7,74.6,247.9Z"/><path class="cls-3" d="M147.5,294a4.3,4.3,0,0,1-1,.9c-2,1.1-2.1,1.1-3.8-.9l.2-.2a3.3,3.3,0,0,1,4.4,0Z"/><path class="cls-3" d="M60.3,92.5c.3.7.7,1.3,1,1.9v2l-.9,2-.6-.6A4.7,4.7,0,0,1,60.3,92.5Z"/><path class="cls-3" d="M57.4,214a6.8,6.8,0,0,0,4.6,1.1C59.7,216.7,58.9,216.5,57.4,214Z"/><path class="cls-3" d="M124.5,290.2c-1.5,1.1-1.5,1.1-2.9,0l.2-.3a1.8,1.8,0,0,1,2.5.1Z"/><path class="cls-3" d="M110.9,218.8l1.9-1.9C112.6,218.7,112.6,218.7,110.9,218.8Z"/><polygon class="cls-3" points="44.8 283.4 44.4 283.2 44.6 283 44.8 283.4"/><path class="cls-3" d="M94.7,162.4l-.4-.2.4.2Z"/><path class="cls-3" d="M35.2,158.6l.2-.4-.2.4Z"/><path class="cls-7" d="M106.5,93.7c.3-1.2.6-2.4.8-3.7a26.4,26.4,0,0,1,.2-2.8c.7-3.1,3-3.8,5.7-1.9l.7.6h0a4.2,4.2,0,0,1,.1,4.7h0c-.4,8.7-1,17.3-1.7,26-.5,6.1-1.7,12.1-2.1,18.3a.5.5,0,0,0,0,.7c-.6,2-.3,4.7-3.4,4.9s-3.5-2.6-4.2-4.7h0c-3.8-4.5-2.7-10.2-3.8-15.4h0c-.2-5.7-2.1-10.9-3.9-16.2a1.7,1.7,0,0,1-.4-1.6c-.1.5,0,1.1-.5,1.6-.1,8.4-.1,16.9-.2,25.4,0,1.9.2,3.8.1,5.7a5.9,5.9,0,0,1-.5,2.3,2.8,2.8,0,0,1-4.8.1,6.4,6.4,0,0,1-.7-2.7,111.7,111.7,0,0,1-.3-15.3c.4-10.1,1.7-20.1,2.4-30.1.1-1.6,0-3.2,1.1-4.5h0a1.3,1.3,0,0,1,1.9-.1c.1.3.3.3.6.2a1.4,1.4,0,0,1,1.2.9h0c2.9,2.9,2.8,7,3.8,10.6h-.1c3.6,4.5,4.3,10.1,5.9,15.4.1.7.1,1.5.2,2.3s.9-.2.4.1,0,.2-.3-.3a4,4,0,0,1-.2-1.9c-.3-6,.9-11.8,2-17.7C106.7,94.2,106.7,94,106.5,93.7Z"/><path class="cls-2" d="M118.1,122.5c.1-.6.4-1.2.5-1.8.7-8.7,1.3-17.5,1.9-26.2.2-2.1.1-4.1.1-6.2s.7-3.2,3.4-3.6c5.3-.8,9.4,1.1,12.4,5.4,1.7,2.3,3,4.8,4.5,7.3h0a6.1,6.1,0,0,1,2.1,4.1c.6,9.9,1,19.8-3,29.2-3.1,7.4-8.5,11.2-16,11.3-4.2,0-6.9-2.4-7.3-6.6a26.7,26.7,0,0,1,1.2-11.2Z"/><path class="cls-3" d="M117.9,124.2c0,3.8,0,7.6-.1,11.5a5.8,5.8,0,0,0,1,3.6,5.9,5.9,0,0,0,5.9,2.3c6.2-1,10.9-4,13.6-10a44.2,44.2,0,0,0,3.4-13.3c.4-5.1.3-10.2.2-15.3a26.3,26.3,0,0,0-1-5.6,5.4,5.4,0,0,0,4.5-3.1c.2-.4.4-1.1.8-1.2,2.9-.9,3-3.6,3.2-5.8s.3-2.5,2.1-2.7a2.3,2.3,0,0,0,1.3-1.8c.3-1.7,1.3-1.9,2.7-1.8h2.4a2.7,2.7,0,0,1,2.4,1.3,17.1,17.1,0,0,0,2.2,2.5,4.5,4.5,0,0,1,1.5,3.8c0,3,.2,4-3.6,4-1.2,0-3,0-3.5.7a5.4,5.4,0,0,0-.7,5,11.1,11.1,0,0,1,.2,1.9l-.5.4c-2.8.7-3.5-1.1-3.2-3.2s1.1-6.1,4.6-7.3c1.7-.5,3.1-1.5,1.9-3.4s-2.5-.9-3.8-.2c-6.7,4.3-7.7,14.3-1.7,19.4a10.4,10.4,0,0,1,2.8,3.8c3.3,7.4,2.7,14.7-1.1,21.7-1.9,3.4-3.8,3.6-6.5,1.3-1-.9-1.9-2.5-3.5-1.2s-1.1,2.8-.4,4.4c2.1,4.6,6.9,5.5,11.2,2.4s4.3-6.6,7.2-9.4h.6l-.6,5.2a8.8,8.8,0,0,0,0,2.3c.2.9-.1,1.6-1.1,1.6a2.1,2.1,0,0,0-2.1,1.6,5.1,5.1,0,0,1-1,2.1,3.2,3.2,0,0,1-2,1c-3.2,0-6.3-.3-9.5-.3-1.4-.1-2.3-.3-3-1.8a42,42,0,0,0-3.5-5.1,2.2,2.2,0,0,0-3.4.1l-.3.4-5.2,6c-3.7.1-7.3.3-11,.2a3.3,3.3,0,0,1-2.5-1.1c-1.6-2-4.2-3.6-3.8-6.8a4.9,4.9,0,0,0-.4-2.4c-.7-1.5-.2-2.6.8-3.9A32.2,32.2,0,0,0,117.9,124.2Z"/><path class="cls-3" d="M56.6,106a6.4,6.4,0,0,1-2.3,5,1.8,1.8,0,0,0-.1,2.6c2.2,1.9,2.5,4.3,2.3,6.9s2.2,4.3,3.7,6.3a2,2,0,0,0,1.4.2l2.7-.8c2.1,2.7-.7,5.6.5,8.5,1.3-.6,1.2-2.6,2.6-3l.7.2-.6,6.4-1.8.3c-2.4-.1-4.6,0-5.9,2.7-.4.6-1.6.9-2.5,1.1a21.6,21.6,0,0,1-3.6,0c-1.3-2.5-.9-5.1-1.1-7.5l.6-.3c2,.3,2.5,4.4,4.8,2.5s-.2-3.8-.8-5.7c-1.7-5-3.3-10-5.1-14.9s-1.3-7.2,3.8-10.7Z"/><path class="cls-3" d="M52.6,134.9c-2.8-.7-3.7-1.4-3.4-3.6s-.7-4.6-.6-7c0-.5-.9-1.3-1.5-1.6s-1.9.7-2,1.7c-.1,2.6-.1,5.1-.1,7.7s.1,3.8-1,5.5h0a4.7,4.7,0,0,1-5.9-.2,3.5,3.5,0,0,1-.8-1.6l.2-.2c4.5-.4,5.4-3.2,4.7-7.1a37.9,37.9,0,0,1-.3-10.1c.2-2.2.9-4.1,3.4-4.5s3.6,1.6,4.2,3.7c1.1,4.3,2.4,8.6,3.6,12.9.4,1.4.7,2.8-.3,4.2Z"/><path class="cls-3" d="M110.2,134.8c-.3-7.6.5-15,1.2-22.5.5-5.3,1-10.5,1.6-15.7.2-2.1-.1-4.2,1-6.1.2,5.7.3,11.5.4,17.2a3.7,3.7,0,0,1-.5,1.8c-1.1,1.8-.8,3.7-.5,5.6s.5,3.4.7,5.2a3.7,3.7,0,0,1-1.6,3.7,3.1,3.1,0,0,0-1.3,2.9v5.3A2.9,2.9,0,0,1,110.2,134.8Z"/><path class="cls-3" d="M29.7,128.1a23.8,23.8,0,0,1-.1,3.8c-.5,2.8.2,6.1-3.2,7.7-.3.2-.4.9-.6,1.3s-.6.9-.9.9c-3.6.3-7.2.6-10.8.6s-3-.3-3.8-3.7l.2-.2c1.1-.8,2.1-.2,3.1.1,6.7,2.1,9.8.6,12.7-5.8.8-1.8.6-4.3,3.2-4.9Z"/><path class="cls-3" d="M77.6,138.6a3.2,3.2,0,0,1-1.3-3.3,14.2,14.2,0,0,0-.3-7.9,3.7,3.7,0,0,1,0-1.8c.2-.7.8-1.7-.3-1.9a3.2,3.2,0,0,0-2.1.8c-.5.3-.6,1.1-.9,1.6-1.4,2.1-2.2,4.6-4.6,5.8l-.3-.2c-1.8-6.6,2.3-11.6,9-11,1.5.2,2.7.9,2.5,2.3-.7,5.2.9,10.5-1.5,15.5Z"/><path class="cls-3" d="M164.1,109.7l.4.4c.9,1,2.5,1.9,2.7,3.1a65.5,65.5,0,0,1,.5,8.9,2.8,2.8,0,0,1-.7,1.7c-1.7,1.4-1.6,3.7-3,5.2l-.2-.2c-.2-.2-.5-.5-.5-.7-.1-6-.7-11.9.2-17.8Z"/><path class="cls-3" d="M102.6,135.7a11.2,11.2,0,0,0,1.3,2.4c1.5,2.3,4.2,2,5.4-.4a20.4,20.4,0,0,0,.9-2.2,15.6,15.6,0,0,1,.2,3.7c-.3,3-1.5,3.9-4.3,3.5a6.4,6.4,0,0,1-2.3-.5,2.4,2.4,0,0,1-1.1-1.3C102.6,139.2,102.6,137.4,102.6,135.7Z"/><path class="cls-3" d="M98.8,120.3l3.3,12.7c.2.9.3,1.8.5,2.7a14.5,14.5,0,0,0-2.2-.9,2.3,2.3,0,0,1-1.7-2.5C98.8,128.3,98.8,124.3,98.8,120.3Z"/><path class="cls-3" d="M156.4,100.2c2.5-.4,4.1,1,5.5,2.8s3.1,4,2.2,6.7l-.3.3c-3.4-2.5-5.1-6.4-7.6-9.6Z"/><path class="cls-3" d="M114,90.6c-.1-1.6-.1-3.2-.1-4.7C115.5,87.8,115.5,88.5,114,90.6Z"/><path class="cls-3" d="M44,137.6l.4.3-.4-.3Z"/><path class="cls-8" d="M99.9,272.1c.5-3.8.9-7.6,1.6-11.3a29.4,29.4,0,0,1,3.8-9.8c.6-1,1.2-1.1,2.3-.3a5.5,5.5,0,0,1,2.5,3.8c1.1,8.5.7,16.9-2.2,25a29.4,29.4,0,0,1-2.5,4.6,1.7,1.7,0,0,1-2.5.4,5.2,5.2,0,0,1-2.7-4.3c-.1-2.7,0-5.4,0-8.1Z"/><path class="cls-9" d="M93.7,282.6H92a11.5,11.5,0,0,1,.6-1.7c.1-.2.5-.3.7-.5a1.2,1.2,0,0,1,.4.8A6.5,6.5,0,0,1,93.7,282.6Z"/><path class="cls-10" d="M124.3,290h-2.5c-1.7-1.8-1.7-4.1-1.7-6.3-.2-8.3-.3-16.6-.4-24.9-.1-4.2-.1-8.3-.1-12.5s1.1-3.6,3.9-2.5l.8.5c.4.9.6,1.8,1.5,2.3a11.2,11.2,0,0,1,6.4,10.1c0,2.5.3,2.7,1.3,4.7.6-.9,1.2-1.5,1.6-2.2a72.1,72.1,0,0,0,5.8-16.1,12.9,12.9,0,0,1,3-6.6h3.2a7,7,0,0,1,1.6,4.6,133.9,133.9,0,0,1,.3,19c-.2,4.3-.2,8.7-.2,13s-.1,10.2-.1,15.3c0,1.9-.1,3.7-1.3,5.3h-4.5c-1.4-1.8-1.4-3.8-1.4-5.9V261.6c-1-.3-1.2.6-1.5,1.2l-2.4,5.2a13.7,13.7,0,0,1-1.3,2c-1.8,2.4-4.6,2.4-6.3-.2s-1.6-4.4-2.8-6.2a4.8,4.8,0,0,1-.6-2.4,1.9,1.9,0,0,0-.5-1c-1-.1-.8.7-.8,1.2.2,4.9.5,9.9.7,14.8.1,3,.1,6.1.3,9.1A6,6,0,0,1,124.3,290Z"/><path class="cls-7" d="M50.9,60.4a18.9,18.9,0,0,1-.9-2.1c-.8-3.4-.7-6.5,2-9.1.3.2.5.1.7-.2a1.2,1.2,0,0,1,1.9.2h0c2.2-.1,1.9,4,4.1,2.8s1.5-3.6,1.8-5.6a19.2,19.2,0,0,0-1-9.8h.1c-2.2-1.6-4.2-3.3-6.9-4.1-4.4-1.2-4.1-5.3-4.7-8.7V21.3c.7-2.4.2-4.8.7-7.2.9-4,3.5-6.5,6.5-8.5s7.2-.6,9,2.8,1.1,5.5.9,8.4a3.1,3.1,0,0,1-3.1,3.1c-1.8.1-2.4-1.2-2.8-2.7s0-2.3-.9-3.2c-3.4,3.6-3.4,7.4,0,12.1h0c4.9.9,7.7,3.8,8.7,8.6h0c4.9,8,2.7,20.3-4.5,25.8-4,3.1-7.6,3-11.7-.1Z"/><path class="cls-3" d="M58.4,26.1c-3.5-.9-3.7-1.1-3.8-3.8s-.1-6.7,2-9.6A6.5,6.5,0,0,1,58.2,11a1,1,0,0,1,1.5.4,19.1,19.1,0,0,1,.6,3.3c.2,1.2.2,2.5.5,3.8s1,.9,1.4.9a1.9,1.9,0,0,0,1.4-1c.7-3.1,1-6.3-.1-9.3a5.1,5.1,0,0,0-7.6-2.8,11.2,11.2,0,0,0-5,5.3,46.5,46.5,0,0,0-2.1,6.3c-.3,1.2-.5,2.5-.8,3.7,0-2.4-.2-4.8,0-7.2s.5-5.4,3.3-6.9a4.4,4.4,0,0,0,1.3-1.4c1.9-3.4,5.2-3.3,8.4-3a6.3,6.3,0,0,1,2.4,1.5,15.8,15.8,0,0,0,2.3,2.2c1.3.7,1.7,1.7,1.2,2.8a8.8,8.8,0,0,0,0,6c.7,2.4-.8,4.7-3.2,5.6S58.8,23,58.4,26.1Z"/><path class="cls-3" d="M50.9,60.4c6.2,3.7,16-.6,17.2-10a37.3,37.3,0,0,0-.5-12.9,27.4,27.4,0,0,1-.5-2.8l1.3.6A3.6,3.6,0,0,1,71,39.4c-.2,1.2-.3,2.5-.5,3.8a5.4,5.4,0,0,0,0,1.8c.8,4.4-.9,8.1-3,11.7a13.7,13.7,0,0,1-1.6,1.8c-.7.7-1.6,1.2-1.9,2.1-1.6,3.5-4.5,4.3-7.9,3.8h-.6c-2.4.4-3.8-.7-4.3-3.1Z"/><path class="cls-3" d="M59.5,36.5a9.4,9.4,0,0,1,1.3,2.4,31.1,31.1,0,0,1,.8,10.5,6.7,6.7,0,0,1-2.4,4.5c-1,.9-2.7,1.3-3,.7a5,5,0,0,1,0-2.1c.2-1.5-.9-2.3-1.6-3.4,1.4-.1,3.1.2,4-.6s.7-2.3,1.1-3.5a7.4,7.4,0,0,0,.2-3.9A23.8,23.8,0,0,1,59.5,36.5Z"/><path class="cls-3" d="M48,23.8l.7,1.8a8.7,8.7,0,0,0,5.6,6.7l2.9,1.4c1.1.6,2.3,1.3,2.4,2.8s-2.3.2-3-1-2.2-1.9-4.1-1.3-2.9.1-3.6-2.3A20.3,20.3,0,0,1,48,23.8Z"/><path class="cls-3" d="M67.1,34.7a18.2,18.2,0,0,0-8.7-8.6c1.5,0,3-.1,4.4,0A4.9,4.9,0,0,1,67,30.6,28.1,28.1,0,0,1,67.1,34.7Z"/><path class="cls-3" d="M54.6,49.2,52.7,49C53.4,48.1,54,48.1,54.6,49.2Z"/><path class="cls-7" d="M29.5,127.9c-.9,2-1.7,4.1-2.6,6.1-3.5,7.6-7.6,8.9-15.1,5l-1.3-.5C7,135.1,5.7,130.7,5.7,126s.4-10.5.6-15.7c.1-2.1.3-4.1.4-6.2H6.6C7.5,98.6,7.8,93,11.1,88c2.3-3.5,4.6-6.3,8.9-7h.1c2.2-1.7,4.4-1.5,6.5.1h0c4.2,2.3,5.5,5.2,4,8.7s-2.7,3.3-4.8.7h.1c-1-1.1-.5-3.4-2.8-3.3s-3.4,1.1-4.4,2.9c-2.1,3.8-2.3,8.2-4.5,11.9a.5.5,0,0,0,0,.7,181.7,181.7,0,0,0-.1,26.6c-.1.2-.1.4.2.6a2.6,2.6,0,0,0,1.3,2.4c2.3,1.8,3.5,1.7,4.9-.8a23.1,23.1,0,0,0,3.4-8.8c.2-1.8.1-2.1-1.7-2.8a5.6,5.6,0,0,1-1.8-.7,4.4,4.4,0,0,1-1.2-1.8c-.3-1.1.6-1.8,1.4-2.3a.5.5,0,0,0,.4-.2c3.5-.5,6.9-1.1,10.4-1.4a2.6,2.6,0,0,1,2.7,2.2,2.9,2.9,0,0,1-1.3,2.8,3.8,3.8,0,0,1-1.3.6,2,2,0,0,0-1.6,2.1C29.8,123.5,29.6,125.7,29.5,127.9Z"/><path class="cls-3" d="M20,81c-5.6,2.6-8.7,7.2-10.4,12.8-.9,2.7-1.4,5.4-2.2,8.2a18,18,0,0,1-.8,2.1c.2-3.3-.5-6.6.5-9.9a1.7,1.7,0,0,0,0-1.4c-.9-1.9,0-2.9,1.6-3.8s1.5-1,1.5-1.6,1.6-2.3,2.3-3.4C14.4,81,17,80.7,20,81Z"/><path class="cls-3" d="M14.2,102.1a27.4,27.4,0,0,1,3.6-12.2c1.2-2.1,2.9-3.8,5.5-4.1s2.6.4,2.7,1.9a28.1,28.1,0,0,1-.1,2.9l-.4-.3c-1.1-1.4-2.6-2.2-4.1-1.4a4.6,4.6,0,0,0-3,4.4C18.7,97,17.5,100.1,14.2,102.1Z"/><path class="cls-3" d="M25.8,90.5c.3.2.5.5.8.6s2.5.6,3-.8c.9-3.3.9-6.3-2.3-8.5l-.7-.7c.8.1,1.8-.1,2.3.3s2.7,2.6,4,3.9a2.5,2.5,0,0,1,.5,1.3c.2,2.8-3.2,6.2-6,5.9C26.2,92.3,25.9,91.5,25.8,90.5Z"/><path class="cls-3" d="M14.1,129.4c-.2-1.1-.7-2.1-.8-3.1a151.4,151.4,0,0,1,.2-21.3,11.1,11.1,0,0,1,.7-2.2C14.2,111.7,14.2,120.5,14.1,129.4Z"/><path class="cls-3" d="M26.6,81.1H20.1a6.6,6.6,0,0,1,.7-2.6,3.8,3.8,0,0,1,3.5-1.1,2,2,0,0,1,1.2.7C25.9,79,26.3,80.1,26.6,81.1Z"/><path class="cls-3" d="M38.3,82l-.4-.3.4.3Z"/><path class="cls-10" d="M28.4,195c-.4,1.5-1,3-1.3,4.5-.9,4.9-1.8,9.8-2.6,14.6l-1.1,2.1a3.6,3.6,0,0,1-3.9,2.1,3.7,3.7,0,0,1-3.1-2.6,8.6,8.6,0,0,1-.6-2.3c-.2-2.4-.5-4.8-.7-7.2l-.9-19.6c-.2-2,.1-4.1-1-6-.6-4.1-1.1-8.2-1.7-12.3a29.5,29.5,0,0,1-.2-4.2c0-1,1.1-1.9,1.9-1.6a9.7,9.7,0,0,1,3.4,1.6,2.3,2.3,0,0,1,1,2.9,5.3,5.3,0,0,0-.2,3.7c1.5,6.5,2.9,13,4.3,19.6.6.4.5.9.4,1.5s.1-1.2.5-1.6c1.9-6.8,3.9-13.5,4.8-20.5a37.3,37.3,0,0,1,1.2-5.6,14.3,14.3,0,0,1,.9-2.7,3.2,3.2,0,0,1,3.2-1.7,3.3,3.3,0,0,1,2.5,3.1,18.8,18.8,0,0,1-.5,3.3l-6.3,27.5A6.5,6.5,0,0,0,28.4,195Z"/><path class="cls-7" d="M43,162.5c1.4-.2,2.8-.6,3.8.9a10,10,0,0,0,2.1,2,10.6,10.6,0,0,1,4.6,9.5c-.1,5.3-.4,10.5-.7,15.8s-2.4,12.5-5,18.4a21.1,21.1,0,0,1-1.8,3.3c-1.5,1.9-3.4,2.2-5.6,1.1a10.5,10.5,0,0,1-5.2-7.1,51.3,51.3,0,0,1-1.6-9.4,67.5,67.5,0,0,1,1.9-19A45.5,45.5,0,0,1,43,162.5Z"/><path class="cls-11" d="M22.6,190.2l-.4,1.6-.5-1.5Z"/><path class="cls-12" d="M153.2,182.3a16.2,16.2,0,0,0,.1,2.2c-1.8.5-1.8.5-2,2.8-1.9-1.6-3.7-3.4-6.3-4.1a2.1,2.1,0,0,1-1.5-2.2,28.5,28.5,0,0,1,2.7-14.4c.8-1.5,2.2-1.5,2.9-.1a12.3,12.3,0,0,1,1.3,4.1c0,3-.3,6-.5,9,0,.6-.3,1.2-.3,1.9s-.2,1.6.7,2a1.7,1.7,0,0,0,2.1-.5Z"/><path class="cls-7" d="M28.8,11.7C32.1,7.9,36.6,7.8,41.1,8a3,3,0,0,1,3,3.1,3.4,3.4,0,0,1-3.3,3.4h-.5c-1.8-.1-3.8-.5-5.5.7,0,1.7-.2,3.5-.1,5.2,0,4.1.2,8.3.3,12.4,0,1.2.3,1.9,1.6,1.9h3.3a2,2,0,0,1,2,1.7,2.2,2.2,0,0,1-1.3,2.3A26.7,26.7,0,0,1,37,40.2c-2.3.8-2.5.8-2.3,3.3s.6,7.3,1,11a1.4,1.4,0,0,0,1.7,1.2,55.8,55.8,0,0,1,5.7-.8,2.7,2.7,0,0,1,3,1.9,3.4,3.4,0,0,1-1.3,3.8,33.6,33.6,0,0,1-4.3,2,39.2,39.2,0,0,1-5.9,1.5A5,5,0,0,1,29,59.9c-1-6.5-1.7-13-.8-19.5.4-3.5.4-7,.5-10.5V28.3a42.6,42.6,0,0,0-.1-13.8h0a2.1,2.1,0,0,1,.1-2.8Z"/><path class="cls-3" d="M28.7,14.5c.3.4.7.8.7,1.2.1,4.2.5,8.4-.6,12.6C28.8,23.7,28.8,19.1,28.7,14.5Z"/><path class="cls-3" d="M28.8,11.7c0,.9-.1,1.8-.1,2.8C27.5,13,27.5,13,28.8,11.7Z"/><path class="cls-7" d="M24.7,60.3l-8,1.7c-3.6.8-6.1-1-6.1-4.6-.2-7.4-.1-14.7.1-22.1s.5-12.4.8-18.6c.1-1.3,0-2.6.2-3.9A3.1,3.1,0,0,1,13.9,10c1.3-.4,2,.6,2.8,1.5l.3.3.3,24.8c0,4.7-.1,9.3,0,13.9,0,1.1.1,2.2.2,3.3H22c3.7.1,4.9,2.3,3.2,5.7A5.6,5.6,0,0,1,24.7,60.3Z"/><path class="cls-7" d="M86.1,161.4c3.2,5.6,2.3,11.4.7,17.2a.9.9,0,0,1-.5.7,2,2,0,0,1-1.3.2.6.6,0,0,1-.6-.6c-.1-1.1-.1-2.2-.1-3.3-.1-2.7-.2-5.4-.4-8.1a2,2,0,0,0-1-1.5c-.4-.1-1.2.4-1.5.8a20.2,20.2,0,0,0-3.9,11.6,2.9,2.9,0,0,0,2,3c5.6,2.2,7.7,6.8,8.7,12.2a25.9,25.9,0,0,1,.1,10A17.6,17.6,0,0,1,82,214c-2.3.6-4.6,1.4-6.9,1.8a7.7,7.7,0,0,1-8.2-10.6,4.4,4.4,0,0,1,1.5-1.8,2.5,2.5,0,0,1,4.1,1.4c.2.6.1,1.3.3,1.9s1.1,1.9,2.4,1.6a6.2,6.2,0,0,0,5.4-4.8,17.7,17.7,0,0,0-.9-12.6,6,6,0,0,0-2.9-3c-4.5-2.4-5.7-6.2-5.1-10.9A30.6,30.6,0,0,1,76,165.3a11.9,11.9,0,0,1,1.5-1.8C79.9,161,82.6,159.7,86.1,161.4Z"/><path class="cls-7" d="M77.8,138.5c.1-5.2.3-10.5.5-15.8,0-.9-.6-1.3-1.6-1l-5.5,1.7a2.2,2.2,0,0,0-1.9,1.8c-.6,2.2-1,4.4-1.5,6.5s-1.1,3.3-1.8,4.8a1.7,1.7,0,0,1-1.5.9c-.9.1-1.4-.6-1.4-1.5s.3-3.4.5-5.1a36.5,36.5,0,0,1,.7-4.6h-.1c1.1-4.9.5-10.2,3.8-14.5.2-.1.3-.3.1-.6,1.5-4.8.7-10.3,3.9-14.7h0c.9-2.6,1.9-5.1,2.7-7.6a14,14,0,0,1,3.8-5.5c2-2,4.7-1.4,5.5,1.4a32.6,32.6,0,0,1,1.1,6.1,20.7,20.7,0,0,1,.2,4.3c0,13.9,0,27.7-.1,41.6a12.8,12.8,0,0,1-.1,1.9,3.4,3.4,0,0,1-2.7,3,3.3,3.3,0,0,1-3.7-1.6Z"/><path class="cls-13" d="M94,104.1l.4-1.6a7.5,7.5,0,0,0,.5,1.6Z"/><path class="cls-3" d="M72,96.4a57,57,0,0,1-3.9,14.7c0-2.5-.4-5,.5-7.5.3-.9-.2-2.1-.4-3.1a4.8,4.8,0,0,1,.8-3.1C69.7,96.2,70.9,96.4,72,96.4Z"/><path class="cls-3" d="M68,111.7c-1.3,4.9-2.5,9.7-3.8,14.5-.1-4.1-.2-8.3,1-12.3A2.9,2.9,0,0,1,68,111.7Z"/><path class="cls-3" d="M60.4,98.4c0,1.2,0,2.4-.1,3.7-.1,3.1-.3,3.3-3.7,3.9l-.3-.2a6.7,6.7,0,0,1,3.9-7.6Z"/><path class="cls-2" d="M60.2,98.2l-3.9,7.6c-1.5,1.9-3.5,3.5-4.4,5.6s1.3,4.4,2,6.6c1.9,5.6,4,11.2,6.1,16.7l.3.9a3.2,3.2,0,0,1-1.4,3.7,3.1,3.1,0,0,1-3.9-1c-.8-1.2-1.5-2.4-2.2-3.6-1.7-6.3-3.4-12.6-5.2-18.8a1.4,1.4,0,0,0-1.7-1.2c-1.5.1-2.5.8-2.6,1.7a19.2,19.2,0,0,0,0,2.4l.3,10.4a20.6,20.6,0,0,1,0,4.3c-.4,3.3-2.2,4.1-5.3,2.6l-.8-.5c.1-7.2-.1-14.4.2-21.5C38,105,38.7,96,39.2,87a11.5,11.5,0,0,1,.1-1.9A2.3,2.3,0,0,1,41,83c8.5-3,14.3-.1,17.8,6.4l1.3,2.5c-.1.3-.1.5.2.6C60.3,94.4,60.2,96.3,60.2,98.2Z"/><path class="cls-3" d="M103.7,112.6l-4.2-12.5c-.4-1.2-.6-2.4-1-3.6,2.1-.1,3.6,1.1,5.1,2.2s1.5.1,1.8-.8-.3-2.6,1.1-3.5a110.8,110.8,0,0,1-1.2,19.1C104.2,114.2,104,113.2,103.7,112.6Z"/><path class="cls-3" d="M98.6,96.5c-1.3-3.5-2.5-7.1-3.8-10.6,3.4.3,3.8.7,3.9,3.4S98.6,94.1,98.6,96.5Z"/><path class="cls-3" d="M93,84.8H91.1C91.7,83.8,92.3,83.9,93,84.8Z"/><path class="cls-3" d="M94.8,85.9,93.6,85Z"/><path class="cls-14" d="M47.8,282.7c2.5-1.4,4.9-1.8,7.3,0a8.6,8.6,0,0,1,.5,2.3c.1,2.9-.8,4.3-3.6,5.2a9.6,9.6,0,0,1-3.7.9,3.1,3.1,0,0,1-3-4.5C46,285.2,47,284,47.8,282.7Z"/><path class="cls-15" d="M64.3,155a6.7,6.7,0,0,1-1.7.8,1.5,1.5,0,0,1-1.5-1.9c.1-1,.8-1.3,1.7-1.2S64.4,153.6,64.3,155Z"/><path class="cls-16" d="M98.2,156.8a1.8,1.8,0,0,1-2-1.6,1.7,1.7,0,0,1,1.5-1.6,2,2,0,0,1,2.2,1.3A1.7,1.7,0,0,1,98.2,156.8Z"/><path class="cls-3" d="M124.7,111.7l.3-19.2c0-2.1,1.1-2.4,2.8-1.8a4.4,4.4,0,0,1,1.6,1c3,3,5.4,6.5,5.8,10.8.7,7.5.4,15.1-1.9,22.3a33.2,33.2,0,0,1-2.9,6,3.9,3.9,0,0,1-2.1,1.9c-3.3,1.3-3.9,1.6-3.9-2.3V111.7Z"/><path class="cls-7" d="M156.2,100.4c3.9,2.1,5.8,5.8,7.6,9.6a59.3,59.3,0,0,1,0,18.8c-.4,1.1-.9,2.1-1.3,3.1a19.1,19.1,0,0,1-6.4,8.2c-3.6,2.6-7.3,2.3-10.3-1a21.1,21.1,0,0,1-2.6-4,4.7,4.7,0,0,1,.4-4.6,3,3,0,0,1,5.2-.2,13.9,13.9,0,0,1,1.1,2.1c.9,1.4,1.8,1.4,3.1.2a11.5,11.5,0,0,0,3.1-5.3,34.9,34.9,0,0,0,.9-12.9,19.5,19.5,0,0,0-.6-2.3,9,9,0,0,0-4.4-5.9c-3.9-2.2-4.9-4.5-4-8.8a21.9,21.9,0,0,1,6-11.2,7.6,7.6,0,0,1,3.2-2,3.1,3.1,0,0,1,3.8,2,5.8,5.8,0,0,1-.5,4.6,1.7,1.7,0,0,1-2.5.6c-1-.6-1.8-.4-2.2.6a50.3,50.3,0,0,0-2.1,5.4,2.5,2.5,0,0,0,.4,2.2C154.5,100.1,155.4,100.2,156.2,100.4Z"/><path class="cls-17" d="M42.2,205.3c-4.1-8.4-3.1-25.5,2.1-35.6a4.7,4.7,0,0,1,3.2,3.7,2.9,2.9,0,0,1,.2.9c-.2,10.2-.2,20.5-4.7,30C42.9,204.6,42.6,204.8,42.2,205.3Z"/><path class="cls-18" d="M78.6,97.3c0,5.7.1,11.5,0,17.2,0,2.1-.2,2.3-2.4,2.8l-4,.7a3.7,3.7,0,0,1-.4-1.1c2-6.5,3.9-13,5.9-19.5C78,96.9,78.2,96.9,78.6,97.3Z"/><path class="cls-19" d="M78.6,97.3h-.9c.1-.6.3-1.1.4-1.6Z"/><path class="cls-20" d="M43.2,98.9c0-3-.1-6.1,0-9.1S44,86.9,46,87c4.1.1,7.9,3.2,8.3,7.2a5.9,5.9,0,0,1-.7,3.7c-1.9,3-3.9,5.8-6,8.6a26,26,0,0,1-3.6,3c-1.7-1.4-.6-3.2-.7-4.9a54.2,54.2,0,0,1-.1-5.7Z"/></g></g></svg>