<svg xmlns="http://www.w3.org/2000/svg" viewBox="0 0 270.3 140"><defs><style>.cls-1{fill:#fff;}.cls-2{fill:#335899;}.cls-3{fill:#fefefe;}.cls-4{fill:#335898;}.cls-5{fill:#34599a;}.cls-6{fill:#355999;}.cls-7{fill:#345899;}.cls-8{fill:#fdfdfe;}.cls-9{fill:#91b7d2;}.cls-10{fill:#345898;}.cls-11{fill:#c0c2d4;}.cls-12{fill:#f9fafb;}.cls-13{fill:#abcee1;}.cls-14{fill:#3a5c9b;}.cls-15{fill:#45629d;}.cls-16{fill:#4a669f;}.cls-17{fill:#fcfcfd;}.cls-18{fill:#f6f9f9;}.cls-19{fill:#afcddd;}.cls-20{fill:#fafbfc;}</style></defs><title>logosquareish1</title><g id="Layer_2" data-name="Layer 2"><g id="logosquareish1"><path class="cls-1" d="M205.9,13.6a13.7,13.7,0,0,1-2-1.3,2.1,2.1,0,0,1-.7-1.1c-.4-2,1.6-5.6,3.4-6.3,3.6-1.5,7.1-1.6,9.9,1.8a1.8,1.8,0,0,0,2,.6,27.4,27.4,0,0,1,2.8-.5c.3.4.8.9.6,1.3-4.7,12.9-2.5,26.4-3.2,39.6a7.8,7.8,0,0,1-.4,2.1c-.8,3.3-3.6,5.9-2.7,9.9s3.2,7.2,8.3,7.4,8.4-.3,11.4-4.4,4.8-3.8,7.7.1,3.9,4.5,7.8,4.4c8.1-.2,10.2-1.7,11.5-9.8a20,20,0,0,0,.4-2.4,15.2,15.2,0,0,1,1.2-3.6c3.8-5.3,2.5-10.3-.7-15.3-.5-4.9-3.3-8.1-7.6-10.1-2.2-5.7-1.5-7.3,4.2-8.7,3.6-.8,2.8-3.2,1.8-5s-2.8-4.7-5.9-4.1-4.9,3.1-5.8,6c-1.3,4.7-3.8,8.2-8.7,9.5A2.4,2.4,0,0,1,240,23c-.6-5.7-3.8-9.3-8.8-11.8a8.4,8.4,0,0,1-4.1-4.4,7.5,7.5,0,0,1,1.6-1.5,2.1,2.1,0,0,1,1.8.5c1.9,1.4,3.5,3.2,6.2,3.1a.9.9,0,0,1,.8.5c1.5,2.5,4.9,3.1,6,6a1.7,1.7,0,0,0,1.2.4c.1,0,.4-.4.5-.7a19.3,19.3,0,0,0,.1-2.4,3.6,3.6,0,0,1,1.4-2.9c2.6-1.6,4.7-3.9,7.6-5a7.7,7.7,0,0,1,8.6,2c.4.5.6,1.2,1,1.6,3.4,3.1,2.9,6.7,1.6,10.6a3.4,3.4,0,0,1-2.3,2.2,12.5,12.5,0,0,0-1.9.3,1.4,1.4,0,0,0-.5,2.6,15.8,15.8,0,0,1,1.5,1.2c2.3,2,4.3,4.3,4.2,7.7a2.8,2.8,0,0,0,1.8,2.6c1.7.8,2,2.3,2,4-.1,3.4-.1,6.7,0,10.1a5.3,5.3,0,0,1-1.9,4.6c-1.3,1.1-2.3,2.4-1.3,4.2-.7,2.9-.8,6-3.4,8.2a5.5,5.5,0,0,0-1.6,1.8c-1.2,2.8-3.8,3.2-6.3,3.5a25.1,25.1,0,0,1-6.7,0c-2.3-.3-4.6-.9-6.3-2.9a12.4,12.4,0,0,0-2.3-1.7c-1.7-1.1-2.2-1-3.8.4-5.8,5.2-12.6,5-19.7,3.4a3.2,3.2,0,0,0-.9-.3c-1.2-.4-1.3-2.6-2.9-2.2s-2.2,1.4-3.3,1.9-4,1.6-6.4.6a7.1,7.1,0,0,1-4-4.5c-.2-.4-.3-.9-.5-1.3a1,1,0,0,0-.8-.4,1.2,1.2,0,0,0-.7.5c-2,5.6-2.1,5.6-7.7,5.7H179.7c-3.5-.1-5.2-1.3-6.2-4.7s-1-4.7-1.5-7c-1.6,1.1-1.5,2.7-1.6,4.3s-.6,3.3-3.5,3.5a8.1,8.1,0,0,0-5.5,2.3c-2.5,2.3-5.7,1.8-8.6,1.2a4.2,4.2,0,0,1-2.1-1.9,16.4,16.4,0,0,1-1.4-3c-.5-1-1.2-1.3-1.7-.5s-2.8,2-4.6,1.9h-3.4a4.8,4.8,0,0,1-5.2-2.5c-1-1.8-2.2-1.6-3.6.2a16.7,16.7,0,0,0-1.2,1.6c-1.5,3.4-4.5,4.3-7.8,4.5s-5.4.1-8.1.7a6,6,0,0,1-5.6-2.1,85.7,85.7,0,0,1-6.8-7.9,8,8,0,0,1-1.7-5.3c.3-2.9.2-6.1,2.7-8.4,2.7.8,3,3,2.7,5.3-.6,4.9,1.5,8.4,5.4,11.1,1.1,2.8,3.6,2.5,6,2.5,8.7.1,10.8-1,11.6-10.4a8.2,8.2,0,0,1,.6-2.7,47.3,47.3,0,0,0,3.1-6.4c.5-1.5,1.1-3.2,3.2-2.8s2,2.2,2.1,3.8a14.6,14.6,0,0,1-1,6.5c-.9,2.1-.8,4,.9,5.6a5.4,5.4,0,0,0,5.8,2.5c.7.1.7.1.4-1.3.2-3.4,0-6.7.3-10s.6-4.1,3.1-4.1,2.5,2,3,3.7-.5,6.5,2.7,8.7a8.1,8.1,0,0,1,1.2,4c.5,3.1,2.5,4.1,5,2a10.4,10.4,0,0,1,5.7-2.9c3.5-.4,1.6-4,3-5.7l4.7-7.1a3.2,3.2,0,0,1,3.6-1.7c1.6.4,1.1,2,1.4,3.1,1.1,4.2-.3,8.6,1.2,12.7.6,2.2,2,3.2,4.3,2.7l1.9-.3c9-.8,8.9-.8,9-10.1a54.6,54.6,0,0,1,.1-8.1c.4-2.6,1.3-4.9,4.7-3.4a3.1,3.1,0,0,1,.9,1.1c1,2.9.5,5.9.6,8.8s.2,4.1,2.3,5.2l.9,1.1c.1.7-.1-.1.2.5s-.6,5.5,3.3,5.2,2.3-3.8,2.7-6a7.7,7.7,0,0,1,.2-1.5c.6-4.3-.1-9,2.8-12.8.6-.8.4-1.9.3-2.9-.9-8.6.7-17.1.3-25.7a5.9,5.9,0,0,1,.2-1.3c.6-1.7,1-3.3.3-5s-.3-.8-.4-1.2c-3.3-3.3-4.3-3.2-5.6.7A3.3,3.3,0,0,1,205.9,13.6Z"/><path class="cls-2" d="M184.2,103.8l.2-.2v-.3c.9-2.3,0-5.1,2-7h0c.1-1.6.4-3,1.8-4h0c1.6-5.6,5.6-9.5,10-12.9,2.2-1.7,5.1-2.4,7.6-.6s4.3,3.9,3.3,7.3-1.4,5.3-4.4,5.6-2.5-3-3.3-5.1a23.4,23.4,0,0,0-7.7,11.2,55.1,55.1,0,0,0-3.3,21.7c.2,2.6.5,5.2,3.5,6.2s4.2-1.7,6.2-3.2c5.6-4.4,6.1-10.6,7.2-16.8s4.1-13.1,9.3-17.9c3.3-3,6.1-2.6,8.7.9,9.9,13.1,7,26.5,1,40h.1c-.8,2.2-1.3,4.7-3.9,5.7h0c-4.6,5.1-11.2,1.1-14.7-3.3a5.6,5.6,0,0,1-1.3-3.5,4.9,4.9,0,0,1,.5-2.3c-.8.5-.5,1.9-.8,3-3.8,6.6-10,6.5-16.3,5.5s-6.5-5.8-7.5-9.6A29.2,29.2,0,0,1,184.2,103.8Z"/><path class="cls-3" d="M226.2,128.7a10.6,10.6,0,0,1,.4-1.9c3.4-9,3.9-18.3,2.8-27.8-.3-3-1.2-5.6-3.6-7.5a4.3,4.3,0,0,1-1.4-2.4c-1.1-2.6-3.5-3.5-5.8-1.9a18.5,18.5,0,0,0-3.7,3.7,37.8,37.8,0,0,0-6.7,15.7c-.6,3.3-.9,6.7-1.2,10-.1,1.4-.2,2.5-2,2.6s-2.5,1.2-3.3,2.5l-1.5,3c-1.8,2.8-6.1,3.8-8.8,1.9a2.4,2.4,0,0,1-1.1-1.5,21,21,0,0,1-1.3-5.5,64.1,64.1,0,0,1,3.1-21.7,28.7,28.7,0,0,1,9.4-13.6,2.5,2.5,0,0,1,1.7-.2c.3.1.5.8.5,1.3a13.7,13.7,0,0,1-.2,1.9,9,9,0,0,0-.6,2.2,1.7,1.7,0,0,0,.9,1.5,2,2,0,0,0,1.7-.2c2.3-2,3.2-6.7,1.9-9.3a5,5,0,0,0-6.6-2.4,20.6,20.6,0,0,0-4,2.5,31.7,31.7,0,0,0-7.1,8.4l-1.6,2.3c-.6-2.4,1.3-4.6.6-7a2.7,2.7,0,0,1,1.1-.6c.6-.1,1.6.2,1.7,0,1.3-2.9,5.3-3.9,4.8-7.8h4.8c2.7-.1,5.5-.3,6.9,2.9.2.5,1,.8,1.6,1a2,2,0,0,1,1.4,2.1c.1,1.2,0,2.3.1,3.4a2.1,2.1,0,0,0,3.4,1.7,8.6,8.6,0,0,0,1.3-1.4,5.2,5.2,0,0,1,6-1.5c1.8.6,3.5.8,4.3,3.1s2,1.9,3.1,2.8c1.7-1.4,1.3-3,1.7-4.5s.7-1.8,1.9-1.6a6.1,6.1,0,0,0,1.9-.1c2.9-.2,2.9-.2,3.3,3.1v.5l-.7.5c-3.1.9-2.8,3.4-2.8,5.8.3,13-.7,26.1.9,39.1l-.3.7c-4.1-.3-4.4-.6-4.8-4.8-.1-.9.1-2-.9-2.5s-1.9.8-2.8,1.3Z"/><path class="cls-1" d="M43.7,6.8a3.4,3.4,0,0,1,3.5-1.9,2.9,2.9,0,0,0,2.9-1.4C51.3.9,53.8.7,56.1.2s6,.4,8.9,1.1a3.2,3.2,0,0,1,1.4,1.2l3.5,5.2a4.3,4.3,0,0,1,.3,4.5,8.7,8.7,0,0,0,0,7.4c.2.5.4,1.4.1,1.8-1.6,2.9.5,5.6.5,8.4,0,.8.9,1.7,1.6,2.3s2.1,3.4,2.1,5.6c-.1,4.1-.1,8.3,0,12.4,0,2-.3,3.8-1.9,5.2a6.2,6.2,0,0,0-2.2,4.1A4.1,4.1,0,0,1,67.7,63,4.8,4.8,0,0,0,66,64c-2.4,2.9-6,2.4-9.2,3.3a6,6,0,0,1-4.6-1,5,5,0,0,0-5.4-.1c-1.1.6-2.4.8-3.5,1.4s-4.7.3-6.8-.9c-.3-.2-.3-.8-.5-1.3s.8-1.6,1.6-1.6c4.7.1,8.5-2.8,12.9-3.9l1.3.5c4,4.1,7.7,3.7,11.7-.1,6.1-5.8,6.9-12.9,6.8-20.5,0-2.1-1.4-3.1-2.6-4.3a4.1,4.1,0,0,1-.7-1.1c.1-5.2-2.7-7.5-7.6-7.8a1.6,1.6,0,0,1-.8-1,3.8,3.8,0,0,1,2.7-4.1c4.5-1.6,5.2-4.6,4.7-9-.3-2.5-.3-4.6-2.3-6.3s-6.2-2.6-9-.1-5.6,6.5-5,11.3a23.8,23.8,0,0,1,.1,3.8v2.7a27.3,27.3,0,0,0,.3,5.7c.5,1.9,1.2,3.6,3.7,3.3S58,34.9,60,36a4.2,4.2,0,0,1,.8,1.2,17.7,17.7,0,0,1,.5,9.4c-.6,2.3-1.8,3.6-4.2,3.5l-1.4-.2a4.4,4.4,0,0,0-3.2.2l-1.3.4c-2.6,3.3-6.1,4-10.1,3.8s-5.3-1.7-5.7-5.1c-.6-4.9.7-8.1,4.1-8.9s3.4-.6,3.5-3-1.9-2.2-3.3-2.4-3.8-1.6-3.9-4.1a117.8,117.8,0,0,1-.1-11.9c.1-2.2.9-3.9,3.4-4.6C44.7,12.8,44.7,12.7,43.7,6.8Z"/><path class="cls-4" d="M99.7,100.9c0-.5.1-1,.1-1.5a56.2,56.2,0,0,0,0-14.2V85c1.6-3.4,3.8-3.6,5.8-.1s3.9,7.3,4.5,11.5a34.5,34.5,0,0,0,1,5.6H111a40.4,40.4,0,0,1,4.7,10.4c-.1-9,.9-16.8.4-24.7a10,10,0,0,1,1.4-5.9c1.6-2.5,3.6-3.8,6-.7v0a4.4,4.4,0,0,1,1.4,4.3c-1.5,14.2-.4,28.5-.7,42.7v.5c-.1,5.1-1.8,8.5-4.6,8.3s-5.7-3.6-6.9-6.9c-.6-1.7-.7-3.5-1.3-5.1h0c-3.1-3.5-3.7-8.2-5.7-12.3.6,8.1-1.6,15.9-2.4,23.9v-.2a2.5,2.5,0,0,1-1.9,2h0c-3.7,1.1-5.3-1.3-5-4.1C97.4,122.9,96.6,111.7,99.7,100.9Z"/><path class="cls-1" d="M102.3,43.3a3,3,0,0,1-1.9-3V31.2a4.2,4.2,0,0,1,1.2-3c2.1-2.2,2.6-5,2.6-7.9,0-1.2.1-2.3,0-3.4a4.2,4.2,0,0,1,2.5-4.7,5.2,5.2,0,0,0,2.2-2.4A10.3,10.3,0,0,1,113,5.4a9.6,9.6,0,0,0,3.1-2.9c2-3.2,9.3-3.4,11.5-.2s3,2.7,4.5,4.1,1.5,1.1,3.3-.3A6,6,0,0,1,138,5c1.1-.1,1.6.8,1.7,1.8a1.8,1.8,0,0,1-1.2,1.3c-1,.5.1,1.4-.3,2,.2,8.1-.2,16.2-.1,24.3,0,2.9-1.7,4.3-4.5,4.4H123.1c-3.7.2-4.9,1.8-3.7,5.2s1.8,3.8,2.4,5.7-1,5.3-3,7-3.9,1-5.5-.8a5.2,5.2,0,0,1-.6-1.6c-.4-8.1-.2-16.2-.2-24.2l.3-1.6c2-3.3,3.9-6.5,4.4-10.6s3.8-5.3,8.1-3l.9,1c2.1,2,3.3.4,4.5-1.1s.9-2.9-.5-4.1-2-2.4-3.5-3L125.6,7c-1.8-2.9-3.7-3.3-5.6-.1a4.1,4.1,0,0,1-1.1.7c-5.5,1.2-10.4,6.8-11.2,12.4-.4,3-.2,6.1-.6,9a5,5,0,0,1-.5,1.3c-1.6,2.7-3.4,5.2-2.8,8.7A4.8,4.8,0,0,1,102.3,43.3Z"/><path class="cls-3" d="M48.1,133.3c-1.1.1-2-.2-2.1-1.4,0-2.8,0-5.5-.1-8.2a13.1,13.1,0,0,0-.1-2.8,1.9,1.9,0,0,0-1-1.4c-.7-.5-2.1.2-2.3,1.1s-1.1,4-.5,6.1c.1.6.3,1.2.4,1.8a1.3,1.3,0,0,1-1,1.9c-1.6.3-2.3,1.5-3,2.8a2.5,2.5,0,0,1-2.4,1.3l-7.1-.3a2.6,2.6,0,0,1-1.1-.7,17.1,17.1,0,0,0-2.6-2.1c-1.9-.9-2.7-2.2-2.2-4.2s-.3-4.4-.1-6.6,0-4.1,0-6.2-.9-2-2.2-1.1a15.8,15.8,0,0,0-1.5,1.2l-.6-.5c-1-1.9-.3-3.8.2-5.6,2-7.4,3.3-15,5-22.5a8.9,8.9,0,0,0,.3-2.8c-.2-.9-.5-1.6-1.3-1.8s-1.5.5-1.9,1.2A28.1,28.1,0,0,0,19.3,89c-1.3,7-1.9,14.2-5.7,20.6a1.4,1.4,0,0,1-1.4.1,5.2,5.2,0,0,1-1.9-3.7c-.7-6.6-3.7-12.8-3.8-19.6,0-1.1-.4-2.5-1.7-2.4s-1.6,1.8-1.4,3,.7,4.7,1.1,7,.7,3.8-.3,5.6l-.6.5C.8,98.5-.5,96,.2,92.9a12,12,0,0,0,0-5c-.4-2.1-.1-4.4-.1-6.7a15.9,15.9,0,0,1,8.7.4,3.4,3.4,0,0,1,2.6,3.6v11A4.3,4.3,0,0,0,13,100a1.2,1.2,0,0,0,1.9-.6,9.7,9.7,0,0,0,.3-2.3c.2-2.7-.4-5.5.6-8.1a1.7,1.7,0,0,0,0-1c-1.4-2.8.1-4.8,2.1-6.6a14.3,14.3,0,0,0,1.4-2c2-2.7,2.7-2.9,6.5-1.5h0c.3,1.2.6,2.3,1,3.5a5.3,5.3,0,0,0,.4,1.8,1.8,1.8,0,0,0,3,.7c1-1,1.7-2.3,3.4-2a3.6,3.6,0,0,1-.6,2.7c-5.2,8.5-7.1,18-7.6,27.8a30.9,30.9,0,0,0,3.1,15.8c1,1.9,2.4,3.5,4.8,3.5s3.1-2.1,3.9-3.8c5.2-11.3,6.2-23.3,5.3-35.5-.4-5.6-5.1-7.7-8.9-10.6,1.1-1.7,2.8-.9,4.3-1s3.7.1,4.3,2.5a1.5,1.5,0,0,0,.9,1,6.6,6.6,0,0,1,3.4,3c.7,1.1,1.2,1,2.6-.2l.7-.6c1.7,1.9,1.5,4.2,1.4,6.4-1,11.9-1.9,23.9-1.9,35.8A6.8,6.8,0,0,1,48.1,133.3Z"/><path class="cls-2" d="M145.7,121.4v.3c.2,6.7-3.2,11-9.2,13.6-4.5,1.9-8.2.7-10.2-3.9a18,18,0,0,1-.6-13.1c.7-2.1,2-3.8,4.5-3.6s3.1,2.4,3.3,4.6-.2,3.8.7,5.6c4.7-2.8,4-11.4-1.4-15-3.3-2.1-6-4.6-6.2-8.6A32.6,32.6,0,0,1,129.5,86c.4-.7,1.2-1.2,1.4-1.9,1.1-3.8,3.4-6.3,7.5-5.9s6.5,4.6,6.9,9.1a3.3,3.3,0,0,0,.4,1.4V91c-1,3.5.2,7.2-1.2,10.7-.9,1.5-2.3,2.3-4,1.4s-1.5-2.3-1.3-3.7a32.9,32.9,0,0,0,.3-9.9,1.9,1.9,0,0,0-.9-1.6c-4.3,4.3-4.1,11.3.3,14.9a14.5,14.5,0,0,1,3.7,3.7c2.4,2.9,2.5,6.3,2.7,9.8C145.4,118,145,119.8,145.7,121.4Z"/><path class="cls-3" d="M145.7,88.7l-.7-2.2a21.5,21.5,0,0,0-1-2.7c-1.3-2.5-3.2-4.6-6.2-4.7s-4.6,1.9-5.8,4.2a24.5,24.5,0,0,0-2.4,5.8,57.7,57.7,0,0,0-1.7,9.4c-.6,4.5.9,8.2,5.4,10.1a6.5,6.5,0,0,1,4.2,4.8,66.6,66.6,0,0,1,1.2,7.6,6.1,6.1,0,0,1-4.5,6.5c-.4.2-1.4-.4-1.4-.7a36.4,36.4,0,0,1-.4-5.7c-.1-1.1.1-2.3,0-3.4a2.6,2.6,0,0,0-4.3-1.5,6.4,6.4,0,0,0-1.5,2.5,22.6,22.6,0,0,0,.5,11.8,8,8,0,0,0,1.9,3.2,4.4,4.4,0,0,0,4.8,1.4,21.7,21.7,0,0,0,8.5-5.1,10,10,0,0,0,2.6-5.1,29.9,29.9,0,0,1,.8-3.2v.4c.2,7,.2,7-4.2,12a4.3,4.3,0,0,1-1.9,1.3c-1.1.7-2.3,1.2-3.3,1.9s-4.1,1.5-6.4-.5l-1.4-1.2c-1.6-1.4-3.6-1.6-5.1-.1a8.1,8.1,0,0,1-3,2.2c-2,.8-3.5.8-5-1.1s-3.4-1.9-3.9-3.3-.2-4.1-.3-6.1a19.4,19.4,0,0,1,.2-2.4c1,2.1,2,4.2,3.1,6.3a18.4,18.4,0,0,0,2.6,4,3.3,3.3,0,0,0,5.6-1.7,24.8,24.8,0,0,0,.3-4.7c0-11-.2-22-.1-33,0-3.2.5-6.3.6-9.5.1-1.7,0-3.5,0-5.2,1.5-.3,2.8-.3,3.1,1.8a2.7,2.7,0,0,0,.6,1.2c.6.8,2.6.6,2.9-.3a3.2,3.2,0,0,0,.3-.9,4.7,4.7,0,0,1,1.8-4.2,8.1,8.1,0,0,1,5.8-1.7,12.7,12.7,0,0,1,2.8.6,2.3,2.3,0,0,1,1.2.6c1.2,1.7,2.4,3.3,3.5,5.1a6.2,6.2,0,0,1,.5,2.7A13.3,13.3,0,0,1,145.7,88.7Z"/><path class="cls-1" d="M10.1,35.6C9,35.1,8,34.3,8.4,33.1c.9-2.8-.2-5.3-.7-7.9a11.5,11.5,0,0,1,.1-6.1,9,9,0,0,0-.1-5.6,19.3,19.3,0,0,1-.4-4.2c-.1-2.2,1.1-3.4,3-4.3a8.6,8.6,0,0,1,7.8.2c1.5.7,2.7,1.9,2.5,3.7a13,13,0,0,0,2.1,7.7,7.6,7.6,0,0,1,.8,4.6c-.3,3.3.8,6.3,1.2,9.4.1.3.7.5,1.1.6s.5-.6.4-.8c-1.2-2.5-.1-5,.4-7.4a10.5,10.5,0,0,0-.8-6.8c-.6-1.3-1.5-2.5-1-4.1S26.3,7.8,28,6.4A6.9,6.9,0,0,1,31.4,5c1.2-.2,1.6.8,1.8,1.8-1.4,1.1-2.8,2-2.9,4-.1.4-.3.7-.4,1.1a4.7,4.7,0,0,0,.3,3.1l.3,1.3c.2,3.9.1,7.7.1,11.6a10.3,10.3,0,0,1-.5,2.4c-2.8,5.7-3.2,11.9-3.3,18.1,0,3.1-.7,5.7-4.7,5.7s-4.7-2.6-4.6-5.7c.2-5.2-.5-10.4,1.8-15.5s.4-8.6-.6-12.7c-.6-2.6-1-5.3-1.7-7.9s-.9-4-3.4-3.7-1.5,2.5-1.8,4c-1,6,.7,12.1-.4,18.1C11.1,32.4,11.6,34.3,10.1,35.6Z"/><path class="cls-3" d="M29.4,11.7c.1-1.1.4-2.1.4-3.1s.7-1.9,2-1.8a6.5,6.5,0,0,0,1.4,0H43.7a3,3,0,0,1,1.9,2.6,14.8,14.8,0,0,1-.7,4.2,3.6,3.6,0,0,1-3.1,1.9,12,12,0,0,0-3.3.2,2.1,2.1,0,0,0-1.3,1.1,17.6,17.6,0,0,0-.6,3.8c.1,3.7.3,7.3.5,11,0,1.4.6,2,2,2.1H43a1.8,1.8,0,0,1,1.6,2c0,.6-.3,1.2-.3,1.8-.3,3.6-.3,3.6-3.8,3.8a5.9,5.9,0,0,0-1.9.1c-.5.2-1.3.7-1.3,1.2-.3,2.8-1.3,5.5-.3,8.4a2.3,2.3,0,0,0,2.4,1.8h5.3c2,.1,3.8-.1,4.1-2.7.1-.4.9-.9,1.5-1a9.1,9.1,0,0,1,2.3.1c-1.2,3.6-.4,7.4-1.1,11.1a39.5,39.5,0,0,0-5.1,2.3,10.3,10.3,0,0,1-6.3,1.8,21.7,21.7,0,0,0-4.1.9H33.2c-4.4,1.2-5.2-3.4-8-4.8a8.3,8.3,0,0,1-.4-1.5c0-2.7-1.7-3.6-4-3.9s-4.2-1.7-4.2-4.4c-.3-12.4-.5-24.9.1-37.3a2.9,2.9,0,0,1,.5-1.3l.7-.6a6,6,0,0,1,.8,2.1c.1,2.1,0,4.1,1.4,5.9s.5,2.1.6,3.2-.1,4.7.7,7.1a4.3,4.3,0,0,1-1.2,4.8,4,4,0,0,0-1.4,3.4c0,4.1-.1,8.3,0,12.4,0,1.8.6,2.3,2.3,2.4h2.3c1.1-.1,2.1-.6,2-1.7-.4-3.7,1-7.2.3-10.9a5,5,0,0,1,.3-2.7c1-2.6,2.2-5.2,3.3-7.7,2.2,3,1.4,6.5.9,9.7a57.8,57.8,0,0,0,.5,18.1c.4,2.6,1.4,4.9,4.4,4.8s6.9-.6,9-3.6-.2-2.5-1.7-2.4c-3.8.3-7.1.9-8-4.6-1.2-8.7-1.1-10.2,4.5-13.7a1.7,1.7,0,0,0,.7-1.6c-5.1-.2-5.3-3.8-5.4-7.9,0-2.5-.4-5.1-.4-7.6,0-6.2,0-6.2,6.1-8.1,1.1-.3,2.4-.6,2.4-1.9s-1.6-1.7-2.8-1.8C35.8,8.8,32.9,11.6,29.4,11.7Z"/><path class="cls-3" d="M72.9,133.6c-1.3,1.5-3.8,1.7-4.4,4.1,0,.2-1,.4-1.6.4s-1.6-.5-2.3-.3-2.8.5-3.7-1.5-2.1-1.7-3.6-1.8H52.6c1.2-14.6.4-29.3.6-43.9,0-2.3.5-5.1-3.3-4.8-.5-5.4.5-5,4.9-4.9,2.1,0,2.6.5,2.6,2.6s.1,4.1,0,6.2.1,1.8-.4,2.3c-2.5,2.8-.8,5.6.2,8s1.2,3.1.4,4.9a11.4,11.4,0,0,0-.7,3.2,5.4,5.4,0,0,0-.1,2.8,6.9,6.9,0,0,1,0,5.1,3,3,0,0,0,3.5,3.7l2.8-.4a1.8,1.8,0,0,1,1.9,1.1,20.1,20.1,0,0,0,1.4,2.5,1.3,1.3,0,0,0,2.3-.4c1.6-3.9.9-7.8.1-11.7-1.4-1.4-2.5-3.2-4.8-3.5a1.9,1.9,0,0,1-1.6-1.5,17.4,17.4,0,0,1-1.1-5.6c.1-2.6-.2-5.1.1-7.7s.2-6.1,3-8.1c.4-.4.5-1.2.8-1.7s.5-1.4,1-1.5,3.3-1.1,3.4-3.4a1.9,1.9,0,0,1,1.1-.4,24.5,24.5,0,0,0,2.7.2c2.5-.2,2.5-.3,3.3,2.2.1.3,0,.6.1.9l-.6.4c-7.1.2-9.6,5.3-11.6,10.9s-1.8,10.8,3.9,14.8,6.1,12.5,3.4,17.6-6.4,5.3-9.8,1.2c-1.8-2.1-2.7-1-3.3.7-1.4,3.9,2.2,8,6.6,7.6,2.3-.2,4.5-1.6,7-.7Z"/><path class="cls-5" d="M84.4,129.5V111.8c.7-8.4.4-16.8.9-25.2.1-1.8.4-3.5,2.3-4.3s3.4-.7,4.4,1.4h0c2.9,5.8,2,12.2,1.3,18.2-.9,7.9-.5,15.8-.8,23.7-.1,1.3.4,2.8-.6,4.1H92c-.9,1.3-.1,2.9-.9,4.2s-1.2,3.2-3.1,3-3-1.7-3.1-3.6S85.1,130.6,84.4,129.5Z"/><path class="cls-3" d="M198.3,46.2c-2.8-.9-3.7-.4-3.8,2s-.2,7.6,0,11.4a23.3,23.3,0,0,1-1.1,7,1.9,1.9,0,0,1-2,1.6,12.2,12.2,0,0,1-3.3,0,11.1,11.1,0,0,0-6,.5c-1.6.7-2.8-.3-4.1-.8s-.6-.7-.7-1.1a19.5,19.5,0,0,1-.2-2.3l.8-.2c4.6,1.5,5.5,1.1,5.5-3.6q.3-21.3,0-42.6a8.9,8.9,0,0,0-.3-2.8c-.6-1.9-.1-4.8-2.8-5s-3.1,2.3-4.4,4-.9,6.4-4.5,7.8c-2.3-5.8-.1-12.4,5.1-15.1,1.1-.6,2.3-1,3.5-.2h2c4.6-2,6.2,2.4,8.9,4.4a40.1,40.1,0,0,1-.4,10.4c-1.4,10.5-1.7,21-2.3,31.5-.1,3-.2,6.3,2.3,8.9,2-1.6,1.5-3.6,1.5-5.4.1-7.1,0-14.1.1-21.1a11.1,11.1,0,0,1,.7-5.1,1.4,1.4,0,0,1,1.4-.8C198.1,34.5,200.2,39.8,198.3,46.2Z"/><path class="cls-6" d="M49.9,85.7a.5.5,0,0,0,.2-.4c.7-1.2,1.2-2.9,3.1-2.3s1.7,2.1,1.7,3.6,0,4.4,0,6.7l-.3,30.1c0,1.9-.1,3.8-.1,5.7a7.2,7.2,0,0,1-1.9,5.3h0c-1.9,1.3-3.3.2-4.6-1.1h.1a16.9,16.9,0,0,1-.4-3.8c.5-11.5,1.2-22.9,1.7-34.4.2-2.9.3-5.7.4-8.6A.8.8,0,0,0,49.9,85.7Z"/><path class="cls-1" d="M180,6.8c-3.5.3-5.4,3.1-7.2,5.5s-1.1,4.1-1.4,6.3.1,2.4.1,3.7l-.4.5c-2.7,1.8-1.4,4.6-1.9,6.9s-.3,4.7-.8,7a3.1,3.1,0,0,1-.6,1.3c-2.5,2.2-2.6,5.2-2.8,8.3s.1,3.5-.5,5.2a3.2,3.2,0,0,1-.8,1.2c-4.1,1.6-7.2.1-8.4-4.4s-1.1-6.1-2.5-9.1,1.8-4.8,2.7-7.2c3.5-1.4,3-4.8,3.6-7.6a4.1,4.1,0,0,1,1.7-2.2c2.5,1.5,2.9,3.4,2.1,6.1s-.9,3.7-2.3,5.1-3.4,5.7-1.8,9.2A6.8,6.8,0,0,1,159,44c.4,1.3,1.2,2,1.9,1.7s.9-1.3.9-2a14.2,14.2,0,0,1,2-7.8,6.5,6.5,0,0,0,.8-3.1c.2-2.1.1-4.2.1-6.2s.6-5.1,3.2-6.5a3.4,3.4,0,0,0,1.6-3.2,13.4,13.4,0,0,1,0-2A6.3,6.3,0,0,1,172,8.6a6.7,6.7,0,0,0,1.4-1.9,3.3,3.3,0,0,1,3.1-1.8C178.1,4.9,179.3,5.3,180,6.8Z"/><path class="cls-3" d="M137.8,7.8l1.9-1h11.5c6.1-.8,10.4,4.5,8.7,10.7-2,.1-2.6-1.6-3.6-2.8a16.8,16.8,0,0,0-4.5-4.3c-6.1-3.5-11.4-.6-11.7,6.3-.6,13.7-2.3,27.4-2,41.1a5.5,5.5,0,0,1-.7,3.3l-.6.5-1.5-1.1c-1.6-1.2-2.1-2.5-1-4.5a15,15,0,0,0,1.4-9.3,2,2,0,0,0-1.2-1.2,1.8,1.8,0,0,0-1.3,1.1c-.7,2.8-1.6,5.4-4,7.4-.2-.2-.3-.4-.5-.5-1.2-3.7-1.5-7.1,2-9.9,1.8-1.4,1-2.4-1-2.7a11.9,11.9,0,0,0-4.2.3c-4.7.9-4.7.9-2.1,4.7s-1,12.7-4.8,14-4.6-.7-4.8-4.1l1.8.8a2.6,2.6,0,0,0,3.2-1.3c.6-.9,1.3-1.7,2-2.6s.8-1.6.1-2.2-1.6-4-2.8-5.9-.4-4.6.6-7h16.2a1.9,1.9,0,0,0,1.9-1.8V32.8c0-3.3.2-6.7,0-10s1-8.2.1-12.3c-.1-.8.6-1.8.9-2.7Z"/><path class="cls-3" d="M76.8,80.6l4,.4c-.6,4,0,7.9.2,11.8a24.7,24.7,0,0,1-.8,6c-.1.5-.9.9-1.4,1.1s-3,.6-2.9,2.5,1.6,1.9,2.8,2.2,1.2,1.2,1.3,2.5a90.8,90.8,0,0,1,.5,12.8c0,2.2.2,4.4-.6,6.6s.2,1.8.2,2.7a1.9,1.9,0,0,1-.5,1.2c-1.7.4-2.7,1.7-4,2.6a10.7,10.7,0,0,1-2.7.6l-.3-.3c-.1-1.4.8-2.3,1.5-3.4,6.9-10,5.2-20.9-4.5-28a5.8,5.8,0,0,1-2.7-5.3,23.7,23.7,0,0,1,3.3-9.9c.7-1.3,1.7-2.5,3.4-2.1s2,1.8,2.2,3.3.1,5.1.5,8.5c2.1-5.8.2-10.7.4-15.6Z"/><path class="cls-3" d="M256.2,138.4c-.5-.2-1.2-.2-1.3-.5-1.2-2.1-2.1-4.3-1.3-6.8a14.5,14.5,0,0,0,.1-8.5c-.4-1.3-.2-2.8-.4-4.2a7.2,7.2,0,0,0-.8-2.2,2.4,2.4,0,0,0-1.7-.2c-.3.1-.6.7-.8,1.1a3.1,3.1,0,0,1-3.4,2.1h-.9c-5.5,1.7-5.5,2-3.8,6.4,1.1,2.8.5,4.9-.8,7.3a3,3,0,0,1-3.2,1.5,1.9,1.9,0,0,0-.2-.7c2-7.3-.4-14.6-.1-21.9a27.9,27.9,0,0,1,.2-5.8c.2-.9.4-2,1.5-2.2s1.6.9,2.1,1.7a22.8,22.8,0,0,1,1.5,3.6c.8,1.8,1.1,4.4,3.5,4.7s3.3-2.6,4.5-4.4a21.6,21.6,0,0,1,2.2-3.6c1.5-1.6,2.4-1.2,3,.7a9.1,9.1,0,0,1,.4,3.3c.1,9.2.1,18.5,0,27.8Z"/><path class="cls-3" d="M207.1,126.9a22.2,22.2,0,0,0,1.8,3.8c3.3,5,7.6,6.1,13.5,3.6a7.6,7.6,0,0,1,.1,1.5c-.1,2-.7,2.6-2.5,2.5s-3.6-.8-5.6-.1-2.3.1-3.4-2.1a3.5,3.5,0,0,0-1.1-1.5,13,13,0,0,1-3.5-3.1,1.4,1.4,0,0,0-2.4.3c-.7,2.3-2.6,2.6-4.4,2.7H186.2c-1.3,0-2-.6-1.8-1.7.5-2.9-.8-5-2.8-6.7a3.9,3.9,0,0,1-1.3-2.9c.1-4.4,0-8.7.1-13,0-1.4.7-2.8.8-4.2s1.4-2.3,3-2.2c-.5,4.4-1,8.8-1.4,13.3a20.7,20.7,0,0,0,1.7,10.7,8.9,8.9,0,0,0,8.6,5.7h1.4c5.2.4,9-1.7,11-6.6C206,126.2,206.5,126.3,207.1,126.9Z"/><path class="cls-3" d="M261,80.7c1.6,0,2.9.3,2.9,2.3s1,2.3.4,3.7a1.9,1.9,0,0,0,.3,1.8c1.4,1.6,1.1,3.5,1.2,5.4a76,76,0,0,1-1.7,18.4,15.9,15.9,0,0,0-.2,3.8v19.5c-.1,2.2-.2,2.2-2.9,2.8-.1-.3-.3-.5-.4-.8.1-11.9-.8-23.8.7-35.7.9-6.8-.9-13.6-.7-20.4A3,3,0,0,0,261,80.7Z"/><path class="cls-3" d="M10.1,35.6c.2-3.6-.5-7.2.8-10.8.3-.8-.3-1.8-.4-2.8s-.6-4.1-.2-6.1.1-5.8.7-8.8c2.1-.8,4,.3,5.9,1a2.4,2.4,0,0,1,.8,1.6,11.1,11.1,0,0,1,.2,1.9l-.3.2c-2.8.2-4.3,1.6-4.2,4.6.4,12.4-1.6,24.8-1,37.2.3,6.5,1.5,7.6,7.8,6.5,1.7-.4,3.4-.9,5.1.3l.2.3c.3,3.7-1.8,5-5.2,5.1H16.5c-7.4-.1-9-2.6-6.4-10Z"/><path class="cls-3" d="M227.1,6.8a3.7,3.7,0,0,1,2.3,1.4,17.3,17.3,0,0,0,4.1,3,26,26,0,0,1,5.7,4.8c.8.8,1,2.2,1.2,3.4a16.1,16.1,0,0,1,.1,3.8c-3-.3-3.4-3.2-4.6-5-2.3-3.6-5.3-6-9.7-6.1-2.7-.1-4.3.9-4.4,3.8-.3,8.9-2,17.7-2.1,26.7,0,2.1.7,4.6-2.1,5.8-.1-7-.5-13.9.3-20.9a43.8,43.8,0,0,0-.4-5.1c0-1.4-.3-2.9.9-4s.8-2.2.1-3.4-1.4-2.7.8-4.2a3.9,3.9,0,0,0,2-4Z"/><path class="cls-1" d="M190.6,10.8c-1.6-.2-3.3.2-4.2-2.1s-2.7-1.9-4.4-1.9c1.5-2.7,4-2.2,6.2-1.4a13.7,13.7,0,0,0,3.5.8c2.9.3,5.2,2.1,7.7,3.4a5,5,0,0,1,1.7,2.7c.5,2,.8,4,1.2,6.2l3.6-2.1a3.1,3.1,0,0,1,1,2.7,7.8,7.8,0,0,1-.2,1.4c-1.6,6.3-1.8,6.4-8.1,2.5a2.8,2.8,0,0,1-.9-1c-1.5-2.9.9-6.7-2.3-9.1l-1-.6-1-.5-.9-.4-1.4-.5Z"/><path class="cls-3" d="M123.5,81l-.9-.3c-2.7-.7-4.2-.1-4.6,2.4a55.3,55.3,0,0,0-1.1,9c-.2,6.6-.1,13.1-.1,19.6a12.5,12.5,0,0,1-.3,3.8c-2.1-2.5-4.4-8.1-5.5-13.6,1.2.3,1.6,2.4,3.2,1.5s.8-2.3.8-3.5c.2-2.8-.3-5.7.8-8.4.2-.5-.1-1.3-.2-1.9s-.4-1.5-.5-2.3c-.5-4.7-.2-5.3,3.4-8.5.8-.7,1.5-2,2.7-1.5S123.9,79.1,123.5,81Z"/><path class="cls-1" d="M10.1,55.8c.3,2.8.6,5.5.9,8.6h9.4a8.3,8.3,0,0,0,3.2-.3c.6-.3.6-1.6,1-2.4s.6-.7.9-1,2.9-.2,3.3,1.1,2.6,2.8,4.4,3.6c-.9,1.7-1.8,2.4-2.7,1.7s-4.6-.7-7.1-.3-7.4,1.8-11.2.6-4.3-1.9-4.8-4.2-.8-5.1,1.9-6.9Z"/><path class="cls-3" d="M91.9,129.7c.1-9.3.3-18.5.3-27.8,0-6.1-.2-12.2-.2-18.2,2.1.9,2.9,2.5,3,4.8.1,3.9,1.2,7.7,1,11.7a11.7,11.7,0,0,0,.8,3.6c-2.8.4-3.9,2.3-3.8,5v17.5C93,127.5,93.2,128.8,91.9,129.7Z"/><path class="cls-3" d="M238,88.4c4,.8,5.6,3.7,6.7,7.2a18.1,18.1,0,0,0,1.3,3.5c.3.5,1.4.7,2.1.6s1.1-.8,1.2-1.2c.3-2.7.1-5.4,1.1-8,.2-.4.2-1.2.5-1.3,2.8-.9,2.1-3.5,2.9-5.5s1.4-2.9,3.3-3l.3.7c-2.2,6.7-3.5,13.8-6.6,20.3-.8,1.7-1.4,4-3.6,4s-2.7-2.4-3.3-4.1a57.1,57.1,0,0,0-4.9-8.7c-.8-1.3-2.1-2.5-1.3-4.3Z"/><path class="cls-3" d="M103.3,136.4c.5-8.6.9-17.2,1.4-25.9a7.8,7.8,0,0,1,.2-1.4c0-.2.3-.6.5-.6a1,1,0,0,1,.7.4c1.8,5.3,3.6,10.6,5.3,15.9l-2.1-.9c-1.7-1.1-1.8-1.1-2,1.2a2.7,2.7,0,0,1-1.3,2.4c-1.3.7-1.5,1.9-1.5,3.2a24.1,24.1,0,0,1-.1,3.8C104.3,135.2,103.7,135.7,103.3,136.4Z"/><path class="cls-3" d="M102.3,43.3c.1-1.1.1-2.2.2-3.2s.5-1,.4-1.4c-1.8-4,.9-6.3,3.3-8.7,1.8,2.2,1.2,4.8.8,7.3-.8,5.2-.5,10.4-.4,15.7s2.3,7.2,3.5,10.8a1.9,1.9,0,0,1-.2.7c-1.9,0-3.5-.5-3.9-2.7a1.4,1.4,0,0,0-.6-1.2c-2.6-1.7-2-4.4-1.5-6.4a7.3,7.3,0,0,0-1.6-6.1Z"/><path class="cls-3" d="M99.7,100.9c0,1.6,0,3.2-.1,4.8-.7,8.4-1.5,16.7-2.2,25.1a14.2,14.2,0,0,0-.2,2.9c0,2.9.8,3.7,4.3,4.4-.3.4-.6,1-.9,1-2.8.1-4.6-1.5-4.7-4.1s0-5.4,0-8.1.5-5.4,0-8.1a3.5,3.5,0,0,1,.2-2.3,4.2,4.2,0,0,0,.3-4.8,5.8,5.8,0,0,1-.1-3.2,24.2,24.2,0,0,0,.5-4.7,1.9,1.9,0,0,0,2-1.5C98.9,101.8,99.4,101.4,99.7,100.9Z"/><path class="cls-3" d="M15.2,133.6c.3,2.4-.2,4.4-2.9,5.2a6,6,0,0,1-2.3.2l-2.8-.6c-2.6-.5-4-2.2-3.3-4.7a11.1,11.1,0,0,0-.1-6.5,15.8,15.8,0,0,1-.1-3.8c0-7.8-.1-15.5-.1-23.3l.2-.2c2.6.7,2.2,2.9,2.1,4.6-.2,7.4,1.5,14.6,1.1,21.9a15.8,15.8,0,0,0,.5,4.3c1.1,5.2,2.4,5.7,7,2.8Z"/><path class="cls-1" d="M159.7,17.8c.4-2.3-.8-4.3-1.2-6.4-2.3-.8-2.8-3.9-5.4-4.1l-1.9-.5c.2-.8.4-1.6,1.3-1.7a12.3,12.3,0,0,1,3.3-.1,4.5,4.5,0,0,1,2.1,1c.7.6,1.1,1.5,1.9,2,3.8,2.7,3.5,6.4,2.8,10.2-.1.8-1.1,1.4-1.8,2.1a2.6,2.6,0,0,1-1.1-1.4A2,2,0,0,1,159.7,17.8Z"/><path class="cls-3" d="M111.1,102c-.9-2.7-1.9-5.3-2.8-8s-2-6.4-4-9.2a4.8,4.8,0,0,0-.9-1.1c-.8-1-1.7-1-2.8.1a12.5,12.5,0,0,0-.8,1.2c.1-4.5.6-4.8,4.6-3.5a4,4,0,0,1,2.8,3,12.1,12.1,0,0,0,2.9,6.4,5.2,5.2,0,0,1,1.1,3C111.3,96.6,111.1,99.3,111.1,102Z"/><path class="cls-3" d="M168.9,126.8c3,1.3,3.4,2,1.8,4.3s-2.1,4-4.6,4.5l-.4.2c-1.7,4-5,2.1-7.9,2.6-.1-3.9-1.4-7.3.5-10.6l2.8-1,.3.6a6.1,6.1,0,0,1-.3,1.3c-.8,1.9-2.5,4.1.6,5a4.4,4.4,0,0,0,5.7-2.9c.5-1.1.3-2.5,1-3.6Z"/><path class="cls-3" d="M92,83.7a10.6,10.6,0,0,0-2.1-1.1,2.8,2.8,0,0,0-3.5,2.3,19.7,19.7,0,0,0-.3,2.4c-.3,6.6-.6,13.2-1,19.9a36.5,36.5,0,0,1-.7,4.6c0-8.3-.1-16.6,0-24.9a29.7,29.7,0,0,1,.9-5.2h0c1.9-.2,3.6-1.4,5.6-.8s1.3.5,1.4,1S92.1,83.1,92,83.7Z"/><path class="cls-3" d="M49.8,73c.1-.2.1-.7.2-1.1a3.4,3.4,0,0,1,4.3-2.6,3.7,3.7,0,0,1,2.9,4.2c-.4,3.4-1.4,4-4.6,2.9a3.2,3.2,0,0,0-.9-.3C50.3,75.8,49.7,75.1,49.8,73Z"/><path class="cls-3" d="M85.8,69.7c.4,0,1-.2,1.3,0s2.9-.9,3.5.4a16.3,16.3,0,0,1,1.2,5.4c.1.4-.7,1.2-1.2,1.2a14.8,14.8,0,0,1-4.2,0,2.2,2.2,0,0,1-1.8-2.8A38.6,38.6,0,0,1,85.8,69.7Z"/><path class="cls-3" d="M19.2,114.5c-.1,4.2-.1,8.5-.1,12.7,0,1.7-.1,3-2,3.8s-1.2,1.7-1.9,2.6v-.2c-2.3-5.6,1.1-10.7,1.6-16,.1-1.3.4-3,2.3-3.1Z"/><path class="cls-3" d="M206.1,19.5a30.3,30.3,0,0,1-.2-3.1V13.6c.1-1.6,0-3.2.2-4.7a2.3,2.3,0,0,1,2.8-1.8l1.8.5c2.8.8,2.8.8,2.8,4.2-3.7-.7-5.7.5-5.5,4.5C208,17.6,208,19.2,206.1,19.5Z"/><path class="cls-3" d="M145.7,121.4a12.8,12.8,0,0,1-.5-2.7,29.5,29.5,0,0,0-3.3-12c-.8-1.6-1.1-3,1.3-3.3l.7.4c-.6,1.1-.8,2.3.2,3s1.7,3.3,1.7,5.2S145.7,118.3,145.7,121.4Z"/><path class="cls-3" d="M84.4,129.5l.9,3.1a8.1,8.1,0,0,0,.7,2.2,2,2,0,0,0,2.2,1.4,3,3,0,0,0,1.8-1.3,21.7,21.7,0,0,0,1.2-3.6l.8-1.7a12.9,12.9,0,0,1-.1,3.4,10,10,0,0,1-1.9,3.7,2.7,2.7,0,0,1-3.4.8c-1.2-.6-2.2-1.3-2.2-2.8Z"/><path class="cls-3" d="M161.1,126.8c0-1,.1-1.9.1-2.8a12,12,0,0,1,7.5,0c.1.9.1,1.8.2,2.8l-.3.2c-2.4.1-4.9.8-7.3,0Z"/><path class="cls-3" d="M143.8,101.6c.6-3.5,1.3-7.1,1.9-10.6,0,3.5,0,7,.1,10.5a2.1,2.1,0,0,1-1.9,2.3h0A1.7,1.7,0,0,1,143.8,101.6Z"/><path class="cls-3" d="M99.8,85.2a34,34,0,0,1,0,14.2Z"/><path class="cls-3" d="M257.1,80.7c.2-.6.2-1.3.6-1.7s1.4-1.4,2.1-1.4,1.1,1.3,1.2,2.2v.9l-.3.4a2.7,2.7,0,0,1-3.4-.2Z"/><path class="cls-3" d="M222.4,134.3l3.9-5.7-.3,3.1C225.6,134.3,225.5,134.3,222.4,134.3Z"/><path class="cls-3" d="M186.3,96.3c-.6,2.3-1.3,4.6-2,7,0-1.9-.1-3.8,0-5.6S185.3,96.3,186.3,96.3Z"/><path class="cls-3" d="M188.1,92.3l-1.8,4C184.9,93.4,185.1,93.1,188.1,92.3Z"/><path class="cls-3" d="M261,138.4c-.4.3-.6.7-1,.9-2,1.1-2.1,1.1-3.8-.9l.2-.3a3.6,3.6,0,0,1,4.4,0Z"/><path class="cls-3" d="M159.8,18.4a11.4,11.4,0,0,1,1,1.9v1.9l-.9,2-.5-.6C158.5,21.8,158.4,20,159.8,18.4Z"/><path class="cls-3" d="M48,133.3a6.8,6.8,0,0,0,4.6,1.1C50.3,136.1,49.5,135.9,48,133.3Z"/><path class="cls-3" d="M237.9,134.5c-1.4,1.2-1.4,1.2-2.8,0l.2-.3a2.1,2.1,0,0,1,2.5.1Z"/><path class="cls-3" d="M101.5,138.2l1.9-2C103.2,138,103.2,138,101.5,138.2Z"/><polygon class="cls-3" points="158.3 127.8 157.9 127.6 158 127.4 158.3 127.8"/><path class="cls-3" d="M85.3,81.7l-.4-.2.4.2Z"/><path class="cls-3" d="M25.8,77.9l.2-.4-.2.4Z"/><path class="cls-7" d="M206.1,19.5c.2-1.2.5-2.4.7-3.7a13.3,13.3,0,0,1,.3-2.8c.7-3.1,2.9-3.8,5.6-1.8a2.1,2.1,0,0,1,.8.6h0a4.2,4.2,0,0,1,0,4.7h.1c-.5,8.7-1,17.4-1.7,26-.5,6.1-1.7,12.2-2.1,18.3-.2.3-.3.5-.1.8-.6,2-.2,4.7-3.4,4.9s-3.4-2.6-4.2-4.8h.1c-3.9-4.4-2.7-10.2-3.9-15.4h0c-.2-5.7-2.1-11-3.9-16.3-.5-.5-.4-1-.3-1.6s-.1,1.2-.6,1.6c0,8.5-.1,16.9-.1,25.4-.1,1.9.1,3.8.1,5.7a6,6,0,0,1-.6,2.3,2.9,2.9,0,0,1-4.8.2,9.6,9.6,0,0,1-.7-2.8,111.7,111.7,0,0,1-.3-15.3c.4-10,1.8-20,2.4-30,.1-1.6,0-3.3,1.1-4.6h.1a1.1,1.1,0,0,1,1.8-.1c.2.2.4.3.6.1a1.9,1.9,0,0,1,1.3,1h-.1c2.9,3,2.9,7,3.8,10.6h0c3.5,4.6,4.2,10.2,5.9,15.4a16.9,16.9,0,0,0,.1,2.3c.1.6,1-.1.4.2s.1.1-.2-.4A5.2,5.2,0,0,1,204,38c-.2-6,1-11.9,2-17.7A.8.8,0,0,0,206.1,19.5Z"/><path class="cls-2" d="M217.6,48.4a6.1,6.1,0,0,0,.5-1.8c.7-8.8,1.4-17.5,2-26.3.1-2,.1-4.1.1-6.2s.6-3.2,3.3-3.6A12.3,12.3,0,0,1,236,15.9c1.6,2.4,3,4.9,4.5,7.3h0a6.1,6.1,0,0,1,2.1,4.2c.6,9.9.9,19.7-3,29.1-3.1,7.4-8.6,11.3-16.1,11.3-4.1,0-6.9-2.4-7.3-6.5A25.7,25.7,0,0,1,217.5,50Z"/><path class="cls-3" d="M217.5,50c-.1,3.9-.1,7.7-.1,11.5a5.2,5.2,0,0,0,1,3.6,5.5,5.5,0,0,0,5.8,2.3c6.3-1,11-3.9,13.6-9.9a39.5,39.5,0,0,0,3.4-13.4c.4-5.1.3-10.2.2-15.3a36.3,36.3,0,0,0-.9-5.6,5,5,0,0,0,4.4-3.1c.2-.4.5-1,.8-1.1,2.9-1,3-3.7,3.2-5.8s.3-2.5,2.1-2.8,1.3-1.1,1.4-1.7,1.2-2,2.6-1.9h2.4a2.6,2.6,0,0,1,2.4,1.2,26.2,26.2,0,0,0,2.2,2.5,5.1,5.1,0,0,1,1.6,3.8c-.1,3,.1,4.1-3.7,4.1-1.2,0-2.9-.1-3.5.6a6.2,6.2,0,0,0-.7,5,6.2,6.2,0,0,1,.2,1.9l-.5.5c-2.8.6-3.5-1.1-3.2-3.3s1.1-6.1,4.6-7.2c1.7-.6,3.1-1.6,2-3.5s-2.6-.9-3.8-.1c-6.8,4.2-7.7,14.3-1.8,19.3a10.7,10.7,0,0,1,2.9,3.8c3.2,7.4,2.6,14.7-1.2,21.7-1.9,3.4-3.7,3.6-6.4,1.3-1.1-.9-2-2.5-3.6-1.2s-1.1,2.9-.4,4.4c2.1,4.6,7,5.6,11.3,2.5s4.3-6.7,7.1-9.5h.7c-.3,1.8-.5,3.5-.7,5.2a8.7,8.7,0,0,0,.1,2.3c.1,1-.2,1.7-1.2,1.6a2,2,0,0,0-2,1.6,5.9,5.9,0,0,1-1,2.1,3,3,0,0,1-2,1l-9.6-.3a2.9,2.9,0,0,1-3-1.8,23.8,23.8,0,0,0-3.5-5,2.2,2.2,0,0,0-3.4,0c-.1.1-.1.3-.2.4l-5.3,6-10.9.3a3.9,3.9,0,0,1-2.6-1.1c-1.6-2.1-4.2-3.7-3.7-6.9a5.9,5.9,0,0,0-.5-2.3c-.7-1.6-.2-2.7.8-3.9A39.4,39.4,0,0,0,217.5,50Z"/><path class="cls-3" d="M156.1,31.9a6.2,6.2,0,0,1-2.3,5,1.6,1.6,0,0,0,0,2.5c2.1,1.9,2.5,4.3,2.2,6.9s2.2,4.4,3.7,6.3a1.7,1.7,0,0,0,1.4.2,13.8,13.8,0,0,0,2.7-.8c2.1,2.7-.6,5.6.5,8.5,1.4-.6,1.2-2.5,2.6-2.9h.7l-.6,6.5-1.7.2c-2.5-.1-4.7,0-6,2.7-.3.6-1.6,1-2.4,1.1a22,22,0,0,1-3.6.1c-1.4-2.6-1-5.1-1.2-7.6l.7-.3c1.9.3,2.4,4.5,4.8,2.6s-.3-3.9-.9-5.7c-1.6-5-3.2-10.1-5-15s-1.3-7.1,3.8-10.7Z"/><path class="cls-3" d="M152.1,60.7c-2.8-.7-3.7-1.4-3.3-3.5s-.8-4.7-.7-7.1c.1-.5-.9-1.2-1.5-1.6s-1.9.7-1.9,1.7c-.2,2.6-.2,5.1-.2,7.7s.1,3.9-.9,5.6h0a4.7,4.7,0,0,1-6-.3c-.4-.3-.5-1-.8-1.6l.2-.2c4.6-.4,5.5-3.2,4.8-7.1a37.3,37.3,0,0,1-.4-10c.2-2.2.9-4.2,3.5-4.6s3.5,1.6,4.1,3.7c1.2,4.4,2.5,8.6,3.6,13,.4,1.4.8,2.8-.3,4.1Z"/><path class="cls-3" d="M209.8,60.6c-.3-7.5.5-15,1.2-22.5.5-5.2.9-10.5,1.5-15.7.2-2-.1-4.2,1.1-6.1l.3,17.3a2.5,2.5,0,0,1-.4,1.7c-1.2,1.8-.8,3.7-.5,5.6s.5,3.5.6,5.2a3.6,3.6,0,0,1-1.5,3.8,3,3,0,0,0-1.3,2.9c0,1.7-.1,3.5-.1,5.2S210.7,60,209.8,60.6Z"/><path class="cls-3" d="M129.2,54a24.4,24.4,0,0,1-.1,3.8c-.5,2.7.2,6-3.2,7.7-.3.1-.3.8-.6,1.2s-.6.9-.9.9c-3.6.3-7.2.6-10.8.6s-3-.3-3.7-3.7v-.2c1.1-.8,2.1-.2,3.2.2,6.6,2,9.7.6,12.6-5.9.8-1.7.6-4.2,3.2-4.8Z"/><path class="cls-3" d="M177.1,64.5a3.2,3.2,0,0,1-1.2-3.3,14.2,14.2,0,0,0-.4-7.9,4.1,4.1,0,0,1,.1-1.9c.1-.7.7-1.6-.4-1.9a3.7,3.7,0,0,0-2.1.8c-.4.4-.5,1.1-.9,1.7s-2.2,4.5-4.6,5.7h-.3c-1.7-6.7,2.3-11.6,9-11,1.5.1,2.7.9,2.5,2.3-.7,5.1.9,10.5-1.5,15.4Z"/><path class="cls-3" d="M263.7,35.6l.3.3c.9,1,2.5,1.9,2.7,3.1a52.6,52.6,0,0,1,.5,8.9,1.8,1.8,0,0,1-.7,1.7c-1.7,1.4-1.6,3.7-2.9,5.2h-.3c-.2-.3-.5-.5-.5-.8-.1-5.9-.6-11.9.2-17.8Z"/><path class="cls-3" d="M202.1,61.5c.5.8.8,1.7,1.3,2.5s4.2,2,5.5-.5l.8-2.1a23.1,23.1,0,0,1,.3,3.7c-.4,2.9-1.5,3.8-4.3,3.5a8.6,8.6,0,0,1-2.3-.5c-.5-.3-1.1-.9-1.1-1.4S202.2,63.3,202.1,61.5Z"/><path class="cls-3" d="M198.3,46.1l3.3,12.7a26.1,26.1,0,0,1,.6,2.7,21.8,21.8,0,0,0-2.3-.9c-1.3-.3-1.6-1.3-1.6-2.5Z"/><path class="cls-3" d="M255.9,26c2.5-.3,4.2,1,5.6,2.8s3.1,4,2.2,6.8l-.3.2c-3.5-2.5-5.1-6.4-7.7-9.5Z"/><path class="cls-3" d="M213.5,16.4V11.7C215,13.6,215,14.4,213.5,16.4Z"/><path class="cls-3" d="M143.6,63.5l.4.2-.4-.2Z"/><path class="cls-8" d="M213.4,116.4c.5-3.7.9-7.5,1.5-11.3a33.8,33.8,0,0,1,3.8-9.7c.7-1.1,1.3-1.1,2.4-.3a5.3,5.3,0,0,1,2.5,3.8c1,8.5.7,16.8-2.3,24.9a18.6,18.6,0,0,1-2.5,4.6c-.6,1-1.5,1-2.5.4a5.1,5.1,0,0,1-2.6-4.2c-.1-2.7,0-5.4,0-8.1Z"/><path class="cls-9" d="M207.1,126.9h-1.6a8.5,8.5,0,0,1,.6-1.7c.1-.3.5-.4.7-.6s.4.6.4.8S207.1,126.5,207.1,126.9Z"/><path class="cls-10" d="M237.8,134.3h-2.5c-1.8-1.7-1.7-4-1.8-6.2-.1-8.4-.3-16.7-.4-25,0-4.1,0-8.3-.1-12.4s1.1-3.6,3.9-2.5l.8.5a9.1,9.1,0,0,0,.9,1.7,50.9,50.9,0,0,1,7.4,13.3,17.8,17.8,0,0,0,1,2.1c.6-.9,1.2-1.5,1.6-2.2a76.3,76.3,0,0,0,5.8-16.2c.5-2.3,1.1-4.6,2.9-6.4l3.4.2a6.9,6.9,0,0,1,1.5,4.4,135.1,135.1,0,0,1,.3,19.1c-.3,4.2-.2,8.5-.3,12.8v15.3a8.5,8.5,0,0,1-1.4,5.4h-4.4c-1.4-1.7-1.4-3.8-1.4-5.9V105.9c-1-.3-1.2.7-1.5,1.3s-1.6,3.4-2.5,5.2a8.2,8.2,0,0,1-1.2,2c-1.9,2.4-4.6,2.3-6.3-.2a17.8,17.8,0,0,1-1.7-4c-.6-1.6-1.2-3.3-1.7-4.9s-.4-.5-.5-.8-.8.8-.8,1.3l.6,14.8.3,9A5.5,5.5,0,0,1,237.8,134.3Z"/><path class="cls-7" d="M51.5,60.4a18.9,18.9,0,0,1-.9-2.1c-.8-3.3-.7-6.5,2-9a.6.6,0,0,0,.7-.2,1.2,1.2,0,0,1,1.9.1h0c2.2-.2,1.9,3.9,4.1,2.7s1.4-3.6,1.8-5.6a19.2,19.2,0,0,0-1-9.8h.1c-2.2-1.6-4.2-3.3-6.9-4.1-4.3-1.2-4.1-5.2-4.7-8.5V21.6c.8-2.4.3-5,.8-7.5s3.5-6.5,6.5-8.5,7.2-.6,9,2.8,1.1,5.6.9,8.4a3.2,3.2,0,0,1-3.1,3.1c-1.8.1-2.4-1.2-2.8-2.7s0-2.3-.9-3.1c-3.4,3.6-3.4,7.4,0,12h0c4.9.9,7.7,3.8,8.7,8.6h0c4.9,8,2.7,20.3-4.5,25.9-4,3-7.6,3-11.7-.2Z"/><path class="cls-3" d="M59,26.1c-3.5-.9-3.7-1-3.8-3.8s-.1-6.7,2-9.6A8.5,8.5,0,0,1,58.8,11a1,1,0,0,1,1.5.5,16.5,16.5,0,0,1,.6,3.2c.2,1.3.2,2.6.5,3.8s1,.9,1.4.9a1.7,1.7,0,0,0,1.4-1,16.8,16.8,0,0,0,.1-8.9c-1.2-3.7-4.7-5-8-3.1a12,12,0,0,0-4.8,5.2,46.5,46.5,0,0,0-2.1,6.3c-.3,1.2-.5,2.5-.8,3.7,0-2.4-.2-4.8,0-7.2s.5-5.4,3.3-6.9a3.5,3.5,0,0,0,1.3-1.4c1.9-3.4,5.2-3.3,8.4-2.9a5.1,5.1,0,0,1,2.3,1.4c.9.7,1.5,1.7,2.4,2.2S68,8.5,67.5,9.6a8.8,8.8,0,0,0,0,6c.7,2.4-.8,4.7-3.2,5.6S59.4,23.1,59,26.1Z"/><path class="cls-3" d="M51.5,60.4c6.2,3.7,16-.6,17.2-10a37.3,37.3,0,0,0-.5-12.9,27.4,27.4,0,0,1-.5-2.8l1.3.6a3.6,3.6,0,0,1,2.5,4.1c-.1,1.3-.2,2.5-.4,3.8a5.4,5.4,0,0,0,0,1.8c.8,4.4-.9,8.1-3,11.7a13.7,13.7,0,0,1-1.6,1.8,9.8,9.8,0,0,0-2,2.1c-1.5,3.5-4.4,4.3-7.8,3.8h-.5c-2.5.4-3.9-.6-4.4-3Z"/><path class="cls-3" d="M60.1,36.5A8.5,8.5,0,0,1,61.4,39a30.3,30.3,0,0,1,.8,10.4,6.7,6.7,0,0,1-2.4,4.5c-1,.9-2.7,1.3-3,.7a5,5,0,0,1,0-2.1c.1-1.5-.9-2.3-1.6-3.3,1.3-.2,3.1.1,4-.7s.7-2.5,1.2-3.8a6.3,6.3,0,0,0,.1-3.6A23.8,23.8,0,0,1,60.1,36.5Z"/><path class="cls-3" d="M48.6,23.9c.2.5.5,1.1.7,1.7a8.6,8.6,0,0,0,5.5,6.7A21.6,21.6,0,0,1,58.2,34a3.1,3.1,0,0,1,2,2.5c-1.2.1-2.3.2-3-1s-2.2-1.9-4.1-1.3-2.9.1-3.6-2.3A20,20,0,0,1,48.6,23.9Z"/><path class="cls-3" d="M67.7,34.7A18.6,18.6,0,0,0,59,26.1c1.5,0,2.9-.1,4.3,0a4.7,4.7,0,0,1,4.3,4.4A29.5,29.5,0,0,1,67.7,34.7Z"/><path class="cls-3" d="M55.2,49.2H53.3C54,48.1,54.6,48.1,55.2,49.2Z"/><path class="cls-7" d="M129,53.8c-.8,2-1.6,4-2.5,6-3.6,7.6-7.6,8.9-15.2,5.1l-1.3-.6c-3.5-3.4-4.8-7.8-4.8-12.5s.4-10.4.6-15.7c.1-2,.3-4.1.4-6.1h0c.9-5.6,1.2-11.2,4.5-16.2,2.2-3.5,4.6-6.2,8.8-6.9h.1c2.2-1.7,4.4-1.5,6.6.2h0c4.2,2.3,5.5,5.1,3.9,8.6s-2.7,3.4-4.7.7h0c-1-1-.4-3.3-2.8-3.3s-3.4,1.2-4.4,3c-2.1,3.7-2.3,8.1-4.4,11.9-.2.2-.3.4-.1.6a181.7,181.7,0,0,0,0,26.6c-.2.3-.1.5.1.6a2.6,2.6,0,0,0,1.3,2.4c2.3,1.9,3.5,1.7,5-.7a24,24,0,0,0,3.3-8.9c.3-1.8.1-2-1.7-2.7s-1.3-.3-1.7-.7a4.1,4.1,0,0,1-1.3-1.9c-.2-1.1.6-1.7,1.5-2.2a.5.5,0,0,1,.4-.2l10.3-1.5a2.7,2.7,0,0,1,2.8,2.2,2.7,2.7,0,0,1-1.4,2.8l-1.3.7a2,2,0,0,0-1.6,2C129.4,49.3,129.2,51.5,129,53.8Z"/><path class="cls-3" d="M119.5,6.9c-5.6,2.5-8.6,7.1-10.4,12.7-.8,2.7-1.4,5.5-2.1,8.2-.2.7-.6,1.4-.8,2.2.1-3.3-.6-6.7.5-10a2.3,2.3,0,0,0-.1-1.4c-.9-1.9,0-2.9,1.6-3.8a2.8,2.8,0,0,0,1.6-1.6c.1-1.7,1.6-2.3,2.3-3.4C113.9,6.9,116.5,6.5,119.5,6.9Z"/><path class="cls-3" d="M113.8,28a24.8,24.8,0,0,1,3.6-12.2,7.4,7.4,0,0,1,5.5-4.2c1.6-.2,2.5.4,2.6,2a13.1,13.1,0,0,1-.1,2.8l-.4-.2c-1-1.5-2.5-2.3-4.1-1.5s-3.1,2.2-2.9,4.4S117,25.9,113.8,28Z"/><path class="cls-3" d="M125.4,16.3c.2.2.4.5.7.6s2.6.6,3-.8c1-3.3,1-6.3-2.3-8.5-.2-.1-.4-.4-.6-.6s1.7-.1,2.2.3a29.4,29.4,0,0,1,4,3.9,1.8,1.8,0,0,1,.5,1.2c.2,2.9-3.2,6.2-6,5.9C125.8,18.2,125.4,17.4,125.4,16.3Z"/><path class="cls-3" d="M113.7,55.2a15.8,15.8,0,0,1-.9-3.1,149.9,149.9,0,0,1,.2-21.2,20.2,20.2,0,0,1,.7-2.3Z"/><path class="cls-3" d="M126.2,7l-6.6-.2c.2-.8.2-2,.8-2.6a3.6,3.6,0,0,1,3.5-1.1,1.8,1.8,0,0,1,1.1.8A28.5,28.5,0,0,1,126.2,7Z"/><path class="cls-3" d="M137.8,7.8l-.4-.2.4.2Z"/><path class="cls-10" d="M19,114.3c-.4,1.5-1,3-1.3,4.6-.9,4.8-1.7,9.7-2.6,14.5L14,135.6a3.4,3.4,0,0,1-3.9,2A3.5,3.5,0,0,1,7,135a5.9,5.9,0,0,1-.5-2.3c-.3-2.4-.6-4.8-.8-7.1L4.8,106c-.2-2.1.1-4.2-1-6.1-.6-4.1-1.1-8.2-1.6-12.3a29.7,29.7,0,0,1-.3-4.2,1.7,1.7,0,0,1,2-1.6,10.1,10.1,0,0,1,3.3,1.6,2.3,2.3,0,0,1,1,2.9A5.3,5.3,0,0,0,8,90c1.5,6.5,2.9,13.1,4.3,19.6.6.4.5.9.4,1.5s.1-1.1.5-1.6C15.1,102.8,17.1,96,18,89a55.9,55.9,0,0,1,1.2-5.6,14.3,14.3,0,0,1,.9-2.7A3.2,3.2,0,0,1,23.3,79a3.4,3.4,0,0,1,2.5,3.1,18.8,18.8,0,0,1-.5,3.3L19,112.9A6.5,6.5,0,0,0,19,114.3Z"/><path class="cls-7" d="M33.6,81.8c1.4-.2,2.8-.6,3.8.9a13.1,13.1,0,0,0,2.1,2,10.7,10.7,0,0,1,4.6,9.5c-.1,5.3-.4,10.5-.7,15.8s-2.4,12.5-5,18.4a17.4,17.4,0,0,1-1.8,3.3,4,4,0,0,1-5.6,1.1,10.8,10.8,0,0,1-5.2-7.1,51.3,51.3,0,0,1-1.6-9.4c-.1-6.4.2-12.8,2-19a42.3,42.3,0,0,1,7.4-15.4Z"/><path class="cls-11" d="M13.2,109.5l-.4,1.6-.5-1.5Z"/><path class="cls-12" d="M143.8,101.6a15.5,15.5,0,0,0,.1,2.2c-1.8.6-1.8.6-2,2.9-1.9-1.6-3.7-3.5-6.3-4.2a2.1,2.1,0,0,1-1.5-2.2,28.5,28.5,0,0,1,2.7-14.4c.8-1.4,2.2-1.5,2.9,0a11.1,11.1,0,0,1,1.3,4c0,3-.3,6-.5,9,0,.7-.3,1.3-.3,1.9s-.2,1.6.7,2a1.8,1.8,0,0,0,2.2-.5A2.3,2.3,0,0,1,143.8,101.6Z"/><path class="cls-7" d="M29.4,11.7C32.7,7.9,37.2,7.9,41.7,8a3,3,0,0,1,3,3.1,3.4,3.4,0,0,1-3.3,3.4h-.5c-1.8,0-3.8-.5-5.5.7,0,1.7-.2,3.5-.1,5.2,0,4.2.2,8.3.3,12.5,0,1.1.3,1.8,1.6,1.8h3.3a2,2,0,0,1,2,1.7,2.1,2.1,0,0,1-1.3,2.3,26.7,26.7,0,0,1-3.6,1.4c-2.3.8-2.5.8-2.3,3.4s.6,7.3,1,10.9A1.4,1.4,0,0,0,38,55.7a55.8,55.8,0,0,1,5.7-.8,2.7,2.7,0,0,1,3,1.9,3.3,3.3,0,0,1-1.3,3.8,27.6,27.6,0,0,1-4.3,2,35.6,35.6,0,0,1-5.6,1.5c-3.1.5-5.5-1.1-5.9-4.2-1-6.5-1.7-12.9-.8-19.5.4-3.5.4-7,.5-10.5V28.3a42.6,42.6,0,0,0-.1-13.8h0a2.1,2.1,0,0,1,.1-2.8Z"/><path class="cls-3" d="M29.3,14.5c.3.4.7.8.7,1.2.1,4.2.5,8.5-.6,12.6C29.4,23.7,29.4,19.1,29.3,14.5Z"/><path class="cls-3" d="M29.4,11.7c0,.9-.1,1.9-.1,2.8C28.1,13.1,28.1,13.1,29.4,11.7Z"/><path class="cls-7" d="M25.3,60.4l-8,1.7c-3.6.7-6.1-1-6.1-4.7-.2-7.4-.1-14.7.1-22.1s.5-12.4.8-18.6a23.6,23.6,0,0,1,.2-3.8A3.1,3.1,0,0,1,14.5,10c1.3-.3,2,.6,2.8,1.5l.3.3.3,24.9c0,4.6-.1,9.2,0,13.8,0,1.1.1,2.2.2,3.4s3-.1,4.4,0c3.8.1,5,2.2,3.3,5.7A5.6,5.6,0,0,0,25.3,60.4Z"/><path class="cls-7" d="M76.7,80.8c3.2,5.5,2.3,11.3.8,17.1a1.4,1.4,0,0,1-.6.7,3.1,3.1,0,0,1-1.3.3c-.2-.1-.6-.4-.6-.6s-.1-2.2-.1-3.3c-.1-2.7-.2-5.5-.4-8.2a2,2,0,0,0-1-1.5c-.3-.1-1.2.4-1.5.8a19.6,19.6,0,0,0-3.8,11.6,2.7,2.7,0,0,0,1.9,3c5.6,2.2,7.7,6.8,8.7,12.2a25.9,25.9,0,0,1,.1,10,17.2,17.2,0,0,1-6.3,10.4c-2.3.6-4.6,1.4-6.9,1.8a7.7,7.7,0,0,1-8.2-10.6,4.4,4.4,0,0,1,1.5-1.8,2.5,2.5,0,0,1,4.1,1.4,12.5,12.5,0,0,1,.3,1.9c.4,1.4,1.1,1.9,2.5,1.6a6.4,6.4,0,0,0,5.4-4.8,18.3,18.3,0,0,0-1-12.6,6,6,0,0,0-2.9-3c-4.5-2.3-5.7-6.2-5.1-10.9a29.6,29.6,0,0,1,4.3-11.6,9,9,0,0,1,1.5-1.9C70.5,80.3,73.2,79.1,76.7,80.8Z"/><path class="cls-7" d="M177.3,64.3c.2-5.2.3-10.5.5-15.7,0-1-.6-1.4-1.6-1s-3.6,1.2-5.4,1.6a2.5,2.5,0,0,0-2,1.9l-1.5,6.5a38,38,0,0,1-1.8,4.7,2.1,2.1,0,0,1-1.4,1,1.4,1.4,0,0,1-1.5-1.5c.1-1.7.3-3.4.5-5.1s.5-3.1.7-4.7h0c1-4.8.4-10.1,3.7-14.4.3-.2.3-.4.2-.7,1.4-4.8.6-10.2,3.8-14.6h0c.9-2.5,1.9-5,2.7-7.6A13.9,13.9,0,0,1,178,9.3c2.1-2,4.8-1.4,5.6,1.3a43.4,43.4,0,0,1,1.1,6.1c.1,1.5.2,2.9.2,4.3-.1,13.9-.1,27.7-.2,41.6a12.1,12.1,0,0,1-.1,1.9,3.3,3.3,0,0,1-2.7,3,3.1,3.1,0,0,1-3.6-1.5Z"/><path class="cls-13" d="M193.5,29.9l.4-1.5c.2.5.3,1,.5,1.5Z"/><path class="cls-3" d="M171.5,22.3a56.1,56.1,0,0,1-3.8,14.6c-.1-2.5-.4-4.9.4-7.4.3-.9-.1-2.1-.3-3.2a3.9,3.9,0,0,1,.8-3.1C169.3,22.1,170.4,22.3,171.5,22.3Z"/><path class="cls-3" d="M167.5,37.6c-1.2,4.8-2.5,9.6-3.7,14.4a36.6,36.6,0,0,1,1-12.3A2.7,2.7,0,0,1,167.5,37.6Z"/><path class="cls-3" d="M159.9,24.2v3.7c-.2,3.1-.3,3.3-3.8,4l-.3-.3c-.4-3.4.7-6,3.9-7.6Z"/><path class="cls-2" d="M159.7,24l-3.9,7.6c-1.5,1.9-3.5,3.5-4.3,5.6s1.2,4.5,2,6.7c1.8,5.6,4,11.1,6,16.6l.3.9a3.3,3.3,0,0,1-1.4,3.8,3.1,3.1,0,0,1-3.8-1.1c-.9-1.1-1.5-2.4-2.3-3.6l-5.1-18.8a1.6,1.6,0,0,0-1.8-1.2c-1.4.2-2.4.8-2.5,1.7a19.3,19.3,0,0,0-.1,2.4c.1,3.5.3,7,.4,10.5,0,1.4.1,2.8,0,4.2-.5,3.3-2.3,4.2-5.4,2.6l-.8-.5c.1-7.2,0-14.3.2-21.5.4-9,1-18.1,1.5-27.1a12.1,12.1,0,0,1,.1-1.9,2.2,2.2,0,0,1,1.7-2c8.5-3.1,14.3-.1,17.8,6.4l1.4,2.5c-.2.2-.1.4.1.6C159.8,20.2,159.8,22.1,159.7,24Z"/><path class="cls-3" d="M203.2,38.4,199,25.9c-.4-1.1-.6-2.4-.9-3.6,2-.1,3.5,1.2,5.1,2.2s1.5.1,1.7-.8-.2-2.6,1.1-3.4a109.6,109.6,0,0,1-1.2,19C203.7,40,203.6,39,203.2,38.4Z"/><path class="cls-3" d="M198.1,22.3c-1.2-3.5-2.5-7-3.8-10.6,3.4.4,3.9.7,3.9,3.5S198.2,20,198.1,22.3Z"/><path class="cls-3" d="M192.5,10.7h-1.8C191.2,9.7,191.8,9.7,192.5,10.7Z"/><path class="cls-3" d="M194.4,11.8l-1.3-1Z"/><path class="cls-14" d="M161.3,127c2.4-1.3,4.9-1.8,7.3,0,.2.8.4,1.6.5,2.3,0,3-.9,4.3-3.7,5.3a14.6,14.6,0,0,1-3.6.9,3.2,3.2,0,0,1-3-4.6A23.4,23.4,0,0,1,161.3,127Z"/><path class="cls-15" d="M54.9,74.3c-.4.2-1.1.8-1.7.8a1.5,1.5,0,0,1-1.5-1.9A1.4,1.4,0,0,1,53.4,72C54.4,72.1,55,73,54.9,74.3Z"/><path class="cls-16" d="M88.8,76.1a1.8,1.8,0,0,1-2-1.6,1.7,1.7,0,0,1,1.5-1.6,2,2,0,0,1,2.2,1.4C90.7,75.1,89.9,76,88.8,76.1Z"/><path class="cls-3" d="M224.2,37.6l.3-19.2c0-2.1,1.2-2.5,2.8-1.8a3.4,3.4,0,0,1,1.6,1c3.1,3,5.4,6.5,5.8,10.8.7,7.5.5,15-1.9,22.3a36.2,36.2,0,0,1-2.8,6,5.5,5.5,0,0,1-2.1,1.9c-3.4,1.3-4,1.6-3.9-2.3V37.6Z"/><path class="cls-7" d="M255.7,26.3c4,2,5.8,5.8,7.7,9.5a63,63,0,0,1-.1,18.9l-1.2,3a20.2,20.2,0,0,1-6.5,8.2c-3.5,2.6-7.2,2.3-10.3-1a16.7,16.7,0,0,1-2.5-4,4.7,4.7,0,0,1,.3-4.6,3.2,3.2,0,0,1,5.3-.2c.4.6.7,1.4,1.1,2.1s1.8,1.4,3,.2a10.7,10.7,0,0,0,3.1-5.3,32.5,32.5,0,0,0,.9-12.8,20.5,20.5,0,0,0-.5-2.4,9.5,9.5,0,0,0-4.5-5.9c-3.9-2.2-4.8-4.5-4-8.7a22.2,22.2,0,0,1,6-11.3,8.3,8.3,0,0,1,3.2-2,3,3,0,0,1,3.8,2,5.3,5.3,0,0,1-.5,4.6,1.7,1.7,0,0,1-2.4.7c-1.1-.7-1.9-.5-2.3.6a48.7,48.7,0,0,0-2.1,5.3,2.8,2.8,0,0,0,.4,2.2C254,25.9,255,26,255.7,26.3Z"/><path class="cls-17" d="M32.8,124.7c-4.1-8.5-3.1-25.6,2.1-35.7a4.7,4.7,0,0,1,3.2,3.7,2.9,2.9,0,0,1,.2.9c-.1,10.3-.2,20.5-4.7,30C33.5,123.9,33.2,124.1,32.8,124.7Z"/><path class="cls-18" d="M178.1,23.2c0,5.7.1,11.4.1,17.1,0,2.1-.3,2.3-2.4,2.8l-4.1.7c-.1-.5-.4-.8-.3-1,1.9-6.6,3.8-13.1,5.8-19.6Q177.7,22.5,178.1,23.2Z"/><path class="cls-19" d="M178.1,23.2h-.9c.2-.5.3-1,.5-1.6Z"/><path class="cls-20" d="M142.7,24.7V15.6c0-2.1.8-2.8,2.9-2.8a8.8,8.8,0,0,1,8.3,7.3,6.4,6.4,0,0,1-.8,3.6,73.4,73.4,0,0,1-6,8.6,17.4,17.4,0,0,1-3.6,3c-1.6-1.4-.5-3.2-.7-4.8a56.1,56.1,0,0,1,0-5.8Z"/></g></g></svg>