<svg xmlns="http://www.w3.org/2000/svg" viewBox="0 0 315.1 315.1"><defs><style>.cls-1{fill:#fff;}.cls-2{fill:#335898;}.cls-3{fill:#fefefe;}.cls-4{fill:#335899;}.cls-5{fill:#34599a;}.cls-6{fill:#355999;}.cls-7{fill:#345899;}.cls-8{fill:#345898;}.cls-9{fill:#c0c2d4;}.cls-10{fill:#f9fafb;}.cls-11{fill:#abcee1;}.cls-12{fill:#3a5c9b;}.cls-13{fill:#45629d;}.cls-14{fill:#4a669f;}.cls-15{fill:#fcfcfd;}.cls-16{fill:#f6f9f9;}.cls-17{fill:#afcddd;}.cls-18{fill:#fafbfc;}.cls-19{fill:#365a9a;}.cls-20{fill:#4264a0;}.cls-21{fill:#345999;}.cls-22{fill:#355a9a;}.cls-23{fill:#35599a;}.cls-24{fill:#516ea4;}.cls-25{fill:#375a9a;}.cls-26{fill:#375b9b;}.cls-27{fill:#102751;}.cls-28{fill:#385b9b;}.cls-29{fill:#365b9b;}.cls-30{fill:#375b9a;}.cls-31{fill:#0f2650;}.cls-32{fill:#ebf3f5;}.cls-33{fill:#d8fbfc;}.cls-34{fill:#edf3f7;}.cls-35{fill:#d2f5f9;}.cls-36{fill:#bdd0de;}.cls-37{fill:#fdfdfd;}.cls-38{fill:#628fa5;}</style></defs><title>logosquare1</title><g id="Layer_2" data-name="Layer 2"><g id="logosquare"><rect class="cls-1" width="315.1" height="315.05"/><path class="cls-1" d="M244.1,28.3a13.7,13.7,0,0,1-2-1.3,1.6,1.6,0,0,1-.7-1.1c-.4-2,1.6-5.6,3.4-6.3,3.6-1.5,7.1-1.6,9.8,1.8a1.9,1.9,0,0,0,2.1.6,27.4,27.4,0,0,1,2.8-.5c.3.4.7.9.6,1.3-4.7,12.9-2.5,26.3-3.2,39.6a15.5,15.5,0,0,1-.4,2.1c-.8,3.3-3.6,5.9-2.7,9.9s3.2,7.2,8.3,7.4,8.4-.3,11.3-4.4,4.9-3.8,7.8.1,3.9,4.5,7.7,4.4c8.2-.3,10.3-1.8,11.6-9.8a20,20,0,0,1,.4-2.4,15.2,15.2,0,0,1,1.2-3.6c3.8-5.3,2.5-10.4-.7-15.3-.5-4.9-3.3-8.1-7.7-10.1-2.1-5.7-1.4-7.3,4.3-8.7,3.5-.8,2.8-3.2,1.8-5s-2.8-4.7-5.9-4.2-4.9,3.2-5.8,6.1c-1.4,4.7-3.8,8.2-8.8,9.5a2.6,2.6,0,0,1-1.1-.7c-.6-5.7-3.9-9.3-8.8-11.8a8.4,8.4,0,0,1-4.1-4.4,7.5,7.5,0,0,1,1.6-1.5,2.4,2.4,0,0,1,1.8.4c1.8,1.5,3.5,3.3,6.2,3.2a.9.9,0,0,1,.8.5c1.5,2.4,4.9,3,6,6a1.6,1.6,0,0,0,1.1.4c.2,0,.5-.4.5-.7a9.7,9.7,0,0,0,.2-2.4,3.4,3.4,0,0,1,1.4-2.9c2.6-1.6,4.7-3.9,7.5-5.1a8.1,8.1,0,0,1,8.7,2.1c.4.5.6,1.2,1,1.6,3.4,3.1,2.9,6.7,1.5,10.5a2.8,2.8,0,0,1-2.2,2.2l-1.9.4a1.4,1.4,0,0,0-.5,2.6c.4.4,1,.7,1.5,1.2,2.2,2,4.3,4.2,4.2,7.7a2.7,2.7,0,0,0,1.8,2.6c1.7.8,2,2.3,2,4-.1,3.3-.1,6.7,0,10.1a5.6,5.6,0,0,1-1.9,4.6c-1.3,1.1-2.3,2.4-1.3,4.2-.7,2.9-.9,6-3.4,8.2a6.4,6.4,0,0,0-1.6,1.7c-1.2,2.9-3.8,3.3-6.3,3.6a25.1,25.1,0,0,1-6.7,0c-2.3-.3-4.7-.9-6.4-2.9a9.6,9.6,0,0,0-2.2-1.8c-1.7-1-2.2-.9-3.8.4-5.8,5.3-12.7,5.1-19.7,3.5l-.9-.4c-1.3-.3-1.4-2.5-2.9-2.1s-2.2,1.4-3.3,1.9-4.1,1.6-6.4.6-3.2-2.6-4-4.5-.3-.9-.5-1.3a1.2,1.2,0,0,0-.8-.4,1.2,1.2,0,0,0-.7.5c-2.1,5.6-2.1,5.6-7.7,5.6-3.4.1-6.7.1-10.1,0s-5.3-1.2-6.2-4.6-1-4.7-1.5-7c-1.6,1.1-1.5,2.7-1.6,4.3s-.7,3.3-3.5,3.5a7.6,7.6,0,0,0-5.5,2.3c-2.5,2.3-5.7,1.8-8.6,1.2a4.2,4.2,0,0,1-2.1-1.9,28,28,0,0,1-1.5-3c-.4-1-1.1-1.3-1.7-.5s-2.7,2-4.5,1.9h-3.4a4.8,4.8,0,0,1-5.2-2.5c-1-1.8-2.3-1.6-3.7.2a5.7,5.7,0,0,0-1.1,1.6c-1.5,3.4-4.5,4.2-7.8,4.5a55.4,55.4,0,0,0-8.1.7,6.3,6.3,0,0,1-5.6-2.1,85.7,85.7,0,0,1-6.8-7.9,8.9,8.9,0,0,1-1.8-5.3c.3-2.9.3-6.1,2.8-8.4,2.7.8,3,3,2.7,5.3-.7,4.9,1.5,8.4,5.4,11.1,1.1,2.8,3.6,2.5,5.9,2.5,8.8.1,10.8-1,11.7-10.4a9.2,9.2,0,0,1,.5-2.8,36.8,36.8,0,0,0,3.1-6.3c.5-1.6,1.1-3.2,3.2-2.8s2.1,2.2,2.2,3.8a13.4,13.4,0,0,1-1.1,6.5c-.8,2.1-.7,4,1,5.6a5.4,5.4,0,0,0,5.8,2.5c.6.1.6.1.4-1.4.2-3.3,0-6.6.2-10s.7-4,3.2-4,2.5,1.9,3,3.7-.5,6.5,2.6,8.7a7.3,7.3,0,0,1,1.3,4c.4,3.1,2.5,4,4.9,2a10.1,10.1,0,0,1,5.8-2.9c3.5-.4,1.6-4,3-5.7L210,65a3.2,3.2,0,0,1,3.6-1.6c1.6.4,1.1,1.9,1.4,3.1,1.1,4.2-.3,8.6,1.2,12.7.6,2.2,2,3.2,4.3,2.7l1.9-.3c8.9-.8,8.9-.8,9-10.1a56.1,56.1,0,0,1,.1-8.2c.4-2.6,1.3-4.8,4.7-3.3a3.1,3.1,0,0,1,.9,1.1c1,2.9.5,5.9.6,8.8s.2,4.1,2.3,5.2a4.8,4.8,0,0,1,.9,1.1c.1.6-.1-.1.2.5s-.6,5.5,3.2,5.2,2.3-3.8,2.8-6a7.7,7.7,0,0,1,.2-1.5c.6-4.4-.1-9,2.8-12.9a4.3,4.3,0,0,0,.3-2.8c-.9-8.6.7-17.1.2-25.7l.3-1.4a6.4,6.4,0,0,0,.3-4.9l-.4-1.2c-3.3-3.3-4.4-3.2-5.6.7A3.6,3.6,0,0,1,244.1,28.3Z"/><path class="cls-1" d="M81.9,21.5c.7-1.5,1.9-1.9,3.5-1.9a3,3,0,0,0,2.9-1.4c1.2-2.6,3.7-2.9,5.9-3.3s6,.4,9,1.1a3.2,3.2,0,0,1,1.4,1.2c1.2,1.7,2.3,3.4,3.4,5.1a4.8,4.8,0,0,1,.4,4.6,8.7,8.7,0,0,0,0,7.4c.2.5.4,1.4.1,1.8-1.6,2.9.5,5.6.5,8.4,0,.8.9,1.7,1.6,2.3s2.1,3.4,2,5.6c-.1,4.1,0,8.3,0,12.4.1,2-.2,3.8-1.9,5.2a5.7,5.7,0,0,0-2.1,4.1,4.3,4.3,0,0,1-2.8,3.6,5.4,5.4,0,0,0-1.6,1c-2.4,2.9-6,2.4-9.2,3.2a5.9,5.9,0,0,1-4.6-.9,5,5,0,0,0-5.4-.1c-1.1.6-2.4.8-3.6,1.4s-4.6.3-6.7-.9c-.3-.2-.3-.9-.5-1.3s.8-1.6,1.6-1.6c4.7.1,8.5-2.8,12.9-3.9a2.9,2.9,0,0,1,1.3.5c4,4.1,7.6,3.6,11.7-.1,6.1-5.8,6.8-12.9,6.8-20.5,0-2.1-1.4-3.1-2.6-4.3a4.1,4.1,0,0,1-.7-1.1c.1-5.2-2.7-7.5-7.6-7.8a1.6,1.6,0,0,1-.8-1,3.7,3.7,0,0,1,2.7-4.1c4.5-1.7,5.2-4.7,4.7-9.1-.3-2.4-.3-4.5-2.4-6.3s-6.1-2.5-8.9,0-5.6,6.5-5,11.3c.1,1.2,0,2.5,0,3.8a12.2,12.2,0,0,1,0,2.7,21.9,21.9,0,0,0,.4,5.7c.5,1.9,1.1,3.6,3.7,3.3s4.2,1.9,6.2,3.1l.8,1.2a17.6,17.6,0,0,1,.5,9.4c-.6,2.3-1.8,3.6-4.3,3.5l-1.3-.2a5,5,0,0,0-3.2.1l-1.3.5c-2.6,3.2-6.1,4-10.2,3.8s-5.2-1.7-5.6-5.1.7-8.1,4.1-8.9c1.8-.5,3.4-.6,3.5-3s-1.9-2.2-3.3-2.4S74.1,48,74,45.5s-.4-7.9-.2-11.9c.2-2.3,1-3.9,3.5-4.6C82.9,27.5,82.8,27.4,81.9,21.5Z"/><path class="cls-2" d="M137.9,115.6c0-.5.1-1,.1-1.5a56.2,56.2,0,0,0,0-14.2v-.3c1.6-3.3,3.8-3.5,5.8,0s3.9,7.3,4.5,11.5a34.5,34.5,0,0,0,1,5.6h-.1a41.2,41.2,0,0,1,4.7,10.3c-.2-8.9.9-16.7.4-24.6a9.3,9.3,0,0,1,1.4-5.9c1.6-2.5,3.6-3.8,6-.7v-.2l-.2.2a4.2,4.2,0,0,1,1.5,4.3c-1.5,14.2-.4,28.4-.7,42.7-.1.6,0-.2,0,.4-.1,5.2-1.8,8.6-4.6,8.4s-5.7-3.6-6.9-7c-.7-1.6-.8-3.4-1.4-5.1h.1c-3.1-3.5-3.7-8.2-5.7-12.3.6,8.1-1.6,15.9-2.4,23.9v-.2a2.6,2.6,0,0,1-2,2h.1c-3.7,1.1-5.3-1.3-5-4.1C135.6,137.6,134.7,126.4,137.9,115.6Z"/><path class="cls-1" d="M140.5,58a3.1,3.1,0,0,1-2-3c0-3.1.1-6.1,0-9.1a4.2,4.2,0,0,1,1.3-3,11.5,11.5,0,0,0,2.6-8V31.6c-.2-2.1.4-3.7,2.4-4.7a5.3,5.3,0,0,0,2.3-2.4,9.7,9.7,0,0,1,4.1-4.4,9.6,9.6,0,0,0,3.1-2.9c2-3.2,9.3-3.4,11.5-.3s3,2.8,4.5,4.2,1.4,1.1,3.3-.3a5.1,5.1,0,0,1,2.5-1.1c1.2-.1,1.7.8,1.8,1.8a2,2,0,0,1-1.2,1.3c-1.1.5.1,1.4-.3,2,.2,8.1-.2,16.2-.2,24.3,0,2.9-1.6,4.3-4.4,4.4H161.3c-3.7.2-4.9,1.8-3.7,5.2s1.8,3.8,2.4,5.7-1,5.3-3.1,7-3.8,1-5.4-.9a10.1,10.1,0,0,1-.7-1.5c-.3-8.1-.1-16.2-.1-24.2a4.1,4.1,0,0,1,.3-1.6c2-3.3,3.9-6.5,4.4-10.6s3.8-5.3,8-3a9.4,9.4,0,0,1,1,1c2.1,2,3.3.4,4.5-1.1s.9-2.9-.5-4.1-2.1-2.4-3.5-3l-1.1-.8c-1.8-2.9-3.7-3.3-5.6-.1a4.1,4.1,0,0,1-1.1.7c-5.5,1.2-10.4,6.8-11.2,12.4-.5,3-.2,6-.7,9a5,5,0,0,1-.4,1.3c-1.7,2.7-3.4,5.2-2.8,8.7A4.8,4.8,0,0,1,140.5,58Z"/><path class="cls-3" d="M86.2,148c-1,.1-1.9-.2-2-1.5s0-5.4-.1-8.1a14.3,14.3,0,0,0-.1-2.9,2.8,2.8,0,0,0-1-1.4,1.8,1.8,0,0,0-2.3,1.2c-.4,2-1.2,4-.6,6.1a12.1,12.1,0,0,1,.5,1.8c.2,1-.1,1.7-1,1.9s-2.3,1.5-3,2.8a2.6,2.6,0,0,1-2.4,1.3l-7.1-.3a3.7,3.7,0,0,1-1.2-.7,12.7,12.7,0,0,0-2.5-2.1c-1.9-.9-2.7-2.2-2.2-4.2s-.3-4.4-.1-6.6,0-4.2-.1-6.2-.8-2-2.1-1.1-1,.8-1.5,1.1l-.6-.4c-1-1.9-.3-3.8.2-5.6,2-7.4,3.3-15,5-22.5a6.7,6.7,0,0,0,.2-2.8,2,2,0,0,0-1.3-1.9c-.9-.2-1.4.6-1.8,1.3s-1.2,4.3-1.6,6.5c-1.3,7-1.9,14.2-5.7,20.6a1.4,1.4,0,0,1-1.4.1,5.2,5.2,0,0,1-1.9-3.7c-.7-6.6-3.7-12.8-3.8-19.6,0-1.1-.4-2.5-1.8-2.4s-1.5,1.8-1.4,3,.7,4.7,1.2,7,.7,3.8-.4,5.6l-.5.4a6.1,6.1,0,0,1-3.4-7.1,12.5,12.5,0,0,0,0-5.1c-.4-2.1-.1-4.3-.1-6.6a15.9,15.9,0,0,1,8.7.4,3.3,3.3,0,0,1,2.6,3.5c-.1,3.7,0,7.4,0,11.1a4.1,4.1,0,0,0,1.6,3.8,1.3,1.3,0,0,0,1.9-.6l.3-2.4c.2-2.6-.4-5.4.6-8a1.7,1.7,0,0,0,0-1c-1.4-2.9.1-4.8,2.1-6.6a24.3,24.3,0,0,0,1.4-2c2-2.8,2.6-2.9,6.5-1.5h0l.9,3.5c.2.6.2,1.2.4,1.8s2.3,1.7,3.1.7,1.6-2.3,3.3-2.1a3.4,3.4,0,0,1-.5,2.8c-5.3,8.5-7.1,18-7.6,27.8a30.9,30.9,0,0,0,3.1,15.8c1,1.9,2.4,3.5,4.7,3.5s3.1-2.1,3.9-3.8c5.3-11.3,6.3-23.3,5.4-35.5-.4-5.6-5.1-7.8-8.9-10.6,1-1.7,2.8-.9,4.2-1s3.8.1,4.4,2.5a1.5,1.5,0,0,0,.9,1c1.6.4,2.5,1.6,3.4,3s1.2,1,2.5-.2l.8-.6c1.7,1.8,1.5,4.2,1.3,6.4-.9,11.9-1.8,23.8-1.8,35.8C87.5,145,87.4,146.7,86.2,148Z"/><path class="cls-4" d="M183.9,136.1v.3c.1,6.7-3.2,11-9.2,13.5-4.5,2-8.3.8-10.2-3.8a18,18,0,0,1-.6-13.1c.7-2.1,2-3.8,4.5-3.6s3.1,2.4,3.3,4.6-.2,3.8.6,5.6c4.8-2.8,4-11.4-1.3-15-3.3-2.1-6-4.6-6.2-8.6a31.5,31.5,0,0,1,2.9-15.3c.4-.7,1.2-1.2,1.4-2,1.1-3.7,3.3-6.2,7.5-5.8s6.5,4.6,6.9,9.1a3.3,3.3,0,0,0,.4,1.4v2.3c-1,3.5.1,7.2-1.2,10.7-.9,1.5-2.3,2.3-4,1.4s-1.5-2.3-1.3-3.7a29.9,29.9,0,0,0,.2-9.9,1.9,1.9,0,0,0-.9-1.6c-4.2,4.3-4,11.3.4,14.9a14.5,14.5,0,0,1,3.7,3.7c2.4,2.8,2.5,6.3,2.7,9.8C183.6,132.7,183.2,134.5,183.9,136.1Z"/><path class="cls-3" d="M183.9,103.4a15.5,15.5,0,0,1-.7-2.3c-.4-.9-.6-1.8-1-2.6-1.3-2.5-3.2-4.6-6.2-4.8s-4.6,2-5.9,4.3a25.2,25.2,0,0,0-2.3,5.7,77.8,77.8,0,0,0-1.8,9.4c-.5,4.6,1,8.3,5.5,10.2a6.7,6.7,0,0,1,4.2,4.8,63.3,63.3,0,0,1,1.2,7.6c.2,3.2-1.5,5.4-4.5,6.5-.4.2-1.4-.4-1.4-.7a54.8,54.8,0,0,1-.5-5.7c0-1.1.2-2.3.1-3.4a2.5,2.5,0,0,0-1.7-2.1,2.6,2.6,0,0,0-2.7.6,6.6,6.6,0,0,0-1.4,2.4,22.9,22.9,0,0,0,.5,11.9,8.8,8.8,0,0,0,1.9,3.2,4.3,4.3,0,0,0,4.8,1.4,21.7,21.7,0,0,0,8.5-5.1,10,10,0,0,0,2.6-5.1,29.9,29.9,0,0,1,.8-3.2v.4c.2,7,.2,7-4.2,12a6.4,6.4,0,0,1-1.9,1.3l-3.3,1.8c-2.5,1.6-4.2,1.6-6.4-.4l-1.4-1.3c-1.6-1.3-3.7-1.5-5.1,0a8.1,8.1,0,0,1-3,2.2c-2.1.8-3.6.8-5-1.1s-3.4-1.9-3.9-3.3-.3-4.1-.3-6.2.1-1.6.1-2.3l3.2,6.3a21.1,21.1,0,0,0,2.6,4,3.3,3.3,0,0,0,5.6-1.7,25.3,25.3,0,0,0,.3-4.8c0-10.9-.2-21.9-.2-32.9.1-3.2.6-6.4.7-9.5a44.7,44.7,0,0,0-.1-5.2c1.6-.3,2.9-.3,3.2,1.8a2.7,2.7,0,0,0,.6,1.2c.6.8,2.5.5,2.9-.3a2.9,2.9,0,0,0,.2-.9,4.8,4.8,0,0,1,1.9-4.2,8.1,8.1,0,0,1,5.8-1.7l2.8.5a2.9,2.9,0,0,1,1.2.7c1.2,1.7,2.4,3.3,3.5,5.1a5.9,5.9,0,0,1,.5,2.7A13.3,13.3,0,0,1,183.9,103.4Z"/><path class="cls-1" d="M48.3,50.3c-1.1-.5-2.1-1.3-1.8-2.5,1-2.8-.1-5.3-.6-7.9a11.5,11.5,0,0,1,0-6.1,8.9,8.9,0,0,0,0-5.6,28.4,28.4,0,0,1-.5-4.2c-.1-2.2,1.2-3.4,3.1-4.3a8.6,8.6,0,0,1,7.8.2,3.8,3.8,0,0,1,2.5,3.7,13,13,0,0,0,2.1,7.7,7.4,7.4,0,0,1,.8,4.6c-.3,3.3.8,6.3,1.2,9.4,0,.3.7.5,1.1.5s.5-.5.4-.7c-1.2-2.5-.2-5,.3-7.4a10.2,10.2,0,0,0-.7-6.9c-.6-1.2-1.5-2.4-1-4s1.4-4.3,3.2-5.7a6.5,6.5,0,0,1,3.4-1.4c1.2-.2,1.6.8,1.7,1.8s-2.7,2-2.8,3.9-.3.8-.4,1.2a4.7,4.7,0,0,0,.2,3.1,3.1,3.1,0,0,1,.3,1.3,112.2,112.2,0,0,1,.1,11.6,6.7,6.7,0,0,1-.4,2.4c-2.8,5.7-3.2,11.9-3.3,18.1,0,3.1-.7,5.7-4.7,5.7s-4.8-2.6-4.6-5.8c.2-5.1-.5-10.3,1.8-15.4s.4-8.6-.6-12.7c-.6-2.6-1-5.3-1.7-7.9s-.9-4.1-3.4-3.7-1.5,2.5-1.8,4c-1,6,.7,12.1-.4,18.1C49.3,47.1,49.8,49,48.3,50.3Z"/><path class="cls-3" d="M67.6,26.4c.1-1.1.4-2.1.4-3.2s.7-1.8,2-1.7a5.7,5.7,0,0,0,1.3,0H81.9c1.1.6,1.9,1.3,1.8,2.6a11,11,0,0,1-.6,4.1A3.2,3.2,0,0,1,80,30.1a17.6,17.6,0,0,0-3.3.3,1.8,1.8,0,0,0-1.3,1.1,12.6,12.6,0,0,0-.6,3.8c.1,3.7.2,7.3.4,11,.1,1.4.7,1.9,2.1,2.1h3.8a1.7,1.7,0,0,1,1.7,1.9c0,.7-.3,1.3-.3,1.9-.3,3.5-.3,3.5-3.8,3.8a5.7,5.7,0,0,0-1.9.1c-.6.2-1.3.7-1.4,1.2-.2,2.7-1.3,5.5-.2,8.4a2.2,2.2,0,0,0,2.4,1.8h5.2c2.1.1,3.9-.1,4.2-2.7.1-.4.9-.9,1.4-1a6.5,6.5,0,0,1,2.4.1c-1.2,3.6-.4,7.4-1.1,11.1a48.3,48.3,0,0,0-5.2,2.3,9.8,9.8,0,0,1-6.2,1.8,21.7,21.7,0,0,0-4.1.9H71.3c-4.3,1.2-5.2-3.4-7.9-4.8a4.2,4.2,0,0,1-.4-1.5c-.1-2.7-1.7-3.6-4-3.9s-4.2-1.7-4.2-4.4c-.3-12.4-.6-24.9.1-37.3a3.9,3.9,0,0,1,.5-1.4l.6-.5a9.5,9.5,0,0,1,.9,2.1c.1,2,0,4.1,1.4,5.9s.5,2.1.5,3.2,0,4.7.8,7.1a4.4,4.4,0,0,1-1.2,4.8,4.3,4.3,0,0,0-1.5,3.4c.1,4.1,0,8.2.1,12.4,0,1.8.6,2.3,2.2,2.4h2.4c1.1,0,2-.5,1.9-1.6-.3-3.7,1.1-7.2.3-10.9a5.1,5.1,0,0,1,.4-2.7c1-2.6,2.2-5.2,3.3-7.7,2.2,3,1.4,6.5.9,9.7a55,55,0,0,0,.5,18.1c.4,2.6,1.4,4.9,4.4,4.7s6.8-.5,9-3.5-.2-2.5-1.7-2.4c-3.8.3-7.1.9-8-4.7-1.2-8.6-1.1-10.1,4.5-13.7.4-.2.7-.6.7-1.5-5.1-.3-5.4-3.8-5.4-7.9,0-2.5-.5-5.1-.4-7.7,0-6.1,0-6.1,6.1-8,1.1-.3,2.4-.6,2.4-1.9s-1.6-1.7-2.9-1.9C74,23.5,71.1,26.3,67.6,26.4Z"/><path class="cls-3" d="M111.1,148.3c-1.3,1.5-3.8,1.7-4.4,4.1,0,.2-1.1.4-1.6.4s-1.6-.5-2.3-.3-2.8.5-3.7-1.5-2.1-1.7-3.6-1.8l-4.7-.2c1.2-14.5.3-29.2.6-43.8,0-2.3.5-5.1-3.4-4.8-.4-5.4.6-5,5-4.9,2.1,0,2.5.5,2.6,2.5s.1,4.2,0,6.3a4.1,4.1,0,0,1-.4,2.3c-2.5,2.8-.8,5.5.2,8s1.2,3.1.4,4.9a16.7,16.7,0,0,0-.8,3.2,6.6,6.6,0,0,0,0,2.8,6.9,6.9,0,0,1,0,5.1,2.9,2.9,0,0,0,3.5,3.7l2.8-.4a1.8,1.8,0,0,1,1.9,1.1,20.1,20.1,0,0,0,1.4,2.5,1.3,1.3,0,0,0,2.3-.4c1.6-3.9.9-7.8.1-11.7-1.4-1.4-2.6-3.2-4.8-3.6a1.7,1.7,0,0,1-1.6-1.4c-.6-1.9-1.3-3.6-1.1-5.6s-.2-5.2,0-7.7.3-6.1,3.1-8.2c.4-.3.5-1.1.8-1.6s.5-1.4,1-1.5,3.3-1.2,3.4-3.4a1.9,1.9,0,0,1,1.1-.4,24.5,24.5,0,0,0,2.7.2c2.5-.2,2.5-.3,3.2,2.2.1.3.1.6.2.9l-.6.4c-7.1.2-9.7,5.3-11.6,10.9s-1.8,10.8,3.9,14.8,6.1,12.5,3.4,17.5-6.4,5.3-9.8,1.3c-1.8-2.2-2.7-1-3.3.7-1.4,3.9,2.2,8,6.6,7.6,2.3-.2,4.5-1.6,7-.7Z"/><path class="cls-5" d="M122.6,144.2V126.5c.7-8.4.4-16.8.9-25.2.1-1.8.4-3.5,2.3-4.4s3.4-.6,4.3,1.5h0c3,5.8,2.1,12.2,1.4,18.2-1,7.9-.5,15.8-.8,23.6-.1,1.4.4,2.9-.6,4.2h.1c-.9,1.3-.1,2.9-.9,4.1s-1.2,3.3-3.2,3.1-2.9-1.7-3.1-3.6S123.3,145.3,122.6,144.2Z"/><path class="cls-3" d="M236.5,60.9c-2.8-.9-3.8-.5-3.8,2s-.2,7.6,0,11.4a32.9,32.9,0,0,1-1.1,7,1.9,1.9,0,0,1-2,1.6,12.2,12.2,0,0,1-3.3,0,10.6,10.6,0,0,0-6.1.5c-1.5.7-2.7-.3-4-.8a1.2,1.2,0,0,1-.7-1.1,19.4,19.4,0,0,1-.2-2.4h.8c4.6,1.5,5.5,1.1,5.5-3.6q.3-21.3,0-42.6a13.3,13.3,0,0,0-.3-2.8c-.6-1.9-.1-4.8-2.8-5s-3.1,2.3-4.4,4-.9,6.4-4.5,7.8c-2.3-5.8-.1-12.4,5-15.1a3.2,3.2,0,0,1,3.6-.2h1.9c4.7-2,6.2,2.4,9,4.4a40.1,40.1,0,0,1-.4,10.4c-1.4,10.5-1.7,21-2.3,31.5-.1,3-.2,6.3,2.3,8.9,2-1.6,1.5-3.6,1.5-5.4.1-7.1,0-14.1.1-21.1A11.7,11.7,0,0,1,231,45a1.5,1.5,0,0,1,1.4-.7C236.3,49.2,238.4,54.5,236.5,60.9Z"/><path class="cls-6" d="M88,100.4l.3-.4c.7-1.3,1.2-2.9,3.1-2.3s1.7,2.1,1.7,3.6,0,4.4,0,6.6l-.3,30.2c0,1.9-.2,3.8-.1,5.7a6.9,6.9,0,0,1-1.9,5.2h0c-1.9,1.3-3.3.2-4.6-1.1h0a25.3,25.3,0,0,1-.3-3.8c.5-11.5,1.1-23,1.7-34.4.2-2.9.3-5.7.4-8.6A.6.6,0,0,0,88,100.4Z"/><path class="cls-1" d="M218.2,21.5c-3.6.3-5.4,3-7.2,5.5s-1.1,4.1-1.4,6.2a24.1,24.1,0,0,0,.1,3.8l-.4.5c-2.7,1.7-1.4,4.6-1.9,6.9s-.3,4.7-.8,7a3.1,3.1,0,0,1-.6,1.3c-2.5,2.2-2.7,5.2-2.9,8.2a22.4,22.4,0,0,1-.4,5.2,5.7,5.7,0,0,1-.8,1.3c-4.1,1.6-7.3.1-8.5-4.5-.8-3-1-6-2.5-9s1.8-4.8,2.8-7.2c3.5-1.4,3-4.8,3.6-7.6a4.1,4.1,0,0,1,1.7-2.2c2.4,1.4,2.9,3.4,2.1,6.1s-.9,3.7-2.3,5.1-3.4,5.7-1.8,9.2a5.9,5.9,0,0,1,.2,1.4c.3,1.3,1.2,2,1.9,1.7s.9-1.3.8-2.1a15.1,15.1,0,0,1,2.1-7.7,8.4,8.4,0,0,0,.8-3.1c.1-2.1.1-4.2.1-6.2s.6-5.1,3.1-6.5a3.2,3.2,0,0,0,1.6-3.3,12,12,0,0,0,0-1.9,6.6,6.6,0,0,1,2.6-6.3,6.7,6.7,0,0,0,1.4-1.9,3.2,3.2,0,0,1,3.1-1.8C216.3,19.6,217.5,20,218.2,21.5Z"/><path class="cls-3" d="M176,22.5l1.9-1h11.5c6.1-.8,10.4,4.5,8.7,10.7-2,.1-2.6-1.6-3.6-2.8a16.8,16.8,0,0,0-4.5-4.3c-6.1-3.6-11.4-.6-11.7,6.3-.6,13.7-2.3,27.4-2,41.1a7.1,7.1,0,0,1-.7,3.2l-.6.6-1.5-1.1a3.1,3.1,0,0,1-1.1-4.5,14.3,14.3,0,0,0,1.5-9.3,2,2,0,0,0-1.2-1.2,1.9,1.9,0,0,0-1.3,1c-.7,2.9-1.6,5.5-4,7.4l-.5-.4c-1.2-3.7-1.5-7.1,2-9.9,1.7-1.4,1-2.4-1-2.7a10,10,0,0,0-4.2.3c-4.7.9-4.7.9-2.1,4.7s-1,12.7-4.8,14-4.6-.7-4.8-4.1l1.7.8A2.7,2.7,0,0,0,157,70a16.4,16.4,0,0,1,2-2.6c.5-.7.8-1.6.1-2.2s-1.6-4-2.8-5.9-.4-4.6.6-7h16.2a1.7,1.7,0,0,0,1.8-1.8,28.1,28.1,0,0,0,.1-2.9c0-3.3.2-6.7,0-10s1-8.2.1-12.3c-.2-.8.6-1.8.9-2.7Z"/><path class="cls-3" d="M115,95.3l4,.4c-.6,4,0,7.9.2,11.8a24.7,24.7,0,0,1-.8,6c-.1.5-.9.9-1.4,1s-3,.7-2.9,2.6,1.6,1.9,2.7,2.2,1.2,1.2,1.4,2.4a92.8,92.8,0,0,1,.5,12.9c0,2.2.2,4.4-.6,6.6s.2,1.8.2,2.7a1.9,1.9,0,0,1-.5,1.2c-1.7.4-2.7,1.7-4,2.5a8.3,8.3,0,0,1-2.7.7l-.3-.3c-.1-1.4.8-2.4,1.5-3.4,6.9-10,5.1-20.9-4.5-28a5.8,5.8,0,0,1-2.7-5.3,25.1,25.1,0,0,1,3.2-9.9c.8-1.3,1.8-2.5,3.5-2.2s2,1.9,2.2,3.4,0,5,.5,8.5c2.1-5.8.1-10.7.3-15.6Z"/><path class="cls-3" d="M48.3,50.3c.2-3.6-.5-7.2.8-10.8.2-.8-.3-1.8-.4-2.8s-.6-4.1-.2-6.1.1-5.8.7-8.8c2.1-.9,4,.3,5.9,1s.6,1,.8,1.6a5.9,5.9,0,0,1,.1,1.9l-.2.2c-2.8.2-4.3,1.6-4.2,4.6.3,12.4-1.6,24.8-1,37.2.3,6.5,1.4,7.6,7.8,6.4,1.7-.3,3.4-.8,5,.3l.3.4c.3,3.7-1.8,5-5.2,5.1H54.7c-7.4-.1-9-2.6-6.4-10Z"/><path class="cls-3" d="M265.3,21.5a3.7,3.7,0,0,1,2.3,1.4,17.3,17.3,0,0,0,4.1,3,26,26,0,0,1,5.7,4.8,7.3,7.3,0,0,1,1.2,3.4,23.8,23.8,0,0,1,.1,3.8c-3-.3-3.4-3.2-4.6-5.1-2.4-3.5-5.3-5.9-9.7-6-2.7-.1-4.4.9-4.4,3.7-.3,9-2,17.8-2.1,26.8,0,2.1.7,4.6-2.1,5.8-.1-7-.5-13.9.2-20.9a29.1,29.1,0,0,0-.3-5.1c0-1.4-.4-2.9.9-4s.8-2.2.1-3.4-1.4-2.7.8-4.2a4.1,4.1,0,0,0,2-4Z"/><path class="cls-1" d="M228.8,25.5c-1.6-.2-3.3.2-4.2-2.1s-2.7-1.9-4.5-1.9c1.6-2.7,4.1-2.2,6.3-1.4a13.7,13.7,0,0,0,3.5.8c2.9.3,5.2,2.1,7.7,3.4a4.1,4.1,0,0,1,1.6,2.7,56.7,56.7,0,0,1,1.2,6.2l3.7-2.1a3,3,0,0,1,1,2.7,7.8,7.8,0,0,1-.2,1.4c-1.6,6.3-1.8,6.4-8.1,2.5a2.8,2.8,0,0,1-.9-1c-1.5-2.9.8-6.7-2.3-9.1l-1-.6-1-.5-.9-.4-1.4-.5Z"/><path class="cls-3" d="M161.7,95.7l-.9-.3c-2.7-.7-4.2-.1-4.7,2.4a68.8,68.8,0,0,0-1,9c-.2,6.5-.1,13.1-.2,19.6a12.3,12.3,0,0,1-.2,3.8c-2.1-2.5-4.4-8.1-5.5-13.6,1.2.3,1.6,2.4,3.2,1.5s.7-2.3.8-3.5c.2-2.8-.4-5.7.7-8.4a4.1,4.1,0,0,0-.1-1.9c-.1-.8-.4-1.5-.5-2.3-.5-4.7-.3-5.3,3.4-8.5.8-.7,1.5-2,2.7-1.5A3.3,3.3,0,0,1,161.7,95.7Z"/><path class="cls-1" d="M48.3,70.5c.3,2.8.5,5.5.9,8.6,3.1,0,6.3.1,9.4,0a8.3,8.3,0,0,0,3.2-.3c.6-.3.6-1.6.9-2.4s.7-.7,1-1,2.9-.2,3.2,1.1,2.7,2.8,4.4,3.6c-.8,1.7-1.7,2.4-2.6,1.7-2.4-1.8-4.7-.7-7.2-.3s-7.3,1.8-11.2.6c-2.3-.7-4.2-1.9-4.7-4.2s-.8-5.1,1.8-6.9Z"/><path class="cls-3" d="M130.1,144.4c.1-9.3.3-18.6.3-27.8,0-6.1-.2-12.2-.3-18.2a4.7,4.7,0,0,1,3,4.8c.2,3.9,1.3,7.7,1,11.7a17.2,17.2,0,0,0,.9,3.6c-2.9.4-3.9,2.2-3.8,5V141C131.2,142.2,131.4,143.5,130.1,144.4Z"/><path class="cls-3" d="M141.5,151.1c.5-8.7.9-17.3,1.4-25.9a7.1,7.1,0,0,1,.1-1.4c.1-.2.4-.6.6-.6a1,1,0,0,1,.7.4l5.3,15.9a13.3,13.3,0,0,1-2.1-.9c-1.8-1.1-1.8-1.1-2,1.2a3.1,3.1,0,0,1-1.3,2.4c-1.3.7-1.5,1.9-1.5,3.2a24.1,24.1,0,0,1-.1,3.8A7.7,7.7,0,0,1,141.5,151.1Z"/><path class="cls-3" d="M140.5,58c0-1.1.1-2.2.2-3.2s.5-1,.4-1.4c-1.8-4,.9-6.3,3.3-8.7,1.8,2.2,1.2,4.8.8,7.3-.8,5.2-.5,10.4-.4,15.7s2.2,7.2,3.5,10.7l-.3.8c-1.9,0-3.4-.5-3.8-2.7a2.6,2.6,0,0,0-.6-1.3c-2.6-1.6-2-4.3-1.5-6.3a7.2,7.2,0,0,0-1.6-6.1Z"/><path class="cls-3" d="M137.9,115.6c0,1.6,0,3.2-.1,4.8-.7,8.3-1.5,16.7-2.2,25.1a28.5,28.5,0,0,0-.3,2.9c.1,2.9.9,3.7,4.4,4.4-.3.3-.6,1-.9,1-2.8,0-4.6-1.5-4.7-4.2s0-5.4-.1-8,.6-5.4.1-8.1a3,3,0,0,1,.1-2.3,4.3,4.3,0,0,0,.4-4.8,4.4,4.4,0,0,1-.1-3.2,24.2,24.2,0,0,0,.5-4.7,1.9,1.9,0,0,0,2-1.5C137.1,116.5,137.6,116.1,137.9,115.6Z"/><path class="cls-3" d="M53.4,148.2c.3,2.5-.3,4.5-2.9,5.3a6.2,6.2,0,0,1-2.3.2c-1-.1-1.9-.5-2.8-.6-2.6-.6-4-2.2-3.3-4.7a11.1,11.1,0,0,0-.1-6.5,16,16,0,0,1-.1-3.8c0-7.8-.1-15.6-.1-23.4H42c2.5.7,2.2,2.9,2.1,4.6-.2,7.4,1.5,14.6,1.1,21.9a15.8,15.8,0,0,0,.5,4.3c1.1,5.2,2.4,5.7,7,2.8Z"/><path class="cls-1" d="M197.9,32.4c.4-2.3-.8-4.2-1.3-6.4-2.2-.7-2.7-3.8-5.4-4l-1.8-.5c.1-.8.4-1.6,1.3-1.7a9.2,9.2,0,0,1,3.3-.1,3.8,3.8,0,0,1,2,1c.8.6,1.2,1.5,2,2,3.8,2.7,3.5,6.4,2.8,10.2-.2.8-1.2,1.4-1.8,2.1a2.6,2.6,0,0,1-1.1-1.4A1.3,1.3,0,0,1,197.9,32.4Z"/><path class="cls-3" d="M149.3,116.7c-.9-2.7-1.9-5.3-2.8-8s-2-6.4-4-9.2l-.9-1.1c-.8-1-1.7-1-2.8.1a10.5,10.5,0,0,0-.8,1.1c0-4.4.6-4.8,4.6-3.4a3.6,3.6,0,0,1,2.7,3,12.4,12.4,0,0,0,3,6.3,5.5,5.5,0,0,1,1.1,3.1C149.5,111.3,149.3,114,149.3,116.7Z"/><path class="cls-3" d="M29.6,197c3,1.3,3.4,2,1.8,4.3s-2.1,4-4.6,4.5l-.4.2c-1.7,4-5,2.1-7.9,2.6-.1-3.9-1.4-7.3.4-10.6l2.9-1,.3.5a5.7,5.7,0,0,1-.4,1.4c-.7,1.8-2.4,4.1.7,5a4.5,4.5,0,0,0,5.7-2.9c.5-1.2.3-2.5,1-3.6A1,1,0,0,1,29.6,197Z"/><path class="cls-3" d="M130.1,98.4a9.9,9.9,0,0,0-2-1.1,2.9,2.9,0,0,0-3.6,2.3c-.1.8-.1,1.6-.2,2.4-.3,6.6-.6,13.2-1,19.8a38.1,38.1,0,0,1-.7,4.7c0-8.3-.1-16.6,0-25a30.3,30.3,0,0,1,.9-5.1h0c1.9-.2,3.6-1.4,5.5-.8a2.1,2.1,0,0,1,1.5,1C130.7,97.1,130.3,97.8,130.1,98.4Z"/><path class="cls-3" d="M88,87.7a6.5,6.5,0,0,1,.2-1.1A3.3,3.3,0,0,1,92.5,84a3.8,3.8,0,0,1,2.9,4.2c-.4,3.4-1.4,4-4.7,2.9l-.8-.4C88.5,90.5,87.9,89.8,88,87.7Z"/><path class="cls-3" d="M124,84.4c.4,0,1-.2,1.3,0s2.9-.9,3.5.4.9,3.6,1.2,5.4-.7,1.1-1.2,1.2a14.8,14.8,0,0,1-4.2,0,2.3,2.3,0,0,1-1.9-2.8C123.1,87.2,123.5,85.9,124,84.4Z"/><path class="cls-3" d="M57.4,129.1c-.1,4.3-.1,8.5-.1,12.8,0,1.6-.1,3-2,3.8s-1.3,1.7-1.9,2.5h-.1c-2.3-5.6,1.1-10.7,1.6-16,.1-1.3.3-3,2.3-3.1Z"/><path class="cls-3" d="M244.2,34.2c0-1-.1-2-.1-3.1V28.3c.1-1.6,0-3.2.2-4.7a2.4,2.4,0,0,1,2.8-1.9l1.7.6c2.9.8,2.9.8,2.8,4.1-3.6-.6-5.6.6-5.4,4.6C246.2,32.3,246.2,33.9,244.2,34.2Z"/><path class="cls-3" d="M183.9,136.1a26.1,26.1,0,0,1-.6-2.7,27.9,27.9,0,0,0-3.2-12c-.9-1.7-1.1-3,1.3-3.3l.6.4c-.5,1.1-.7,2.3.3,3s1.7,3.3,1.7,5.2S183.9,133,183.9,136.1Z"/><path class="cls-3" d="M122.6,144.2l.9,3.1a18,18,0,0,0,.6,2.2,2.2,2.2,0,0,0,2.3,1.4,3,3,0,0,0,1.8-1.3,21.7,21.7,0,0,0,1.2-3.6l.8-1.7a12,12,0,0,1-.1,3.3,9.7,9.7,0,0,1-1.9,3.8,2.7,2.7,0,0,1-3.4.8c-1.2-.6-2.2-1.3-2.2-2.8S122.6,145.9,122.6,144.2Z"/><path class="cls-3" d="M21.8,197c0-1,.1-1.9.1-2.8a12,12,0,0,1,7.5,0c.1.9.1,1.8.2,2.8l-.3.2c-2.4.1-4.9.8-7.3,0Z"/><path class="cls-3" d="M181.9,116.3c.7-3.5,1.3-7.1,2-10.6,0,3.5,0,7,.1,10.5a2.1,2.1,0,0,1-2,2.3h0A2,2,0,0,1,181.9,116.3Z"/><path class="cls-3" d="M138,99.9a34,34,0,0,1,0,14.2Z"/><path class="cls-3" d="M198,33.1c.3.6.7,1.2,1,1.9v1.9l-.9,2-.6-.6C196.7,36.5,196.6,34.7,198,33.1Z"/><path class="cls-3" d="M86.2,148a6.8,6.8,0,0,0,4.6,1.1C88.5,150.7,87.7,150.5,86.2,148Z"/><path class="cls-3" d="M139.6,152.9l2-2C141.4,152.7,141.4,152.7,139.6,152.9Z"/><polygon class="cls-3" points="18.9 198 18.5 197.7 18.7 197.6 18.9 198"/><path class="cls-3" d="M123.5,96.4l-.4-.2.4.2Z"/><path class="cls-3" d="M64,92.6l.2-.4-.2.4Z"/><path class="cls-7" d="M244.2,34.2c.3-1.2.6-2.4.8-3.7a26.4,26.4,0,0,1,.2-2.8c.7-3.1,3-3.8,5.7-1.9l.7.6h0a4.1,4.1,0,0,1,.1,4.7h0c-.4,8.7-1,17.4-1.7,26-.4,6.1-1.7,12.2-2,18.3a.5.5,0,0,0-.1.8c-.6,2-.3,4.6-3.4,4.9s-3.5-2.6-4.2-4.8h0c-3.8-4.5-2.6-10.2-3.8-15.4h0c-.2-5.7-2.1-11-3.9-16.3a1.4,1.4,0,0,1-.3-1.6c-.2.5-.1,1.2-.6,1.6,0,8.5-.1,16.9-.2,25.4,0,1.9.2,3.8.2,5.7a8.6,8.6,0,0,1-.6,2.3,2.8,2.8,0,0,1-4.8.1,8.3,8.3,0,0,1-.7-2.7,111.7,111.7,0,0,1-.3-15.3c.4-10.1,1.8-20,2.4-30.1.1-1.5,0-3.2,1.1-4.5h0a1.2,1.2,0,0,1,1.9-.1c.1.2.3.2.6.1a2.1,2.1,0,0,1,1.3.9h-.1c2.9,3,2.9,7,3.8,10.6h0c3.5,4.6,4.2,10.2,5.9,15.4a17.7,17.7,0,0,0,.1,2.3c.1.6.9-.1.4.2s0,.1-.3-.4a11,11,0,0,1-.2-1.8c-.2-6,1-11.9,2-17.7A.6.6,0,0,0,244.2,34.2Z"/><path class="cls-4" d="M255.8,63.1a12.1,12.1,0,0,0,.5-1.8c.7-8.8,1.3-17.5,2-26.3.1-2,0-4.1,0-6.2s.7-3.2,3.4-3.6a12.1,12.1,0,0,1,12.4,5.4c1.7,2.3,3.1,4.9,4.6,7.3h0a6.5,6.5,0,0,1,2.1,4.2c.6,9.8.9,19.7-3.1,29.1-3,7.4-8.5,11.2-16,11.3-4.1,0-6.9-2.4-7.3-6.5a25.5,25.5,0,0,1,1.3-11.3Z"/><path class="cls-3" d="M255.7,64.7c-.1,3.9-.1,7.7-.1,11.5a5.2,5.2,0,0,0,1,3.6,5.5,5.5,0,0,0,5.8,2.3c6.2-1,11-3.9,13.6-10a44.2,44.2,0,0,0,3.4-13.3c.4-5.1.3-10.2.2-15.3a36.3,36.3,0,0,0-.9-5.6,5.2,5.2,0,0,0,4.4-3.1c.2-.4.5-1,.8-1.1,2.9-1,3-3.7,3.2-5.8s.3-2.5,2.1-2.8a2.6,2.6,0,0,0,1.4-1.8c.2-1.7,1.2-1.9,2.6-1.8a19.2,19.2,0,0,0,2.4,0,2.9,2.9,0,0,1,2.4,1.3,26.2,26.2,0,0,0,2.2,2.5,4.5,4.5,0,0,1,1.5,3.8c0,3,.2,4-3.6,4.1-1.2,0-3-.1-3.5.6a5.8,5.8,0,0,0-.7,5,5.8,5.8,0,0,1,.2,1.9l-.5.4c-2.8.7-3.5-1.1-3.2-3.2s1.1-6.1,4.6-7.2c1.7-.6,3.1-1.6,1.9-3.5s-2.5-.9-3.7-.1c-6.8,4.2-7.7,14.3-1.8,19.3a10.7,10.7,0,0,1,2.9,3.8c3.2,7.4,2.6,14.7-1.2,21.7-1.9,3.4-3.7,3.6-6.5,1.3-1-.9-1.9-2.5-3.5-1.2s-1.1,2.9-.4,4.4c2.1,4.6,6.9,5.5,11.2,2.5s4.4-6.7,7.2-9.5h.7c-.3,1.7-.5,3.5-.7,5.2a8.7,8.7,0,0,0,.1,2.3c.1,1-.2,1.7-1.2,1.6a2,2,0,0,0-2,1.6,5.9,5.9,0,0,1-1,2.1,3.5,3.5,0,0,1-2.1,1l-9.5-.3c-1.3-.1-2.3-.3-3-1.8a28.1,28.1,0,0,0-3.5-5,2.2,2.2,0,0,0-3.4,0l-.3.4-5.2,6c-3.7.1-7.3.3-11,.3a3.9,3.9,0,0,1-2.5-1.2c-1.6-2-4.2-3.6-3.8-6.8a4.5,4.5,0,0,0-.4-2.3c-.7-1.6-.2-2.7.8-4A37.7,37.7,0,0,0,255.7,64.7Z"/><path class="cls-3" d="M194.3,46.6a6.2,6.2,0,0,1-2.3,5,1.6,1.6,0,0,0,0,2.5c2.1,1.9,2.4,4.3,2.2,6.9s2.2,4.4,3.7,6.3c.2.3.9.3,1.4.2l2.7-.8c2.1,2.7-.7,5.6.5,8.5,1.4-.6,1.2-2.5,2.6-2.9h.7l-.6,6.5-1.7.2c-2.5-.1-4.7,0-6,2.7-.3.6-1.6,1-2.4,1.1a21.6,21.6,0,0,1-3.6,0c-1.4-2.5-1-5.1-1.2-7.5l.6-.3c2,.3,2.5,4.4,4.9,2.6s-.3-3.9-.9-5.7c-1.7-5-3.3-10.1-5.1-15s-1.3-7.1,3.8-10.7Z"/><path class="cls-3" d="M190.3,75.4c-2.8-.7-3.7-1.4-3.3-3.6s-.8-4.6-.7-7c0-.5-.9-1.3-1.5-1.6s-1.9.7-2,1.7c-.1,2.6-.1,5.1-.1,7.7s.1,3.8-1,5.6h0a4.7,4.7,0,0,1-5.9-.3c-.4-.3-.6-1.1-.8-1.6l.2-.2c4.6-.4,5.5-3.2,4.7-7.1a37.3,37.3,0,0,1-.3-10c.2-2.2.9-4.2,3.4-4.6s3.6,1.6,4.2,3.7c1.2,4.3,2.5,8.6,3.6,13,.4,1.4.8,2.8-.3,4.1Z"/><path class="cls-3" d="M248,75.3a169.5,169.5,0,0,1,1.1-22.5c.5-5.2,1-10.5,1.6-15.7.2-2.1-.1-4.2,1-6.1.2,5.8.3,11.5.4,17.3a2.6,2.6,0,0,1-.5,1.7c-1.1,1.8-.8,3.7-.5,5.6s.5,3.4.7,5.2a3.9,3.9,0,0,1-1.5,3.8,3,3,0,0,0-1.4,2.9v5.2A3,3,0,0,1,248,75.3Z"/><path class="cls-3" d="M167.4,68.6a25.4,25.4,0,0,1-.1,3.9c-.5,2.7.2,6-3.2,7.7-.3.1-.3.8-.6,1.2s-.6.9-.9.9c-3.6.3-7.2.6-10.8.6s-3-.3-3.8-3.7l.2-.2c1.1-.8,2.1-.2,3.1.1,6.7,2.1,9.8.7,12.7-5.8.8-1.7.6-4.2,3.2-4.8Z"/><path class="cls-3" d="M215.3,79.1a3,3,0,0,1-1.2-3.3,14.2,14.2,0,0,0-.4-7.9,3.7,3.7,0,0,1,0-1.8c.2-.7.8-1.7-.3-1.9a3.4,3.4,0,0,0-2.1.8c-.5.4-.6,1.1-.9,1.6-1.4,2.1-2.2,4.6-4.6,5.8h-.3c-1.8-6.7,2.3-11.7,9-11.1,1.5.2,2.7.9,2.5,2.3-.7,5.2.9,10.6-1.5,15.5Z"/><path class="cls-3" d="M301.8,50.3l.4.3c.9,1,2.5,1.9,2.7,3.1a52.6,52.6,0,0,1,.5,8.9,2.4,2.4,0,0,1-.7,1.7c-1.7,1.4-1.6,3.7-2.9,5.2h-.3c-.2-.3-.5-.5-.5-.8-.1-5.9-.6-11.9.2-17.8Z"/><path class="cls-3" d="M240.3,76.2a18.3,18.3,0,0,0,1.3,2.4c1.5,2.3,4.2,2,5.5-.4l.8-2.1a15.3,15.3,0,0,1,.2,3.7c-.3,2.9-1.5,3.8-4.2,3.5a5.6,5.6,0,0,1-2.3-.6,1.8,1.8,0,0,1-1.1-1.3C240.3,79.7,240.4,77.9,240.3,76.2Z"/><path class="cls-3" d="M236.5,60.8l3.3,12.7a25.6,25.6,0,0,1,.5,2.7,14.5,14.5,0,0,0-2.2-.9c-1.3-.3-1.6-1.3-1.6-2.5Z"/><path class="cls-3" d="M294.1,40.7c2.5-.4,4.2,1,5.5,2.8s3.2,4,2.2,6.8l-.3.2c-3.4-2.5-5-6.4-7.6-9.6Z"/><path class="cls-3" d="M251.7,31.1c0-1.6,0-3.1-.1-4.7C253.2,28.3,253.2,29.1,251.7,31.1Z"/><path class="cls-3" d="M181.7,78.2l.4.2-.4-.2Z"/><path class="cls-7" d="M89.7,75.1a18.9,18.9,0,0,1-.9-2.1c-.8-3.3-.7-6.5,2-9a.6.6,0,0,0,.7-.2,1.2,1.2,0,0,1,1.9.1h0c2.1-.2,1.9,3.9,4,2.7S98.9,63,99.3,61a20.4,20.4,0,0,0-1-9.8h0c-2.1-1.6-4.1-3.3-6.8-4.1-4.3-1.2-4.1-5.2-4.7-8.6V36.3c.8-2.4.3-5,.8-7.5s3.5-6.5,6.5-8.5,7.2-.6,9,2.8,1.1,5.5.9,8.4a3.3,3.3,0,0,1-3.1,3.1c-1.8.1-2.4-1.2-2.8-2.7s0-2.3-.9-3.2c-3.4,3.6-3.4,7.4,0,12.1h0c4.9.9,7.7,3.8,8.7,8.6h-.1c5,8,2.8,20.3-4.5,25.8-3.9,3.1-7.5,3-11.6-.1Z"/><path class="cls-3" d="M97.2,40.8c-3.5-.9-3.7-1.1-3.8-3.8s-.1-6.7,2-9.6A8.5,8.5,0,0,1,97,25.7a1,1,0,0,1,1.5.4c.3,1.1.4,2.2.6,3.3s.2,2.5.5,3.8a1.8,1.8,0,0,0,1.4.9,1.7,1.7,0,0,0,1.4-1,15.8,15.8,0,0,0,0-8.9c-1.1-3.7-4.6-5.1-7.9-3.1a12,12,0,0,0-4.8,5.2,46.5,46.5,0,0,0-2.1,6.3c-.4,1.2-.5,2.5-.8,3.7,0-2.4-.2-4.8-.1-7.2s.5-5.4,3.3-6.9a3.5,3.5,0,0,0,1.3-1.4c2-3.4,5.2-3.3,8.5-3a5.4,5.4,0,0,1,2.3,1.5c.9.7,1.5,1.7,2.4,2.2a2.1,2.1,0,0,1,1.2,2.8,8.8,8.8,0,0,0,0,6c.7,2.4-.8,4.7-3.2,5.6S97.6,37.7,97.2,40.8Z"/><path class="cls-3" d="M89.7,75.1c6.2,3.7,16-.6,17.2-10a37.3,37.3,0,0,0-.5-12.9l-.6-2.8,1.3.6a3.6,3.6,0,0,1,2.6,4.1c-.1,1.2-.2,2.5-.4,3.8a10.9,10.9,0,0,0-.1,1.8c.9,4.4-.8,8.1-2.9,11.7a13.7,13.7,0,0,1-1.6,1.8c-.7.7-1.6,1.2-2,2.1-1.5,3.5-4.4,4.3-7.8,3.8h-.5c-2.5.4-3.9-.6-4.4-3.1Z"/><path class="cls-3" d="M98.3,51.2a9.4,9.4,0,0,1,1.3,2.4,28.7,28.7,0,0,1,.7,10.5A6.2,6.2,0,0,1,98,68.6c-1,.9-2.7,1.3-3,.7a5,5,0,0,1,0-2.1c.1-1.5-.9-2.3-1.6-3.3,1.3-.2,3.1.1,4-.7s.7-2.5,1.2-3.8a6.3,6.3,0,0,0,.1-3.6A23.8,23.8,0,0,1,98.3,51.2Z"/><path class="cls-3" d="M86.8,38.5a12.7,12.7,0,0,1,.6,1.8A8.9,8.9,0,0,0,93,47l3.4,1.6c1,.6,1.9,1.3,1.9,2.6s-2.2.2-2.9-1-2.2-1.9-4.1-1.3-2.9.1-3.7-2.3A22.2,22.2,0,0,1,86.8,38.5Z"/><path class="cls-3" d="M105.9,49.4a18.6,18.6,0,0,0-8.7-8.6h4.3a4.7,4.7,0,0,1,4.3,4.3C106,46.6,105.8,48,105.9,49.4Z"/><path class="cls-3" d="M93.4,63.9H91.5C92.2,62.8,92.8,62.8,93.4,63.9Z"/><path class="cls-7" d="M167.2,68.5c-.9,2-1.6,4-2.6,6-3.5,7.6-7.5,8.9-15.1,5.1a5.2,5.2,0,0,0-1.3-.6c-3.5-3.4-4.8-7.8-4.8-12.5s.4-10.4.6-15.7c.1-2,.3-4.1.4-6.1h0c.8-5.6,1.2-11.2,4.4-16.2,2.3-3.5,4.7-6.2,8.9-6.9h.1c2.2-1.7,4.4-1.5,6.6.2h0c4.2,2.4,5.5,5.2,3.9,8.7s-2.7,3.4-4.7.7h0c-1-1-.5-3.3-2.8-3.3s-3.4,1.2-4.4,3c-2.1,3.7-2.3,8.1-4.4,11.9-.3.2-.3.4-.1.6a168.7,168.7,0,0,0,0,26.6c-.2.3-.2.4.1.6a2.6,2.6,0,0,0,1.3,2.4c2.3,1.9,3.5,1.7,5-.7a25.9,25.9,0,0,0,3.3-8.9c.3-1.8.1-2.1-1.7-2.8a4.4,4.4,0,0,1-1.7-.7,3.4,3.4,0,0,1-1.3-1.8c-.2-1.1.6-1.7,1.4-2.2l.5-.2,10.3-1.5a2.7,2.7,0,0,1,2.8,2.2,2.9,2.9,0,0,1-1.4,2.8l-1.3.7a1.9,1.9,0,0,0-1.6,2C167.5,64,167.3,66.2,167.2,68.5Z"/><path class="cls-3" d="M157.7,21.6c-5.6,2.5-8.6,7.1-10.4,12.7-.9,2.7-1.4,5.5-2.2,8.2-.2.7-.5,1.4-.7,2.2.1-3.4-.6-6.7.4-10a1.7,1.7,0,0,0,0-1.4c-.9-1.9,0-2.9,1.6-3.8s1.5-1,1.5-1.6,1.7-2.3,2.4-3.4C152.1,21.5,154.7,21.2,157.7,21.6Z"/><path class="cls-3" d="M152,42.7a25.5,25.5,0,0,1,3.6-12.3,7.4,7.4,0,0,1,5.5-4.1c1.6-.2,2.5.4,2.6,1.9a28.1,28.1,0,0,1-.1,2.9l-.4-.2c-1.1-1.5-2.6-2.3-4.1-1.5s-3.1,2.2-2.9,4.4C156.4,37.5,155.2,40.6,152,42.7Z"/><path class="cls-3" d="M163.6,31c.2.2.4.5.7.6s2.6.6,3-.8c.9-3.3,1-6.3-2.3-8.5-.3-.1-.4-.4-.6-.7s1.7-.1,2.2.3a49.3,49.3,0,0,1,4,3.9,2.1,2.1,0,0,1,.5,1.3c.2,2.9-3.2,6.2-6,5.9C164,32.9,163.6,32.1,163.6,31Z"/><path class="cls-3" d="M151.9,69.9a18.1,18.1,0,0,1-.9-3.1,149.9,149.9,0,0,1,.2-21.2,20.2,20.2,0,0,1,.7-2.3Z"/><path class="cls-3" d="M164.4,21.7l-6.6-.2c.2-.9.2-2,.8-2.6a3.6,3.6,0,0,1,3.5-1.1,1.8,1.8,0,0,1,1.1.8A28.5,28.5,0,0,1,164.4,21.7Z"/><path class="cls-3" d="M176,22.5l-.4-.2.4.2Z"/><path class="cls-8" d="M57.2,129c-.4,1.5-1,3-1.3,4.6-.9,4.8-1.8,9.7-2.6,14.5l-1.1,2.1a3.4,3.4,0,0,1-3.9,2.1,3.7,3.7,0,0,1-3.1-2.6,8.6,8.6,0,0,1-.6-2.3c-.2-2.4-.6-4.8-.7-7.2-.4-6.5-.6-13-1-19.5-.1-2.1.2-4.2-.9-6.1-.6-4.1-1.1-8.2-1.7-12.3-.1-1.4-.3-2.8-.3-4.2a1.7,1.7,0,0,1,2-1.6,9.7,9.7,0,0,1,3.4,1.6,2.3,2.3,0,0,1,1,2.9,5.3,5.3,0,0,0-.2,3.7c1.5,6.5,2.9,13.1,4.3,19.6.6.4.5.9.4,1.5s.1-1.1.5-1.6c1.9-6.8,3.9-13.5,4.8-20.5a55.4,55.4,0,0,1,1.1-5.6c.3-.9.6-1.8,1-2.7a3.2,3.2,0,0,1,3.2-1.7A3.3,3.3,0,0,1,64,96.8a18.8,18.8,0,0,1-.5,3.3l-6.3,27.5A6.5,6.5,0,0,0,57.2,129Z"/><path class="cls-7" d="M71.8,96.5c1.4-.2,2.8-.6,3.8.9a8,8,0,0,0,2.1,2,10.6,10.6,0,0,1,4.6,9.5c-.1,5.3-.5,10.5-.8,15.8s-2.3,12.5-4.9,18.4a15.7,15.7,0,0,1-1.9,3.3,3.9,3.9,0,0,1-5.5,1.1,10.5,10.5,0,0,1-5.2-7.1,44,44,0,0,1-1.6-9.4,67.5,67.5,0,0,1,1.9-19,47.2,47.2,0,0,1,7.4-15.5Z"/><path class="cls-9" d="M51.4,124.2l-.4,1.6-.5-1.5Z"/><path class="cls-10" d="M181.9,116.3a16.2,16.2,0,0,1,.1,2.2c-1.7.5-1.7.5-1.9,2.9-1.9-1.6-3.7-3.5-6.3-4.2a2.1,2.1,0,0,1-1.5-2.2,28.5,28.5,0,0,1,2.7-14.4c.8-1.4,2.2-1.5,2.9-.1a10.2,10.2,0,0,1,1.2,4.1c.1,3-.2,6-.4,9,0,.6-.3,1.3-.3,1.9s-.2,1.6.7,2a1.7,1.7,0,0,0,2.1-.5Z"/><path class="cls-7" d="M67.6,26.4c3.3-3.8,7.8-3.9,12.3-3.7a3,3,0,0,1,3,3.1,3.5,3.5,0,0,1-3.3,3.4h-.5c-1.9,0-3.8-.5-5.5.7-.1,1.7-.2,3.5-.2,5.2.1,4.1.3,8.3.3,12.4.1,1.2.4,1.9,1.6,1.9h3.4a2,2,0,0,1,2,1.7,2.2,2.2,0,0,1-1.4,2.3,21.3,21.3,0,0,1-3.5,1.4c-2.3.8-2.5.8-2.3,3.3s.6,7.3,1,11a1.4,1.4,0,0,0,1.7,1.2,55.8,55.8,0,0,1,5.7-.8,2.7,2.7,0,0,1,3,1.9,3.4,3.4,0,0,1-1.3,3.8,24.8,24.8,0,0,1-4.4,2,49.4,49.4,0,0,1-5.5,1.5c-3.1.5-5.5-1.1-5.9-4.2-1-6.5-1.7-13-.8-19.5.4-3.5.4-7,.5-10.5V43a42.6,42.6,0,0,0-.1-13.8h0a2.1,2.1,0,0,1,.1-2.8Z"/><path class="cls-3" d="M67.5,29.2c.3.4.7.8.7,1.2.1,4.2.4,8.4-.6,12.6C67.6,38.4,67.5,33.8,67.5,29.2Z"/><path class="cls-3" d="M67.6,26.4a26.2,26.2,0,0,0-.1,2.8C66.3,27.7,66.3,27.7,67.6,26.4Z"/><path class="cls-7" d="M63.4,75l-7.9,1.8c-3.6.7-6.1-1.1-6.2-4.7-.1-7.4,0-14.7.2-22.1s.5-12.4.8-18.6a25.5,25.5,0,0,1,.2-3.9,2.9,2.9,0,0,1,2.2-2.8c1.3-.3,2,.6,2.7,1.5l.4.3.3,24.8c0,4.7-.1,9.3-.1,13.9,0,1.1.2,2.2.3,3.3h4.4c3.8,0,5,2.2,3.3,5.7Z"/><path class="cls-7" d="M114.8,95.5c3.2,5.5,2.4,11.3.8,17.1a.9.9,0,0,1-.5.7,2,2,0,0,1-1.3.2.6.6,0,0,1-.6-.5c-.1-1.1-.1-2.3-.2-3.4-.1-2.7-.1-5.4-.3-8.1a2,2,0,0,0-1-1.5c-.4-.1-1.2.4-1.5.8a20.2,20.2,0,0,0-3.9,11.6,2.9,2.9,0,0,0,2,3c5.5,2.2,7.7,6.8,8.7,12.2a25.9,25.9,0,0,1,.1,10,17.6,17.6,0,0,1-6.3,10.4c-2.3.6-4.6,1.4-6.9,1.8a7.7,7.7,0,0,1-8.2-10.6,4.4,4.4,0,0,1,1.5-1.8,2.5,2.5,0,0,1,4.1,1.4c.2.6.1,1.3.3,1.9s1.1,1.9,2.4,1.6a6.2,6.2,0,0,0,5.4-4.8,17.7,17.7,0,0,0-.9-12.6,6,6,0,0,0-2.9-3c-4.5-2.4-5.7-6.2-5.1-10.9a28.1,28.1,0,0,1,4.3-11.6,9,9,0,0,1,1.5-1.9C108.7,95,111.4,93.7,114.8,95.5Z"/><path class="cls-7" d="M215.5,79c.1-5.2.3-10.5.5-15.7,0-1-.6-1.4-1.6-1.1l-5.5,1.7a2.5,2.5,0,0,0-1.9,1.8l-1.5,6.6c-.6,1.6-1.1,3.2-1.8,4.7a2.1,2.1,0,0,1-1.4,1,1.4,1.4,0,0,1-1.5-1.5c.1-1.7.3-3.5.5-5.2s.4-3,.7-4.6h0c1-4.8.4-10.2,3.7-14.4a.5.5,0,0,0,.1-.7c1.5-4.8.7-10.3,3.9-14.6h0c.9-2.5,1.9-5,2.7-7.6a13,13,0,0,1,3.8-5.4c2.1-2.1,4.7-1.4,5.6,1.3a32.3,32.3,0,0,1,1,6.1,31.1,31.1,0,0,1,.3,4.3c-.1,13.9-.1,27.7-.2,41.6a12.1,12.1,0,0,1-.1,1.9,3.5,3.5,0,0,1-6.4,1.5Z"/><path class="cls-11" d="M231.7,44.6l.4-1.5c.2.5.3,1,.5,1.5Z"/><path class="cls-3" d="M209.7,37a56.3,56.3,0,0,1-3.9,14.6c0-2.5-.4-4.9.5-7.4a6.2,6.2,0,0,0-.4-3.2,4.4,4.4,0,0,1,.9-3.1C207.5,36.8,208.6,36.9,209.7,37Z"/><path class="cls-3" d="M205.7,52.3c-1.2,4.8-2.5,9.6-3.7,14.4-.2-4.1-.3-8.2.9-12.3A2.8,2.8,0,0,1,205.7,52.3Z"/><path class="cls-3" d="M198.1,38.9c0,1.2,0,2.5-.1,3.7-.1,3.1-.2,3.3-3.7,4l-.3-.3c-.4-3.4.7-6,3.9-7.6Z"/><path class="cls-4" d="M197.9,38.7,194,46.3c-1.5,1.9-3.5,3.5-4.3,5.6s1.2,4.5,1.9,6.7c1.9,5.6,4,11.1,6.1,16.6l.3.9a3.2,3.2,0,0,1-1.4,3.7,2.9,2.9,0,0,1-3.8-1c-.9-1.1-1.5-2.4-2.3-3.6l-5.1-18.8a1.6,1.6,0,0,0-1.8-1.2c-1.5.2-2.4.8-2.6,1.7v2.4c.1,3.5.3,7,.4,10.4a30.5,30.5,0,0,1-.1,4.3c-.4,3.3-2.2,4.2-5.3,2.6l-.8-.5c.1-7.2,0-14.3.2-21.5.3-9,1-18.1,1.5-27.1a11.5,11.5,0,0,1,.1-1.9,2.3,2.3,0,0,1,1.7-2.1c8.5-3,14.3-.1,17.8,6.4l1.4,2.5a.5.5,0,0,0,.1.7C198,34.9,197.9,36.8,197.9,38.7Z"/><path class="cls-3" d="M241.4,53.1l-4.2-12.5c-.4-1.1-.6-2.4-.9-3.6,2-.1,3.5,1.1,5,2.2a1.1,1.1,0,0,0,1.8-.8c.2-1.2-.2-2.6,1.1-3.4A109.6,109.6,0,0,1,243,54C241.9,54.7,241.8,53.7,241.4,53.1Z"/><path class="cls-3" d="M236.3,37c-1.2-3.5-2.5-7-3.8-10.6,3.4.4,3.9.7,3.9,3.5S236.4,34.6,236.3,37Z"/><path class="cls-3" d="M230.7,25.4h-1.9C229.4,24.4,230,24.4,230.7,25.4Z"/><path class="cls-3" d="M232.6,26.4l-1.3-.9Z"/><path class="cls-12" d="M22,197.2c2.4-1.4,4.9-1.8,7.3,0a18.5,18.5,0,0,1,.4,2.3c.1,3-.8,4.3-3.6,5.3a11.7,11.7,0,0,1-3.6.8,3.1,3.1,0,0,1-3.1-4.5A33,33,0,0,1,22,197.2Z"/><path class="cls-13" d="M93.1,89a8.9,8.9,0,0,1-1.7.8,1.7,1.7,0,0,1-1.6-1.9,1.4,1.4,0,0,1,1.7-1.2C92.6,86.8,93.2,87.7,93.1,89Z"/><path class="cls-14" d="M127,90.8a1.8,1.8,0,0,1-2-1.6,1.7,1.7,0,0,1,1.5-1.6,2,2,0,0,1,2.2,1.4C128.9,89.8,128.1,90.7,127,90.8Z"/><path class="cls-3" d="M262.4,52.3l.3-19.2c0-2.1,1.1-2.5,2.8-1.8a3.4,3.4,0,0,1,1.6,1c3.1,2.9,5.4,6.5,5.8,10.7.7,7.6.4,15.1-1.9,22.4a36.7,36.7,0,0,1-2.9,6,3.9,3.9,0,0,1-2,1.8c-3.4,1.4-4,1.6-4-2.2.1-6.3,0-12.5,0-18.7Z"/><path class="cls-7" d="M293.9,40.9c4,2.1,5.8,5.9,7.6,9.6a59.9,59.9,0,0,1,0,18.9l-1.3,3a19.1,19.1,0,0,1-6.4,8.2c-3.5,2.6-7.3,2.3-10.3-1a16.7,16.7,0,0,1-2.5-4,4.7,4.7,0,0,1,.3-4.6,3.1,3.1,0,0,1,5.2-.2c.5.6.7,1.4,1.2,2.1s1.8,1.4,3,.2a10.7,10.7,0,0,0,3.1-5.3,32.5,32.5,0,0,0,.9-12.8,10.5,10.5,0,0,0-.6-2.4,9,9,0,0,0-4.4-5.9c-3.9-2.2-4.8-4.5-4-8.7a21.9,21.9,0,0,1,6-11.3,7.6,7.6,0,0,1,3.2-2,3.1,3.1,0,0,1,3.8,2,5.3,5.3,0,0,1-.5,4.6,1.7,1.7,0,0,1-2.5.7c-1-.7-1.8-.5-2.2.6a48.7,48.7,0,0,0-2.1,5.3,2.8,2.8,0,0,0,.4,2.2C292.2,40.6,293.2,40.7,293.9,40.9Z"/><path class="cls-15" d="M71,139.3c-4.1-8.4-3.1-25.5,2.1-35.6a4.8,4.8,0,0,1,3.2,3.7,2.9,2.9,0,0,1,.2.9c-.2,10.2-.2,20.5-4.7,30C71.7,138.6,71.4,138.8,71,139.3Z"/><path class="cls-16" d="M216.3,37.9c0,5.7.1,11.4.1,17.1,0,2.1-.3,2.3-2.5,2.8l-4,.7a4.9,4.9,0,0,1-.4-1c2-6.6,3.9-13.1,5.9-19.6Q215.8,37.2,216.3,37.9Z"/><path class="cls-17" d="M216.3,37.9h-.9a14.2,14.2,0,0,1,.5-1.6Z"/><path class="cls-18" d="M180.9,39.4V30.3c0-2.1.8-2.8,2.9-2.8a8.6,8.6,0,0,1,8.2,7.3,5.6,5.6,0,0,1-.7,3.6c-1.9,3-3.9,5.9-6,8.6s-2.4,2-3.6,3c-1.6-1.4-.5-3.2-.7-4.9a54.2,54.2,0,0,1,0-5.7Z"/><path class="cls-1" d="M66.9,210.7a3.9,3.9,0,0,1-1.9-.2c-2-1-1.5-.7-2.7,1.4s11.1-1.3,9.6-1.4h-11c-.6,0-14.6,3-15.2,2.9s-7.5-6.2-7.6-7.3A3,3,0,0,1,40,203c3.8,4.8,8.2,8,14.7,5.9a7,7,0,0,0,3.3-1.7c3-2.9,6.6-2.8,10.1-1.1,5.6,2.8,5.6,2.9,9.7-1.7a7.6,7.6,0,0,1,2.1-1.9c2.8-.5,3.3,1.4,3.6,3.4s.6,2.4,2.3,2.4,2.1-1.3,2.5-2.5.1-4.7.5-7.1,1-4.5,3.6-4.3,2.4,2.5,2.6,4.4,0,5.2,0,7.7.7,2.5,2.6,2.6,2.5-.8,2.5-2.5-.1-5.4.2-8.1.6-3.9,3.2-3.9,2.7,1.9,3,3.7,0,2.2,0,3.4c.1,6.7.1,6.7,6.6,7.2s7.2-1.7,7.1-6.8a18.9,18.9,0,0,0-.5-2.3c-.6-2.4-.4-4.7,2.6-5.1s3.2,1.8,3.4,4.1v1.9c-.1.4-.1.8-.2,1.3s-.9,2.2-.5,3.4l.3,1.2a15.5,15.5,0,0,1,.5,2.3c0,1.2.7-.2.9.1,2.6-.1,3.8-1.5,4.1-3.9s.2-2.5.5-3.8a3.2,3.2,0,0,1,3-2.7c1.9-.1,2.9,1.2,3.2,2.9s.3,4.2,1.6,5.9,3.1,1.6,3.6-1a7.4,7.4,0,0,1,.4-1.4c.9-2,.3-6.4,4.7-3.1a5.6,5.6,0,0,0,.5.8c1.1,2.2-.9,5.6,1.9,6.9s4.7.1,7.1-.2c4.3-.6,8.6.2,12.9-.1,1.9-.1,3-.6,3.2-2.5a5,5,0,0,1,.5-1.3c3.6-3.3,3.7-7.6,3.4-12.1l.6-1.3a5.2,5.2,0,0,1,1.1-1,3.2,3.2,0,0,1,1.4-.3c3.6.7,2.6,3.5,2.8,5.9a7.5,7.5,0,0,1-.3,2,6.9,6.9,0,0,0-.3,4.7l.3,1.2a32.9,32.9,0,0,1,.5,4.4.8.8,0,0,1-.7.7c.6.2,1.1-.3,1.7-.2,2.8.6,3.9-.8,4-3.3a149.3,149.3,0,0,0,0-17.7c-.4-5.8-5.2-7.4-10.2-4.6a14,14,0,0,1-14.4-.1c.4-2.2,2.1-2.6,3.9-2.8a25.7,25.7,0,0,1,4.8,0,7.2,7.2,0,0,0,5.2-1.8c2.5-1.9,5.3-2.7,8.5-1.2a7,7,0,0,1,2.6,1.9,8.4,8.4,0,0,0,2.4,2.2,2.1,2.1,0,0,0,1.7-.2,22.7,22.7,0,0,0,2.8-2.6c2.2-1.8,3.2-1.7,5.6.7-2.5,2.4-6.5,3.3-6.8,7.5a22.8,22.8,0,0,1-.1,10.4,6.2,6.2,0,0,0,.1,3.8c.9,4.2,4.3,4.3,7.5,4.2a84.8,84.8,0,0,0,8.6-.6c2.1-.2,4.1.2,5.1,2.5s-.7,1.8-1.8,1.9c-3,.2-6.1-.3-9,.8h-1c-3.2-1.4-6.6-.2-9.9-1-1.1-.2-1.4.5-1.9,1.1-1.9,2.3,11,.1,8.1,0s-19.2,2.1-20-.7L179,207l-1.8,3.9c-1,1.8,12.8-.3,10.6-.3h-12c-1.1,0-2.3-.3-3.3.1-3.4,1.3-19.9,3-23.1,2.5-.9-.2-2.1-.6-2.8-.2a9.3,9.3,0,0,1-10.4-2.4,1.3,1.3,0,0,0-2.1.3c-.2.2,1.7.5,1.5.8s10.7-.9,8.7-1.1h-.4c-2.3.2-17.8,2.5-20,2.3s9-2.2,6.8-2.3-19.3,2.3-22.3,1.7a4.6,4.6,0,0,0-3.6.4c-2.9,1.7-6.1,1.4-9.1.3-1-.4-1.7-.7-2.6-.1s-4.7.9-7,.5-2.2-1.1-3.3-1.8a14.3,14.3,0,0,0-3.8-1.3c-.6.1.7.8.1,1.3C75.4,214.7,70.5,214.5,66.9,210.7Z"/><path class="cls-3" d="M235.8,174.2c0-2.4,0-4.9.1-7.4s.6-2,2-2.1h3.7c3.9-.4,3.7,2.5,3.5,4.8a13.7,13.7,0,0,1-1.6,5.8,8.8,8.8,0,0,0,2,.9h3.8c1.5-2.2,1.7-5.6,5.3-6a1.6,1.6,0,0,1,1,.8c.7,1.6-.4,3-.5,5,1.9-1.4,1.7-4.2,4-4.8,2.7,4.6.7,9-5,10.9,5.4-.5,8.5,3.6,12.6,5.8.4,6.5-2.2,11.4-8,14.4-2.4,1.2-4.8,1.1-6.4-1.3s.6-3.6,2.3-4.8a11.6,11.6,0,0,0,4.2-5.1c.5-1.5.5-2.9-.8-4a3.6,3.6,0,0,0-4.1-.2c-5.3,2.4-7.9,10.7-4.9,15.7s6.7,5,11.2,2.2,5-2.2,7,1.1,4.7,3.3,7.6,2.2a5.8,5.8,0,0,0,3.9-6.5c-.3-4.5-1.8-9,.6-13.5.8-1.4-.3-3.1-1.8-4s-3.6-.6-5.4.5-2.8,4.2-5.9,2.8c-1.5-3.1.8-4.7,2.7-6.3s6.9-2.5,10.4-1.3,4.4,4.8,4.1,7.9c-.6,5.3,0,10.5-.2,15.8s-.3,8.5-6.8,8.6c-3.8,0-9.8.7-13-2.1-1.1-.9-2-.6-3,.1-3.9,2.8-7.5,2-10.7-1.2s-4.1-3.8-7.2-1.1c-1.4,1.3-3.6,1.1-5.2-.4s-3.2-3.6-1.7-6.2c2.3-.8,2.8,3.5,4.7,2s.3-4.2.2-6.4-.2-2.9-.2-4.3c-.1-9.5-.1-9.5,7.8-13.9-8.4,1.5-7.5-5.1-9.4-9.6.6,6-3.1,11.1-1.9,17.3a25.6,25.6,0,0,1-.5,13.7c-.9.8-2.3,1.2-2.8,2.4-2.7,6.3-7.8,6.4-13.4,5.2a1.4,1.4,0,0,1-.9-1.1c1.1-2.9,2.2-5.9,6.4-4,2,.9,2.8-.5,2.7-2.1a49.1,49.1,0,0,1,.1-11.5c.2-1.5-.1-3.6-2.2-3.6s-1.5,2.1-1.6,3.4c-.3,3.6-.8,7-2.8,10.1-.9,1.3-2,2.7-3.8,2.3s-2.3-2.2-2.4-3.8a57.2,57.2,0,0,1,.1-12.4,7.5,7.5,0,0,1,.7-1.2c4.2-1.5,7.9-5,12.9-3.6,1.4.4,1.5-.8,2-1.5S234.4,175.7,235.8,174.2Z"/><path class="cls-3" d="M124.6,202.3c-.1-1.8-.1-3.5-.2-5.3a1.6,1.6,0,0,0-1.6-1.5c-.8-.1-1.7,0-1.9.9s-.6,2.1-.2,2.7c1.5,2.1,1,4.2.2,6.3l-1.1,3.2c-.8,1.7-2.2,2.5-3.9,2-3.4-1-6.8,0-10.3-.5l-.3-10.9c-.1-.8-.1-1.6-.2-2.4a1.5,1.5,0,0,0-1.7-1.3c-.9,0-1.6.3-1.8,1.2s-.1,2.3-.2,3.4c0,2.9.1,5.7,0,8.6a1.8,1.8,0,0,1-2.2,1.9,16,16,0,0,1-2.3-.3c-3.1-.1-3.1-.1-3.1-3.1s0-6-.1-9.1a9.3,9.3,0,0,0-.4-2.3c-.2-.8-1.3-.9-1.9-.4a3.8,3.8,0,0,0-1.5,2.9c0,1.8.1,3.5,0,5.3a14.3,14.3,0,0,1-.9,4.1c-1.6,3.5-1.6,2.9-5.1,1.8a2.4,2.4,0,0,1-1.6-2.2c-.1-.7,0-1.3-.1-2s-.2-1.8-2.8-2.2l-.5-.6c-.5-2.3.8-4.3,1-6.4.9-7.6-.2-9.5-7.1-11.9-.7-2.5.1-3.9,2.7-4.2h1.9c2.2,1,4.1,1.9,6.3-.3s3.3-.8,4.9.1l1.1.8c1.5,1.4,2.9.2,4.2-.4s2.8-.8,3.8.6a2.5,2.5,0,0,1-.6,3.7c-1.5.7-3.1.8-4.4,1.9s-4.3,2-6.4-.8c-2.1,5.8-2,11.3-1.7,16.8,0,.9.3,2.1,1.4,2.2s1.4-1.2,1.5-2.1.1-3.2.3-4.8a9.3,9.3,0,0,1,1.5-4.5c1.3-1.7,2.6-3.9,4.8-3.5s1.7,3.4,1.9,5.4-.2,5.7.2,8.6c.1.8.4,1.7,1.3,1.7s1.3-.9,1.4-1.6a15.5,15.5,0,0,0,.3-4.8c-.2-3.9,1.7-6.7,4.2-9.4.9-.9,2-1.8,3.3-1.2s1.5,1.9,1.6,3.2c.2,2.9-.9,5.7-.8,8.6s-.1,3.1,1.9,5c.5-7.6,2.8-14.5-1.5-21.2l2.2-.2a19.6,19.6,0,0,1,11.5,0h10.6a5,5,0,0,1,5.7,0h3.9a8.9,8.9,0,0,0,7.1-.5c3.2-1.5,7.1-.3,10.3,2.1a3.5,3.5,0,0,1,.7,1.2c1.1,4.9-.4,9.5-2.2,13.9-.6,1.5-1.6,3-3.5,2.8s-2-2.2-2.2-3.8c-.4-3.3.6-6.9-1.2-10.7-3.1,4.3-.9,9-2.8,12.9l-.6.5c-2.4-1-2.4-1-2.8,1.2a3.3,3.3,0,0,1-.1,1.4c-.2.4-.7.6-1,.9-1.9-3.1-1-6.5-.7-9.8.7-7.5-2.9-10.5-9.9-7.7-1.8.7-2.9.3-4.4-.6-4.5-2.6-11.8.9-12.7,5.9a34.3,34.3,0,0,0,.1,13.9c2-2.4,1.6-4.7,1.5-6.7a12.2,12.2,0,0,1,4.9-10c2.2-1.8,4.1-1.5,4.1,1.6S128.4,199.6,124.6,202.3Z"/><path class="cls-3" d="M205.8,250.9a7,7,0,0,0-4.7-1c-.1-.2-.1-.4-.2-.6,1.8-5.1-.2-9.8-.5-15-2.1.9-1.8,2.3-2,3.5a8.3,8.3,0,0,1-1,4.1c-.9,1.5-1.6,3.6-3.7,3.1s-1.3-2.7-1.5-4.2,1.1-4.3.4-6.6c-2.6,2.7-3.8,10.8-2,13.4s2.9,1.4,4.5.3,4.2-1.7,5.2,1.4c-.1.2-.1.4-.2.6s-3.2-.1-4.3,1.4a9.8,9.8,0,0,1-2.3,1.7,1.7,1.7,0,0,1-2.2,0,11.9,11.9,0,0,1-2.3-1.6c-1.5-1.5-3.4-1.5-5.3-1.7a33.2,33.2,0,0,0,1.7-14c-.2-2.5.1-5.6-3.1-6.3s-4.6,2-6.4,4.3c2.1.7,4.5-2.3,5.7,1s-.8,4.4-3.3,5.4A13.5,13.5,0,0,0,175,242c-1.9,1.6-3.8,3.3-2.6,6.1s3.7,2.6,6.2,2.2,3.2-1.6,5-.6a20.2,20.2,0,0,0-.7,2.3,2.2,2.2,0,0,1-2.5,1.7l-4.8.3c-2,.3-3.6,0-4.2-2.4-.2-.7-1.1-1.2-1.7-1.8s-2.6-.2-2.3-2.3.1-4,2-5.1,3-3.2,3.2-5.8.2-5.1,2.4-7,.8-1.7,1.2-2.7c2.5,0,5-.2,7.6,0s3.5.5,3.6,2.9c0,.3.6.6,1,.8s.6.1.9.1H210c1.9,0,3.4-.2,3.8-2.6a2.1,2.1,0,0,1,1.3-1.1,7.1,7.1,0,0,1,2.9,0,3,3,0,0,1,1.8,1.3c.9,1.8,1.7,3.8.2,5.8a28,28,0,0,0-1.5,3,8.3,8.3,0,0,0-1.1,5.1l-.6.2c-2.8-1-2.2-3-1.5-5.1s1.9-2.9,1.1-5.4c-2.1,3.6-4.6,6-9.4,3.3,4.4,5.7,2.3,10.6-.6,15.3Z"/><path class="cls-5" d="M107.9,184c3,1.7,4,4.4,4,7.7a19.3,19.3,0,0,1-.1,2.4c-.3,3.4-.9,6.9-.4,10.4a2,2,0,0,1-1.7,2.5,2.4,2.4,0,0,1-2.8-1.4,7.2,7.2,0,0,1-.8-3.2c.1-2.5.4-5,.7-7.6s.8-3.7-.1-5.5c-2.5,0-3.1,2.3-4.4,3.7a7.4,7.4,0,0,0-2,5.7c0,1.8-.1,3.5-.1,5.3a8.5,8.5,0,0,1-.4,2.3,4,4,0,0,1-1.7,1.5,1.8,1.8,0,0,1-2.4-1,7.3,7.3,0,0,1-.9-3.2c-.1-2.7.1-5.4.2-8.1s-.1-3.2-.1-4.8a1.2,1.2,0,0,0-.5-.7,1.1,1.1,0,0,0-.8.1c-1.4,1.8-2.9,3.4-4.1,5.3a4.9,4.9,0,0,0-.6,2.7c0,2.1.1,4.2,0,6.3a2.5,2.5,0,0,1-2.1,2.7,2.9,2.9,0,0,1-3.3-2.1,12.4,12.4,0,0,1-.4-3.3c.2-5.4.5-10.8.8-16.3a.6.6,0,0,1,.1-.4c.4-.6.9-1.5,1.5-1.7a2.5,2.5,0,0,1,1.9.9,30.1,30.1,0,0,1,1.8,3.6c2.3-2.7,4.7-4.8,8.3-3.9h.7c2.8,3.8,5.5.4,8.3,0Z"/><path class="cls-3" d="M106,259.3c.2-2.9.5-3.2,2.8-3.1a9.9,9.9,0,0,1,2.4.3c1.6.5,2.2,1.3,2.3,3.1s0,2.5.1,3.8c.3,4,1.7,4.4,7.2,4.2a38.8,38.8,0,0,1,4.8.4,3.1,3.1,0,0,0,3.5-1.8c.8-2.2,2.5-2.5,4.6-2.4l5.6.2a1.8,1.8,0,0,1,1.7,2.3,17.6,17.6,0,0,1-1.6,4c-.2.5-1,.8-1.6,1.1l-.6-.3c-.5-1.7-.8-3.7-3.2-3.6s-3.9,1.9-5,3.9-.3,3.4,1.2,4.7l.8.5c2,1.3,4.5,2.7,3.2,5.5s-4,1.3-6.3.9-3.2-.5-4.8.2-2.8.6-3.8-.8a3.3,3.3,0,0,1,0-4c.9-1.5,2.1-2.9,2.5-4.6s.6-2.3-.5-3-2.1-.2-3,.5c-2.7,2.2-4,7.8-2.5,11s4.8,4.6,8.5,2.2c1.1-.7,2-2.2,3.7-1.5s1.8,5.3,5.4,3.9,4.2-4,3.8-7.3c-.1-1.3-.6-2.7,0-4l.6-.2c2.5,1,2.9,1.3,2.3,3s.1,2.8.2,4.1.4,4.1-2.4,4.8c-1,.3-1.7,1.5-2.7,2.1s-3.3,1.7-5.2.4a4.8,4.8,0,0,0-1.8-.8c-.9,0-2.1-.1-2.6.4s-3.2,1.2-4.9,1.3-2.6.1-3.1-1.9a2.3,2.3,0,0,0-3.5-1.3,2.3,2.3,0,0,1-2.7-.5,2.3,2.3,0,0,0-3.3-.1c-1.1.8-5.6,1-7.3.5-.2,0-.3-.5-.5-.7a12.1,12.1,0,0,1,6.2-3.3c3-.6,3.8-2.2,3.9-5,.2-5.2-1.2-10.3-1.1-15.6C109.3,260.7,107.8,259.9,106,259.3Z"/><path class="cls-3" d="M183,209.8c-1.1-1.8-1-3.9-.9-5.9,4.6,2,5.4,1.6,5.4-3.5s.6-7.7-.7-11.5-3.5-4.4-6.8-3.3-4.8,3.5-8.1,3.8c-1.5.1-2.1,14.9-.8,15.9s2.2.1,3.2.6.1.9.1,1.4c.1,2.9-.5,3.3-3.6,3.2l-9.9-.2c-3.2,0-4.5.6-7.8,1s-4.8-.4-5.1-2.5-.4-4.4-.6-6.6l.2-.2a1.7,1.7,0,0,1,1.8,1.2c1.7,3.4,3.9,5,7.4,2.2a2.7,2.7,0,0,1,2.7-.5c4.2,2.1,4.1-.8,4.1-3.5s-.1-6.4,0-9.5-1.1-5.5-4.5-6.1h-.2c-.4-1.1-.5-2,1.1-1.9h3.8a48.2,48.2,0,0,0,12,.1,2.7,2.7,0,0,0,2.9-2.5c.2-1.4,1-1.5,2-1.3a32,32,0,0,1,4.2,1c.3.1.7.2.8.4,1.1,2.6,4.4,3.7,4.1,7.3-.3,5.4,0,10.8-.1,16.2,0,1.7-.5,3.4-.7,5.3C187,211.1,184.9,211.6,183,209.8Z"/><path class="cls-3" d="M89.8,250c-.8,1.1-1.6,2.1-3.1,1.2-3.4-2-7.1-1.3-10.7-1.2-1.8,0-3,1.5-4.4,2.6s-2.1,1.5-3-.1-3.6-2.4-5.2-3.9-2.2-.8-3.4.9a2.6,2.6,0,0,1-1.8,1.3,2.1,2.1,0,0,0-2.1,2.2,1.3,1.3,0,0,1-1.6,1.3l-6.2-.6c-2-.2-4-.3-6-.6-.5,0-1.1-.6-1.4-1.1a14.3,14.3,0,0,1-1.2-2.1l.6-.4a3.1,3.1,0,0,1,1.9,0c12.6,2.8,20.7-3.5,21.3-16.5.2-4.2-.4-8.3-.1-12.4l.5-.6c1.8,1,3.1,2.1,2.8,4.4s.5,2.5.6,3.7.2,2.6,2.5,2.6H86.4a3.9,3.9,0,0,0,3.7-1.6c.6-.7,1.9-1,2.9-1.5s1.4.2,1.5,1.1a11.5,11.5,0,0,0,.1,1.9l-.5.5c-2.6.4-3.4,2.4-4.2,4.6-1.7,4.5-2,4.6-5.1.8-.3-.4-.7-.7-1.9-.6,1.5,4.9-.1,11,6.5,13.5A2.1,2.1,0,0,0,89.8,250Z"/><path class="cls-3" d="M95.5,252.8c-.4-1-.7-1.9-1-2.9l.6-.3c3.8,1,7.4-.8,10.9-.9,7-.3,5.5-4.4,5.5-8.1s2.3-4.8,4.8-6.2c-5.1-1.9-7.1-1.1-7.1,3.5s-2.9,6.8-6.3,8.8a3.1,3.1,0,0,1-4.3-.7c-1.3-1.6-.6-2.9.7-4.2a12.9,12.9,0,0,0,1.7-1.6c4.2-4.6,3.6-7.2-2.3-9.1l-.4-.5a12.1,12.1,0,0,1,.1-1.9c.3-1.4,1.1-2.1,2.2-1.7s3.8.4,4.6,2.6a2.7,2.7,0,0,0,2.8,1.5l7.5-.4c1.6,0,2.8-.2,3.1-2.2s1.6-1.6,2.9-1.7c1.4,3.6.9,7.1.5,10.8s-1.7,8.7,2.9,11.7l.4.6c-2.3,2-4.2.2-6.1-.5s-.5-.8-.6-1.3a17.8,17.8,0,0,1-1.1-6.5,2.5,2.5,0,0,0-1.7-2.6c-1.1-.5-2-.1-2,1.1-.1,2.8-.1,5.7-.1,8.6v2.4c-.1,2-.6,2.6-2.6,2.6-5.2.1-10.5.4-15.6-.9Z"/><path class="cls-19" d="M106,259.3a5.3,5.3,0,0,1,1.5-1.1,1.5,1.5,0,0,1,2.3.8,6.5,6.5,0,0,1,.6,2.3c.5,5.5.9,11,1.3,16.6a15.3,15.3,0,0,1-.2,3.7c-.3,2.2-1.6,3.2-3.9,2.5a2.6,2.6,0,0,0-2.6.9,5.5,5.5,0,0,1-4.7,1.7h-.1a6.3,6.3,0,0,1-4-3.8c-.8-2.4-.2-4.8.2-7.2s.8-3,2-3.7c4.9-2.6,7.2-6.7,7.5-12A.6.6,0,0,0,106,259.3Z"/><path class="cls-20" d="M121.5,226.2c.3-1.8.5-3.5.8-5.2a9.5,9.5,0,0,1,.5-2.3c.3-.8,2.1-.9,2.4-.1a12.2,12.2,0,0,1,.9,2.7c.1.9,0,1.9.1,2.8l.3,2.5,4.8-.9a4.2,4.2,0,0,1,1.9-.3,2.6,2.6,0,0,1,1.4,1.1,1.7,1.7,0,0,1-.5,1.6,14.3,14.3,0,0,1-3,1.6,16,16,0,0,1-3.1,1,2.3,2.3,0,0,0-1.9,2.4c0,4-.1,8,0,12a7.7,7.7,0,0,1-1.1,4.5c-3.4.1-4.4-.6-4.5-3.4s.2-6.4.4-9.6.6-4-.1-6.1.4-2.4.7-3.7A.4.4,0,0,0,121.5,226.2Z"/><path class="cls-3" d="M79.4,203.1a5.2,5.2,0,0,1-2.8,4.2,6.2,6.2,0,0,0-1.8,1.4c-1.7,1.8-1.7,1.9-3.2,1l-2.8-1.9c-2.9-2.5-6.1-1.8-9.3-.8-.4.1-1,.7-.9.9.5,2.9-1.2,2.2-2.9,1.9a2.8,2.8,0,0,0-1.8.3c-2.8,1.5-5.6-.2-8.4.1a1.9,1.9,0,0,1-1.2-.7,14.4,14.4,0,0,0-3.5-3.9c-.6-.4-.6-1.7-.8-2.6s-.1-.6-.1-.9a2,2,0,0,1-.1-2,1.5,1.5,0,0,1,1.3.1c1.1,1,1.4,2.4,2.2,3.6a8.4,8.4,0,0,0,8.7,3.7c3.8-.6,6.1-3.1,7.7-6.4a2,2,0,0,0-.4-2.6,2.1,2.1,0,0,0-2.6,0c-1.5.9-2.6,2.3-4.2,3.1s-4.5.3-4.8-2.7c3-.7,4.7-5,8.6-3.6h3.9a61,61,0,0,0,5.7-8.6c1.1-2.2,2.4-4.3,5.5-3.3,1.4,1.8-.3,2.9-1.1,4.2a30.4,30.4,0,0,0-3.7,8.7c-.8,3.7.1,6.7,3.1,9s5-.1,7.2-1.7a2.9,2.9,0,0,1,2.2-.8Z"/><path class="cls-3" d="M219.5,206.9l-.9,1h-2.9c-2.1-1.1-4.1-1.9-6.7-1.1s-5,.4-7.5.7a11.4,11.4,0,0,1-6.3-1.6c-1.9-1.2-1.6-3-1.6-4.7h.6c5.6,4.2,7.8,4.6,11.3,1.9a5.7,5.7,0,0,0,2.7-4.8c-.2-3.8-.3-7.6-2-11.2s-4.2-4.7-7.8-1.9c-1.3,1.1-2.3,2.6-4.2,2.9l-.6-.2c0-1.6-.1-3.1,1.4-4.3s3.4-3.6,6.3-3.4h1.9c2.6-1.2,5.1-1.4,7.3.9a1.6,1.6,0,0,0,2.2.2,2.4,2.4,0,0,1,1.1-.6,2.7,2.7,0,0,1,1.3-.2,2.4,2.4,0,0,1,1.1.6c.8.8,1.4,1.7.5,2.9l-.2.2c-4.7,5.4-3.6,11.8-2.9,18.1.4,3,3.9,3,5.7,4.6Z"/><path class="cls-1" d="M56.3,195.3a5,5,0,0,0-3.7,1.9c-1.2,2.1-3,2-4.9,2a2.8,2.8,0,0,1-.8-1.1,9.9,9.9,0,0,1-.1-4.2,11.2,11.2,0,0,1,.5-1.3c.9-2.2,2.5-4,3.4-6.2a6.3,6.3,0,0,1,4.3-3.6c3.6-.9,6.3-3,6.6-7,.2-2.5-4-5.6-7.8-6.2A7.6,7.6,0,0,1,52,169l-.5-.5a1.9,1.9,0,0,1,1.3-1.8c2.3-.8,4.7-.2,7,0,.7,0,5.9,5.1,5.9,5.7a64,64,0,0,1-.1,7.6c0,.7-.9,1.2-1.4,1.8s-2.2,1.5-2.7,2.5a4.5,4.5,0,0,1-4.3,2.5c-1.3-.1-1.9,1-2.4,2C53.6,191.4,54.9,193.4,56.3,195.3Z"/><path class="cls-3" d="M150.2,230.7c1.6.1,3.1.9,2.7,2.6s.5,3.4,1.7,4.6a3.7,3.7,0,0,1,1.1,3.8,4.4,4.4,0,0,0,.2,2.3c.9,1.8.2,3-1.1,4.2s-3.6,3.6-5.7,4.8-3.8,1.9-5.9,1.1-5.5-.8-8.3-.6a39.2,39.2,0,0,1-4.9.1v-3.7l.3-.3c2.9-.4,6,.2,8.8-1.6,1-.7,2.1-.1,3.1.6,3.3,2.3,6.1,1.1,8.4-1.7s2.5-5.7-.1-8.6l-.8-1.2a5.3,5.3,0,0,1-.3-1.2c.3-1.7-.1-3.4.5-4.9Z"/><path class="cls-1" d="M216.7,183.8c-.3-1-.7-1.9-1-2.8h-1.9l-.9,1.6c-1.2,1.6-2.1,1.6-3-.3s-1.6-2.4-3.5-2a11.9,11.9,0,0,1-3.2-.3,3,3,0,0,1,3-1.9l11.3.4c.5,0,1,.3,1.4.2,2.6-1,5.3-.4,8-.7.9-.1,2.2-.4,2.5-1,1.3-2.9,3.8-2.9,6.4-2.8a2.9,2.9,0,0,1-1.6,2.8,4.8,4.8,0,0,0-2.7,3.6c-.4,1.5-.8,1.7-1.9.8s-1.5-.9-2.4-.1-1.1.5-1.3.3c-1.7-1.5-2.6-.2-3.8.8A6.5,6.5,0,0,1,216.7,183.8Z"/><path class="cls-1" d="M97.5,183.9a6.5,6.5,0,0,0,0-1.4c-.4-1.9-1-2.3-2.5-1.6l-2.9,1.7c-1.6,1-1.6,1-2.7-.8a3,3,0,0,1-.4-.8h0c-4-1.5-4-1.5-7.1,2.1a1.7,1.7,0,0,1-2.5.1c-.7-1-1.3-2.1-2-3.2a8.8,8.8,0,0,1,5.8-1.9,48.5,48.5,0,0,1,6.6.2,6.5,6.5,0,0,0,3.7-.3c2-1,3.8-.4,5.5.5s2.2,2.6,2.4,4.4v.9c-1.2,1.2-2.6.8-3.9.1Z"/><path class="cls-1" d="M40,180a5.5,5.5,0,0,1,2.5-4.3c2.4-1.4,3.9-3.7,5.8-5.5s1.8-1.7,3.2-1.7c2.8,2.8.1,4.2-1.5,5.6a24.3,24.3,0,0,0-8.9,19,4.9,4.9,0,0,1-.5,2,2,2,0,0,1-1.6,1.2c-1.4-.7-2.4-1.9-1.5-3.4a8.4,8.4,0,0,0,.6-5.6,36.8,36.8,0,0,1,0-4.7A2.9,2.9,0,0,1,40,180Z"/><path class="cls-3" d="M36.8,232.6c-.5-5.2,2.8-8.8,5.2-12.7,3.5-1.9,6.4-5.1,11-4.6a54.2,54.2,0,0,0,5.7,0,5.2,5.2,0,0,1,3.6,1,4.9,4.9,0,0,1,1.6,3.7l-.2.2c-3.3-.5-6-2.5-9.9-2.1-6.2.6-9.8,3.8-12.7,8.7-1.1,2-1.4,4.6-3.6,6Z"/><path class="cls-1" d="M72,184.1c-2.6-.6-4.4.5-5,3a6.6,6.6,0,0,1-2.1,3.5c-.8.9-1.8,1.6-1.9,3.1s-1.6,1.6-2.8,1.6.2-2.3.8-3a12,12,0,0,0,3.2-6.8,4.7,4.7,0,0,1,1.1-2.1c.5-.6,1.2-1.3,1.9-1.3,2.4.1,4.1-1.3,5.8-2.7a1.7,1.7,0,0,1,2.5.6l-2.9,3.9-.2.2Z"/><path class="cls-1" d="M160,183.8l-1.1,1.9-4.5-1.3-4.1-.5c-1.6-.2-2.5.5-2.9,2.2s-1.5,1.8-2.7.6-1.9-1.9-2.9-2.9.6-1.8,1.7-1.8h14.7C159.4,182,159.8,182.8,160,183.8Z"/><path class="cls-3" d="M217.4,242.2c1.4.1,2.5.7,2.7,2.2s.6,3.2-.6,4.5a3.3,3.3,0,0,1-2.1.9c-1.6.1-2.8.5-3.4,2a1.7,1.7,0,0,1-2.2,1.2,6.7,6.7,0,0,0-2.8.2c-2.1.3-2.1.3-3.2-2.3l.2-.2c1.7-.5,3.3-1,4.1-2.8s1.4-2.6,2.8-1.8c4.6,2.3,3.7-1.5,4.3-3.7Z"/><path class="cls-3" d="M105.9,260c-.1,2.6-.1,5.3-.2,8,0,.4-.7,1.2-1.1,1.2-4.4.4-5.8,3.8-7.4,7.1a1.7,1.7,0,0,1-2.1.1c-1.1-1.8-1.9-3.6-.9-5.7l.2-.2c1.4.8,2.7,1.4,4.2-.3s2.4-1.5,3.6-2.2a2.7,2.7,0,0,0,1.7-3.1,11.6,11.6,0,0,0-.4-1.8c-.2-.8-.5-1.6.3-2.2A7.8,7.8,0,0,1,105.9,260Z"/><path class="cls-1" d="M265.8,156.4c1.2.1-19.7,7.1-19.6,8.3a47,47,0,0,1,0,7.5c-.1,1.4-1.4,2.3-2.7,3,.1-1.8-.8-3.6.6-5.4s-.4-2.6-.7-3.9-1-1.2-1.8-1.3,22.8-8.3,24.2-8.2"/><path class="cls-3" d="M43.7,260a8.2,8.2,0,0,1,4.6,2.4,3.9,3.9,0,0,0,3.7,1.3l.3.3c.8,2.3-.5,3.8-2.2,4.6s-2.9-.9-3.9-2-3.4-3.5-3.1-6.2Z"/><path class="cls-1" d="M255,170.4l-2.3,1.6c-.8.5-.8,1.1-.8,2s-1.2,2.1-2.6,2.1-.6-.8-.6-1.3c-.1-2.5,2.6-6.3,5.2-7,.3-.1.8.4,1.1.7S255.5,169.7,255,170.4Z"/><path class="cls-1" d="M121.6,183.8a41.4,41.4,0,0,1-6,.9,35,35,0,0,1-5.5-.9c1.2-2.7,4-2,6.1-2.4s3.1.4,4.5.9S121.3,183.3,121.6,183.8Z"/><path class="cls-3" d="M36.8,246.1c-2.8-1.3-3-1.4-2.4-3.6a7.5,7.5,0,0,0,.2-4.2,5.1,5.1,0,0,1,2.2-5.7H37c1.9,4.2,0,8.6.4,12.9Z"/><path class="cls-3" d="M97.5,183.9h3.9l5.1.2-6.3,4.6a9.7,9.7,0,0,0-1.1-2.3C98.6,185.5,98.1,184.7,97.5,183.9Z"/><path class="cls-3" d="M97,283.1l3.2,3.6H92.3c-1.2,0-1.6-.8-1.8-1.8l.2-.2c1.3-.5,2.8-.3,4-1.2S96.1,282.7,97,283.1Z"/><path class="cls-3" d="M137.6,271.5a3,3,0,0,0,0,3.8l-.3.3a2.9,2.9,0,0,1-2.4.1c-1.8-.9-4.5-1.6-3.2-4.3s3.6-2,5.6-.2Z"/><path class="cls-3" d="M94.5,249.9H89.8l-.2-.3a6.1,6.1,0,0,1,1.8-5.7c1.5-.4,2.1.8,2.7,1.7s1.4,2.5.7,3.9Z"/><path class="cls-3" d="M94.6,230.6h3.7l.2.3a5.1,5.1,0,0,1-2.2,4.3c-3-.1-3.3-.8-1.9-4.4Z"/><path class="cls-1" d="M137.9,183.8h-5.7c.9-2,2.7-2.1,4.6-1.7S137.8,183.1,137.9,183.8Z"/><path class="cls-3" d="M255,170.4v-1.9h2.9c.9.5.9,1.4.8,2.3a7.7,7.7,0,0,1-3.4-.2Z"/><path class="cls-3" d="M39.7,249.9c-2.2-.3-2.4-2.1-2.9-3.8l.3-.2c2.3.1,2.9,1.7,2.9,3.7Z"/><path class="cls-3" d="M39,196.3l1-.9a3.3,3.3,0,0,1,.1,4.7l-.2.2c-.4.2-.6.2-.9-.1Z"/><path class="cls-3" d="M52.2,257c.6-.2,1-.5,1.1-.4a6.1,6.1,0,0,1,.7,1l-.4.4Z"/><path class="cls-1" d="M39,200.2h.9v1.8C39.4,201.5,37.8,201.5,39,200.2Z"/><path class="cls-3" d="M95.5,252.8l-.3.4.3-.4Z"/><path class="cls-3" d="M201.1,249.9c-.3.6-.7.6-1,0l.2-.3.3-.2.4.3Z"/><path class="cls-3" d="M42.6,259l.9.9-.3.3a1.2,1.2,0,0,1-.9-.9Z"/><path class="cls-21" d="M124.6,202.3a27.4,27.4,0,0,0,.9-11.4.7.7,0,0,0-1.3-.5,47.9,47.9,0,0,0-4.6,5.5,6.6,6.6,0,0,0-.7,3.2c-.1,2.2-.1,4.4-.2,6.7a6.4,6.4,0,0,1-.5,2.3,2,2,0,0,1-2.3,1.2,2.9,2.9,0,0,1-1.8-1.4,7.3,7.3,0,0,1-.4-3.3c.3-4.9.7-9.8,1-14.8a7,7,0,0,1,.3-1.4c.4-1.7,1.7-2.1,3.1-.8a12.4,12.4,0,0,1,1.3,1.5,15,15,0,0,1,1.8-2.4c3.4-3.3,5.9-3,9,.9l.5.6,2.1-1.6a7.2,7.2,0,0,1,11.4,4.8,16.1,16.1,0,0,1,0,3.8c-.2,3.5-.5,7-.7,10.5h0c-.6,1.9-2.1,2.3-3.8,1.7s-2.2-2.2-2.4-3.8c-.4-3.5.2-6.9-.6-10.6a21,21,0,0,0-5.4,9.9c-.2.7,0,1.6-.2,2.3s-.6,3.6-2.8,4-3.1-1.7-3.8-3.5h.1a2.1,2.1,0,0,1-.1-2.9A.6.6,0,0,0,124.6,202.3Z"/><path class="cls-22" d="M174.3,205.9c-1.1.7-1.9,2.3-3.6,1.6s-2-2.4-1.9-4c.3-4.6.5-9.2.8-13.8.1-2.2.9-2.7,3.1-1.9s1.3.6,2-.2a17.9,17.9,0,0,1,2.5-2.2,9.3,9.3,0,0,1,5.3-1.7,4.8,4.8,0,0,1,4.9,3.2,24.6,24.6,0,0,1,1.2,6c.1,3.5-.1,7-.2,10.5a12.5,12.5,0,0,1-.3,1.9,2.6,2.6,0,0,1-2,1.9,2.6,2.6,0,0,1-2.8-1.2,14.3,14.3,0,0,1-1.2-2.1h0a5.4,5.4,0,0,1,0-4.8,7.6,7.6,0,0,1,.1-1.5,15,15,0,0,0,.4-4.2c.1-2.8-1.3-3.2-3.6-2.1h.1c-.1.4-.5.7-.9,1.1h0c-1.6,4.3-.7,9.4-3.9,13.4Z"/><path class="cls-3" d="M124.5,205.8a13.7,13.7,0,0,0,1.7,2.3,2.4,2.4,0,0,0,3.9-1,6.3,6.3,0,0,0,.3-1.9c.3-4.4,2.1-8.3,3.7-12.3a14,14,0,0,1,1-1.6,2,2,0,0,1,2.6-.5,2.3,2.3,0,0,1,1.2,1.8c-.1,1.9-.4,3.8-.5,5.7a30.3,30.3,0,0,0-.3,5.2,3.4,3.4,0,0,0,2.1,3.5c1.4.5,2.3-.4,3.3-1.2a13.7,13.7,0,0,1-.2,2.8c-.4,2.3-2.2,2.9-3.8,1.1s-3.5-4-3-7a2.6,2.6,0,0,0-1.9-3.3c-1.2-.2-2.2,1-2.4,2.8a35.5,35.5,0,0,1-.6,4.7c-.7,2.8-1.6,3.3-4.8,3.1l-1.4-.2h0A7,7,0,0,1,124.5,205.8Z"/><path class="cls-3" d="M193.5,198.2c.1-1.3.1-2.5.1-3.8s-.6-5-.7-5.6.4-.8.7-1.1h.1c2,.8,3.3-.7,4.8-1.5s3.9-1.7,5.3.7-.3,3.4-2.2,4.2-4.9,4.9-7.4,7.2Z"/><path class="cls-3" d="M174.3,205.9c.7-3.2,1.3-6.5,2.1-9.7a18.1,18.1,0,0,1,1.8-3.7,19.7,19.7,0,0,0,.1,4.2C179.2,200.8,177.6,203.7,174.3,205.9Z"/><path class="cls-3" d="M179,191.4a12.5,12.5,0,0,1,1.7-1.6,1.3,1.3,0,0,1,1.9.9,12,12,0,0,1-.4,7c-.1-1.1-.1-2.2-.1-3.3S181.9,192.1,179,191.4Z"/><path class="cls-3" d="M182.1,199.2V204C180.6,202.4,180.7,200.8,182.1,199.2Z"/><path class="cls-3" d="M67.9,208.9c.2.6.5,1,.4,1.1a2.1,2.1,0,0,1-1,.6c-.1.1-.4-.3-.4-.3Z"/><path class="cls-3" d="M193.6,201.1c-1.2-1.4-1.2-1.4-.1-2.9h.2a2.1,2.1,0,0,1,.1,2.7Z"/><path class="cls-3" d="M124.5,203a28.1,28.1,0,0,0,.1,2.9C123.3,204.5,123.3,204.5,124.5,203Z"/><polygon class="cls-3" points="183 209.8 182.8 210.2 182.6 210 183 209.8"/><path class="cls-3" d="M125.4,209.8l-.2.4.2-.4Z"/><path class="cls-3" d="M178.2,192.5l.9-1.1Z"/><path class="cls-7" d="M266.6,187.8l4.8-4.7a5.8,5.8,0,0,1,4.9-1.3,5.2,5.2,0,0,1,4.6,5.8,18.3,18.3,0,0,1-2.1,5.3c-.4.8-1,1.4-.2,2.4,2,2.5,1.8,5.4,1.5,8.3a7.4,7.4,0,0,1-6.3,6.3c-3.7.6-6.5-.7-8.1-3.7-.5-1-.8-2.1-1.3-3.4l-3,2.6c-6.4,5.6-13.4.6-14.9-5.1s2.2-12.9,6.9-15.2a4.8,4.8,0,0,1,5.4.6,4.5,4.5,0,0,1,1.4,5.2c-1,3.1-3.2,5-5.9,6.6-.8.5-2.6.5-2,2.1a3.4,3.4,0,0,0,3.1,2.5,3.1,3.1,0,0,0,1.9-.3,24.2,24.2,0,0,0,6.8-5.9c.3-.4.7-.9.6-1.3-.2-2.5,1.4-4.6,1.9-6.8Z"/><path class="cls-6" d="M219.3,206.7c-4.9.2-7-1.5-7.5-6.3a48.1,48.1,0,0,1,1.3-15.1c.2-1.3.9-1.5,3.4-1.3.1,2,.3,4.1.3,6.2s0,5.1.1,7.6-.1,2.6,1.2,2.8,1.7-1.2,2.3-2.1a15.8,15.8,0,0,0,2.9-9c.1-1.4.1-2.8.2-4.3a2.5,2.5,0,0,1,2.2-2.2,2.7,2.7,0,0,1,3.2,1.4,9.7,9.7,0,0,1,.7,3.7c-.1,4.5-.5,8.9.3,13.4a2.8,2.8,0,0,1-1.7,3.1,2.6,2.6,0,0,1-3.1-.6l-1.8-1.6Z"/><path class="cls-23" d="M235.9,200.9c.2-.3.2-.5-.1-.7l.3-13.9c.1-1.7,0-3.1-1.5-4.3s-.9-2,.3-2.8a4.4,4.4,0,0,0,1.8-4.1c-.1-2.3,0-4.5,0-6.7a9.5,9.5,0,0,1,.5-1.8,1.5,1.5,0,0,1,2.1-.5,5.9,5.9,0,0,1,1.3,1.9c.4,2.5.7,5.1,1,7.6a1.5,1.5,0,0,0,1.9,1.6h4.8a3.9,3.9,0,0,1,1.8.4,1.6,1.6,0,0,1,.8,1c.1.4-.2,1.2-.5,1.3l-4.4,1.7-3.9.8a18.7,18.7,0,0,0-.4,3.2c.1,5.5-.1,10.9,1,16.3a3.2,3.2,0,0,1,.2,1.4,2.8,2.8,0,0,1-1.7,2.7,2.9,2.9,0,0,1-3.4-1.2C237.1,203.5,236.6,202.2,235.9,200.9Z"/><path class="cls-24" d="M255.3,170.6a2.2,2.2,0,0,1,3.4.2c-.2.2-.1.4,0,.6s-.9,2.7-1.5,3.9a7.8,7.8,0,0,1-1.6,2.4,1.7,1.7,0,0,1-1.7.2c-.3-.1-.6-1-.6-1.5a12.2,12.2,0,0,1,.7-1.7C254.5,173.3,254.9,172,255.3,170.6Z"/><path class="cls-6" d="M159.1,185.8c1.1-.7,2.2-1.4,3.5-.8a3.7,3.7,0,0,1,2,3.1c.1.6.1,1.3.2,1.9l.3,14.7a2.8,2.8,0,0,1-1.4,2.8,2.9,2.9,0,0,1-3.2-.3l-.7-.6-1.1-1.3a17.5,17.5,0,0,1-2,1.9c-2.6,2-5.6,1.5-7.3-1.3a27.6,27.6,0,0,1-1.8-3.9c.2-3.9.3-7.9.5-11.9a5.2,5.2,0,0,1,.3-1.8,3.5,3.5,0,0,1,1.7-1.5,1.8,1.8,0,0,1,2.3,1.2,8.2,8.2,0,0,1,.6,2.7c.1,1.6-.1,3.2,0,4.8s.1,3.5.2,5.2.2,1.9,1.1,1.9a2.6,2.6,0,0,0,1.6-1.5,28.3,28.3,0,0,0,2.4-6.7A61.1,61.1,0,0,0,159.1,185.8Z"/><path class="cls-23" d="M72,184.1a.5.5,0,0,0,.6-.2l2.9-.2a4.2,4.2,0,0,1,4.6,2.5c2.1,4,1.9,8,.6,12.1-.4,1.6-1.1,3-1.6,4.5l-2.6,2.8c-4.1,3.7-8.8,1.2-10.4-2.1a10.8,10.8,0,0,1-.9-6.1C66.1,192.3,67.9,187.6,72,184.1Z"/><path class="cls-22" d="M183.6,249.7a21.7,21.7,0,0,1-3.5,1.5,18,18,0,0,1-5.1.5c-3.7-.4-5.4-3.7-3.8-7.1a11.2,11.2,0,0,1,4.7-4.7l2.5-1.3c2.9-1.2,2.9-1.2,2.1-5.1a43.7,43.7,0,0,1-4,2.5c-.5.3-1.5.3-1.7,0s-.9-1.6-.6-2.1a11.3,11.3,0,0,1,6.4-6.1,3.8,3.8,0,0,1,5.2,2.8,19.4,19.4,0,0,1,.7,4.2c.1,2.2-.1,4.5.1,6.7a9.5,9.5,0,0,1-2.9,8.2Z"/><path class="cls-25" d="M201,249.7h-.7l-2.5-2.7a37.1,37.1,0,0,1-2.6,2.8c-2,1.7-4.3,1.4-5.7-.9a6.5,6.5,0,0,1-.8-2.2,35.4,35.4,0,0,1,1.7-13.7c.1-.3.2-.7.5-.8s1.1-.7,1.6-.6a1.8,1.8,0,0,1,1.4,1.1,15.3,15.3,0,0,1,.1,3.7c-.1,2.6-.3,5.1-.6,8.1,2.6-1.1,3.2-3,3.7-4.9a13.7,13.7,0,0,0,.2-2.9,18.5,18.5,0,0,1,.4-2.3,2.4,2.4,0,0,1,2.3-2.1c1.1,0,2.1,1,2.2,2.6.3,3.8.5,7.6.8,11.4C203.2,247.9,202.2,248.9,201,249.7Z"/><path class="cls-26" d="M217.2,242.4c.4,1,1,2,1.3,3a2.4,2.4,0,0,1-.9,2.9,2.1,2.1,0,0,1-2.7-.1l-2.8-2c-.6,1.4-1,2.5-1.6,3.7s-1.7,2.2-4.5.8c-.2-2.5,1.1-4.6,2.2-6.7a3.9,3.9,0,0,0-.3-4.5l-2.1-3.1a2,2,0,0,1-.2-2.2,2.3,2.3,0,0,1,2.6-.8,8.6,8.6,0,0,1,2,1.3,15.3,15.3,0,0,1,1.7,1.4c.9-1.2,1.6-2.4,2.4-3.5a12.4,12.4,0,0,1,1.9-2.1,1.5,1.5,0,0,1,1.3,0,2,2,0,0,1,1,1.4,4.8,4.8,0,0,1-.5,2.3c-.6,1.3-1.3,2.5-2,3.8S215,240.2,217.2,242.4Z"/><path class="cls-27" d="M42.2,259.2l.7.7c1.9,2.6,3.7,5.2,5.6,7.7a.9.9,0,0,0,1.6,0c.8-1.1,1.5-2.4,2.2-3.6l3.6-4.4a13.7,13.7,0,0,1,1.6-1.8,2.2,2.2,0,0,1,3,.5,7.3,7.3,0,0,1,.9,3.2c.2,7.8.2,15.6.3,23.5a4.3,4.3,0,0,1-.6,2.2,2.1,2.1,0,0,1-2.3,1.4,3.4,3.4,0,0,1-2.2-1.5,6.8,6.8,0,0,1-.6-3.2V268.3c-1.8.8-2.2,2.2-3,3.3s-3.2,2.8-6,1a8.8,8.8,0,0,1-1.5-1.2c-2.2-.3-1.5,1-1.2,2.1.1,2.8.2,5.7.2,8.6a8.8,8.8,0,0,1,0,2.3,2.8,2.8,0,0,1-2.5,2.5,2.9,2.9,0,0,1-3.2-1.5,12.7,12.7,0,0,1-.9-4.2c-.1-6.6-.1-13.3-.1-20a2.8,2.8,0,0,1,.1-.9c.2-1.6,1.5-2.3,3.1-1.7A6.7,6.7,0,0,1,42.2,259.2Z"/><path class="cls-28" d="M95.4,284c-2,2.2-2,2.2-4.7.8-.2-2.7-.3-5.5-.5-8.2-.1-.7-.3-1.7-.9-2s-1.7.4-2.3,1-2.6,3.3-2.3,5.6a6.5,6.5,0,0,1-.2,2.8,2.9,2.9,0,0,1-1.8,1.3,2.7,2.7,0,0,1-1.9-1.1,4.3,4.3,0,0,1-.5-2.3c-.1-3-.2-6-.2-9.1a11,11,0,0,1,.2-1.8,1.6,1.6,0,0,1,2.6-.9c1,.9,1.6,1.3,2.7.3,2.9-2.3,5.8-2.4,8.6.3l1.2,5.5C96.7,278.8,96.2,281.4,95.4,284Z"/><path class="cls-29" d="M78.8,275.9a13.7,13.7,0,0,1-2.9,8.4c-2.6,3.1-6.6,3.3-9.2.3a8.2,8.2,0,0,1-2-4.2,11,11,0,0,1,2-8.6c3.2-4.6,8.7-4.2,11.1.9A18.9,18.9,0,0,1,78.8,275.9Z"/><path class="cls-26" d="M137.3,271.2l-1.8-.5c-1.6-.4-2.1-.2-3.1,1.2s-.5,1.2.2,1.5l4.7,2.2a9.4,9.4,0,0,1,1.5,5.4,7.4,7.4,0,0,1-4.6,7.1c-3.1,1.5-5.6.2-6.2-3.3a12,12,0,0,1,0-1.9h-.1c1.3-.5,2.4-1.8,3.9-.6s1.2.7,1.6,0a2.4,2.4,0,0,0,.2-2.7,3.1,3.1,0,0,0-1.1-.9l-1.8-.7c-3.5-1.4-5.4-4.6-1.9-8.8a11.7,11.7,0,0,1,3.8-2.8,4,4,0,0,1,4.8.7C138.6,268.5,137.9,269.9,137.3,271.2Z"/><path class="cls-30" d="M128,282.9a41.1,41.1,0,0,1-3,2.9c-3.1,2.8-7,2.3-9.5-1.1-3.8-5.1-.6-13.5,3.5-15.5a3.1,3.1,0,0,1,3.2-.1,3,3,0,0,1,1.5,3.2,10.6,10.6,0,0,1-2.2,5.2c-.6.8-1.3,1.5-1.9,2.2a1.6,1.6,0,0,0,.3,2.2c.5.6,1.2,1.1,2,.7s2.1-1.4,3.2-2.1,2.4-.4,2.8,1.6v.9Z"/><path class="cls-31" d="M40,249.6l-2.9-3.7a18.4,18.4,0,0,1-.3-10.9,19.5,19.5,0,0,0,.2-2.3l2-4.8a24.7,24.7,0,0,1,5.5-7.7c2.1-1.8,4.3-3.2,7.2-2.9a12,12,0,0,0,3.8-.4,6.6,6.6,0,0,1,7.2,2.3l1,1c2.1,6.4,1.6,12.9-.1,19.3a18.2,18.2,0,0,1-4,7.5,14.5,14.5,0,0,1-17.8,3.4Z"/><path class="cls-30" d="M80.2,240.2c-.2,2.5-.1,4.2-.3,6s-1.4,2.6-3.4,2.3a3,3,0,0,0-2.6.5,4.5,4.5,0,0,1-2.1,1,4.3,4.3,0,0,1-5.6-3.1,5.8,5.8,0,0,1-.4-1.9c.3-3.6.5-7.3.8-10.9a1.8,1.8,0,0,1,2-1.7,1.9,1.9,0,0,1,2,1.7c.3,1.7.5,3.4.7,5.1s0,2.6.1,3.9.3.5.5.6.7-.1.8-.3a19.3,19.3,0,0,0,1.5-4c.2-1.2.1-2.5.2-3.8a8.5,8.5,0,0,1,.4-2.3,2.3,2.3,0,0,1,2.5-1.7,2,2,0,0,1,2,1.8C79.7,235.9,79.9,238.4,80.2,240.2Z"/><path class="cls-19" d="M94.4,230.8l.3,2.8c.2,1.2.1,1.2,1.6.6,1.5,3.3-.3,5.7-2,8.1-.6-.6-1.4,0-2.5,2s-1.5,3.6-2.2,5.4c-3.7.3-4.6-.1-5.6-3s-1.2-5-1.8-7.4-.5-2.2-.8-3.3a2.1,2.1,0,0,1,1.2-2.3,2.1,2.1,0,0,1,2.6.8,8.4,8.4,0,0,1,1.1,2.1,18.5,18.5,0,0,1,1.1,2.4,30.2,30.2,0,0,0,1.2-2.9c.4-1,.6-2.1,1-3.2S91.2,230.1,94.4,230.8Z"/><path class="cls-23" d="M93.7,242.2c.9-2.6,2.3-5.1,2.6-8l2.2-3.3a24.3,24.3,0,0,1,3.8-.3,3.4,3.4,0,0,1,2.9,3.3,6.3,6.3,0,0,1-1.5,4.9,59.7,59.7,0,0,1-4.4,4.3,1.4,1.4,0,0,0-.5,1.6,2,2,0,0,0,2,1.7,2.7,2.7,0,0,0,1.9-.5c2.8-1.8,5.5-3.6,5.2-7.7a12.7,12.7,0,0,1,.6-4.7c.1-.6,1.2-1.5,1.6-1.4s3.1-.1,4.7-.2a8.1,8.1,0,0,1,2.7.5,2,2,0,0,1,1,1.5,2,2,0,0,1-.8,1.5,6.6,6.6,0,0,1-2.6,1.1,3.5,3.5,0,0,0-2.6,3.6c0,1.6,0,3.2-.1,4.8a28.1,28.1,0,0,1-.1,2.9,2.6,2.6,0,0,1-1.7,2.6c-1.3.5-2.1-.3-2.8-1.3s-.5-.3-.7-.4c-5.6,4.2-7.2,4.3-12.3.9a36.2,36.2,0,0,1-1.3-3.5C93,244.8,92.4,243.4,93.7,242.2Z"/><path class="cls-1" d="M105.9,275.3a6.7,6.7,0,0,1-2.8,6.2c-.4.4-1.3,0-1.5-.6-.6-2.2.3-4,1.2-5.9s1.7-1.7,2.2-1.2A5.2,5.2,0,0,1,105.9,275.3Z"/><path class="cls-1" d="M95.4,284v-7.8h1.8l1.4,6Z"/><path class="cls-6" d="M149.9,231a3.6,3.6,0,0,1,.3,4.4c-.6.7-1.4.5-2.2.5a.8.8,0,0,1-.5-.2c.3,1,2-.4,2.5.9a6.1,6.1,0,0,1,3.6,4.7,7.5,7.5,0,0,1-1.6,5.8,14.7,14.7,0,0,1-3.1,3c-2.9,1.9-5,1.6-7.6-1a4.5,4.5,0,0,1-.6-1.2c-5.3,3.6-5.5,3.6-10.4,1.7-.1-.3-.1-.6-.2-.9s-.4-1.3-1.2-1.6h.1c-.7-.9,0-2.1-.9-3-.5-3.6.8-6.7,3-9.5a5.6,5.6,0,0,1,3.6-2.1,4.4,4.4,0,0,1,4,2,2.4,2.4,0,0,1-.1,2.9h0c-.5.5-.4,1.4-.8,1.9h-.1c-.8.8-.3,2.2-2.2,3.3a11.5,11.5,0,0,1,10.3.6c-1.5-1.3-4.1-1.4-4.2-4h0a1.3,1.3,0,0,1-.1-1.9,27.5,27.5,0,0,1,1.4-3C144.5,231.7,146.6,230.2,149.9,231Z"/><path class="cls-32" d="M141.6,239.3c1.2,2.1,3.3,2.2,5.4,2.5s1.8,1.4.7,2.7-1.6,1.3-2.6.2-3.5-1.4-5.1-2.4-1.5.2-2.1.6-1.6,1.5-2.5,2.2a1.4,1.4,0,0,1-2-.6,2.5,2.5,0,0,1,.4-1.7c1.2-1.2,2.6-2.3,3.9-3.4.2,1,.6,1.7,1.7,1.8A1.9,1.9,0,0,0,141.6,239.3Z"/><path class="cls-32" d="M138.6,237.4v-2.9C139.8,236,139.8,236,138.6,237.4Z"/><path class="cls-20" d="M128.1,244.1c1.2.8,1,1.9.9,3C127.9,246.3,127.9,245.3,128.1,244.1Z"/><path class="cls-20" d="M128.9,247.1l1.2,1.6Z"/><path class="cls-32" d="M141.5,237.4v1.9C140.6,238.7,140.6,238.1,141.5,237.4Z"/><path class="cls-32" d="M137.8,239.3c.3-.6.5-1.3.8-1.9S138.1,238.7,137.8,239.3Z"/><path class="cls-31" d="M40.1,200.1c-.1-1.6-.1-3.2-.1-4.7s.1-1,.1-1.5A30.7,30.7,0,0,1,52,172.2c2.9-2.2,5.3-2.5,7.9.3s2.2,5.5-.4,8-3.8,2-4.7-1.1c-.1-.6.4-1.1.3-1.7a11.2,11.2,0,0,1-.5,1.3,76.6,76.6,0,0,0-7,14.4h0a7.7,7.7,0,0,0,0,5.4l-.2.3.3.2c1.2,2.2,2.7,2.9,4.3,1.8a27.2,27.2,0,0,0,2.4-2.4,18.9,18.9,0,0,1,2-2,3.5,3.5,0,0,1,4,.2,3.3,3.3,0,0,1,1.1,3.4c-1.2,5.1-7,9.3-12.1,8.8a9.8,9.8,0,0,1-8.1-5.8C40.8,202.2,40.5,201.1,40.1,200.1Z"/><path class="cls-23" d="M193.8,201c0-.9-.1-1.8-.1-2.7,2.7-6.2,4.9-7,9.7-9,0-.3.2-.6.1-.8-1.2-3-1.7-3.2-4-1.6a26.9,26.9,0,0,1-2.7,2c-1.5,1.1-1.8.9-3.1-1.1a29.4,29.4,0,0,1,3-3.1,17.1,17.1,0,0,1,2.6-2.1,4.8,4.8,0,0,1,7,1.6,6.5,6.5,0,0,1,1.1,2.2,31.2,31.2,0,0,1,1.9,13.5,4,4,0,0,1-2.6,3.7,20.1,20.1,0,0,0-2.5,1.4c-2.8,1.8-5.4,1.6-7.8-.7A29.1,29.1,0,0,1,193.8,201Z"/><path class="cls-3" d="M55.5,178c-.1.4-.1.7-.2,1a2,2,0,0,0,1,2,2.2,2.2,0,0,0,2.6-.5,6.6,6.6,0,0,0,1.6-5.8,4.2,4.2,0,0,0-5.6-3.1,16.7,16.7,0,0,0-4,2.5,31.4,31.4,0,0,0-9,13.9l-1.8,5.9c.1-2.8.2-5.6.4-8.3a2.4,2.4,0,0,1,.9-1.6c2.2-1.6,2.4-4,3-6.2.1-.6.4-1.5.7-1.5,3.1-.3,3.9-3.5,6.2-4.8s.8-2,.2-3h2.9c2.1-.1,4.1,0,5.1,2.4a3.5,3.5,0,0,0,1.4,1.3,3.5,3.5,0,0,1,2.1,3.3c.1,1.8,0,3.5-1.8,4.6a3.5,3.5,0,0,0-1.3,1.4,5,5,0,0,1-4.3,2.4,3.7,3.7,0,0,0-3.9,2.9c-.6,2.7-2.5,4.6-4.1,6.6.3-6,2.8-10.9,6.8-15.3A.7.7,0,0,1,55.5,178Z"/><path class="cls-3" d="M47.6,198.7a5.5,5.5,0,0,1,0-5.4Z"/><path class="cls-33" d="M150,236.6h-2.4c-.2-.1-.3-.5-.5-.7s.4-.5.7-.5h2.4A5,5,0,0,0,150,236.6Z"/><polygon class="cls-3" points="215.7 181 215.9 180.6 216.1 180.7 215.7 181"/><polygon class="cls-3" points="213.8 181 213.4 180.7 213.5 180.6 213.8 181"/><path class="cls-3" d="M89,181l.2-.4-.2.4Z"/><path class="cls-3" d="M41.8,181c-.6.3-1,.5-1.1.4a4.4,4.4,0,0,1-.6-1l.3-.3Z"/><path class="cls-1" d="M93.7,242.2c-.1,1.3-.2,2.6-.2,3.9l-1.7-1.8c.3-1.4.7-2.8,1-4.2h.5A15.5,15.5,0,0,1,93.7,242.2Z"/><path class="cls-1" d="M270.6,191.9c.9-1.3,1.7-2.6,2.7-3.8s1.3-1.7,2.4-1.3.8,1.6.6,2.5-.5,2.5-.8,3.7C272.9,193.3,272.9,193.3,270.6,191.9Z"/><path class="cls-34" d="M271.8,199.1c.9-.1,2-.2,2.3,1s.6,2.4-.4,3.5-2.7.7-2.8-.1c-.4-2.6-2.9-2.9-4.2-4.3a1.5,1.5,0,0,1,.9-1,.8.8,0,0,1,.8.1C269.5,199,270.7,198.6,271.8,199.1Z"/><path class="cls-1" d="M253,194c-.2-.2-.7-.4-.6-.5a6.3,6.3,0,0,1,3-4.4c.2-.2.6,0,.8.1s.4.6.3.8A5.5,5.5,0,0,1,253,194Z"/><path class="cls-35" d="M271.8,199.1c-1.2.1-2.4.4-3.4-.8Z"/><path class="cls-35" d="M267.6,198.2l-.9,1C266.7,198.6,266.3,197.6,267.6,198.2Z"/><path class="cls-1" d="M76.5,192.4a13.2,13.2,0,0,1-2.9,8.4,1.9,1.9,0,0,1-1.6.8c-.5,0-1.1-.7-1.2-1.2-.7-3.6.3-6.9,2-10,.3-.5,1-.7,1.6-1a1.2,1.2,0,0,1,1.8.8,2.9,2.9,0,0,1,.2.9A6.2,6.2,0,0,1,76.5,192.4Z"/><path class="cls-36" d="M176.2,246.1c.4-.4.7-1,1.2-1.3a16.2,16.2,0,0,1,2.8-1.1c.1-.1.5.4.5.7s-1.4,1.8-2.4,2.3a3.2,3.2,0,0,1-1.4.2C176.7,246.8,176.6,246.5,176.2,246.1Z"/><path class="cls-1" d="M71.8,273.7a3.3,3.3,0,0,1,2.2,2.8,5.6,5.6,0,0,1-1.8,4.7,1.6,1.6,0,0,1-2.1-.3c-1.3-1.7-.9-5.5.8-7A1.3,1.3,0,0,1,71.8,273.7Z"/><path class="cls-37" d="M57.7,229.9c-.5,2.6-.8,5.2-1.5,7.6a13,13,0,0,1-2.4,4.1,9,9,0,0,1-3.6,2.2c-3.6,1.1-6.5-1.1-6.4-4.8s1.6-10.1,5.1-14.2c1.5-1.6,5.1-2.4,7-1.5a2.7,2.7,0,0,1,1.1,1.5A47.9,47.9,0,0,1,57.7,229.9Z"/><path class="cls-1" d="M101.2,236.2a6,6,0,0,1-.6,1.1c-.1.2-.5.3-.7.4s-.4-.5-.3-.7a2.3,2.3,0,0,1,.6-1.2c.1-.2.4-.3.7-.5Z"/><path class="cls-38" d="M55.5,178H54.4c.2-.3.3-.8.7-1s.7,0,1,.1Z"/><path class="cls-1" d="M199.5,199.4a4.6,4.6,0,0,1,3-3.8,1.7,1.7,0,0,1,1.2.2,1.5,1.5,0,0,1,.3,1.3,4.1,4.1,0,0,1-3.1,3.1C200.5,200.3,199.9,199.6,199.5,199.4Z"/></g></g></svg>