<svg xmlns="http://www.w3.org/2000/svg" viewBox="0 0 152.2 185.9"><defs><style>.cls-1{fill:#fff;}.cls-2{fill:#fefefe;}.cls-3{fill:#040404;}.cls-4{fill:#edbdc0;}.cls-5{fill:#ecc1c4;}.cls-6{fill:#e8adb0;}.cls-7{fill:#f1cbce;}.cls-8{fill:#1a1010;}.cls-9{fill:#f1c9cc;}.cls-10{fill:#f0cecf;}.cls-11{fill:#2d2121;}.cls-12{fill:#2a1717;}.cls-13{fill:#eeb2b5;}.cls-14{fill:#eeb4b6;}.cls-15{fill:#2f2727;}.cls-16{fill:#040303;}.cls-17{fill:#dfb2b5;}.cls-18{fill:#e8b9bc;}.cls-19{fill:#f1cccf;}.cls-20{fill:#e99c9f;}.cls-21{fill:#eab2b5;}.cls-22{fill:#edaaad;}.cls-23{fill:#edadaf;}.cls-24{fill:#150d0d;}.cls-25{fill:#edb7ba;}.cls-26{fill:#eebfc2;}.cls-27{fill:#edbec0;}.cls-28{fill:#eeb6ba;}.cls-29{fill:#f0c7cb;}.cls-30{fill:#0c0b0b;}.cls-31{fill:#0f0e0e;}.cls-32{fill:#070505;}.cls-33{fill:#100e0e;}.cls-34{fill:#171414;}.cls-35{fill:#161010;}.cls-36{fill:#1b1818;}.cls-37{fill:#1b1616;}.cls-38{fill:#201b1b;}.cls-39{fill:#1a1515;}.cls-40{fill:#272222;}.cls-41{fill:#1d1919;}.cls-42{fill:#221e1e;}.cls-43{fill:#232222;}.cls-44{fill:#ebeeee;}.cls-45{fill:#191919;}.cls-46{fill:#211e1e;}.cls-47{fill:#201e1e;}.cls-48{fill:#292323;}.cls-49{fill:#201c1c;}.cls-50{fill:#2a2828;}.cls-51{fill:#1e1b1b;}.cls-52{fill:#1f1717;}.cls-53{fill:#262323;}.cls-54{fill:#222020;}.cls-55{fill:#201616;}.cls-56{fill:#312323;}.cls-57{fill:#252222;}.cls-58{fill:#4d4a4a;}.cls-59{fill:#262222;}.cls-60{fill:#1e1919;}.cls-61{fill:#2a2727;}.cls-62{fill:#373131;}.cls-63{fill:#282222;}.cls-64{fill:#2c2a2a;}.cls-65{fill:#291e1e;}.cls-66{fill:#251f1f;}.cls-67{fill:#4f4a4a;}.cls-68{fill:#454444;}.cls-69{fill:#3c3636;}.cls-70{fill:#312727;}.cls-71{fill:#332424;}.cls-72{fill:#231818;}.cls-73{fill:#291414;}.cls-74{fill:#292626;}.cls-75{fill:#4c4646;}.cls-76{fill:#535353;}.cls-77{fill:#392727;}.cls-78{fill:#dbd5d5;}.cls-79{fill:#0c1c1c;}.cls-80{fill:#380d0d;}.cls-81{fill:#454c4c;}.cls-82{fill:#e7ecec;}.cls-83{fill:#1d2525;}.cls-84{fill:#dfdbdb;}.cls-85{fill:#685d5d;}.cls-86{fill:#343838;}.cls-87{fill:#d0dada;}.cls-88{fill:#aeaaaa;}.cls-89{fill:#253030;}.cls-90{fill:#1c1010;}.cls-91{fill:#fcfcfc;}.cls-92{fill:#191b1b;}.cls-93{fill:#4f3a3a;}.cls-94{fill:#1f0707;}.cls-95{fill:#262121;}.cls-96{fill:#3c3939;}.cls-97{fill:#303434;}.cls-98{fill:#492e2e;}.cls-99{fill:#352323;}.cls-100{fill:#3c4b4b;}.cls-101{fill:#203030;}.cls-102{fill:#520e0e;}.cls-103{fill:#184040;}.cls-104{fill:#140505;}.cls-105{fill:#935252;}.cls-106{fill:#e0e1e1;}.cls-107{fill:#5f1f1f;}.cls-108{fill:#3b5050;}.cls-109{fill:#342f2f;}.cls-110{fill:#c0d1d1;}.cls-111{fill:#838989;}.cls-112{fill:#202323;}.cls-113{fill:#762525;}.cls-114{fill:#0b0909;}.cls-115{fill:#635c5c;}.cls-116{fill:#3c6464;}.cls-117{fill:#8b4343;}.cls-118{fill:#d3cdcd;}.cls-119{fill:#070b0b;}.cls-120{fill:#190b0b;}.cls-121{fill:#383232;}.cls-122{fill:#efc7c9;}.cls-123{fill:#e4dfe0;}.cls-124{fill:#cdcfd1;}.cls-125{fill:#ece5e7;}.cls-126{fill:#efeeed;}.cls-127{fill:#bac8c8;}.cls-128{fill:#b2dddd;}.cls-129{fill:#7f5f5f;}.cls-130{fill:#5aa6a6;}.cls-131{fill:#c5cccc;}.cls-132{fill:#657c7c;}.cls-133{fill:#aabebe;}.cls-134{fill:#222b2b;}.cls-135{fill:#070202;}.cls-136{fill:#150606;}</style></defs><title>manifeste-seule</title><g id="Layer_2" data-name="Layer 2"><g id="manifeste-seule"><path class="cls-1" d="M25.7,53.4a4.9,4.9,0,0,1-2.9-5c.1-1.1,0-2.2.1-3.3.1-4,.6-4.6,4.6-6.1C28.3,44,29.1,49,25.7,53.4Z"/><path class="cls-1" d="M23.8,75.5c-1.3,0-1.9-.9-2.3-1.9a10.8,10.8,0,0,1,2.7-11.2,5,5,0,0,1,1.3-.3A2.1,2.1,0,0,1,26.6,64a7.7,7.7,0,0,1-.2,1.5C25.5,68.8,26.8,72.7,23.8,75.5Z"/><path class="cls-2" d="M25.9,64.3a17,17,0,0,0-.4-2.2c.1-2.9.2-5.8.2-8.7a44.3,44.3,0,0,0,1.1-10.2c-.1-1.4.5-2.8.7-4.2a12.1,12.1,0,0,0,.1-1.9c.1-.8.3-1.5,1.2-1.7,2.6,3.8.1,7.7.2,11.6s-1,8.9-1,13.4C28,62,27.8,63.7,25.9,64.3Z"/><path class="cls-2" d="M23.8,75.5c.4-3,1.3-6,1.1-9.1,0-.5.6-1,.9-1.5A3.7,3.7,0,0,1,27,67.5a102.1,102.1,0,0,1-2.1,20.6A2.1,2.1,0,0,1,23.1,90a19.7,19.7,0,0,1,.6-8.7C23.7,79.3,23.8,77.4,23.8,75.5Z"/><path class="cls-1" d="M14.2,152.3c1.7.4,3.5.7,4.8,1.9C17.2,154.2,15.2,154.5,14.2,152.3Z"/><path class="cls-1" d="M19,154.2c1.3.1,1.9.7,1.9,1.9Z"/><path class="cls-1" d="M20.9,156.1l1,1Z"/><path class="cls-3" d="M23.1,90c.4-2,.9-4,1.1-6,.6-6.4,1.1-12.7,1.6-19.1l.3-.3-.2-.3a6.5,6.5,0,0,0,.4-1.3c.9-9.2,1.7-18.4,2.5-27.6h0c.8-1.2-.5-2.9.9-4h0c1.6-7,4.3-13.3,9.5-18.3h0c.6-.9,1.2-1.6,2.5-1.3a2.5,2.5,0,0,1,1.1,1.9c-.1,2.3-1.7,3.8-2.8,5.5-6.2,9.9-7.6,20.9-8.2,32.1-.7,13.6-1.2,27.2-3.9,40.5s-7.2,27.5-16.4,38.9a6.5,6.5,0,0,0-1.6,4.4,1.5,1.5,0,0,1-2.4,1L.8,133.9a2.3,2.3,0,0,1-.8-1.1c-.1-.2.2-.7.4-.8s1.9-1.4,2.5-1.2c2.1.6,2.9-.7,3.8-1.9s4.7-4.9,5.6-8.2c.7-1.3.8-2.9,2-3.8h0c1.3-3.2,2.1-6.6,4-9.6h0c.5-2,.1-4.3,1.9-5.9h-.1c.7-2.3.7-4.7,1.9-6.8h0c1.1-1.4-.4-3.5,1.1-4.8Z"/><path class="cls-4" d="M44.9,160l-4.7-1.1-4.1-.9a7.1,7.1,0,0,1-2.7-.7,8.1,8.1,0,0,0-3.6-1.2,5.6,5.6,0,0,1-5.1-3.7,1.3,1.3,0,0,1-.3-.8c.1-.3.1-.4.2-.4,2-2.2,5.1-1,7.3-2.4a4.6,4.6,0,0,1,2-.1l1.3.4c3.4,1.5,6.5,3.8,10.4,4.1a247.8,247.8,0,0,0,29.9,13c1.1.4,2.1.9,2.3,2.2-1.6,2.5-4,2.7-6.3,1.6a41.3,41.3,0,0,0-10.3-3.3c-2.8.1-5-1.6-7.5-2.5a31.1,31.1,0,0,1-4-2.2c-.3-.4-1.1-.5-1.1-.7C48.4,158,45.6,161.8,44.9,160Z"/><path class="cls-5" d="M61.2,166.7h.9c1.5.1,2.9-1.5,4.5,0s2.8.1,4.1,1.6,3.2,1.7,5.2.7l1.8-.5c6-.6,10.3,3,14.8,6.1a20.6,20.6,0,0,1,1.2,2.6c1.8,3.1,3.4,3.2,5.5.2s1.7-4.7,4.9-4.4a2.4,2.4,0,0,1,1.5,1.3,2.2,2.2,0,0,1,.2,1.4c-.9,3.9-5.4,5-6.9,8.5a8.3,8.3,0,0,1-7.8-.3,5.6,5.6,0,0,1-2.1-3.7c-.1-1.6-.5-2-2.2-1.9-3.3.2-5.9-1.1-6.6-4.6s-1.9-1.4-2.9-1.2-4.3,1.2-6.5,0a3.3,3.3,0,0,1-1.3-.4C66.7,170.4,64,168.5,61.2,166.7Z"/><path class="cls-6" d="M32.5,149.4c-1.5.8-2.5,2.3-4.6,1.3s-2.1.4-3.1.7-1.1,0-1.6-.5l-1.4-1.2c-3.3-3.2-7.8-4.3-11.4-6.9H8.5c-1.4-.5-1.8-1.4-.9-2.5l2.3-2.4c4.9-.2,8.6,2.9,12.9,4.6l1.1.6,1.5.9.9.7.9.8a14.8,14.8,0,0,0,4.4,2.1,3.9,3.9,0,0,1,1,.8A.9.9,0,0,1,32.5,149.4Z"/><path class="cls-7" d="M70.8,172.5c1.9-.1,3.9.5,5.3-1.4a17.7,17.7,0,0,1,4.6,0,1.4,1.4,0,0,1,.7,2.3c-.8,1.1-.4,1.7.8,1.9l.9.2c1.4,0,.8,2.7,2.8,2l3.1-1h.5c.8-.1,1.8,1.1,1.3,1.5s-.3,3.1.2,4.6v.5c-1.7,1.2-2.7.1-3.8-1l-4-2.4C79.1,177.2,75,174.8,70.8,172.5Z"/><path class="cls-2" d="M90.7,185.9c-2.7-.1-3-.5-3.5-3.9l3.8,1c2.6,1.2,5.1,1.7,7.7.1s7.9-4.5,10.8-8.1a3.6,3.6,0,0,1,3.1-1l.5.4c.9,2.5.9,2.8-.7,3.5s-2,.8-2.6,1.9a1.4,1.4,0,0,1-.6.7,10.8,10.8,0,0,0-7.2,4.9"/><path class="cls-8" d="M23.7,143.7l-9.5-4-4.3-1.9a.7.7,0,0,0-.6-.4l-.4-.2-1.4-1.1,2-1.2c1.4-1,2.7-.3,3.9.3,4.5,2.4,9.9,2.9,13.4,7.1C26.2,143.7,24.9,143.6,23.7,143.7Z"/><path class="cls-9" d="M23.8,150.4l1,1c0,.3-.1.6-.1,1a5.1,5.1,0,0,1-3.1-1.9c-2.1-1.8-4.2-3.7-7.1-4.1s-2.7-2.5-4.1-3.6a12.7,12.7,0,0,1-.6-1.8c-.1-.2.2-.6.4-.7a1.1,1.1,0,0,1,.8,0l1.4,2.4c.5.6,1,1.6,1.6,1.6,2.8.1,4.3,2.4,6.5,3.5a20,20,0,0,1,2.4,1.6Z"/><path class="cls-2" d="M121.7,163.8v1c.2,4.6-3.1,6.9-6.3,9.2-.5.4-1.5.3-2.3.4H113c-.4-1.6.8-2.4,1.6-3.5C116.9,168.4,118.1,164.9,121.7,163.8Z"/><path class="cls-2" d="M18.3,107.3a26.2,26.2,0,0,1-4,9.6c0-1,0-2-.1-3s2.1-2.6,2.1-4.5S17.1,107.6,18.3,107.3Z"/><path class="cls-10" d="M44.9,160l3.2-.8c.2-.1.5.3.8.5s.8,1.4.8,2.3A6.7,6.7,0,0,1,44.9,160Z"/><path class="cls-2" d="M14.3,116.9l-2,3.8C12.2,119,12.4,117.5,14.3,116.9Z"/><path class="cls-1" d="M85.3,184.9l-1-.9,1,.9"/><path class="cls-1" d="M81.4,184l-.9-1Z"/><path class="cls-1" d="M76.6,181.1l-.9-1Z"/><path class="cls-1" d="M72.8,180.1l-1-.9Z"/><path class="cls-1" d="M70.9,178.2l-1-.9Z"/><path class="cls-1" d="M69.9,177.3l-1-1Z"/><path class="cls-1" d="M67,176.3l-.9-1Z"/><path class="cls-1" d="M65.1,175.3l-1-.9Z"/><path class="cls-1" d="M58.4,170.5l-1-.9Z"/><path class="cls-1" d="M56.5,169.6a9.4,9.4,0,0,1-1-1Z"/><path class="cls-1" d="M54.5,168.6q-.4,1.1-.9,0Z"/><path class="cls-1" d="M49.7,168.6l-.9-.9Z"/><polygon class="cls-6" points="8.9 137.2 9.2 137.1 9.3 137.4 9 137.5 8.9 137.2"/><path class="cls-1" d="M141.9,63a2.9,2.9,0,0,1,3.5,2.4,19.8,19.8,0,0,1,.3,4.2c.2,3-.3,6,.8,8.9a8.8,8.8,0,0,1,.2,2.8c.1,1.9-.7,3.7-.1,5.6s-.5,2.4-1.8,3c-2.2-4.6-1.4-9.7-2.4-14.6C143.3,71.2,141.3,67.2,141.9,63Z"/><path class="cls-2" d="M141.9,63l1.8,6.6a6.5,6.5,0,0,1-.8,4.9h-.7c-2.3-1.8-1-4.6-2.1-6.8a8,8,0,0,1-.3-1.5c-.8-7.9.5-15.1,6.1-21.1.8-.8,1.4-1.7,2.7-1.5s1.1,1.2.8,1.6c-3.9,4.6-2.2,11.8-7.5,15.8Z"/><path class="cls-2" d="M142.9,74.5a4.2,4.2,0,0,1,.8,1.2c.6,4.7,1.5,9.4,1.1,14.2v4.8a45.1,45.1,0,0,0,0,5.2c.4,3.6-1.5,6.3-2.8,9.4-.1.3-.7.5-1.1.8-1.2-2,.1-3.9.1-5.8a6.1,6.1,0,0,1,.3-1.3,16.1,16.1,0,0,0,.6-3.3c.8-6.6,1.1-13.3-.3-19.9,0-1.9-.2-3.8,1.2-5.2Z"/><path class="cls-1" d="M141.9,61.1c.4-.8.5-1.9,1.1-2.5s1.9-3.1,1.8-5.1.1-3.6,2.1-4.7,1.8-3.2,1.7-5.1a1.2,1.2,0,0,1-.5-1,.9.9,0,0,1,.1-.5,1.6,1.6,0,0,1,.8-.8,1.4,1.4,0,0,1,1.5.5c1.1,1.3,0,2.6,0,3.8s-.3,1.5-.9,2-2.1,3.1-2.6,4.8-.2,3.4-.4,5.1S145.2,60.6,141.9,61.1Z"/><path class="cls-11" d="M64.1,3.4c.2.3.4.4.7.2s2.3-.1,3.1,1h0a16.3,16.3,0,0,1,6.6,2.9h0c.9.4,2.7-.1,2.2,1.9a4.2,4.2,0,0,1-2.5,1.4c-5.7-2.2-12-3.2-17-7.1a2.6,2.6,0,0,1,2.2-1.7C61.1,2,62.5,3,64.1,3.4Z"/><path class="cls-2" d="M39.2,13.2c-.6.9-1.1,1.9-1.7,2.7C34,20.7,31.8,26,29.7,31.5c-.5-3,.8-5.6,1.8-8.2s3-7,6-9.5A6.7,6.7,0,0,1,39.2,13.2Z"/><path class="cls-1" d="M111.2,20.8c5.4-.7,9.2,1.8,12.5,5.7a2.1,2.1,0,0,1-1.7.6l-1.1-.4a6.9,6.9,0,0,0-3.1-1.2l-1-.4-2.1-.7-1-.4-2.2-.7a2.4,2.4,0,0,1-.8-.9A1.6,1.6,0,0,1,111.2,20.8Z"/><path class="cls-2" d="M40.8,12l-1.6,1.1a8.8,8.8,0,0,1,3.7-6.4c2.4-1.7,4.7-3.9,7.9-3.9a1.2,1.2,0,0,1,.1,1,2.7,2.7,0,0,1-.7.8l-.8.6-.9.6-.9.6L46.2,7.5C44.2,8.7,43.1,11.1,40.8,12Z"/><path class="cls-1" d="M140,32.3a2.4,2.4,0,0,1,3.4-.5,9.1,9.1,0,0,0,4.9,1.5c1.8,0,1.8.2,2.2,2.8l-.4.5h-1.2l-1.1-.4a16.1,16.1,0,0,0-3.9-1.2l-1.1-.3-1.5-.8-.9-.7A1.8,1.8,0,0,1,140,32.3Z"/><path class="cls-12" d="M50.6,3.5a.8.8,0,0,0,.2-.7h.1c.3-.9,1.2-.7,1.8-1h.1c.7-1,1.8-.7,2.8-1s.5.2.8,0a2.7,2.7,0,0,1,3,1.8L57.3,3.7A9.1,9.1,0,0,1,52,5.2a2.8,2.8,0,0,1-1.3-.4A.9.9,0,0,1,50.6,3.5Z"/><path class="cls-2" d="M96.8,16.9c2.1.1,4.3-.1,6.1,1.5s1.8.4,2.6.8.7.9,1,1.4a1.2,1.2,0,0,1-.5.5,12.3,12.3,0,0,1-9.4-3.5A1.9,1.9,0,0,0,96.8,16.9Z"/><path class="cls-2" d="M76.7,9.1,74.5,7.6a5.2,5.2,0,0,1,4.8.9c1.2,1,3.3.8,4.1,2.6l-.5.5C80.2,12.4,78.3,11.2,76.7,9.1Z"/><path class="cls-1" d="M125.6,26.5c.4-.2.8-.7,1.1-.6l5.2,2.2a4,4,0,0,1,.4,1.3l-.5.5a3.1,3.1,0,0,1-1.9.2l-1.2-.4C127.4,28.9,125.9,28.3,125.6,26.5Z"/><path class="cls-2" d="M59.4,2.6,56.4.8c.3-.3.9-.9,1-.8l6.7,3.4Z"/><path class="cls-2" d="M74.5,7.6,67.9,4.7l.8-.5c1.8-.4,2.9,1.3,4.6,1.6S74.1,7,74.5,7.6Z"/><path class="cls-2" d="M125.6,26.5l3.6,3c-3.2,1.1-5.8.3-7.4-2.9h3.8Z"/><path class="cls-1" d="M134.2,30.4c2.8-1.6,3.7-1.2,4.8,1.8a1.3,1.3,0,0,1-.9.7H137l-1.5-.7-.9-.7A3,3,0,0,1,134.2,30.4Z"/><path class="cls-2" d="M87.2,13.1h2.7a2,2,0,0,1,2.2,1.8c-.2.2-.3.4-.5.5A3.4,3.4,0,0,1,87,13.7C87.1,13.5,87.1,13.3,87.2,13.1Z"/><path class="cls-2" d="M111.2,20.8v1.8c-2.3,1-4,.9-4.8-1.8v-.2h.9c.3-.2.6-.1.9.2Z"/><path class="cls-2" d="M92.1,14.9c1.8.2,3.8-.1,4.7,2v.2c-2.3,1.1-4,.7-4.9-1.9Z"/><path class="cls-2" d="M150.5,41.9l-2-.2c-.2-1.4.6-2.1,1.7-2.7a1.5,1.5,0,0,1,1.3,0C151.2,40,150.9,40.9,150.5,41.9Z"/><path class="cls-1" d="M151.5,39l-1.1.2-.4-.6a2.3,2.3,0,0,1,.5-2.5C152.5,37.4,152.5,37.6,151.5,39Z"/><path class="cls-2" d="M29.7,31.4l-.9,4a5,5,0,0,0-.3-1.3C27.8,32.7,28.3,31.8,29.7,31.4Z"/><path class="cls-2" d="M55.6.8l-2.8,1C54,.1,54.2,0,55.6.8Z"/><path class="cls-2" d="M67.9,4.6l-3.1-1C66,3.6,67.2,3.2,67.9,4.6Z"/><path class="cls-2" d="M134.2,30.4l.8,1.1c-1.2.7-2.2.8-2.8-.7s.5-.7,1-.5Z"/><path class="cls-2" d="M137.8,32.5l1.2-.3h1l.7,1.2C139.4,34.1,138.3,34.2,137.8,32.5Z"/><path class="cls-1" d="M149.6,47.7l.9-2Z"/><path class="cls-2" d="M85.3,12.1l1.9,1h-.1c-.9.6-1.5.4-2-.5Z"/><path class="cls-2" d="M83.4,11.1l1.9,1-.2.2c-1,.5-1.7.3-1.9-.9Z"/><path class="cls-2" d="M52.7,1.8l-1.8,1C51.1,1.7,51.9,1.6,52.7,1.8Z"/><path class="cls-1" d="M133.2,30.3l-1,.3-.3-.4a.9.9,0,0,1,.4-.8Z"/><path class="cls-1" d="M108.3,20.8l-.9-.2Z"/><path class="cls-13" d="M142,103.4a21.9,21.9,0,0,1-1.1,6.7,1.1,1.1,0,0,0,0,.8c-1.2,3.5-1.1,7.1-2.1,10.6-2.8,5.4-3.9,5.6-7.6,1.2-.5-1.4,2.3-2.9-.4-4.2s-3-4.6-.7-7.3a16.3,16.3,0,0,1,3.3-5.3c.9-1,1.6-1.5,1.3-3s-.1-3.2,2.4-2.6S140.6,102,142,103.4Z"/><path class="cls-14" d="M121.7,163.8l-5.5,6.9c-.3.4-.8.5-1.2.8-3.3-1.1-4.7-3.6-4.8-7,1.3-1,2.8-1.3,4.3-2s4.2-3.3,3.7-6.3a5.2,5.2,0,0,1,3.2-6.1c1.8-.5,2.6-2.1,3.8-3.3s3.9-3.5,5,.7a3.3,3.3,0,0,1-.8,1.9,1.1,1.1,0,0,0,0,.8c-.6,2.5-1,5-2.9,6.9s-1.4,1.3-2,2.2a9.3,9.3,0,0,0-.5,1l-.8,1.6a13.9,13.9,0,0,0-1.5,1.9Z"/><path class="cls-2" d="M138,121.6c.4-1.8.8-3.7,1.1-5.5a9.9,9.9,0,0,1,1.8-5.2c-.2,2.2-.1,4.5-.5,6.6s-.7,4.1.1,6.1a1.9,1.9,0,0,1-.6,2.2l-2.8,2.5c-.1-.2-.3-.3-.5-.5C135.7,125.4,137.6,123.7,138,121.6Z"/><path class="cls-2" d="M137.1,128.3c0,2.1.1,4.1,0,6.2a5.8,5.8,0,0,1-3.8,5.4l-.5-.6a3.9,3.9,0,0,1-.1-2.8c1.6-2.6.9-6.6,4.4-8.2Z"/><path class="cls-2" d="M125.6,157.1c1.2-2.3,2.5-4.6,3.8-6.9a26.1,26.1,0,0,1,0,2.8c-.2,1.4,1.4,2.7.3,4a5.4,5.4,0,0,1-4.1,2,.8.8,0,0,1-.4-.4A1.3,1.3,0,0,1,125.6,157.1Z"/><path class="cls-2" d="M129.4,149.4v-1.9c.6-.5.5-1.3.5-2l.6-2a4.9,4.9,0,0,1,.4-1.1,11.9,11.9,0,0,1,.8-2c.4-.5.8-.9,1.5-.6h.1v2.3C133.2,147.4,134,146.2,129.4,149.4Z"/><path class="cls-2" d="M121.7,163.8l1.1-2.7a3.3,3.3,0,0,1,.9-1.1h0l.5-.4.4.4C125,162.3,123.4,163.1,121.7,163.8Z"/><path class="cls-2" d="M125.6,159l-1,1h0c-.3-1,.1-1.2.9-1Z"/><path class="cls-2" d="M22,94.8a13.7,13.7,0,0,1-1.9,6.8,49,49,0,0,1,.4-5.4C20.6,95.7,21.5,95.2,22,94.8Z"/><path class="cls-2" d="M20.2,101.5a13.7,13.7,0,0,1-1.9,5.9c-.1-1.1-.2-2.1-.2-3.2A2.6,2.6,0,0,1,20.2,101.5Z"/><path class="cls-2" d="M23.1,90A8,8,0,0,1,22,94.8a16.1,16.1,0,0,1,0-3.1C22.1,91.1,22.7,90.6,23.1,90Z"/><path class="cls-1" d="M52,4.6a8.1,8.1,0,0,1,5.3-.9,6,6,0,0,0,1.6.8,75.8,75.8,0,0,1,14,5.2l1.8.5c3.2-.3,5.8,1.6,8.5,2.8,19.9,8.6,40.3,16,60.7,23.3,2.8.9,5.7,1.7,2.5,5.3-9.3,8.7-12.6,20.2-14.7,32.1-3.1,17.4-5.3,35-9.9,52.2-3.3,11.9-7.5,23.4-13.9,34-2.6,4.1-5.9,7.5-8.9,11.2s-5,2.5-7.8,1.2C73,163.7,53.6,158,36.1,147.8a23.5,23.5,0,0,0-4.5-2.2l-1.1-.4-1.4-.7-.9-.5-1.3-.9c-.1-.2-.2-.3-.2-.5a8.7,8.7,0,0,0-1.1-.9l-13.9-6.1-2.2-.7L8,133.8c-.2-1.1.6-1.7,1.2-2.4,5.6-5.9,9.1-13,12-20.6a122.5,122.5,0,0,0,7.5-33.9c.8-11.7,1.8-23.3,2.6-34.9a51.8,51.8,0,0,1,10-27,14,14,0,0,0,1-1.6C43.9,8.7,47.6,6.2,52,4.6Z"/><path class="cls-15" d="M52,4.6a73.4,73.4,0,0,0-9.7,8.8L40.8,12a15.1,15.1,0,0,1,5.7-5.8,1.3,1.3,0,0,0,1.2-.9h.1c.5-.4,1.5-.1,1.7-1.1h.1a1.7,1.7,0,0,1,1.1.4Z"/><path class="cls-16" d="M35.4,146.4c1,.4,2.1.6,3.1,1.1,4.8,2.5,9.6,5.1,14.5,7.4s11.1,4.9,16.8,7,13,5.1,19.4,8.1,5.7,3.7,11-2.1c7.4-8,12.1-17.6,15.7-27.7,5.7-15.6,8.9-31.9,11.6-48.3,1.4-9,2.9-18,4.8-26.9a50.4,50.4,0,0,1,7.9-18.3c1.6-2.2,3.2-4.4,5.6-5.8s2.1-2.1,3.6-2.4a1.3,1.3,0,0,1,1,.7h0l-1.9,2.5h0l-.9,1.1c-9.8,11.8-12.4,26-14.2,40.5-.6,2.7-.7,5.4-1.2,8.1a22.4,22.4,0,0,0-.7,4.4c-.7,3.5-1.1,6.9-1.8,10.4s-1.5,6.2-2.2,9.3a10.9,10.9,0,0,1-.6,3.6c-.7,3.1-1.6,6.3-2.3,9.4-.3,1-.7,2.1-1.1,3.1l-.6,1.7a9.8,9.8,0,0,1-.5,1.6c-.3.7-.5,1.4-.8,2.2a4.2,4.2,0,0,1-.4,1,7.9,7.9,0,0,0-.6,2.2,4.9,4.9,0,0,1-.4,1.1c-.7,2.1-1.3,4.3-2.2,6.4l-.6,1.2c-2.7,5.3-5.3,10.7-8.5,15.8-2.1,2.4-3.9,5.1-6.1,7.4s-2,2-3,2.9c-2.6,2.5-5.1,3-7.7,0-4.7-2.4-9.3-5.3-14.4-6.7l-4.8-2.1a143.7,143.7,0,0,1-25.4-11.1,12.8,12.8,0,0,0-2.7-1.1c-3.4-1.5-6.9-3.2-10.2-5h-.1c-.6-.3-1.5-.1-1.9-.9h-.1l-1.3-.7-1-.4-.9-.4-1.3-.7-1-.5-1.2-1h-.1c-.5-.6-1.3-.4-1.9-.8h-.1c.7-1.1,1.9-.8,3-1.1h.1c.4.6,1.3.4,1.8.8h.1c.4.7,1.3.5,1.9.8h.1C32,145.7,33.8,145.7,35.4,146.4Z"/><path class="cls-17" d="M34.6,149.2a38.7,38.7,0,0,1,10.2,5A17.9,17.9,0,0,1,34.6,149.2Z"/><path class="cls-17" d="M32.6,148.3l1.9.9-2,.2Z"/><path class="cls-18" d="M92.1,175.2c4.5,1.9,4.5,1.9,8-1.6l2.4-2.3a1.7,1.7,0,0,1,2.1,1.4,1.4,1.4,0,0,1-.2.7c-1.5.1-3.1.9-3.2,2.3s-1.6,2.9-2.5,4.2a2.9,2.9,0,0,1-5-.3C92.9,178.2,91.9,176.9,92.1,175.2Z"/><path class="cls-19" d="M110.3,175.4a19,19,0,0,1-11.6,7.7c.9-2.2,1.9-4.1,4.5-5.1.9-.3,1.5-1.7,2.2-2.7a2.4,2.4,0,0,1,1.1-.6C107.8,174.7,109.2,174.3,110.3,175.4Z"/><path class="cls-18" d="M106.4,175.3h-1v-.9h.6A.8.8,0,0,1,106.4,175.3Z"/><path class="cls-18" d="M105.4,174.4l-1-1h.1c.8-.2,1.1.1.9,1Z"/><path class="cls-17" d="M27.6,145.5c.2.3.4.4.7.3a1.7,1.7,0,0,1,1.2.6.7.7,0,0,0,.8.3l1.2.6,1,1.1a7.5,7.5,0,0,1-6.6-3.1A1.7,1.7,0,0,1,27.6,145.5Z"/><path class="cls-8" d="M27.6,145.5l-1.7-.2a1.3,1.3,0,0,1-.1-.6Z"/><path class="cls-8" d="M23.8,143.8a1.5,1.5,0,0,1,1.9.8Z"/><path class="cls-4" d="M23.8,150.4l-.9-1Z"/><path class="cls-20" d="M105.4,174.4l-.9-1-2-2.1,5.6-6.6a1.5,1.5,0,0,1,2.1.1l4.8,6.7-2,2.8-2.7,1.1c-1.3-.2-2.6,1-3.9-.1Z"/><path class="cls-21" d="M132.4,83.2c.8-10.7,2.8-21.1,7.6-30.8,1.9-3.8,4.1-7.5,7.7-10.1a1.1,1.1,0,0,1,.9.7.9.9,0,0,0,0,.7c-1,1.3-2.1,2.4-3,3.7s-1.3,2.2-2,3.2c-2.5,4.2-3,8.7-2.7,13.4a28,28,0,0,1,0,2.9c-2.5,1.6-2.5,1.6-2.3,5.7,1.9-1.2.7-3.8,2.4-4.9,1.1,1.1.8,2.6.9,3.9s0,2.2.9,3,.1,3.8.1,5.7c-2.2,1-3.8,2.2-3.4,5,.2,1.2-.3,2.2-1.9,2.1A19.2,19.2,0,0,0,132.4,83.2Z"/><path class="cls-22" d="M141,67.7c0,1.6,0,3.2-.1,4.8a1.9,1.9,0,0,1-2.5,1.9c-1.5-.3-2.4-1.4-2.1-2.7a.6.6,0,0,1,.1-.4,4.3,4.3,0,0,0,.9-3.9c-.2-.5.5-1.5,1-1.9s1.6.6,2.2,1.1l.4.3A2.2,2.2,0,0,1,141,67.7Z"/><path class="cls-23" d="M138.1,87c1-.7.4-1.6.2-2.5-.6-3.4.9-4.8,4.6-4.2,1.5,6.1.7,12.2.4,18.3a10.6,10.6,0,0,1-.4,1.9c-1,.7-.2,2.1-1,2.9h-2.2c-2.2-.1-2.2-.1-2.6-2.8,0-.2-.1-.4-.1-.6l-.6-1.1c-1.2-2.4-4.3-1.5-5.9-3.1.2-1.4.4-2.8.7-4.2,2.1,1.2,4,1.8,4.6-1.7C136,88.6,137,87.8,138.1,87Z"/><path class="cls-13" d="M141.9,103.4c0-1.1-.2-2.2,1-2.9C142.8,101.5,143,102.6,141.9,103.4Z"/><path class="cls-2" d="M148.6,43l-.9-.7.8-.5A4.9,4.9,0,0,0,148.6,43Z"/><path class="cls-24" d="M149.6,39c-1.3.5-2.1,2.1-3.8,1.9l.9-1.1c.5-.5.8-1.2,0-1.4-4.5-1.6-9.1-2.9-13.6-4.6-9.9-3.6-19.6-7.5-29.5-11.2S85.3,15.3,76.4,11.1l-1.7-.9,2-1.1,6.5,2.3,1.9.9,2,.9,4.7,2,4.9,1.9,9.7,3.7,4.8,1.8c.1.3.3.4.6.2s1.6.3,2.2.9h.1c.8.9,2.1,0,2.8,1h0c1.6.6,3.5.4,4.8,1.9h.1a20.4,20.4,0,0,0,7.4,2.9h.1c.8.8,2.2-.1,2.9,1h0l2.8.9h.1c.6.4,1.4.2,2,.8s.4.3.7.2l2.9,1h.1c.7.3,1.4.2,2,.7h.2c1.8.7,3.9.8,5.6,1.9h0C149.6,36.9,150.5,37.6,149.6,39Z"/><path class="cls-2" d="M121.7,26.6l-4.8-1.9C118.8,24.6,120.8,24.2,121.7,26.6Z"/><path class="cls-2" d="M116.9,24.7l-2.8-1C115.2,23.7,116.3,23.5,116.9,24.7Z"/><path class="cls-2" d="M114,23.7l-2.2-.9A2,2,0,0,1,114,23.7Z"/><path class="cls-15" d="M49.5,4.2c-.2,1.1-.9,1.1-1.7,1.1Z"/><path class="cls-15" d="M47.7,5.3l-1.2.9Z"/><path class="cls-15" d="M50.7,4.5l-1.1-.4,1-.6A3.8,3.8,0,0,0,50.7,4.5Z"/><path class="cls-2" d="M148.6,36.2,143,34.3C145.1,34.1,147.1,34.2,148.6,36.2Z"/><path class="cls-2" d="M149.6,39l-1-2.8h1.9c0,1.1,0,2.1-.1,3.1Z"/><path class="cls-2" d="M142.8,34.2l-2-.7A1.6,1.6,0,0,1,142.8,34.2Z"/><path class="cls-2" d="M132.2,30.5c-1.1,0-2.2,0-2.9-1h3C132.3,29.8,132.2,30.2,132.2,30.5Z"/><path class="cls-2" d="M137.1,32.3l-2-.8A1.8,1.8,0,0,1,137.1,32.3Z"/><path class="cls-25" d="M130.5,95.7h1.4c3.2-.5,5.2.7,6.2,3.8a4.7,4.7,0,0,0-1,1c-1.4.1-2.1.8-1.7,2.2s.8,2,1.1,3-2.8.5-3.1,1.2-2.4,3-2.1,5.1c-4-.4-1.8-3.9-2.7-5.8Z"/><path class="cls-26" d="M137.1,128.3c-1.4,2.2-1.6,4.9-2.8,7.2-.3.5-.7,1-1,1.6-2.4-.7-2.9-2.7-3.4-4.8a2.7,2.7,0,0,1,.3-1.2c1.4-2.7-2.3-5.7.6-8.2a1,1,0,0,0,.5-.4l4.1,2.6,2.6-3.5Z"/><path class="cls-26" d="M128.6,106.2a9,9,0,0,1,.8,2.1,5.6,5.6,0,0,0,1.9,3.7,2.1,2.1,0,0,1-1.6,2c-1.1.6-1.2,1.8-.2,2.1s2.9,2.4,3.9,4l-2.1,2.4h0c-1.1.8-2,2.8-3.8,1.7s-.9-2.5-1-3.9,1-3,.1-4.6C127.3,112.6,127.9,109.4,128.6,106.2Z"/><path class="cls-27" d="M130.4,131.2v.9a3.2,3.2,0,0,1-1.2,3.4c-1.8,1.8-2.3,3.3-.2,5.2s1.5,2.8.1,3.2c-3.5,1.1-4.3,5-7.4,6.5-.2.5-.4,1.4-.8,1.6-2.2.6-2.1,1.9-1.4,3.7s-.5,4-1.1,5.9a1.2,1.2,0,0,1-.7.7c-2.5.8-4.5,3.1-7.5,2.5h-2.1a.6.6,0,0,1,.1-.4l8.5-15.9c1.1,0,.4-.6.4-1,.8-2.2,1.7-4.4,2.6-6.6a1.8,1.8,0,0,0,1.3-.9c1.3-3.6,2-7.5,6.4-8.9C128.5,130.7,129.4,130.2,130.4,131.2Z"/><path class="cls-28" d="M121.7,150.4c.3-.7.4-1.7.9-2.1a10.6,10.6,0,0,0,2.8-3.2,4.9,4.9,0,0,1,1.8-1.4c2.3-1.1,2.4-1.2.3-2.9a6.5,6.5,0,0,1-1.6-1.7,2.1,2.1,0,0,1,.7-2.9c1.9-.8,2.7-2.6,3.8-4.1,1,1.7,2,3.3,2.9,5s-.1,1.8-.1,2.7l-.9,1c-.6.5-.4,1.4-.9,2a2.8,2.8,0,0,1-.1.9c-.6.5-.3,1.4-.9,1.9l-1,1.9c-.1-1-.4-2-1.7-1.4a5.4,5.4,0,0,0-2,1.7c-.4.4-.4,1.1-.7,1.7S124.2,151.2,121.7,150.4Z"/><path class="cls-29" d="M125.5,159l-.9,1h-.9a2.8,2.8,0,0,1,1.9-2.9A11.5,11.5,0,0,0,125.5,159Z"/><path class="cls-29" d="M123.7,160l-.9,1.1Z"/><path class="cls-27" d="M130.4,145.6l.9-1.9Z"/><path class="cls-27" d="M131.4,142.8l.9-2Z"/><path class="cls-30" d="M52.5,28.1l-.4.2c-.7-.3-1.8-.9-2-.7A5.1,5.1,0,0,0,48.8,30c-.5,1.7-.8,3.4-1.3,5.1a3.4,3.4,0,0,1-.5,1.4c-.4.3-1.1.8-1.4.7s-.8-.9-.9-1.4a6.3,6.3,0,0,1,.3-1.9c1.5-5.2,3.1-10.4,4.7-15.6a2.2,2.2,0,0,1,.5-.8,3.3,3.3,0,0,1,1.3-.4.9.9,0,0,1,.6.7c.2,1.8.3,3.7.6,5.9l5-4.3a2,2,0,0,1,1.7-.1,1.8,1.8,0,0,1,.5,1.7c-.4,1.5-1.1,2.9-1.6,4.4a55.1,55.1,0,0,1-2,8c-.6,1.7-.8,3.6-2.6,4.7s-2.4.1-2.3-1a18.5,18.5,0,0,1,.7-4.1c.4-1.6,1-3,1.5-4.5S52.9,28.1,52.5,28.1Z"/><path class="cls-31" d="M66.9,35.2a.6.6,0,0,0,.2-.8c.4-.6.3-1.5.7-2.1a.6.6,0,0,0,.2-.8c.8-.9.1-2.2,1-3a14.5,14.5,0,0,1,.9-2.2c.3-.5.7-1.3,1.1-1.4s.9,1,1.1,1.7c.6,3.2,1.3,6.4,2.1,10.6l1.5-3.3c1.3-2.9,2.5-5.8,3.9-8.7.1-.3,1-.4,1.6-.4a2.7,2.7,0,0,1,.3,1.3,2.9,2.9,0,0,1-.2.9l-.4.9c-1.4,4.2-2.9,8.4-4.4,12.6-.3,1-.6,2.3-2,2.4s-1.8-1.5-2.2-2.7-1.1-3.9-1.9-6.6c-.9,2.7-1.4,4.7-2,6.6a1.9,1.9,0,0,1-2.1,1.6C65.2,41,65.6,40,66,39s.2-.5.1-.9S66.2,36,66.9,35.2Z"/><path class="cls-32" d="M26.4,113.5c.1-1.4,0-2.9.2-4.3a4.7,4.7,0,0,1,4.1-4h1.4c2.4-.1,4.5.5,5.6,2.8s.1,4.4-1.5,6.1a72,72,0,0,1-5.8,5c-2,1.5-3.7.8-3.9-1.7s0-2.5,0-3.8Z"/><path class="cls-33" d="M66.2,31.3a.8.8,0,0,0-.2.9c-.8.8,0,2.2-.9,3h0c-.9.8-.2,2-.9,2.9a24.8,24.8,0,0,1-1.3,3.5,1.7,1.7,0,0,1-1.4.7c-.5-.2-1.1-1-1-1.4a18,18,0,0,1,.6-3.2c.1-.4,0-1.2-.2-1.2a2.8,2.8,0,0,0-1.8-.1c-.5.3-.8.9-1.3,1.3s-1.4.5-2.2.3-.3-2.6.1-3.9,1.4-5,3.7-6.5,1.5-2.8,2.3-4.1,3.2-2.3,4.8-.1a4.5,4.5,0,0,1,.6,1.2,3,3,0,0,1,0,2.9l-.3,1.6A9,9,0,0,1,66.2,31.3Z"/><path class="cls-34" d="M46.2,92.7c1.4.4,2.3,2,4.2,1.1s2,.9,1.4,2.1-.4.5-.6.8l-.7,1.5,2.2.5.9-.3c.9-.4.6-2.6,2.2-1.8s.3,1.8.8,2.5,1.2-.3,1.9-.5c2,1.7,2.4,3.3-.1,4.8-.7-.4-1.2-1.1-2.1-.6a1.5,1.5,0,0,1-2.3-.9c-.5-1.1-1.2-1.2-2.3-1.2a4.8,4.8,0,0,1-4-2,2.1,2.1,0,0,0-3.7.5,14.3,14.3,0,0,1-.8,2.2c-.3.4-1.1.9-1.5.8a1.8,1.8,0,0,1-1.1-1.3,27.1,27.1,0,0,1,.9-5.1,27.8,27.8,0,0,1,1.6-4c.8-.4-.1-2.4,1.7-1.9l.2,1.8A2,2,0,0,0,46.2,92.7Z"/><path class="cls-35" d="M61,48.5a4.4,4.4,0,0,1,2.2.5c5.4,2.5,11.2,3.7,16.8,5.6l9.8,3.8a4.2,4.2,0,0,1,1.6,1.1c.2.1.2.6.1.8s-.4.6-.6.6a11.9,11.9,0,0,1-3.3-.4c-6.5-2.1-13-4.4-19.5-6.6-2.7-1-5.3-2.2-7.9-3.3-.4-.2-.6-1-.9-1.5A4.9,4.9,0,0,1,61,48.5Z"/><path class="cls-36" d="M67,134.1a12.5,12.5,0,0,1,.8-1.2c1-1.5,1.3-1.5,2.2-.3l.8,1.2c.9.8,1.6.7,2.2-.3l2-3.7a.7.7,0,0,1,.8-.2c.2.1.6.5.5.6a19,19,0,0,1-.9,3.6,1,1,0,0,0,.5,1.5c1.3.9,1,2.2.9,3.4a2.6,2.6,0,0,1-1.1,2c-.3.3-.6.8-1,.9s-.9-.6-1-1.2.1-1.5.2-2.5c-1.4,1.2-2.1,2.8-4,1s-2.6.2-3.4,1.6-.8,1.7-1.4,2.5a1.3,1.3,0,0,1-1.1.5c-.8-.1-.8-.8-.6-1.4s1.2-2.6,1.6-4-.5-1-.8-1.5a1.3,1.3,0,0,1,.8-1.4A9.5,9.5,0,0,0,67,134.1Z"/><path class="cls-37" d="M59.4,81.3l-1.1,1.9c-1.1,1.4-1.8,1.2-2.7-.9l.7-1c.1-.3.1-.7.2-1s-1.2-.6-1.8.1h-.1a.8.8,0,0,0-.7.8c-.4.3-.9.8-1.2.8l-4.2-.5c-3.1-.4-4.3-3-2.6-5.6a7.3,7.3,0,0,1,2.4-2.2,1.7,1.7,0,0,1,1.6.4,1.6,1.6,0,0,1,.3,1.6A29.5,29.5,0,0,1,48,78.9c1.9,1,3.4.4,4.2-1s1.9-1.3,3.2-1.3,3.1.1,4,1.8A2.1,2.1,0,0,1,59.4,81.3Z"/><path class="cls-38" d="M95.7,29.9l-1.5-.2A1.8,1.8,0,0,0,92,31.1l-1.6,4.5c-.2.6.1,1,.6,1.6s1.1,1.4-.2,1.7-1.7.6-2,1.7A33.8,33.8,0,0,1,87,45c-.1.3-.8.5-1.2.4a1.4,1.4,0,0,1-.6-1.1,4.2,4.2,0,0,1,.3-1.9q2.3-6.7,4.8-13.5c.9-2.3,1.4-2.4,4.1-1.7A15.2,15.2,0,0,1,98,28.4c.4.2.5,1,.8,1.5l-1.3.3Z"/><path class="cls-39" d="M106.2,49.5c-.8.5-1.4,1.4-2.3,1.6a10.8,10.8,0,0,1-3.6.5,1.8,1.8,0,0,1-1.2-1.3c-.1-.4.5-1,.9-1.4a1.5,1.5,0,0,1,1.3-.3,2.4,2.4,0,0,0,2.7-1.4,4.5,4.5,0,0,0,.2-4.2c-.4-.8-1.1-1.5-1.5-2.4a4.2,4.2,0,0,1-.2-2.7c.7-2.2,3.8-3.6,6.6-3.1.1,0,.1.3.2.4a2.1,2.1,0,0,1,.3,2,4.1,4.1,0,0,0-1.6,5.2C108.8,45,109,47.7,106.2,49.5Z"/><path class="cls-40" d="M96.3,46.7a6.8,6.8,0,0,1,1.9-.1.6.6,0,0,1,.6.5c.1.3,0,.8-.2.9a16.6,16.6,0,0,1-4.3,1.4c-.7.1-1.8-1-2-1.7a7.5,7.5,0,0,1-.1-4.2,45.3,45.3,0,0,1,3-8.5c.7-1.6,2.6-1.5,4.2-1.6l.8.3c-.1.5-.2,1.2-.5,1.3a4.2,4.2,0,0,0-3.1,3.3c-.1.4-.2,1.1,0,1.2s.9,1.7-.1,2.1-1.8,2.8-1.7,4.5S96.1,46.6,96.3,46.7Z"/><path class="cls-39" d="M79.6,90.8a6.5,6.5,0,0,1-.8-2.2A2.5,2.5,0,0,1,81.6,86a1.5,1.5,0,0,1,1.3,2c-.2.4-.7.7-.8,1.2a1.8,1.8,0,0,0,2,2.2,9.8,9.8,0,0,1,2.3-.6A1.4,1.4,0,0,1,88.1,92c.2,1.2.8,2.4.2,3.7s-3.5,3.1-4.9,1.3a6.3,6.3,0,0,0-4.2-2.6c-1.2-.3-1.1-1.7.3-2.7s.6-.1.3-.5Z"/><path class="cls-41" d="M109.3,37V35.2c3.4,1.1,6.2,3.6,9.5,4.8.3,1.5-.8,1.4-1.6,1.4s-2.5.1-3.1,1.5-.3.3-.2.5-.2,1.7-.9,2.3h0c-.4.6-.3,1.4-.9,1.9h0c-.5.5-.4,1.3-.8,1.9a.4.4,0,0,0-.3.6,4.5,4.5,0,0,1-.8,2.2h0c-.5.6-.4,1.4-.9,2h-.1l-.9.9a1.4,1.4,0,0,1-1.3-1.9,20,20,0,0,1,.5-2.6,16.2,16.2,0,0,1,1.7-5.8A8.7,8.7,0,0,0,109.3,37Z"/><path class="cls-42" d="M105.6,115.9a5.9,5.9,0,0,0-.4.8,2.1,2.1,0,0,1-1.9,2.8c-1.4-.2-3.2.6-4-1.4-.2-.3-1.1-.4-1.6-.4s-1.6.1-1.9-.9-1.3-3.1.2-3.7.5,2.6,2.3,2.7,1.6-2.3,3.3-1.9.8,1.8.4,2.3a13.9,13.9,0,0,1,1.4-3.3c.3-.6.5-1.2.8-1.7s.9-1.6,1.4-1.7.7,1.1.8,1.7,1.9.5,2.6,1.3a3.9,3.9,0,0,1,.6,1.1,1.4,1.4,0,0,1-.7.6c-.3.1-.6-.1-.9,0l-1.6.8A1.8,1.8,0,0,0,105.6,115.9Z"/><path class="cls-43" d="M114.9,99.5c-.3.3-.5.8-.8.8a8.2,8.2,0,0,1-2.2.2c-.2.5-.6.9-.6,1.4a10,10,0,0,1-.5,2.6c-.4.7-1.2.9-1.6-.2l-.7-.9c-1.4.4-2.6,1.1-4.1.6s-3.3-3-1.5-5a2.1,2.1,0,0,1,1.2-.7,2.5,2.5,0,0,1,1.7.1,2.8,2.8,0,0,1,.5,1.6c0,.4-.5.8-.6,1.3s.6.7,1.1,1,1.9-.1,2.3-1.2-.1-.5.2-.6.2-2.1.8-3.1H110c1.2-.7.4-2.1,1.1-2.9h0c.7-.5.6-1.4.8-2.1h0c.7-.2,1-1.3,2-.7l-.3,1.9a3.6,3.6,0,0,1-.4,1.1l-.5,1.8C112.2,98.7,113.7,98.9,114.9,99.5Z"/><path class="cls-44" d="M109.3,37a8.3,8.3,0,0,0,1.7,1.5,2.4,2.4,0,0,1,.8,3.3c-1.5,3-2.9,6-4.3,9l-1.3-1.3c.6-2,1.7-3.9,1-6a20.1,20.1,0,0,0-1.9-3.9,1.3,1.3,0,0,1,.8-1.9A16.5,16.5,0,0,1,109.3,37Z"/><path class="cls-45" d="M47.9,126.4a6.4,6.4,0,0,1,1.1-1.6,1.9,1.9,0,0,1,1.5-.7c.6.1.8.8.5,1.5a7.1,7.1,0,0,0-.1,1.4c1.2.6,2.3-1.8,3.4-.2s-.3,2.4-.7,3.6l-.8,1.2a1,1,0,0,1-1.6.2c-1.6-1.3-3.2-2.6-5.4-3s-2.1-1.2-2-2.7a3.6,3.6,0,0,1,1.6-2.8,1.2,1.2,0,0,1,1.7.1,1.2,1.2,0,0,1,0,1.7l-.5.7C46.7,126.7,47.2,126.9,47.9,126.4Z"/><path class="cls-46" d="M119.7,84.4c.6-.5,1.1-1.3,2.1-.8l2,1.3a3.4,3.4,0,0,1,1.6,3.6,7.8,7.8,0,0,1-.9,2.7,4.5,4.5,0,0,1-1.3,1.1c-.3-.5-.8-1-.8-1.5s.2-2.1.4-3.9L121,88.4c-1.5,1-1.6.9-2.5-1.2.3-.2.3-.4.1-.4a.5.5,0,0,0-.6.4h0a2.2,2.2,0,0,1-2.1-.1h0a2.8,2.8,0,0,0-.9-1h-.1a2,2,0,0,1,.2-2.8,8.8,8.8,0,0,1,1.5-1.2c1.5-.6,1.9-.3,2.4,1.7C119.1,84.3,119.3,84.5,119.7,84.4Z"/><path class="cls-47" d="M42.1,125.3c-.3.4-.5.9-.9,1.1a3.2,3.2,0,0,1-1.4.1c-5.2-.1-5.8-1-3.5-5.5,1.5-2.7,2.9-5.3,4.5-7.9a1.9,1.9,0,0,1,1.4-.8c1,.3.9,1.3.6,2a35.9,35.9,0,0,1-1.7,3.4c-.7,1.5-1.5,2.9-2.2,4.3s-.4,2.2,2,2.1a1.7,1.7,0,0,1,1,.7C42,124.9,42,125.1,42.1,125.3Z"/><path class="cls-48" d="M98.3,115.8l-.5-.2a12.9,12.9,0,0,1-1.7-1.6l-.3,2.8c-.6-.2-1.1-.6-1.6-.7s-.8.4-1.3.5a3.2,3.2,0,0,1-3.6-1.4c-.9-1.4.2-2.3.9-3.3a1.4,1.4,0,0,1,1.2-.3c-.4-.3-1-.1-1.3-.6s2-1.8,3.3-2,1.6.7,2,1.6.4,1.1.7,1.1c1.9.2,1.6,1.5,1.6,2.8S98.1,115.3,98.3,115.8Z"/><path class="cls-49" d="M99.6,74.6l1.9-2.7c.4-.7,1.1-1.5,1.8-.8s.3,1.4,0,2.1a25.9,25.9,0,0,1-1.7,3.3c-.5.4-.3,1-.4,1.6a5.1,5.1,0,0,1-.7,1.5,1.5,1.5,0,0,0-.6.9c-.9,1.7-.9,1.8-2.1,1.1s-2.7-1.5-4-2.3c-1.4-2.7-.5-4.5,2.2-5.6,1.1-.1,2.1-.3,2.8.8s0,1.2-1.4,2.3A6.1,6.1,0,0,0,99.6,74.6Z"/><path class="cls-50" d="M117.9,45.9c-.3,1.4-.5,2.7,1.3,3.4s.9,1.5-.1,1.7a4.8,4.8,0,0,0-3.6,1.9c-.4.6-.4,1.2.3,1.5a15.5,15.5,0,0,0,2.3.8,1.7,1.7,0,0,1,.7,1c0,.3-.5.8-.8.9a7.5,7.5,0,0,1-5.1-.8l-.7-1.1V53.6c.3-.6.2-1.5.8-2.1h0c.6-.5.4-1.4.9-1.9h.1c.6-.5.3-1.4,1-1.9h0c.6-.7.2-1.7,1-2.3A1.6,1.6,0,0,1,117.9,45.9Z"/><path class="cls-51" d="M74.6,110c-.4.1-1,.4-1.3.3s-2.2-2.1-3.7-2.6a1.7,1.7,0,0,1-.7-2.5,4.7,4.7,0,0,1,1.7-2.2c1.8-.8,3.3-1.5,3.9-3.6,0-.1.6-.3.8-.2a1,1,0,0,1,.6.7c-.1,1.4-.3,2.9-.4,4.3S76.7,108.3,74.6,110Z"/><path class="cls-46" d="M79.4,41.5c.4-1.4,1-3.2,1.6-5s1.8-4.8,2.8-7.1A3.5,3.5,0,0,1,85,27.9h.8a.9.9,0,0,1,.5.8,3.9,3.9,0,0,1-.3,1.4c-1.3,4-2.6,8.1-4,12.2a2,2,0,0,1-.4.8c-.3.3-.8.7-1.2.6s-.7-.5-.9-.8A4.2,4.2,0,0,1,79.4,41.5Z"/><path class="cls-52" d="M39.2,60c-1.6.5-3.2.8-4.4-.7s-.9-3-.4-4.5a7.4,7.4,0,0,1,4.8-4.9,2.2,2.2,0,0,1,3,1.4,2.6,2.6,0,0,1-.3,1.7,1.3,1.3,0,0,1-1.2.1,1.6,1.6,0,0,0-2.4.3,12.3,12.3,0,0,0-1.4,2.5c-.6,1.3-.1,2,1.4,2.3l1.8.2C40.6,59.4,39.7,59.6,39.2,60Z"/><path class="cls-53" d="M89.9,74.1h0a2.9,2.9,0,0,1,.1-2.4h0a.6.6,0,0,1,.9.1l1.8.8a1,1,0,0,1,1.4.3,1.7,1.7,0,0,1,0,1l-.4.9c-.1.2-.2.3-.2.5a6.9,6.9,0,0,0-.1,2c-.1.8-.3,1.5-1.3,1.4v-.4a1.2,1.2,0,0,1-.7-.7l-1.1-.9a2.3,2.3,0,0,1-1.1.3l-1,.4c-3.4-.7-4.8-1.9-5-4.4a2.8,2.8,0,0,1,2.1-3.2,1.7,1.7,0,0,1,1.7.4c.3.3.1,1.1,0,1.6a1.4,1.4,0,0,1-.6.7c-1.2.8-.7,1.5,0,2.3a2.7,2.7,0,0,0,2.6.7A1.3,1.3,0,0,0,89.9,74.1Z"/><path class="cls-54" d="M32.3,93H30.4c-.3-.1-.9-.5-.9-.9a5.5,5.5,0,0,1,.2-1.8c.6-2.9,1.1-5.7,1.8-8.4a2.5,2.5,0,0,1,1.1-1.4c.5-.2,1.4.8,1.3,1.6s-.2,2.2-.2,3.3a4.4,4.4,0,0,0,.6,1.6,1.8,1.8,0,0,1,1.3,1.2c-.2,1.3-1.5,1.9-1.7,3.1A2.3,2.3,0,0,1,32.3,93Z"/><path class="cls-51" d="M85.2,144.7c-.9.6-1.6.8-2.1-.5a3.7,3.7,0,0,0-.7-1.4c-1.8,0-1.5-1-1-2.1s1.5-2.6,3.2-1.7,2.7,1.4,3.9,2.2.6,1.4.8,2a2.2,2.2,0,0,1,.3,1,1.8,1.8,0,0,1-.6.9l-.8.5h0c-.7.4-1.1,0-1.4-.6S86,144,85.2,144.7Z"/><path class="cls-55" d="M35.7,88.1,34.3,87c2.5-.9,3.5-.6,4,1.2a18.6,18.6,0,0,1,.4,3.3,3.3,3.3,0,0,1-2.4,3.6c-1.4.5-2.7-.1-4-2.1l1.1-1.8c.1-.9.9-1.1,1.6-1.3a1.5,1.5,0,0,0,1-.9A1.6,1.6,0,0,0,35.7,88.1Z"/><path class="cls-56" d="M58.4,103.4a3.4,3.4,0,0,0,.1-4.8c.4-.8,1.1-.8,1.4-.2a7.8,7.8,0,0,1,.3,2.2c.1.6.1,1.5.5,1.7s1.3-.4,1.7-1.2,2.6-1.5,4.1-1.3a1.3,1.3,0,0,1,1,.9c.1.2-.3.7-.6,1s-1.6.9-2.3,1.5-1.1,1.4-1.7,2.1S59.3,105.4,58.4,103.4Z"/><path class="cls-57" d="M93.7,146.4c.2-.5.4-1.4.8-1.5,2.1-.3,4.2-.8,6,1.2s1.5,1.1.5,3a1.3,1.3,0,0,0,.1,1.6,1.7,1.7,0,0,1,.1,1.2c-.5.3-1.3.7-1.7.4a4.1,4.1,0,0,1-1.8-1.9,3.6,3.6,0,0,1,.9-3.5c-.5-.9-1-1.1-1.7-.2h-.1C95.8,146.7,94.7,147.2,93.7,146.4Z"/><path class="cls-58" d="M83.6,112.8c-.4-.6-.9-1.2-.8-1.7.6-2.3,1.3-4.5,2.1-6.8a4.8,4.8,0,0,1,.8-1.6,1.4,1.4,0,0,1,1.2-.4,1.3,1.3,0,0,1,.6,1.1c-.3,1.4-.7,2.7-1.1,4.1s-.9,3-1.5,4.4S84.2,112.4,83.6,112.8Z"/><path class="cls-59" d="M39.2,60l.9-1.6,2.7-1.6c1.1-.6,2.3-1,3.2.4s1.3,2.9-.4,4.1-3.2,1.4-4.4-.7S39.9,60.2,39.2,60Z"/><path class="cls-60" d="M47.7,58.1l.8-.3c4.2.7,5.3,2.6,3.8,6.5a1.2,1.2,0,0,1-1.1.7c-.2,0-.6-.5-.7-.9s0-.9,0-1.4l-.6-1.6-1.9,1c-1,.6-1.3-.1-1.6-.8A3.3,3.3,0,0,1,47.7,58.1Z"/><path class="cls-61" d="M41.3,72.4a41.6,41.6,0,0,1-.5,4.9c0,.4-.7.9-1,.9a2.4,2.4,0,0,1-1.3-1.1,3.7,3.7,0,0,1,0-1.8c.3-2.3.9-4.6,0-7-.1-.2.6-1.1,1-1.2s1.3.5,1.3.9S41.2,71.4,41.3,72.4Z"/><path class="cls-62" d="M108.2,79.3c.2-.2.4-.5.7-.6s2.2-.1,2.3,1.2.1,2.8.2,4.2-.8.6-1,1.1c-2.6,1.4-3,1.3-4-1.4a1.1,1.1,0,0,1,.1-1.1C107.4,81.7,107.4,80.3,108.2,79.3Z"/><path class="cls-63" d="M57.6,60.1c-.7,1.8-1.2,3.6-1.9,5.3s-.8.5-1.1.4a1.4,1.4,0,0,1-.7-1q1.1-4,2.4-8.1a1.9,1.9,0,0,1,1.3-1c1,.2.8,1.2.8,1.9v.5C59.1,59.2,58.1,59.6,57.6,60.1Z"/><path class="cls-64" d="M79.1,62.4a2.1,2.1,0,0,1,.9,1c.2.4,0,.9-.1,1.4-.9,2.4-1.7,4.8-2.7,7.1-.1.3-.8.6-1.1.6s-.6-.7-.7-1.1a1.5,1.5,0,0,1,.1-.9c.8-2.4,1.6-4.8,2.5-7.2A5.3,5.3,0,0,1,79.1,62.4Z"/><path class="cls-65" d="M69.8,82.3c1.7,1.3,1.9,1.7,1,2.8l-.7.6C68.9,87,68.9,87,70,88.6a4.5,4.5,0,0,1,.6,1.2c-.6.1-1.2.5-1.7.3A5.5,5.5,0,0,1,67,88.9C65.7,85.8,65.6,83.1,69.8,82.3Z"/><path class="cls-66" d="M113.2,118.6c.3.5.8,1,.7,1.5a7,7,0,0,1-.7,2.2,5.3,5.3,0,0,1,1.7.8c.4.2.6.6.9.9a5.5,5.5,0,0,1-1.5.8,4.6,4.6,0,0,1-3.7-1.7,2.9,2.9,0,0,1-.2-3.4C110.9,118.2,111.9,118,113.2,118.6Z"/><path class="cls-61" d="M81.4,140.7l1,2.1c-1.2,1.4-2.6-.6-3.9,0s-1.3-1.1-2-1.7l-.8-.4a1.9,1.9,0,0,1,1.1-2,7,7,0,0,1,1.7-.9,2.2,2.2,0,0,1,1.6.3c.3.1.2.8.1,1.3s-.4.5-.4.7a3.5,3.5,0,0,0,.3,1.1Z"/><path class="cls-67" d="M113.2,118.6l-2.8,1.1c-.9-1.2-1.4-1.4-2-.7s-1.2,2.3-2.8,2.4c-1.2-1.7-1.2-3.3.9-4.5s3.7-1.7,5.1.8C111.9,118.2,112.7,118.3,113.2,118.6Z"/><path class="cls-68" d="M92.8,94.5c-.5,1.7-.9,3.4-1.4,5.1s-.8.6-1.1.6a1.8,1.8,0,0,1-1-.9,10.3,10.3,0,0,1,1.5-6.4c.3-.4,1.4-.2,1.6.3A6.5,6.5,0,0,1,92.8,94.5Z"/><path class="cls-69" d="M65.2,87.1c-1.9-.3-1.9-.3-2-2.9h-.1c1-1.6,1.7-3.3,3.7-3.9s1.8,0,2.1,1.8C66.5,83,66.9,85.9,65.2,87.1Z"/><path class="cls-70" d="M64,69c-1.2-.8-2-1.9-1.5-3.2a6.2,6.2,0,0,1,2-2.5,1.7,1.7,0,0,1,2.6.3c.7,1,.2,1.8-.8,2.3l-1,.8a1.8,1.8,0,0,0,.1,1,.7.7,0,0,0-.1.5l-.8.7Z"/><path class="cls-71" d="M61.3,77.4c2.1-2,2.2-2,4.1-.7s1.1,1.4-.1,1.8-1.7,1.7-2.2,2.7a1.6,1.6,0,0,1-1.3.6,1.4,1.4,0,0,1-1.1-.9A3.4,3.4,0,0,1,61.3,77.4Z"/><path class="cls-1" d="M59.4,27.6l-3,6.6c-1,.1-1.5-.2-1.1-1.3a21.1,21.1,0,0,1,3-7.5C58.7,26.1,59,26.8,59.4,27.6Z"/><path class="cls-72" d="M65.2,135.9l-1,.7a2.5,2.5,0,0,1-2.1-2.7,3.6,3.6,0,0,1,.9-2.1,2.8,2.8,0,0,1,1.6-.5c1,0,1.2.8,1.3,1.7S65.8,135,65.2,135.9Z"/><path class="cls-73" d="M102.5,77.4c1.5.1,1.2,1,.9,1.9s-.2,1.4.9,1h.1a3.1,3.1,0,0,0,.9-.7v-.3a1.7,1.7,0,0,1,1,0h.1a2.7,2.7,0,0,1,.5,2.6c-.5.7-1.1,1.4-1.6,2.2h-.1c-.2.3-.5.3-.9.1h0c-.4-1.4-1.8-1.3-2.7-2h-.1c-.6-.5-.5-1.2-.5-1.9S101.4,78.1,102.5,77.4Z"/><path class="cls-74" d="M75.7,106.2a3.7,3.7,0,0,1,1.2-.7c1.2-.5,1.9-.2,1.9,1a26.4,26.4,0,0,1-.2,2.8c-.1,1.6-1.1,1.1-2,.7A2.5,2.5,0,0,1,75.7,106.2Z"/><path class="cls-51" d="M89.2,146.5c-.3-.2-.3-.4-.2-.7a.8.8,0,0,1,.1-1.1h0l.9-1.1.7-.5c.6,0,1.3,0,1.6.3s.1,1.1-.1,1.5a5.3,5.3,0,0,1-1.1,1.5c.2.5.4.9,1,1h.1a.8.8,0,0,1-.2,1.2,1.6,1.6,0,0,1-2.1-.7C89.9,147.2,89.5,146.9,89.2,146.5Z"/><path class="cls-1" d="M99.6,74.6c-.6,1.3-1.1,2.7-1.8,4.1s-1.1.3-1.2.2-.7-1.3-.5-1.5a25,25,0,0,1,2.7-2.9A.8.8,0,0,1,99.6,74.6Z"/><path class="cls-75" d="M89,104.9l1.2-1.8c.1,0,1.1.5,1,.6a14.8,14.8,0,0,1-1.3,3.5c-.3.7-.9,1.4-1.7.6s0-1,.1-1.6A3.3,3.3,0,0,0,89,104.9Z"/><path class="cls-1" d="M65.2,87.1c.3-1,.6-2,1-3s1.2-2.2,2.7-1.9h.9A5.5,5.5,0,0,0,67,88.9Z"/><path class="cls-76" d="M65.4,67.7a25,25,0,0,1,2.5.9c.3.2.6.8.5,1a1.4,1.4,0,0,1-.9.9A3.1,3.1,0,0,1,64,69a.8.8,0,0,1,.2-.5.9.9,0,0,0,.7-.6Z"/><path class="cls-77" d="M57.6,60.1a16.7,16.7,0,0,1,.8-2c1.5.3,3.1.4,3,2.6-.1.5,1,.9,1.5,1.4a1.8,1.8,0,0,1-2.6-.1c.3-.9,0-1.4-.9-1.6Z"/><path class="cls-78" d="M92.1,78.6c1.2-.4,1.2-1.2.7-2.2a1.9,1.9,0,0,1-.1-1.8l.3-.3a1.6,1.6,0,0,0,.7-.7l.2-.2c.2-.3.4-.3.7.1l1.4.2c-1.1,1.8-2.9,3.2-2.2,5.6Z"/><path class="cls-79" d="M117.9,45.9l-1.8-.2c-.4-1.2.6-1.3,1.3-1.6,2.8-.2,5.7-1,8.3.7a1.3,1.3,0,0,1-1.3,1Z"/><path class="cls-80" d="M125.7,44.8h-9.3a1.8,1.8,0,0,1,.4-.9h.2a20.3,20.3,0,0,1,8.5-.1,3.5,3.5,0,0,1,.5.8C126,44.6,125.8,44.7,125.7,44.8Z"/><path class="cls-81" d="M24.8,120.1a3.8,3.8,0,0,1,3.2,1.6c.1.3-.2,1.1-.4,1.1a3.3,3.3,0,0,1-3.5-1.7C24,120.9,24.6,120.4,24.8,120.1Z"/><path class="cls-82" d="M125.5,43.7H117A8.6,8.6,0,0,1,125.5,43.7Z"/><path class="cls-83" d="M93.7,146.4c1-.3,2.1-.6,3.1.3l-2,1.9a1.1,1.1,0,0,1-1.9-.1.9.9,0,0,1-.1-1.3Z"/><path class="cls-1" d="M106.1,82.2a28.9,28.9,0,0,0,.4-2.9h1.7l.6,3.5-2.4,1.1A1.7,1.7,0,0,1,106.1,82.2Z"/><path class="cls-84" d="M61.3,77.4v3.9a.6.6,0,0,1,.3.6.6.6,0,0,1-.1.4,1.1,1.1,0,0,1-1.1.1l-1-1.1V78.4Z"/><path class="cls-85" d="M44,71.7c-.1-1,0-1.9,1.1-2.3a1.2,1.2,0,0,1,1.1.4c.7.9.1,1.7-.4,2.5s-.6.2-.8.3Z"/><path class="cls-86" d="M113.2,86.1c-.5.3-1,1-1.4.9s-.7-1.1-.7-1.9.8-.7.8-1.3a.6.6,0,0,1,.3-.6,3.4,3.4,0,0,1,.9-.8l1.1.5C114.8,84.3,113.8,85.1,113.2,86.1Z"/><path class="cls-82" d="M114.1,42.9c.6-2.1.6-2.1,2.2-2s2.1.7,2.5-.9c.6,1.3.5,1.8-.4,1.9S115.4,42,114.1,42.9Z"/><path class="cls-87" d="M106.5,116.9c-.7,1.5-1.9,2.8-.9,4.5l-2.3-1.9,1.9-2.8Z"/><path class="cls-88" d="M75.7,106.2c-1,1.6.6,2.5.9,3.8h-2c.4-2-.5-4.1.9-5.8C75.6,104.8,75.6,105.5,75.7,106.2Z"/><path class="cls-1" d="M55.3,32.9l1.1,1.3c-.3,1.3-.5,2.5-.8,3.8H53.7C54.2,36.4,54.8,34.7,55.3,32.9Z"/><path class="cls-89" d="M60.4,64.2A9.5,9.5,0,0,1,60,66a1.5,1.5,0,0,1-1.1.6c-.3,0-.7-.5-.8-.8s-.1-2.2,1-2.9A1.4,1.4,0,0,1,60.4,64.2Z"/><path class="cls-90" d="M94.2,140.6a2.6,2.6,0,0,1-.3,1.1s-.4.1-.4,0a5.2,5.2,0,0,1-1.2-1.7,1.5,1.5,0,0,1,.8-1.9c.2-.1.7,0,.7.1A17.2,17.2,0,0,1,94.2,140.6Z"/><path class="cls-91" d="M65.2,135.9c-.6-1.1-.8-2.2.7-2.9l1.1,1.1C67.1,135.4,66.3,135.8,65.2,135.9Z"/><path class="cls-8" d="M35.4,146.4a4.2,4.2,0,0,1-4.7-2A7.4,7.4,0,0,1,35.4,146.4Z"/><path class="cls-1" d="M102.5,77.4l-1.1,2.7c-.1.7-.4.8-.9.2l-.3.2h-.3l-.2-1a3,3,0,0,0,.6-1.1,21.4,21.4,0,0,0,1.3-1.9Z"/><path class="cls-91" d="M103.4,112.9l-1.2,4.4h-.4c-.1-1.1-.2-2.2-.2-3.3Z"/><path class="cls-92" d="M76.4,88.6l-2.9.4a1.1,1.1,0,0,1-.8-.8c-.2-.8.4-1.2,1.1-1A18.3,18.3,0,0,1,76.4,88.6Z"/><path class="cls-1" d="M113.2,86.1c.3-1.1.7-2.1,1-3.2l.9.5c-.1.9-.1,1.8-.2,2.8Z"/><path class="cls-82" d="M116.8,43.8l-.4.9c-.2.3-.4.4-.5.7l.2.3c-.3.7-.7,1.3-1,2s-.1-1.2-.1-1.8S115.5,43.9,116.8,43.8Z"/><path class="cls-93" d="M83.7,65.9c-.4.3-.8.8-1.3.9s-.7-.5-.7-.8.9-1.8,1.3-1.5A6,6,0,0,1,83.7,65.9Z"/><path class="cls-94" d="M60.4,64.2l-1.3-1.3,1.2-.9h2.6c.6.6.3.9-.3,1s-1.7.1-2.2,1.1Z"/><path class="cls-1" d="M47.7,58.1,46.6,61q-.1.9-.9.3h-.1c.1-1.4.3-2.7.4-4.1Z"/><path class="cls-95" d="M114.9,99.5c-2.8-.3-2.9-.4-2.2-2.8a2.2,2.2,0,0,0,1.6,1.9C114.5,98.6,114.7,99.2,114.9,99.5Z"/><path class="cls-96" d="M44,118.9c.3.5.7.9.7,1.2a1.1,1.1,0,0,1-.9.6c-.2,0-.6-.5-.6-.8S43.6,119.3,44,118.9Z"/><path class="cls-69" d="M60.4,82.4l.8-.3c.7.3.9,1,1.1,1.7a1.1,1.1,0,0,0,.1.5c-.9,1.2-1.1,1.2-2.2-.1a.8.8,0,0,1,0-1A.8.8,0,0,0,60.4,82.4Z"/><path class="cls-97" d="M101.7,82.2c2.3,0,2.3.1,2.7,2Z"/><path class="cls-98" d="M41.1,123.6c.1-.7.5-1.2,1.2-1.1s.9.7.7,1.3a7.5,7.5,0,0,1-.9,1.5l-.4-.2A2.2,2.2,0,0,0,41.1,123.6Z"/><path class="cls-99" d="M44.8,89.9l-1.7,1.9a8.1,8.1,0,0,1,.1-2.2,1.1,1.1,0,0,1,1-.5C44.4,89.1,44.6,89.6,44.8,89.9Z"/><path class="cls-100" d="M87,144.5l1.2,1.2c-.4.3-1,.8-1.4.8s-.6-1.2-.7-1.9S86.6,144.3,87,144.5Z"/><path class="cls-1" d="M87,144.5H85.2c.2-.4.3-.9.6-1.1S87.1,143.6,87,144.5Z"/><path class="cls-101" d="M80.8,133.9c-.2.2-.3.6-.6.6s-1.4.3-1.5.1,0-1.2.7-1.4h.4a1.3,1.3,0,0,1,.8.3Z"/><path class="cls-102" d="M79.4,133.2c.2-.2.4-.6.6-.7s1.1-.3,1.3-.1.2,1.1-.5,1.5l-.5-.3h-.5C79.7,133.3,79.6,133.2,79.4,133.2Z"/><path class="cls-103" d="M66.2,128.2c-.6.8-1.3,1.3-2.2.8l-.2-.4.3-.3A1.7,1.7,0,0,1,66.2,128.2Z"/><path class="cls-104" d="M66.2,128.2H64.1l.9-1a1.4,1.4,0,0,1,1.9,0Z"/><path class="cls-105" d="M47.9,126.4c-.4.8-.9,1-1.6.4s.2-.7.3-1Z"/><path class="cls-1" d="M90.1,111l1.9.2c.2,0,.3.3.5.4s-.2.3-.4.3H90.2A1.4,1.4,0,0,1,90.1,111Z"/><path class="cls-95" d="M110.1,97.4c.1,1.1.3,2.3-.8,3.1A3,3,0,0,1,110.1,97.4Z"/><path class="cls-95" d="M111.1,94.6c0,1.1.3,2.3-1.1,2.9Z"/><path class="cls-95" d="M113.9,91.9l-2,.7c.2-.4.2-.9.5-1.2S113.7,90.7,113.9,91.9Z"/><path class="cls-106" d="M67.1,27.5V24.6C68.3,25.6,68.2,26.5,67.1,27.5Z"/><path class="cls-1" d="M52.5,28.1a7.3,7.3,0,0,1,.8-.9c.2-.2.7-.1,1-.1a1.9,1.9,0,0,1-.1.8c-.1.3-.4.4-.6.6Z"/><path class="cls-106" d="M69,28.5a3.5,3.5,0,0,1-1,3C67.8,30.3,67.8,29.2,69,28.5Z"/><path class="cls-106" d="M65.1,35.2a3.2,3.2,0,0,1,.9-3c0,1,0,2,.1,3h-1Z"/><path class="cls-106" d="M64.2,38.1l.9-2.9A2.6,2.6,0,0,1,64.2,38.1Z"/><path class="cls-106" d="M66.9,35.2c-.2,1-.5,1.9-.8,2.9V35.2h.8Z"/><path class="cls-107" d="M91,87.7c.5.5.8.7.9,1s-.1.5-.2.8-.9-.2-1.1-.5S90.8,88.4,91,87.7Z"/><path class="cls-106" d="M66,39l.3,2.8C64.8,40.6,64.8,40.6,66,39Z"/><path class="cls-108" d="M45.7,61.3l.9-.3L48,62.1c-.5.3-.9.9-1.3.8S45.8,62,45.7,61.3Z"/><path class="cls-109" d="M94.6,73.5h-.7l-1.2-.9C94.2,71.5,94.3,71.5,94.6,73.5Z"/><path class="cls-110" d="M54.7,80.4a1.3,1.3,0,0,1,1.6-1c.2.1.2.6.2.9Z"/><path class="cls-97" d="M104.3,80.3c-.2.6-.7,1-1.3.4s-.2-1,.4-1.4Z"/><path class="cls-69" d="M62.3,81.3h.8v3h-.3l-.4.2-.4-.5C61.8,82.9,61.5,82,62.3,81.3Z"/><path class="cls-109" d="M90,71.6V74C89.4,73.2,88.5,72.4,90,71.6Z"/><path class="cls-89" d="M60.4,64.2c.3-1.2,1.2-1.3,2.2-1.1Z"/><path class="cls-82" d="M109.3,54.4l.9-2A1.8,1.8,0,0,1,109.3,54.4Z"/><path class="cls-82" d="M113.1,51.5a18,18,0,0,0-.8,2.1A1.7,1.7,0,0,1,113.1,51.5Z"/><path class="cls-82" d="M110.2,52.4a19.5,19.5,0,0,1,.8-2.2A1.8,1.8,0,0,1,110.2,52.4Z"/><path class="cls-82" d="M114,49.6l-.9,1.9A1.7,1.7,0,0,1,114,49.6Z"/><path class="cls-82" d="M115.1,47.7c-.3.6-.7,1.2-1,1.9A1.7,1.7,0,0,1,115.1,47.7Z"/><path class="cls-82" d="M111.3,49.6a10.8,10.8,0,0,1,.8-1.9A10.8,10.8,0,0,0,111.3,49.6Z"/><path class="cls-82" d="M112.1,47.6l.9-1.9A1.5,1.5,0,0,1,112.1,47.6Z"/><path class="cls-82" d="M113,45.7l.9-2.3C114.1,44.4,114,45.2,113,45.7Z"/><path class="cls-95" d="M109.1,101.1c-.3,1.2-1.3,1.2-2.3,1.2Z"/><path class="cls-106" d="M67.8,32.3a17.2,17.2,0,0,1-.7,2.1A1.7,1.7,0,0,1,67.8,32.3Z"/><path class="cls-106" d="M66.2,31.3l.6-2.2A1.7,1.7,0,0,1,66.2,31.3Z"/><path class="cls-95" d="M111.9,92.6a1.7,1.7,0,0,1-.8,2.1Z"/><path class="cls-111" d="M79.6,90.8l.7.9c.1.1-.2.4-.3.7l-.5-.7A2.8,2.8,0,0,1,79.6,90.8Z"/><path class="cls-112" d="M115.9,87.1H118A1.2,1.2,0,0,1,115.9,87.1Z"/><path class="cls-112" d="M118,87.2c.1-.1.1-.4.2-.4h.9l-.6.5-.2.2Z"/><path class="cls-83" d="M96.9,146.7c1-1.1,1-1.1,1.7.2Z"/><path class="cls-8" d="M30.6,144.4a1.3,1.3,0,0,1-1.9-.8C29.5,143.4,30.3,143.5,30.6,144.4Z"/><path class="cls-8" d="M28.6,143.5a1.4,1.4,0,0,1-1.8-.8C27.6,142.5,28.3,142.6,28.6,143.5Z"/><path class="cls-113" d="M66.9,127.3H65c.3-.2.6-.6.9-.7S67,126.4,66.9,127.3Z"/><path class="cls-114" d="M41.1,123.6c.8.3.8.8.6,1.5l-.8-1A.4.4,0,0,1,41.1,123.6Z"/><path class="cls-115" d="M111.9,83.8l-.8,1.3h-.8l1.1-1.1C111.5,83.8,111.7,83.7,111.9,83.8Z"/><path class="cls-97" d="M106.1,82.2l.3,1.7h0l-1,.3C105.6,83.4,105.9,82.8,106.1,82.2Z"/><path class="cls-97" d="M100.5,80.3l.9-.2c.1.7.1,1.3.2,2Z"/><path class="cls-116" d="M116,79.3c-.3.4-.4.9-.7,1s-1.1-.2-1.1-1A1.3,1.3,0,0,1,116,79.3Z"/><path class="cls-117" d="M116,79.3h-1.8a.9.9,0,0,1,1.1-.9C115.6,78.5,115.7,79,116,79.3Z"/><path class="cls-112" d="M119.7,84.4c-.6.4-.7,0-.7-.5Z"/><path class="cls-97" d="M104.4,84.2h.9a1.6,1.6,0,0,1-.4.7Z"/><path class="cls-84" d="M60.2,83.2v1c-.1-.3-.3-.5-.3-.8Z"/><path class="cls-115" d="M113.1,82.4l-.9.8Z"/><path class="cls-110" d="M56.3,81.3l-.7,1Z"/><path class="cls-110" d="M53.9,81.3l.7-.8Z"/><path class="cls-97" d="M105.3,79.5l-.9.7Z"/><path class="cls-118" d="M106.4,79.2h-1C105.8,78.4,106.1,78.5,106.4,79.2Z"/><path class="cls-109" d="M91.3,77.5l.7.7Z"/><path class="cls-109" d="M89,76.5h1.2l-1.1.7-.3-.4Z"/><path class="cls-119" d="M89,76.5a2.2,2.2,0,0,0,.1.8h-1Z"/><path class="cls-109" d="M89.9,74.1a14.7,14.7,0,0,0-1,1.3A14.7,14.7,0,0,1,89.9,74.1Z"/><path class="cls-120" d="M44,71.7l1,.9C44,73,43.8,72.5,44,71.7Z"/><path class="cls-109" d="M90.9,71.7H90C90.5,70.9,90.5,70.9,90.9,71.7Z"/><path class="cls-82" d="M112.2,55.2a4.1,4.1,0,0,1,.7,1.1A4.1,4.1,0,0,0,112.2,55.2Z"/><path class="cls-82" d="M108.3,55.3l.9-.9Z"/><path class="cls-121" d="M92.8,147.2a5.3,5.3,0,0,0,.1,1.3H92c.1-.4.1-.8.2-1.2A.5.5,0,0,1,92.8,147.2Z"/><path class="cls-121" d="M92.1,147.3a9.4,9.4,0,0,0-1-1Z"/><path class="cls-121" d="M89.2,146.5l.7,1.3Z"/><path class="cls-87" d="M105.6,115.9l.8-.9Z"/><path class="cls-121" d="M89.1,144.7a3.7,3.7,0,0,0-.1,1.1l-.8-.2Z"/><path class="cls-121" d="M90,143.5l-.9,1.1c.1-.5.1-.9.2-1.4A.9.9,0,0,1,90,143.5Z"/><path class="cls-58" d="M89,104.9a8.3,8.3,0,0,0-.7,1.3A8.3,8.3,0,0,1,89,104.9Z"/><path class="cls-95" d="M108.5,103.4l.7.9Z"/><path class="cls-95" d="M111.3,101.9l.6-1.4Z"/><path class="cls-95" d="M113.2,94.9c.1-.4.3-.7.4-1.1S113.3,94.5,113.2,94.9Z"/><path class="cls-99" d="M46.2,92.7l-1.2-1Z"/><path class="cls-112" d="M115,86.1l.9,1C115.2,87.1,114.9,86.7,115,86.1Z"/><path class="cls-122" d="M130.4,131.2c-1.3,0-2.7-.1-2.9,1.7s-.2,1.7-1.2,1.7-1.1-.5-1.7-.7h-.5c-1.3,2.6-.3,6.1-3.3,7.9a2.5,2.5,0,0,1-.5-1.9,3.4,3.4,0,0,1,.4-2h-.1c1.2-.9.4-2.3,1.1-3.2l.4-1.8.5-.9c.2-1,.5-2,.8-3,2.4-3,2.6-6.6,2.5-10.3.2-.9.5-1.9.7-2.9a13.4,13.4,0,0,1,.9,2.6c.1,1.7,0,3.5,0,5.4l3.8-1.2c-1.5,3-.3,5.5,1.7,8.3Z"/><path class="cls-25" d="M138.1,87c-.4.9-.8,1.7-1.1,2.6a5.8,5.8,0,0,0-.7,2.1c0,.9.7,2.1-.5,2.5s-1.8-.3-2.7-.4-1.7-1.1-1.9-2.3l1.2-8.3h1.9c2.1.1,2.1.1,2.8,2.2A5.4,5.4,0,0,0,138.1,87Z"/><path class="cls-123" d="M125.9,118.7c1.6,3.8.2,7.2-1.4,10.6l-1.1-.3C124.2,125.6,125.1,122.2,125.9,118.7Z"/><path class="cls-124" d="M121.7,134.7c0,1.2.3,2.4-1.1,3.2C121,136.8,121.3,135.7,121.7,134.7Z"/><path class="cls-125" d="M117.1,147.4c.2.2.5.4.5.7s-.1.5-.1.7l-.8-.4Z"/><path class="cls-126" d="M120.8,139.8v1.9l-1.1-.9c.1-.3.1-.6.2-1S120.5,139.4,120.8,139.8Z"/><path class="cls-124" d="M120.8,139.8h-.9c.3-.6.5-1.3.8-2S120.8,139.1,120.8,139.8Z"/><path class="cls-8" d="M31.5,147.3l-1.2-.6Z"/><path class="cls-8" d="M29.5,146.4l-1.2-.6Z"/><path class="cls-27" d="M122.6,132l-.5.9Z"/><path class="cls-13" d="M137.1,100.5a4.7,4.7,0,0,1,1-1A4.7,4.7,0,0,0,137.1,100.5Z"/><path class="cls-127" d="M31.8,112c-.2-.3-.7-.7-1-1.2a1.6,1.6,0,0,1,.4-2.1,2.4,2.4,0,0,1,3.1.1,1.1,1.1,0,0,1,.5.8C34.7,110.5,33.1,111.9,31.8,112Z"/><path class="cls-1" d="M64.1,26a17.3,17.3,0,0,1-1.7,7.2c-.5,1.4-1.5,1.3-2.7.6C60.5,31.1,61.9,28.9,64.1,26Z"/><path class="cls-128" d="M45.7,95v.3H45l.3-.3C45.4,94.8,45.5,95,45.7,95Z"/><path class="cls-129" d="M69.7,135.9c0,.8-.4,1-1.1.8a2.5,2.5,0,0,1,.2-.7A.6.6,0,0,1,69.7,135.9Z"/><path class="cls-130" d="M69.7,135.9h-.9a1.8,1.8,0,0,1,.5-.7Z"/><path class="cls-131" d="M85.6,93.2c.6.6,1.1,1,1,1.1a5.7,5.7,0,0,1-1.1,1.1c0,.1-.6-.3-.5-.5A12,12,0,0,1,85.6,93.2Z"/><polygon class="cls-132" points="91.4 114.4 91.6 114.3 91.6 114.5 91.4 114.4"/><path class="cls-97" d="M100.3,78.4l-.6,1.1Z"/><path class="cls-133" d="M72,106.2l-1-.4,1.2-1.2c.1.2.5.5.4.6A3.3,3.3,0,0,1,72,106.2Z"/><path class="cls-109" d="M92.7,74.6v1.8C92,75.8,91.8,75.2,92.7,74.6Z"/><path class="cls-109" d="M93.7,73.6l-.7.7Z"/><path class="cls-1" d="M35.7,88.1h.1c1.6.6.9,1.7.6,2.7l-3,.4c-1.2-1.7-1-2.2.7-2.5Z"/><path class="cls-54" d="M36.4,90.8l-.6-2.7C37.6,89.1,37.6,89.1,36.4,90.8Z"/><path class="cls-134" d="M35.3,93.5l-.3-.3.3-.2.4.3Z"/><polygon class="cls-1" points="43.4 59.6 43.7 59.5 43.6 59.8 43.4 59.6"/><path class="cls-135" d="M64.9,67.9l-.7.6A.9.9,0,0,1,64.9,67.9Z"/><path class="cls-32" d="M62.3,81.3,62,83.8a13,13,0,0,1-.8-1.7,1.1,1.1,0,0,1,.1-.8Z"/><path class="cls-136" d="M79.8,133.5c.2-.1.4-.1.5.1H80Z"/></g></g></svg>