<svg xmlns="http://www.w3.org/2000/svg" viewBox="0 0 282.7 330.6"><defs><style>.cls-1{fill:#020202;}.cls-2{fill:#fefefe;}.cls-3{fill:#73aaa1;}.cls-4{fill:#030202;}.cls-5{fill:#050505;}.cls-6{fill:#040303;}.cls-7{fill:#fff;}.cls-8{fill:#74aba2;}.cls-9{fill:#090505;}.cls-10{fill:#080707;}.cls-11{fill:#cfe4e1;}.cls-12{fill:#060505;}.cls-13{fill:#c9e0de;}.cls-14{fill:#0c0a0a;}.cls-15{fill:#0a0909;}.cls-16{fill:#080606;}.cls-17{fill:#0b0b0b;}.cls-18{fill:#070707;}.cls-19{fill:#0c0b0b;}.cls-20{fill:#0d0c0c;}.cls-21{fill:#0a0808;}.cls-22{fill:#0d0b0b;}.cls-23{fill:#a1cac5;}.cls-24{fill:#95bfb9;}.cls-25{fill:#0f0e0e;}.cls-26{fill:#0b0a0a;}.cls-27{fill:#0f0d0d;}.cls-28{fill:#110e0e;}.cls-29{fill:#0b0909;}.cls-30{fill:#c0dbd8;}.cls-31{fill:#96c4be;}.cls-32{fill:#0e0e0e;}.cls-33{fill:#0e0c0c;}.cls-34{fill:#100f0f;}.cls-35{fill:#100e0e;}.cls-36{fill:#181616;}.cls-37{fill:#100d0d;}.cls-38{fill:#d4e5e2;}.cls-39{fill:#141212;}.cls-40{fill:#151111;}.cls-41{fill:#110f0f;}.cls-42{fill:#161414;}.cls-43{fill:#121010;}.cls-44{fill:#c4dcd9;}.cls-45{fill:#111010;}.cls-46{fill:#171212;}.cls-47{fill:#1d1818;}.cls-48{fill:#e9eaea;}.cls-49{fill:#161111;}.cls-50{fill:#141313;}.cls-51{fill:#170d0d;}.cls-52{fill:#1a1a1a;}.cls-53{fill:#171515;}.cls-54{fill:#150d0d;}.cls-55{fill:#1e1b1b;}.cls-56{fill:#222020;}.cls-57{fill:#1d1717;}.cls-58{fill:#231717;}.cls-59{fill:#8fb7b0;}.cls-60{fill:#201a1a;}.cls-61{fill:#221e1e;}.cls-62{fill:#1c1919;}.cls-63{fill:#202020;}.cls-64{fill:#231e1e;}.cls-65{fill:#1f1414;}.cls-66{fill:#ced5d5;}.cls-67{fill:#333;}.cls-68{fill:#dcdcdc;}.cls-69{fill:#271c1c;}.cls-70{fill:#c9d2d2;}.cls-71{fill:#383232;}.cls-72{fill:#edecec;}.cls-73{fill:#2e2d2d;}.cls-74{fill:#404040;}.cls-75{fill:#d7e5e5;}.cls-76{fill:#424040;}.cls-77{fill:#b7b2b2;}.cls-78{fill:#a3c8c3;}.cls-79{fill:#bfc9c9;}.cls-80{fill:#373636;}.cls-81{fill:#403a3a;}.cls-82{fill:#b4afaf;}.cls-83{fill:#636c6c;}.cls-84{fill:#abcfca;}.cls-85{fill:#dedede;}.cls-86{fill:#180909;}.cls-87{fill:#bfb5b4;}.cls-88{fill:#160202;}.cls-89{fill:#211c1c;}.cls-90{fill:#171c1c;}.cls-91{fill:#0d0e0e;}.cls-92{fill:#0e0909;}.cls-93{fill:#3a4f4f;}.cls-94{fill:#d9dbdb;}.cls-95{fill:#191313;}.cls-96{fill:#c8d5d5;}.cls-97{fill:#e6dfdf;}.cls-98{fill:#bdd9d5;}.cls-99{fill:#423d3d;}.cls-100{fill:#c1dbd7;}.cls-101{fill:#92bbb5;}.cls-102{fill:#add0ca;}.cls-103{fill:#bcd7d4;}.cls-104{fill:#93bcb4;}.cls-105{fill:#73aba2;}.cls-106{fill:#73aaa2;}.cls-107{fill:#77ada4;}.cls-108{fill:#9cc3bd;}.cls-109{fill:#91bbb4;}.cls-110{fill:#9dc3bd;}.cls-111{fill:#92bbb4;}.cls-112{fill:#a7ccc8;}.cls-113{fill:#bdd7d4;}.cls-114{fill:#bedcd8;}.cls-115{fill:#588d87;}.cls-116{fill:#f2f8f8;}.cls-117{fill:#e1eceb;}.cls-118{fill:#fbfdfd;}.cls-119{fill:#8ab5ae;}.cls-120{fill:#b4d2ce;}.cls-121{fill:#82aca5;}.cls-122{fill:#a3c2bc;}.cls-123{fill:#a2c2bd;}.cls-124{fill:#4e6161;}.cls-125{fill:#5c706e;}.cls-126{fill:#634444;}.cls-127{fill:#234c4c;}.cls-128{fill:#c0dad6;}.cls-129{fill:#b7d5d0;}.cls-130{fill:#a9ccc6;}.cls-131{fill:#90b9b2;}.cls-132{fill:#b5d4d0;}.cls-133{fill:#f2f4f4;}.cls-134{fill:#969e9e;}.cls-135{fill:#86aea8;}.cls-136{fill:#726f6d;}.cls-137{fill:#85b2ab;}.cls-138{fill:#6b7878;}.cls-139{fill:#c6dedc;}.cls-140{fill:#c7dfdc;}.cls-141{fill:#accfc9;}.cls-142{fill:#d1e2dd;}.cls-143{fill:#d7dddd;}.cls-144{fill:#575a5a;}.cls-145{fill:#c2c7c7;}.cls-146{fill:#c5d1d1;}.cls-147{fill:#867e7e;}.cls-148{fill:#5e7070;}.cls-149{fill:#dce3e3;}.cls-150{fill:#d0d3d3;}.cls-151{fill:#c3cdcd;}.cls-152{fill:#eff2f2;}.cls-153{fill:#b5b5b5;}.cls-154{fill:#130f0f;}.cls-155{fill:#c5cbcb;}.cls-156{fill:#eff1f1;}.cls-157{fill:#a8a5a5;}.cls-158{fill:#e0e5e5;}.cls-159{fill:#d3d8d8;}.cls-160{fill:#e7eded;}.cls-161{fill:#d8e0e0;}.cls-162{fill:#8dd5d5;}.cls-163{fill:#f3eaea;}.cls-164{fill:#dbe1e1;}.cls-165{fill:#3f4141;}.cls-166{fill:#f6f9f9;}.cls-167{fill:#c5afaf;}.cls-168{fill:#b3c5c5;}.cls-169{fill:#dee1e1;}.cls-170{fill:#171616;}.cls-171{fill:#d5dbdb;}.cls-172{fill:#111;}.cls-173{fill:#b3d4cf;}.cls-174{fill:#b9d7d2;}.cls-175{fill:#afd0cb;}.cls-176{fill:#b7d6d1;}.cls-177{fill:#b8d6d2;}.cls-178{fill:#221f1f;}.cls-179{fill:#b3d3ce;}.cls-180{fill:#1c2a2a;}.cls-181{fill:#3c2020;}.cls-182{fill:#050202;}.cls-183{fill:#2b2a2a;}.cls-184{fill:#191717;}.cls-185{fill:#d6d2d2;}.cls-186{fill:#423434;}.cls-187{fill:#593939;}.cls-188{fill:#a4c9c4;}.cls-189{fill:#b2d1cc;}.cls-190{fill:#a1c8c2;}.cls-191{fill:#b5d3ce;}.cls-192{fill:#eff8f8;}.cls-193{fill:#e5f4f3;}.cls-194{fill:#98c2bb;}.cls-195{fill:#dee4e4;}.cls-196{fill:#e5eaea;}.cls-197{fill:#b4b7b7;}.cls-198{fill:#939191;}</style></defs><title>marque-deposee</title><g id="Layer_2" data-name="Layer 2"><g id="marquedeposee"><path class="cls-1" d="M180.8,6.8h2.9c5.6-1.3,11.3.4,16.8-.9h3.4c7.7-.5,15.4-.9,23.1-1.8h.1a4.5,4.5,0,0,1,3.1-1.4c9.4-.1,18.8-.2,28.2,0a4,4,0,0,1,1.5.3c5.2,1.4,8.4,4.5,8.9,10.1.1.4.3.9.4,1.4s.2,3,.3,4.5v2.5c.1,13.3,0,26.7.1,40s-.1,24.5-.1,36.7a20.7,20.7,0,0,0,.6,6.1c.7,3.3.3,6.6.4,9.8v27.4a17.6,17.6,0,0,0,.7,5.6c.7,11.8.5,23.5.1,35.2-1.3,8.8-6.2,13.2-15.1,14.3-5.6.7-11.1,2.5-16.8,2.9-1.6.1-3.2.4-4.7-.4a2.7,2.7,0,0,1-1.2-.9,2,2,0,0,1,.1-2.2h.1l.8-.8,23.1-3.9,2.8-.6a6.4,6.4,0,0,0,5.5-4.8,30.6,30.6,0,0,0,1.5-7.9c.1-4.6-.4-9.3-.6-13.9,0-1.1-.2-2.2-.3-3.3-.4-13.9-.9-27.8-1.3-41.7-.4-15.5-.8-31-.9-46.5s.5-28.2.6-42.2c.1-4.6.6-9.3-.4-13.9-2.6-7.2-3.9-8.4-11.8-8.1-13.5.4-27.1.6-40.5,2.2-9.8,1.2-19.7.9-29.6,1.4a566.9,566.9,0,0,1-58.3.1c-24.6-1.2-49.1-.9-73.7-1.8-3.7-.1-7.7-.4-10.7,2.8a1.4,1.4,0,0,1-2.1.2c-1.1-1.1-.7-2.3,0-3.4h0a6.9,6.9,0,0,1,1.9-1.9h.1c.5-.6,1.3-.4,1.8-.9h.1c1.5-1.2,3.4,0,4.9-.9l1.8-.2c5.4-.5,10.8-1.3,16.3.1H68c11.4,1,22.9.2,34.3.5,2.8.1,5.7-.5,8.4.4h11.1c12.6.7,25.2.3,37.8.4C166.7,7.3,173.7,6.6,180.8,6.8Z"/><path class="cls-2" d="M57.1,302.3a9.7,9.7,0,0,1-1.8-.3c-.9-.4-1.9-.7-2-1.9a2.2,2.2,0,0,1,1.9-2.4c1.3-.3,1.8-1.2,2.5-2.1a4.4,4.4,0,0,1,4.2-1.8H75.2a4.6,4.6,0,0,1,4.2,1.8,12.5,12.5,0,0,0,.8,1.2,4.1,4.1,0,0,0,5.3.4,9.5,9.5,0,0,0,2-2,3.1,3.1,0,0,1,2.8-1.4c2.1,0,4.1-.1,6.2,0s2.6.5,2.7,2.5a31.2,31.2,0,0,1-.1,4.3,2.8,2.8,0,0,1-1.3-.3c-5.3-3.8-8.2-3.6-12.8.8s-5.5,10.8-3.7,15,6.8,6.4,11.3,3,5.2-6.6,5.4-11.1c.2-2.5-.6-5.2,1.1-7.4l2.2.7a1.3,1.3,0,0,0,1.6-1.3,24.5,24.5,0,0,0,.2-2.7c.2-2.7.6-3.1,3.3-3.5a6.5,6.5,0,0,1,1.4,0l.3.6c-.2,1.8-1.7,3-2.3,4.7a8.7,8.7,0,0,0,3.2,10.1,25.9,25.9,0,0,1,4.2,3.2,5.3,5.3,0,0,1-.4,8c-2.4,2-5.1,1.4-7.3-1.6-.5-.7-.6-1.8-1.6-2.2-2.5,3.5-1.4,7,2.5,8.4,6.5,2.3,12.7-3.3,11.5-10.7-.3-2.2-1.5-4.2-1.8-6.4a2.3,2.3,0,0,1,.6-1.2c4.8-.6,4.1-4.7,5.1-7.8a1,1,0,0,0,.5-.4c1.1,1.1,2,2.4,3.8,2l.5.4c1.2,4.8,3.4,8.9,7.7,11.6a10.1,10.1,0,0,1,3.4,4,5.2,5.2,0,0,1-1,5.8,4.2,4.2,0,0,1-5.1,1.5c-2.2-.7-3.5-2.1-3.4-4.6s.7-3.4-1.5-3.3-1.8,2.2-1.6,3.8c.4,3.5,3.4,6.8,6.7,7.2s6.1-1.4,7.8-4.4c2.5-4.7,1.6-9.7-2.4-13.5-1.5-1.4-3.5-2.4-4.6-4.2s-.4-6,2-7,3.7.9,4.6,2.8.1,3.8,2.3,3.6,1.3-2.9,2.4-4.3l.5-.4c1.7,2.7,1.7,2.7,4.7,1.9l.5.5c.7,5.2-.5,10.3-.2,15.5.2,3.4,1.2,5.3,5,4.8l.5.4c-.3,2.1-1.7,3.6-3.1,5.1-2.2-.5-3.1-2.6-4.9-3.7s-.6-1.1-.6-1.7.2-3.5.4-5.2.5-3.8.5-5.7-1.5-2.7-3.3-1.9a1.4,1.4,0,0,0-.6,2.3c.4.5,1.2.8,1.4,1.3s.7,2,.4,2.7c-1.3,3.4-2.9,6.7-4.3,10a4,4,0,0,1-3.1,2.7,6.3,6.3,0,0,0-2.3.8c-2.3,1.1-4.5,2.4-6.6-.4-.2-.3-1.1-.1-1.7-.1-3.5.1-4.8-1.2-4.5-4.8a2.6,2.6,0,0,0-.6-2.1c-1-1.1-2.1-1.2-2.7,0s-1.6,3.8-2.5,5.7a2.1,2.1,0,0,1-2.1,1.3c-2.7.3-5.3-.7-8-.3s-5.5-1.7-6.5-5.1-2-3.3-4.6-2.7a2.1,2.1,0,0,0-1.9,2.3c0,1.7-.2,1.7-1.7,1.6l-6.6-.2a4,4,0,0,1-4-2.3c-1.2-2.5-3.5-4.6-3.4-7.7a1.5,1.5,0,0,0-1.6-1.4H73.5c-3.3-.2-4.5,1.4-3.8,4.9.1.8.5,1.5.6,2.3a4,4,0,0,1-2.7,4.4c-3.7,1.4-6.7.9-9.2-1.7-.8-.8-1.1-1.4-.3-2.4a3.5,3.5,0,0,0,.6-2.6c-.4-1.6-1.9-2.8-1-4.9s-.4-3.2,0-5.1-.4-3.7-.6-5.6c3,.9,2.8,3.6,2.9,5.9.3,3.8,1,7.5,1.3,11.3.2,2,1.4,3.3,3.5,3.1a2.5,2.5,0,0,0,2.3-3.1c-2.3-7.3,2.8-10.1,7.7-13,1.2-.9,2.5-1.5,3.3-2.9s.3-.7.5-1a3.1,3.1,0,0,0-.8-3.3C70.3,293.4,61.8,294.7,57.1,302.3Z"/><path class="cls-1" d="M231.4,172.2c1.7,1.6,1.3,3.7.9,5.7a47.2,47.2,0,0,1-3.9,12.6l-1.5,3.4c-.9,4-3.8,6.8-6.1,10s-4.9,5.6-8.5,7h-.1c-4.7,5-4.7,5-.1,10.9.8,1,2,2,1.1,3.6h.1c-.6,2-2,2.7-4,2.6-9.9-.3-19.8.6-29.7.4-5.2,0-6.3-2.6-3.4-7.4s4.4-8.1,5.7-12.6a10.7,10.7,0,0,0,1.7-5.2V202a5.9,5.9,0,0,1,.2-1.3l.3-1.2a9.6,9.6,0,0,1,1.4-2.1l1.2-.4a3.1,3.1,0,0,1,1.9.3c1.3.8,1.2,2.2,1.6,3.4l2.2,2.8c1,.8.6,3.1,2.7,2.8h.1a1.8,1.8,0,0,0,.8-.9c2.3-3.4,4.8-6.8,7-10.3,3.3-5.3,4.5-11.2,4.7-17.3,0-1.6-.1-3.2,0-4.8a1.9,1.9,0,0,1,1.9-1.8,1.7,1.7,0,0,1,2.1,1.5,30.7,30.7,0,0,1,.7,4.2c.1,2.7,0,5.4,0,8.2s0,5.6-1.6,8c-.4.8-.8,1.4-1.2,2.1a2.4,2.4,0,0,1-.6.9l-.6.9-.4.4-.7,1.5a4.7,4.7,0,0,0-.5,1c-.8,1.3-1.7,2.4-2.5,3.6a44.4,44.4,0,0,1-4.1,6.2c-2.1,2.6-4.5,3.9-7.8,2.5-1.4-.2-2.3-2.3-4.1-.9a7.8,7.8,0,0,0-1.1,2,26.4,26.4,0,0,0-1.8,3.8l-.6,1.2c-.5,1.1-1.9,2.1-1.2,3.4s2.3.6,3.5.4c3.6-.8,7.2-.4,10.8-.6,1.5,0,3.2.6,4.3-.9a3.6,3.6,0,0,0-.6-2l-.6-.9c-.5-.6-1.1-1-1.7-1.6a3.4,3.4,0,0,1-.8-1.7c0-1.9,1.3-2.7,2.8-3.2,3-1.1,5.3-3.2,7.6-5.3a63.1,63.1,0,0,0,13.4-15.3,20.6,20.6,0,0,0,2.1-4.2,48.6,48.6,0,0,0,3.2-10C227.9,174.1,229,172.5,231.4,172.2Z"/><path class="cls-3" d="M180,302.4a.8.8,0,0,0,0-.7c.7-1.8.4-3.7.8-5.6a7.1,7.1,0,0,1,3.7-4.7c3.3-1.7,5.8-.1,5.5,3.5s-.3,7.3-.8,10.9.8,6.2.9,9.4,2.5,2.6,4.8,2.2,4.5-.5,3.4,3a11.7,11.7,0,0,1-1.5,2.7,22.2,22.2,0,0,1-8.7,3.5c-6.9,1.1-6.9,1.1-9-5.4-9.1,7.3-12.6,7.4-17.3.3h0c-4.7-6-4.8-13-4.1-20.1.5-5.6,4.2-10,8.2-10.5a8.3,8.3,0,0,1,9.2,7.6c.3,6.1.3,6.1,4.4,10.6C178.1,307.1,178.3,304.7,180,302.4Z"/><path class="cls-4" d="M42.6,19.3c1.6.3,3.1.4,4.7.8a8,8,0,0,1,6.3,6.4,50.4,50.4,0,0,1,1.1,5.6,11.2,11.2,0,0,1-2.6,8,31,31,0,0,1-13.3,9.6,12.9,12.9,0,0,1-10.2.1c-5.7-2.4-6.3-7-5.5-12.3,2.3-1.4,3,.6,4.2,1.8,3.1,2.9,6.7,1.6,10.2,1.2a19.2,19.2,0,0,0,3.1-1.1,11.2,11.2,0,0,0,5.9-9.3c.3-3.5-1.3-4.9-4.5-3.4s-7.7.8-10.8-2.3A25.9,25.9,0,0,0,27,20.5a8.6,8.6,0,0,1-3.9-7.2c-.2-4.3-2.9-5.7-6.7-3.4s-4.5,5.2-4.2,9a3.2,3.2,0,0,0,1.2,2.5,4.2,4.2,0,0,0,2.9.2l1.3-.2c4.5.7,6.4,4.9,10,7l.9.8,1,.9a1,1,0,0,0,.4.5,3.7,3.7,0,0,1,.8,1.8,2.9,2.9,0,0,1-1.9,2.7,4.8,4.8,0,0,1-3.5-.8,10.9,10.9,0,0,1-3-2.3c-2.6-2.9-5-5.3-9.7-4.9s-6.2-3.8-6-7.7c.1-1.9-.7-4,.7-5.9H7.2c.5-1.4.6-2.9,2-3.9h0A6.2,6.2,0,0,1,13,6h0c.3-.9,1.3-.6,1.8-1h.1c.7-1,2-.2,2.9-.9a.5.5,0,0,0,.8-.2c1.6-.7,3.2-1,4.8.1l.2.2H24c1.7.4,3.6.6,4,3h-.1a4.8,4.8,0,0,1,.1,5.5h0c-1.4,3.8,2.2,5,3.9,7.1a1.3,1.3,0,0,1,1,.9h0a3.9,3.9,0,0,1,1,.8H34c1.9,1.2,3.9,1.7,5.9.2l-.2-.2.2.2a1.1,1.1,0,0,1,1-1l-.2-.2.2.2C41.1,19.5,42.1,19.8,42.6,19.3Z"/><path class="cls-5" d="M16.6,114.8c.1,6.6,0,13.3.3,20,.4,8.7,1,17.4,1.5,26.2l1.2,20.9c.2,3.5.9,6.9.9,10.4s.8,3.2,3.5,3.4l3.4.2c1.4.9,1.8,2,.5,3.4-6.4,1.5-8.4.6-11.2-4.8a213.9,213.9,0,0,1-3.4-36.6,54.7,54.7,0,0,0-.8-9,127.5,127.5,0,0,0-1.1-17.5c.9-10.9-1.1-21.7-1-32.6-.1-18.1,1-36.2-.9-54.3-.2-2.8,0-5.5,1.7-7.9h-.1c.7-1.9,1.9-2.2,3.6-1h-.1c1.9,8.2,1.2,16.5,1.5,24.7.4,16.4,0,32.8.1,49.2C16.2,111.3,15.9,113.1,16.6,114.8Z"/><path class="cls-6" d="M38.8,201.7a27.5,27.5,0,0,1,1.7-2.9,14,14,0,0,1,3.2-2.8,16.1,16.1,0,0,1,13.9.3c2.5,1.2,3.2,3.8,2.4,6.5a12,12,0,0,1-3.5,5.1c-.5.5-1.2,1.3-1.2,1.9.1,3.8,0,7.6,1,11.8.8-.8,1.6-1.2,1.8-1.9a46.6,46.6,0,0,0,1.6-4.9,7.7,7.7,0,0,1,.6-2.3,1.6,1.6,0,0,1,1.4-.9,1.9,1.9,0,0,1,1.4,1.1,9.3,9.3,0,0,1,.2,2.4c.1,1.3,0,2.5.1,3.8s.1,1.8,1.1,1.7a2.4,2.4,0,0,0,1.7-1.4,24.7,24.7,0,0,0,1.1-4.7,4.7,4.7,0,0,1,1.8-3.2c2.3.7,2.7,2.5,2.3,4.5s-.8,3-.1,4.5l-.2.3.2.2c.9,1.7,1,3.4-.5,4.7s-2.6-.7-3.3-.6c-3.3.5-6.5-1.9-9.8.1a3.1,3.1,0,0,1-4.3-.6v0c-3-3-1.6-7.5-3.7-11.6-1.7,3.2-.8,6.1-1.3,8.8s-.3,3.8-2.8,3.6-2.5-2.1-2.5-4a12.3,12.3,0,0,0-.4-4.7V216a2.7,2.7,0,0,1-.5-2.7c.7-3.5-.8-5.6-3.9-6.9C37.5,204.7,37.4,203.1,38.8,201.7Z"/><path class="cls-2" d="M161.8,321.5a13,13,0,0,1,1.8,1.5c1.1,1.3,2.1,2.7,4.2,2.7s4.8-.1,6.7-1.9l3.7-3.8c.6-.5,1.1-1.1,1.6-1.6s.9,2.1,1,3.1a26.4,26.4,0,0,1,.2,2.8,2.5,2.5,0,0,0,2.7,2.2,69.3,69.3,0,0,0,7.9-1.7c1.7-.4,3.5-.6,4.6-2.2s.4-1.4.9-1.9l.3-.4c.4-.8.7-1.6,0-2.2a2.3,2.3,0,0,0-1.8-.3c-1.5.4-3,1-4.5,1.5s-1.6-.1-1.6-1.1c-.3-6.7-.6-13.3-.8-20a12.8,12.8,0,0,1,.6-3.3,2.8,2.8,0,0,0-.9-3c-.8-.7-2.2-.6-3.5.4a8.7,8.7,0,0,0-3.5,4.9c-.5,1.5-1,3-1.4,4.5-.1-3.2-.4-6.3.8-9.4a3.4,3.4,0,0,1,3.2-2.4c2.4,0,4.9-.2,6.9,1.3s.9,1.3.7,1.5a4,4,0,0,0-.3,3.2,5.6,5.6,0,0,1-.5,2.8,5.8,5.8,0,0,0-.5,4.1,3.9,3.9,0,0,1,.1,2.4c-1,2.5-.4,4.9,0,7.4s1,3.8,4.1,4.2l1.6-.2c.3-1.9.6-3.6.8-5.3s.6-6-.3-9-.6-2.9,2.6-4.6c2.1,4.5-.4,9.4,1,14,.5,1.3.3,2.8.5,4.3,1.3,8,6.3,8.4,13.3,6.2,1-.3,2.3-.9,1.8-2.3s-1.8-1-2.9-1a19.7,19.7,0,0,1-4.2.2c-2.1-.3-3-1.7-3.5-3.5a3,3,0,0,1,2.1-3.8c2.6-.8,4.1-2.9,6.1-4.5.3.4.8.7.9,1,.1,3.6,2,6.3,3.9,9s1.2,5.7-1.5,6.9l-9.2,3.7a2.7,2.7,0,0,1-3.1-.5l-.3-.3c-1.3-1.2-2.4-2.6-4.4-2.6s-5.5.2-7.7,2-2.3,1.5-3.9,1-1.9.3-2.8.5l-3.8,1.1-1.4-2.5c-.8-1.5-1.5-1.8-2.9-1a3.7,3.7,0,0,0-1.3,1.2c-.8,1-1.6,1.6-2.9,1a4,4,0,0,0-3.7.1c-1.6.7-2.8,0-3.9-1l-2.5-2.2C161.4,323.7,161.4,323.7,161.8,321.5Z"/><path class="cls-7" d="M274.9,14.4c1.4,0,2,.9,2.4,2a7.9,7.9,0,0,0,2.3,3.5,5.5,5.5,0,0,1,2,4.7,8.8,8.8,0,0,0,.1,2.8c.7,2.7-2.6,4.8-1.3,7.3s1.1,4.6,1.3,7a44.6,44.6,0,0,1-.9,13.6,13.6,13.6,0,0,0,.8,8.4,6.7,6.7,0,0,1,0,6,8.5,8.5,0,0,0-.3,5,28.6,28.6,0,0,1-.2,10.9,38.6,38.6,0,0,0-1,7.5,28.2,28.2,0,0,0,.9,7.1,21.4,21.4,0,0,1,.6,5.6c.1,3.7-.4,7.4.9,10.9a4.1,4.1,0,0,1,.1,1.9,37.2,37.2,0,0,0-.8,5.7,37.8,37.8,0,0,0,.8,5.6c.5,3.5-1,6.9-1.2,10.4-.1.9-1.1,1.8-1.7,2.8-2.2-2.1-2.2-4.8-2.1-7.5.6-11.7,0-23.3-.1-34.9a14.2,14.2,0,0,0-.7-4.2,79.2,79.2,0,0,1,0-15.4c.5-6,2-12.1,0-18.2a6.2,6.2,0,0,1,.1-3.3c1-5.7.6-11.3.2-17s0-12.2-.3-18.4c0-1.5-.9-2.6-1.5-3.8S273.3,16.5,274.9,14.4Z"/><path class="cls-8" d="M213.4,307.3c-.1,2.8-1.6,4.4-4.2,5.1l-2.3.6a1.6,1.6,0,0,0-.8.5c-.5,1.4.3,2.5.8,3.6a1.5,1.5,0,0,0,1.9,1l5.7-.8a3,3,0,0,1,3.6,2c.4,1.1-.1,2.3-1.5,3.2s-5.5,2.2-8.6,2.2c-5-.1-6.5-1.1-7.9-5.8a41.8,41.8,0,0,1-1-5.1c-.1-.3,0-.6-.1-.9-.9-5.1-.3-10.2.2-15.2h-.1c.9-.8,0-2.2,1.1-2.9h-.1c1.1-1.3,2.8-.1,4-1a.6.6,0,0,0,.7-.1c2-1.5,4.5-1.7,6.7-2.4s3.3-.2,4.1,1.5a3.7,3.7,0,0,1-.9,4.4c-1.6,1.6-3.8,2.3-5.9,3s-3,1-2.9,2.7,2.1,1.5,3.4,1.4,3.8.4,4.1,2.9Z"/><path class="cls-2" d="M37.8,9.7a24,24,0,0,0-.3,2.8c0,.2.6.4,1,.6s.3-.1.4-.2c1.7-2.8,4.5-3.2,7.5-3.3a155.1,155.1,0,0,1,16.7-.1c10.1.6,20.1.8,30.2,1.1,11.7.3,23.3.6,35,.7,19.6.4,39.3.5,58.9-.4L214,9.6c4.6-.3,9.3-.7,13.9-1.3,9.2-1,18.5-.6,27.7-.7,2.4,0,4.7.4,6.6,2.4s2.9,3.7,2.3,6.3a12,12,0,0,1-1.9-2.7,6.6,6.6,0,0,0-6-4.7c-3.6-.4-7.3,0-11,.1l-5.2.6-4.7.4a6.1,6.1,0,0,1-1.9.1,39.4,39.4,0,0,0-13.7.2c-3.1.6-6.3.5-9.4,1.5-1,.3-2.2-.2-3.3-.2-5-.1-10-.7-14.9.1-8.3,1.2-16.5.5-24.8.8a14.5,14.5,0,0,0-2.9.4l-4.2.5c-3.5.3-6.9-.1-10.5.6s-4.9-.6-7.4-.9a26.3,26.3,0,0,0-4.8-.6H121.1a23.9,23.9,0,0,1-7.5-.7,12.3,12.3,0,0,0-4.3-.3H70.9c-2.4,0-4.8.2-7.1-.7a9.5,9.5,0,0,0-3.4-.2c-2.7,0-5.4.1-8.1-.1s-6,.8-9,1.1a4.7,4.7,0,0,0-1.6,1c-.7.5-1.3,1.3-2.1,1.8s-2.2,1.4-3,.4-.6-2-.6-3.1A2.5,2.5,0,0,1,37.8,9.7Z"/><path class="cls-6" d="M44.3,112.5c2.1-1.8,4.7-1.8,7.2-1.9s5.1-.1,8-.1c-.4-1.4-.8-2.6-1-3.7a1.8,1.8,0,0,1,2.2-2.2l1.7.8,10.5,5.8,2,1.2a2.6,2.6,0,0,1,.7,3.8l-.9,1.1L65,128.6c-1.1,1.3-2.3,3-4.3,1.9s-1.2-2.7-1.1-4.3l.3-2.3c.1-1.7-.2-2.1-1.8-2l-5.2.6-8.1.3c-2.1-3.2.6-4.1,2.6-4.5,5-1,10.1-2.2,15.2-1.2a3.6,3.6,0,0,1,2,1.1,2.9,2.9,0,0,1,.7,1.8,5.9,5.9,0,0,1-.2,1.3.5.5,0,0,0,.5-.3c.1-.3.3-.5.4-.8a3.5,3.5,0,0,1,.5-.8l.6-.8.4-.3.7-.9c.2-.1.3-.3.4-.4s.8-1.3.1-1.9l-1-.6-1.8-.6c-5.8,2.8-11.9,1.5-18,1.5C46.3,115.4,43.9,115.6,44.3,112.5Z"/><path class="cls-9" d="M102,198.8a1.1,1.1,0,0,1,.8-1.8c2-.3,4.1-.4,6.2-.6l40.5-3.7c5.3-.4,10.5-.5,15.8-.7l27.3-1h4.8c1.4.1,1.6,1,.8,2.8-8.7.9-17.4,2.8-26.3,2.4s-19,1-28.5,1.6-22,1.9-33.1,2.2C107.5,200.2,104.6,200.3,102,198.8Z"/><path class="cls-2" d="M180,302.4v8.1a45.2,45.2,0,0,0-3.7-2.8c-1.2-.8-2.5-1.4-4-2.2.5-1.2,1.1-2.3,1.5-3.5a8.1,8.1,0,0,0-1.6-8c-2.6-3.3-8.1-2.7-10.1.1a15.4,15.4,0,0,0-3.4,8.3c-.3,5.8,0,11.5,2.5,16.8a16.8,16.8,0,0,1,.6,2.4,4.8,4.8,0,0,1-1.1-.9,1.3,1.3,0,0,0-1.9-.4l-3.9,2.3-.2-.3c-2.4-5.2-2-10.8-2-16.2-.1-2.4-.2-4.6-3.4-4.5l-.2-.2c0-3,0-6.1.1-9.1,0-1.4,1.9-3.6,3.2-3.7a1.7,1.7,0,0,1,1.2.6,8.9,8.9,0,0,1,1.4,2.5,2.7,2.7,0,0,0,2.9,2c1.3.1,2.4-.1,2.9-1.7s1.8-2.1,3.4-2.1a46.9,46.9,0,0,0,5.3,0,2.6,2.6,0,0,1,2.9,1.9,2.8,2.8,0,0,0,1.5,1.7c2.1.6,2.1,2.1,2.2,3.7a15.8,15.8,0,0,0,.3,3.8,2.8,2.8,0,0,0,1.3,1.8C178.3,303.1,179.2,302.6,180,302.4Z"/><path class="cls-5" d="M91.7,32.7a35.8,35.8,0,0,1-2.6,2.8,4.3,4.3,0,0,1-2.2.9c-.7.1-2.1-.4-2.2-.1a7.8,7.8,0,0,0-.7,3.1c-.2,1.7-.2,3.5-.4,5.2a6.6,6.6,0,0,1-.9,2.8c-.2.4-1,.6-1.6.6a1.6,1.6,0,0,1-1-.8,8.8,8.8,0,0,1-.2-2.8c.3-4,.7-7.9,1.1-11.9.2-1.8.2-3.4-1.3-4.8s-.3-1.5.2-2.2a2,2,0,0,1,2.6-.5,5,5,0,0,1,2.4,2.9c.5,1.3,1.2,2.5,2,4.3l2.8-3.8,5.5-7.2a2.7,2.7,0,0,1,2.1-.7c1.1.1,1.5,1,1.6,2a9.6,9.6,0,0,1,0,2.4L97.4,44.5a5.1,5.1,0,0,1-.6,2.2,2,2,0,0,1-1.5.9,1.9,1.9,0,0,1-1.6-.9,30.6,30.6,0,0,1-1-4.1c.7-2.6.2-5.2.3-7.7-.3-1,1-2-.2-2.9Z"/><path class="cls-2" d="M11.2,36.6l-.3,7.6c-.7,2-4.4,1.7-3.9,4.7a105.6,105.6,0,0,1,.4,15.9c.9,10.1-1.4,20-1,30,.3,7.7.3,15.4.4,23s.4,15.7-2.5,23.2a19.5,19.5,0,0,1-.6,2.3,7,7,0,0,1-.3,1.4c-1,2.6-.9,5.4-.8,8.1s0,2.6.1,3.9v1.7c-.7,5.1,1.5,10.5-1.4,15.4-1-.8-.9-2-.9-3.1,0-4,0-8-.1-11.9S.1,148.3,0,143.1a4.4,4.4,0,0,1,.6-2.3c2.2-3,2.2-6.5,2.6-9.9a48,48,0,0,0,.5-5.2,3.1,3.1,0,0,0-.1-1.9c-1.2-2.4-.6-4.9-.4-7.4s.1-6.1,0-9.1c0-4.8.2-9.5.1-14.3a23.3,23.3,0,0,1,.4-3.7c.1-.5.5-1.1.3-1.4-1.4-3.5.8-6.9.2-10.4a14.1,14.1,0,0,1,.5-2.7c.2-2.1.7-4.3.3-6.2A15.2,15.2,0,0,1,4.8,63a27.2,27.2,0,0,0-.9-11.7,4.6,4.6,0,0,1-.3-2.8,6.4,6.4,0,0,0-.1-5.1,2.5,2.5,0,0,1,.7-3c1.4-1.4,2.3-3.7,5-2.6C9.7,37.9,10.5,37,11.2,36.6Z"/><path class="cls-2" d="M184.7,201.6v1c-.7,1.9-1,3.9-1.9,5.8a47.4,47.4,0,0,1-6.6,12.6c-1-2.7.7-4.8,2-6.6s1.7-5.3,1.6-8.1-1-1.9-2.4-1.7-3,1.2-4.6.4c-2.5.9-4.7,0-6.9-.8s-4.1-1.1-5.9.4-1.7.4-2.7.2a2.5,2.5,0,0,0-2.1.5c-1.1,1.1-2.2,1-3.5.5a28,28,0,0,1-2.8-.6,5.9,5.9,0,0,0-5.9.4,7.4,7.4,0,0,1-6.5.3l-2.7-.9a4.8,4.8,0,0,0-3.7-.1c-2.3,1-3.9.5-5.2-1.7s-4.9-2.1-6.6-1.3c-.1.1-.3.1-.4.3s-1.3,2.3-2.4,2.7-2.4-.3-3.6-.2-2.8.6-4.2.7a2.3,2.3,0,0,1-2.5-1.9c0-2.2-1.6-2.8-3.1-3.6,1.1-1.2,2.6-.4,4-.7s2.3,2.8,4.4,1.5c5.6-.2,11.2-3.3,17-.9a25.5,25.5,0,0,0,11.6,1.4c4-.5,7.8.8,11.7,1,1.3,0,2.6.3,3.8-.1,5-1.9,10-1.6,15.1-.3s7.3.1,10.9-.7l1.4-.3A3.4,3.4,0,0,1,184.7,201.6Z"/><path class="cls-10" d="M170.3,148.5c-1,.8-2,2.1-3,2.1s-2.9,1.3-2.9,3.4c-.1,3.8-.5,7.6-.7,11.4a5.4,5.4,0,0,1-.3,1.9,2.5,2.5,0,0,1-1.3,1.2,2.1,2.1,0,0,1-1.6-.8,6.4,6.4,0,0,1-.7-2.7q0-4,.3-8.1a36.6,36.6,0,0,1,.4-4.2h-3.7a9.7,9.7,0,0,1-5.6-1,3.8,3.8,0,0,1-1.8-4.9,6.3,6.3,0,0,1,3.7-3.6,3.2,3.2,0,0,1,3.8,1.2c.6,1,.4,2.2-.8,3.4s-1.2.9-1.8,1.4c2.7,1.1,2.9,1.1,4.4.7a2.4,2.4,0,0,0,2.1-2.3v-.5c.2-1.8-.6-3.8.7-5.5,2.8-.3,5.4-2,8.3-1.5,1.2.2,2.2.7,2.4,2s1.2,3.6-.8,5h0C170.7,147.3,170.8,148.1,170.3,148.5Z"/><path class="cls-11" d="M1.3,173.8V157.5c2.2-.1,3.4,1.8,5.1,2.7s.7,1.4.3,1.7c-2.3,2.3-.5,3.6,1.1,4.9s2.5,2.8,1.7,5a10.5,10.5,0,0,1-2.3,2.4c-2.5,1.9-2.8,4.2-.9,6.4s3.1,6.5,4.7,9.7a3.4,3.4,0,0,1,.6,1.2c-.7,4.2,1.9,9.1-2.9,12.6-1.1.8,1.2,2.2,2,3.3s3.8.6,2.8,3.3c-5,1.7-6.7-1.7-8.3-5.3h0c-1.1-2.4-1.2-5.1-1.9-7.7v-.8a3.8,3.8,0,0,0-.1-4,1.4,1.4,0,0,0,0-.9c-1.9-5.9-.8-12.2-1.9-18.2Z"/><path class="cls-10" d="M71,76.6a2.5,2.5,0,0,1-.1,1.1c-.1,2.1-1.2,3.8-2.3,3.5s-1.6-2.1-1.7-3.5-.3-2.6-.5-3.8-.3-.5-.6-.6a1.1,1.1,0,0,0-.8.1,6.9,6.9,0,0,0-2.2,4.2c-.2,1.1-.2,2.2-.5,3.3a3.3,3.3,0,0,1-1.5,1.6,1.4,1.4,0,0,1-1.9-1c-.5-1.6-1.2-1.5-2.3-.4a19.2,19.2,0,0,1-2.8,1.8c-2.2,1.2-5.3.4-7-2.4a9.3,9.3,0,0,1,.5-9.9A3.3,3.3,0,0,1,51,69a3.8,3.8,0,0,1,2.5,3.7,7.7,7.7,0,0,1-2.7,5.4,1.8,1.8,0,0,0-.3,1.2,1.5,1.5,0,0,0,1.3.6,4.6,4.6,0,0,0,3.7-1.8,11.2,11.2,0,0,0,2.8-5.4c.4-1.5.9-2.7,3-2.3s1.7-.6,2.5-.9c2.9-1.2,5.2-.3,6.2,2.5A25.8,25.8,0,0,1,71,76.6Z"/><path class="cls-12" d="M198.9,41.9c.1-2,.1-4,.1-6.1a24.4,24.4,0,0,1,.1-3.8,2.2,2.2,0,0,1,1.1-1.2,1.9,1.9,0,0,1,1.4.9,20.5,20.5,0,0,1,.7,3.1l2.5-1c1.7-.5,3.6-.8,5,.6s2.1.7,3-.4a9.4,9.4,0,0,1,1-1c1.2-.8,1.9-.6,3.2.8l.5.7a4.1,4.1,0,0,1,.5.9c.2.7.3,1.4.5,2l.5.9.6.9a4.3,4.3,0,0,1,.2,1.1c-.3.8-.5,1.5-1.5,1.1h-.1c-.6-.6-1.2-.7-1.7.2-2.7,2.3-2.7,2.3-5.6.5a1.8,1.8,0,0,0-1.6-.3L203.4,44c.1,2.5.3,5.2.3,7.8A14.8,14.8,0,0,1,203,56a1.6,1.6,0,0,1-1.3,1.1,2,2,0,0,1-1.5-.9c-.5-.6-1-1.5-.8-2.1,1-3.2,0-6.3.5-9.5C199.8,43.7,198.2,43.2,198.9,41.9Z"/><path class="cls-13" d="M13.8,210.2c-1.5-.7-3.3-1.1-4.5-2.2s-1.8-2.9-2.8-4.4c1-.7,2.6,0,3.2-1.5a8,8,0,0,0,.8-3.6c-.3-2.4.2-4.9.4-7.4,2.8.3,1.9,2.8,2.6,4.4.4,6,.4,6,4,11.6,1.9-.3,2.2-2.2,3.2-3.3s5.3-3.9,8.2-2.5,5.6.6,7-2.6l2.9,3c0,1.5.1,3.1.1,4.7s-1.6,1-2.1,1.9h0l-1,1h.1c-.5.6-1.4.4-2,.9h0c-3.3,2.4-6.9,1.8-10.4.6-1.6-.5-3.1-1.7-4.9-.6h0C17,210.9,15.4,211.6,13.8,210.2Z"/><path class="cls-10" d="M62,152.1c-.3,1.9-1.7,2.7-3.3,3.1a3.5,3.5,0,0,1-2.6-.6c-.9-.5-1.5-1.6-2.4-2.6a21.5,21.5,0,0,1-2.4,1.8c-1,.5-2.2.6-3.1,1a2,2,0,0,0-1,1.4c-.2,3-.3,6.1-.4,9.1a26.5,26.5,0,0,1-.5,3.8,1.8,1.8,0,0,1-1.4.9,2.2,2.2,0,0,1-1.4-.9,9.2,9.2,0,0,1-.5-2.8c.1-3.3.4-6.6.6-10v-.9c.1-2.1-1.9-3.9-.9-6s.8-3.7.9-5.6a1.6,1.6,0,0,1,.7-1.1,1.6,1.6,0,0,1,1.2.3,3.1,3.1,0,0,0,3.8,1.8,3.9,3.9,0,0,1,2.4.2c1.2.6,2.3,1.9,3.5,1.9s1.9-1.5,3-2.1a2.8,2.8,0,0,1,2.1.5,9.4,9.4,0,0,1,1.6,2.3C63.2,149.1,62.7,150.6,62,152.1Z"/><path class="cls-10" d="M129.1,76.8a9.8,9.8,0,0,1-.8,1.8c-.4.4-1,1-1.5,1s-1-.9-1-1.8c0-2.7,0-2.7-1.1-5-1.6,1.2-1.6,3-2.2,4.6a9.7,9.7,0,0,1-.8,2.2c-.1.3-.8.5-1.2.4s-1.1-.4-1.1-.7-.1-2.6-.2-3.8-.1-2.6-1.2-3.5-2.2,1-2.6,3-.4,2.8-.7,4.2-.8,1.7-2.1,1.3a3,3,0,0,0-2.6.1c-2.3,1.6-4.6,1-6.5-.7s-1.9-4.3-1.2-6.7a5.3,5.3,0,0,1,2.6-3.3,2.3,2.3,0,0,1,2.6.1,2.4,2.4,0,0,1,.8,2.6,6.8,6.8,0,0,1-2.3,3,1.8,1.8,0,0,0,.6,3c1.8.7,4.2-.6,4.3-2.5s-.2-3.5-.2-5.3a10.1,10.1,0,0,1,.4-2.3,1.5,1.5,0,0,1,2.4-.3c.6.8.8,1.6,2,.8a3.4,3.4,0,0,1,3.6-.5c1,.4,1.9,1.4,2.9,1.5s1.6-1,2.5-1.2a2.6,2.6,0,0,1,2.9,1.2c.6,1,1.1,2,1.6,3A2.6,2.6,0,0,1,129.1,76.8Z"/><path class="cls-2" d="M71.3,220.3c-1.1-1.9-.8-3.9-.7-5.9a3,3,0,0,0-1.5-3.1h5.5c1.2,2,2.1,4.2,4.2,5.7,3.8,2.7,3.6,3.3-1,5.3,3.4,1.5,5.8-1.3,8.6-1.8,1-.1.5-1.7.4-2.6s-.7-4.4.6-6.5a2,2,0,0,1,.8.4c2.2,1.5,2.3,1.6,3.4-.5a3.1,3.1,0,0,1,2.9-2,14.1,14.1,0,0,1,2.9.1,3.4,3.4,0,0,1,1.5.9c.6.6,0,2.1,1.3,2.2s1.3-.8,2-1.1,3.4,0,4.7,1.9a6.8,6.8,0,0,0,1.2,1.2c.2-.5.5-1,.7-1.6a19.8,19.8,0,0,1,1.1-2c.5-.7,1.4-.5,2.6.6-1.6,1.7-1.6,4.1-2.5,6.1s-1.7,3.8-4,3.5-1.9-2.5-2.2-4.2.1-1.3-.7-2c-1.5,1.6-1.7,4.1-3.7,5.3s-2.8,1.8-4.3.4-1-2.5,0-3.9,2-2.2,1.1-3.8a.8.8,0,0,0-1.2-.3c-1.4.7-1.9,2.1-2.3,3.5-.9,3.6.8,5.9,4.5,6.1.9,0,1.9-.3,2.8.3a2.3,2.3,0,0,1-2.2,2.1,9.1,9.1,0,0,1-3.3,0c-3.1-1.1-6.2.6-9.3-.5-.8-.3-2.1.5-3.1.9a6.1,6.1,0,0,1-4.6.3c-3.2-1.1-3.9-2.9-2.4-6.3a1.9,1.9,0,0,0-1.1-2.5,1.6,1.6,0,0,0-2.2,1A12.6,12.6,0,0,0,71.3,220.3Z"/><path class="cls-10" d="M100,222.5a14.5,14.5,0,0,1-2.2.9,5,5,0,0,1-6.4-3.4,9.6,9.6,0,0,1,2.7-9.2,2.7,2.7,0,0,1,3.1-.3,2.5,2.5,0,0,1,1.1,2.5,5.9,5.9,0,0,1-2.7,4.8c-.9.6-.8,1.2-.3,1.9a1.7,1.7,0,0,0,2.5.5,7.9,7.9,0,0,0,3.1-4.1c.5-1,.8-2.1,1.2-3.1a1.4,1.4,0,0,1,2-.8,1.9,1.9,0,0,1,.9,1.4c.2,2,.1,4.1.2,6.2a1.6,1.6,0,0,0,.8,1,1.3,1.3,0,0,0,1.2-.5,13,13,0,0,0,2.5-7.1c.2-1.5.4-1.5,2.8-1.7,1.4,2.4,1.1,5.1,1.2,7.8,0,1-.2,2,.9,2.9s.9,2.1-.5,2.8-2.1-.2-3.1-.5-.6-.5-.8-.4c-3.7,1.5-7,.5-10.1-1.7Z"/><path class="cls-14" d="M72.5,235.2V235l-.2-.2c1-1.6-.3-3.7,1.1-5.2h-.1a1.7,1.7,0,0,1,2.7,0H76c.7,3,1.8,5.6,5.8,4.7.7-.2,1.4.4,1.9,1.1h-.1q1.4.8,0,1.5h.1c-.3,1-1.2.7-1.8,1.1h-.1c-3,.8-4.7,1.8-3.7,5.8,1.5,6,0,7.1-6.2,8.7-3.5.9-6.6,2.4-9-1.7a8.6,8.6,0,0,1-.2-4.5c.3-2.2,1.7-3.6,3.1-5.1h0a1.3,1.3,0,0,1,.9-1h0c1.5-1.5,3.1-2.4,4.7-.1s-.2,2.6-1,3.8-1.8,2.5-1.4,4.5c2.3-2.7,3.4-5.4,2.1-8.7C70.4,237.8,71.5,236.5,72.5,235.2Z"/><path class="cls-10" d="M158.7,258.3l-.2.2.2.2c-1,2,.3,4.3-1,6.2h0c-1.1,1.5.4,3.5-1.1,4.9h.1c.2,3.9-1.4,7.3-3,10.7-.8,1.6-1.7,3.3-3.7,3.2s-2.2-2-3.1-3.2-.9-3.3-1.4-5h.1c-1.5-3-2.1-6.2-3.2-9.3-.6-1.5-1.2-3.4.4-4.8h1.3a1.4,1.4,0,0,1,1.1,1h-.1c.8.4.7,1.3,1,2h0c1.2.6.2,2.1,1.1,2.8h0c1.4,1.4,1.3,3.3,1.8,4.9h0a1.1,1.1,0,0,1,.6.7c.4.6.5,1.4,1.1,2s-.3-1.3.5-1.7h0c.9-2.5-.1-5.5,2-7.7h-.1c.8-2.5,0-5.5,2-7.7H155c.8-.7-.2-2.2,1.2-2.8h-.1c.8-1.2,1.6-1.1,2.4,0h0C159.7,255.8,159.4,257,158.7,258.3Z"/><path class="cls-7" d="M279.7,186.3c.9.4,1.7.9,1.3,2.1-1.3,4.6-2.8,9.2-6.3,12.7a41.5,41.5,0,0,1-3.2,2.7,13.4,13.4,0,0,0-2.8,1.8,6.5,6.5,0,0,1-4.7,1.8,8.7,8.7,0,0,0-3.1,1,15.9,15.9,0,0,1-6.3,1.9c-2.5.3-5,.9-7.5,1.4l-.9.3a6.5,6.5,0,0,1-2.4.1c-3.9-.8-7.8.5-11.7-.1-1.2-.1-2.2-1.1-3.3-1.7,1.7-2.6,4.4-2.4,6.9-2.2,8.8.5,17.1-2.4,25.6-3.7,3.4-.5,5.7-2.9,8.4-4.6l1-.8.8-.8.5-.4a18,18,0,0,0,3-3.7l.7-1.1C277.3,191,276.6,187.5,279.7,186.3Z"/><path class="cls-15" d="M85,116.4c.2-2.1.3-4.1.6-6.2s1-1.6,1.7-1.2a4.2,4.2,0,0,0,3.6.2h.5c1.9-.4,3.1,1.7,4.7,1.6s2.7-1.6,4.4-1.5a4,4,0,0,1,3.6,2.7,11.2,11.2,0,0,1-.5,8.8,1.3,1.3,0,0,1-1.1.7c-.5-.2-1.2-.7-1.3-1.1a55.6,55.6,0,0,1-.1-5.8c-.1-.6-.4-1.3-1.1-1.3a1.5,1.5,0,0,0-1.2.7c-.6,1.2-1.2,2.5-1.7,3.8a32,32,0,0,1-.7,3.3c-.1.5-.8.9-1.3,1.1a1.6,1.6,0,0,1-1.9-1.1,9.3,9.3,0,0,1-.2-2.3,24.4,24.4,0,0,0,.1-3.8c0-.7-.7-1.4-1.1-2s-1.8.7-2.2,1.4a8.9,8.9,0,0,0-1.1,3.1c-.1,1.1,0,2.3-.1,3.4a3.6,3.6,0,0,1-.3,1.8c-.2.5-.9,1.2-1.3,1.1a2.6,2.6,0,0,1-1.8-1.2,4.3,4.3,0,0,1-.3-2.3v-3.8Z"/><path class="cls-2" d="M96.2,271a6,6,0,0,1,1.6.8c.9.6,1.6,1.7,2.5,2s1.9-.6,2.9-1a1.7,1.7,0,0,1,.1,1c-1.5,7.7-1.5,7.5,6,7.1,2.4-.1,2.3-1.2,2.7-2.8,1.2-5.5-.5-10.8-.7-16.6-.9.6-1.2,1.9-2.3,1.9s-.1-2.5-.1-3.8a2,2,0,0,1,1.4-2.2,2.8,2.8,0,0,1,3.1,1.7c.5,2.4.8,4.9,1.2,7.4s0,2,.1,2.9,1,1.2,1.8,1.3l.5.4a24.7,24.7,0,0,0,2.7,4.4c3,3.4,2.9,3.6-1.4,5.4,3,.8,4.9-1.5,7.2-2.7l.7.2a4,4,0,0,1-2.6,4.2,11.7,11.7,0,0,1-6.4,1.6l-8.5-.5-2.8.3c-1.9.2-3.8.4-5.5-.9s-1.4-.3-2.2-.3-.9.3-1.4.3-3.1-.7-3.3-2.5.1-2.3-.1-3.4a14.9,14.9,0,0,0-1.1-2.6c-1,2-.6,4.2-2.7,4.8-1.7-2.8-1-5.4,1.8-6.1s3.7,3.2,5,5.7C98,276.1,94.9,273.6,96.2,271Z"/><path class="cls-2" d="M56.1,262c1.5,3.4,1.2,4.5-1.6,5.6s-3.5.9-4.6,2.4a.9.9,0,0,0-.1.9c.1.2.5.5.7.4a6.6,6.6,0,0,1,4.6.2c1.6.6,3-.3,4.4-1.3a56,56,0,0,1,4.8-3,2.4,2.4,0,0,1,3.3.8c.1,1-.6,1.4-1.3,1.7-6.7,3.7-6.8,3.7-5.6,11.8,1.1-2,.6-3.8,1-5.4s.6-4.3,3.7-3.6a10.8,10.8,0,0,0-1.7,7.2,12.2,12.2,0,0,1-.1,3.3c-.3,1.6-2,3.1-3.3,2.6s-3.3.1-4.1,2-.8.9-1.2,1.4l-.5-.5c-1.2-3.4-.5-6.9,0-10.4.2-1.3.5-3.3-1.5-3.2s-1.4,1.9-1.1,3.3c.6,3-.6,5.3-3.6,5.5s-4.2-2.6-3.8-5.2c.8-5.4,1.8-10.9,7.9-13.1,1.5-.5,2.1-1.9,3.1-3Z"/><path class="cls-16" d="M112.5,28.9l3.7-2.9a8.5,8.5,0,0,1,4.7-2.2c2.7-.2,4.3,1.7,3.3,4.3a28.2,28.2,0,0,1-2.4,3.6c-1,1.5-3.8,2-3.3,4.1s2.2,2.7,3.3,4a25.8,25.8,0,0,1,3.3,4.1,2.2,2.2,0,0,1-.2,2.1,2.8,2.8,0,0,1-2.2,0c-1.1-.8-2.2-1.9-3.2-2.8a26.5,26.5,0,0,0-2.9-3v4.7c0,1.8-.7,2.1-2.8,1.1a6.1,6.1,0,0,1-2.3-5.9C112.5,36.4,111.9,32.6,112.5,28.9Z"/><path class="cls-17" d="M138.6,39.4l-1.2,2.1a2,2,0,0,0,0,2.2,22.1,22.1,0,0,1,1.6,3.5,1.4,1.4,0,0,1-.5,1.5c-.4.2-1.1-.1-1.7-.3l-.6-.8c-1-1.7-2.1-2.7-4.6-1.7s-4.4-.8-5.3-3a10,10,0,0,1-.7-4.2,29.7,29.7,0,0,1,3.1-12,8.4,8.4,0,0,1,1.5-1.8l.8-.4c1.2-.2,5.1,1.7,5.7,2.9l1.8,4.3a3.4,3.4,0,0,1,1.1,1.9,16.3,16.3,0,0,1,.1,3.8A4.9,4.9,0,0,1,138.6,39.4Z"/><path class="cls-18" d="M109,263.4a22,22,0,0,1,.7-3.7,2.2,2.2,0,0,1,1.3-1.2c.4,0,1,.6,1.4,1a1.3,1.3,0,0,1,.2.9c.2,5.1.5,10.2.7,15.3,0,1.4.1,2.9.1,4.3a5.8,5.8,0,0,1-.4,1.8c-.7,1.7-1.9,1.9-3.2.5s-.9-1.3-1.8-.6a13.2,13.2,0,0,1-2,1.2,3.7,3.7,0,0,1-5.3-3.9,13.3,13.3,0,0,1,1.4-4.1,10.6,10.6,0,0,1,1.1-2.1h0a1.7,1.7,0,0,1,1-1h0c1.4-1.7,4.2-2.2,4.8-4.9Z"/><path class="cls-15" d="M149.2,114.3a19.9,19.9,0,0,1-2.1-2,3.5,3.5,0,0,1,.3-5.1,21.7,21.7,0,0,1,3.3-1.9,2.1,2.1,0,0,1,2.6.4c.9.9.3,1.7-.1,2.6s-1.3,2.1-2.7.7a.8.8,0,0,0-.4.3c-.1.2-.4.7-.3.7a17.1,17.1,0,0,0,2.5,2.2,4.6,4.6,0,0,1,1.7,5.5,5.2,5.2,0,0,1-4.8,3.4,15.2,15.2,0,0,0-6,.7c-2.6,1-5.1-.5-6.2-3.1a9,9,0,0,1,2.4-9.2,2.3,2.3,0,0,1,2.7-.4,2.5,2.5,0,0,1,1.1,2.9,27.7,27.7,0,0,1-2.2,3.7,1.5,1.5,0,0,0-.1,2.1,1.9,1.9,0,0,0,2.5.8,6.1,6.1,0,0,0,3-2.2c.3-.5,1-.7,1.6-1S149.7,115.6,149.2,114.3Z"/><path class="cls-19" d="M181.1,107.9c-.1,2.1-.2,4.4-.4,6.6a8.5,8.5,0,0,1-.3,2.3c-.4,1.3-1.6,1.7-2.5.7s-1.5-1-2.6-.1-3.7,2.1-5,1-1.6-3.4-1-5.3,2.6-5.5,5.6-6.7a2.7,2.7,0,0,0,2.1-3.2c0-1.4.1-2.8.2-4.3a3.1,3.1,0,0,1,.5-1.7,2.7,2.7,0,0,1,1.5-.9,1.3,1.3,0,0,1,1.2.7,6.3,6.3,0,0,1,.7,2.2C181.2,102.1,181.1,104.9,181.1,107.9Z"/><path class="cls-20" d="M54.6,236.3h.3l.2-.2c3.3-1.5,5.9-1.2,6.5,3.1h-.1c1.3.6.5,2,1,2.9.8,2.6.1,5.2.2,7.9s-3.5,1.9-4.8,3.3h-.1a8.9,8.9,0,0,1-5.2,1.6c-4.5-.5-5.6-3-3.1-7a.9.9,0,0,1,1-.9c.2-.9,1.2-.6,1.7-1.1h.1c.9-1.1,2.2-1,3.5-1.1s2.1-1.2,1.8-2.8-1.6-1.6-2.9-1.3-3.9,2.4-5.1-.9h0c-.4-.1-.5-.2-.4-.4l.3-.2h0C50.4,236.9,52.7,236.9,54.6,236.3Z"/><path class="cls-21" d="M234.6,35.6c1-1.5,1.8-3.2,3.5-3.9a5.9,5.9,0,0,1,2.3-.5,2.3,2.3,0,0,1,2.1,3.3,7,7,0,0,1-3.1,2.8c-.3.2-.7.8-.6,1a1.5,1.5,0,0,0,1.1.8,6.1,6.1,0,0,0,4.8-1.6c.6-.5,1-1.3,1.6-1.7a1.1,1.1,0,0,1,1.2-.1,1.1,1.1,0,0,1,.3,1.2c-1.7,3.7-5.9,6.1-9.8,5.1a6.1,6.1,0,0,0-4,.2c-2.7.9-5.3.8-7.1-2-1.2-1.1-2.1-2.3-1.1-4s.9-2.3,1.8-3.2a3.2,3.2,0,0,1,4.9-.2c1.5,1.7,0,3.4-.3,5.2C233.8,37.8,233.6,36,234.6,35.6Z"/><path class="cls-22" d="M83,74.9a19.2,19.2,0,0,1,0-2.4c.1-2.7.1-2.5,3.1-3.1s4.4-.9,6.1,1.2c.2.2,1.2-.1,1.7-.4,3.3-1.3,5.2-.5,6,2.9a28.5,28.5,0,0,1,.4,5.1,1.7,1.7,0,0,1-.3,1c-.5.8-1,1.6-2.2,1.4a2.2,2.2,0,0,1-1.9-2.3c.3-1.2,1.2-2.3.6-3.7s-.3-.8-.4-.8-1.1.1-1.3.4a11.9,11.9,0,0,0-1.3,2.5c-.2.7,0,1.6-.2,2.3a1.9,1.9,0,0,1-2,1.7,2,2,0,0,1-1.7-2c-.1-1.7,0-3.5-.1-5.2a1.4,1.4,0,0,0-.8-1,1.9,1.9,0,0,0-1.2.5c-.6,1.5-1,3-1.5,4.5a18.9,18.9,0,0,1-.5,2.3,1.7,1.7,0,0,1-1.2.6,1.5,1.5,0,0,1-1.1-.8c-.2-1.5-.3-3.1-.4-4.7Z"/><path class="cls-23" d="M127,200.7c-1.7-.2-3.4-.3-5.1-.6a8.3,8.3,0,0,0-5.1.8,8.2,8.2,0,0,1-3.1.7,25.4,25.4,0,0,1-3.9.1c-2,1-2.4-.7-3-1.9h-4.7a4.1,4.1,0,0,1-.1-1.1c10.8.2,21.6-.8,32.4-1.8l8.6-.3c2.1-.3,1.9,0,4.8,2s3.7.9,5.3,1.9a1.9,1.9,0,0,1-1.1,2.3h-1.4C143,199.9,134.7,202.9,127,200.7Z"/><path class="cls-24" d="M63.7,118.1a52.3,52.3,0,0,0-5.6,0c-4,.5-7.9,1.2-11.8,1.8-1.6.3-1.9,1.5-1.5,2.9-1.2-1.7-2.4-4.4-2-5.5s.2-3.5,1.5-4.8c.2,1.2.8,2.1,2.1,2.1l3.3-.2c3,0,6.1-.3,9,.3a4.2,4.2,0,0,0,4.8-1.9,10.5,10.5,0,0,0,.8-1.3l3.3,1.9a4.1,4.1,0,0,0,1.1.7h0a3.5,3.5,0,0,1-.1,4h-.1a3.3,3.3,0,0,0-.9,1.1h.1a1.7,1.7,0,0,0-1,1.2.8.8,0,0,1-.5.7.9.9,0,0,1-.6.7v.2c-.9.3-1.3,0-1.1-1v-1.6A3.4,3.4,0,0,0,63.7,118.1Z"/><path class="cls-25" d="M119.4,110.5a.7.7,0,0,1,.1-.5c1.3-1.3,2.8.7,4.3-.5s2.8-.2,3.8.9,1,.3,1.6-.1c2.4-1.2,3.6-.9,4.5,1.4a13.5,13.5,0,0,1,.8,8.4,2,2,0,0,1-1.2,1.3,1.5,1.5,0,0,1-1.7-1.4,11.4,11.4,0,0,0-1.2-5.5,29.9,29.9,0,0,1-1.7,4.6,2.4,2.4,0,0,1-1.9,1.1c-.9,0-1.2-.8-1.3-1.7s-.1-2.8-.2-4.3-.4-.7-.5-.6-1,.3-1.1.6-.9,3-1.4,4.6a4.4,4.4,0,0,1-.7,1.7c-.8.7-1.7.9-2.3-.3A22.7,22.7,0,0,1,119.4,110.5Z"/><path class="cls-26" d="M87.4,211.4c.3,3,.7,6,1,9a6.1,6.1,0,0,1,.1,1.4c-.1.8-1.2,1.6-1.7,1s-2.3-.5-3.5.3c-2.9,1.9-4.9,1.8-7.4-.2a2.8,2.8,0,0,1-.8-1.1,2.3,2.3,0,0,1,.2-1.4,1.3,1.3,0,0,1,1.2-.5c1,.2,2,.7,3.1.9s1-.5,1.5-.8-.4-.9-.7-1.1l-3-1.4c-2.9-1.6-3.3-2.4-2.8-6.2,1.1-.7,2.3-1.6,3.5-2.2a1.9,1.9,0,0,1,2.8.9c.5,1.1-.2,2-1.7,2.6a1.5,1.5,0,0,0-.9.6c-.1.1.1.7.3.8l5.7,2.7c.2-1.5.3-2.7.5-3.9S86.2,211.2,87.4,211.4Z"/><path class="cls-27" d="M146.3,143.6c0,2.4,0,4.8-.1,7.2a1.4,1.4,0,0,1-2,1.2,2.9,2.9,0,0,0-2.7.1,8.4,8.4,0,0,1-3.1,1.2,3.5,3.5,0,0,1-4.2-4.5c1-3.5,3.1-6,6.7-6.6,1.4-.3,1.9-.9,1.9-2.2s.2-3.8.4-5.7.6-1,.8-.9a2.4,2.4,0,0,1,1.5.8,11.4,11.4,0,0,1,.7,3.2c.1,2.1,0,4.2,0,6.2Z"/><path class="cls-28" d="M187.4,73.6V66.5a1.4,1.4,0,0,1,.8-1,1.5,1.5,0,0,1,1.2.4,4.7,4.7,0,0,1,.7,1.2c.3,1.1.8,1.6,2,1.3a5.6,5.6,0,0,1,4.2.7,3.6,3.6,0,0,1,1,5.7,7.4,7.4,0,0,1-4.9,2.6c-.9.1-1.3.7-1.4,1.6-.1,2.6-.3,5.1-.5,7.6s-.5,2.2-1.8,2.5-1.8-1-1.9-2.7a2.2,2.2,0,0,1,0-1.4C188.2,81.2,187.3,77.4,187.4,73.6Z"/><path class="cls-29" d="M167.2,75.6a8.3,8.3,0,0,0,.8-2.2c.1-1.2,0-2.5.1-3.8s1-2.2,2.7-1a1.5,1.5,0,0,0,1.7.3,8.1,8.1,0,0,1,2.2-.7c1.8-.2,2.6,2.2,4,2s2.4-1.7,3.9-1.3a5.1,5.1,0,0,1,2,1.2c1.6,2,1.5,6.5-.1,8.6-.2.3-.9.3-1.3.3s-.5-.5-.5-.8,0-2.8-.1-4.3a1.2,1.2,0,0,0-.7-1,1.2,1.2,0,0,0-1.1.4c-.6,1-1.1,2-1.6,3a4.8,4.8,0,0,1-.8,1.6,1.4,1.4,0,0,1-2.3-.4c-.2-1-.1-1.9-.3-2.9s-.6-2-.9-3c-1.9.6-2.2,2-2.6,3.4a19.7,19.7,0,0,1-1,3.2c-.4.8-1.2.8-2,.3S166.5,77.6,167.2,75.6Z"/><path class="cls-30" d="M35.9,198.7c-.3,1.2-.5,2.4-.8,3.6-.8,3.2-1,3.3-3.6,1.2s-4.2-1-6.2-1.6c-.4-.1-.9.3-1.3.6s-3.4,2.3-4,4.5c-.1.6-1.1,1.1-1.8,1.4s-1.1.2-1.2,0c-1.4-2.5-3.6-4.5-4.1-7.4a9.8,9.8,0,0,1-.1-5.1c2.6-.1,1.7,2.7,3.1,3.6s2.9,2.9,5.2.4,4.9.3,7-1.3c.5-1.1-.2-1.9-.7-2.7l.3-.2C30.8,195.6,33.7,196.2,35.9,198.7Z"/><path class="cls-19" d="M111.7,46.1c-.9.6-1.8.9-2.5-.1a31.5,31.5,0,0,1-2.2-3.3,3.7,3.7,0,0,0-3.5,2.7c-.1.3-.9.7-1.2.5a3.2,3.2,0,0,1-1-1.3c-.2-.3-.1-.6-.1-.9,1.4-5.1,2.7-10.2,4.1-15.3a2.9,2.9,0,0,1,.7-1.2,1.4,1.4,0,0,1,2.1.1,9.7,9.7,0,0,1,.8,2.2c.7,2.7,1.3,5.3,1.9,7.9S113.2,43,111.7,46.1Z"/><path class="cls-2" d="M213.4,307.3c-1.1-1.5-2.2-2.7-4.3-1.7a3.2,3.2,0,0,1-.9.3c-1.3.2-2.7.6-3.5-.7a4.5,4.5,0,0,1,.1-4.6,3.8,3.8,0,0,1,1.5-.9c1.7-.6,3.5-.8,5-1.6a14.8,14.8,0,0,0,3.6-3,1.7,1.7,0,0,0,.1-1.7,3.1,3.1,0,0,0-1.8-1.2,5.9,5.9,0,0,0-2.3.5l-6.1,1.1a5.1,5.1,0,0,1,4.5-3c1.9,0,3.8-.7,5.7-.8s2.2.5,2,2.3-.3.9-.3,1.4,1.9,2,1,3.4-1.9,1.1-2.6,2a3.2,3.2,0,0,0-.6,2.2C214.4,303.3,214.7,305.4,213.4,307.3Z"/><path class="cls-25" d="M96.2,271c.5,1.3,1.1,2.6,1.6,4a9.1,9.1,0,0,1-.3,6.5,1.6,1.6,0,0,1-1.1.7c-.3,0-1-.4-1-.7s-.5-2.5-.8-3.7a11.7,11.7,0,0,0-.9-3.2,1.8,1.8,0,0,0-1.3-1.1,2,2,0,0,0-1.5.9,6.8,6.8,0,0,0-1.3,5l-.2.2v.2c-.5,1.6-.5,4-2.9,3.7s-2-2.5-2.2-4.2a8.9,8.9,0,0,1,0-2.3c.4-2.4-1.4-6,1.4-7a14.3,14.3,0,0,1,9.6-.2c.5.1.6.7.7,1.1Z"/><path class="cls-31" d="M153,200.6c-1.2,0-2.2.7-3.5-.4s-2.3-.5-3.5-.8-.6-.6-.9-.9l1-.3h.9c.2-.1.3-.5.4-.7s-.1-.4-.2-.4l-4.2-.3c2.1-.3,4.1-.8,6.1-.9l32.5-1.1,16.6-.8a10.6,10.6,0,0,1-2.5.9,41,41,0,0,1-5,.2c-1.3.6-.6,2.7-2.3,2.9l-1.8-.2c-.7-.6-.7.1-.9.5l-.8,1.8a29.1,29.1,0,0,0-19.1-1.8C161.7,199.2,157,198,153,200.6Z"/><path class="cls-22" d="M185.8,261.3a.6.6,0,0,0,.8-.2.6.6,0,0,1,.9,0,.8.8,0,0,0,.8.2,1.4,1.4,0,0,1,1.1.9h-.1a2.6,2.6,0,0,1,0,3.6h0c-1.4,1.2-6.5-.3-2.9,4.3l.2-.2-.2.2c.5,0,.8.4,1,.9h0a1.6,1.6,0,0,1,1,.8h.1a2,2,0,0,1,.9.9h0c2.9,2.4,2,4.6-.6,6.5s-7.4,2.2-9-.1-.4-2.6.8-3.6a4,4,0,0,1,2.6-.5c1.9.2.5-.7.3-1.1s-2.1-2-2.5-3.4h0c-1.3-3.5-1-6.5,2.9-8.3l-.2-.2.2.2C184.3,261.4,185.2,261.7,185.8,261.3Z"/><path class="cls-2" d="M114.6,236.2l5.7-3.9.5.3a8.6,8.6,0,0,1,1.3,2,1.4,1.4,0,0,1,.2.6c-.1.5,0,1-.3,1.3a2.7,2.7,0,0,0,.4,3.4l-.3.6c-3.7,1.7-4.4,5.3-5.1,8.8l-.5.4c-1.4-.1-1.8-1.1-2.2-2.2a1.1,1.1,0,0,0-.8-.2c-.3.1-.6.4-.6.6s-.2,2.5-.3,3.8a2,2,0,0,1-2.8,1.6,4,4,0,0,1-2.8-3.4c-.1-1.7,0-3.5,0-5.2,2.7.5,1.4,3.3,3,4.8.8-1.6.3-3.1,0-4.6-.7-3.6-.5-6.7,4.2-7.3C115.1,237.5,115,236.8,114.6,236.2Z"/><path class="cls-32" d="M187.6,44.1c-2.3,1-5.3,1.1-6.7.3a4.1,4.1,0,0,1-2-4.5,7.8,7.8,0,0,1,3.5-5.4,4.1,4.1,0,0,0,2-4,30.1,30.1,0,0,1,.1-5.2,1.5,1.5,0,0,1,1.1-1.1,1.8,1.8,0,0,1,1.4,1,24.1,24.1,0,0,1,.7,3.7c.3,2.5.5,5,.7,7.5A16.5,16.5,0,0,1,187.6,44.1Z"/><path class="cls-33" d="M161.7,33.5,157,35.1a15.5,15.5,0,0,0,.4,6.7l5.6-.9a4.1,4.1,0,0,1,1.9,0c.4,0,.8.5.9.9a1.3,1.3,0,0,1-.4,1.2c-2.5,1.8-5.4,2.5-8.4,3.1s-2.9.2-3.2-2.7,0-6.1-1.4-8.9c-.1-.2-.3-.7-.2-.8,1.8-2,.9-4.6,1.8-6.8s2.3-1.9,2.1,0c-.3,4.2,1.4,5.8,5.4,5.8C161.6,32.7,161.7,33.2,161.7,33.5Z"/><path class="cls-34" d="M205,148.8a47.5,47.5,0,0,1-4.9,1.7,6.2,6.2,0,0,1-3.3-.2c-2.8-.8-3.5-3.5-1.3-5.5a9.4,9.4,0,0,1,3.3-1.7,8.5,8.5,0,0,1,2.9-.4c-.1-1.3-.1-2.4-.3-3.5a.9.9,0,0,0-1.4-.7c-1,.5-1.9,1.2-2.9,1.6a1.7,1.7,0,0,1-1.3-.4,1.5,1.5,0,0,1,0-1.3,12.4,12.4,0,0,1,2.2-1.8c3.6-2.3,5-1.9,6.7,2.2.1.1.1.3.2.4C207.4,142.4,204.9,145.6,205,148.8Z"/><path class="cls-32" d="M139.5,31.7a29.9,29.9,0,0,1,1-3.2c.1-.3.8-.8,1-.7a3,3,0,0,1,1.3,1.2,6.1,6.1,0,0,1,0,1.9,30.9,30.9,0,0,0-.1,4.3,26.3,26.3,0,0,0,1,4.7,1.4,1.4,0,0,0,2.6.3,6.7,6.7,0,0,0,1-2.1c.4-2.1.6-4.1.8-6.2s-.2-2.5-.2-3.8.1-1.9,1.1-1.7a2.4,2.4,0,0,1,1.6,1.5A20.3,20.3,0,0,1,149.4,41a7.6,7.6,0,0,1-1.8,2.2,3.9,3.9,0,0,1-5.6-.3,21.6,21.6,0,0,1-2.2-3.6c-.9-.4-.7-1.2-.7-1.9V33.7A2.8,2.8,0,0,1,139.5,31.7Z"/><path class="cls-29" d="M225.8,275.1h.1c-1.6,4.7-3.2,5.8-7.5,5.2h0c-2.6-1.1-3.8-3.2-2.8-5.7s-1.9-6.5,1-9.3h0c0-.6.4-.8.8-1.1h0a2.8,2.8,0,0,1,.9-1h.1c1-2,2.9-1.8,4.5-1.1s1,2.4.5,3c-2.9,3.4-.1,5.4,1.5,7.7h0A4.4,4.4,0,0,1,225.8,275.1Z"/><path class="cls-7" d="M229.8,3.8l-2.7.2c.8-3,1.5-3.7,3.8-4h26.4c2.8,0,4.7.8,5.1,3.8a1.5,1.5,0,0,1-1.9.2h-.1c-5.7-1.4-11.6-.5-17.4-.6C238.7,3.3,234.2,2.7,229.8,3.8Z"/><path class="cls-27" d="M114.6,236.2l3.3.2c.2,0,.4.5.4.7s-.1.7-.3.8l-5.5,1.3c-1.5.3-1.9.8-1.8,2.2s.6,3.4.9,5.2l.3,2.8c0,1.5-.5,2.7-1.3,2.7s-2.4-1.2-2.6-2.4,0-1.6-.1-2.3-.6-1.8-.9-2.7h.1c-1-5-2.6-10-.8-15.1,2.3-.4,2.5-.3,2.8,1.1s.7,3.9,1.1,6.1C111.7,237.2,113.2,236.6,114.6,236.2Z"/><path class="cls-26" d="M200,108.3l.8,2.3c.9,2.8.3,4.6-2.2,6a6.3,6.3,0,0,1-5.5.9,3.8,3.8,0,0,1-2.9-4.7A12.1,12.1,0,0,1,196,105a3,3,0,0,1,3.6,0C200.6,105.7,200.8,106.8,200,108.3Z"/><path class="cls-2" d="M181.8,275.4a4.8,4.8,0,0,0-1.1.9c-1.1,1.3-1,2.3.2,3.1a6.5,6.5,0,0,0,8.7-1.7c1.3-1.8.3-3.3-.2-4.9,1-.3,1.8-.6,1.9-1.8a28.3,28.3,0,0,1,.2-2.9,4.2,4.2,0,0,1,2.8-3,2.1,2.1,0,0,1,2.8,1.8c.1,3.8,0,7.6,0,11.5,0,2.2-2.2,3.8-4.3,1.9l-1.5-1.3-6.9,2.9a2.4,2.4,0,0,1-2.7-.3c-1.8-1.6-3.5-1.5-5.6-.1s-2.7.9-4-2.1l.6-.3c1.4-.1,2.4-.6,1.9-2.4s-.9-3.1.8-4.2h.7a8.6,8.6,0,0,0,.2,2.3,1.7,1.7,0,0,0,2.6,1l2.8-1.3c.4.1.5.3.4.5S181.9,275.4,181.8,275.4Z"/><path class="cls-35" d="M214.4,98.7a40.5,40.5,0,0,1,4.8-.4c.3-.1.8.5.9.8a2.3,2.3,0,0,1-.7,1.1l-.8.4c-1.2.3-2.8.3-3.6,1s-.5,3-.5,4.5.2,5.4.2,8.2c0,.7-.1,1.6-1.1,1.8a1.7,1.7,0,0,1-2-1.6l-.9-7.6c-.1-1.4.2-2.9-1-4a1.3,1.3,0,0,1-.2-1.3c1.6-1.9,1.1-4.2,1.1-6.4s.6-2.7,1.4-2.5,1.4,1.1,1.6,2.1S214.1,97.3,214.4,98.7Z"/><path class="cls-2" d="M16.6,114.8a48.8,48.8,0,0,1-.6-5.2c-.2-15.3-.3-30.6-.6-45.8,0-5.3-.4-10.5-.5-15.8s-.2-8.2-.3-12.4c.2.2.7.4.7.6.4,3.3,1.4,6.5,1.4,9.8-.1,7,0,14,0,21,0,1.6-.1,3.2,1.2,4.5a2.2,2.2,0,0,1,.2,2.1c-1.7,1.9-1.4,4.1-1.4,6.3C16.6,91.5,16.6,103.1,16.6,114.8Z"/><path class="cls-36" d="M157.6,69c-1.2.5-.8,1.6-.9,2.5s-.2,4.1-.4,6.2a1.9,1.9,0,0,1-1.3,1c-.4.1-1.2-.6-1.3-1a45.7,45.7,0,0,1-.5-5.2c-.2-1.9-.2-1.8-2.4-2.4a1.6,1.6,0,0,1-1-.8,1.3,1.3,0,0,1,.5-1.2c.8-.5,1.7-.8,2.7-1.3.1-2.3.1-4.7.2-7.1a11.1,11.1,0,0,1,.2-1.9,5,5,0,0,1,1.3-1.9c.5-.4,1.3.7,1.4,2s.4,4.2.4,6.2.5,2.3,2.3,2.2.9.9.8,1.7S158.2,68.6,157.6,69Z"/><path class="cls-37" d="M206.8,138.3c.4-.2,1.1-.6,1.3-.5s2.7.6,4.2.2,5.4.6,6,3.7a44.3,44.3,0,0,1,.6,5.1,1.9,1.9,0,0,1-.7,1.6,1.9,1.9,0,0,1-1.7.5,1.8,1.8,0,0,1-1.2-1.2c-.2-1.6-.1-3.2-.2-4.8s-.4-1.7-1.3-1.7a3,3,0,0,0-2,1,8.2,8.2,0,0,0-1.1,3.1,27,27,0,0,0-.4,2.8,1.5,1.5,0,0,1-1.1.8c-.5-.1-1.4-.3-1.5-.7a19.7,19.7,0,0,1-1-3.2A6,6,0,0,1,206.8,138.3Z"/><path class="cls-33" d="M223.1,148.7a2.8,2.8,0,0,1-2-2.4,92.2,92.2,0,0,1,.1-18.2,3.6,3.6,0,0,1,.7-1.7,1,1,0,0,1,.8-.5c.4.2,1,.5,1,.8s.2,2.2.3,3.3.2,2.8.3,4.5l7.8-1.1c.9-.1,1.1.6.6,2-4.7,2-8.6,4.4-7.4,10.5C225.5,147.1,224.3,148.2,223.1,148.7Z"/><path class="cls-38" d="M209.6,193.8c.9-2.9,1.9-5.8,2.8-8.7.1,1,.2,2.1.4,3.4,3.3-3.3,6.3-6.4,7.6-10.8.5-1.6,1.3-3.7,3.6-3.9a2.7,2.7,0,0,1,.8,2.7c-1.8,5-3.6,10-7.8,13.6-1.3,1.1-1.4,2.8-2.4,4l-.9,1a1,1,0,0,0-.5.4,10.3,10.3,0,0,0-2.5,2.6,3.6,3.6,0,0,1-.7,1l-.8.9-.5.4a2.2,2.2,0,0,1-1.1.5H207c-.9-.6-.8-1.3-.3-2.1h0c.7-.4.4-1.4,1-1.8h.1c.2-.3.7-.6.7-1.1h0C209.4,195.4,209.1,194.4,209.6,193.8Z"/><path class="cls-39" d="M171.4,147.1c.3-1.7.6-3.4.8-5,.2.2.5.4.6.7s.5,1.4,1.3.5a9.6,9.6,0,0,1,3.9-2.6c2-.6,3.3,0,3.9,2a12.7,12.7,0,0,1,.6,1.8,5.6,5.6,0,0,1-4.8,7.2,4.5,4.5,0,0,1-4.8-2.3C172.5,148.6,171.9,147.9,171.4,147.1Z"/><path class="cls-40" d="M188.2,150.9h-1.5a1.9,1.9,0,0,1-1.9-1.7c-.1-1.1.7-1.6,2.2-1.8a3.8,3.8,0,0,0,1.8-.3c.2-.1.5-.9.4-1l-2.7-2.6c-2.5-2.5-2.4-4.8.5-6.7a13.3,13.3,0,0,1,3.5-1.3,2.2,2.2,0,0,1,2.3,1.3c.4.6.4,1.2-.4,1.5a12.3,12.3,0,0,0-1.9.2c-.7.3-1.6.7-1.8,1.3s.6,1.3,1,1.9,1.7,1.4,2.5,2.3c2,2.4,1.5,4.7-1.4,6.2A12.3,12.3,0,0,1,188.2,150.9Z"/><path class="cls-41" d="M223.9,111.2c-.1-.3,0-.7-.2-.8l-2.5-2.2c-1.2-1.1-2.3-2.3-1.8-4.1s2-2.7,3.8-3.2a3.1,3.1,0,0,1,1.9.2,2.6,2.6,0,0,1,1,1.3c0,.5-.6,1-1.1,1.3s-.9.1-1.3.2-.9,1.2-.4,1.6,2.2,1.7,3.2,2.7,2,4.8-.5,6.5-3.9,2.2-6.2.8a2.2,2.2,0,0,1-1.3-2.3c.1-.9,1.3-1.6,2.5-1.5a8.9,8.9,0,0,0,2.3.1C223.5,111.8,223.7,111.4,223.9,111.2Z"/><path class="cls-42" d="M62,152.1c-.1-1.5-.1-3-.1-4.5s.7-1.7,1.2-2.5a1.3,1.3,0,0,1,1.2-.4,1.7,1.7,0,0,1,1.1.9c.3,1.5.4,3.1.7,4.6a1.3,1.3,0,0,0,1,.9,1.4,1.4,0,0,0,1.1-.7c.6-1.7,1.1-3.4,1.7-5a2.1,2.1,0,0,1,1.4-1,1.6,1.6,0,0,1,1.3,1.1,17.5,17.5,0,0,1,.5,3.3c.1,1.5.7,1.8,2.1,1.2s1.2.5,1,1.2c-.6,2.4-2,3.3-4.1,2.3s-1.6-1.2-2.9-.3-2.9,1.6-5.3-.7A1.5,1.5,0,0,0,62,152.1Z"/><path class="cls-43" d="M119.4,110.5c0,3.2-.1,6.4-.1,9.7a2.5,2.5,0,0,0-2.1.7c-2.9,2-5.1,2-7.5.3s-2.9-4.2-2.2-7.3a7.2,7.2,0,0,1,2.7-4.4c.8-.6,1.8-1,2.6-.1a3.8,3.8,0,0,1,1,2c.1,1.7-1,2.9-2.1,4.1a2.1,2.1,0,0,0-.3,3,2.8,2.8,0,0,0,3.7.9l.5-.2c2.8-1.6,2.8-1.6,3-4.6C118.7,113.2,118.2,111.7,119.4,110.5Z"/><path class="cls-2" d="M216.6,265.2c-.4,2-.8,4,.7,5.8a1.4,1.4,0,0,1,.1,2c-2.2,3.9-2.1,4,1,7.2h-5.2c-3.5.2-4.2-.4-4.5-3.9-.1-.4,0-.9-.1-1.4s-.9-1.2-1.8-.9l-1.8.6-.5-.4c-.9-2.8.5-4.9,2.9-4.8,3.9.1,2.6,4.3,4,6.7,1.6-2.8-1.1-5.3-.3-7.9l.5-.5c1.1.6,2,.8,2.7-.6S215.3,265.2,216.6,265.2Z"/><path class="cls-44" d="M220,203.5l6.9-9.6c.2,1.1.6,2,2.1,2h3.7c.6.4.3,1.5,1.2,1.7h-.1c2.4,4.1-2.3,2.8-3.3,4.4l-1.2.5c-1.3.6-3.5-.1-3.7,2.1s1,2.2,2.3,2.6,1.8.6,2.1,1.7C224.8,210.8,222,209.3,220,203.5Z"/><path class="cls-2" d="M277.8,96.9c.3.4.8.8.8,1.2-.3,3,1.5,5.9.2,8.9,1,3.3-.4,6.6,0,9.9a30.1,30.1,0,0,0,.5,4.2,5.9,5.9,0,0,1,0,3.7,4.7,4.7,0,0,0-.4,2.8c1,2.9.2,5.6,0,8.4s.5,4.7.8,7.1v9.6c.7,4.6,1.7,9.3.4,14a1,1,0,0,1-1.5.4c-2.4-4.5-.9-9.3-1.2-13.9a11.3,11.3,0,0,1,0-2.6c.4-4.5-.6-8.9-.9-13.4s0-6.2-.1-9.4.1-6.2,0-9.4v-1.7c.5-6.4-.8-12.8.8-19.1Z"/><path class="cls-2" d="M145.5,275.3c.8,1.9,1.5,3.8,2.4,5.7s3.5,2.5,4.7.2a40,40,0,0,0,2.3-5.7c.7-2,1.2-3.9,1.8-5.9a3.2,3.2,0,0,0,.2,1.4c.1.4.4,1,.7,1.1s.8-.3,1.1-.6a1,1,0,0,0,.4-.8c.1-1.7,1.1-2.1,2.5-1.9h1c.1.2.1.4.2.6a4,4,0,0,1-.9,2.1c-3.9,6.7-2.5,9.3,5,9.4l.6.4c-.5.6-1,1.3-1.5,1.8a3.2,3.2,0,0,1-4,.7,20.9,20.9,0,0,1-3.9-2.7,25.6,25.6,0,0,1-2.5-3.3,28.7,28.7,0,0,1-1.4,3,12.4,12.4,0,0,1-1.7,2.3,3.1,3.1,0,0,1-4.9-.3C145.8,280.6,144.7,278.2,145.5,275.3Z"/><path class="cls-2" d="M57.9,253.3c.8-1.8,3-1.4,4.1-2.6s1.1-.7,1.7-.1c3.1,3.1,4.1,3.3,7.6.9a2.3,2.3,0,0,1,2.9-.1,1.5,1.5,0,0,0,2.4-1.2,13.5,13.5,0,0,0,.4-2.8c0-1.4-.1-2.9-.2-4.3-.2-4.9-.9-5.1,5-5.2-.4,1.4-1.9,1-2.6,1.7a2.3,2.3,0,0,0-.6,1.2,1,1,0,0,0,.8.9c1.2.4,2.5.4,2.6,2.2l-.5.4c-1.7,3.1-1.5,4,1,5.4l.6-.2a2.1,2.1,0,0,1,.1,3,2,2,0,0,1-3,.4c-1.5-1.2-2.7-.9-4.3-.4a59.8,59.8,0,0,1-8.4,1.8,5.9,5.9,0,0,1-2.2-.5C61.5,252.6,61.5,252.6,57.9,253.3Z"/><path class="cls-45" d="M202.5,78.6l-2.1-1.1a1.2,1.2,0,0,1,.2-2l.4-.2c.9-.5,2.7.2,2.7-1.2s-1.3-1.6-2.1-2.3-2.3-2.7-1.6-4.6a4.1,4.1,0,0,1,3.8-3.2,3.3,3.3,0,0,1,2,.9c.7.8,0,1.9-1.3,2.4s-1.4,1.1-.4,1.9,2.3,1.7,3.3,2.7a3.2,3.2,0,0,1,.1,4.4A7.6,7.6,0,0,1,202.5,78.6Z"/><path class="cls-46" d="M130.8,72a12.1,12.1,0,0,1,1.9-2c1.2-.9,2.1-.9,3.1-.1a2.5,2.5,0,0,1,.5,3.4,16.3,16.3,0,0,1-2.3,2.9c2.3,2.3,3.3,2.6,5.4,1.6s1.5-1.2,2.3-1.6a1.1,1.1,0,0,1,1.2.3,1.3,1.3,0,0,1,.1,1.2,5.8,5.8,0,0,1-4,3.1,7.1,7.1,0,0,1-8.3-3A4.4,4.4,0,0,1,130.8,72Z"/><path class="cls-2" d="M42.7,216.5c.2,1.3.5,2.7.7,4.1s.1,1.6.3,2.4a2.2,2.2,0,0,0,2.3,1.9,1.9,1.9,0,0,0,1.7-2,18.2,18.2,0,0,0-.1-3.3c-.2-2.6-.5-5.3-.8-8.2l5-.3v6.5a11.6,11.6,0,0,0,1.6,6.8,2.1,2.1,0,0,1-2-1.7c-.2-.6-.2-1.3-.4-1.8a.9.9,0,0,0-.8-.5c-.2.1-.6.3-.6.5a7,7,0,0,0-.3,1.4,3.2,3.2,0,0,1-.2,1.4c-.5,1.7-2.2,2.9-3.5,2.7a3.9,3.9,0,0,1-2.9-3.3C42.6,220.9,42.7,218.7,42.7,216.5Z"/><path class="cls-2" d="M134.9,222.8c-2.8,2.7-6.2,1.9-9.4,1.7a27.7,27.7,0,0,1-5-1c-.4-.1-.6-.7-.9-1,1.3-1,1.3-2.4,1.4-3.8.8-6.3,2-7.6,8.4-8.8l.7.2a2.9,2.9,0,0,1,.7,1.2,3.9,3.9,0,0,1-.5,3.5c-1.3,1.8-3.4-.3-4.8,1,1.9,1.8,1.9,1.8,4.5-.8,2.4-.3,3,1.5,3.2,3.2s-2.9,2.6-4.4,4c2,.5,3.8-.9,5.6.1Z"/><path class="cls-41" d="M65.4,272.5c-1.9.3-2.6,1.7-2.8,3.4s0,2.8,0,4.3a12,12,0,0,1,0,1.9c0,1-.3,1.9-1.5,2.1a1.8,1.8,0,0,1-1.9-1.7c-.2-3.1-.3-6.3-.3-9.5,0-.5.6-1.1,1-1.4a15.2,15.2,0,0,1,6-2.9,12.2,12.2,0,0,0,1.7-.7l.3.2.3-.2c.7.3,1.7.1,2.1,1.1h-.1c.8.4.7,1.1.4,1.7s-3.4,1-5.1,1.8Z"/><path class="cls-2" d="M220,203.5c1,.4,1,1.4,1.4,2.2a5.8,5.8,0,0,0,4,3.2c1.5.5,3.1.8,4.4-.5,4.3-2.8,9.3-.7,13.8-2.2s10.5-2.6,16-2.3a6,6,0,0,1,2.3.1l.6.5a3.4,3.4,0,0,1-3.1,1.9,52.1,52.1,0,0,0-15.1,3.1,5.4,5.4,0,0,1-1.8,0c-3-.1-6.1-.3-9.1-.2a27.2,27.2,0,0,0-4.6,1c-1.9-.1-3.7.1-5.5-.9s-2.1-1.1-3.9-3.4l-4.1,3.9a2.8,2.8,0,0,1-3,1Z"/><path class="cls-2" d="M180.8,6.8c-3.1.2-6.3.6-9.5.6H126.5a37.8,37.8,0,0,1-4.7-.6c1.6-.1,3-.6,4.7-.2s3.5-.4,5.2-.2a8,8,0,0,0,4.6-.3,2.3,2.3,0,0,1,1.4-.1c7.5,1.4,14.9.6,22.4.5,3,0,6.1.5,8.9-.2s6.6.7,9.8-.4C179.3,5.7,180.2,6.5,180.8,6.8Z"/><path class="cls-47" d="M225.8,36.2c.4,1.3.7,2.7,1.1,4-1.2-.2-1.5.8-2.2,1.5a4.3,4.3,0,0,1-4.7,1.6,1.9,1.9,0,0,1-1.7-1.9,18.6,18.6,0,0,1,1-2c.8-.3,2-.4.9-1.7s-1.8-1.8-1.9-3.1a5.7,5.7,0,0,1,3.4-6.2,4.9,4.9,0,0,1,2.7-.2c.3,0,.8.7.8,1.1s-.5,1-.7.9a2.8,2.8,0,0,0-2.8,1.4,1.5,1.5,0,0,0,0,2.1,16.9,16.9,0,0,0,2.8,2.6C224.7,36.5,225.4,36.3,225.8,36.2Z"/><path class="cls-48" d="M223.1,148.7a2.9,2.9,0,0,0,1.3-2.3c-.1-2.4-.1-4.8-.1-7.1s.2-2.5,2.3-2.8l6.1-1.1,2.8,2c-1.1,1-2.6,1.1-3.9,1.9s-2,2.5-1.5,4.5c1.2,4.4.9,4.6-3.8,4.6a2.3,2.3,0,0,0-1.4.4Z"/><path class="cls-49" d="M224.9,148.8c.1-1.5.4-1.9,1.3-1.8,2.8.4,2.8.4,4.4-.5-.6-.8-1.2-1.5-1.7-2.3s-.9-3.6.8-5.1a6.3,6.3,0,0,1,5.8-1.7c.3.9.5,1.9-.6,2.5s-1.4.5-2.1.9-1.3,1.4-.6,2.3l1.4,1.8c1.4,2,.8,4.1-1.5,4.9a6.6,6.6,0,0,1-5.5-.1A14,14,0,0,1,224.9,148.8Z"/><path class="cls-2" d="M118.5,218.9c-1.6-1.8-1.2-4.1-1.5-6.2-.1-.4.6-1.2,1.1-1.5l5.6-3.5a3.2,3.2,0,0,1,1.4-.3h10.5c1.3.1,2.2.8,1.9,2.2-.6,3.6.2,7.2.1,10.8-.1,1.7-.1,1.7-2.7,2.4l-.3-.2c.3-2.5.9-5-1.1-7.2s-.3-3.6.8-5.3c-1.5-.4-2.2.3-3.2.5a1.2,1.2,0,0,1-1.2-.4h.1c-6.3-1-9.2.9-10.6,6.9A2.6,2.6,0,0,1,118.5,218.9Z"/><path class="cls-50" d="M118.5,218.9c0-1.8-.1-3.5,0-5.3a2.6,2.6,0,0,1,.8-2c2.3-1.1,4.6-2.2,6.9-3.1s3.2-.2,3.8,1.8a25.5,25.5,0,0,0-3.9,1.3c-2.5,1.1-4.1,2.9-3.8,5.8,0,1.1.2,2.2.1,3.3s-.4,1.9-2.8,1.8C119.2,221.3,118.9,220.1,118.5,218.9Z"/><path class="cls-2" d="M176.2,221l-.3,1.4c-1.6,4-1.2,4.8,2.9,5.3a18.2,18.2,0,0,0,3.3.1l26.3-.2c2.1,0,3.8-.3,4.9-2.2a2.4,2.4,0,0,1-2.3,3H195.2c-1.8.1-3.5.5-5.2.6-4.2.2-8.3.3-12.5.2a3.3,3.3,0,0,1-3.2-3,12.4,12.4,0,0,1,0-4.3C174.5,221.1,175.4,221,176.2,221Z"/><path class="cls-51" d="M161.7,33.5c-1-1.1-2.4-.7-3.6-.9s-2.1-.5-2.2-2.3,0-1.9-.1-2.9-1.1-.6-1.8-.5,0-1.5-1-1.9a2.1,2.1,0,0,1-1-1.4c0-.9.8-1.3,1.6-1.4l1.9-.2,6.7-.6a8.8,8.8,0,0,1,2.8,0,2.6,2.6,0,0,1,1.1,1.4c.1.3-.3,1-.6,1.2a11.2,11.2,0,0,1-3.1,1l-5.6.6v6.1c1.7.4,3.3-.1,4.8-.1a1.2,1.2,0,0,1,1,.7C162.9,33,162.3,33.4,161.7,33.5Z"/><path class="cls-2" d="M70.5,270.8l-.3-1.8c1.2-.4,2.4-1,3.6-1.3a22.1,22.1,0,0,1,3.7-.8c1.4-.2,2.3.6,3,1.8a10.8,10.8,0,0,1,1.5,5.5c-.1,2.2-.1,4.4-.1,6.7s-.5,2.7-2.2,3.2a11.9,11.9,0,0,0-2.6,1.1c-2.6,1.7-4.9.4-7.2-.6-.6-.2-1-1.2-1.3-1.9a8.7,8.7,0,0,1-.1-2.3c0-3.5,0-3.5,3.7-4a1,1,0,0,0,.4.5c-.2,1.8-2.7,3.4-.7,5.3s3.3.7,5,.3,3-2.6,2.9-4.9a16.7,16.7,0,0,0-.3-3.8c-.9-3.9-2.1-4.6-6.1-3.3a8.6,8.6,0,0,1-2.3.5Z"/><path class="cls-35" d="M182.6,112.7c0-6.1,3.8-9.7,9-9.4a1.8,1.8,0,0,1,.9.4c.3.3.7.7.7,1a1.3,1.3,0,0,1-.7,1c-1,.4-2.2.5-3.2,1-2.7,1.3-3.4,2.8-3.1,5.8.1,1.2.4,2.5.4,3.8a2.5,2.5,0,0,1-1.1,1.4,1.3,1.3,0,0,1-1.8-1A37.8,37.8,0,0,1,182.6,112.7Z"/><path class="cls-52" d="M98.2,142.5v-7.2c.1-.3.6-.9.8-.9s1.3.4,1.4.8a12.1,12.1,0,0,1,.7,3.7c.1,4,0,7.9-.1,11.9a5.8,5.8,0,0,1-.4,1.8c-.2.3-.7.8-1,.8s-1.1-.3-1.2-.6a25.4,25.4,0,0,1-.7-4.7,54,54,0,0,1,.3-5.6Z"/><path class="cls-53" d="M167.2,75.6l2.1,2.9c-.7-.1-1.3-.8-2.2-.2-2.9,1.9-5.6,1.5-8.3-.6-.7-.6-.5-1.4-.8-2.1s-.1-1-.1-1.4.3-1.5.7-2.2a1.1,1.1,0,0,0,.3-.8,2.6,2.6,0,0,1,.8-1.1h0a2.8,2.8,0,0,1,1-.9c1.3-.2,2.5-.2,3.3,1.2a2.9,2.9,0,0,1-.3,3.1L162,75.6a1.4,1.4,0,0,0,.5,1.1C164.3,77.4,165.8,76.6,167.2,75.6Z"/><path class="cls-2" d="M126.1,300.5V300c.1-1.8-.3-3.7.4-5.2s2.5-2.9,3.9-4.2a3.2,3.2,0,0,1,1.7-.6h3.8c5.8,0,6.5.7,7.5,6.8l-.6.2c-.3-.1-.7-.1-.9-.3-8.3-4.5-8.3-4.5-14,3.2a1.7,1.7,0,0,1-1.6.8Z"/><path class="cls-2" d="M7.3,13.5c-.1,2.1-.4,4.2-.3,6.2.4,4.7,3.4,7.2,8,7.1a6.8,6.8,0,0,1,1.9-.3,4.9,4.9,0,0,1,2.1.8l7.1,6.5c1.4,2.4-.3,2.8-2.1,3.1l-.6-.4a7.3,7.3,0,0,0-.9-2.2c-.8-1.2-1.9-2.1-2.6-3.4s-3.3-3.3-6.2-3.1a8.6,8.6,0,0,1-8.1-6.2,3.4,3.4,0,0,1-.1-1c.2-1.8.4-3.7.7-5.6S6.9,14,7.3,13.5Z"/><path class="cls-54" d="M198.9,41.9l1,2.7h-3.8c-2.7-.1-5.4-.4-6.8-3.3a2.9,2.9,0,0,1,.2-3.9,35.9,35.9,0,0,1,3.5-3.2,1.3,1.3,0,0,1,2.1.3,2.2,2.2,0,0,1,.1,2.1c-.6,1.1-1.7,1.8-2.4,2.9s-.1,1.2.2,1.5C194.8,42.7,196.9,42.2,198.9,41.9Z"/><path class="cls-55" d="M110.8,151.1l4.5-1.2a22.6,22.6,0,0,1-1.8-3.4,3.5,3.5,0,0,1,1.2-4.6,1.4,1.4,0,0,1,2.1-.2,1.2,1.2,0,0,1,.2,2,1.6,1.6,0,0,0-.4,2.4l1.1,1.5c1,1.2,1.5,2.5.6,3.9a4.7,4.7,0,0,1-5,1.6c-.9-.3-1.5-1.2-2.6-.6A.9.9,0,0,1,110.8,151.1Z"/><path class="cls-56" d="M79.6,144.3a9.6,9.6,0,0,1,2.2-.8,6,6,0,0,1,2.3.1,1.4,1.4,0,0,1,.7,1.1c.1.3-.3,1-.5,1-3.2.5-3.8,2.6-3.5,5.2,0,.5.1,1.1-.2,1.4a2,2,0,0,1-1.2,1.2,1.6,1.6,0,0,1-1.5-.8,46.1,46.1,0,0,1-1.6-6.4C76,144.5,76.6,144.1,79.6,144.3Z"/><path class="cls-57" d="M110.8,151.1a6.6,6.6,0,0,0-.1,1.4c-2.2,1.6-3.4,1.7-5.3.3s-2.7-3.3-1.8-5.3a6.9,6.9,0,0,1,2-2.5,1.7,1.7,0,0,1,2.5,0,2.8,2.8,0,0,1,.7,2.1,11.9,11.9,0,0,1-1.3,2.5,2.7,2.7,0,0,0-.1,1.2l1.6.4Z"/><path class="cls-58" d="M48.4,53.7H46.5c-.7-.4-.4-1.5-1.2-1.6h-.1c-.1-.9.2-1.4,1.2-1.2l1.2.4c.4.2.7.6,1.2.5h0a2,2,0,0,0,1.1-.3L61.8,46h.3c.2.2.4.3.5.6V47c-1.1,2.7-3.3,4-5.8,4.9-.5.5-1.3.3-1.8.8l-.4.3h-.4C52.4,53.8,50.3,52.7,48.4,53.7Z"/><path class="cls-59" d="M231.4,172.2c-1.7.3-2,1.7-2.4,3.1-.9,3.5-2,6.9-3,10.4a13,13,0,0,1-1,1.5c-1-3.1-1.3-8.4-.5-10.4s-.9-2.8.5-4a2.5,2.5,0,0,1,2.3-1.4A29.7,29.7,0,0,1,231.4,172.2Z"/><path class="cls-2" d="M110.7,6.7c-3.9.1-7.9.2-11.8.1l-29-.5L68,5.8h39.2C108.5,5.8,109.8,5.5,110.7,6.7Z"/><path class="cls-2" d="M96.1,270.9c-2.2-1.4-4.5-2.2-6.9-.2s-1.4-.1-2.1-.4a1.5,1.5,0,0,0-2,1.3c0,3.1,0,6.3.1,9.4a3.2,3.2,0,0,0,.3.9,1.6,1.6,0,0,0,2.7.4,11.2,11.2,0,0,0,1.3-2.4c0,.7.1,1.5.1,2.3a1.8,1.8,0,0,1-1.8,1.9,9.1,9.1,0,0,1-2.3-.1,1.5,1.5,0,0,1-1.5-1.5c0-3.8-.1-7.6,0-11.4a2.2,2.2,0,0,1,2.2-2.1q4.5-.2,9,0C96,269.1,96.2,270.1,96.1,270.9Z"/><path class="cls-7" d="M263.4,3.9c.9-1.9,1.4-2.2,2.6-1.5a15.9,15.9,0,0,1,2.7,1.8c.6.6,1.4,1.6,1.3,2.4-.3,2.9,1.1,4.7,3.5,6.1.2.1.3.5.5.8-2,2.1-3.9,1.9-5.9,0h0C267.6,9.8,267.6,5.8,263.4,3.9Z"/><path class="cls-2" d="M168.4,267.8c1.3.1,2.6,1.1,3.9-.3a2.3,2.3,0,0,1,1.7-.5c1.3-.2,1.9.5,2.1,1.8l-.5.4c-2.3.9-2.1,2.8-2.2,4.7s.4,3.8-1.1,5.4h-.2c-1.7-1.4-2.5.5-3.7,1l-.4-.5c.8-3.8.4-7.7,0-11.5Z"/><path class="cls-2" d="M137.7,249.7c-.3.5-.4,1.4-.9,1.6l-6.4,2.8a1.7,1.7,0,0,1-1.4.1c-2.6-1.1-5.3-.7-7.9-.7s-4.1-1.3-4.6-3.8l.3-.3c6.8,2.8,13.5.7,20.3-.1Z"/><path class="cls-2" d="M205,274.7c-.1.9-.1,1.9-.2,2.8s-.6,2.8-2.3,2.8-3.2-.8-3.3-2.6a29.9,29.9,0,0,1-.1-5.2c0-1.5-.3-3.4.4-4.6s2.5-1.1,3.6-1.8,4.4-1.7,6.6-.2l-.4.5a15.4,15.4,0,0,1-3.5,1.5c-4.1,1.5-5.6,4.1-4.2,8.4,1.7.6,1.5-2.4,3.2-1.8Z"/><path class="cls-2" d="M53.4,224.4c2.8,1.3,4.9.2,6.7-1.8l1,.5a3.9,3.9,0,0,0,5.3.2c1.1-.8,1.6-.4,2,.7a3.6,3.6,0,0,0,.8,1.2,1.2,1.2,0,0,0,1.9-.6c.1-1.3.2-2.5.2-3.8,1.6,1.4,1.1,3.2.7,4.9s-.7.6-1.1.7a1.7,1.7,0,0,1-1.4.1c-2.3-1.1-4.9-.8-7.2-1.3s-3.1-.3-4.4.8a2.9,2.9,0,0,1-3.2.2C54.1,225.9,53.8,225,53.4,224.4Z"/><path class="cls-60" d="M112.3,104.8l-1.7-1.6c-.7-.8-1.3-.8-1.9,0a18.4,18.4,0,0,1-1.7,2.2,1.9,1.9,0,0,1-1.7.1c-.2,0-.4-.9-.2-1.2a55.8,55.8,0,0,1,3.2-5.2,1.9,1.9,0,0,1,3.2.2c1,1.7,1.9,3.5,2.9,5.3C113.7,105.3,113,105,112.3,104.8Z"/><path class="cls-2" d="M95.4,238.1c.5-.6,1-1.5,1.6-1.6,2.2-.2,2.9-1.1,2.4-3.3s.5-1.7,1.7-1.7,1.9.7,1.8,2h-.4l.2.4.2-.4c.2.3.7.6.7.9a2,2,0,0,1-.6,1.2c-2,2.2-2,2.2-.8,4.6a5,5,0,0,1,.8,2.6,45.1,45.1,0,0,1-.1,5.2c-3-1.1-1.2-4.3-2.7-6.1a4.1,4.1,0,0,1-.7-1.1c-.5-1.8-2.2-2-3.7-2.3Z"/><path class="cls-61" d="M100.2,240.9a2.2,2.2,0,0,1,2,2.1c.2,1.7.5,3.3.7,5v.3l.2.3c.8,1.3,1.3,2.6.1,3.8s-1.8.8-2.7-.2h.1c-1.6-.9-.2-2.7-1.1-3.8h.1C97.3,245.7,97.2,243.2,100.2,240.9Z"/><path class="cls-2" d="M49.6,239.7a2.9,2.9,0,0,0,3.4.8l4.2-1.3c1.4,1.8,1.4,3.8,1.5,6l-6.4.6c0-1.6.5-2.7,2.5-2.6.3,0,.7.2.9,0a6.4,6.4,0,0,0,.8-1.4c.1-.1-.7-.7-1-.6s-3.1.6-4.6.6S49.4,240.8,49.6,239.7Z"/><path class="cls-2" d="M213.2,225.5a8.2,8.2,0,0,0-2.2-4.1c-1.7-1.8-3.3-3.7-5.1-5.9,2.2-1.4,4-3.3,6.3-4.5a2.3,2.3,0,0,1-.6,2.1c-2,2.7-2,4.7,0,7.2s1.8,1.9,2.5,2.9A1.4,1.4,0,0,1,213.2,225.5Z"/><path class="cls-2" d="M107.8,293.8a7.8,7.8,0,0,1-.5-1.4c-.2-1.5,1.1-2.8,2.2-2a7.5,7.5,0,0,0,7.2,1c.5-.2,1.2.2,1.6.5s.6.9,1,1.1c2.9.8,3.2,3,3,5.5v.2a17.6,17.6,0,0,0-14.1-4.7Z"/><path class="cls-62" d="M206.5,111.8c0,1.4.1,2.9,0,4.3a2,2,0,0,1-1.2,1.2,1.7,1.7,0,0,1-1.4-.9,21.3,21.3,0,0,1,.1-9.4c.1-.4.7-.9,1-.8a2,2,0,0,1,1.5.8c.2,1.6.2,3.2.3,4.8Z"/><path class="cls-2" d="M268.1,13.5a9.9,9.9,0,0,0,5.9,0l.9.9c.3,1.9.7,3.8,1,5.8l-.6.2c-1.2-.3-1.9-1.8-3.4-1.5l-1.1.4a1.8,1.8,0,0,1-2.5-1C268.2,16.7,268.2,15.1,268.1,13.5Z"/><path class="cls-2" d="M41.6,272.6c-.4-3.7,2.2-6.1,4.1-8.6a25.2,25.2,0,0,1,4.5-4.1,3.6,3.6,0,0,1,4-.3c.5.2.6,1,.9,1.5l-.4.5c-4.5,1-7.4,3.9-9.6,7.6-.8,1.4-1.2,3-2.9,3.6Z"/><path class="cls-63" d="M32.5,259.3h0a1.4,1.4,0,0,1,1.3,1.2h-.1c2.4,2.3,1.2,5.6,2,8.3a2.9,2.9,0,0,1-.4,1.6,1.5,1.5,0,0,1-2.4.4C29.9,268.7,29.7,262.1,32.5,259.3Z"/><path class="cls-2" d="M55,289a2.1,2.1,0,0,1-2.9.7c-2.4-1.9-5-1.8-7.7-1.7s-2.3-.9-3.1-2.2a9.9,9.9,0,0,1-.8-9.4,1,1,0,0,1,.5.4c1.1,1.6.8,3.6,1.5,5.4s2.3,4,4.9,3.4,5.4,1,7.4,3.1Z"/><path class="cls-2" d="M83.7,235.4l-5.2.3c-1.6.1-1.9-.2-2.1-1.8s-.3-2.9-.4-4.3c1.3.4,1.1,1.8,1.7,2.6s1.3.8,2.5-.3h0a2.3,2.3,0,0,1,1.6-2.7c1.1-.5,2-.1,2,1.1S83.7,233.7,83.7,235.4Z"/><path class="cls-64" d="M158.7,132.5a2.5,2.5,0,0,1-.1.9l-6.6,5.4c-.4.3-1.3-.4-1.3-1a6.1,6.1,0,0,1,.3-1.3,14.6,14.6,0,0,1,5.5-5C157.4,131,158.7,131.7,158.7,132.5Z"/><path class="cls-2" d="M13.8,210.2h4.8a5.3,5.3,0,0,1-4.1,2,6.5,6.5,0,0,0-2.4,0c-3.1,1.3-4.4-.3-5.7-2.9s-1.4-2.4-1.2-3.9c.3.4.7.6.9,1C7.8,209.5,10.3,210.8,13.8,210.2Z"/><path class="cls-7" d="M279.7,167.1V152.7c1.6,1.9,1.2,4.4,1.8,6.6s0,4.3.7,6.5-.5,2.4-1.5,3.2a1.8,1.8,0,0,1-1.3-.9A1,1,0,0,1,279.7,167.1Z"/><path class="cls-2" d="M122.4,239.9c.8.2,1.5.5,1.7,1.4a28.1,28.1,0,0,1,.1,2.9,2.9,2.9,0,0,0,1.9,2.5l.4.6c-.2,3.3-2.3,3.5-4.7,2.6s-2.6-2.9-1.4-5,1.1-3.3,1.9-4.9Z"/><path class="cls-2" d="M18.6,210.2a4.7,4.7,0,0,1,5.7-.3c3.3,1.8,6.4,1.4,9.6.3a2.6,2.6,0,0,1-2.4,1.9,20.4,20.4,0,0,0-6.5.9,2.1,2.1,0,0,1-2.5-.8A3.8,3.8,0,0,0,18.6,210.2Z"/><path class="cls-2" d="M72.2,276.4a8.7,8.7,0,0,0-.7-1.7,7.6,7.6,0,0,0-1.2-1.9l.6-.7,1.7-.8c1.9-.4,3.8-1,5.1,1a3.4,3.4,0,0,1-5.3,4.3Z"/><path class="cls-2" d="M1.3,173.8c.3.7.9,1.4.9,2.1a59.8,59.8,0,0,0,.9,9.4,37.5,37.5,0,0,1,.1,6.7c-.9-2.2-1.8-4.3-2.6-6.5a2.2,2.2,0,0,1,0-1.4C1.9,180.7,1.1,177.2,1.3,173.8Z"/><path class="cls-2" d="M224.9,272.7c-1.5-1.4-3.1-2.7-4.5-4.1a1.5,1.5,0,0,1,.1-1.6c.7-.9,1.8-1.4,2.5-2.2a2.3,2.3,0,0,0,0-1.8,1.9,1.9,0,0,0-1.5-.8,15.8,15.8,0,0,0-3.1.9c0-.8.2-1.7,1.2-1.8h2.8a1.6,1.6,0,0,1,1.5,1.6,4.1,4.1,0,0,1,.1,1.9c-1.1,2.7-.5,5.1.9,7.5C225,272.3,224.9,272.5,224.9,272.7Z"/><path class="cls-2" d="M126.1,246.7c.3-.2.4-.5.7-.6,3-1.1,3-1.1,3.1-4.1l.7-.2h.4c1.6,1.9,5.5,3.6,3.2,6.4s-5.5.7-7.9-1.3Z"/><path class="cls-2" d="M100.2,240.9a4.8,4.8,0,0,0-1,3.5l.3,4.1c-1.8,0-2.7,1.4-4,2.2l-.6-.6c-1.1-2.9.2-5.3,1.5-7.7s1.9-2.7,3.9-1.4Z"/><path class="cls-2" d="M240.4,256.4c0,1.4-.2,2.8-1.7,3.6s-4.4.7-4.8-1.7-.9-5.9.5-8.8l.6.4c.8,1.2.7,2.7.8,4,.1,2.9,1.5,3.5,4,2.2Z"/><path class="cls-2" d="M64.7,5.8H48.4c.1-.7.3-1.8,1.3-1.5a12.8,12.8,0,0,0,7,0c1.8-.5,3.9.4,6-.1C63.2,4,64,5.2,64.7,5.8Z"/><path class="cls-2" d="M227,3.9c-.3.2-.5.5-.8.5-7.4.6-14.8,1.8-22.3,1.3a6,6,0,0,1,2.1-.8,46.4,46.4,0,0,1,5.3-.1,12,12,0,0,0,3.3-.1C218.7,3.4,222.8,3.9,227,3.9Z"/><path class="cls-65" d="M64.6,29.9a19.2,19.2,0,0,0-2.2-1.8,2,2,0,0,0-1.7-.2c-1.2.4-1.7.1-1.6-1.2s-.1-.9-.1-1.4,0-1.1.2-1.2a1.5,1.5,0,0,1,1.3,0c2.5,1.5,4.8,3,6.1,5.7.6,1.1.8,2-1,1.9-.2-.2-.2-.3-.1-.6S65.1,30.2,64.6,29.9Z"/><path class="cls-2" d="M239.4,243.8c.4.3.6.8,1,1a4.8,4.8,0,0,1,2.9,5.2c-.2,2.6-.2,5-2.9,6.4l-.2-.2c-2.1-2.5,1.9-5.3-.4-7.7a3.7,3.7,0,0,1-1.2-2.3,3.5,3.5,0,0,1,.3-2Z"/><path class="cls-66" d="M111.7,46.1l-.9-8.7c1.3-1.5.6-3.3.8-5s-.4-2.6.9-3.5v7A31.5,31.5,0,0,0,113.8,46Z"/><path class="cls-67" d="M192.6,28.2c-.2-.3-.7-.8-.6-1,1-2.3,2-4.6,3.2-6.8.1-.3.8-.5,1.1-.4s.9.6.8.9a14,14,0,0,1-3.5,7.1Z"/><path class="cls-68" d="M234.6,35.6c.1.7,0,1.5.1,2.3a1.9,1.9,0,0,1-1.6,2.1,2.7,2.7,0,0,1-3-.8,1.3,1.3,0,0,1,0-1.2c.3-.6.9-.9,1.3-1.3a3.9,3.9,0,0,0,1.1-3.9l1.2,1.3Z"/><path class="cls-69" d="M100.8,65.8c-.3-.7-.6-1.2-.5-1.4a5.3,5.3,0,0,1,1.1-2.1c1.9-2.7,4.1-2.8,6.4-.1a.8.8,0,0,1,.1.8c-.1.3-.5.4-.7.5h-.9a2.1,2.1,0,0,0-3.2.7A8.6,8.6,0,0,1,100.8,65.8Z"/><path class="cls-2" d="M106.3,229.6c.1,3.3.3,6.6.4,9.9s.2,3.5.4,5.2c-.4-.2-1.1-.4-1.2-.7a38.3,38.3,0,0,1-.6-13.5C105.3,230.2,105.9,229.9,106.3,229.6Z"/><path class="cls-2" d="M32.5,259.3c-.4.4-1.1.8-1.3,1.3a10.4,10.4,0,0,0,1.2,8.9c.5.9,1.5,1.8,2.6.3s2.1-.2,2.2,1.3l-.3.6H35.5c-3.7.7-5.2-2.3-5.3-5.1a34.9,34.9,0,0,1,0-5.6C30.3,259.6,31.3,259.3,32.5,259.3Z"/><path class="cls-2" d="M263.4,3.9c1.8,0,2.8,1.3,4.1,2.3a2.3,2.3,0,0,1,.6,1.6c.1,1.9,0,3.9,0,5.8a31.7,31.7,0,0,1-1.2-4.1,4.7,4.7,0,0,0-3.1-3.9L260.5,4l1.9-.2Z"/><path class="cls-2" d="M87.6,244.9l-1.1-.9a2.9,2.9,0,0,1-.4-3.1c.6-1,1.7-.7,2.6-.9s2.8,1.8,4.6,1.8c.2.2.4.3.5.5-.1,2.9-.6,5.2-3.7,1.9-1.1-1.1-1.5-.8-2,.3Z"/><path class="cls-2" d="M49.5,247.9a.9.9,0,0,1-.1.5c-.6,1.3-1.5,2.5-.4,4a4.9,4.9,0,0,0,4.6,1.8l4.2-.9c-.9,1.6-2.4,1.9-4,2.1a8,8,0,0,1-5-1.3c-1.6-1.1-2-4.2-.6-6C48.4,247.9,49.1,248,49.5,247.9Z"/><path class="cls-2" d="M35.8,260.9c.3-.5.6-1.2,1.1-1.4s2.7.1,2.7,1.5c.1,3.4.1,6.8,0,10.1,0,1.4-.9,1.5-2.7.6v-.2c.6-3.4,1.7-6.9-.9-10Z"/><path class="cls-2" d="M135.8,240c-.1,2,1.5,2.9,2.8,4s.9,2.5.9,3.9-.8,1.6-1.8,1.8l-.2-.2c-1.3-2-1.5-4.5-3.2-6.3s-1.1-2.6.8-3.4Z"/><path class="cls-2" d="M23.6,37.5a45.6,45.6,0,0,0,0,6.4,4.4,4.4,0,0,0,1.3,2.4c1.1,1.2,2.4,2.3,3.7,3.5-2.5.3-3.5-1.8-5-3.1a4.2,4.2,0,0,1-1.2-3.4c.1-1.6-.1-3.2.1-4.7a4.3,4.3,0,0,1,.9-2.1h0a.7.7,0,0,1,.4.6Z"/><path class="cls-2" d="M124.2,270.7c.7,2.3,1.3,4.5,2,6.7l-.7.3a6.4,6.4,0,0,1-3.2-1.8c-1.1-.8-2.6-1.6-2.3-3.3s2-2.1,3.6-2.2Z"/><path class="cls-2" d="M279.7,186.3c-.8,1.8-1.9,3.5-2.1,5.6s-1.1,1.4-1.7,2c-1.5-4.8,1.9-8.9,2.1-13.5a2,2,0,0,1,.9-1.1,1.2,1.2,0,0,1,1.3.6,4.3,4.3,0,0,1-.5,3.5Z"/><path class="cls-70" d="M218.3,34.6l3.7,3.5a1.5,1.5,0,0,1-.2,2.4c-1.1.9-1.6-.1-2.1-.9l-.4-.2h-.1l-.9-.9h0c-.9-.8-.2-2.2-.9-3a2.8,2.8,0,0,1,.1-.9A.8.8,0,0,1,218.3,34.6Z"/><path class="cls-2" d="M142.8,261.3c-1,1.5-.5,3,0,4.6.9,3.1,1.8,6.3,2.8,9.5-.4-.3-.9-.5-1.1-.9-.9-2.7-1.9-5.4-2.7-8.1a12.2,12.2,0,0,1-.2-3.8C141.7,262.1,142.4,261.7,142.8,261.3Z"/><path class="cls-71" d="M231.6,20.1c-.7,2.1-1.2,4.5-3.3,5.9-.2.2-.7.1-.9,0s-.5-.6-.4-.7c.9-2,1.8-4,2.8-5.9.1-.2.8-.2,1.2-.1S231.3,19.7,231.6,20.1Z"/><path class="cls-72" d="M206.8,138.3c0,2.2,0,4.5-.1,6.7-.3.6-.5,1.3-.8,1.9l-.9,1.9c-.1-3.2-.1-6.4-.1-9.6Z"/><path class="cls-2" d="M200.5,5.8a2.9,2.9,0,0,1-1.3.5l-15.5.4c.8-1,1.9-.9,3-.9Z"/><path class="cls-2" d="M100.1,222.4c.2-.6.7-1.1,1.4-.7s.7.9,1.2,1.4c2.1,2,3.1,2,5.6.3s1.5-1,2.7,1.1a20.6,20.6,0,0,0-3.2.7,5.2,5.2,0,0,1-6.3-1.6Z"/><path class="cls-2" d="M36.8,208.3a1.8,1.8,0,0,1,2.1-1.9l3.4,1.4c.1,1.2.2,2.6.2,4s.1,2.8.2,4.2a5.4,5.4,0,0,1-1-2c-.2-1.1,0-2.2-.1-3.3s-.2-2-2.1-2.5A12.2,12.2,0,0,0,36.8,208.3Z"/><path class="cls-73" d="M65.6,31.7a17.4,17.4,0,0,0,1-1.9,12.1,12.1,0,0,1,1.1,3c.1,2.3.4,4.7-.9,6.9-1-.4-.4-1.6-1-2.2S65.7,33.6,65.6,31.7Z"/><path class="cls-2" d="M35,268.7a19.2,19.2,0,0,1-1.1-3.1c-.2-1.7-.1-3.5-.2-5.2l2.1.5v.3C37.3,263.9,38.7,266.6,35,268.7Z"/><path class="cls-74" d="M48.4,46.2l2.5-1.1c2-.9,2.6-.8,3.8.9a.9.9,0,0,1-.5,1.5,8.6,8.6,0,0,1-2.3.2l-3.6-.8-.2-.4Z"/><path class="cls-2" d="M61.6,239.3c-1.3-2.8-3.6-3.7-6.5-3.1a2.2,2.2,0,0,1,.6-.7c1.5-.9,3-1.8,4.7-.8S61.8,237.6,61.6,239.3Z"/><path class="cls-2" d="M183.9,262.3a4.8,4.8,0,0,1-.9,1.1,6.8,6.8,0,0,0-2,7.2c-.3-.5-.9-.9-1-1.4a14.1,14.1,0,0,1-.1-2.9C179.9,263.2,180.1,263.1,183.9,262.3Z"/><path class="cls-75" d="M91.7,32.7l.9-1.9c2.3.2,1.1,1.8,1,2.9l-.9,8.9c-.1-2.3-.2-4.6-.2-6.9S92.6,33.5,91.7,32.7Z"/><path class="cls-2" d="M100.4,252.2a9.3,9.3,0,0,0,1.3.4,1.2,1.2,0,0,0,1.5-1.3,24.5,24.5,0,0,0-.2-2.7c2.3,2.1,2.4,3,.6,4.7s-1.2,1.2-2,.7A8.1,8.1,0,0,1,100.4,252.2Z"/><path class="cls-2" d="M196,256.5c.3.5.9,1,.9,1.4s-.7.9-1.2,1.2a2.6,2.6,0,0,1-1.5,0,1.7,1.7,0,0,1-1.7-2.2,1.6,1.6,0,0,1,2.1-1.4c.5.1.9.7,1.4,1Z"/><path class="cls-2" d="M218.4,280.2c3.7,0,6.4-1.4,7.5-5.2.1,1.6,0,3.2-1.4,4.3s-2.8,2.1-4.7,1.9S218.9,280.5,218.4,280.2Z"/><path class="cls-2" d="M39.9,21.4,39.1,23a1.5,1.5,0,0,1-2.4.6c-.9-.7-1.8-1.6-2.7-2.4Z"/><path class="cls-76" d="M62.7,45.1c.9-2,1.9-3.9,2.8-5.9.9.4.4,1.5,1,2.1a6.9,6.9,0,0,1-2.8,4.8A1.2,1.2,0,0,1,62.7,45.1Z"/><path class="cls-77" d="M189.5,37.5c-.1,1.3-.1,2.6-.2,3.9s-1.2,1.8-1.7,2.7c.4-2.5-.4-5.2.8-7.7Z"/><path class="cls-2" d="M118.4,268.8c.4-.6.8-1.6,1.3-1.7a9.2,9.2,0,0,1,3.7.1c.6.1,1.2.9,1.5,1.5a1.5,1.5,0,0,1-.7,2H124c-1.4-1.4-3.4-1.1-5.2-1.4Z"/><path class="cls-2" d="M153.2,265.1a20.4,20.4,0,0,1-2,7.7c0-2-.1-4.1,0-6.2S152.1,265.1,153.2,265.1Z"/><path class="cls-2" d="M279.7,168l1,1v8.6c.6,1.1.8,2-1,1.9h0A11.1,11.1,0,0,1,279.7,168Z"/><path class="cls-2" d="M176.1,259.2c.2.5.7,1,.7,1.5a2.4,2.4,0,0,1-.7,1.6,2,2,0,0,1-3,0,2.4,2.4,0,0,1-.7-1.6c0-.5.5-1,.7-1.5h.5a2.3,2.3,0,0,0,2,0Z"/><path class="cls-78" d="M225,172.8c.3.5.6,1.2.9,1.3s1.7-.1,1.8.9-.7,1.6-1.8,1.6H225c-.4.4-.7.4-1-.1v-2.8Z"/><path class="cls-2" d="M72.5,235.2a8.4,8.4,0,0,1-.8,1.9,2.2,2.2,0,0,0-.1,2.9h.1a5,5,0,0,0-5,.2c.2-.5.4-1.5.6-1.5C69.7,238.4,70.6,236.1,72.5,235.2Z"/><path class="cls-79" d="M181.8,275.4a2.5,2.5,0,0,1-.1-.8l1-.2c.4-.3.5-.9,1.1-1a9.6,9.6,0,0,1,2,1.2c.3.4.5,1.5.3,1.5s-1.6.9-2,.6S182.8,275.4,181.8,275.4Z"/><path class="cls-2" d="M31.9,19.4a26.3,26.3,0,0,1-3.7-2.9c-1.3-1.2-1.3-2.7-.2-4.2a6.1,6.1,0,0,0,1.7,4.2A15.8,15.8,0,0,1,31.9,19.4Z"/><path class="cls-2" d="M95.5,250.7c-.2,1.2-.1,2.6-1.9,2.7s-2.9-.2-4-2.8l.6-.3a20.8,20.8,0,0,0,5,.1Z"/><path class="cls-80" d="M59.9,32.6c1.6,1.7,1.3,3.7,1.3,5.7,0,.2-.3.5-.6.6a.7.7,0,0,1-.7-.3c-.3-1.7-.7-3.3-1-5l.6-.8Z"/><path class="cls-2" d="M120.3,232.3a11.5,11.5,0,0,1,.1-1.9c.3-1.7.8-2,2.5-1.5l2.3.5h0v.9l-.4.5c-1.4.7-2.6,1.7-4.2,1.6Z"/><path class="cls-2" d="M155.1,257.4l-2,7.7c0-1.6-.1-3.3-.1-5A2.6,2.6,0,0,1,155.1,257.4Z"/><path class="cls-2" d="M186.4,270a2,2,0,0,1-1.8-2,3,3,0,0,1,1.6-2.7c.3-.2.9,0,1.3,0l1.8.4c-.3.3-.5.8-.9,1s-2-.1-2.3,1.1A4.2,4.2,0,0,0,186.4,270Z"/><path class="cls-2" d="M109,266.9c.2,2.8.2,2.8-1.9,3.7l-2.9,1.2c.4-1.5,1-2.7,2.7-3.2A8.3,8.3,0,0,0,109,266.9Z"/><path class="cls-81" d="M86.9,204.5a4.2,4.2,0,0,1,.7,1.2c0,1.3-1,2.4-1.8,2.1a1.4,1.4,0,0,1-1.1-1.8C84.7,204.9,85.4,204.3,86.9,204.5Z"/><path class="cls-2" d="M235.5,245.7c0-.6.1-1.2.1-1.8a1.9,1.9,0,0,1,3.8-.1l-.3.3a7.3,7.3,0,0,1-3,1.9Z"/><path class="cls-2" d="M3.3,197.7a17.2,17.2,0,0,1,1.9,7.7C3.2,203.2,3.2,200.5,3.3,197.7Z"/><path class="cls-2" d="M65.8,241.1l-2.2,4.6c-2.6-.2-.7-2.2-1.2-3.3l.4-.5Z"/><path class="cls-82" d="M149.2,114.3a7.6,7.6,0,0,1,1.7,1.3c.4.6-.5,2.2-1.2,2.2s-.8-.7-1.2-1.1a6.9,6.9,0,0,1-.5-1.3Z"/><path class="cls-83" d="M59.9,42.2a2.5,2.5,0,0,1-1.1,2.4c-.2.1-.7.2-.9,0s-.7-.8-.6-1a23.9,23.9,0,0,1,1.6-3.2C59.5,40.9,59.3,41.8,59.9,42.2Z"/><path class="cls-2" d="M65.5,272.5a6.7,6.7,0,0,1,5-1.7h-.1a1.3,1.3,0,0,1,.2,1.8l-.3.3Z"/><path class="cls-84" d="M188.4,197.9c.7-1,.8-2.5,2.3-2.9-.2,1.9-.3,3.8-.5,5.7Z"/><path class="cls-7" d="M279.7,179.5l1-1.9a2.4,2.4,0,0,1,.7,3,11.7,11.7,0,0,1-1.7,2.8Z"/><path class="cls-85" d="M130.8,72a14.2,14.2,0,0,0-.1,5.8l-1.6-1c0-1.3-.1-2.5-.1-3.8Z"/><path class="cls-2" d="M89.6,250.6c-.5-.5-1.2-1-1.4-1.7a25.7,25.7,0,0,1-.6-4l.3-.2c2.9,1.1,3.2,3.1,2,5.6Z"/><path class="cls-2" d="M54.6,236.3l-2.8,1.5a18.2,18.2,0,0,0-2.3,1.5,2.2,2.2,0,0,1,1.1-2.3A5.7,5.7,0,0,1,54.6,236.3Z"/><path class="cls-2" d="M23.4,3.9H18.6a4.3,4.3,0,0,1,1-.9C21.6,1.8,21.8,1.8,23.4,3.9Z"/><path class="cls-86" d="M80.2,231.8c.6-.5.7-1.7,1.7-1.2s.6,1,.6,1.6-.4.7-.6,1.1l-1.4-1-.3-.4Z"/><path class="cls-2" d="M13,6,9.2,9.8C9.7,6.9,10.2,6.4,13,6Z"/><path class="cls-2" d="M28,7,24,4h1.3C27.9,4,27.9,4,28,7Z"/><path class="cls-2" d="M234.4,249.5c-.7-2.3-.7-2.3,1.1-3.8l.2.2c.9,1.6,1.3,3-1,3.8Z"/><path class="cls-2" d="M82,243.9a2.7,2.7,0,0,1,.9,2.4c0,1.1.1,2.1.2,3.2h-.2c-3.1-1.3-2.3-3.5-1.1-5.6Z"/><path class="cls-2" d="M40.5,276.4c-.7-2.3-.7-2.3,1.1-3.8l.2.2c.9,1.6,1.3,3-1,3.8Z"/><path class="cls-2" d="M151.2,272.8c-.1.8-.3,1.7-.5,2.6a3.8,3.8,0,0,1-1.7-3.6Z"/><path class="cls-2" d="M183.8,273.4l-1.1,1c-.6-1.3-2.1-2.1-1.7-3.8Z"/><path class="cls-2" d="M149,271.8l-1.8-4.9C149.6,267.9,149.2,269.9,149,271.8Z"/><path class="cls-2" d="M157.7,264.9c.1-2.1-.1-4.3,1-6.2,0,1.4.1,2.8,0,4.2A7.5,7.5,0,0,1,157.7,264.9Z"/><path class="cls-87" d="M195.1,206.3c-.2.9-1,1-1.3.6a20.2,20.2,0,0,1-1.4-3.4C194,203.8,194.1,205.5,195.1,206.3Z"/><path class="cls-2" d="M28,12.4c0-1.8-.1-3.7-.1-5.5C29.6,8.8,29.6,10.3,28,12.4Z"/><path class="cls-88" d="M58.9,32.7a9.9,9.9,0,0,1-1.1-2,1.3,1.3,0,0,1,.4-1c.4-.1,1.2.1,1.2.3a10.9,10.9,0,0,1,.5,2.6h-.2l-.3.2Z"/><path class="cls-89" d="M48.4,53.7c1.8-1.6,3.9-.7,5.9-.8C52.5,54.2,50.4,53.5,48.4,53.7Z"/><path class="cls-90" d="M205.2,100.7c-.7-.6-1.3-.9-1.2-1.1a2.5,2.5,0,0,1,.6-1.5c.1-.2.8.2,1.2.3A18.4,18.4,0,0,0,205.2,100.7Z"/><path class="cls-2" d="M73.5,229.6c-.4,1.7-.7,3.5-1.1,5.2a18.2,18.2,0,0,1,0-3.3A5.2,5.2,0,0,1,73.5,229.6Z"/><path class="cls-2" d="M14.7,35.7a2.5,2.5,0,0,0-3.6,1C11.6,34.2,12.5,34,14.7,35.7Z"/><path class="cls-2" d="M156.6,269.7c.1-1.7.1-3.4,1.1-4.9a16,16,0,0,1,0,3.1C157.6,268.6,157,269.1,156.6,269.7Z"/><path class="cls-2" d="M93.3,241.8c.1-1.5.4-3,2.1-3.7l.3.3c.4,1.8.1,3.3-2.2,3.6Z"/><path class="cls-2" d="M46.6,5.9l-4.9.9C43.1,5.1,44.9,6,46.6,5.9Z"/><path class="cls-2" d="M9.2,9.7l-2,3.9C7,11.9,7.1,10.3,9.2,9.7Z"/><path class="cls-2" d="M204.1,293.9l-4,1C201.1,293.2,202.7,293.9,204.1,293.9Z"/><path class="cls-91" d="M66.5,41.3l-1-2.1.3-1.7,1,2.2Z"/><path class="cls-2" d="M3.2,192.9c1.3,1.3,1.4,2.7.1,4C3.3,195.6,3.3,194.2,3.2,192.9Z"/><path class="cls-89" d="M46.4,50.8,45.2,52c-.4-.3-.9-.4-1.1-.8a1.7,1.7,0,0,1,0-1.2.8.8,0,0,1,.8-.3C45.5,50,45.9,50.5,46.4,50.8Z"/><path class="cls-2" d="M158.7,258.3c-.1-1.2-.1-2.5-.2-3.7C160.1,256,160.1,256.4,158.7,258.3Z"/><path class="cls-2" d="M176.1,268.8c1.2,1.9,1.2,2,0,3.8h-.2a2.5,2.5,0,0,1,0-3.6Z"/><path class="cls-2" d="M164.4,267.7c1.3-1.1,2.7-1.3,4,.1h-.1a2.6,2.6,0,0,1-3.4.4Z"/><path class="cls-2" d="M99.4,248.5c.4,1.2.7,2.5,1.1,3.8C98.5,251.5,99.4,249.8,99.4,248.5Z"/><path class="cls-2" d="M189.3,265.8v-3.6C190.8,263.9,190.8,264.3,189.3,265.8Z"/><path class="cls-2" d="M173.1,259.2c1.4-1.9,1.6-1.9,3,0l-.2.2a2.1,2.1,0,0,1-2.6,0Z"/><path class="cls-92" d="M62.7,45.1l1,1-1,.9-.2-.3-.3-.4-.4-.3Z"/><path class="cls-2" d="M76.1,229.6H73.4C74.8,228.1,74.8,228.1,76.1,229.6Z"/><path class="cls-2" d="M125.2,232.3l-2,2-.3-.6c-.1-1.2.4-1.8,1.7-1.7Z"/><path class="cls-2" d="M61.9,241.9a25.1,25.1,0,0,0-.4-2.7c1.5.4,1.2,1.6,1.3,2.7h-.1C62.4,242.4,62.1,242.3,61.9,241.9Z"/><path class="cls-2" d="M158.5,254.7h-2.4C157.3,253.1,157.3,253.1,158.5,254.7Z"/><path class="cls-2" d="M156.2,254.6l-1.2,2.8C155,256.3,154.6,255.1,156.2,254.6Z"/><path class="cls-2" d="M147.2,266.9a23.3,23.3,0,0,1-1.1-2.8C147.5,264.6,147.2,265.9,147.2,266.9Z"/><path class="cls-2" d="M200.2,294.8l-1.1,2.9C199.1,296.6,198.8,295.4,200.2,294.8Z"/><path class="cls-2" d="M143.4,296.7c1.1.6.9,1.8,1,2.8l-.2.2c-1.8-.5-1.6-1.6-1-2.9Z"/><path class="cls-2" d="M17.8,4l-2.9.9C15.5,3.6,16.7,3.9,17.8,4Z"/><path class="cls-2" d="M39.7,7.7c-.6.7-1.3,1.3-1.9,1.9A1.7,1.7,0,0,1,39.7,7.7Z"/><path class="cls-2" d="M52.2,245.9,50.5,247C50.7,246,51.4,245.8,52.2,245.9Z"/><path class="cls-93" d="M112.3,104.8l2.1-.2C113.8,105.9,113.4,106,112.3,104.8Z"/><path class="cls-2" d="M129.9,240l1-2,.4.6a1.4,1.4,0,0,1-.8,1.6Z"/><path class="cls-2" d="M135.7,238c.9.7,1,1.3.1,2h-.2a1.2,1.2,0,0,1-.3-1.5A.8.8,0,0,0,135.7,238Z"/><path class="cls-2" d="M185.8,261.3l-1.9,1C184.2,261.3,185,261.2,185.8,261.3Z"/><path class="cls-2" d="M146.1,264.2c-.3-.7-.7-1.3-1-2S146.2,263.3,146.1,264.2Z"/><path class="cls-2" d="M70.3,269.1,68.2,268C69.1,267.9,70,268,70.3,269.1Z"/><path class="cls-2" d="M162.6,268.8l1.8-1.1.2.3c-.1,1.3-.9,1.4-1.9.9Z"/><path class="cls-94" d="M158,75.6a18,18,0,0,1,.8,2.1A1.5,1.5,0,0,1,158,75.6Z"/><path class="cls-2" d="M225.8,275.1l-.9-2.4C225.9,273.2,225.9,274.1,225.8,275.1Z"/><path class="cls-39" d="M170.3,148.5a1.2,1.2,0,0,1,1.1-1.4A17.1,17.1,0,0,0,170.3,148.5Z"/><path class="cls-2" d="M33.9,210.2l2-.9Z"/><path class="cls-94" d="M158.6,72a18.7,18.7,0,0,1-.7,2.2A1.6,1.6,0,0,1,158.6,72Z"/><path class="cls-2" d="M125.2,230.4c.9.7.9,1.3,0,1.9l-.3-.2a1.1,1.1,0,0,1,.1-1.5Z"/><path class="cls-2" d="M83.6,236.9v-1.5C84.8,236.2,84.8,236.2,83.6,236.9Z"/><path class="cls-94" d="M157.6,69l2-1a4.5,4.5,0,0,1,.1,1.1h-2.1Z"/><path class="cls-89" d="M55.1,52.7l1.8-.8Z"/><path class="cls-89" d="M45.3,52.1c.9.1,1.1.8,1.2,1.6S45.4,52.8,45.3,52.1Z"/><path class="cls-2" d="M132.7,237c.8-.8,1.5-.8,2.1.1l-.4.4h-1.3Z"/><path class="cls-2" d="M129.9,242c-.9-.7-.9-1.3,0-2h.2a1.4,1.4,0,0,1,0,1.8Z"/><path class="cls-47" d="M216.5,41.5c.7-1.2.8-1.2,1.7-.2Z"/><path class="cls-95" d="M59.9,42.2c-1.1-.2-.8-1.1-1-1.8S60.2,40.5,59.9,42.2Z"/><path class="cls-96" d="M139.5,37.5l.3,1.8h-1.2a12.3,12.3,0,0,1,.2-1.9C139,37,139.2,37,139.5,37.5Z"/><path class="cls-97" d="M139.5,31.7v1.9c-.3.5-.6.4-.8,0a11.1,11.1,0,0,1-.2-1.9Z"/><path class="cls-2" d="M42.6,19.3l-1.7,1.1C41.1,19.4,41.8,19.3,42.6,19.3Z"/><path class="cls-98" d="M233.9,197.6c-1-.2-1.2-.9-1.2-1.7h.9Z"/><path class="cls-2" d="M41.6,6.8l-1.8.9Z"/><path class="cls-2" d="M14.8,5,13,6C13.3,5,14,4.9,14.8,5Z"/><path class="cls-2" d="M81.9,237.9l1.8-1.1C83.5,237.9,82.8,238,81.9,237.9Z"/><path class="cls-2" d="M130.9,238l1.8-1,.2.2c0,1.4-.7,1.4-1.8,1.1Z"/><path class="cls-2" d="M126.2,277.4c.6.4.6.7,0,1h-.3v-.6Z"/><path class="cls-2" d="M168.4,280.4l-.9.9-.3-.2c0-.6.3-1,1-.9Z"/><path class="cls-2" d="M123.2,234.3l-.9.9-.2-.2a1.1,1.1,0,0,1,.9-.9Z"/><path class="cls-94" d="M159.7,70.1l-.8,1.1Z"/><path class="cls-94" d="M160.7,69.2l-1,.9v-1h1Z"/><path class="cls-89" d="M49.9,51.4l-1.1.3Z"/><path class="cls-89" d="M48.8,51.7l-1.2-.5Z"/><path class="cls-99" d="M48.4,46.2a2,2,0,0,1-.1.7c-.5.1-.8,0-.7-.6Z"/><path class="cls-17" d="M58.9,32.7h.5l-.5.9Z"/><path class="cls-73" d="M64.6,29.9l.9,1.2Z"/><path class="cls-2" d="M40.9,20.4l-1,1Z"/><path class="cls-2" d="M33.9,21.1l-1-.8Z"/><path class="cls-2" d="M32.9,20.3l-1-.9Z"/><path class="cls-2" d="M35.8,209.3l1-1Z"/><path class="cls-2" d="M134.8,237.1l.9.9v.2c-.7.1-1-.2-1-.9Z"/><path class="cls-87" d="M196,205.4l-.8.9Z"/><path class="cls-2" d="M125.2,229.4l.2-.3a.5.5,0,0,0-.2.4Z"/><path class="cls-44" d="M234.5,195l-.8.8Z"/><path class="cls-2" d="M66.7,240.1l-.9,1Z"/><path class="cls-2" d="M50.5,247l-1,.9Z"/><path class="cls-2" d="M33.8,260.5l-1.3-1.2Z"/><path class="cls-2" d="M187.5,261.1h-.9Q187.1,260.4,187.5,261.1Z"/><path class="cls-2" d="M55.1,261.1l1,.9-.2.2q-1,.2-.9-.9Z"/><path class="cls-2" d="M145.2,262.3l-1.1-1Z"/><path class="cls-2" d="M189.4,262.2l-1.1-.9Z"/><path class="cls-2" d="M218.3,263.1l-.9,1Z"/><path class="cls-2" d="M217.4,264.1l-.8,1.1Z"/><path class="cls-2" d="M209.7,265.9l1,.9-.6.3a1.1,1.1,0,0,1-.6-1Z"/><path class="cls-2" d="M210.7,266.8l.9,1h-.1c-.8.1-1.1-.2-.9-1Z"/><path class="cls-2" d="M117.4,269.7l1-.9h.1a.8.8,0,0,1-.5,1Z"/><path class="cls-2" d="M116.5,270.7l.9-1h.1c.2.8-.1,1.1-.8,1.1Z"/><path class="cls-2" d="M187.4,270.9l-1-.9Z"/><path class="cls-2" d="M188.4,271.7l-1-.8Z"/><path class="cls-2" d="M49.5,239.2c.3.2.3.4.1.6l-.7-.2Z"/><path class="cls-2" d="M104.2,271.8l-1,1Z"/><path class="cls-2" d="M189.4,272.7l-.9-.9Z"/><path class="cls-98" d="M278.8,179.5c.5,4.5-1.6,8.4-2.5,12.6-.1.6-.3,1.2-.4,1.8h0c-1.1,1.8-2.8,3.1-3.9,4.8h0l-1,1h.1c-2.5,1.3-4.6,3.5-7.7,3.3-1.6-2.2-1-4,1.3-5.5-2.4,1.5-4.2,3.8-7.3,2.5a1.2,1.2,0,0,0-1.5.8c-.2.7.2,1.2.7,1.7s3.1.7,4.1,2.2c-1.1,1.2-2.6.9-4,.8a16.2,16.2,0,0,0-6.5,1.1,15.1,15.1,0,0,1-6,.9c.2-2.8,3.2-2.1,4.2-3.9a6.4,6.4,0,0,0-7.6-.1c-4.3,2.6-7.8,1.3-11-1.8a2.9,2.9,0,0,1,2.8-1.9c1.9.1,1.2-1.2,1.2-2.2a8.9,8.9,0,0,0,5.1.7c7.3-.8,14.4-2.5,21.6-4,5-1,7.6-4.1,8.8-8.8a20.2,20.2,0,0,1,.7-2.3c.8.5.9,1.3,1.5,2.1,1.1-1.9-.5-4.6,1.9-5.9C275.1,181.2,277,180,278.8,179.5Z"/><path class="cls-100" d="M274,179.5c-1.5,1.2-.9,2.9-.9,4.4s.4,1.6.1,2.2a3,3,0,0,1-1.7,1.4c-.2.1-1-.7-1.1-1.1a18.6,18.6,0,0,1-.4-3.3c.1-6.8.7-13.6.1-20.5-.4-5.1-.1-10.2-.1-15.3-.8-8.7-.1-17.4-.4-26.1,0-1.7.6-3.4-.5-5v-1.9c.6-.8,1.3-1.6,2.3-.6,1.6,2.6.4,5.6,1.3,8.4,0,.2.1.4.1.7a5.8,5.8,0,0,1,.3,1.4c.1,1.4.1,2.7.1,4.1a18.8,18.8,0,0,0,.5,3.3,7.7,7.7,0,0,1,.3,2.6c.1,2.5.8,4.2,3.8,3.1a66.7,66.7,0,0,1,1,13.4c-1.9.6-1.8-2.1-3.6-1.9a9.4,9.4,0,0,0-.8,4.7c1.8.9,2.7-1.9,4.4-.8V167c-3.5,1.2-5,3.2-3.3,7.1A4.3,4.3,0,0,1,274,179.5Z"/><path class="cls-101" d="M268.3,61.5c0-8.7-.1-17.4,0-26.1,0-5.1,0-10.1.1-15.2a4,4,0,0,0,2.7-1.9h0c3.6-1.3,3.3,3.2,5.6,3.8,1.4,2.7,0,5.6,1.1,8.3s-.6,5.8-4.5,5.7c-2.2-.1-2.6,1.2-2.7,2.9-.3,4.4-.1,8.9-.1,13.3s.5,5.9-.8,8.8A1.1,1.1,0,0,1,268.3,61.5Z"/><path class="cls-102" d="M268.3,61.5h.8c1.5,1.3,1.2,3.1,1.2,4.8s.5,3,2,3.8c1.4,4.2,1,8.7,2,13-.1-2.3-1.5-5.4,2.8-5.2a3.1,3.1,0,0,1,.4,2.8c-.2.7-.2,1.5-.4,2.2-.6,2.9,0,6-.4,9s.2,3.5-2,3.7-2.9-1.7-3.4-3.3c-.9-3.6-.5-7.3-1-11.2,0,3.9.2,7.5.2,11.2s1.6,8.8-1.5,12.7a11.3,11.3,0,0,1-.3-1.8l-.6-39.3A17.9,17.9,0,0,1,268.3,61.5Z"/><path class="cls-103" d="M269,104.9c.1-4.5.2-9.1.2-13.6,1.7-1.2,2.4,0,2.4,1.2a5.8,5.8,0,0,0,1.8,4,2.5,2.5,0,0,1,.2,1.2,4.5,4.5,0,0,0,.7,2.8c1,2.5,1.2,4.8-.1,7.2s-1.8,3.4-2.6,5.2l-.5.4a12.4,12.4,0,0,0-2,1C269.1,111.2,269,108,269,104.9Z"/><path class="cls-2" d="M229.8,3.8a13.4,13.4,0,0,1,2.6-.9H258c1,0,1.9.1,2.4,1.1-8.7-.9-17.5-.2-26.3-.2Z"/><path class="cls-103" d="M269.1,116.2c1.1.7,1,1.9,1,3,0,9.3-.1,18.7-.1,28.1a18,18,0,0,1-.6-3.2c-.2-8.9-.4-17.7-.5-26.5A5.9,5.9,0,0,1,269.1,116.2Z"/><path class="cls-104" d="M271.1,18.3c-.6,2.5-.6,2.5-2.7,1.9,0-.6-.1-1.3-.1-2A2,2,0,0,0,271.1,18.3Z"/><path class="cls-105" d="M108.1,294c1.7-.6,3.4-1.4,5.4-1.3,4.1.2,6.9,2.2,8.7,6,.1,1.2.2,2.4.2,3.7.2,3.3-.7,4.4-4.1,4.9h-1.8c-1-1.3-.9-3-2-4.2s-.5-.2-1.1,0c.1,2,2.5,2.4,3.1,4.1a21,21,0,0,1,1.3,2.6,13.8,13.8,0,0,1,.6,11.1c-2.2,6.4-10.8,7.4-15.2,3.9-2.4-2-2.3-4.7-2.3-7.5s1.1-2.5,2.5-3.1a1.7,1.7,0,0,1,2.3,1.1,29.9,29.9,0,0,0,.8,3.2,3.5,3.5,0,0,0,6.2.6,10.3,10.3,0,0,0,1.2-2.6,2.1,2.1,0,0,0-.8-2.5,20.6,20.6,0,0,0-4.1-3.2c-3.4-1.7-4.7-4.6-5-8.1s.4-5.4,2.8-7.3Z"/><path class="cls-106" d="M143.2,296.8c.3,1,.6,1.9,1,2.9s.1,2.8,0,4.3a3,3,0,0,1-4.8,1.8,2.4,2.4,0,0,1-.7-1.7,7.2,7.2,0,0,0-1.7-5.3,1.4,1.4,0,0,0-2.1-.3,4.4,4.4,0,0,0-.4,7c1,.8,2.1,1.4,3.2,2.2,5.3,3.7,6,11.7,2.1,17.1a8.1,8.1,0,0,1-8.8,3.4,8.9,8.9,0,0,1-6.9-6.6c-.5-2.1-.9-4.1,0-6.1a2,2,0,0,1,2.6-1.5l1.4.3a2.2,2.2,0,0,1,1.7,2.5,18.5,18.5,0,0,1-.4,2.3c-.3,2.1.2,2.8,2.3,3.6s6-1.4,5.6-4.3a3.2,3.2,0,0,0-1-2.1,61.4,61.4,0,0,0-4.5-4.3c-1.1-1.1-2.4-2.1-3.4-3.3a9.8,9.8,0,0,1-2.1-8.1c.6-1.1,1.1-2.3,1.7-3.3a17.4,17.4,0,0,1,2.4-3.6,5.1,5.1,0,0,1,5.6-1.4A16.9,16.9,0,0,1,143.2,296.8Z"/><path class="cls-3" d="M57.1,302.3a4.6,4.6,0,0,1,2-5.3c5.4-3.8,15.2-3.2,19.5,1.1a4.5,4.5,0,0,1,.6,1.2,4.9,4.9,0,0,1-.1,4.1h0c-.7,1.2-1.9,2-2.8,3.2a16.8,16.8,0,0,1-6.5,4.6c-2.1.8-2.2,1.1-1.9,3.2s.7,4.4.8,6.6-.5,2.2-2.1,2.8a6.1,6.1,0,0,1-4.6-.1,3.2,3.2,0,0,1-2.2-3.2c-.3-4.1-.6-8.3-1-12.4-.2-2-.2-4.1-1.7-5.8Z"/><path class="cls-8" d="M99.1,300.6c0,3.1.3,6.3,0,9.5-.6,6.1-3.9,10.2-9.7,12.3a5.4,5.4,0,0,1-5.4-.9c-4.3-3.3-5.5-7.4-4.4-12.6a16.6,16.6,0,0,1,9.3-12c3.8-1.8,6.1-1.5,8.8,1.8l1.4,1.9Z"/><path class="cls-107" d="M149.3,301.6l.9-1.1a1.6,1.6,0,0,1,2.1-.7,2.5,2.5,0,0,1,1.3,1.7,15.9,15.9,0,0,1,.2,3.8c.1,4.3-.2,8.6.9,12.8.4,1.3,0,2.8,0,4.2l-1.3.6c-3.3,2.3-4.1,2-4.9-1.9a29.7,29.7,0,0,1-.3-4.2C148.3,311.7,148.2,306.6,149.3,301.6Z"/><path class="cls-8" d="M76.3,306.6a4.3,4.3,0,0,1,2.8-3.2A3.9,3.9,0,0,1,76.3,306.6Z"/><path class="cls-8" d="M79.1,303.4c0-1.3,0-2.7.1-4.1A2.7,2.7,0,0,1,79.1,303.4Z"/><path class="cls-108" d="M192.3,211.4a3.2,3.2,0,0,1,1.4.2,4.1,4.1,0,0,0,4.9-1.8c1.3-1.6,2.4-3.3,3.6-4.9l1.7-2.2c1.6,0,2.4-1.6,3.8-2h0c.3-.4.7-.6,1-1h0a1,1,0,0,1,1.4.3c1.3,2.3.7,4.4-.4,6.5a64.1,64.1,0,0,1-5.8,4.8,6.3,6.3,0,0,1-3.1,1c-1.6.3-1.5,1.4-1.6,2.5-.5,3.3-4.3,7.5-6.7,7.4-4.4,0-7.4-2.1-8-5.4h0c1.4-1,1.5-2.6,2-4.1l.9-1.9C189,211.4,190.6,212.3,192.3,211.4Z"/><path class="cls-84" d="M153,200.6c.7-2.8,3.3-3,5.5-3.7a5.3,5.3,0,0,1,2.8,0c2.5.5,4.9,1.1,7.1-.9a64.2,64.2,0,0,1,7.6,0,59.8,59.8,0,0,1,7.3,1.8c1.1.3,1.3,1.3,1.6,2.2a.4.4,0,0,1-.1.6c-.8.9-2.2.1-3,1h0c-1.9.4-4.1-.7-5.8,1.1-.2.3-.8.4-.9.2-2.9-4.7-7,.3-10.4-1.4s-7.6,1.1-11.5,1.5a1.2,1.2,0,0,1-1.2-.5C152.3,201.9,152.7,201.3,153,200.6Z"/><path class="cls-109" d="M184.5,216.8a3.2,3.2,0,0,0,2,2.5c1.7.7,3.7.7,5.1,2.2s1.2.3,1.8.2,1.2-.2,1.1-1.1a7.8,7.8,0,0,0-.2-1.4c0-1.3.5-2.1,1.9-2.2s2.9-.3,3-2.2l.9,1c.6.8,1.4,1.3,1.8,2.2h0c.6.4.4,1.4,1.2,1.8a13.3,13.3,0,0,1,1.4,1.9c.1.2-.2.7-.4,1.1h-.4l-22.6.6A14.4,14.4,0,0,1,184.5,216.8Z"/><path class="cls-110" d="M224,176.6h1l-.9,2.2a2.3,2.3,0,0,0,.1,1.4c.2.9,2.2.6,1.6,2.3a16.7,16.7,0,0,0-.8,3.2,6.5,6.5,0,0,0,0,1.4c-.6,1.3-1.3,2.6-2,3.9a17.6,17.6,0,0,1-10.7,5.7,1.4,1.4,0,0,1,.3-1.9h-.1l1-.9c.3-.6.8-1.1.8-1.6a4.7,4.7,0,0,1,2.5-3.9c1.7-.8,2.5-2.3,3.3-3.9S222.7,179.3,224,176.6Z"/><path class="cls-111" d="M212.5,196.8c1.2-.6,2.6-1.1,3.1-2.6s1-1.1,1.3-1c1.9.7,3.1.2,4-1.7.2-.4,1.4-.3,2.1-.4-1.4,3.7-4,6.6-6.7,9.4s-4.4,4.1-6.6,6c0-2.2,0-4.5-.1-6.8-.2-.2-.3-.4-.2-.6l.2-.4h0C210.5,198,210.7,196.2,212.5,196.8Z"/><path class="cls-112" d="M192.3,211.4c-.2,1.6-1.3,1.7-2.6,1.7s-2.1-.9-2.3-2.2.3-2.2,1.5-2.8Z"/><path class="cls-113" d="M207.7,200.7c-.6,1.1-1,2.3-2.2,3s-1.4-.1-1.6-1,1.8-2.7,2.8-4C207,199.3,207.4,200,207.7,200.7Z"/><path class="cls-114" d="M182.8,208.4a7.3,7.3,0,0,1,1.9-5.8A7,7,0,0,1,182.8,208.4Z"/><path class="cls-109" d="M186.5,212.8c.2,1.8.1,3.5-2,4.1Z"/><path class="cls-114" d="M181.8,201.6c.7-1.2,1.9-.9,3-1v1Z"/><path class="cls-115" d="M201.9,218a2.7,2.7,0,0,1-1.8-2.2C201.4,216,202.1,216.6,201.9,218Z"/><path class="cls-115" d="M203.1,219.8a1.5,1.5,0,0,1-1.2-1.8Z"/><path class="cls-113" d="M207.7,196.9a1.6,1.6,0,0,1-1,1.8Z"/><path class="cls-113" d="M209.6,193.8c.1.9-.1,1.7-1.1,1.9Z"/><path class="cls-84" d="M185.7,198.2c.1-.5.1-1.2.9-.5Z"/><path class="cls-113" d="M208.5,195.7l-.7,1.1Z"/><path class="cls-116" d="M165.7,310.1c2.1.1,3.4-.1,4.6.3a3.5,3.5,0,0,1,2,5.6c-.8,1-1.7,1.9-2.5,2.8s-1.7.6-1.9-.3C167.2,315.9,166.6,313.3,165.7,310.1Z"/><path class="cls-117" d="M163.5,302.1c.1-1.1.2-1.8.3-2.6a2.6,2.6,0,0,1,2.4-1.3,1.6,1.6,0,0,1,1.2,1.8,9.1,9.1,0,0,1-1.8,5.3.8.8,0,0,1-.8.3.9.9,0,0,1-.7-.5C163.9,304,163.7,302.9,163.5,302.1Z"/><path class="cls-8" d="M197.1,320.7a1.7,1.7,0,0,1-.9,1.9Z"/><path class="cls-118" d="M11.2,20.1A9,9,0,0,1,13,11.2a9.7,9.7,0,0,1,9.9-3.5c1.2.2,2.2,1.2,1.8,2.3-1.9,5.3.8,8.4,4.7,11.2l4.7,4.1c1.9,1.8,3.9,1.7,6.2.8l3.8-1.8c1.2-.4,2.4-.1,2.8.9s1.3,3.5,1,5c-.8,4.5-2.3,8.8-7.3,10.4-1.9.5-2.6-.5-2.5-2.3s2-3.8.5-5.8-4,.4-5.7-1.1-3.7-4.9-6.2-6.8-2.9-2-3.9-3.5c-1.5-3.6-3.8-4.2-7-2C14.4,20.1,13.1,21.5,11.2,20.1Z"/><path class="cls-119" d="M27.3,23.9c2.8,1.5,4,4.4,5.7,6.9s6.4,5.7,4.9,10.8a16.1,16.1,0,0,1-9.2.7,2.5,2.5,0,0,1-2.3-2,3.9,3.9,0,0,1,2.4-3c2.9-1,.3-1.9.1-2.9A2.7,2.7,0,0,0,30,31.9a1.9,1.9,0,0,0-.9-1.1h0a3.2,3.2,0,0,0-1-1h0C28.1,27.8,25.7,26.1,27.3,23.9Z"/><path class="cls-120" d="M37.9,41.6c-.6-.7-.4-1.4-.3-2.2a1.8,1.8,0,0,0-.5-1.6c-2.4-1.8-2.9-4.6-4.1-7a2.5,2.5,0,0,0,2.6-.1c2.5-1.4,4.7-.1,5.1,2.6a5.8,5.8,0,0,1-1.2,4c-1.1,1.6-.8,1.9,1.1,3.3C40,41.7,38.9,41.4,37.9,41.6Z"/><path class="cls-121" d="M27.3,23.9c.2.7.2,1.6.7,2.1a2.7,2.7,0,0,1,.1,3.8c-1.7-1.3-3.7-2.3-5.1-4a9.7,9.7,0,0,0-6.2-3.6c1.4-3.7,2.6-3.9,6.6-1.1C24.7,22,26.5,22.3,27.3,23.9Z"/><path class="cls-122" d="M23.4,21.1l-3-.8c-1.7-.3-3.1.1-3.6,1.9h-.1a5.3,5.3,0,0,1-3.9,0,1.8,1.8,0,0,1-1.6-2.1A9.1,9.1,0,0,0,16,17.5a4.7,4.7,0,0,1,5.3-.7A3.9,3.9,0,0,1,23.4,21.1Z"/><path class="cls-123" d="M28.9,34.4c1.5.3,2.7.7,3.5,2.4-.8,1.1-2.3.4-3.2,1.2l-2.8,2.3a3.4,3.4,0,0,1-.7-1.5c-.2-1.5-1-1.6-2.1-1.3a1.6,1.6,0,0,1-.2-1c1.5-.3,2.8-.8,2.7-2.7Z"/><path class="cls-124" d="M39.8,45.1c-.7,1.2-1.8,1.1-2.9,1a1.7,1.7,0,0,1-2.2,0c1.1-1.3,2.6-.9,4-1.1A.9.9,0,0,1,39.8,45.1Z"/><path class="cls-121" d="M12.8,22.2h3.9A2.9,2.9,0,0,1,12.8,22.2Z"/><path class="cls-125" d="M33.9,46.9a3.4,3.4,0,0,1-1.4.1,1.9,1.9,0,0,1-.8-.3,4.7,4.7,0,0,1,.9-.6,6.5,6.5,0,0,1,1.4,0c.3.2.4.4.2.6S34,46.9,33.9,46.9Z"/><path class="cls-126" d="M33.9,46.9c0-.2.1-.5.1-.8a.9.9,0,0,1,.7,0h2.2A3,3,0,0,1,33.9,46.9Z"/><path class="cls-127" d="M39.8,45.1H38.7l1.1-.7.4.2Z"/><path class="cls-121" d="M29.1,30.8l.9,1.1Z"/><path class="cls-121" d="M28.1,29.8l1,1Z"/><path class="cls-128" d="M14.8,200.7a2.6,2.6,0,0,1-1-2.4c0-1-.1-1.9-1-2.4a2.5,2.5,0,0,1-.9-2.4c0-1-.1-1.9-1-2.4s-1.2-2.7-1.2-4.2.6-4.7-.6-6.9a15,15,0,0,1,.1-7.6,4.6,4.6,0,0,0,.2-2.8c-2.6-6.1-.8-12.7-2.6-18.8-1.4-3.6-3.6-7.1-.3-10.8,1.9.3,2.4,1.9,2.8,3.3a9.6,9.6,0,0,0,4.6,5.5c.2,2.5.5,5.1.7,7.6.6,9,1.1,18.1,1.7,27.1.2,3.8,1.8,7.4,1.4,11.3S15.3,198.5,14.8,200.7Z"/><path class="cls-129" d="M13.9,148.8a8.4,8.4,0,0,1-2.8-.2,2.7,2.7,0,0,1-1.7-1.4c-.9-2.3-1.6-4.7-2.3-7a133.3,133.3,0,0,1,.2-15.5C8,118.4,6,112.3,5.9,106c0-1.4-1.5-3.8,2-3.1,3.3,5.1,3.6,11,4.4,16.8.5,3.9-.5,7.9.5,11.8A100.6,100.6,0,0,1,13.9,148.8Z"/><path class="cls-130" d="M12.8,131.5a8,8,0,0,1-.9-2.6c-.1-2.8-.1-5.7,0-8.6s-.3-4.5-1.8-6.3A5,5,0,0,1,9,110c.3-2.7-.7-5-1.9-7.3s-1.2-5.3-1.2-7.8A170.9,170.9,0,0,1,7.6,70.2a2.1,2.1,0,0,1,1.6-1.3c2.8,2,.2,5.5,2.2,7.8.2,7.4-.6,14.8.4,22.2Z"/><path class="cls-131" d="M11.8,98.9c-.2-.4-.7-.8-.7-1.2-.2-3.6-.4-7.2-.4-10.9s0-7.2.1-10.9c-2-2.8.9-6.8-2.2-9.4.2-3.4,1.7-6.6.9-10S6,51.4,6.2,48l-.6-1.3a1,1,0,0,1,.8-1.4l4.5-1.1c.3,4.9.8,9.8.9,14.7.1,12.7.1,25.4.2,38.1A12.3,12.3,0,0,1,11.8,98.9Z"/><path class="cls-132" d="M14.8,200.7a12,12,0,0,1,0-1.9c0-1.4.4-2.4,2.1-2.6s.5-.9.8-1.4c1.3,3.2,3.7,4.4,7.1,4,1.1-.2,2.2-.1,3.3-.2-.6,1.2-1.8,1.2-2.8,1.1a4.8,4.8,0,0,0-5,2.6,4.4,4.4,0,0,1-1.2,1.5,1.1,1.1,0,0,1-1.1-.1c-.6-.7-1-1.6-1.6-2.3A4.6,4.6,0,0,0,14.8,200.7Z"/><path class="cls-133" d="M46.7,208.4c-.6-3.2-1.2-5.8-1.7-8.4,0-.3.3-1,.6-1.1a14.4,14.4,0,0,1,9.8.2,2.1,2.1,0,0,1,1.3,3l-1,1.7c-1,1.5-3.8-.3-4.3,2.6S48.5,207.8,46.7,208.4Z"/><path class="cls-134" d="M42,205.3l-.8-.4.6-1.7.6.2C42.6,204.1,43,204.8,42,205.3Z"/><path class="cls-2" d="M276.9,30.6c-.2-2.9.5-5.8-1.1-8.5a1.4,1.4,0,0,1-.1-1.8h.2c2,1.1,3.2,2.4,2.1,4.9a5,5,0,0,0,.1,3.2,27.3,27.3,0,0,1-.3,13.9H277c-2-1.9-1.2-4.1-.5-6.2S277.7,32.5,276.9,30.6Z"/><path class="cls-2" d="M277.8,59.5c.1,1.9-.4,3.8,1.3,5.3a2.4,2.4,0,0,1,.4,2.2c-1.2,3.3-.6,6.8-.7,10.2-.1,1.2.2,2.5-1,3.5l-.4-.6c-.6-3.4-.9-6.9-1.2-10.3-.1-1.8.2-3.6-.4-5.4a13,13,0,0,1,.1-3.4,2.5,2.5,0,0,1,1.2-1.6Z"/><path class="cls-2" d="M277.8,42.2c.3.6.9,1.1.9,1.6V58c0,.5-.6,1-.9,1.5h-.1c-.4-.3-1-.5-1.1-1-.3-5.4-1.2-10.9,1.1-16.2Z"/><path class="cls-2" d="M276.9,82.6V80.7c.2-.4.5-.5.8-.1h.1V96.9h0l-.9.2a2.1,2.1,0,0,1-.7-1.5C276.8,91.4,275.7,86.9,276.9,82.6Z"/><path class="cls-135" d="M68.6,118.1c0-1.3.1-2.7.1-4a4.3,4.3,0,0,1,1.7.4c.3.3.6,1.2.3,1.5A20.8,20.8,0,0,1,68.6,118.1Z"/><path class="cls-136" d="M64.5,120.9l1.1,1c-.1.3-.1.7-.3.9l-1.2.6a3,3,0,0,1-.2-1.3C63.9,121.7,64.3,121.3,64.5,120.9Z"/><path class="cls-135" d="M65.6,121.7l.6-.7Z"/><path class="cls-135" d="M66.7,120.3l1-1.2Z"/><path class="cls-135" d="M67.6,119.2l.9-1.1Z"/><path class="cls-135" d="M63.7,118.1l.9,1.2Z"/><path class="cls-135" d="M68.7,114.1l-1.1-.7Z"/><path class="cls-137" d="M154.2,292.3c-.1.8-.2,1.2-.3,1.7a2.1,2.1,0,0,1-2.6,1.4,2.3,2.3,0,0,1-1.1-2.8,2.9,2.9,0,0,1,.7-1.2c.5-.4,1.4-1.1,1.8-.9S153.8,291.8,154.2,292.3Z"/><path class="cls-138" d="M93.6,33.7c-.5-.9.4-2.3-1-2.9.1-.3.1-.7.3-.8a2.4,2.4,0,0,1,1.1-.6c.1,0,.5.5.4.7S93.9,32.5,93.6,33.7Z"/><path class="cls-139" d="M8.1,70.1c.1,3.6-.9,7.2-.1,10.8a4.2,4.2,0,0,1-.7,2.7c-1.1,1.5-.9,2.8-.5,4.5s1.4,4.3-.2,6.3a1.1,1.1,0,0,0-.2.9c1.8,2.4.6,5,.7,7.4-.3.6-.9,1.1-.8,1.6s.7,2.7,1,4.1.5,1.3.3,1.7c-.9,2-.3,3.6.8,5.4s.5,2.4.4,3.7-1,4.6.1,6.9a2.5,2.5,0,0,1-.2,1.9c-1.5,1.7-.8,3.6-.5,5.4s.3,4.7-1.1,6.8-1.3,5.3-.1,8l1,2.5c-4.8-.1-5.6-1.1-5.8-6.7a2.8,2.8,0,0,1,.1-.9l.9-1.1c0-2.3-.3-4.7,1.4-6.8a5.2,5.2,0,0,0,.5-2.8c.1-2.4,0-4.8.1-7.2s.3-2.8.4-4.2a6.3,6.3,0,0,0,.2-2.3c-.9-2.4-.6-4.8-.6-7.1.1-6.4-.8-12.7.4-19-1.1-4.5-.1-8.9-.3-13.3a18,18,0,0,1,1.1-5.6,8.5,8.5,0,0,0,.1-4.2,22.1,22.1,0,0,1-.3-5.2.8.8,0,0,1,1-.1,2.1,2.1,0,0,1,.6,1,18,18,0,0,0,.6,2.2,4.3,4.3,0,0,1,.2,1.1A3,3,0,0,1,8.1,70.1Z"/><path class="cls-140" d="M2.2,144a1.9,1.9,0,0,1,.8,2.4c-.3.9-.2,1.6.6,2L8,150.7a1.9,1.9,0,0,1,.7,2.5c-.9,1.7-.7,3.1.9,4.1a1,1,0,0,1,.3,1.6c-1.4,1.9-1.2,4.1-.7,6s.7,5.9.7,8.9.1,4.5.1,6.7c-1.9,1-3.3.4-4.5-1.2s-.2-2.6.7-3.7,1.2-3,2.8-3.7a3.5,3.5,0,0,0-1.2-3.2,4.6,4.6,0,0,1-.7-1.6c-1.1-2.2.3-4.7-1-6.8-2.4.5-3.5-1.4-4.8-2.8v-1a3.3,3.3,0,0,0,0-3.8A25.3,25.3,0,0,1,2.2,144Z"/><path class="cls-141" d="M7.1,64.3H6.2c0-1.6-.4-3.2,0-4.7a8.4,8.4,0,0,0-.7-7.1c-.8-1.6.5-3,.7-4.5a19.2,19.2,0,0,1,1.2,2.5c.5,1.6,1.1,3.2,3,3.8.2.1.3.9.4,1.3C8.9,58.2,10.5,62.4,7.1,64.3Z"/><path class="cls-11" d="M1.3,152.7c1.3,1.8,1.3,1.9,0,3.8Z"/><path class="cls-140" d="M3.2,142l-.9,1.1Z"/><path class="cls-114" d="M152,202.5c1.7-.3,3.6-.2,5.1-1s4.2-.9,6.3-.8l5.6.2c.4,0,1.1-.3,1.1-.5.3-2,2-1.2,3-1.6s1.8-.4,1.9,1.2-.7,1.6.3,2,.9-.8,1.5-1a5.5,5.5,0,0,1,5,.6,15.8,15.8,0,0,1-7.6,1.8,32,32,0,0,1-9.7-1.3,8.9,8.9,0,0,0-5.1.1c-2.7.7-5.4,1.6-8.3,1.3q-.4-.3-.3-.6t.3-.3Z"/><path class="cls-84" d="M151.1,202.6v.9a7.1,7.1,0,0,1-1.4.1c-4.8-1.6-9.7-1.2-14.5-1.1a15.4,15.4,0,0,1-8.2-1.8c3.6,0,7.3,0,10.9.2,1.4.1,1.6-.5,1.7-1.5s.7-1.2,1.2-.6a4.1,4.1,0,0,0,3.5,1.9,19.7,19.7,0,0,1,3.2,1Z"/><path class="cls-142" d="M106.8,199.8l3,1.9a5,5,0,0,1-2,.8c-1.4.2-1.7-.3-1.3-1.9Z"/><path class="cls-143" d="M166.6,147.8c-.2-.3-.3-.7-.6-1.1s-2-.8-1.4-2,1.4-1.1,2.2-1.5a5.2,5.2,0,0,1,1.8-.2c.9-.1,1.4.6,1.1,1.5A5.8,5.8,0,0,1,166.6,147.8Z"/><polygon class="cls-144" points="153.7 146.4 153.4 146.5 153.4 146.3 153.7 146.4"/><path class="cls-13" d="M9,171.9c-1,1.9-1.3,4-3.1,5.6s0,1.6.7,1.9a27.2,27.2,0,0,0,3.4,1.1c1.2.6,1.9,1.4,1.4,2.9a29.5,29.5,0,0,0-1,5,8.6,8.6,0,0,0,.5,2.7c-.8-.2-1.5-.4-1.8-1.3s-.7-3.1-1.1-4.6-.2-1.1-.5-1.2c-1.9-.7-2.3-2.4-2.8-4.1s-1.8-2-1.2-3.3S5,175,5.7,174.2,7.3,171.8,9,171.9Z"/><path class="cls-13" d="M6.1,160.3c.4.3,1,.5,1.1.8.2,1.8.4,3.5.5,5.3,0,.2-.4.4-.6.7l-4.5-2.7a1.1,1.1,0,0,1-.1-.8c0-.3.3-.5.5-.7h.5C5.8,162.8,5.8,162.8,6.1,160.3Z"/><path class="cls-145" d="M49.8,72.3c.5.4.9.5.9.7s-.6,2-1.1,1.7-.3-.5-.3-.8A14.2,14.2,0,0,1,49.8,72.3Z"/><path class="cls-146" d="M205.4,40.4c-.6-.5-1.2-.8-1.4-1.3s.1-1.4.4-1.5a10.6,10.6,0,0,1,3-1,1.5,1.5,0,0,1,1,.8,1.6,1.6,0,0,1-.2,1.2A26.8,26.8,0,0,1,205.4,40.4Z"/><path class="cls-147" d="M215.6,38.5a3.6,3.6,0,0,1-.7,1,1.6,1.6,0,0,1-1.1.2,1.7,1.7,0,0,1-.2-1.2c.1-.4.5-.7.8-1a1.8,1.8,0,0,1,1,.4C215.5,38.1,215.5,38.3,215.6,38.5Z"/><path class="cls-47" d="M217.4,35.4c1.2.7.8,1.9.9,3C217.1,37.7,217.3,36.5,217.4,35.4Z"/><path class="cls-148" d="M215.2,36.7c1.6.2.7,1.1.4,1.8l-.4-.2A1.5,1.5,0,0,1,215.2,36.7Z"/><path class="cls-149" d="M215.2,36.7v1.6a3,3,0,0,0-.8-.8Z"/><path class="cls-47" d="M218.3,38.4l.9.9Z"/><path class="cls-150" d="M49.8,147.6l1.4.4.3.2a3.4,3.4,0,0,1-.3,1.8c-.6.8-1.3,1.9-2.7,1.4a4.4,4.4,0,0,1-1.1-.9,1.5,1.5,0,0,1,.6-2.6Z"/><path class="cls-151" d="M58.3,151.9c-.2-.3-.6-.5-.6-.7a25.8,25.8,0,0,1,.8-2.6c.1-.1,1-.1,1.1.1a2,2,0,0,1-.5,2.9Z"/><path class="cls-152" d="M71.6,240c.2.1.7.2.7.4,1.4,3.6-.2,6.4-2.4,9a2.1,2.1,0,0,1-1.7.5c-1-.2-1-1.1-1-1.9a8.3,8.3,0,0,1,2.3-5.1c.8-.9,1.4-2,2.2-3Z"/><path class="cls-153" d="M61.9,241.9h.8c.1,1.3-.3,2.7.9,3.7v4.9H62C62,247.7,62,244.8,61.9,241.9Z"/><path class="cls-2" d="M263.5,202.7l7.6-3.1-2,2c-.8.7-2.1,1-2.6,1.8s-2.6,1.2-4,1.1h-.1C262.1,203.4,262.6,202.9,263.5,202.7Z"/><path class="cls-2" d="M272,198.7c.3-2.4,2.1-3.5,3.9-4.8C275.6,196.3,273.9,197.6,272,198.7Z"/><path class="cls-2" d="M271,199.7l1-1Z"/><path class="cls-154" d="M116.7,270.9l.8-1.1,1-.9a13.4,13.4,0,0,1,2.6-.9,3.6,3.6,0,0,1,2.5.5c.4.3.3,1.4.4,2.1l-3.6,1.8c0,2.1,2.2,1.9,3.2,3s1.5,1.5,2.3,2.3l-.2.3.2.3a5.9,5.9,0,0,1-3.6,3.5,10.6,10.6,0,0,1-6.1.4c-.5-.1-.8-.5-1.2-.8a2.4,2.4,0,0,1-.2-.9c.1-.2.4-.6.6-.6l3.3-.4,3-1.1C118.7,276.3,115.3,275,116.7,270.9Z"/><path class="cls-12" d="M55,261.3l.9.9c-.2,3.9-.3,4.1-3.8,4.7a3.6,3.6,0,0,0-2.5,1.1,19.7,19.7,0,0,0-4,12.5,6,6,0,0,0,.6,2.3,1.1,1.1,0,0,0,1.6.6,4.8,4.8,0,0,0,3.7-4.5c0-1.3-.4-1.5-1.6-1.6a1.2,1.2,0,0,1-.7-2.1,33.8,33.8,0,0,1,4.1-2.4c.8-.5,2,.3,2.2,1.2a6.1,6.1,0,0,1,.3,2.3c-.3,4.2-.7,8.3-1,12.4-2.5.3-2.6.4-3.4-1.3s-.7-1.8-2-1.1c-4.4,2.5-7.4-.1-8.2-4.5a43.8,43.8,0,0,1-.4-5.2c.3-1.3.7-2.5,1-3.8a16.5,16.5,0,0,1,2-3.7,45.1,45.1,0,0,1,4.7-5.9A6.3,6.3,0,0,1,55,261.3Z"/><path class="cls-155" d="M115.6,32.8c0-.9-.2-1.6.1-2a7,7,0,0,1,4.6-3.8.8.8,0,0,1,.8.2c.1.2.2.6,0,.8A10.9,10.9,0,0,1,115.6,32.8Z"/><path class="cls-156" d="M128.7,37.2c.6-2,1.2-4.8,2-7.5a1.7,1.7,0,0,1,1.3-1c.8.1,2-.1,2.4,1a19,19,0,0,1,1.4,7c-.1,1.7-.2,1.8-2.2,2.3s-2.3.9-1.5,2.6c.1.2-.3.9-.6,1a1.4,1.4,0,0,1-1.4-.2,3.1,3.1,0,0,1-1-1.5C128.9,40,128.9,39,128.7,37.2Z"/><path class="cls-157" d="M138.7,33.6h.8v3.9h-.7C138.7,36.2,138.7,34.9,138.7,33.6Z"/><path class="cls-158" d="M109.1,276.3a5,5,0,0,1-4,4.1c-.3,0-1-.4-1-.7s1.2-4.5,2.7-5.1A1.8,1.8,0,0,1,109.1,276.3Z"/><path class="cls-159" d="M175.9,109.6c.8,2.4-.2,4.1-1.6,5.7s-1.3.9-1.6.7-.6-1.4-.3-2.1S173.8,110.5,175.9,109.6Z"/><path class="cls-160" d="M53.3,250.6c.4-1.6,1.5-1.7,2.6-1.7s1,.2,1.1.5-.3,1.2-1,1.2Z"/><path class="cls-161" d="M139.1,150.7c-1.6.2-2.2-.6-1.8-1.4a12.3,12.3,0,0,1,1.9-3.1c.6-.7,1.5-1.5,2.4-.8a2.5,2.5,0,0,1,.1,4A12.3,12.3,0,0,1,139.1,150.7Z"/><path class="cls-162" d="M192.1,74.6c-.3-1.1-.7-2.1-1.2-3.5h3.5c.3,0,.6.6.8,1A24.2,24.2,0,0,0,192.1,74.6Z"/><path class="cls-163" d="M192.1,74.6c.1-.2.1-.3.2-.4.5-2.2.5-2.2,2.9-2.1C194.7,74.1,194.6,74.2,192.1,74.6Z"/><path class="cls-164" d="M106.4,34.9c.4,1.9.8,3,.9,4a2.7,2.7,0,0,1-.9,1.5.8.8,0,0,1-.8.2,1.2,1.2,0,0,1-.5-.7C105.4,38.6,105.8,37.2,106.4,34.9Z"/><path class="cls-26" d="M134.6,237.3l1,.9v1.7c-.9.5-1.7,1.1-.8,2.2a15.9,15.9,0,0,0,1.3,1.3,5.1,5.1,0,0,1,1.4,6.1,10,10,0,0,1-8,2.1,7.3,7.3,0,0,0-3.3.1c-3.7,1.4-6.8.5-9.4-2.3a18.1,18.1,0,0,1-.3-2.3,6.4,6.4,0,0,1,1.4-4.8,5.5,5.5,0,0,1,4.4-2.3c1.5,2.6,1.6,3,.2,4.6l-.4.3c-1.9,2-2.1,2.9-1,3.7s3.4,1.2,5-1.1c.1-.2.2-.3.2-.5s3.4-.5,4.1,1.5a12.7,12.7,0,0,0,2.8-.2,1.3,1.3,0,0,0,.6-2.2l-3.7-4.2v-1.8a16.2,16.2,0,0,0,1-1.8l1.8-1.1Z"/><path class="cls-165" d="M123,234.1l-.9.9c-1.9-.4-1.9-.4-1.5-2.5l.8-1c.9-1.5,2.1-1.7,3.6-.9a7.6,7.6,0,0,0-.1,1.5A2.6,2.6,0,0,0,123,234.1Z"/><path class="cls-166" d="M184.3,39.7c0,.4-.1.5,0,.7s-.1,1.6-1,1.9h-.5a1.4,1.4,0,0,1-.7-2,6.7,6.7,0,0,1,.7-1.8c.2-.2.5-.5.7-.5a1.7,1.7,0,0,1,.6.6C184.2,38.9,184.2,39.4,184.3,39.7Z"/><path class="cls-167" d="M199.8,147.9H199l-.5-.5a1,1,0,0,1,.4-.8,3.3,3.3,0,0,1,1.7-.1c.4.1.6.6.9.9l-1.1.6Z"/><path class="cls-168" d="M219.7,276.8a6.2,6.2,0,0,1-1.2-.8c-.1-.1,0-.6.2-.8s.6-1.2,1.1-1.4a1.9,1.9,0,0,1,1.5.6.8.8,0,0,1,0,1.5A8.3,8.3,0,0,1,219.7,276.8Z"/><path class="cls-169" d="M198.3,112c-.3.6-.5,1.2-.8,1.4a7.2,7.2,0,0,1-2.2.8c-.8.2-1.4-.7-1.1-1.5a5.6,5.6,0,0,1,.9-1.7,1.2,1.2,0,0,1,1.6-.6C197.3,110.8,197.7,111.5,198.3,112Z"/><path class="cls-170" d="M196,273.1c.1,1.4.3,2.8.4,4.2a3.7,3.7,0,0,1-.5,1.8,1.4,1.4,0,0,1-2.4,0,11.9,11.9,0,0,1-.7-2.7c-.5-3,.1-6,.7-9a1.2,1.2,0,0,1,.4-.8,1.8,1.8,0,0,1,1.3-.5c.3,0,.9.5.9.8.1,2,.1,4.1.1,6.2Z"/><path class="cls-52" d="M175.9,268.9v3.6c-.6,1.6-.9,3.1.3,4.5s.2,1.8-.2,2.6-1.6,1.4-3,.3l-.7-.6c0-2.8-.1-5.6-.1-8.4a9.5,9.5,0,0,1,.5-2.3c.3-1.1,1.3-1.2,2.6-.4Z"/><path class="cls-113" d="M212.5,196.8l-2.9,1.9c.1-1.9,1.4-3,3-3.8A12.1,12.1,0,0,0,212.5,196.8Z"/><path class="cls-113" d="M213.5,194l-1,.9Z"/><path class="cls-113" d="M209.6,198.7a1.7,1.7,0,0,1,0,1h-.9Z"/><path class="cls-113" d="M208.7,199.7l-1,1Z"/><path class="cls-171" d="M180,145.9a2.2,2.2,0,0,1-3,2c-.2-.1-.5-.4-.4-.7a2.8,2.8,0,0,1,1.8-2.5A1.2,1.2,0,0,1,180,145.9Z"/><path class="cls-172" d="M210.6,266.9l.9,1c.5,1.8,1.2,3.6,1.6,5.5a6.6,6.6,0,0,1-1,5.4,1.6,1.6,0,0,1-1.2.4c-.3,0-.7-.3-.7-.6a11.3,11.3,0,0,1-.5-3.2,11.1,11.1,0,0,0-1.2-5,1.2,1.2,0,0,0-2-.1,6.3,6.3,0,0,0-1.7,4.2c-.6,1.3-1,2.7-1.7,3.9s-1.1.6-1.6.6-.8-.5-1-.9a5.8,5.8,0,0,1-.3-1.9c0-1.9.1-3.8.2-5.7s0-3.4,2.7-2.5c.2.1.8-.3,1.1-.6s3.3-1.7,5.3-1.3Z"/><path class="cls-173" d="M229.8,201.6l7.2,2.2a1.6,1.6,0,0,0,2.1-.7c1-1.9,3.1-1.4,4.6-2.1s3,.1,4.4.9,2.4.6,3.6.9.5.4.5.7-.2.7-.4.7c-2.9.2-5.1,2.1-7.6,3.2-4.7,1.5-9.6.9-14.4,1h-2.9c-3.2-4.4-3.2-4.4,2.9-6.7Z"/><path class="cls-98" d="M229.8,201.6a8.1,8.1,0,0,1-1.2,1.4c-.9.9-2.9,0-3.1,1.5s.9,2.2,1.4,3.3v.5a16,16,0,0,1-2.6-2.6,2.7,2.7,0,0,1,2.1-4Z"/><path class="cls-174" d="M274,179.5a11.6,11.6,0,0,1,.4-1.8,3.9,3.9,0,0,0-.4-4.4,2.6,2.6,0,0,1-.8-2.6,25.9,25.9,0,0,1,1.7-3.8c.2-.4,1.1-.4,1.7-.4l2.2.5h.9v12.4h-.9l-3.2,3.4c-.4.4-1.3,0-1.4-.7A24.5,24.5,0,0,1,274,179.5Z"/><path class="cls-175" d="M273,107.5c1.7-2.5,1.1-5.1,0-7.6a1.4,1.4,0,0,1,0-2h0c1.1-1,2.2-2.2,3.9-1h0c1,5.2-.2,10.4.4,15.6.2,1.5-.4,3.1.5,4.6v1c-1.1.8.3,3.2-2,3s-2.7-1.3-3.3-2.9-.3-2.7-.6-4.1l-.3-1.4C271.4,110.8,272.4,109.2,273,107.5Z"/><path class="cls-176" d="M272,113.3c1.1.7.9,1.9,1,3a5.2,5.2,0,0,0,1.9,3.6c.8.6,1.3.4,2-.7l.9-1.1v9.6a9.5,9.5,0,0,0-.7,5.5c.2,1.4.2,2.7-1.3,3.2s-2.3-.8-2.8-2v-2.9c-.9-.7,0-2.1-1-2.8v-4.8c.3-.3.4-.5.3-.7s-.2-.3-.3-.3A22.2,22.2,0,0,1,272,113.3Z"/><path class="cls-177" d="M278.8,152.7,275,156c-1.2,0-1.3-1.2-1.9-1.8a1.4,1.4,0,0,1,0-2.1,3.4,3.4,0,0,0,.4-3.5c-.4-.9.1-1.5,1.1-1.6s2.5,0,3.2,2.2a13,13,0,0,0,1,1.5Z"/><path class="cls-103" d="M273,134.4l1.6,1c.3.2,1,.4,1.2.2s.8-1.1.7-1.5c-1-2.4-.1-4.5,1.3-6.4v9.6l-1.7,3.3c-1.4-1.2-1.4-3.6-3.6-4A22.5,22.5,0,0,1,273,134.4Z"/><path class="cls-176" d="M277.8,117.1c-1.1-.8-.9-1.9-1-3s.4-4.7-.5-6.9a1.7,1.7,0,0,1-.1-1c1.1-3,.4-6.2.7-9.3h.9Z"/><path class="cls-14" d="M168.2,280.2l-1,.9a14.8,14.8,0,0,1-3.5,1.3,4.4,4.4,0,0,1-5.2-3.8,9,9,0,0,1,1.4-6.4c.8-1.2,1.9-2.2,2.8-3.3l1.9-.9h3.7a19.2,19.2,0,0,1,1.2,2.5c.1.4-.2.9-.1,1.3C170.5,274.8,169.7,277.5,168.2,280.2Z"/><path class="cls-178" d="M81.8,244c.3,1.9-.1,3.9,1.1,5.6a9.7,9.7,0,0,1-.3,1.8,1.2,1.2,0,0,1-2,.1,15.4,15.4,0,0,1-1.7-7.6c.1-.8.9-1.2,1.8-.8S81.5,243.7,81.8,244Z"/><path class="cls-41" d="M130.7,209.9a4.4,4.4,0,0,1,4.7-1.7,2,2,0,0,1,1.3,1.1,1.4,1.4,0,0,1-.8,2l-2.9,1.2,2,3.1c2.3,3.4,2.3,3.7-.4,7l-5.1,1a6.1,6.1,0,0,1-2.7-.3,1.5,1.5,0,0,1-1-1.3c-.1-.4.7-.8,1.1-1.1s.7,0,.9-.1l4.8-1.6c0-1.9-1.4-3-2.6-4.2h0l-.2-3.8A1.8,1.8,0,0,0,130.7,209.9Z"/><path class="cls-7" d="M130,215c-.2,1.2.4,2.8-.9,3.5s-3,.4-4.5-.4-1.5-1.7-.9-2.7,2.2-2.3,3.3-1.7,1.8,1.4,3,1.3Z"/><path class="cls-50" d="M130.7,209.9l-.9,1.3a3.1,3.1,0,0,0,.1-1Z"/><path class="cls-179" d="M263.5,202.7a16.3,16.3,0,0,0-1.1,1.7l-1.7.2h-2.9c-2-.2-3-1.6-3.8-3.2a2.3,2.3,0,0,1,2.1-3,11.6,11.6,0,0,1,3.2.8c1.1.4,1.8.3,2.2-.9a3.6,3.6,0,0,1,3.8-2.2,3.1,3.1,0,0,1,1.9,1.1.9.9,0,0,1-.3,1.5,5.9,5.9,0,0,1-1.4.2c-1.9.4-1.9.4-2.1,2.5A7.1,7.1,0,0,0,263.5,202.7Z"/><path class="cls-14" d="M70.6,272.5c-.1-.6-.1-1.2-.2-1.8,1.5-.8,3-1.7,4.5-2.4s4.1-.3,5,2,1.3,7.2,1.1,10.8a1.4,1.4,0,0,1-.7,1.1c-2.5,1.1-4.8,2.6-7.7,2.2s-4.3-2.9-2.5-5.5a12.5,12.5,0,0,1,2.3-2.3l2.3-.3h2.5c-.1-1.4-.1-2.4-.2-3.5s-.9-1.5-2-1-1.4.8-2.2.9A8.6,8.6,0,0,1,70.6,272.5Z"/><path class="cls-180" d="M56.3,50.3v.4l-.3-.5Z"/><path class="cls-92" d="M62.2,46.3c.2,0,.3.1.3.4h-.3Z"/><path class="cls-33" d="M93.5,242l2.2-3.6.8-.4c3-1.4,3.7-.8,3.7,2.6a.6.6,0,0,0,.1.4c-1-.1-1.9,0-2.4,1a21.3,21.3,0,0,0-2.7,8.4l-.7.7c-1.8,2-2.2,2-4,0l-.6-.8-2-5.6c-.4-.9-.9-1.7-1.2-2.6a1.6,1.6,0,0,1,.5-1.2,1.3,1.3,0,0,1,1.2-.1,2.8,2.8,0,0,1,1.5,1.1c.8,1.1,1.4,2.3,2.4,4C92.8,244.3,93.1,243.1,93.5,242Z"/><path class="cls-181" d="M101,234.3c-.9-.3-1.2-1.1-.6-1.7s1.5-.5,1.8.7A1.5,1.5,0,0,1,101,234.3Z"/><path class="cls-182" d="M101,234.3l1.2-1,.7.2h0C102.4,234,102.2,235.5,101,234.3Z"/><path class="cls-104" d="M275.7,20.3a10.9,10.9,0,0,1,.1,1.8,23.1,23.1,0,0,1-2-2.4,3.3,3.3,0,0,0-2.7-1.4c.7-1.4,1.7-1.2,2.6-.5A15.7,15.7,0,0,1,275.7,20.3Z"/><path class="cls-183" d="M35,268.7c.8-.5.7-1.2.7-2s.2-3.7.2-5.5c.5-.2.9-.6,1.3-.5s1.4.6,1.3.9a36.9,36.9,0,0,0,.5,8.8c.2,1.4-1.1,1.2-2,1.1s-.7-1.9-2-1.7Z"/><path class="cls-184" d="M234.7,249.7c.4-1.3.7-2.5,1-3.8s1.4-2.9,3.4-1.8a7.1,7.1,0,0,1,.1,1.4c-.6,1.2.1,2.6-.3,3.8s-.7,1.8-.9,2.7h.1a12.7,12.7,0,0,1,.6-1.8c.3-1,.6-2,1.7-2.3s2,0,1.9,1.3a14.2,14.2,0,0,1-.7,2.2c-.5,1.6-.9,3.3-1.4,4.9l-1.2,2c-.7,1.1-1.1,1.1-2.3.2l-1.4-1a1.8,1.8,0,0,1-1-2C234.4,253.5,234.6,251.6,234.7,249.7Z"/><path class="cls-185" d="M238.3,249.3l.9-3.8,1.2,2.3-1.2,2.7C238.3,250.6,237.9,250.3,238.3,249.3Z"/><path class="cls-186" d="M196,256.5c-.2.6-.1,1.4-.5,1.6a1.4,1.4,0,0,1-2-.3,2,2,0,0,1-.1-1.3c0-.1.5-.4.7-.3a10.8,10.8,0,0,1,1.9.3v0Z"/><path class="cls-187" d="M173.3,259.4h2.6c.2.9.4,1.9-.9,2S173.2,260.6,173.3,259.4Z"/><path class="cls-103" d="M272,113.3v9.6a2.9,2.9,0,0,1-.9-2.5v-7.1h0Q271.5,112.7,272,113.3Z"/><path class="cls-103" d="M272,128.7c1.2.6,1,1.8,1,2.8C271.9,130.8,272.1,129.7,272,128.7Z"/><path class="cls-103" d="M272,122.9c.7.3.7.6,0,1Z"/><path class="cls-188" d="M277.7,42.3c.1,5,.4,10-.5,14.9a6.8,6.8,0,0,0,.5,2.3l-.9,1c-1.9,1.4-3.1.3-4.3-1.1s-1.5-2.5-1.1-3.9-1-2.7-2.2-3.6c0-5.2,0-10.5.1-15.7a2.1,2.1,0,0,1,2.7-1.9c4.1,1.1,4.4.8,4.9-3.3v-.4c1.3,2.2.8,4.5.4,6.8S276.5,40.7,277.7,42.3Z"/><path class="cls-189" d="M269.2,51.9a2.7,2.7,0,0,1,.9,0c1.1.1,2.5-.1,3.1.5s-.4,1.8-.8,2.7.1,2.4.6,3.5a25.2,25.2,0,0,0,1.5,3.4,2.9,2.9,0,0,1-.4,1.6,3.2,3.2,0,0,0-.4,2.1,4.1,4.1,0,0,1-.2,2.2c-.3.5-.8.8-1,1.3a1.1,1.1,0,0,1-.5.9c-.3.1-.5.3-.8.3s-1.9.1-2-1c0-2.7,0-5.3-.1-8S269.2,55.1,269.2,51.9Z"/><path class="cls-190" d="M269.1,26.9c.1-1.2.1-2.5.3-3.7s.6-.4,1-.6c.7,1.9,3.4,2.9,2.6,5.6a3.4,3.4,0,0,1-2.3,2.6c-.7.3-1.3.2-1.4-.6s-.1-2.2-.1-3.3Z"/><path class="cls-188" d="M273,68.2V65.3a1.3,1.3,0,0,1,0-1.9l1-1c2.3-1.4,2,1.1,2.8,1.9a7.9,7.9,0,0,1,.1,4.8,17.9,17.9,0,0,1-.1,8.6,4.8,4.8,0,0,0-1.9,5.4,12.7,12.7,0,0,1-.3,3.3c0,.2-.5.4-.8.4s-.6-.4-.6-.6a26.2,26.2,0,0,1,0-2.8c0-2.4.4-4.8-1.3-6.8a3.4,3.4,0,0,1-.3-1.8c.1-1.6.3-3.1.4-4.7v-1C272.1,68.6,272.7,68.5,273,68.2Z"/><path class="cls-191" d="M276.9,96.9l-3.9,1c-.1-.4-.2-1-.5-1.2a4.3,4.3,0,0,1-1.6-3.7c.2-1.3-.6-1.6-1.7-1.7V80.7a6.2,6.2,0,0,1,.2-1.9,2.5,2.5,0,0,1,1-.8c.3,0,.9.4.9.7.3,3,.6,6,.7,8.9a13.8,13.8,0,0,0,1.1,6.1c.1.3.2.7.4.8a3.2,3.2,0,0,0,1.4.3c.2,0,.5-.4.6-.6.1-2.7.2-5.4.4-8.1s-.3-2.6,1-3.5Z"/><path class="cls-191" d="M276.8,77.7c0-2.8,0-5.7.1-8.6,1,1,.9,2.3.9,3.5,0,2.7,0,5.3-.1,8h-.8C276.8,79.7,276.8,78.7,276.8,77.7Z"/><path class="cls-176" d="M272,113.3h-.9c-.1-2.2,0-4.3,1.9-5.8C272.7,109.5,272.4,111.4,272,113.3Z"/><path class="cls-191" d="M273,97.9v2C272,99.2,272,98.6,273,97.9Z"/><path class="cls-192" d="M116.5,307.2l-3.4-1.6c-.8-.4-2-.8-1.8-1.9a3.5,3.5,0,0,1,2.9-2.9,1.6,1.6,0,0,1,1.2.5,3.4,3.4,0,0,1,.8,1.7l.3,4.3Z"/><path class="cls-193" d="M69.3,300.6h1.1c.7.1,1.3,1.3.8,1.8a12.6,12.6,0,0,1-2.4,2.2c-1.5,1-2.6.4-3-1.5s.2-2.5,1.8-2.6Z"/><path class="cls-116" d="M91.8,308.3a23.3,23.3,0,0,1-.4,3.7,6.2,6.2,0,0,1-3.2,4.5c-.6.3-1.5-.1-1.5-.7a38.3,38.3,0,0,1,.3-4.7,16.9,16.9,0,0,1,1.2-3.6c.6-1.2,1.5-2.4,2.2-3.6C92.2,304.9,91.4,306.7,91.8,308.3Z"/><path class="cls-194" d="M9,66.2a3.3,3.3,0,0,1,1.9,3.1c0,2.2-.1,4.4-.1,6.6-1-.2-1.8-.7-1.7-1.9s.4-2.1.5-3.2A5.8,5.8,0,0,0,9,69.1c-.6,0-.6-.6-.9-.9h0c-.5-.7-.1-1.2.3-1.7Z"/><path class="cls-141" d="M8.1,68.2l.9.9-.9,1Z"/><path class="cls-194" d="M7.1,64.3a39.4,39.4,0,0,0,1.4-4.9,5,5,0,0,1,2.3-3.8c0,.7.1,1.3.1,1.9.1,4.9.1,4.9-1.9,8.7H9c-1.1.5-1.4-.4-1.8-1A3.8,3.8,0,0,1,7.1,64.3Z"/><path class="cls-102" d="M276.8,64.3c-1-.5-1.3-2.1-2.8-1.9s-.7-2.5-1-3.8c1.1,1,2,2.3,3.8,1.9Z"/><path class="cls-141" d="M7.2,65.3l1.8,1L8,68.2C6.9,67.5,7.1,66.3,7.2,65.3Z"/><path class="cls-195" d="M167.2,274.1c-.4,1-.6,2-1,2.8s-2.7,2.4-3.5,1.6-.6-2.4-.1-3.6a5,5,0,0,1,1.3-1.9,8,8,0,0,1,1.9-1.3Z"/><path class="cls-196" d="M76.2,281.1H73.6a2.1,2.1,0,0,1,0-.8c.6-.5,1.3-.9,2.1-.3A2.8,2.8,0,0,1,76.2,281.1Z"/><path class="cls-197" d="M238.3,249.3l.9,1.2c-.3,1-.6,2-.8,2.9a.8.8,0,0,1-1.2,0C237.5,252.1,237.9,250.7,238.3,249.3Z"/><path class="cls-198" d="M237.2,253.4h1.2c-.1.3,0,.7-.2.9s-.7.6-1,.5S236.6,253.9,237.2,253.4Z"/><path class="cls-102" d="M273,68.2l-1,.9C271.6,68.3,271.6,68.3,273,68.2Z"/><path class="cls-102" d="M273,63.4v1.9C272,64.7,272,64,273,63.4Z"/></g></g></svg>