<svg xmlns="http://www.w3.org/2000/svg" viewBox="0 0 182.4 133.6"><defs><style>.cls-1{fill:#fff;}.cls-2{fill:#fefefe;}.cls-3{fill:#22345b;}.cls-4{fill:#172c55;}.cls-5{fill:#192f57;}.cls-6{fill:#24395e;}.cls-7{fill:#d0e2dc;}.cls-8{fill:#1a2f57;}.cls-9{fill:#97bcb5;}.cls-10{fill:#7eb0a7;}.cls-11{fill:#b6d3c8;}.cls-12{fill:#9cc2bc;}.cls-13{fill:#bed8ce;}.cls-14{fill:#8cb7af;}.cls-15{fill:#90b9b2;}.cls-16{fill:#9ec2bc;}.cls-17{fill:#92bbb4;}.cls-18{fill:#88b6ae;}.cls-19{fill:#eaf2f1;}.cls-20{fill:#8db6af;}.cls-21{fill:#9dc2bd;}.cls-22{fill:#93bbb4;}.cls-23{fill:#99c4bd;}.cls-24{fill:#e8f4f3;}.cls-25{fill:#aacac5;}.cls-26{fill:#9dc6c2;}.cls-27{fill:#cfe2db;}.cls-28{fill:#c8ded5;}.cls-29{fill:#d6e8e2;}.cls-30{fill:#c3dbd1;}.cls-31{fill:#a7c9bb;}.cls-32{fill:#4e5977;}.cls-33{fill:#bad4c9;}.cls-34{fill:#162b54;}.cls-35{fill:#82b1aa;}.cls-36{fill:#7dafa7;}.cls-37{fill:#94bbb5;}.cls-38{fill:#8db7b0;}.cls-39{fill:#97bcb7;}.cls-40{fill:#d8eae8;}.cls-41{fill:#7faea7;}.cls-42{fill:#95b8af;}.cls-43{fill:#d7f5f4;}.cls-44{fill:#1a3058;}.cls-45{fill:#182e56;}.cls-46{fill:#162c54;}.cls-47{fill:#22355b;}.cls-48{fill:#23375c;}.cls-49{fill:#132a53;}.cls-50{fill:#192e56;}.cls-51{fill:#8b9aad;}.cls-52{fill:#1d3259;}.cls-53{fill:#6f5271;}.cls-54{fill:#3f3b5e;}.cls-55{fill:#182d55;}.cls-56{fill:#86b2ab;}.cls-57{fill:#edf6f5;}.cls-58{fill:#8ab7ae;}.cls-59{fill:#d2dfdc;}.cls-60{fill:#97b7ad;}.cls-61{fill:#91b2a4;}.cls-62{fill:#94beb8;}.cls-63{fill:#e5eaed;}.cls-64{fill:#c5dcd3;}.cls-65{fill:#93bab4;}.cls-66{fill:#a2c7c2;}.cls-67{fill:#95bbb4;}.cls-68{fill:#c1deda;}.cls-69{fill:#80aea4;}.cls-70{fill:#92bbb3;}.cls-71{fill:#9cc2ba;}.cls-72{fill:#e3f5f5;}.cls-73{fill:#ecf7f6;}.cls-74{fill:#cee6e5;}.cls-75{fill:#cff0ec;}.cls-76{fill:#bed6cb;}.cls-77{fill:#dde4e9;}.cls-78{fill:#eef5f5;}.cls-79{fill:#a2beb7;}.cls-80{fill:#f2f5f6;}.cls-81{fill:#d0f2f3;}.cls-82{fill:#d3e5e5;}.cls-83{fill:#c0e1e2;}.cls-84{fill:#d7e2e3;}.cls-85{fill:#d9eae9;}.cls-86{fill:#d2dfdd;}.cls-87{fill:#cbdedc;}.cls-88{fill:#d0e6e3;}.cls-89{fill:#e3f2f3;}.cls-90{fill:#a5d2d0;}.cls-91{fill:#d5dae1;}.cls-92{fill:#e4ecef;}.cls-93{fill:#e4e8eb;}.cls-94{fill:#dde4e7;}.cls-95{fill:#e7eef0;}.cls-96{fill:#f9fbfb;}.cls-97{fill:#79b0a6;}.cls-98{fill:#bac7d0;}.cls-99{fill:#f0f3f4;}.cls-100{fill:#eff2f4;}</style></defs><title>reuniondu20211027</title><g id="Layer_2" data-name="Layer 2"><g id="reuniondu"><path class="cls-1" d="M173.6,64.4c.8-1.8,1.6-2.2,2.7-1.4a3.9,3.9,0,0,1,2.1,3.5c-.2,4.1.5,8.3-.7,12.4a11.4,11.4,0,0,0-.1,5.2,6.9,6.9,0,0,1-2.2,6.9,12.2,12.2,0,0,0-1.4,1.6,20.9,20.9,0,0,1,2.6,1.3,22.5,22.5,0,0,1,3,2.4,7.9,7.9,0,0,1,2,2.5c1.1,3,1.3,6.1-.4,8.8s-2.7,4.7-5.2,6.1a4.3,4.3,0,0,0-2.1,5.7c1,2.4.3,4.4-.5,6.5a3.9,3.9,0,0,1-3.5,2.8c-1.7.2-3.2.8-5.1.3s-4.4-.2-6.7-.3-1.6-.8-1.8-1.9a3.1,3.1,0,0,1,1.4-1.6c3.1-1,6.2-.4,9.3-.6s4.2-.9,2.5-3.8a4.1,4.1,0,0,0-2.5-1.1c-7.9.9-15.8-1-23.7.6h-6.8c-8.3-.2-16.7-1.2-24.9.9h-9.3c-5.8-.2-11.6.5-17.4-1.5-3.2-1.2-6.6.5-9.9.8-5.6.5-7.9-1.3-8.2-7a12.1,12.1,0,0,1-.1-1.9c0-3,.7-6.4-4.3-4.9-.5.2-1.1-.5-1.6-1a2.8,2.8,0,0,1-.9-1,6.2,6.2,0,0,1-.7-2.3c-.2-1.2-.6-2.2-2.1-2.2s-1.8,1.1-2.2,2.1a16.9,16.9,0,0,1-1.3,3.1c-.9,1.6-2.1,2.4-3.8,1.1a50.5,50.5,0,0,1,1.1-6.6c.7-2.6,4.2-4.5,6.9-3.7s3.7.9,4.9,2.6a4.8,4.8,0,0,0,4.2,1.9,2.9,2.9,0,0,1,2.8,1.5,4.2,4.2,0,0,0,3.7,2.5c1,.1,1.2.9,1.3,1.7s-2.4,3.4-1,5.3,3.2.9,4.8.5,5.6,1.1,8.5.3l4.6.8a7.4,7.4,0,0,0,3.3-.1,33.7,33.7,0,0,1,8.4-.1,8.5,8.5,0,0,0,3.2.3c1.4-.3,2.9.3,4.3,0l1.2-.3c2-.5,3.7-2.6,6-1s5.2,1.1,7.9,1l1.4-.2c8.2-.2,16.4.7,24.7.1,1.2-.1,2.7.5,3.6-.6s4.1-1.2,6.4-.4,7.1,2,9.9-1.7a9.5,9.5,0,0,0,3.2-3.1c.7-1,1.7-1.6,2.1-2.6,1.5-3.2-.1-6.4-3.6-6.5s-6.6-1-9.8-1.8l-1.4-.2c-1.9-.5-3.7-1.5-2.2-3.5s3.8-6.5,8.2-6.3l1.4.2c5.1,1.2,3.5-2,2.9-4.4a9.5,9.5,0,0,1,.2-2.9C173.2,74.4,175,69.5,173.6,64.4Z"/><path class="cls-1" d="M153.5,126.8c-.8,4.1-4.2,5-7.5,5.7a10.7,10.7,0,0,1-4.7-.1c-5.9-1.7-11.7-.6-17.5.6a5.5,5.5,0,0,1-2.8.3c-2.8-1-5.7-.6-8.5-.7a11.8,11.8,0,0,1-2.8-.4,6.9,6.9,0,0,0-4.7,0,12,12,0,0,1-3.8.4H87.3c-3,0-6-.3-9,.8a12.1,12.1,0,0,1-3.8.1H63.4c-1.9,0-3.7-.6-5.6-.6-3.8-.1-7.7-.1-11.5.1-1.7,0-3.4.5-5.2.5-4.4-.1-8.9.6-13.3-.8a6.2,6.2,0,0,0-3.3.2,16.7,16.7,0,0,1-9.9-.1,6.2,6.2,0,0,0-1.9-.2c-2.7.4-4.1-1.2-5-3.5s-.9-1.7-1.2-2.6a3.8,3.8,0,0,1,1.8-4.8l1.8-.7a1.6,1.6,0,0,0,.7-2.7l-1.3-2c-2.4-3.4-2.1-7.3-1.8-11.1a4.6,4.6,0,0,1,1.3-3,35.7,35.7,0,0,1,4.4-4.3c1.6-1.2,4.1-1.5,6.3-1.7s3.6.9,5,2.4,1.6,1.6,3.2-.1a4.1,4.1,0,0,1,3.4-1.4h7.2a5.1,5.1,0,0,1,5.5,5.7c-.1,1.3,0,2.6,0,3.9-4.3,1.1-4.6.8-5.1-5.3-.5.4-.3,1.1-.4,1.6s-.1,4-2.6,4.4-3.3-1.4-3.7-3.4-.7-2.2-2.1-1.1-3.5,6.1-7.8,4.4a2.8,2.8,0,0,1-1.2-2.3c.1-1,.5-1.9,0-2.9l-.7-.9c-8.8-.5-9.8,6.5-6.7,13.6,1.2,2.6,2.3,4.8.7,7.5a9.4,9.4,0,0,1-1.2.9c-3.1,1.8-1.9,3.5.3,5a3.7,3.7,0,0,0,2.3.5c11-1.9,22.3,2.1,33.2-1.7a3.4,3.4,0,0,1,2.4-.3c7.7,2.7,15.7,1.4,23.6,1.8a12,12,0,0,0,3.8.1c9.1-2.5,18.5-2.4,27.9-1.7,6.2,1,12.4.5,18.7.2,8.5.1,17,.5,25.4-1A3.3,3.3,0,0,1,153.5,126.8Z"/><path class="cls-2" d="M14.3,122c-.1-1.1,0-2.2-.1-3.3a3.9,3.9,0,0,0-.8-2.2c-1.8-1.7-2.1-3.8-2.1-6.1a6.8,6.8,0,0,0-.4-2.8c-.8-2.1,0-3.6,1.8-4.8s1.2-.6,1.4-1.1a2.5,2.5,0,0,1,2.5-1.8,8.5,8.5,0,0,0,2.3-.4c2.1-.4,2.2-.3,2.9,2.5a3.3,3.3,0,0,1-2.1,1.4l-1.3.2c-3.1.5-4.4,1.9-2,4.7s1.8,3.1.3,4.8l.3.2.9-.4a10.3,10.3,0,0,1,6.5.2l1.2-.2a15.8,15.8,0,0,0,3.7.3c1.9-1.2.6-3.5,1.5-5s.9-1.1.2-1.7-.6-2.8-1.2-4.1-.1-.4-.2-.6.5-.8.8-1.1,2.4-.4,2.7.7.3,2.5.5,3.8a1.4,1.4,0,0,0,1.6,1.3,1.6,1.6,0,0,0,2-1.5c.2-1.7.4-3.5.7-5.2s.6-.5,1-.7a1.2,1.2,0,0,1,.8.4,6.4,6.4,0,0,1,.9,2.1,6.5,6.5,0,0,1-.4,1.9c-.1,2.5.2,2.9,2.9,3.2h6.7a2.8,2.8,0,0,0,3.3-2c.2-.8.6-1.7.8-2.5.9-3.1,1.1-3.3,3.9-3.2s2.4.5,2.5,2.5,0,2.2,0,3.3c-2.7.1-5,.4-4.1,4.1a1.5,1.5,0,0,1-1.1,1.8,4.1,4.1,0,0,0-4.5,1c-1.8.1-2.5-4-5.9-.4,3.4-1.8,4.1,1,5.9,1.5a3.3,3.3,0,0,0,3.8.1,7.1,7.1,0,0,1,2.9,0,9.7,9.7,0,0,1,2.4-.1c1.5.9,3,0,4.5,0s.9-2,1.3-3.9a16.2,16.2,0,0,1-1,2.8c-1,1-2.3,1.8-3.6,1.1s-1-2-.6-3.1a1.6,1.6,0,0,0,0-1.5,4.1,4.1,0,0,1-.5-.9,3.6,3.6,0,0,1-.2-1,2,2,0,0,1,.6-1.5c.4.1.8,0,1,.2s2.4,1.7,3.8-.3,2.5-.5,2.8.9a24.8,24.8,0,0,1,.2,3.8c.1,2.1-.1,4.2.1,6.2s2.6,4.6,5.6,4.1L84,118.2a4.9,4.9,0,0,1,3.2.7c1.7,1.2,3.5,1.2,5.4,1.2h10a1.4,1.4,0,0,1-.7,1.5c-8,1.7-16.1,1.8-24.2,1.8s-13.9.2-20.9-.1a8,8,0,0,1-1.5-.3,5.8,5.8,0,0,0-3.9-.2l-2.8.4H44.1c-2.5,0-5,0-7.5.2H20C18,123.5,15.9,123.7,14.3,122Z"/><path class="cls-2" d="M29.6,11.6h-.9c-3.6,1.9-7.1,2.2-10.6,0H13.3c-2.6,1.9-5.6,1.1-8.3.7s-3.4-4-1.3-6.6,6.5-4.2,10.3-4c16.6.9,33.2-1.3,49.7.2C74.8,2.8,85.9,3.6,97,3.4c7.8-.2,15.6-1.4,23.3-1.2s15.4-2.1,23.2.6c4.1,1.4,8.5-.5,12.8-.6s7.5.6,10.6,3.1c-.9,2-2.8,1.9-4.5,2-15.8.8-31.6,1.4-47.4.9-31.1-1.7-62.3-.7-93.4-1a29,29,0,0,0-7.2.4,16.7,16.7,0,0,1-3.9.4H8.1c-.4.1-.6.2-.5.5s.6.6,1.1.6c11,.4,22-.3,33,.4,4.9,1.4,9.8.5,14.7.6s8.6.1,12.9.4h1.6c13.7-.9,27.3,1.3,40.9,1.6,17.7,1,35.5.2,53.2,1.8,2.1.2,4.1-.5,6.1-.8a1.3,1.3,0,0,1,1.1,1c-1.4,5.2-2.2,5-7.1,4.6s-11.8-1.2-17.7-1.9c-3.2-.4-6.3-.5-9.3-1.4h-9.6c-2.7,1.2-5.6.5-8.4.6-15.6.3-31.2-1.4-46.8-1.1a206.3,206.3,0,0,0-24.8,1.5c-2.8.4-3.4,3.3-5.6,4-2.1-.9-3.8-1.2-3.4,2.1-.6,1-1.3,1.2-2.2.5V18.3C36.6,13.9,33.1,12.8,29.6,11.6Z"/><path class="cls-1" d="M166.9,4.9h-3.8c-.5,0-1.1.1-1.4-.1a6.6,6.6,0,0,0-6.6-1.1c-2.1.8-4.5.4-6.6.8A10.4,10.4,0,0,1,142,4a16.2,16.2,0,0,0-12.6,0,4.3,4.3,0,0,1-4-.2,7.8,7.8,0,0,0-7.4.1,5.8,5.8,0,0,1-4.5.4,29.1,29.1,0,0,0-6.6,0c-1.8.1-3.5.6-5.2.6H75.3c-1.9,0-3.7,0-5.4-1.2A5.6,5.6,0,0,0,66.7,3C58,3,49.4,2.9,40.8,3c-2.5.1-5,.9-7.5.9s-4.8-.8-7.1-.8-4.4.8-6.6.7-4-1-6.1-.8c-3.7.4-7.2.9-9.7,4.2-.9,1.1-.3,2.1,0,3.1a1.8,1.8,0,0,0,1.8,1.3h7.7c-1,2.7-1,2.6-3.1,2.3L4,13.5C1.7,13.3-.4,11.2.1,9s.9-4.3,3-5.7S9.2-.1,12.9.1H26.8c2.2.1,4.4.8,6.6.8S37.8.2,40,.1H66.4a9.3,9.3,0,0,1,2.9.1c3.9,1.3,7.9.7,11.8.9,1.9.1,3.8.5,5.7.6a9.9,9.9,0,0,0,3.8.2c3.3-1.1,6.6-.7,10-.8s6,.2,9-.8,4.4.6,6.5.7,4.6-1,6.6-.6a22.1,22.1,0,0,0,9.9-.1,14.7,14.7,0,0,1,6.6.1,26.2,26.2,0,0,0,6.2.7h15.3a27.6,27.6,0,0,0,5.7-.6c3.4-1,7.2,1.7,7.9,5.2.2,1.1-.8,1.6-1.6,2.1a2.9,2.9,0,0,1-1-.3l-.5-.4a4.6,4.6,0,0,1-.7-.7l-.4-.3-.8-.6-.4-.2L167.4,5Z"/><path class="cls-2" d="M173.6,64.4a2.9,2.9,0,0,1,1.9,2.6,15.1,15.1,0,0,1-.1,3.7,28,28,0,0,0-.9,7c0,.7-.6,1.4-.9,2.1-2.2-3-.6-6.6-1.5-9.9a46.8,46.8,0,0,0-1.2,9.7c0,2.2-.7,4.2-3.1,4.9s-3.3,1-4.6-.1-.7-2.9-.2-4.4a36.7,36.7,0,0,0,2.4-7.3c.3-2.4.3-4.9-3.5-4.7,3.1.9,3.4,3.1,2.9,5.7s-1.9,5.1-2.8,7.7-1.9,3-.5,4.4,2.7,0,4-.3,2.2-.7,3.3-.4,1.6,1,1.1,2.1-2.2.2-3.3.5-2,.9-2.2,1.6-2.2,2.3-3.2,3.4-.8,2,1.1,2.5h1c.1.6-.2.9-.7,1.2a.8.8,0,0,0-.7.5h.5v.5a1.1,1.1,0,0,1-.6.9h-1.1a6.2,6.2,0,0,1-2.6-1.2,6,6,0,0,1-.8-.8,2.7,2.7,0,0,0-1.8-1.1l-1.2.2h-.6l-1.2-.4c-1.9-.9-3-.5-3.2,1.8-.3,4.2,1.4,8.2.5,12.7-.4,1.8,3,2.3,5,1.1s4.4-1.8,6.7-.3,7.1-1.6,10.7-.5l.5.4c-.2.5-.6.9-.6,1.3-.5,2.2-1.9,2.7-3.9,2.6s-5.1.3-7.4-1.2-1.7-1.9-2.9-1.2-1,1.6-1.7,2.2-1.1.8-1.5.6a14.2,14.2,0,0,0-7.1,0c-1.2.2-2.6-.7-3.7-.3-3,.9-5.9-.4-8.9-.2a82.3,82.3,0,0,1-8.6-.1c-.1-1.3.9-1.6,1.8-2l.5-.2h.6c.4.5-.4.6.2.3s.2-.6.2-.9a2.8,2.8,0,0,1,1.9-2.3,1.8,1.8,0,0,1,1.2.5c2.2,4.3,4.9,1,7.5.4-2.6-.4-5.8.5-7.2-2.9l.3-.6H140c4.2-1,5.3-4,4.9-7.8s-.9-6.3-5.2-6.6c-1.6-.1-3.7-.4-2.5-3.1,4.4-1.5,8.9-2.9,13.6-2.5a6,6,0,0,0,4.3-1.3l.9-.9.4-.5c1-1.4.7-2.8.1-4.2s-3.1-2.6-4.3-4.2c.6-4,4.8-6.7,4.3-11.2-.1-.4,1-.8,1.6-.8,4.5.3,9.2-1,13.6.8Z"/><path class="cls-1" d="M41,20.1c.6-.2,1.3-.2,1.7-.6a8.6,8.6,0,0,0,2-2.6c1-2.1,2.4-2.8,4.6-1.7s2.8,0,4.2-.5,5.5-1.7,8.4-.5a6.6,6.6,0,0,0,2.8,0,53.2,53.2,0,0,1,5.6-.6H84.7c2.8,0,5.7-.3,8.5.7a12,12,0,0,0,3.8.2h18.2a28,28,0,0,1,7.6.7c1.8.5,3.8.2,5.7.3-.1,1-.6,2.1-1.7,1.7a7.5,7.5,0,0,0-4.7.2c-4.8,1.6-9.7,1.2-14.6.5a22,22,0,0,0-9.9.1,9.3,9.3,0,0,1-5.7-.2,27.3,27.3,0,0,0-4.1-1,15.5,15.5,0,0,0-4.8-.1,19,19,0,0,1-10.3.1,6.1,6.1,0,0,0-3.3.3c-2.9.7-5.7,1.6-8.8.5s-3.8,0-5.7.2a39.6,39.6,0,0,1-4.7.5C47.3,18,46.3,20,45.3,22s.1,1.5.5,2.1a2.3,2.3,0,0,0,1.6.6,8.8,8.8,0,0,0,2.3-.7,6.1,6.1,0,0,1,4.6-.2,19.1,19.1,0,0,0,4.8.3,4.8,4.8,0,0,1,4.5,3c1.6-.9,1.4-2.7,2-4s2.9-3.4,5.9-2.7,3.1,1.9,3.2,4.2,0,3.5,0,5.3c-2.1,1.4-2.1,1.4-3.5-2.5l-.4-1.2c-.2-.4-.3-1.4-.9-1.1s-.4,1.6-.6,2.4c-.1,3.5.5,7-.5,10.5-3.7,2.9-4.5,2.8-5.8-1.3a11.1,11.1,0,0,0-2.4-3.9,4.8,4.8,0,0,1-.9-1.1c-1.1-4.1-4.1-5.2-8.2-2.9-1.7,1-3.1,2.1-5.1,2.1l-1.3-.2c-1.6-.5-1.5-3.1-3.4-3.2-3.8-.6-7.6.3-11.2-.7-1.8-3.2-5.7-2.4-8.2-4.1l-.4-.5c.3-.6.4-1.4.8-1.7,3.1-2.1,7.5-1.8,9.4,1.3s3.2,1.7,5.2,1.3,1.5-.2,1.7-1.2l.3-.3a4.7,4.7,0,0,1,1-1A1.3,1.3,0,0,1,41,20.1Z"/><path class="cls-1" d="M85.3,88.4c-.1.3,0,.8-.2.9-2.2,1.5-4.3,3.4-6.8,4.3s-4.4.6-6.5.3a11.4,11.4,0,0,0-3.7.1,14.2,14.2,0,0,1-7.1-.4,9.2,9.2,0,0,0-5.2,0,26.1,26.1,0,0,1-4.8.5c-2,.1-3.2-1-4-2.8s-1.1-3.3-1.7-5-.5-.9-.9-1-1,.5-1,.8c-.6,3.1-3.4,4.5-4.9,7s-4.9,1.5-6.4-.1a16.6,16.6,0,0,1-1.8-2.4l-2.4,1.9c-2.6,2.1-5.4,3.2-8.8,2.2l-3.3-.6a3.9,3.9,0,0,1-3.4-4c-.1-1.2,0-2.5-.1-3.8a4.9,4.9,0,0,1,1.3-3.5,16.5,16.5,0,0,0,1.9-2.7,3.6,3.6,0,0,0,.1-2.3,43.6,43.6,0,0,0-2.3-4.2c-1.5-2.7-1.4-4.3.6-6.4s2.3-2.4,3.4-3.4,2.5-1.7,4.6.6c-1.3,1.7-2.8,3.2-3.1,5.5l-.5,1.2c1.8,5.4,2.8,10.6-1.7,15.6-1.3,1.5.9,2.8,2.5,3.2,3.5.7,6.7,0,8.7-3.3,1.1-1.7,1.4-4.2,4.3-3.7s2.2,3.1,2.8,5c.1.3.3.5,1,.7,3.8-3.4,3.8-8,3.1-12.5-.5-2.5-1.4-5-.2-7.4s-.2-3.2-1.5-4.4c1.1-2.1,3-2.1,4.9-1.5a2.8,2.8,0,0,1,1.6,1.6,4.5,4.5,0,0,1,.1,2.8c-1.7,4.6,1.1,9-.2,14.1l2.6-1.7a2.2,2.2,0,0,0,1-2.9,8.5,8.5,0,0,1-.4-2.3c0-1.4-.2-3.1,1.4-3.7s3.7-1,5.1,1c.1.1.1.2.2.4-2.9,1.7-3.5,4.6-3.8,7.6l-.3,1.2a5.1,5.1,0,0,0-.1,4l.5,1.1c3.2,5.5,3.3,5.5,6.9,1.4a3.1,3.1,0,0,1,1.2-.5,4.2,4.2,0,0,1,3,1.3c1.1.8,2.7,1.7,3.5,1.2,4-2.5,8.1-1.5,12.2-1l.9-1C80.5,85,83.1,85.5,85.3,88.4Z"/><path class="cls-1" d="M78.6,29.9a38.5,38.5,0,0,0,2.6-3.4c1.6-2.9,4-3.2,6.9-2.6s4.8,1.3,7.5.3a4.5,4.5,0,0,1,5.2,1.5c.9,1.1,2,.8,3,.2a12.5,12.5,0,0,1,2.4-1.6c4-1.5,7.3,0,7.8,4.2a38,38,0,0,1-.2,10.1,31.7,31.7,0,0,0-.6,7.5c0,2-.2,3.9-1.8,5.3a8.8,8.8,0,0,0-1.2,1.5c-2.8,3.9-6.1,4.1-9.4.4l-1-1.2c-2.2.8-4.3,2-6.8,1.5a4.8,4.8,0,0,0-3.1,1c-2.9,2.1-6.2,1-9.3,1-.5,0-1.1-.6-1.5-1s-1.4-1.4-2.1-1.9a1.7,1.7,0,0,0-2.6.2c-2.5,3.3-6.1,2.9-9.6,2.8a2.3,2.3,0,0,1-1.2-.6c-2.2-2.9-5.6-2.8-8.7-3.1a30.5,30.5,0,0,0-4.3-.1c-1.1-.1-1.6-.8-1.8-1.9a2.4,2.4,0,0,1,.6-1.1l1-.8c2.3-.1,3.2-5.1,6.4-1.8l1,.8c2.6,1.4,6.1.3,8.3,3.7.8,1.4,3.8.3,4.5-2.2s3.1-3.2,5.6-1.5c6,2.1,12.3,2.5,17.5,1l1.3.2c3.7-.2,7.5-1.5,10.8,1.3.4.3,1.1-.4,1.6-.8l.9-1c1.4-2.5.5-5.3.6-7.9s0-4.8.1-7.3.2-2.8-.5-4.3c-2.6,1.1-2.1,3.2-2.1,5.1s.5,4.7-2.9,4.8a3.1,3.1,0,0,1-1.2-.5c-1.4-2.2-.9-5.4-3.5-7.1l-1-.8c-1.1-1.3-1.9-.2-2.8.3s-3.4,1.3-4.5.1c-3.8-4.1-4.8-.7-6.2,2a4.8,4.8,0,0,1-.9,1.1C79.9,34.8,78.7,33.1,78.6,29.9Z"/><path class="cls-1" d="M137.3,89.3c0,.8.2,1.7,1.1,1.8s2.6.1,3.8.3,3,.9,3,3a2.5,2.5,0,0,0,.6,1.7,2.2,2.2,0,0,1,.6,2.6,7.5,7.5,0,0,0-.4,4.7,2.6,2.6,0,0,1-2.2,3.1c-1.2.2-2.5.1-3.8.2s.1-.4.2-.5c3.2-2.6,2.9-6.1,2.6-9.6a2.3,2.3,0,0,0-2.5-2.3c-2.9.2-4.9-1.1-6.7-3A1.8,1.8,0,0,0,131,91l-2.4,1.5a7.6,7.6,0,0,1-4.8,1.7,4.8,4.8,0,0,0-2.4.3c-2.6,1.5-4.9-.3-7.4-.5-.5-.1-1-.7-1.5-1.1-2.8-2.6-4.4-3-7.3-.7a15,15,0,0,1-5,2.6,5.8,5.8,0,0,1-6.5-1.6,7.6,7.6,0,0,0-5.2-3c-1-.1-1.2-1-1.3-1.8,3.5-3.4,4.8-3.5,8.1-.6,1.7,3.6,4,3,6.4.9,4.1-3.3,8.7-3.6,13-.5s11.7,2.9,16.2-4.6a5.4,5.4,0,0,0-.5-1.1,35.1,35.1,0,0,0-4-5.3c-1.5-1.6-2.1-3.2-.5-5.1l1-.7c1-1.3,5.6,1.4,3.5-3.2.2-.8.4-1.6,1.3-1.7a26.4,26.4,0,0,1,2.8-.2,3.1,3.1,0,0,0,2.8-1.3,6.2,6.2,0,0,1,5.8-2.4c1.2,0,1.6.8,1.7,1.8-5.1,3.7-5.3,4.1-3.5,10.1.6,1.9.6,3.5-.9,4.8s-2.2,3.7-2.3,5.9l-.3,1.2a4.8,4.8,0,0,0-.5,2.3Z"/><path class="cls-2" d="M94.8,88.5c-1.1-1.3-2.1-2.6-4.2-1.4a17.1,17.1,0,0,1-3.4,1.3H85.3l-1.7-.8c-3-1-3-1-6.1.7-1.6-5-2.6-10-1.6-15.2.1-.6,1.1-1.1.1-1.6s-1.2,0-1.8.1-.8.5-.5,1.1c2.4,4,.7,8.7,2.2,12.9.4,1,.3,2.3,1.6,2.7-.9,2.5-2.3,3.2-4,1.8s-1.3-2.8-3.3-2.2a3.6,3.6,0,0,0-2.5,2.6,1.4,1.4,0,0,1-1.1.6c-2.4-1-5.5,0-7.2-2.9-.3-.5-1.4-.7-2.1-1a4.1,4.1,0,0,1,2.4-3.9c3,.7,4.6,6.4,8.6,2.7-.3.1.6-.2.4-.2-5.4,1.6-6.7-1.1-5.9-5.7s3.5-6.7,4.9-10.2,6.2-3.3,9.9-1.6h1.9c1.4-1.1,3-.8,4.6-1,4.2-.6,8.6.3,12.6-2.5,2-1.4,5.7-1.8,6.5,2.5a2.3,2.3,0,0,1-.7,1.4c-6.4,2-6.2,2-6.4,9.2-.1,3.4,1.9,6.9-.6,10.2Z"/><path class="cls-1" d="M142.9,30.8c17.2,6.5,17.4,7.4,17.2,8-1.1,2.8-.9,5.7-.9,8.5s-.4,3.2-2.4,3.7a3.4,3.4,0,0,0-2.4,2c-1,1.9-2.6,2.6-4.6,3.2a5,5,0,0,1-5.9-1.6c-2.5-3.3-5.3-3.3-8.4-1.7s-6.8.8-10-1a3.3,3.3,0,0,1-1.8-3.1,31.1,31.1,0,0,0-.1-5.3c-.3-2.2-1-4.3,0-6.5.2-.5-.1-1.2-.2-1.9a12.7,12.7,0,0,0-.6-1.8c-1.2-5.7,4-11,10.9-9.9l4.2,1.1c.4.1,1,.4,1.3.3,4-2,8.1.1,12.2-.7a12.2,12.2,0,0,1,3.8.1A4.5,4.5,0,0,1,159,28c.6,2.8.8,5.6-16.1,2.8-14.1-1.5-16,2.7-15.5,6.4s.1,5.1.4,7.6,2.2,4.8,5.9,3.9a48.8,48.8,0,0,1,5.5-1.2c2.7-.1,5,0,6.7,2.6s3.3,2.1,4.7-.4a3.9,3.9,0,0,1,.8-1c2.2-1.3,3.5-3,3.2-5.7l.3-1.3a13.6,13.6,0,0,0,.2-4.5V31c0-2-.7-3-2.9-2a7.1,7.1,0,0,1-6.8,0c-2.8-1.6-4,2.1-6.4,1.6l-1.3-.5a5.1,5.1,0,0,0-5.5-2.4C130,27.9,127.6,27.5,142.9,30.8Z"/><path class="cls-2" d="M37.3,64.3l2.4.2a1.6,1.6,0,0,1,1.2,2.2c-.3.7-.7,1.4-1,2.2s-1.2,4.5.4,6.8a2.9,2.9,0,0,1,.6,2.1c-.8,2-.6,4.1-.8,6.1s-1.5,3.5-2.6,5.1-1,2.3-2.3,1.7S33.9,89,33.6,88a24,24,0,0,1-.3-2.8,1.5,1.5,0,0,0-1.6-1.4c-.8-.1-1.6.1-1.8,1a11.1,11.1,0,0,1-2,3.7c-2.5,3.5-6,3-9.4,2.7-1.9-.2-3-1.8-3.8-3.3a2.2,2.2,0,0,1,.4-1.7,32.7,32.7,0,0,0,4-6.4c.3-.8.6-1.3.1-2.1a50.6,50.6,0,0,1-2.6-4.4,3.1,3.1,0,0,1,0-2.3c.1-.4,1-.5,1.6-.8,1.3,1.2,2.3.3,3.3-.5s2-1.4,3-.5.7,2.1.4,3.1a60,60,0,0,1-4,10.2c-.6,1.6-2.6,3.3-1.3,4.7s3.5.1,5.7-.9c-4.9,0-4.2-2.5-2.9-5.1a56.7,56.7,0,0,0,3.5-8.9c.5-1.7.9-3.6-.8-4.8s-3.2.4-4.5,1.5-1.3,1.5-2.4,1.3c0-4.3.2-4.6,3.7-5.9h4.8c2-1,3.9-.5,5.8,0l3.1.2c-.1,1.4-2.5,2.3,0,4.4s1.1,4.9-.8,6.9-2.5,2.6-.1,4.2.6,2.9,1.1,4.2c1.5-6.5,2-13.1.3-19.7Z"/><path class="cls-1" d="M76.7,106.7c1.4-1.1.9-2.6.8-4-.3-2.9.6-4.6,3.3-5.6s3.2-1.4,5-.4a1.7,1.7,0,0,0,1.4.3c3.2-.5,5.4,1,7.6,3.1s3,1.9,5.2-.6,5.2-4.1,9.7-2.5a5.5,5.5,0,0,1,2.5,2c1.7,2.1,2.2,2.1,4,.1a1.9,1.9,0,0,0,.6-.7,2.5,2.5,0,0,1,2.4-1.3l3.3-.4a4.9,4.9,0,0,1,5.1,1.6,12.9,12.9,0,0,0,2.4,2.3c2.4,1.4,3.2,3.5,3.4,6h-.1a2.7,2.7,0,0,1-1.9.8c-2.9-.1-3.5-3-5.2-4.5-4.4-4-6.3-3.7-8,1.8a7.3,7.3,0,0,1-6.2,2.9c-2-.1-3.4-.9-3.5-3.1s.6-3.3-1.5-4-3.1,1.2-4.2,2.4a19,19,0,0,0-1.9,2.1c-1.8,3.2-4.1,3.2-6.5.8a14.8,14.8,0,0,0-3.6-3,9.1,9.1,0,0,0-3.1-1.2c-4.9-.9-4.9-1-5.1,4,0,1.4.2,2.9-.6,4.1s-3.6,2.2-5.5,1.2S75.6,108.1,76.7,106.7Z"/><path class="cls-2" d="M131.3,82.8c.6.5,1.5.9,1.6,1.5a2.4,2.4,0,0,1-1.1,1.9,22.7,22.7,0,0,0-5.8,4.1c-.3.3-.7.7-1.1.7-4,.3-8,1.2-11.2-2.2a4.1,4.1,0,0,0-4.6-1.5,9.3,9.3,0,0,1-2.9.2c-1.7-.1-3.1.4-3.6,2.3s-1.2,1.4-2.2,1.5H99c-3.5.6-3.5.6-4.2-2.9l.3-.3c2.8-1.3,6.2-1,8.6-3.4a5.9,5.9,0,0,1,2.6-.7c4.3-2.8,6.9,0,9.6,3.1.5-1.2-.5-1.3-.8-1.7l-1.3-1.4c-2.3-2.6-3-5.2-.2-8,1.2-1.2,2.5-2.7,1.5-4.6s-1.6-1-2.6-.9a4.7,4.7,0,0,0-4.3,3.2c-.6,1.7-.5,3.5-1.5,5a2.1,2.1,0,0,1-1.2.5c-3-.9-4.2-2.9-2.9-5.8s-.6-3.4-.1-5.1l.2-.3c1.9-1.5,3.8-1.2,5.6.2H116c2.6-1.1,5.1-1.6,7.7,0l5,.2c-.6,2.3-2.8,2.4-4.5,2.8s-4.3,2.4-4.1,5.4a26.2,26.2,0,0,1,0,2.8c.2,2.6-.4,6,2.5,7.2s5.1-1.1,7.2-2.8A4.2,4.2,0,0,1,131.3,82.8Z"/><path class="cls-2" d="M43.1,26.9c1,.2,1.8.5,1.5,1.8s.2.8.4,1.3a4.5,4.5,0,0,1,.1,3.6,21.9,21.9,0,0,0,1.2,14.7,1.4,1.4,0,0,1-.6,1.2c-2,.9-3.9,2-5.9,3.1s-4.8,1.9-7.4-.5-5.7-1.7-7.8-4.6c-1.5,2.7-2.6,6.2-6,5.3s-1.8-2.9-.5-4.7V28.7c.1-2.1.1-2.1,2.8-2.8l.7-.2.5.5c-3.5,6.3-1.1,13.1-2,20,.9-.9.5-1.7.6-2.3s-.2-3.7,1.5-4.3,2.3,1.6,3.4,2.7,2.8,5.3,6.5,4.5,4.9,3.4,7.7.6l.2-.2-.2-.2-.8.4a2.8,2.8,0,0,1-2.2.1,2.8,2.8,0,0,1-1.5-2.7c-.1-2.5-.4-4.8,1.5-7.1.5-.7-1.9-3.3-1.6-5.6s3-3.3,5.3-3.7a6.7,6.7,0,0,0,2-1.2Z"/><path class="cls-2" d="M83.6,32.9c-.5-1.8.4-3,1.3-4.3a5.3,5.3,0,0,1,3.1-2c1.1-.4,1.8-.1,2,1.1s.4,1.9,1.6,2,2.2.4,3.1-.6a10.5,10.5,0,0,1,.8-1.1q2.1-1.8,3,1.2a1.5,1.5,0,0,1-.1.9c-2,3.2-2.1,6.8-2.2,10.4s.7,5.8-1.1,8.3c-2.2.2-4.1.6-5,2.9s-1.4,1.2-2.4,1.2H84.9c-1.4,0-2.7-.3-3.4-1.5a4.9,4.9,0,0,0-4.7-2.5c-.4,0-.8-.5-1.1-.8l.3-.7c2.3-2.9.9-6.3,1.3-9.4s-.7-5.3,0-7.9l1.3-.2a3.9,3.9,0,0,1,.8,1c1.3,2.4,1.3,2.4,4.2,2,1.4,2.2,0,4.3-.4,6.4a12.7,12.7,0,0,0,.6,8.4c1,2.4,2.4,2.7,4.4,1S92.9,37.9,91,33.9,86.3,31.5,83.6,32.9Z"/><path class="cls-1" d="M18.1,48.1c0,1.1,0,2.2.1,3.3s.7.9,1.4.7,3.4-2.3,3.3-4.7c0-.8.1-1.6.2-2.9a29.7,29.7,0,0,1,2.4,2.1c1.8,2,3.6,4,6.8,3.2.8-.2.9.5,1.2,1.1s1.4,2.3,3.1,1.8,3.1-.8,3.8-1.8,3.5-1.8,5.5-1.8a1.1,1.1,0,0,1,1,.9,10.8,10.8,0,0,1-8.1,5.8H35.5a4.3,4.3,0,0,1-4.1-2c-2-2.7-4.6-2.6-7.1-.1s-5.7,2.6-7.6-.8a8.3,8.3,0,0,1-.7-1.3C15,49.5,15.2,49.1,18.1,48.1Z"/><path class="cls-2" d="M75.7,48.1l-.5-.2c-2.8-1.8-2.9-1.9-3.3,1.1a3.3,3.3,0,0,1-2.6,3l-2.2.7c-1.5.4-2.4.1-2.8-1.6a2.4,2.4,0,0,0-2.7-2,23.6,23.6,0,0,1-3.8-.2c-1-.1-1.2-1-1.2-1.8,1.8-1.4,1.3-3.5,1.7-5.3s.3-2,1.4-2.3,1.9.8,2.5,1.7,1.2,2.7,1.9,3.9,1.6,3.1,3.5,2.6,1.8-2.1,2-3.5c.5-3.9,1.2-7.8,1-11.8,0-1.9-.3-3.9,1.2-5.4a6.2,6.2,0,0,1,1,2c.1,1.6,1,1.2,1.9.9l2.2.2C76.7,36,78.2,42,76,47.8Z"/><path class="cls-1" d="M138.1,15.5h8.1c2.9-.1,5.7,0,8.4,1.4a9.9,9.9,0,0,0,7,.1c2.1-.7,3.6-.5,5.2,1.1s2.1.9,2.7-.4,2.3-2.4,2.2-4.1a1.1,1.1,0,0,1,1-1c1,.1,1.8.5,1.8,1.7a9.3,9.3,0,0,1-2.7,6,5.2,5.2,0,0,1-3.9,1.2c-4.9-.3-9.8-.3-14.7-1.3-1.2-.2-2.4-.7-3.6-1a7.4,7.4,0,0,0-2.8-.8C143.4,18.8,140.7,17.2,138.1,15.5Z"/><path class="cls-1" d="M171.7,64.4l-4.7.5-1.4.2c-1.4-.2-2.8-.5-4.2-.6l-4.1.2a20.2,20.2,0,0,1-.1,3.5,10.4,10.4,0,0,1-1.1,3.1,9,9,0,0,1-2,1.9,2.9,2.9,0,0,0-1.5,2.8l-.6.5c-3.4,1-4.3-.8-4.3-3.8a5,5,0,0,1,.2-1.2,9.3,9.3,0,0,0,.4-2.3l-.3-1a6.1,6.1,0,0,0-.7-1.4l-.7-.9a4.4,4.4,0,0,1-.8-1.5,2.8,2.8,0,0,1,2.5-1.8c1.5-.1,2.6.4,3,1.7a38.1,38.1,0,0,1,1.3,4.5c.1.3.4.6.6.6s.7-.3.7-.5a13.7,13.7,0,0,0,.5-2.8,4,4,0,0,1,3.4-3.5,27.3,27.3,0,0,1,4.1-.3,12,12,0,0,0,3.8-.2C168.5,61.1,170.2,62.4,171.7,64.4Z"/><path class="cls-2" d="M76.7,106.7a16.4,16.4,0,0,0-.2,2.3c-.1.3-.2.7,0,.9s2,.5,3,.5,1.7-.4,1.8-1.3,0-4.3-.1-6.5,1.3-3.6,2.5-3,4.7.3,6.7,1.6a1.6,1.6,0,0,1,.7.7l-.3.3-.9.4-1.3.7-.8.7-.9.8-.5.2H85.2c-3.7.5-.6,3.7-2,4.8-.1-2.6.6-4.9,4.2-4.5a1.7,1.7,0,0,1,1.2.6c1.2,2.5.5,4.8-.8,7l-.6.5a13.4,13.4,0,0,1-2.7.7c-.8.1-1.9.3-2.3-.2s-2.6-.7-4-.3l-1.8.6c-1.8.3-4.2-.7-4.3-2.1a9.5,9.5,0,0,1,.3-4.1c.2-1,1.3-1.3,2.3-1.4Z"/><path class="cls-3" d="M131.3,82.8a3.1,3.1,0,0,1-.5,1.7c-1.8,2.2-4.3,3.2-6.9,4a3.2,3.2,0,0,1-3.9-2,12,12,0,0,1-.8-2.7,28.5,28.5,0,0,1-.3-2.9c.2-11.3-1-9.2,8.6-11.7.5-.1.8-.5,1.2-.7s.4.1.5-.1c2,2.3,1.8,2.6-2.6,3.6h-.1c-1.6,1.6-6.2,2.9-.1,5,1.7.6.1,2.4-.8,3.5s-2.2,1.3-1.3,2.6,2,.1,3-.2,2.6-1.5,4-.1Z"/><path class="cls-4" d="M36.1,64.6a4.1,4.1,0,0,1,2.2,4c0,1.4,0,2.8-.1,4.3s-.2,2.2.7,3.1.7,1.5-.1,2-1.2,2.1-1.3,3.4a47,47,0,0,1-.2,5.3,1.9,1.9,0,0,1-1.3,1,1.9,1.9,0,0,1-1.4-1.1,5.8,5.8,0,0,1-.3-2.3V79.9h-4c-.3,0-.6-.6-.8-1a.8.8,0,0,1,.2-.8,21.1,21.1,0,0,1,3.4-1.6,2.5,2.5,0,0,0,1.7-2.1c.2-1.9.8-3.8.2-5.6-1.5-.3-3.3,2.1-4.1-.1s1.5-2,2.6-2.8l2.1-1.2C35.8,64.8,35.9,64.8,36.1,64.6Z"/><path class="cls-5" d="M59.4,83.8l-2.1,3.4h0c-4.1,3.1-5,2.9-8.3-1.9h0c-1.2-1.5-.8-3-.1-4.6h0c.8-4,1.8-7.9,6.8-8.6l.2.2.3-.2c2.9,1,3.8,3.4,4.4,6.1S60.9,82.2,59.4,83.8Z"/><path class="cls-1" d="M108.3,68.3l-5.6-.2A6.5,6.5,0,0,0,102,66a3.5,3.5,0,0,0-1.8-.6c-2.3-.2-4.4-.1-5.8,2.3a3.3,3.3,0,0,1-2.5.9l-12.4-.3c.7-.6,1.3-1.6,2.1-1.8,2.8-.5,5.6-.8,8.5-1.1A4.6,4.6,0,0,0,93,64.3c2.8-2.5,6.1-2.9,9.7-1.9,1.1.3,2.2.7,2.6,1.8S108.3,66.2,108.3,68.3Z"/><path class="cls-2" d="M145.8,64.4c1.3.1,1.9.7,1.5,2.1s-3.4.8-4.8,2.8c2.3-.6,3.6.5,3,2.3-1.8,5.5-3.4,11.1-8.1,15l-.3-3.3c-.1-1.7.1-3.2,1.8-4l.8-.7c1.3-1.4,1.6-2.1.5-3.7a8.2,8.2,0,0,1-1.2-4.5c-.1-1.7.7-3,1.6-4.4s2.2-.9,3.3-1.5h1.9Z"/><path class="cls-1" d="M77.6,68.3a51.2,51.2,0,0,1-5.6.3c-1.7-.1-2.8.9-4.1,1.8h-.6c-1.5-.1-2.1,1.2-2.9,2a3.3,3.3,0,0,1-1.3.7c-2,.4-4,.7-5.6-.9.1-1.1.6-1.8,1.7-1.9A3.3,3.3,0,0,0,62,68.7c1.7-3.2,4.7-3.5,7.8-3.3s4.4.7,6.5,1.1S77.5,67.4,77.6,68.3Z"/><path class="cls-6" d="M76,47.8c-.9-5.3-.4-10.6-.4-15.9.1-.6.8-1.2,1.3-1.8h.4a9.4,9.4,0,0,1,1,3.1c.2,4.3.3,8.6.3,13C78.6,47.7,78.2,47.9,76,47.8Z"/><path class="cls-2" d="M153.5,126.8a14.4,14.4,0,0,0-3.7,1,10.5,10.5,0,0,1-7.4.6,13.4,13.4,0,0,0-6.6-.1,54.2,54.2,0,0,1-9,.3c-.4,0-.8-.5-1.2-.8l.5-.6c10.2-1.6,20.3-3.6,30.7-1.9l.5.6-1,.9Z"/><path class="cls-1" d="M18.1,11.6H28.7a14,14,0,0,0-.9,1.7,3.2,3.2,0,0,1-3.3,2.2H21.6C18.9,15.3,18.6,15,18.1,11.6Z"/><path class="cls-1" d="M29.6,11.6h6.1a1.7,1.7,0,0,1,1.5,1.5c.1,1.7.1,3.4.1,5.1a5,5,0,0,1-1.9-1.1c-.8-.9-1.5-1.7-2.7-1.7S29.5,13.8,29.6,11.6Z"/><path class="cls-2" d="M57.5,72.1h6.6c.9,2.6-.8,4.6-1.9,6.5s-2.1.3-2.7-.9l-3.3-5.5Z"/><path class="cls-2" d="M55.7,72.2c-2.8,1.1-4.5,3.4-5.7,6-.4.9-.8,1.7-1.1,2.6a14.1,14.1,0,0,1,.8-6.1c.6-2.1,2-2.7,3.9-2.6Z"/><path class="cls-1" d="M123.7,68.3c-2.6-.4-5.1.8-7.7,0,.4-2.7,2.5-1.9,4.1-1.9S123.4,65.9,123.7,68.3Z"/><path class="cls-2" d="M126.6,72l2.4-1.1c.9-.5,1-1.1.2-2.5l1.2-.2a3.3,3.3,0,0,1,1.4.4c.7.3,1.4,1,1.1,1.8a2.9,2.9,0,0,1-1.6,1.5A37.3,37.3,0,0,1,126.6,72Z"/><path class="cls-1" d="M32.5,64.4c-1.9,1.7-3.8.3-5.8,0,1-2.1,2.8-2.1,4.6-1.7S32.4,63.7,32.5,64.4Z"/><path class="cls-1" d="M21.8,26h-.9c-.9-2.3-.9-2.3,1-3.7h0C23.7,23.5,23.5,24.7,21.8,26Z"/><path class="cls-2" d="M172.7,12.6l-1,1h0c-1.1-1-1.2-2.3-1.2-3.7a4.2,4.2,0,0,1,1.2-3l1,1Z"/><path class="cls-2" d="M46.9,50l-1-.9.3-.3a2.6,2.6,0,0,1,3.4.1,10.5,10.5,0,0,1-.8,1.1Z"/><path class="cls-7" d="M77.6,122h8a24.8,24.8,0,0,0,6.1-.6,25.9,25.9,0,0,1,5.6-.4h5.2l.6.3c2,2,4.7,1.7,7.1,2.4s.8-3.6,3.2-3.2c6.3-2.3,12.8-.3,19.2-1,1.5-.1,3.1.5,4.6-.3h.8a2.7,2.7,0,0,0,3,0h1.9c3.4.7,6.8.1,10.2,0s9.2,1.3,13.8.4h1.5a2.9,2.9,0,0,1,2,3.7,1.8,1.8,0,0,1-1,1.1h-1.5L127,125.5c-7.3.2-14.3,4-21.8,1.8-9,.1-18,.1-26.9.8a90.5,90.5,0,0,1-15.6-.2c-2.6-1.2-1.6-2.4.2-3.1a12,12,0,0,1,7.4-1.2c4.6,1.1,9.1-.2,13.7.3C81.8,123.5,79,125,77.6,122Z"/><path class="cls-8" d="M169.9,87.2c-.3-.4-.7-1.3-1-1.3a16.8,16.8,0,0,0-3.2.9c-1.2.4-2.4.9-3.6,1.2s-3.4-.8-2.9-3a28.5,28.5,0,0,1,1.2-3.1c.6-1.7,1.4-3.3,2-4.9a25.3,25.3,0,0,0,1.2-3.6c.4-1.3.8-2.8-.2-3.7s-2.3.2-3.3.9a1,1,0,0,1-1.6-.2,1.8,1.8,0,0,1,.2-1.4,5.9,5.9,0,0,1,4.4-2.5,2.9,2.9,0,0,1,2.8,1.4,6.2,6.2,0,0,1,.7,5.1c-.6,2.3-1.4,4.6-2.2,6.8s-.9,2.6-1.3,3.8l.6.5,5.6-1.4.6-5.6c.3-2.9.5-5.7.8-8.6a2.5,2.5,0,0,1,.5-1.3,3.1,3.1,0,0,1,1.5-.8,1.3,1.3,0,0,1,.9,1c.1,1.2.1,2.5.1,3.8-.1,2.9-.1,5.7-.1,8.6a20.9,20.9,0,0,0-.1,2.5c.1,5.4.1,5.4-3.6,4.9Z"/><path class="cls-2" d="M102.5,102.8c.1-1.3.1-2.8,1.4-3.4a6.1,6.1,0,0,1,5.1.1,3.1,3.1,0,0,1,1.1,2,9.1,9.1,0,0,1-.3,2.3c-.5,2.3-.1,2.8,2.3,2.9a5.3,5.3,0,0,0,3.6-1.1,7.8,7.8,0,0,1,2.1-.9,1,1,0,0,1,.5.4,17.8,17.8,0,0,1,.1,6.9c-.2.2-.4.3-.5.5a9.4,9.4,0,0,0-3.1.8,5.4,5.4,0,0,1-3.6,1c.5-1.7-1.2-1.9-1.8-2.8.1,1.3,1.4,1.7,1.7,2.7a3.4,3.4,0,0,1-1.5.7,17.7,17.7,0,0,1-3.2-.5l-.5-.5c-1.3-2.5.2-4.9.5-7.4.1-.6.2.1-.1-.4s-.2.3-.4.4c-2.3,1-2-1.2-2.7-2.1a5.4,5.4,0,0,1-.5-1.1Z"/><path class="cls-2" d="M91.1,101.9c1.5.9,3.7.8,4.2,3.3s1.5,1.5,2.7,1.4,1.6-1,1.7-2,1.5-1.7,2.8-1.8h.1c1.3,2.5,1.7,5-.2,7.4a1.5,1.5,0,0,1-2,.1c-.6-.2-1.4-1.4-1.9-.3s1,1.9,2.2,2.1a12.6,12.6,0,0,1,3.3.5,1.8,1.8,0,0,1,.8,1.1l-.3.6H94l-.3-.6c1.7-3.4,1-5.8-2.8-7a3.7,3.7,0,0,1,.2-4.9Z"/><path class="cls-2" d="M163.7,95.3h.5a24.7,24.7,0,0,0,11.1,1.8c1-.1,1.6.6,2.3,1.3s1.3,3.8,1.4,5.7-1.8,2.8-3.4,3.6-.3-.4-.5-.5a4,4,0,0,1-.1-1.9c.1-1.8,1.2-4-.8-5.2s-2.5,2.1-4.2,2.3a3.1,3.1,0,0,1-1.3-.3c-1.1-1.8-3.4-1.8-4.8-3.2A7.3,7.3,0,0,1,163.7,95.3Z"/><path class="cls-2" d="M168.8,120.1h-1a49,49,0,0,1-14.3,0c-2.7,0-5.4.1-8.1-.1a8.1,8.1,0,0,1-2.5-.8c3.3-.9,6.7-.5,10.1-.9a12.4,12.4,0,0,1,6.6.5,6.6,6.6,0,0,0,4.6-.2,5.5,5.5,0,0,1,6.5,1.5l-.3.4A1.4,1.4,0,0,1,168.8,120.1Z"/><path class="cls-2" d="M137.2,119.2a3.9,3.9,0,0,1-3.1.9H125c-4.3,0-8.6-.3-12.8,1a.9.9,0,0,1-1.1.1c-.3-.4-.2-.7.1-1.1l4.1-.9c2.6-.5,5.2-1.5,7.9-.2a4.4,4.4,0,0,0,2.3.1c2-.2,4.1-.9,6.1-.6A50.4,50.4,0,0,0,137.2,119.2Z"/><path class="cls-2" d="M170.7,120.1c1.5,1.3,1.2,2.8.6,4.3a3,3,0,0,1-1.8,1.3,13.2,13.2,0,0,1-2.8.2h-9.4a1.3,1.3,0,0,1,1.3-1.6c3.4-.1,6.8-.8,10.2-.3h0a.6.6,0,0,0,1,0h0c1.1-1-.2-2.7.9-3.8Z"/><path class="cls-2" d="M169.9,87.2c2.8.3,2.9.2,3.2-2.2a25.1,25.1,0,0,1,.4-2.7l.9,1.6a2.9,2.9,0,0,1-.6,3.7,5.2,5.2,0,0,1-2.1.7A1.4,1.4,0,0,1,169.9,87.2Z"/><path class="cls-2" d="M125.7,114.3c-1,.4-1.8,1-3.1.5a8.5,8.5,0,0,0-3.2-.2c-2,.3-1.3-1.2-1.5-2.1h.1c1.7-.7,3.4-.1,5-.2S125.6,112.5,125.7,114.3Z"/><path class="cls-9" d="M125.7,114.3l-2.9-1c-.2-1.9,1.2-2,2.4-2.2a1,1,0,0,0,1.6.1,1.9,1.9,0,0,1,1.6.8,1.4,1.4,0,0,1,.2.6l-2.2,1.6h-.7Z"/><path class="cls-10" d="M163.7,95.3c.7.9,2.1,1.6.5,2.8a1,1,0,0,1-1,.3c-.6-.3-.7-1-1.2-1.3h0a.8.8,0,0,1,.1-.9l1.2-.9A.3.3,0,0,0,163.7,95.3Z"/><path class="cls-2" d="M175.6,107.7c-.3,2.5-.3,2.5-2.9,2.8l-.2-.2c0-1.9.9-2.9,2.9-2.8Z"/><path class="cls-7" d="M102.5,121a2.8,2.8,0,0,0,.1-.9h3.8l1.1.8a2,2,0,0,1,.1.7c-1.9,1.9-3.4.6-5-.5Z"/><path class="cls-2" d="M92,114.4c-1.6-.3-3.4.6-4.8-1h.1a3.8,3.8,0,0,1,1.7-.8,6.2,6.2,0,0,1,1.9.1,2,2,0,0,1,1.3,1.2Z"/><path class="cls-7" d="M111.2,120.1a2.8,2.8,0,0,0,.1.9,2.6,2.6,0,0,1-3.9.1h-.1a.6.6,0,0,1,.1-.9Z"/><path class="cls-2" d="M141,119.2a1.8,1.8,0,0,1-3,0Z"/><path class="cls-2" d="M106.4,114.4c-.6.9-1.3.9-1.9,0h0a1.4,1.4,0,0,1,1.8-.1Z"/><path class="cls-2" d="M94,114.4c-.7.9-1.4.9-2,0v-.2a1.2,1.2,0,0,1,1.8.1Z"/><path class="cls-2" d="M107.4,120.1a2.8,2.8,0,0,1-.1.9l-.9-.9Z"/><path class="cls-2" d="M61.3,126.8h45.1l.4.4-.4.5H94.9a48.8,48.8,0,0,0-5.2.6c-1.2.1-2.6.5-3.7,0a4.8,4.8,0,0,0-5.3.9,5,5,0,0,1-5.8.6,15.5,15.5,0,0,0-2.3-.8,4.1,4.1,0,0,0-4,.5c-.8.5-1.9,1.2-2.6.9-3.8-1.4-8-.1-11.6-2.2a5.9,5.9,0,0,0-6,.2,10.5,10.5,0,0,1-6,1.2,14,14,0,0,0-5.7.7,6,6,0,0,1-2.3.1l-7-1.4a6.1,6.1,0,0,0-1.9-.1c-2.6.4-5.2,1.2-7.9,1.3s-5.4-.1-7.1-2.8-1.2-2.1-.6-3.5a3.1,3.1,0,0,1,3.4-2c0,2.6,1.4,3.6,3.9,3.5H31.9c5.8-.2,11.6.5,17.4-.5l2.5-.4C55,124.9,58.4,124.8,61.3,126.8Z"/><path class="cls-11" d="M51.7,125.9H49.8c-6.1-.5-12.2.2-18.3.9H14.4c-1.1,0-2.3.1-2.8-1.2s.3-2.4,1.4-3.2l.3-.4h24a13.1,13.1,0,0,0,7.6.1h2a1.4,1.4,0,0,0,1.9,0h2.8a2.7,2.7,0,0,1,3,0h0C57.2,126,52.6,124.5,51.7,125.9Z"/><path class="cls-12" d="M20,102.8l1.8-.8h0a1.2,1.2,0,0,1,.2,1.9v2.9c3.8,1,2.3,4.3,2.9,6.7s-.9,2.3-2.1,1.1-1.1-1.5-2.4-.6-1.4-.2-2.1-.3.1-2.4.2-3.6S18.1,104.9,20,102.8Z"/><path class="cls-2" d="M24.8,113.4c-1.2-.9-2.2-2.3-1.4-3.5s-1.1-2.2-1.5-3.2a19.2,19.2,0,0,1,2.4,0,2.7,2.7,0,0,0,2.6-1.7c.6-1.2,1.8-2.1,2.7-3.2h.1a5.4,5.4,0,0,1,.7,1.3,43.3,43.3,0,0,1,.1,7.2,5,5,0,0,1-.5,1.3,2.8,2.8,0,0,1-1,.9,1.3,1.3,0,0,1-1.6-.6,2,2,0,0,1-.2-1.1c0-.3.6-.3.5-.6s-.4-.2-.7,0-1.1,2.3-2.2,3.1Z"/><path class="cls-2" d="M125.6,127.8a15.4,15.4,0,0,1-3.7.9q-6.5.2-12.9,0a8.9,8.9,0,0,1-2.6-.9h0c5.3.1,10.3-2.2,15.7-2,1.5.1,3.2-.3,3.5,2Z"/><path class="cls-2" d="M22,103.8a11.1,11.1,0,0,0-.2-1.9C22.9,102.4,23,103,22,103.8Z"/><path class="cls-13" d="M51.7,125.9a8.2,8.2,0,0,1,2.2-1.6c1.3-.6,1.1-1.4.7-2.3h23a2.9,2.9,0,0,0,2.6,1h5.4c-1.5,2-3.2,2-4.9,1.7a4,4,0,0,0-3.2.5,4.3,4.3,0,0,1-4.5.1,6.5,6.5,0,0,0-5.1-.5c-1.4.2-2.9.2-4.2.5a8.4,8.4,0,0,0-2.4,1.4,19.6,19.6,0,0,1-6.4-.6A11.2,11.2,0,0,0,51.7,125.9Z"/><path class="cls-14" d="M19.1,110.5l-.9,3.1a8.2,8.2,0,0,1-2.2,1.6,1.8,1.8,0,0,1-1.6-.6,5.6,5.6,0,0,1,.3-2.2c.2-.3.9-.3,1.3-.5s1.3-1.2.5-2l-.8-.6c-2.5-2.3-2.6-3.8-.4-6.3s1.6-1.1,3.8-.2c.6.7.6,1.6-.1,2s-1.2,2.4-.4,3.8a2.8,2.8,0,0,1,.4,1.2A1.7,1.7,0,0,0,19.1,110.5Z"/><path class="cls-15" d="M60.2,104.8v1.8c-2.5,2-.9,5.5-2.9,7.7l-2.8-.9a2.2,2.2,0,0,1,.1-3.2c.2-.5.8-1.3.6-1.6-1.2-1.9,0-3.5.5-5.2s.5-.6.8-1,.9.8,1,1.2,1.6,1.2,2.7,1.2Z"/><path class="cls-16" d="M50.6,113.5c-.9.4-1.8.7-2.4-.5l-.8-2.1-2,3.2c-1.6-1.1-1.3-2.6-1.2-4s.4-1.7,2-1.8l1.4-.2c1.5-.6,2,.2,2.3,1.5a12.2,12.2,0,0,0,.7,1.7A1.4,1.4,0,0,1,50.6,113.5Z"/><path class="cls-17" d="M27.9,110.8a2.5,2.5,0,0,1-.2.7c-.3.2-.4.5-.2.7s.7.7,1.2.3h0a2.5,2.5,0,0,0,.8-1.2c.1-2.7.2-5.5.2-8.3,2.8.1.2,3.1,2.1,3.6s.7.8,0,1.3-.4,2.9-.8,4.4.5,2.4-1.5,2.2a6,6,0,0,1-4.7-1,21.5,21.5,0,0,1,1.1-3.6,1.1,1.1,0,0,1,1.9-.4A1.7,1.7,0,0,1,27.9,110.8Z"/><path class="cls-18" d="M37.3,112.4c.4-3.3.7-6.7,1.2-10.6,1.4,2,.9,3.6.9,5.1s1,1.3,1.9,1.3a1.2,1.2,0,0,1,.8.4c.6,1.2.7,2.1-1.1,2h.1c-.3-.4-.6-.3-.8.1l-1.2,2.6C37.9,114,37.2,114.1,37.3,112.4Z"/><path class="cls-19" d="M18.2,109.3l-1.5-1.7c-.6-.5-1.3-1-1-1.9s.8-1.6,2.1-1.3,1.1-.8,1.3-1.6H20c-.1,1.9,0,3.7-.2,5.6a8.6,8.6,0,0,1-.7,2.1h0A3.4,3.4,0,0,1,18.2,109.3Z"/><path class="cls-20" d="M50.6,113.5v-2.2a9.5,9.5,0,0,1,1.1-2c1.2-1.2,1.9-1,3,.9s-.1,2.2-.1,3.2C52.7,115.8,52.6,115.8,50.6,113.5Z"/><path class="cls-21" d="M37.3,112.4l1.8.9c-.9,1.5-2.5,1.4-3.7,1.6a2.6,2.6,0,0,1-2.8-3.3,4.6,4.6,0,0,1,1-2.1,1.8,1.8,0,0,1,1.5-.8c1.2.4.4,1.2,0,1.8a6.1,6.1,0,0,0-.5,1.2c-.2.8.5,1.4,1.4,1.2Z"/><path class="cls-22" d="M64.2,111.5c.1-1.5-.6-3.2,1-4.3a2.7,2.7,0,0,1,1.3-.2,1.1,1.1,0,0,1,.2.8,3.1,3.1,0,0,0,.1,3.1,3.7,3.7,0,0,1,.4,1.8,1.9,1.9,0,0,1-1.5,2.1c-.9.1-1.4-.6-1.7-1.3s.1-.6.1-.8a2.5,2.5,0,0,0,.1-.8Z"/><path class="cls-23" d="M65.1,112.4,64,113.5c-1.6.3-3.1,1.1-4.7-.1s-1.9-4.3,1-5.7a1.7,1.7,0,0,1,1,0l.9,1a4.5,4.5,0,0,0-.6,1.2c-.3.6-.9,1.5-.7,1.9s1.6.3,2.4,0l.9-.3h0A2.8,2.8,0,0,0,65.1,112.4Z"/><path class="cls-24" d="M60.3,107.7c-1.4,1.7-2.5,3.5-1,5.7l-1.9.9v-5.1c.1-2,.2-2.1,2.9-2.6Z"/><path class="cls-25" d="M29.5,114.4c1.5-1,1-2.5,1.1-3.9s-.1-2.3,1.2-2.7c-.1,2.1-.2,4.3-.5,6.5S30.2,115.1,29.5,114.4Z"/><path class="cls-26" d="M41,110.6a19.8,19.8,0,0,0,1.1-2c1.5,1.2.9,2.9.9,4.4a1,1,0,0,1-.5.6c-.4-.1-.9-.3-1-.7A15.5,15.5,0,0,1,41,110.6Z"/><path class="cls-13" d="M44.9,122.1a7.4,7.4,0,0,1-7.6-.1Z"/><path class="cls-25" d="M31.8,106.5c-.9-.2-1.1-.8-1.2-1.6a17.6,17.6,0,0,0-.9-2v-1c1,0,1.7.4,1.8,1.5Z"/><path class="cls-13" d="M54.6,122h-3C52.6,121,53.6,120.9,54.6,122Z"/><path class="cls-13" d="M48.8,122.1c-.6.9-1.2.9-1.9,0Z"/><path class="cls-26" d="M40.3,110.7l.3-.6.5.5Z"/><path class="cls-24" d="M62.2,108.7l-.9-1Z"/><path class="cls-27" d="M171.7,6.8V9.7c-.5,2.3-1.1,4-4.3,3.1a17.2,17.2,0,0,0-11.8.6,15.3,15.3,0,0,1-13.3-1,8.1,8.1,0,0,0-4.6-.9c-5.5.3-11.1-.3-16.5.4a54.7,54.7,0,0,0-9,1.6c-3.2-.1-6.3.1-9.5-.5a35.5,35.5,0,0,0-8-.4c-2.5-.1-5.1.2-7.5-.8a3.8,3.8,0,0,0-1.5-.1c-4.5.7-9.1-.8-13.6.6-.3,0-.8-.4-1.2-.6a.9.9,0,0,1,0-1.3,3.5,3.5,0,0,1,1.3-.8C77.1,7,82.1,7.3,87.3,9a7.5,7.5,0,0,0,4.2.3c6.3-1.7,12.6-1,19-.6a4.6,4.6,0,0,0,4.6-1.9h29.7a48.8,48.8,0,0,0,5.2-.6c1.4-.1,2.8-.3,4.3-.3h10a8.9,8.9,0,0,0,2.6-.9h0a2.4,2.4,0,0,1,2.9,0h0l.9.9h.1l.9.9Z"/><path class="cls-28" d="M115.1,6.8a11.1,11.1,0,0,1-.2,1.9c-.6,1.5-1.5,2.2-2.9,1.7s-4.8-.5-7.1-.7a38.1,38.1,0,0,0-12.6.8c-2.4.5-5.4,1.1-7.6-1.3a1.4,1.4,0,0,0-2.1.3c-.9,1-1.6.9-2.3-.2s-1.8-1.1-2.9-.6-1.2.4-1.6.9-2.6,1-3.9,1.1c.1-2-.7-2.7-2.7-2.7-4.6.1-9.2-.2-13.8.5H54a14.2,14.2,0,0,0-4.6-.2c-7.6.2-15.2-.1-22.8,0-4.5-.5-9.2,1.4-13.4-1.5,1.4-1.2,3-.8,4.6-.8h83.4a35,35,0,0,1,7.2.6A29.6,29.6,0,0,0,115.1,6.8Z"/><path class="cls-29" d="M112.2,13.5c.1-.7.2-1.6,1.3-1.5a7.4,7.4,0,0,1,1.4.4,3,3,0,0,0,3.3-1.2c1.6-1.8,2-1.9,3.6-.8s2.5,1.1,3.8,0a3.3,3.3,0,0,1,3.2-.5c3.1,1.1,6.2.8,9.4.4,1.6-.3,3.4.4,5,.9s.5,1.1.9,1.5,1,.6,1.2-.3a1.9,1.9,0,0,1,.7-1.2,3.8,3.8,0,0,1,1.2.1c-.1,2.4,1.4,2.2,3.1,2.3,3.6.2,6.6-.7,9-3.4s1.3-1.2,2.7,0,2.3,1.7,3.9,1a2.8,2.8,0,0,1,1.8,0c.8.3,1.4,1.6,2.4.8a7.9,7.9,0,0,0,1.6-2.3v3.8a7.5,7.5,0,0,1-7.1,1.9c-4.3-.9-8.5-.8-12.8-.9s-6.4-.3-9.6-.4H132c-1.3,0-2.5-.2-3.8-.3l-.9-.2C122.2,14.7,117.2,13,112.2,13.5Z"/><path class="cls-30" d="M54.6,7.8C60,6.2,65.5,6.9,71,7a31.5,31.5,0,0,1,3.7.4l-2.8,3.3h-1a8.1,8.1,0,0,1-1,.9l-.9.3-23.4-.3c-1.2,0-2.6.2-3.6-.9l.5-.5C46.5,9.2,50.3,7.5,54.6,7.8Z"/><path class="cls-31" d="M13.2,6.7l13.5.2c1.2,2.6-1,2.6-2.4,3.2h-14L9.4,10c-1-.4-2.6-.3-2.7-1.5s2.1-.6,2.7-1.7Z"/><path class="cls-30" d="M9.5,9.6H24.8c4.6-2.9,9.8-1,14.7-1.6,1.5-.1,2.8.6,2.6,2.5H12c-1.8,0-3.8.6-5.4-.9A2.6,2.6,0,0,1,9.5,9.6Z"/><path class="cls-32" d="M39,21.9c-.6-.4-1.3-1-.9-1.8A21.1,21.1,0,0,1,40.2,17a1.1,1.1,0,0,1,1.1-.1,1.4,1.4,0,0,1,.6,1.1,18.9,18.9,0,0,1-.9,2.1h0A2.8,2.8,0,0,1,39.1,22Z"/><path class="cls-33" d="M9.5,9.6H6.6L5,8.9c.4-.6.7-1.6,1.3-1.7a10.8,10.8,0,0,1,3.2-.4L7.3,8.3Z"/><path class="cls-28" d="M69.9,11.6l1-.9v1Z"/><path class="cls-2" d="M169.8,4.9h-2.9C168.3,3.7,168.3,3.7,169.8,4.9Z"/><path class="cls-2" d="M171.7,6.8l-.9-.9Z"/><path class="cls-2" d="M170.7,5.8l-.9-.9Z"/><path class="cls-34" d="M137.4,86.6l7-13.8a5.9,5.9,0,0,0,.5-2.3.8.8,0,0,0-.3-.8.8.8,0,0,0-.8.2,23.1,23.1,0,0,1-1.4,1.9,1.2,1.2,0,0,1-1.2.2,1.4,1.4,0,0,1-.8-1,3.6,3.6,0,0,1,.2-1.8c1.4-2.7,3-3.3,6.7-2.7h.1c1,.3.8,1.3,1.1,2h-.1c1.1.8.9,1.8.2,2.7h0a37.4,37.4,0,0,1-4.7,13.2c5-1.2,4.2-7.3,8.6-8.2h.1c1.9-.7,3.3-.2,4,1.8a11.9,11.9,0,0,0,.8,1.6,8.7,8.7,0,0,1,0,5.3h0a1.5,1.5,0,0,0-.9,1.3c-1.5,1.9-3.4,2.8-5.8,1.9a5.9,5.9,0,0,0-3.7,0l-5.1,1.4c-1.5.4-3.1.8-4.6.1h0c-.9-.9-1-1.8.1-2.6Z"/><path class="cls-35" d="M161.1,111.4c-1.9-.8-3.5-1.2-5.4.7s-4.9.5-7.3-.7c-.4-.1-.6-1.1-.5-1.6a4.4,4.4,0,0,1,1.1-2,2,2,0,0,0,.1-2.7,3.4,3.4,0,0,1-.6-3.5,1.7,1.7,0,0,0,0-1.4c-1.2-2.5-.2-4.9.4-7.5a9.3,9.3,0,0,1,4.6,2.4c2,2,1.9,4.7,2.5,7.2a5.3,5.3,0,0,1,.3,1.2c.3,1.3-.1,2.9,1.2,3.9s3.3.9,4,2.8A1.5,1.5,0,0,1,161.1,111.4Z"/><path class="cls-36" d="M161.1,111.4v-1.1c.4-1.2-.3-2.4.3-3.6a5.3,5.3,0,0,1,1.3-2c.7-.5,1.6-.3,2.4-.4s3-1.8,4.6-2.4l1.8-2.8a2.3,2.3,0,0,1,2.5-1,2.4,2.4,0,0,1,2.3,2,15.5,15.5,0,0,1,0,4.3,11.2,11.2,0,0,1-1,3.1,38.3,38.3,0,0,1-2.9,2.8l-5.4,1.3c-.6.2-1.4.1-1.8.5C163.5,114,162.3,112.8,161.1,111.4Z"/><path class="cls-37" d="M131.4,106.7h1.9c1.7,2,3.8,2.4,6.3,1.9a2.8,2.8,0,0,1,2.1.8,3.2,3.2,0,0,1-.2,3.5c-.1.2-.7.1-.8-.1a8.6,8.6,0,0,1-1-1.6c-.5.6-.8,1.6-1.3,1.8a17.8,17.8,0,0,1-4.6.2c-.5,0-1.1-.8-1.2-1.3a9.6,9.6,0,0,1,0-2.4,1.1,1.1,0,0,0-.6-.7,2.3,2.3,0,0,1-1-1.2A.8.8,0,0,1,131.4,106.7Z"/><path class="cls-38" d="M158.3,97.1l2.8.9c1.3.8,3.4.8,3.2,3.1-1.4,3.9-4.3,2.2-6.9,1.8a3.1,3.1,0,0,1-1.3-.6C154,99.4,154.7,97.7,158.3,97.1Z"/><path class="cls-39" d="M164,100.8,161.1,98h.8a.8.8,0,0,1,1.2,0h1.1a8,8,0,0,0,2,.7c2.2.3,2.2.3,2.4,3s-2.1,2.8-3.5,3.8l-2-.8C162.3,103.2,164.8,102.4,164,100.8Z"/><path class="cls-40" d="M158.3,97.1l-1.6,1.1c-1.4,1.2-1.5,1.4-.2,3.6a1.5,1.5,0,0,1-1.2,1.1,21.1,21.1,0,0,1-1.8-7.8h1c1.2.4,2.5,0,3.6.8Z"/><path class="cls-41" d="M131.1,107.5l1.2.9c.1.7-.6.8-.9,1.2l-1,2.8a.8.8,0,0,1-1,.1h0a4,4,0,0,1-.8-3.8C129.1,107.6,129.8,106.9,131.1,107.5Z"/><path class="cls-42" d="M158.1,96l-1.6.5c-1.4.5-1.4.5-2-1.3h0a4.3,4.3,0,0,1,.9-1A2.2,2.2,0,0,1,158.1,96Z"/><path class="cls-8" d="M157.4,84.7V79.4A3.7,3.7,0,0,1,157.4,84.7Z"/><path class="cls-9" d="M129.4,108.4v4.1h-.8l-.2-.2a3.3,3.3,0,0,1-.3-3.6A1.2,1.2,0,0,1,129.4,108.4Z"/><path class="cls-43" d="M131.4,109.6l.9-1.2c.4.3,1.1.6.3,1.1Z"/><path class="cls-9" d="M129.4,112.5h1C130.1,113.3,129.8,113.3,129.4,112.5Z"/><path class="cls-38" d="M163.1,98h-1.2a2.8,2.8,0,0,1,.1-.9Z"/><path class="cls-38" d="M162.1,96.2a2.8,2.8,0,0,1-.1.9C161.4,96.8,161.3,96.5,162.1,96.2Z"/><path class="cls-40" d="M155.4,94.2l-.9,1Z"/><path class="cls-8" d="M156.5,85.9l.9-1.3Z"/><path class="cls-44" d="M71.8,27c-.2,5.5-.4,11.1-.8,16.6a14.5,14.5,0,0,1-1,4.1c-1.2,2.7-3.3,3.1-5.1.8S63,45.2,62,43.6l-2-4.1c-.9,1.5-.6,2.6-.7,3.6s0,2.2-.1,3.3-1,1.7-2.6.7h0c-1.7-2.7-1.4-5.8-1.4-8.8a18.5,18.5,0,0,1,.1-2.3c.6-1.8.3-3.8.8-5.7,2.5-2.3,3.4-.7,4.1,1.6h-.1c3.8,2.7,2.9,7.9,6.4,10.9.7-1.3.1-3.2,1.5-4.3V26.4q1.8-3.9,3.6,0v.3Z"/><path class="cls-5" d="M49.6,48.9H46.2a10,10,0,0,1-3.1-8.3c.3-3,.5-6,.9-9,0-.5.6-1,1-1.5s.4.2.7,0c3,1.2,2.3,3.8,2.2,6.1s-1.1,4.7.4,7.3c2.7-3.6,2.8-7.7,3.2-11.7.2-1.2.3-2.7,1.8-3.1s2.3.6,2.7,2a30.9,30.9,0,0,1,0,4.3V37a5.7,5.7,0,0,1-.1,1.3,19.9,19.9,0,0,0-.5,3.4c-1.2,2.9-2.4,5.9-5.7,7.2Z"/><path class="cls-2" d="M55.5,30.8a8.8,8.8,0,0,0-1.2-1.5,1.1,1.1,0,0,0-1.8.6v3.8a18.8,18.8,0,0,1-2.6,10.1,2.8,2.8,0,0,1-1.2,1.4c-.4.2-1.4,0-1.5-.3a8.3,8.3,0,0,1-.9-5.1c.1-1.9.3-3.9.5-5.8a4.9,4.9,0,0,0-1.1-4c2.1-.2,4-.6,5.3-2.5s1.2-1,1.5-.8c1.8.9,3.2.5,4.9-.4s2.8.1,2.9,1.8-.1,2.6-.1,3.8l-.7-1.1c-.8-1.4-.9-1.4-2.4-.6s-.4.4-.7.6S55.8,31.2,55.5,30.8Z"/><path class="cls-2" d="M29.7,25.9H40.1a3.6,3.6,0,0,1,3,.9H43a7.8,7.8,0,0,1-3.5,1.8c-3.7-.4-5,1.4-4.7,5a53.6,53.6,0,0,1-.1,8c-.2,2.1-.5,4.2-3.4,4.1-5.6-3.2-6.5-5.7-3.4-11,1.6-2.7,1.1-5.6,1.4-8.4A2.1,2.1,0,0,0,29.7,25.9Z"/><path class="cls-2" d="M68,38.5c0,1.6,0,3.2-.1,4.8s-.2,1.9-.7,2-1.4-.9-1.8-1.6c-1.8-3.9-3.5-7.9-5.3-11.8a4.3,4.3,0,0,1,4,3.9,12.8,12.8,0,0,1,.1,1.9c.2,1.3.6,1.5,2,1.2Z"/><path class="cls-2" d="M21.8,26c.2-1.3,1.1-2.5.1-3.8,1.8.1,3.5,1.5,5.5.4.3-.2,1.4.5,1.8,1a5.9,5.9,0,0,1,.5,2.3v.2c-2.5.4-5,.8-7.5.1Z"/><path class="cls-2" d="M71.7,26.4c-1.6-1.5-1.3-2-3.6,0,.1-1.6.1-3.7,2.1-3.6S71.8,24.9,71.7,26.4Z"/><path class="cls-2" d="M39.1,22,41,20.1C40.8,21.8,40.8,21.8,39.1,22Z"/><path class="cls-2" d="M49,85.4l.9,1c1.7,1.9,3.7,2.5,6,1.3l1.4-.4c-.2.4-.2.9-.4,1.3s-.7,2-1.4,2.4a10.7,10.7,0,0,1-3.2.7,1.2,1.2,0,0,1-.8-.4C50.8,89.3,49,87.7,49,85.4Z"/><path class="cls-2" d="M48.9,80.8c0,1.5.1,3.1.1,4.6C47.5,83.6,47.4,82.9,48.9,80.8Z"/><path class="cls-45" d="M95.1,48.8a75.4,75.4,0,0,1,.6-17.1c.3-1.5.4-1.5,2.7-1.6h.1c2.9,1.7,2.7,5,4.1,7.4h0a13.6,13.6,0,0,1,2.2,2.5,11.8,11.8,0,0,0,1.1-7.1c-.2-2-.2-4.2,2.2-4.4s1.2,2.5,2.1,3.6v7.9c-1.4,2.8,1,6.4-2.1,8.8h.1c-4,3.4-5.3-.8-6.8-2.7s-2.2-5.1-3.2-7.6a12.7,12.7,0,0,1,.2,8.8c-.4,1.3-1.4,3-3.4,1.5Z"/><path class="cls-2" d="M95,48.8c1.2.3,2.3.3,2.5-1.3a36.2,36.2,0,0,0,.2-4.7V37.6c1.3-.2,1.5.7,1.7,1.3s1.5,3.5,2.3,5.3.9,2,1.4,2.9c1.4,2.4,2,2.6,5.1,1.7a18.8,18.8,0,0,1-1.6,2.3,1.2,1.2,0,0,1-2-.1c-.2-.2-.3-.5-.6-.8-1.7-1.8-3.6-2.4-5.9-.9a2.8,2.8,0,0,1-1.7.5C95.9,49.8,95.5,49.2,95,48.8Z"/><path class="cls-2" d="M110.2,32.2a14.3,14.3,0,0,0-.8-2.2c-.3-.5-.8-1-1.3-1s-1.4.6-1.5,1.4a7.5,7.5,0,0,0,0,1.5c-.1,1.7,0,3.5-.2,5.2s.9,4.7-.9,6.8c-1.7-1.8-2.3-4.1-2.9-6.3,2.7-.6,2.8-.7,2.8-2.7s.2-1.4-.1-1.9c-1.4-2.7.7-4.3,2-6.2s2.4-.4,2.6.8S110.1,30.7,110.2,32.2Z"/><path class="cls-2" d="M55.5,38.3c-.2-.3-.1-.5.1-.8s.6-.4.9,0c0,3.2,0,6.4.1,9.6l-2-1.4c-1.2,1.7-2.1,4.1-4.9,3.2a22.2,22.2,0,0,0,4.9-7.5C55.4,40.5,54.8,39.2,55.5,38.3Z"/><path class="cls-2" d="M102.6,37.5c-1.4-2.4-2.7-4.9-4.1-7.4a2.3,2.3,0,0,1,2.9,1.6C102.1,33.6,102.9,35.4,102.6,37.5Z"/><path class="cls-2" d="M108.1,48.9l2.1-8.8V47A1.7,1.7,0,0,1,108.1,48.9Z"/><path class="cls-2" d="M131.3,82.8a3.6,3.6,0,0,0-1.8.3c-1.3.6-2.5,1.4-3.8,1.9s-2.5.6-2.9-.2-.8-3.6.8-4.5l1.7-.8c1-.5,1.8-1.7,1.4-2.1s-1.5,0-2.2.2a16.6,16.6,0,0,1-2.2.3c-.6-5.1-.6-5.1,4.2-5.9-.8,1.7-1,2.9.7,4.6S131.1,79.9,131.3,82.8Z"/><path class="cls-2" d="M137.4,86.7a21.7,21.7,0,0,0-.1,2.6l-1.6-1.4Z"/><path class="cls-46" d="M104.4,85.4c-2.5,3.1-5.5,4.1-9.3,2.8a23.6,23.6,0,0,0,0-6.5,59.2,59.2,0,0,1-.4-9.4c-.1-2.3.9-3.6,3.1-4a18.6,18.6,0,0,1,4.7.1c1.6,1.8,2.5,3.7.9,6s-.7,1.9.4,2.8a13,13,0,0,1,1.5,1.8C107.6,81.5,106.1,83.5,104.4,85.4Z"/><path class="cls-8" d="M92.9,78.1c-.2,2.8-.8,5.4-3,7.3s-2.8,2.2-4.7,1.6a4.9,4.9,0,0,1-3.8-4.4,12.5,12.5,0,0,1,.4-5.1,10,10,0,0,1,5.1-6.1,2.5,2.5,0,0,1,3.6,1.1C91.4,74.3,93,75.9,92.9,78.1Z"/><path class="cls-47" d="M59.5,77.7l1.3,1.1,3.3-6.7h.1c1-1.1,1.6-3.1,3.7-1.7h0c.3,1.4.5,2.6-.9,3.8s-3.2,5.1-3.5,8.1,2.1,4.1,4.4,2.7,1.9-1.6,3-2.3.6,0,.8.1a1.3,1.3,0,0,1,.3.8c-.3,2.6-5,5.1-7,4.8a5.2,5.2,0,0,1-3.5-2.2c-.7-.9-.7-2.2-2.1-2.4C59.4,81.7,59.5,79.7,59.5,77.7Z"/><path class="cls-48" d="M77.5,88.3c-1.9.9-2.7.8-2.8-.7s-.5-6-.7-9c0-1.1.1-2.3.1-3.4s-.2-1.8-1.9-2a9.7,9.7,0,0,1-1.8-.3c-.2-.1-.3-.8-.2-1.2a1.4,1.4,0,0,1,.7-.6A17.2,17.2,0,0,1,79.3,70c.3,0,.7.3.7.5a2.8,2.8,0,0,1-.4,1.2l-.5.2c-1.9.2-2.2,1.4-2.1,3,.2,4.5.3,9,.5,13.4Z"/><path class="cls-49" d="M156.2,34.2v2.9c-.9,1.6.4,3.6-1,5.2h0c-.4,2.7-.7,5.5-3.9,6.6h0c-4.1,3.3-7.3,1.5-9.4-5.4-1.7,4-5.4,5.1-8.9,6.1s-5.3-1.7-5.2-5.3.7-8.2-.8-12.2a2.7,2.7,0,0,1,2.1-3.7c3.1-.5,6.4-1.6,8.8,1.7h.1c1.4.5,2.7,1.9,4.3.1s1.5-1.8,2.8-1.1a3.3,3.3,0,0,1,1.5,3.8,18.3,18.3,0,0,0,.3,9c.3.9.5,2.1,1.6,2.1s1.5-1,1.9-1.9c1.1-2.8.7-5.7.9-8.5s-.5-4.9,2.5-4.9,1.8,2.9,2.2,4.6A4.4,4.4,0,0,0,156.2,34.2Z"/><path class="cls-2" d="M156.2,34.2c-.4-1.4-.7-2.8-1.2-4.1s-.9-1.5-1.8-1.1a1.9,1.9,0,0,0-.9,1.4c0,1.3.2,2.6.3,3.8a19,19,0,0,1-1.1,8.5,15.7,15.7,0,0,1-1.4,2.5c-1.3,1.8-2.4,1.7-3.4-.3s-1.6-6.8-1.5-10.3a29.5,29.5,0,0,0,.1-4.2,1.2,1.2,0,0,0-1-.9,1.1,1.1,0,0,0-1.1.6,26.8,26.8,0,0,0-1,3.5c-1.5.2-1.6-1-2.2-1.6a12.6,12.6,0,0,1-2-2c1.3-.1,2.5-.2,3.3-1.6a2.4,2.4,0,0,1,3.7-.8c3.2,2,6,1.2,8.8-.8a.9.9,0,0,1,1.5.4,6.4,6.4,0,0,1,1,2.6A32.3,32.3,0,0,1,156.2,34.2Z"/><path class="cls-2" d="M137.9,30a21.7,21.7,0,0,0-3.6-1.2,11.5,11.5,0,0,0-3.7-.1c-3.1.5-3.6,1.7-2.3,4.6a10.9,10.9,0,0,1,.8,3.1c0,2.4-.1,4.8-.1,7.2a18.3,18.3,0,0,0,.2,3.3,2.7,2.7,0,0,0,3.6,2.2,14.6,14.6,0,0,0,7.1-4.6l2.2-2.8a30.2,30.2,0,0,0,1.7,4.2c1.7,3.1,2.8,5.3,7.5,2.9a13.4,13.4,0,0,1,.1,1.9c-.6,2.2-1.6,2.6-3.9,2.3s-2.5-.7-2.9-2.5a2.5,2.5,0,0,0-3.2-2c-2.5.6-5.3,0-7.7,1.5a3.4,3.4,0,0,1-4.4-.4A3.9,3.9,0,0,0,128,49c-1.1-.3-1.3-1.1-1.4-2.2a35.5,35.5,0,0,0-.6-5.6c-.7-2.2,1.1-4,.5-6.1s-1.4-3.5-.3-5.5-.1-2.4-.6-3.6c1.5.2,3.1.2,4.6.5a5.8,5.8,0,0,0,3.2,0C136.2,25.8,137,26.5,137.9,30Z"/><path class="cls-2" d="M151.3,48.8l3.9-6.6a7,7,0,0,1,.3,1.4C156,47.3,155.3,48.1,151.3,48.8Z"/><path class="cls-2" d="M155.2,42.3c.3-1.8.7-3.5,1-5.2a18.2,18.2,0,0,1,.1,3.3A7.7,7.7,0,0,1,155.2,42.3Z"/><path class="cls-50" d="M18.2,70.3a25.7,25.7,0,0,1,3.4-3.9c2.4-2.2,5.1-1.2,5.7,1.9a8.1,8.1,0,0,1-.1,3.8c-.7,2.4-1.7,4.8-2.6,7.1s-1.7,3.5-2.7,5.6l3.9-.2c.8,0,1.6-.1,2,.9s-.2,1.6-1.5,2a59.8,59.8,0,0,1-6.9,2,1.7,1.7,0,0,1-2-2.3,33.8,33.8,0,0,1,1.8-4.4c1.1-2.3,2.4-4.5,3.4-6.9a44.1,44.1,0,0,0,1.6-5.5c.1-.3-.3-1-.5-1a1.3,1.3,0,0,0-1.2.4c-.7.9-1.1,2-1.8,2.8a2.2,2.2,0,0,1-1.7.5c-.4-.1-.7-.9-.9-1.4a3.8,3.8,0,0,1,.1-1.5Z"/><path class="cls-2" d="M129.4,108.4h-.8a1.8,1.8,0,0,1-1-.4c-.2-.3-.6-.5-.7-.4s.2.8.2,1.3a1.9,1.9,0,0,1-.5,1,13.6,13.6,0,0,1-2.1,1l-.9.6-1.6,1c-4.3-1.5-4.6-2.9-1.9-8.6a.7.7,0,0,1,.6-.4c-.2-.2-.4-.1-.6.2s-1,1.7-2.2,1.1h-.1l.3-4.7a42.4,42.4,0,0,1,4.6-1c1.3-.1,2.5.1,3,1.7s.6,1.4,1,1.5c2.3.5,2.7,2.3,3.4,4s.8.3,1.3.5l-.3.8Z"/><path class="cls-34" d="M106.3,78.7a45.4,45.4,0,0,1,.9-5.1c.2-1.2.3-2.8,1.6-3.3a18.1,18.1,0,0,1,5.1-1.2c2.1-.1,3.6,2.3,2.9,4.5a21.4,21.4,0,0,1-2,3.2,13.7,13.7,0,0,1-1.8,1.6,1.6,1.6,0,0,0-.2,2.5c1.5,2,2.9,4.1,5.5,5.1a1.2,1.2,0,0,1,.4,2,1.5,1.5,0,0,1-2,.9,27.1,27.1,0,0,1-3.5-2.4,31.1,31.1,0,0,1-3.4-3.7c-.3.7-.4,1.3-.6,1.8s-1.3,1.8-2.9.1A11.1,11.1,0,0,1,106.3,78.7Z"/><path class="cls-51" d="M106.3,78.7v6l-1.9.7a10.8,10.8,0,0,0,.9-6.4Z"/><path class="cls-45" d="M22.1,26.2c2.5-.8,4.9-1.8,7.5-.1,2.1,3.4,1.4,6.5-.8,9.6-.5.7-1.2,1.4-1.8,2.1a1.7,1.7,0,0,0-.1,2.2l3.8,5.4c.6.6,2.7,0,1.9,2.1s-1.9,1.9-3.1.9a36.8,36.8,0,0,1-3.9-4,39.3,39.3,0,0,1-2.9-4.2c-1.2.6-.7,1.5-.8,2.2a19.2,19.2,0,0,0,0,2.4c-.1,1.2,0,2.5-.2,3.8s-.9.8-1.3,1.2a6.7,6.7,0,0,1-1.1-1.4,4.1,4.1,0,0,1-.2-1.9c0-5.7-.1-11.4-.1-17.2,0-1.8,0-1.8,2.4-2.5C21.7,26.7,21.9,26.4,22.1,26.2Z"/><path class="cls-52" d="M32.6,47.5l-1.9-2.1c2.3-.4,2.4-.4,2.4-1.9.2-4.3.2-8.5.4-12.8,0-1.7.5-2.3,2.1-2.5l4.2-.4c1.2-.4,2.3-.6,2.6,1l-4.5,1.3a1.8,1.8,0,0,0-1.7,2c.1,1.3.2,2.7.3,4.4a25.8,25.8,0,0,1,3.4-.7c.2-.1.7.2.8.4a.8.8,0,0,1-.2.8c-.6.5-1.2,1.2-2,1.3s-2.4,1.7-2.3,3.5.1,2.5.2,3.8.8,1.2,1.6,1.4,1.6-.1,2.1-1h0a1.3,1.3,0,0,1,1.8.1c-.9,2.6-3.1,3.2-5.4,3.7-.5.1-1.2-.4-1.7-.7S33.3,48,32.6,47.5Z"/><path class="cls-53" d="M42.4,28.8l-2.6-1L43,27C43,27.7,43.4,28.5,42.4,28.8Z"/><path class="cls-54" d="M40.1,46A1.6,1.6,0,0,1,38,47Z"/><path class="cls-54" d="M41.9,46.2H40.1C41.1,44.9,41.4,45,41.9,46.2Z"/><path class="cls-55" d="M83.6,32.9l.6-.7c.7-1.2,1.4-3,2.9-2.9A6.3,6.3,0,0,1,92,32.7l.3.9c1.4,5.3,1.1,10.4-2.1,15a8.8,8.8,0,0,1-2.4,2.3A3.2,3.2,0,0,1,83,49.6a14.5,14.5,0,0,1-1.4-8.4c.3-2,.9-4,1.4-6l.6-2.3Z"/><path class="cls-2" d="M152.5,76c-1.8,2.2-3.7,4.4-4.1,7.4,0,.5-.7,1.1-1.1,1.2a32.1,32.1,0,0,1-5.2,1L148.6,71a11.5,11.5,0,0,0,.1,1.9c.1,2.7.2,2.7,2.9,3.1Z"/><path class="cls-2" d="M148.6,71.1c-.1-.9-.1-1.8-.2-2.7C149.9,69.6,149.9,69.6,148.6,71.1Z"/><path class="cls-2" d="M148.5,68.5l-1.1-2C148.5,66.8,148.6,67.6,148.5,68.5Z"/><path class="cls-56" d="M87.2,105.7c-.9.4-2.1.6-2.7,1.3s-.3,1.8-.5,2.7a26.1,26.1,0,0,1-.6,2.7c-1.3.2-1.1-.7-1.1-1.2,0-2.5,0-5.1.1-7.6a1.7,1.7,0,0,1,.6-1.2c.7-.5,1.1.2,1.5.7a12.9,12.9,0,0,0,1.7,1.6l.5-.3.6.2A.7.7,0,0,1,87.2,105.7Z"/><path class="cls-57" d="M91.1,113.4H89.2c-1.1-1-.9-2.2-.6-3.3a8.5,8.5,0,0,0,.5-3.5c.1-1.2-.3-2.4.2-3.5a3.6,3.6,0,0,1,.8-1.2h1c.2,1.6-.7,3.4.9,4.8C97.2,109.7,92.1,111.2,91.1,113.4Z"/><path class="cls-58" d="M89.9,102.8v3.9c-.5,1-.1,2.1-.6,3.1s-.1,2.4-.1,3.6H87.3c.3-2.5.6-5,.8-7.4l-.9-1.1h0c-.2-.2-.3-.4-.2-.6l.2-.3h.1a8.7,8.7,0,0,1,.8-1h0C88.7,102.4,89.3,102.2,89.9,102.8Z"/><path class="cls-59" d="M76.3,112.5l-.6.5-.6-.9.8-.3C76,111.9,76.1,112.3,76.3,112.5Z"/><path class="cls-60" d="M89.9,102.8H88.1c.4-1,1.1-1,2-.9S90,102.5,89.9,102.8Z"/><path class="cls-61" d="M75.5,108.1l-.3.3-.3-.3Z"/><path class="cls-62" d="M87.2,104.8l.9,1.1-.9-.2Z"/><path class="cls-60" d="M87.2,103.8v.9h-1Z"/><path class="cls-60" d="M88.1,102.8l-.8,1Z"/><path class="cls-63" d="M57.4,79.6c0,2.5-.8,4-2.4,5a2.1,2.1,0,0,1-1.7.2,1.8,1.8,0,0,1-1-1.4,8.4,8.4,0,0,1,2-6.1,1.1,1.1,0,0,1,1.7.1C56.6,78.2,57.1,79.2,57.4,79.6Z"/><path class="cls-2" d="M67.9,70.3c-1.7-.4-2.6,1-3.7,1.7.4-2.5.4-2.6,2.5-3S67.9,69.6,67.9,70.3Z"/><path class="cls-29" d="M125.6,127.8c-2.1-1.7-4.7-1.3-6.8-.8-4.2.9-8.3.6-12.4.8v-.9h3.3a8.8,8.8,0,0,0,6.7-1.8,3.4,3.4,0,0,1,4-.7c1.8.8,3.8-.9,5.4.8.1.1.7-.1.8-.3s2.4-.8,3.6-.9l10.4-.6a9,9,0,0,1,2.3.2,8.8,8.8,0,0,0,2.8-.1,4,4,0,0,1,3.2.2c2.1,1,4.2.5,6.4,0,4.2-1.1,8.5-.8,12.8-.3.3.1.5.4.7.6a41.2,41.2,0,0,1-9.9,1.1c-.5,0-1.1.6-1.6.8h-7.2c-3,.1-5.9.2-8.9.5a52.8,52.8,0,0,0-8.9,1.1C130.2,128,127.8,127.7,125.6,127.8Z"/><path class="cls-64" d="M107.4,121.1h4.8a5.2,5.2,0,0,0,1.1.8c.7.4,1.7.5,1.3,1.5a2.6,2.6,0,0,1-1.8,1.3,30.2,30.2,0,0,1-5.2-.2l-2.8-.6c-1.8-.3-1.8-.3-2.2-2.8l2.7.4C106.2,121.8,106.8,121.8,107.4,121.1Z"/><path class="cls-29" d="M153.5,120.1h14.3c-.5.3-1,.9-1.5.9H155C154.5,121,154,120.4,153.5,120.1Z"/><path class="cls-29" d="M170.7,120.1c-.1,1.4.5,2.8-.9,3.8-.3-1.2-.7-2.5-1-3.8Z"/><path class="cls-29" d="M169.8,123.9c-.3.7-.7.7-1,0Z"/><path class="cls-65" d="M120.8,103.8a19.8,19.8,0,0,0-1.3,3.9,5.7,5.7,0,0,0,.5,3.1c.5,1.3,1.6,1.1,2.7.6a4.1,4.1,0,0,0,1-.9h0c.8-.8,2.1-.1,2.9-.9h0c.8-.4,0-2.4,1.9-1.9a2,2,0,0,1,.1.7c0,1.4-.1,2.7-.2,4.1l-2-.9h-.6l-3,1.8a4.7,4.7,0,0,1-4.8-.9,15.5,15.5,0,0,1-.1-7.7l1.9-1.9A1.1,1.1,0,0,1,120.8,103.8Z"/><path class="cls-66" d="M106.3,114.2h-1.8c0-.3-.1-.5-.1-.8-1.7-2.6-.6-4.9.9-7.1s.1-2.2.3-3.3.4-.5.6-.5.6.3.8.5a3.1,3.1,0,0,1,.3,1.3,35.9,35.9,0,0,1-.3,4.7C106.8,110.8,106.5,112.5,106.3,114.2Z"/><path class="cls-67" d="M111.1,114.2c-1.6-.7-3.3-1.4-2.8-3.7a2.6,2.6,0,0,1,.9-1.6,1.4,1.4,0,0,1,1.3-.1c.3.1.5.7.5,1.1s-.2.6-.3.9.2,1.4,1.3,1.2a4.7,4.7,0,0,1,1.6.2l-1.3,1.3-1.1.8Z"/><path class="cls-68" d="M105.3,106.4l-.3,3.1-.6,4h-3.7a.9.9,0,0,1,0-1.3c4-2.1,1.4-6.3,2.8-9.2.9.3.9,1.1,1.1,1.8A6.1,6.1,0,0,0,105.3,106.4Z"/><path class="cls-69" d="M103.5,102.9c0,2.3.1,4.7,0,7s-.1,2.1-2.8,2.6a1,1,0,0,1-.3-1c.2-.6.8-.7,1.2-1,1.2-2.4.7-5.1,1-7.6A2.7,2.7,0,0,1,103.5,102.9Z"/><path class="cls-70" d="M91.1,113.4c-.5-2,.8-2.9,2.1-3.8s.2-.8.3-1.2h-1c-1.6-.2-.5-1.1-.5-1.7,3.1,0,3.5.4,3.8,2.8s.3,3.8-1.9,4.8H92.1Z"/><path class="cls-71" d="M100.7,111.7v1.7c-1.5.2-2.9.1-3.7-1.4a2.8,2.8,0,0,1,.5-3.5,3,3,0,0,1,2-.8c1,.1,1.1,1,1.1,1.8S100.5,111,100.7,111.7Z"/><path class="cls-72" d="M100.7,111.7c-1.8-.7-1.8-.7-.1-2.2l1,1Z"/><path class="cls-73" d="M165.1,105.6c.5-1.8,2.2-2.6,3.5-3.8h1.2A6,6,0,0,1,165.1,105.6Z"/><path class="cls-74" d="M125.8,111.5h.6Q126.1,112.4,125.8,111.5Z"/><path class="cls-13" d="M31.5,126.8c1-1.2,2.3-.8,3.5-1a18.3,18.3,0,0,0,4.6-.7,7.3,7.3,0,0,1,3.6-.4,7.8,7.8,0,0,0,3.7-.3c1.6-.5,2.3.3,2.9,1.5-1,1.1-2.3.9-3.6.9Z"/><path class="cls-25" d="M28.7,112.5c-.4.6-.9.9-1.5.4s0-1.1.5-1.4A9.4,9.4,0,0,0,28.7,112.5Z"/><path class="cls-25" d="M29.5,111.2l-.8,1.2Z"/><path class="cls-25" d="M27.9,110.8c0-.5-.1-.9-.1-1.4S28.4,110.3,27.9,110.8Z"/><path class="cls-12" d="M18.2,109.3l.9,1.2Z"/><path class="cls-75" d="M53.5,111.9l-.4.8a2,2,0,0,1-.4-.8c0-.3.3-.5.4-.8Z"/><path class="cls-2" d="M65.1,112.4l-.9-1Z"/><path class="cls-76" d="M42.1,10.6c-.5-.8-1-1.7-2.1-1.6-3.2.4-6.4,1.3-9.7-.1-.5-.2-1.2.3-1.8.4l-3.7.4c.6-1,2.1-1.3,1.9-2.8h24c1.1,1.1,2.8,0,3.9,1h0a18.9,18.9,0,0,1-2.1.9c-.8.3-1.9.1-2.7.6C47.4,10.7,44.8,10.7,42.1,10.6Z"/><path class="cls-30" d="M54.6,7.8c-1.4-.1-2.8.4-3.9-1C52.1,7,53.6,6.4,54.6,7.8Z"/><path class="cls-77" d="M152.3,85c-.2-.2-.7-.5-.7-.9a5,5,0,0,1,1.9-4.5,1.3,1.3,0,0,1,1.2.1,2.3,2.3,0,0,1,.8,2.9A3.2,3.2,0,0,1,152.3,85Z"/><path class="cls-78" d="M162.2,106.8c-.1,1.3.6,2.7-1,3.5l-4.8-1.7c-1.3-4.7,1.8-4,4.5-3.8C161.8,105.2,162.5,105.7,162.2,106.8Z"/><path class="cls-79" d="M161,105.6l-2.2.2c-2.2.2-2.2.2-2.4,2.8-1.7-1.4-.8-3.3-1-4.9a2.7,2.7,0,0,1,1.9-.6c1.2.2,2.5,0,3.6.3S162.4,104.8,161,105.6Z"/><path class="cls-80" d="M157.3,103.8h-1.9c0-.3-.1-.5-.1-.8l1.2-1.1h.8A1.3,1.3,0,0,1,157.3,103.8Z"/><path class="cls-81" d="M151,103.8l-.7-.3c.3-.2.5-.5.8-.6s.4.3.6.4Z"/><path class="cls-82" d="M153.4,111.3a1.6,1.6,0,0,0-.4-.7l1-.5a1.2,1.2,0,0,1,.1.8C154,111.1,153.6,111.1,153.4,111.3Z"/><path class="cls-2" d="M150.3,109.9h-.4c0-.1-.1-.3-.1-.4l.5-.2Z"/><path class="cls-83" d="M150.5,95.4h.4l-.5.4-.2-.3Z"/><polygon class="cls-84" points="151.8 100.4 152.1 100.3 152 100.5 151.8 100.4"/><path class="cls-85" d="M157.3,103.8v-1.9c.8.1,1.7-.1,2.3.3,2.1,1.1,3.3.1,4.4-1.4.4.1.9.1,1.2.4s0,.8-.2,1.1-1.3,1.6-1.9,2.5l-.9,2-1.2-1.2a6.1,6.1,0,0,0,.5-1.2c-.3-.1-.7-.3-1-.2S158.2,105.1,157.3,103.8Z"/><path class="cls-86" d="M171.2,108c-.4.5-.5.9-.7,1a1.5,1.5,0,0,1-.9.1,2.6,2.6,0,0,1-1.3-2.7c0-.2.6-.5.7-.4Z"/><path class="cls-87" d="M172,103.1c1.5.3,2.4.9,2.2,1.7s-.1.3-.2.3-1.9-.5-2.6-1.2-.2-.4-.1-.4Z"/><path class="cls-88" d="M165.8,107.8a1.4,1.4,0,0,1,.1.9,6.1,6.1,0,0,1-.5,1.2c-.3-.2-.8-.4-1-.8s-.2-.9-.3-1.3S165.3,107,165.8,107.8Z"/><path class="cls-39" d="M165.8,107.8h-1.7C165,106.7,165,106.7,165.8,107.8Z"/><polygon class="cls-89" points="134.9 111 134.7 111.1 134.7 110.9 134.9 111"/><path class="cls-90" d="M160.8,100.3h.4v.5h-.4C160.8,100.6,160.9,100.4,160.8,100.3Z"/><path class="cls-91" d="M55.5,30.8h.9c.5,1.6,1,3.2.1,4.8s-.5.4-.8,0S55.6,32.4,55.5,30.8Z"/><path class="cls-92" d="M55.7,35.6h.8v1.9h-.9A12.8,12.8,0,0,1,55.7,35.6Z"/><path class="cls-92" d="M55.5,38.3c.1,1.2.3,2.3-.9,3.1Z"/><path class="cls-93" d="M97.7,80.5c.2-.5.4-1.4.9-1.7s2.6.2,3.4,1.1a2.6,2.6,0,0,1,.2,3.1,9,9,0,0,1-1.9,2c-.8.7-1.7.4-1.9-.5S98,82,97.7,80.5Z"/><path class="cls-94" d="M97.5,73.3c0-2,1.1-2.8,2.9-2.2a1,1,0,0,1,.7,1.5,6.7,6.7,0,0,1-1.4,1.9,7.5,7.5,0,0,1-1.5.9l-.7-1.6C97.4,73.7,97.5,73.5,97.5,73.3Z"/><path class="cls-95" d="M90,78.4a6.8,6.8,0,0,1-2.3,5,1.9,1.9,0,0,1-3.1-.8c-.8-2.1-.1-4,.9-5.9a2.7,2.7,0,0,1,2.8-1.3C89.3,75.5,90,76.6,90,78.4Z"/><path class="cls-96" d="M132.2,37.5c0-1.5-.1-3.1,0-4.7a1,1,0,0,1,1.4-.8,17.7,17.7,0,0,1,4,2.4,5.2,5.2,0,0,1,.7,6.9,7.9,7.9,0,0,1-1.9,2.2c-1,.7-2.3,1.7-3.2,1.5s-1-2-1.1-3.2-.1-2.8-.1-4.3Z"/><path class="cls-97" d="M120.8,103.8l-1-1a5.5,5.5,0,0,1,1.8-1.3c.4-.2,1,.3,1.5.4s-.2,1.2-.6,1.5A4.3,4.3,0,0,1,120.8,103.8Z"/><path class="cls-9" d="M128.5,107.6l-1.9,1.9c0-.3-.1-.6-.1-.9s-2.2-.2-1.5-1.5a2.2,2.2,0,0,1,1.9-.9C127.5,106.3,128,107.1,128.5,107.6Z"/><path class="cls-9" d="M126.6,109.6c-.7,1.1-1.9.9-2.9.9C124.4,109.5,125.6,109.7,126.6,109.6Z"/><path class="cls-9" d="M123.7,110.5l-1,.9Z"/><path class="cls-98" d="M110.2,76.6c-.2-.2-.6-.4-.6-.6a3.8,3.8,0,0,1,3.4-3.9c.2-.1.6.1.8.3s.2.7.1.8l-3.3,3.4C110.6,76.7,110.3,76.6,110.2,76.6Z"/><path class="cls-99" d="M21.8,36.6c0-1.5-.1-2.6,0-3.7s1.1-3.5,3.7-4.3a1.6,1.6,0,0,1,2.1,2.1A7.6,7.6,0,0,1,21.8,36.6Z"/><path class="cls-100" d="M90.1,37.9c0,4.2-.6,7.1-2.7,9.5a1.5,1.5,0,0,1-1.2.5,1.2,1.2,0,0,1-.9-.8c-1.5-4.8-.5-9.3,1.7-13.7a1.1,1.1,0,0,1,1.9.1C89.5,35.3,89.9,37.1,90.1,37.9Z"/><path class="cls-62" d="M89.3,109.8c-.1-1.1-.4-2.2.6-3.1A3.8,3.8,0,0,1,89.3,109.8Z"/></g></g></svg>