<svg xmlns="http://www.w3.org/2000/svg" viewBox="0 0 288 150.3"><defs><style>.cls-1{fill:#fff;}.cls-2{fill:#d6e7e1;}.cls-3{fill:#fefefe;}.cls-4{fill:#d2e5de;}.cls-5{fill:#dfece8;}.cls-6{fill:#f3f7f7;}.cls-7{fill:#cfe3dc;}.cls-8{fill:#090808;}.cls-9{fill:#0b0909;}.cls-10{fill:#0f0e0e;}.cls-11{fill:#0e0c0c;}.cls-12{fill:#100e0e;}.cls-13{fill:#121010;}.cls-14{fill:#120f0f;}.cls-15{fill:#120e0e;}.cls-16{fill:#110e0e;}.cls-17{fill:#161414;}.cls-18{fill:#151414;}.cls-19{fill:#191717;}.cls-20{fill:#1f1e1e;}.cls-21{fill:#1c1b1b;}.cls-22{fill:#151313;}.cls-23{fill:#141414;}.cls-24{fill:#181616;}.cls-25{fill:#151212;}.cls-26{fill:#161313;}.cls-27{fill:#1b1919;}.cls-28{fill:#171818;}.cls-29{fill:#eff1f1;}.cls-30{fill:#211e1e;}.cls-31{fill:#161111;}.cls-32{fill:#130e0e;}.cls-33{fill:#161212;}.cls-34{fill:#0d0b0b;}.cls-35{fill:#1f1a1a;}.cls-36{fill:#222020;}.cls-37{fill:#211f1f;}.cls-38{fill:#201e1e;}.cls-39{fill:#191616;}.cls-40{fill:#1b1616;}.cls-41{fill:#1a1515;}.cls-42{fill:#171515;}.cls-43{fill:#191414;}.cls-44{fill:#171616;}.cls-45{fill:#1f1919;}.cls-46{fill:#242424;}.cls-47{fill:#141010;}.cls-48{fill:#363535;}.cls-49{fill:#292525;}.cls-50{fill:#212222;}.cls-51{fill:#1e1a1a;}.cls-52{fill:#112424;}.cls-53{fill:#332d2d;}.cls-54{fill:#414040;}.cls-55{fill:#343232;}.cls-56{fill:#e0d9d9;}.cls-57{fill:#a3a2a2;}.cls-58{fill:#2a2a2a;}.cls-59{fill:#403131;}.cls-60{fill:#c1d5d5;}.cls-61{fill:#e6ebeb;}.cls-62{fill:#6a6262;}.cls-63{fill:#737171;}.cls-64{fill:#616262;}.cls-65{fill:#605d5d;}.cls-66{fill:#140c0c;}.cls-67{fill:#1d1919;}.cls-68{fill:#423232;}.cls-69{fill:#5b1212;}.cls-70{fill:#060202;}.cls-71{fill:#484747;}.cls-72{fill:#d0cfcf;}.cls-73{fill:#3e4343;}.cls-74{fill:#593333;}.cls-75{fill:#230101;}.cls-76{fill:#423a3a;}.cls-77{fill:#270707;}.cls-78{fill:#506c6c;}.cls-79{fill:#c3c4c4;}.cls-80{fill:#180202;}.cls-81{fill:#75a1a1;}.cls-82{fill:#1d1a1a;}.cls-83{fill:#255252;}.cls-84{fill:#0f0202;}.cls-85{fill:#1b1818;}.cls-86{fill:#c7ded5;}.cls-87{fill:#d5e7e1;}.cls-88{fill:#c2dbd0;}.cls-89{fill:#b4d2c6;}.cls-90{fill:#d5e5df;}.cls-91{fill:#d5e6e0;}.cls-92{fill:#dbece7;}.cls-93{fill:#b9d5ca;}.cls-94{fill:#1b1717;}.cls-95{fill:#181313;}.cls-96{fill:#9e9f9f;}.cls-97{fill:#c0dacf;}.cls-98{fill:#c8ded4;}.cls-99{fill:#131212;}.cls-100{fill:#09080a;}.cls-101{fill:#c2d9cd;}.cls-102{fill:#080608;}.cls-103{fill:#728eba;}.cls-104{fill:#7393b8;}.cls-105{fill:#6989b6;}.cls-106{fill:#7f9bc2;}.cls-107{fill:#131111;}.cls-108{fill:#2c2727;}.cls-109{fill:#141111;}.cls-110{fill:#b2aeae;}.cls-111{fill:#361717;}.cls-112{fill:#5e6363;}.cls-113{fill:#2e0303;}.cls-114{fill:#c8e2e2;}.cls-115{fill:#362828;}.cls-116{fill:#b3d1c5;}.cls-117{fill:#e6ecec;}.cls-118{fill:#cacbcb;}.cls-119{fill:#c7d9d9;}.cls-120{fill:#a3b6b6;}.cls-121{fill:#c7caca;}.cls-122{fill:#383535;}.cls-123{fill:#86cece;}.cls-124{fill:#d7a8a8;}.cls-125{fill:#bfd4d4;}.cls-126{fill:#fcfdfd;}.cls-127{fill:#181515;}.cls-128{fill:#87b3b3;}.cls-129{fill:#b0b0b0;}.cls-130{fill:#89d0d0;}.cls-131{fill:#412b2b;}.cls-132{fill:#d0dfdf;}.cls-133{fill:#184444;}.cls-134{fill:#491d1d;}.cls-135{fill:#b5c3c3;}.cls-136{fill:#9a9999;}.cls-137{fill:#d0d1d1;}.cls-138{fill:#708dba;}.cls-139{fill:#ecefef;}.cls-140{fill:#5f7fae;}.cls-141{fill:#616969;}.cls-142{fill:#290909;}.cls-143{fill:#6f4646;}.cls-144{fill:#205d5d;}.cls-145{fill:#aaa;}</style></defs><title>structurerleprojet</title><g id="Layer_2" data-name="Layer 2"><g id="structurerleprojet"><path class="cls-1" d="M44.2,56.7c2.1-2.2,2.6-2.3,4.5-.6A13,13,0,0,0,53,59c1.2.4,2,1.9,2.9,3s1.1,1.4,3.6.5c3.4,1.6,3.7,4.8,4,8,.2,1.2.1,2.5.2,3.7s.5,1.9,1.7,1.8,1.4-1.1,1.5-2a12.3,12.3,0,0,0-.3-3.3,3.3,3.3,0,0,1,0-1.4c.8-2.4,3.1-2.5,5-3.2a2.2,2.2,0,0,1,1.4.2c2.1,2.6.5,5.7,1.5,8.5a6.1,6.1,0,0,0,.7,1c2.5,1,2.2-1,2.3-2.2s.5-3.5,2-4.7,3.5-1.6,3.8,1.4c-.1,1.2-.5,2.3-.1,3.5a6.7,6.7,0,0,0,1.2,2c3.2,2,4.3-1.9,6.7-2.2,3.4,1.6,2.1,4.5,2,7.1a7.5,7.5,0,0,1-.7,1.2,6.2,6.2,0,0,1-2.6,1.2c-1.9.6-2.7,1.9-1.5,3.6s2.8,1.6,4-.4c2.7-3.9,1.9-8.7,3.2-13a2.3,2.3,0,0,1,1.2-.6c3.5,2,7.2.3,10.7.5,1.9.2,1.7-1.6,1.8-2.8s-.1-4.5,1.8-6.2,1.2-.7.1-1.2-1.5-3.7-2.7-6.7c-.9,4.3-.6,7.7-.6,10.9s-.8,4.7-3.5,5.7-5,.3-5-3.1-1.6-.9-2.5-1H95.5c-1.1-.3-2-1-3.1-1.3a10.6,10.6,0,0,1-2.5-.9c-1.2-.9-2.7-.8-4.1-1.2-3.9-1.1-8.3-1.6-8.6-7.2-.1-1.4-1.6-2.3-2.7-3.2l-1-.9a2.1,2.1,0,0,1-.5-1.3c0-1.3.8-2.7-1.1-3.6A6.2,6.2,0,0,1,70,46.8c-.9-1.3-.1-2,1-2.5a3.1,3.1,0,0,1,1.9.3l1.2.6c4.3.6,6-.6,7.3-5.1,0-2.8.1-5.6-3.7-6.1-2-.4-3.8-1-3.6-3.5S75.3,25.8,78,25c1.1-.3,2.4.1,1.4-1.7s-3.5-1.4-5.2.3S72.3,26.1,71,27c-1.7-.8-2.2-1.5-1.4-2.5s1.2-1.4,1.7-2.2,1.9-2.3,2.1-3.6-.9-2.1-1.4-3.2a4.7,4.7,0,0,1,4.5-2.2c9,.5,17.9-1.6,26.8-.9,6.9.5,13.5-.6,20.2-1.6a65.6,65.6,0,0,1,13.3-.3c6.3.4,12.8-1,19,0,15.2,2.3,30.5,1.9,45.8,1.6,9.8-.2,19.6-.3,29.5-.7a319.5,319.5,0,0,1,32.4.9c3.9.3,7.9.8,11.4,3,1.8,1.4,1.9,3.6,2.8,5.4a27,27,0,0,1,1.2,8.9c0,8.6.1,17.2-.1,25.8A64.8,64.8,0,0,0,280.5,70c1.7,14.7.1,29-3.7,43.1-1.2,4.6-1.4,9.5-1.9,14.3-.8,7.7-2.8,10.1-10.4,10.3-20.4.6-40.8,3-61.2,3.3-16,.2-31.9-.7-47.8-.1-9.1.3-18.2.9-27.3,1.6s-19.7-.1-29.6.1c-7.7-.3-15.3-1.2-22.9-1a18.5,18.5,0,0,0-6.2.7c-3.7.2-7.5,1.3-10.9-1.1a4.3,4.3,0,0,1,2.6-4.6,18.3,18.3,0,0,1,5.4-1.9,45.1,45.1,0,0,1,10.4.2,43.2,43.2,0,0,0,11.9.3,8.2,8.2,0,0,1,2.7,0,13.2,13.2,0,0,0,10.1-1.6c2.1.9,2.8-.1,2.9-2.1l.3-1.2c.5-1.5.4-3.2,1.7-4.4a2.7,2.7,0,0,0,2.4-1.2c1.1-1.8,2.2-3.5,3.2-5.3s2.6-3.3,5-3.1a17.9,17.9,0,0,0,5.6-.7c1.3-.3,2.8.2,4.2.3a64.3,64.3,0,0,0,7.6.1c1.5-.1,1.9-1,1.8-2.6,0-5.1-3.3-8-7.4-10.2a3.9,3.9,0,0,0-2.8-.2c-2.9,1.1-6.4.3-9.2,2.2a2.7,2.7,0,0,1-1.3.2c-3.9-.2-7.4,0-10.6,1.6-5.4,2.5-12.6-1.9-13.6-7.5a8.6,8.6,0,0,1,.2-2.3,20,20,0,0,0,.4-2.4c.1-.9,0-1.9-1.1-2.3a2.7,2.7,0,0,0-3.3,1.3,3.2,3.2,0,0,0-.3.9c.1,2-1.5,2.6-2.9,3.4-1.6-2.9-1.9-6.3-3.1-9.3a6.7,6.7,0,0,0-1.5-2.9,2.3,2.3,0,0,0-2.5-.7c-1.4.6-.7,1.5-.4,2.4a4.4,4.4,0,0,1,.3,3.2c-.5,1.1-1.5,1.5-2.6,2a4.1,4.1,0,0,1-1.9.5c-.2-.6-.8-1.3-.6-1.7a13.1,13.1,0,0,0,.4-5.6c-.1-1.3,1-2.8,1.7-4.6s-1.6-.8-2.4-1.4-1.1-1.4-1.7-1.5-1.1.9-1.7,1.3a6,6,0,0,1-2.2.9c-3,.4-6.2-2.1-6.8-5.2s-.8-4.2-1.4-7l-3.3,6.3a8.1,8.1,0,0,1-3.4,3.9c-1.2.6-2,2-3.1,2.7a11.2,11.2,0,0,1-3.5,1.2,2.5,2.5,0,0,1-2.6-1.8c2.9-3.4,7-5.4,9.5-9.3,3.5-5.5,3.3-6.7-2.9-10a5.1,5.1,0,0,1-1.6-.9A13.6,13.6,0,0,1,46,59.4l-1.2-1.2A2.5,2.5,0,0,1,44.2,56.7Z"/><path class="cls-2" d="M97.9,141.3h19.7a19.2,19.2,0,0,1,2.4,0c3.7.8,7.2-.1,10.8-.6l4.3-.4c4.9-.2,9.8,0,14.8-.7a29.1,29.1,0,0,1,12.8.4,4.9,4.9,0,0,0,2.4.1c3-1.1,6-.8,9-.7,4.6,0,9.2-.3,13.9.7,2.5.5,5.3-.2,8-.3s2.9-.4,4.3-.4h14.4a53,53,0,0,0,10.5-.7,12.3,12.3,0,0,1,3.3-.3,45.6,45.6,0,0,0,9-.8c2.6-.5,5.5-.2,8.2-.2a36.8,36.8,0,0,0,6.6-.6,24.9,24.9,0,0,1,6.7-.3,45.3,45.3,0,0,0,10.4-1,2.9,2.9,0,0,0,2.8-2.2,47.4,47.4,0,0,0,1.5-7.5c.4-5.7.8-11.4,2.8-16.9a32.1,32.1,0,0,0,1.9-11.2A35.5,35.5,0,0,1,279,93c.1-1.5.3-2.9.3-4.3s0-5.4.8-8.1,0-3.5-.2-5.2a46,46,0,0,0-.6-5.2c1.4.5,2,.5,1.7-1.4-1-6.3-2.2-12.6-1.8-19.1.1-3.6,0-7.4.7-10.8,1.7-9.6-.6-18.1-4.4-26.5-.6-1.2-1-2.4-.1-3.6,3-.5,4.2,1.7,4.8,3.9A15.8,15.8,0,0,0,283,18a55.3,55.3,0,0,1,.4,22.2c-.3,2.1.6,4.1.3,6.1.2,5.4-.6,10.9.5,16.2h0c1.1,1.8-.3,4,.9,5.8h0c1.2,1.8-.3,4,1,5.8h0c-1.1,5.7.1,11.5-1,17.2h0c-1.2,1.8.2,4-.9,5.8a2.8,2.8,0,0,0-.1.9c-1.1,3.5.4,7.4-1.9,10.6h0c-.5.5-.4,1.4-.9,1.9h0c-1.1,1.1,0,2.8-1,3.9h0c-1,3.2-.4,6.6-.4,9.9a35.6,35.6,0,0,1-1.5,11.2h0c-.6.5-.4,1.4-1,1.9h0c-2.4,4-6.4,5.2-10.7,5.2-15.9,0-31.8,1.2-47.7,2.2-7.4.4-14.8-1.1-22.2.3h0c-1.5.9-3.2.6-4.7.4-12-1.7-24.1.3-36.1-.8-9.4-1-18.7.7-28,1.9-11.6,1.5-23.2.6-34.8.7-6.2.1-12.5.8-18.6-.5-1.6-1.3-.4-1.9.6-2.6a10.1,10.1,0,0,1,2.5-.4h9.9l1.4-.3,1.4-.3c8.9,0,17.8.6,25.6.1-4.1-.1-9.3.3-14.5-.1C100.1,143,98.1,143.9,97.9,141.3Z"/><path class="cls-1" d="M13.4,31.8c-2.9-1-3.9-3.5-4.7-6.2a31,31,0,0,1-.8-4.2,11.8,11.8,0,0,1,2.3-9.9,9.1,9.1,0,0,0,1.3-3c.6-2,1.7-3.4,3.9-3.5s3.1-.5,3.9-2.2a3.2,3.2,0,0,1,3.2-1.7A24.9,24.9,0,0,0,30.6.2a4.5,4.5,0,0,1,2.3,0A57.1,57.1,0,0,0,46.6.2,128.9,128.9,0,0,1,60.5.2a30.7,30.7,0,0,1,5.2.6A11.5,11.5,0,0,0,71.8.7,7.7,7.7,0,0,1,77,.6a35,35,0,0,0,5.6,1.3,9.9,9.9,0,0,0,4.2,0c3.5-1.1,7-.7,10.5-.8h9.6A24.8,24.8,0,0,0,113,.5a14.4,14.4,0,0,1,6.2-.1A24.4,24.4,0,0,0,131.5.3a17.7,17.7,0,0,1,3.3-.2h13.4a39.1,39.1,0,0,1,4.8.5,33.2,33.2,0,0,0,10.9,0,39.6,39.6,0,0,1,4.7-.5h25.5a44.3,44.3,0,0,1,5.1.6l4.3.3h25.9c1.8,0,3.5.5,5.2.6a12.2,12.2,0,0,0,3.3-.1c4.9-1,9.8-.6,14.8-.2,1.4.1,2.7.7,4.1,0a3.1,3.1,0,0,1,1.9,0c1.9.9,3.7.5,5.5-.2s4.2-1.5,6.5-.3a5.7,5.7,0,0,0,2.3.2,3.9,3.9,0,0,1,3.1,1.1A10.5,10.5,0,0,0,281,5c1.9.6,3.1,1.8,3.1,3.8A5.1,5.1,0,0,0,286,13a5.6,5.6,0,0,1,2,5.1c-.1,1.1,0,2.3-.1,3.4s-1.1,2.5-2.8,2.6-1-1.3-1.4-2a5.6,5.6,0,0,1-.4-1.2c-.1-1.6.4-3.4-1.2-4.7a3.1,3.1,0,0,1-.5-1c-.3-.7-.4-1.4-.7-2.1a3.6,3.6,0,0,0-.4-.9l-.4-.8-.3-.4a4.6,4.6,0,0,0-.7-.7l-.3-.4a4.6,4.6,0,0,1-.7-.7.8.8,0,0,1-.4-.4l-.8-.7-.4-.4-.9-.7-.4-.4c-1.3-1.4-3.1-.7-4.6-.8l-1.3-.3c-3.5-1.3-7-.3-10.4.3l-2.2.4c-4.6-.1-9.2.4-13.8-.6-3.1-.6-6,2.6-9.2.6s-3.9-.7-6-.8c-7.1-.3-14.1,1.6-21.3.8a12.2,12.2,0,0,1-3.2-.4c-12.6-.5-25.2-1.7-37.9-1.4-1.5.1-3,.8-4.7.6L159,4.8c-7.1-.1-14.3-.9-21.5-.1a6.5,6.5,0,0,1-2.4.1c-6.5.5-13,.4-19.5.4s-11-1.1-16.5.6a4.1,4.1,0,0,1-1.6.3C85,6.9,72.5,5,59.9,4.7c-6.5-.1-13-.1-19.5.2-5,.2-10-.3-15.1.3-1.1.1-2.3-.2-3,1l-1,1a17.3,17.3,0,0,1-3.2,1.1L17,8.9c-1.8.9-2.2,2.8-2.9,4.5a4.1,4.1,0,0,1-.7,1.1c-1,1.1-2,2.3-1.2,3.8s1.2,5.9,2,8.8a7.6,7.6,0,0,1,.3,2.1A3,3,0,0,1,13.4,31.8Z"/><path class="cls-3" d="M274.6,16.4c-1.5-.7-2.7-2.3-4.7-1.2-.3.2-1-.1-1.4-.4-2.1-1.4-4.5-1.2-6.9-1.2s-6.4.3-9.5-.8a9.5,9.5,0,0,0-3.4-.2c-2.6.2-5.4,1.1-8,.6a63.2,63.2,0,0,0-7.5-.6,27.6,27.6,0,0,0-7.6.7,10.2,10.2,0,0,1-5.2-.1,19.1,19.1,0,0,0-9.5,0,15.5,15.5,0,0,1-3.7.4H168.3a8.1,8.1,0,0,1-5-1.2,6.8,6.8,0,0,0-3.2-.7h-11c-1.1,0-2.2.4-3.3.5a12.2,12.2,0,0,1-3.3.1,24,24,0,0,0-11.3-.1,6.2,6.2,0,0,1-3.3,0,8.3,8.3,0,0,0-6,.3c-1.9.6-3.9,1.6-6,.6a2.8,2.8,0,0,0-2.3.4c-2.1,1.1-4.1.8-6.4.6a85.5,85.5,0,0,0-14.3-.2,62,62,0,0,1-6.2.6H79.5a21.2,21.2,0,0,0-7.5,1H70.1a6,6,0,0,1-3.7.9c-12.9-.9-25.9-.8-38.8-.5-2.1.1-4.2.3-6-1s.1-1.8,1-2.2a14,14,0,0,1,5-.6c6.6.2,13.3.3,20,0l1.6-.4h2.4l1.5.4c11,.3,22,.6,33-.5,18.8-.7,37.5-2.4,56.3-2.5s36.3,1.2,54.4.4c8.5,1.4,17,.5,25.5.8a4.9,4.9,0,0,1,1.7,0c12.7,0,25.3.4,38-.8a5.8,5.8,0,0,1,1.4.3,12.8,12.8,0,0,0,3.4.7l2.5.4,2.3.8,1.1.4a9.5,9.5,0,0,1,1.9,1.6,5.4,5.4,0,0,1,.5,1.1A1.6,1.6,0,0,1,274.6,16.4Z"/><path class="cls-1" d="M101.7,131.7l-1.6-.8a12.4,12.4,0,0,1-1.8-1.4,4.5,4.5,0,0,1-.8,1.7,5.6,5.6,0,0,1-2.4,1.3,6.6,6.6,0,0,1-2.8.1c-3.5-.2-7-.8-10.4-.4s-6.7.2-10,.4a8.9,8.9,0,0,1-6.3-1.5c-1.8,1-3.6,1.9-5.7,1.5a9.3,9.3,0,0,1-2.4-.2,5.2,5.2,0,0,0-3.7,0,6.3,6.3,0,0,1-2.4.2c-2.9-.1-4.1-1.9-3-4.9.1-.4,1-.6,1.5-.8,4.1,2.9,4.2-.7,5-3.1s2.9-2.5,4.4-.1c.5.9.6,2.1,1.6,2.7l1.8.6c2.1,1.4,4.4,1.2,6.7.8s3.8.8,4.9-2.1,2.7-2.5,3.6.3,2,2.1,3.4.6,3-2.5,4.6.3,4.5,2.2,7,1.7,2.1-3.1,1.8-4.9,2.1-6.3-3.4-5l-1.6,1a4.1,4.1,0,0,1-2.2,1H86.3a5.5,5.5,0,0,0-2.2.2H82.8c-2.2.1-3.8-2.2-6.1-1.3l-1.3.3a30.7,30.7,0,0,0-4.2.7,4.4,4.4,0,0,1-2.3.1,3.5,3.5,0,0,1-1.1-.3,2.6,2.6,0,0,0-2.1,0l-1.1.4a12.4,12.4,0,0,1-4.3.1l-1.1-.4-1.2-.5-1.2-.4c-2.3-.8-4.6,0-6.9.4a7.6,7.6,0,0,1-.8-2.1c-.1-.8.4-1.4,1.4-1.6h.4c3.6.9,7.3-.8,10.9.6l1.3.2,9.4-1.5a6.6,6.6,0,0,1,2.8.1c3.6,1.2,7.3.3,10.9.6,1.6.1,2.6-1.1,3.8-1.8a5.3,5.3,0,0,1,4.6-.8,5.9,5.9,0,0,1,3.8,7.2,4,4,0,0,0,1,4.4c.7-.3,1.3-.8,2.1-1.1s2,.3,2.2,1.6A9,9,0,0,1,101.7,131.7Z"/><path class="cls-1" d="M35.5,149.9c1.2-2.6,3.7-2.2,5.8-2.3,27.3-.7,54.6-1.5,81.8-.9,4.5,0,8.8-2.2,13.2-.6-.1,2.4-2,3.1-3.8,3.6"/><path class="cls-3" d="M25,149.9c-6.2,1.4-11.9-1.4-17.9-2.3-1.2-.1-2.1-1.3-2.5-2.6a1.2,1.2,0,0,1,.6-1.3c4-.8,7.8.5,11.6,1.5s10.6,1.1,15.8,1.8c11.9-.3,23.8-1.7,35.7-1.5,1.9,0,3.8-.3,5.6.5h46.5a39.6,39.6,0,0,0,4.7-.5,18.6,18.6,0,0,1,3.3-.4c3.2-.1,6.3.2,9.5-.8a7.3,7.3,0,0,1,3.3-.1c6.2.1,12.4.4,18.6.3,2.1,0,4.1-.5,6.1.4a2.3,2.3,0,0,0,1.4-.1c4.9-1.4,9.9-1,14.8-.5a144.8,144.8,0,0,0,14.7.8,2.5,2.5,0,0,1-2.6.9c-4.7-.2-9.5.4-14.2-.7a22.7,22.7,0,0,0-8.6.2,52.4,52.4,0,0,1-13.7,0,57.9,57.9,0,0,0-13.8-.1c-2.5.3-5,.6-7.6.7s-5-.2-7.3,1.4c-.8.6-2.5.5-3.6.1a18.5,18.5,0,0,0-5.7-.6H82.9c-1.9.1-3.8.5-5.7.7L73,148c-4.1.1-8.3-.5-12.3.8a9.7,9.7,0,0,1-3.4.1H40.6a9.9,9.9,0,0,0-5.1,1"/><path class="cls-1" d="M21.1,14.5H57.8c3,0,6-.2,9,.9a12,12,0,0,0,3.3.1A3.2,3.2,0,0,1,67,17.4c-2.8.1-5.7.4-8.5.4s-5.4-.2-8.1-.4a6.3,6.3,0,0,1-1.9-.3c-3-1.3-6-1.8-9.1,0-.8.6-2.1.3-3.3.3H27.5c-1.8,0-3.1.6-3.5,2.5a22.7,22.7,0,0,0-.9,5.2c-.1,4.6,0,9.2-.1,13.9s-1.4,4.9-4.8,5.3H15.4a3.8,3.8,0,0,1-3.6-2.7,2.9,2.9,0,0,1,1.6-4c4.1,2.8,4.1,2.8,4.7-2.1s0-10.3.4-15.4a5.7,5.7,0,0,1,.1-1.3,4.4,4.4,0,0,1,.6-1.6,3.1,3.1,0,0,1,.5-1,7.1,7.1,0,0,1,1-1.4Z"/><path class="cls-1" d="M38.4,120.1c1.5-.9,2.5.2,3.2,1.1a21.7,21.7,0,0,1,3.1,5.3,4.1,4.1,0,0,1,0,3.6c-1.2,2-2.6,4-5.3,4.4s-4,1.4-6,.1c-4.4.2-8.9-1-13.1,1.3a4.3,4.3,0,0,1-4.1,0l-2.2-1c-.3-.1-.8,0-.9.2s-.5.9-.4,1.2a8.3,8.3,0,0,0,.8,2.2l.9,2.7-.5.5a3.3,3.3,0,0,1-2.9-.2,5.3,5.3,0,0,1-2.5-4.7c.1-2.6-1-4.8-1.8-7.1a3.3,3.3,0,0,1,3.1-1.9c1.1-.1,1.5-.8,1.7-1.9a27.7,27.7,0,0,1,1.2-4.1c.4-1.2,1.4-1.6,2.7-1.7l.4.5a3.7,3.7,0,0,1,.4,2.3l-.3,1.1-.7,1.5a10.4,10.4,0,0,0-.4,1,3.2,3.2,0,0,0-.1,1.4l.3.8a2.3,2.3,0,0,0,.6,1.2c.2.3.5.4.7.6h1.6a13.6,13.6,0,0,1,7.7-.8,30.7,30.7,0,0,0,10.9.6c3.5-.3,4.3-1.9,2.7-5S36.8,122.1,38.4,120.1Z"/><path class="cls-1" d="M65.3,38.5c.6.7,1.6,1.3,1.7,2.1.6,2.5-1.2,6.4-3.5,7.3a12,12,0,0,0-3.6,2.2A35.4,35.4,0,0,1,56.6,52c-3.3,1.6-4.8,1.5-7.3-1.2a7.5,7.5,0,0,0-6.7-2.7c-2.8.4-4.4-1.3-5.9-3.4s-2.5-6.8-2-10.5A2.4,2.4,0,0,1,36.8,32a9.7,9.7,0,0,1,2.4-.2,5.8,5.8,0,0,0,3.6-1,14.4,14.4,0,0,1,3.1-1.3c1.8-.6,3.6-1.1,4.6-3,.2-.3.9-.3,1.3-.4a4.8,4.8,0,0,1,1.5,3.2,5.9,5.9,0,0,1-.2,1.3c-.3,1-.5,2.1-1.5,2.7a5,5,0,0,1-3.2.4,5.4,5.4,0,0,0-4.6.8c-2,1.2-5.8.7-4.8,4.7s3,5.1,6.6,4.9,5.1.5,6.5,3.1,2.2,2,2.7,1.1c2-3.4,7.6-2.9,8.1-7.8A2.3,2.3,0,0,1,65.3,38.5Z"/><path class="cls-1" d="M14.4,141.2c1.4.1,2.3-.9,3.4-1.6a6.8,6.8,0,0,1,5.9-.9,7.5,7.5,0,0,0,3.3.4c6-.9,15.1-1.1,20.4,0,1.8.3,3.4-1.2,5.1,0a23.5,23.5,0,0,0,4.2,2.1h.9a.9.9,0,0,1-.2,1.3c-2.3,1.2-4.8,1.4-7.3,1.8h-8a13.5,13.5,0,0,0-4.9.6l-2.3.4h-8c-2.7-.5-5.4-.7-8.1-1.3s-3.9-.3-4.4-2.8Z"/><path class="cls-1" d="M59.6,91.3c1.9,1,4.3,1.3,5.6,3.4a4.8,4.8,0,0,1,.9,2.1,34.8,34.8,0,0,1-1.2,5.6c-1.4,4.5-6.3,6.7-10.3,4.4a8.8,8.8,0,0,0-8.2-.2c-3.4,1.4-6.6,1.7-10.1-.2-1.8-1.1-4.2-1-6.4-.9s-6.7.2-10.1.1c-1.6,0-2.5-1.2-2.5-2.9s.8-1.6,1.9-1.8c3.1,1.3,6.5.8,9.7,1.1.8-.7,1.1-1.8,1.8-2.5s1.6-1,2.4,0c3.4,4.3,7.7,4.4,12.3,2.6a16.4,16.4,0,0,1,9.8.6c1.3.5,2.7,1,4,0a8.6,8.6,0,0,0,1.4-1.3,5.5,5.5,0,0,0,1.2-2.1c.6-1.7-.1-3-1.2-4.3S58.3,93,59.6,91.3Z"/><path class="cls-3" d="M196.8,145.1c.4-.3.8-.7,1.1-.7,4.6,0,9.2-.5,13.8.1a36.4,36.4,0,0,0,9.9-.6,87.2,87.2,0,0,1,11.4-.7c3.7-.1,7.4.6,10.9-.8,3.2.8,6.3-.3,9.5-.2s4.8-.2,7.1.1c3.8.3,7.3-1,10.9-1.2a8.9,8.9,0,0,0,3.4-1.6,18.3,18.3,0,0,0,2.6-2.1c0,2-1.4,3.1-3,3.9a34.2,34.2,0,0,1-4.2,2.3,4.2,4.2,0,0,1-2.7.2c-5.1-1.3-10.2-.4-15.3-.6h-.4c-3.2,2.1-6.7,1.5-10.1.9a7.8,7.8,0,0,0-3.4,0c-5,1.4-10.1.7-15.2.9a34.2,34.2,0,0,0-7.1.7,14.4,14.4,0,0,1-6.2-.1,17.6,17.6,0,0,0-9.4,0C199,146.2,197.9,145.6,196.8,145.1Z"/><path class="cls-1" d="M8.2,150.1a41.1,41.1,0,0,1-5.4-3.9,10.3,10.3,0,0,1-1.7-3.3,2.2,2.2,0,0,1-.1-1.4,39.6,39.6,0,0,0-1-10.8c.9-1.1,1.8-2.1,3.3-.7a25.2,25.2,0,0,1,1.5,14.1,4.5,4.5,0,0,0,5,2.9h.4c2.7-.1,4.9,1.3,7.4,1.8s5.1-.4,7.4,1.1"/><path class="cls-4" d="M57.6,142.2v-.9H70l.5.4c.8,1.5,2.2.7,3.4.9s3,.5,1.9,2.6l-1.9.9a23.2,23.2,0,0,1-7.9,1H53.6c-2.5.1-5.1-.1-7.6.7s-2.8.2-4.2.3-4.8-.2-7.1.7c-.6.2-1.4-.4-2.1-.7s2.2-1.8,3.7-2.1H42a13.7,13.7,0,0,0,4-.5l2-.4a20.6,20.6,0,0,0,2.6-.3c2.9-.8,5.8-.7,9-.7C58.7,143.1,57.9,142.9,57.6,142.2Z"/><path class="cls-3" d="M48.1,60.5c3.6-.4,5.2,2.6,7.1,4.7a2.3,2.3,0,0,1,.2,2.3,17.9,17.9,0,0,1-1.8,3.3c-.6,1-1.5,2-2.1,3.1a6.3,6.3,0,0,1-2.3,2.3,10.9,10.9,0,0,0-2.9,2.4,6.4,6.4,0,0,1-4.1,2.2h-.9l-1-1c-2.3-3.2-5.7-2.6-9-2.6s-5.6-.8-5.8-3.8-1.9-6.9,2.3-8.9h2.9a1.7,1.7,0,0,1,1.9-.2,1.3,1.3,0,0,1,.1,1.2c-1.2,1.3-4,.9-3.6,3.7s1.3,4.5,4.7,4,6.1-1.4,8.2,1.8c.5.9.6,2.4,2.3,1.5l1.1-.9c2.2-2.3,5.1-4.1,6.4-7s-3.5-4.4-4-7.3Z"/><path class="cls-3" d="M65.3,38.5c-.3.9-1.5,1.1-1.4,2.4a7.5,7.5,0,0,1-.6,3.2c-.6,1.6-.8,1.9-2.8,1.6A2.2,2.2,0,0,0,57.8,47a6.7,6.7,0,0,1-1.2,2c-2.1,1.8-4.5,1.3-5.7-1.4a3.2,3.2,0,0,0-3.6-2.3H44.4a7.2,7.2,0,0,1-6.9-7.5,2.7,2.7,0,0,1,2-2.9l4.6-1.1.3.6c-.3,1.1-1.3,1.6-2,2.4-2.5,3-1.1,4.4,1.9,5.5s5.7.4,7.9,2.7,1.8,2.8,3.4.7,1.4-1.7,2.2-2.5c5.6-5.8,5.6-5.8,1.5-12.3a1.3,1.3,0,0,1,.4-1.2c2.8-.8,3.5,1.6,4.6,3.2S65.3,36.6,65.3,38.5Z"/><path class="cls-1" d="M27.8,64.5a4.5,4.5,0,0,0-1.2,4.3,13.1,13.1,0,0,1,0,2.8c-.3,2.6.6,4,2.9,4.3a31.2,31.2,0,0,0,4.3.1h2.9c2.8.1,3.1.4,3.6,3.8a8.5,8.5,0,0,1-2.3-.3,10.3,10.3,0,0,0-6.5-.7,9.7,9.7,0,0,1-2.4.1c-3.8-.1-5.9-2.2-6-5.9a54.2,54.2,0,0,1,0-5.7,3.9,3.9,0,0,1,2.2-3.4A1.6,1.6,0,0,1,27.8,64.5Z"/><path class="cls-3" d="M60.5,102.9c-.9,1.8-2.7,2.5-4.3,1.5-3.6-2.1-7.3-1.4-11.1-1.5a6.4,6.4,0,0,1-.2-.7,2.8,2.8,0,0,1,.9-1.7c3.3-.5,3-3.2,3.4-5.6A2.4,2.4,0,0,1,50,94c1.7-.3,1.8-1.9,2.6-3s2-2.9,4-1.6,2.8,0,3,1.9,1.4,2.4,2.3,3.4,2,3.4.6,5.4l-.6-.4c-1.3-2.7-4.1-4.3-5.3-7.5-1.4,2.1-.1,2.9.9,3.7s1.9,1.7,1.6,3.2-2.4.9-3.6,1.5c1.1,1.6,3.2.8,4.6,1.8Z"/><path class="cls-3" d="M38.4,120.1a16.8,16.8,0,0,0,.9,3.2c.3.7,1.1,1.1,1.5,1.8,1.7,3,.1,6.3-3.4,6.5s-8.6.6-12.7-1.1a1.7,1.7,0,0,1,.1-1.9,2.5,2.5,0,0,1,1.2-.4c1.7,0,2.9,1.7,4.7,1.5h.8v-.3h-.4a2.2,2.2,0,0,1-1.9-.6c-.8-2.9.1-5.8-.2-8.7,2.1-1.5,4.3-.9,6.4-.1Z"/><path class="cls-1" d="M56.6,89.4c-2.6.4-3.6,2-3.9,4.5s-.9,1.9-2.7.2-3.8-1-5.9-1.1a5.9,5.9,0,0,1-4.7-1.7c.2-.5.5-1.5.8-1.5a4.2,4.2,0,0,0,3.9-3.6c.4-1.9,1.7-2.5,3.5-2.6s4.4.1,5.7,2.6S55.5,88.3,56.6,89.4Z"/><path class="cls-1" d="M35.4,119.9l-4.1.2c-1,.1-1.9.1-2.4,1.1l-.4.4a3.8,3.8,0,0,1-1.7.8,2.6,2.6,0,0,1-1.2-.5c-1-1.4-.5-3-.6-4.5s-.6-1.7-1.8-1.1l-.7.9c-.7,1.3-1.3,2.6-2.8,3.3l-1.2.5a3.2,3.2,0,0,1-3.1-.9c1.3-2.1,2.7-4.2,4.1-6.2a2.4,2.4,0,0,1,2.8-1.2,2.4,2.4,0,0,1,.9.3c.8.1,5.4,3,6,3.5a5.1,5.1,0,0,0,2.3,1.2C33.2,117.9,34.6,118.4,35.4,119.9Z"/><path class="cls-1" d="M84.5,100.9c.6.6,1.4,1.1,1.5,1.7a2.8,2.8,0,0,1-.9,2c-3.4,3.4-7.6,3.4-11.9,2.9a2.2,2.2,0,0,1-2-1.9,24.9,24.9,0,0,1-.9-6c.2-1.9.4-4.2,2.5-5.4a2.5,2.5,0,0,1,1.1,1.7,9.2,9.2,0,0,1-.1,3.3,3.6,3.6,0,0,0,.2,2.9c3.1,3,5.9.8,8.7-.5A4,4,0,0,1,84.5,100.9Z"/><path class="cls-3" d="M29.8,102.8c-.8,1.2-1.8,1.1-2.9.5s-2.8-1.2-4.3.1-1.2,0-1.6-.3a13.2,13.2,0,0,1-1.8-2.2V93.3a5.6,5.6,0,0,1,.4-2.3,1.7,1.7,0,0,1,1.4-.9c3.1,1.6,6.6,1,9.7,2.2.1.2.1.4.2.6-1.5,2-3.6.8-5.3.8-4.6-.1-4.8.2-3.5,5.2.7-.2.9-.9,1.1-1.4s1.2-2.9,3-2.6,1.7,2,1.8,3.4a6.7,6.7,0,0,0,1.5,3.9Z"/><path class="cls-3" d="M71,27a4,4,0,0,1,1.8-3.7c1.2-.8,2.3-2.2,3.5-2.3s3.3-.4,4.2,1.4c-4.1,1.5-7.5,3.4-7.3,8.6.1,1.9.6,3.6,2.7,4s5.1.8,3.7,4.3-4,1.7-6.2.8c-.6-.3.2,0-.4-.3s-2.4-3-2-5.1Z"/><path class="cls-3" d="M45.1,102.9c-2,2.1-4.2,2.3-6.8.9a5.5,5.5,0,0,0-2.6-.5c-2.4,0-2.5.1-3-2.4s-.9-1.4-1.9-.8a1,1,0,0,0-.5-.4c-.6-1.6-.3-3.1,1.4-3.5s2.1,2,3.2,2.8.1-1.2,0-1.7-1.4-2.9-1.6-4.5l.3-.5,4.7.9.6.5a7.6,7.6,0,0,1,.6,2.6,13.6,13.6,0,0,1-.2,2c-.8,4.9,4,2.5,5.6,4.3Z"/><path class="cls-3" d="M84.5,100.9l-1,1-.5-.4a7.4,7.4,0,0,1-.6-3.6c0-3.3-1.5-5.3-4.8-5.8a2,2,0,0,1-.9-.9,4.6,4.6,0,0,0-.8-3.2,5.8,5.8,0,0,1-.9-2.6,2.4,2.4,0,0,1,.9-1.5c3-.9,5.9.4,6.6,3.7.3,1.5.2,3.1,1.5,4.4s.4,1.5.5,2.2v6.7Z"/><path class="cls-3" d="M19.2,18.3c.6,2.3,1.4,4.6.2,7a2.7,2.7,0,0,0-.1,2.3c1.3,3.7-.5,7.3-.1,10.9a6.1,6.1,0,0,1-.3,1.3A2.3,2.3,0,0,1,15.7,41a4.2,4.2,0,0,1-2.3-3.4V31.8c0-1,.1-2,.1-3,2.5.4,1.8,2.5,2,4.1a52.6,52.6,0,0,1,.2,6.1c.1-.4.7-1,.7-1.1s.1-2.4.3-3.6c.5-3.8,0-7.6.3-11.4C17.1,21.1,16.5,18.9,19.2,18.3Z"/><path class="cls-3" d="M67.1,70.2c1.8,1.9,1.2,4.1.6,6.2s-1.5,1.5-2.7,1.4a2.5,2.5,0,0,1-2.4-1.9,23,23,0,0,1-.2-3.7,11.4,11.4,0,0,0-2.7-8.8c-.1-.2-.1-.6-.2-.9V59.7c-1.2-2.7.4-3.5,2.5-4.1a1.2,1.2,0,0,1,.9.9c-1.7,6,3.5,11.2,1.7,17.4C66.6,73.1,65.8,71,67.1,70.2Z"/><path class="cls-3" d="M4.8,144.1c-.3-.5-.9-1-.9-1.6a40.4,40.4,0,0,0-1-10.4,9.6,9.6,0,0,1,0-2.4q.5-.6.9,0H6.7a4.9,4.9,0,0,1,2.9,5.4,7.8,7.8,0,0,0,1.9,6.1c-1.4,1-2.4.3-3.3-.7s-.6-3.5-1-5.2c-2,.3-1,1.9-1.2,2.9s.4,4.1-1.1,5.9Z"/><path class="cls-3" d="M55.5,123.7a6.2,6.2,0,0,1,.1,1.9,4.1,4.1,0,0,1-4.4,3.9,1.2,1.2,0,0,1-1-.8,11.3,11.3,0,0,1-.3-1.8v-6.8c.3-.3.5-.9.8-1.1,2.3-1.1,4.6-1.5,6.9.2-.8,1.4-2.2,1.8-3.5,2.2a2.5,2.5,0,0,0-1.8,3.4C53.7,125.3,54.2,123.3,55.5,123.7Z"/><path class="cls-3" d="M39.4,91.3a12.4,12.4,0,0,1,3.3.4,6.3,6.3,0,0,0,3.6.1c2.3-.7,2.4-.5,3.7,2.3l-.2.2c-1.4.6-1.4,1.9-1.8,3s-1,2.7-2.9,2c-1.3-2.9-2.6-5.8-6.4-5.8l-.4-.3Z"/><path class="cls-5" d="M284.1,21.3a2.8,2.8,0,0,0,.1.9,80,80,0,0,1,0,18.3h0a1.2,1.2,0,0,0,0,1.9c0,1.3-.1,2.5-.1,3.8s-.6.5-.9,0-.5-2.1-.6-3.2a8.9,8.9,0,0,1-.1-2.8,50.6,50.6,0,0,0-.1-19c-.2-1.2-.1-2.5-.2-3.8l.7-.2C284.6,18.1,282.9,20.2,284.1,21.3Z"/><path class="cls-3" d="M101.7,131.7c0-2.2.1-4.3,2-5.9h2.9c-.2,1.6.5,3.4-.9,4.8s-.9-1.1-1.3-.3.6.8,1.1,1,.1,1.3.1,2-.4,1.8-1.6,2a1.9,1.9,0,0,1-2.3-1.8Z"/><path class="cls-3" d="M278.4,135.5a9.6,9.6,0,0,1,0-2.4c1.4-5,.9-10.1,1-15.2,0-1.2-.3-2.6.9-3.5v14.5C280.3,131.3,280,133.6,278.4,135.5Z"/><path class="cls-1" d="M64.3,32.8a18.4,18.4,0,0,0-2.2-1.7l-2.5-1.3c-1.6-.8-3.1-1.5-2-3.7a5.8,5.8,0,0,1,2.3.3C63,27.4,64.8,29.3,64.3,32.8Z"/><path class="cls-3" d="M44.2,56.7a4.7,4.7,0,0,0,1,1l-.3.7c-1.4,5.8-5.7,6.9-10.9,6.7a1.8,1.8,0,0,1-1.3-.6h-.1c0-2.1.9-2.8,2.9-1.9h2.9c1.7-1,1.2-2.7,1.4-4.2s.8-2.4,2.4-1.4Z"/><path class="cls-1" d="M42.2,56.8c-.7.1-1.6.2-1.5,1.3s.5,1.2.4,1.8a3.5,3.5,0,0,1-.5,2.1c-.5.4-1.5.3-2.2.4-.6-1.9-1.1-3.9.7-5.6a2.5,2.5,0,0,1,1.6-.8C41.2,56,41.7,56.5,42.2,56.8Z"/><path class="cls-1" d="M62.4,55.8c-1.5.9-2.8,1.9-2.9,3.9-.8-.2-1.7-.3-1.7-1.2s0-2.2.5-2.6,2.9-2.8,5.1-3C64.3,54.3,63.7,55.2,62.4,55.8Z"/><path class="cls-3" d="M285.1,91.3a6.5,6.5,0,0,1-.4-1.3c.1-3.6.3-7.3.4-10.9a9.6,9.6,0,0,1,1-5c.2.2.6.5.5.7-.9,4.5-.4,9-.5,13.5C286.1,89.4,286.1,90.6,285.1,91.3Z"/><path class="cls-1" d="M71,34.7c1,1.5,2.3,2.8,2.1,4.9-.1.1-.1.3-.2.4a1.6,1.6,0,0,1-.6.8l-.3.3a1.7,1.7,0,0,1-1,.3,15,15,0,0,1-1.5-2.3C68.8,37.3,69.1,35.7,71,34.7Z"/><path class="cls-3" d="M284.2,40.5V22.2l.9,1.9V37.4C285.1,38.5,285.2,39.7,284.2,40.5Z"/><path class="cls-3" d="M57.6,26.1l.9,1.9,1.1,1.8-.3.4c-2.1.6-4.2-1.8-6.3-.2a6.2,6.2,0,0,1-1.2-3.9Z"/><path class="cls-3" d="M283.2,46.2h.9c0,5.4.1,10.9.1,16.3-1.1-.8-1-1.9-1-3Z"/><path class="cls-3" d="M62.4,55.8c.3-1,.6-1.9,1-2.9a.6.6,0,0,1,.9,0H73l.8,1.1c-3.5,1.8-7.4,1.5-11.1,2.1Z"/><path class="cls-6" d="M73,96.1a11.1,11.1,0,0,1-.2-1.9v-.9L74,92.2l.5.3A3,3,0,0,0,77,93.7c1.2-.1,2.8-.3,3,1.4s-1.3,2-2.5,2.4a4.4,4.4,0,0,1-2.3.2A4,4,0,0,1,73,96.1Z"/><path class="cls-1" d="M35.5,62.5a3,3,0,0,0-2.9,1.9H30.7v-1a2.7,2.7,0,0,1,1.8-2.6C34,60.4,34.9,61.3,35.5,62.5Z"/><path class="cls-3" d="M282.2,108.6c.4-3,1.3-5.9,1.1-8.9,0-.6.6-1.1.8-1.7,0,2,0,4.1.1,6.1A5.3,5.3,0,0,1,282.2,108.6Z"/><path class="cls-3" d="M71,41.4l1.1-.8c1.1,1.3,1.8,2.6,1,4.3a1.6,1.6,0,0,1-2.1-.6Z"/><path class="cls-3" d="M286.1,74.1a9.5,9.5,0,0,1-.9-2.1,22.9,22.9,0,0,1-.1-3.7,8.8,8.8,0,0,1,.9,2A24.1,24.1,0,0,1,286.1,74.1Z"/><path class="cls-3" d="M285.1,68.3a8.8,8.8,0,0,1-.9-2c-.1-1.3,0-2.5,0-3.8a9.5,9.5,0,0,1,.9,2.1C285.2,65.8,285.1,67.1,285.1,68.3Z"/><path class="cls-1" d="M3.8,129.7H2.9l-2.9,1a2.2,2.2,0,0,1,2.3-2.3C2.8,128.4,3.3,129.3,3.8,129.7Z"/><path class="cls-3" d="M284.2,97.1c0-1.3-.1-2.5,0-3.7a9.5,9.5,0,0,1,.9-2.1c0,1.3.1,2.5,0,3.8A8.8,8.8,0,0,1,284.2,97.1Z"/><path class="cls-3" d="M280.3,114.4c.1-1.4-.4-2.9,1-3.9C281.1,111.9,281.7,113.4,280.3,114.4Z"/><path class="cls-3" d="M30.7,92.3c1.5-1.2,1.5-1.2,2.9,0l-.2.3a2.3,2.3,0,0,1-2.5,0Z"/><path class="cls-3" d="M281.3,110.5l.9-1.9Z"/><path class="cls-3" d="M277.4,137.4l1-1.9Z"/><path class="cls-3" d="M284.2,42.4c-1-.7-1-1.3,0-1.9Z"/><path class="cls-1" d="M40.3,79.8l1,1Z"/><path class="cls-1" d="M64.3,52.9h-.9Q63.9,52,64.3,52.9Z"/><path class="cls-7" d="M272.6,12.6h-.9a1.3,1.3,0,0,1-.3-.8c.1-.3.1-.4.2-.4a10,10,0,0,0,2.6-3.5,1.5,1.5,0,0,1,1.3-.3.8.8,0,0,1,.2.8c0,.2-.1.4-.2.4s-.1,1.5.3,1.8c1.9,2.1,2.4,4.8,3.2,7.4s1.1,2.9,1.6,4.4a20.6,20.6,0,0,1,1.3,7.8,29.7,29.7,0,0,1-1,8.4,3.7,3.7,0,0,0,.1,2.3c.4,2,.7,4.1-.7,5.9s-.4,1.1-.2,1.3.4,3,.3,4.5a30.1,30.1,0,0,0,.3,6.7,103.3,103.3,0,0,1,1.8,13.6c0,.3-.5.9-.8.9a1.7,1.7,0,0,1-1.1-.6c-.5-1-.1-2.3-1.3-3A32.3,32.3,0,0,1,277.4,60c.1-9,.1-17.9,0-26.9,0-4.3.3-8.6-.9-12.8-.9-1.8-.1-4.2-2-5.8h.1A6.1,6.1,0,0,0,272.6,12.6Z"/><path class="cls-8" d="M62.7,56.1A12.3,12.3,0,0,1,73.8,54h.1c2.5,1.7,5.2,3.4,4.2,7.1A6.5,6.5,0,0,1,72,66.2h-.1c-1.2,1.8-5.1-.3-4.9,3.4v.3l.2.3V74a3.8,3.8,0,0,1-.3,1.9,2.8,2.8,0,0,1-1.4,1,2,2,0,0,1-1.5-1,8.5,8.5,0,0,1-.4-2.3c-.1-2.2-.2-4.5-.4-6.7s-.1-2.6-.8-3.2c-2.6-2.4-1.4-4.5,0-6.7A3.6,3.6,0,0,0,62.7,56.1Z"/><path class="cls-8" d="M138.4,85.6a26.9,26.9,0,0,1,1.9-3.2,4.6,4.6,0,0,1,5.1-1.5,3.7,3.7,0,0,1,2.6,3.6,11.3,11.3,0,0,1-.3,1.8,5.5,5.5,0,0,1-2.7,3.6c-3.4,2.5-3.3,4.2.5,7,1,.4,2.4.3,2.3,2s-3,.8-4.5,1.4a1.8,1.8,0,0,0-1,1.3,16.5,16.5,0,0,0,.6,3.2,2.4,2.4,0,0,1,.6,2.1c.1,2.1-.3,4-2.6,4.2s-1.8-2.3-2.5-3.6h0A35.9,35.9,0,0,1,138.4,85.6Z"/><path class="cls-9" d="M73.1,44.9c-.7-1.3-1.4-2.7-1-4.3h0a1.8,1.8,0,0,1,.9-1h2.9c.7.1.6,1.7,1.7.9s1.8-2.9,1.3-3.8a2.1,2.1,0,0,0-1.1-.7l-2.4.2c-2.5-.2-3.9-1.5-3.8-4a17.8,17.8,0,0,1,1-5.1c1.4-4.1,3.3-5.2,7.9-4.8.8,1,1.5,2.1,1,3.5a3.6,3.6,0,0,1-1.4,1.6c-.2.1-1-.5-1.4-1s-1.3-1.1-1.9-.4a9.5,9.5,0,0,0-1.7,6.5c1.2,0,2.3-.1,3.3,0,2.7.2,4.1,1.5,4.2,4.1a18.3,18.3,0,0,1-.2,3.3c-1.8,5.3-4.7,6.9-9.2,5Z"/><path class="cls-10" d="M96.1,68.6c1-1,2-2.1,3.1-3a1.7,1.7,0,0,1,1.7,0,2,2,0,0,1,.6,1.6c-.5,1.2-1.3,2.2-1.8,3.3a1.6,1.6,0,0,0,1.3,2.1,7.7,7.7,0,0,0,4.5-1.3,3.1,3.1,0,0,0,1.2-3c-.5-3.4.2-6.7.2-10a13.5,13.5,0,0,1,.4-2.8,2.1,2.1,0,0,1,1.1-1.3c1-.2,1.4.7,1.6,1.5s.2,2.2.3,3.3.1,1.9.1,3.1,2.6-.3,3.9-.3.8.5.9.9a1.7,1.7,0,0,1-.6,1.1l-3.9,1.7c-.1,1.7-.3,3.4-.4,5.2s.1,2.2,0,3.3-1.4,1.9-2,1.2-2.7-1.3-4.6-.6-5,1.2-6.8-1.4S94.6,70.4,96.1,68.6Z"/><path class="cls-11" d="M218.1,37c-.6,2.2-2.4,3-4.3,3.4s-1.9,1.1-2,2.6-.1,5.7-.2,8.5a9.2,9.2,0,0,1-.3,2.9c-.1.4-.8,1.1-1.2,1.1a2.4,2.4,0,0,1-1.3-1.1,12.4,12.4,0,0,1-.4-3.3q-.2-3.6,0-7.2a14.8,14.8,0,0,0-1.2-6.9,10.9,10.9,0,0,0,1.2-6.4,9,9,0,0,1,.4-2.8,1.2,1.2,0,0,1,2.2,0c.3,1.4.4,2.8.6,4.4,2.5-.1,5.3-1.1,6.5,2.2A2.4,2.4,0,0,1,218.1,37Z"/><path class="cls-12" d="M98.2,92.4c1.4-.1,2.8-1.1,4.1.1a1.8,1.8,0,0,1,.5,1.2c.1.2-.2.6-.5.7a5.8,5.8,0,0,1-1.4.3c-1.6.7-2.3,1.7-2.1,3.2a2.5,2.5,0,0,0,2.8,2.1,8.8,8.8,0,0,0,3.2-.7,3.2,3.2,0,0,0,2.1-3.4c-.1-3.2,0-6.4.1-9.6a13.5,13.5,0,0,1,.4-2.8c.3-1.5.9-1.6,2.8-.7.9,5.3,1.5,10.6,1.9,15.9.2,2.4-.6,4.8-3.9,3.2-1.5-.7-2.5.2-3.6.7-2.7,1.3-5.2,1.4-7.5-.8h0a1.3,1.3,0,0,1-.9-1.1h0C94.4,97.4,95.2,94.7,98.2,92.4Z"/><path class="cls-13" d="M221.6,99.5c.4-4.1.7-8.2,1.2-12.3a11.9,11.9,0,0,1,2-5.8,4.6,4.6,0,0,1,5.6-1.5,3.3,3.3,0,0,1,1.9,3,3.5,3.5,0,0,1-2.7,3.4c-.3,0-.7-.5-.9-.9s.2-.6.3-.8,1.1-1.9-.1-2.4-1.8.6-2.1,1.6a14.8,14.8,0,0,0-1,3.6c-.2,2.7-.3,5.4-.4,8.1s.6,1.7,1.8,1.6a5.5,5.5,0,0,1,1.8.1,1.1,1.1,0,0,1,.2.8c-.3.3-.7.8-1.1.8-2.1.2-3,1.3-2.8,3.5a18.2,18.2,0,0,1,0,3.3c-.2,1.6-.8,2.4-1.7,2.6s-1.7-1-1.8-2.5V99.5Z"/><path class="cls-14" d="M139.5,35.4a9.7,9.7,0,0,0,.1,2.4,1.2,1.2,0,0,0,.8,1,1.6,1.6,0,0,0,1.3-.4,7.5,7.5,0,0,0,1-2c.3-1.5.5-3.1.7-4.7,1.8-.3,3.7-.2,5.5-.5a2.2,2.2,0,0,1,1.3.6,1.7,1.7,0,0,1,.1,1.2l-2.6,1.1a3,3,0,0,0-2,3c-.1,1.1,0,2.2-.2,3.3a3.7,3.7,0,0,1-1.1,1.9c-.3.2-1.1-.5-1.7-.6a55.8,55.8,0,0,0-5.9-.9c-.5,0-1,.7-1.5,1.1-2.5,1.3-4.2.7-5.1-2.1a12.3,12.3,0,0,1-.2-6.6c.1-.5.8-.9,1.4-1s.8.5.9.9.2,3.2.4,4.8.4,1.3.9,1.5,1.4-.5,1.8-1.2a28.1,28.1,0,0,0,1-3.1c.3-.9.4-1.9.7-2.7a1.7,1.7,0,0,1,1.2-.6,1.9,1.9,0,0,1,1.1.8,26.4,26.4,0,0,1,.2,2.8Z"/><path class="cls-10" d="M121.8,36.4c1-2,2-4.1-.4-5.9-.2-.2-.4-1.2-.2-1.2,2.2-1.4,1.5-3.7,1.8-5.7a3.5,3.5,0,0,1,.5-1.3,1.4,1.4,0,0,1,1.1-.7,1.4,1.4,0,0,1,1,.7c.2,1.5.3,2.9.4,4.4h4.2c.2,0,.5.4.6.7s-.1.8-.3.8a28.5,28.5,0,0,1-3.1,1.2c-.9.4-1.6.9-1.5,2.1s.2,3.8.4,5.7.3,2.3.4,3.4.1,2.1-1,2.3-2-.7-2-2,0-1.8-1.2-2.2l-.8.8-.7.9h-.1l-.8.8-.2.2a1.6,1.6,0,0,1-.8.6c-.2.4-.4.5-.8.4a4,4,0,0,1-3.2,0h0c-.2-.5-.5-.9-1-.9H114c.1-.5-.4-.8-.7-1.1a.6.6,0,0,1-.1-.8,3,3,0,0,1-.1-2.6l.3-1.5c.5-.5.3-1.3.8-1.8h.1a2.1,2.1,0,0,0,.7-1.1h.1c.5-.1.7-.4,1-.9h0c.6-.3,1.2-.5,1.8.1l.3.2v.3a1.4,1.4,0,0,1-.1,1.4H118l-.8.8h-.3a2.2,2.2,0,0,1-.7.9h0c-.7,1.6-1,3.1.1,4.6h0a1,1,0,0,0,1.7.2h.1l.9-.6,1.3-1.3a1.4,1.4,0,0,1,.7-.8v-.2A1.8,1.8,0,0,0,121.8,36.4Z"/><path class="cls-15" d="M167.7,123.2a26.7,26.7,0,0,1,.9-2.9,3,3,0,0,1,.9-1c1.6,1,3.1-.6,4.6-.1a3.8,3.8,0,0,1,2.2,1.5,9.2,9.2,0,0,1,.7,6.1,1.6,1.6,0,0,1-1,.8,1.4,1.4,0,0,1-1-.8c-.6-1.5-1.1-3-1.6-4.5-1.4.6-2.5,1.2-2.7,2.7a29.9,29.9,0,0,1-.8,3.2,1,1,0,0,1-.8.4c-.2.1-.7-.1-.7-.3a9.7,9.7,0,0,1-.8-2.2c-1.1.6-2.1,1.4-3.2,1.9a3.8,3.8,0,0,1-4.3-1.2,3.6,3.6,0,0,1-.1-4.4,6.4,6.4,0,0,1,1.9-2.1c1.7-1.3,2.8-1.1,4.3.9Z"/><path class="cls-14" d="M209,98.9c-1.7,1.3-3.5,2.1-5.7.9a4.1,4.1,0,0,0-2.2,0c-1.1.2-2.2.6-3.3.7a3.4,3.4,0,0,1-3.1-1.9,6.9,6.9,0,0,1,3.8-9.1,2.2,2.2,0,0,1,1.4,0,3.6,3.6,0,0,1,1.5,1.5,1.2,1.2,0,0,1-1.1,1.7c-.9.1-1.7-.1-2.1.7a6.8,6.8,0,0,0-.7,2.7,1.4,1.4,0,0,0,1.5,1.5c1.4-.2,2.9-.2,3.2-2.2a5.1,5.1,0,0,1,.7-1.7c1.6-2.7,3.4-3.1,6.4-1.6l.8.4c1.5,1.5,1.3,3,.2,4.6h0C209.6,97.6,209.9,98.6,209,98.9Z"/><path class="cls-4" d="M97.9,141.3c1,1.2,2.3.9,3.5.9h15.8a9.7,9.7,0,0,1,2.4.2c.3.1.5.6.7,1a1,1,0,0,1-.6.5c-2.2.2-4.5.8-6.6.4s-5,1.3-7.5,0c-1.7,1-3.4-.4-5-.1-3.8.8-7.6-.4-11.3-.1-2.9-1.4-5.9-1.4-9-1.6s-7,.5-10.2-1.2H70c.9-1,2-.9,3.1-.9,4.7.2,9.5-.6,14.1.7C90.8,140.4,94.4,141.2,97.9,141.3Z"/><path class="cls-3" d="M138.4,85.6c-.8,4.5,0,9.1-.9,13.6,1,2.7.9,5.6.9,8.4a2.2,2.2,0,0,1-1.1-2.3c0-2.3-1.1-3.3-3.3-3.5-.6,0-1-.6-1.5-.9l.3-.5c1.3-1.5,1.6-2.8-.6-3.8a1.6,1.6,0,0,1-.8.6c-.5-1.1-1-2.2-1.4-3.3a3.8,3.8,0,0,0-2.3,3.9c0,1,.3,2.3-1.2,2.8-2.2-6.2-1.4-7.5,5.9-10.2l2.8,1.6c.6.3,1.7-.7,1.5-1.4s-.9-2.7-2.6-3h-.9c-1.1-.1-2.4.1-2.4-1.5a1.9,1.9,0,0,1,2-2.1l.2.3.2-.4a3.5,3.5,0,0,1,2.6.8Z"/><path class="cls-16" d="M161.4,41.4a6.8,6.8,0,0,1-6,2,4.8,4.8,0,0,1-4.5-4.7c.1-3,1.1-5.6,3.7-7.3a2.5,2.5,0,0,1,2.2-.2,1.9,1.9,0,0,1,.8,2.4,6.1,6.1,0,0,1-2.6,3.3,1.6,1.6,0,0,0-.5,2.1,1.9,1.9,0,0,0,2.3,1.2l2.7-.8c2.4-.2,3.6-1.3,3.3-3.9a6.2,6.2,0,0,1,.3-3.8h0c.5-.1.7-.5,1-.9h.1c.5-.5,1.3-.3,1.8-.8h2c.4.2.6.8,1.1.5l.3.2c-.1,2.3-2.4,1.1-3.2,2h-.3l-.7,1h0c-1.5,2.3.3,5-1,7.4h-1.1A1.4,1.4,0,0,0,161.4,41.4Z"/><path class="cls-13" d="M241.1,44.3c-.6,1.8-1.1,3.7-1.7,5.5a9.5,9.5,0,0,1-3.7,4.9,10.3,10.3,0,0,1-3,1.4,2.3,2.3,0,0,1-2.5-.9,3,3,0,0,1-.3-3.5c.3-.5,1.1-.4,1.5.2s.6,1.3,1,1.3a2,2,0,0,0,1.5-.9,13.7,13.7,0,0,0,2.8-4.4c1.6-4.9,2.3-9.9.5-14.9a2.1,2.1,0,0,1,.5-1.7,1.5,1.5,0,0,1,2.1.4l1.2,2C243.7,37.2,240.7,40.8,241.1,44.3Z"/><path class="cls-14" d="M250.5,36.6c1.2-2.4,2-4.7-.3-7-.3-.2-.2-1.3,0-1.5s1.3-2.5,1.4-3.9a35.9,35.9,0,0,1,.3-4.7c.1-.4.9-.8,1.5-.9a1.6,1.6,0,0,1,.9.9c.2,1.4.2,2.8.3,4.2s.1,2.3,2.6,2.7l1.3.5a1,1,0,0,1,.2,1.6,13.6,13.6,0,0,1-2.1,1c-1.8.8-1.9.8-1.8,2.8s.4,3.8.4,5.7a1.9,1.9,0,0,1-.9,1.4,1.4,1.4,0,0,1-1.9-.9C251.9,37.7,249.9,38.4,250.5,36.6Z"/><path class="cls-17" d="M143.5,118.3h1.2c2.1,1.5,2.3,1.5,5.4,1.1.7,2.4,1.3,4.7-.5,6.8-.4-.1-1.2-.3-1.3-.1-1.1,1.9-2.9,2.3-4.9,2.4a4.9,4.9,0,0,0-2.4.1,21.6,21.6,0,0,1-3.6,0l-1.2-.4a5.4,5.4,0,0,1-1.6-1,3.1,3.1,0,0,1-1-1.5,7,7,0,0,1-.1-2.5l.3-1.2a3.6,3.6,0,0,1,.7-1l.4-.5a6,6,0,0,1,1.1-.6,2,2,0,0,1,1.1-.3h1.2a1.5,1.5,0,0,1,1.1.2,2.9,2.9,0,0,1,.5,2.2,4.5,4.5,0,0,1-.3,1.1,2.7,2.7,0,0,1-.7.8l-.3.4-.8.7-.4.3-.3.2c0,.1.1.1.4,0h1.1a2,2,0,0,0,1.6-1.3C141.3,122.3,140.2,119.1,143.5,118.3Z"/><path class="cls-18" d="M122.1,128.8l-.3,4.5c-.6,1.3-.4,3.6-2.7,3.1s-1.5-2.5-1.5-4,.4-3-2-3.7-3.7-2.8-2-5.5h-.1c3.3-4.9,6-5.7,9.4-2.6C123.7,123.4,122.9,126.1,122.1,128.8Z"/><path class="cls-3" d="M72,66.2l3.4-2.5c2.8-2.5,2.9-5,.5-7.8a18,18,0,0,0-2-1.9c3.1.5,4.7,2.4,4.8,5.5s.7,2.5,2.5,3.3a18.5,18.5,0,0,0,7.7,1.8c.9,0,1.2.9,1.4,1.7l-.5.4c-4-.9-4.6,2.9-6.7,4.7l-.6-.3a2.7,2.7,0,0,0,0-.9c-.3-1.5-.9-1.8-1.7-1.1s-2.4,2.5-2.1,4.5a17.6,17.6,0,0,1,0,2.3c-.2,1.4-.7,1.9-2.2,2s-1.8-.2-2.4-2.1c1.2-.5,2.4-1.1,2.4-2.6a9.7,9.7,0,0,1,3.4-7.3c-2.8.8-4.1,2.8-4.6,5.4s0,3.2-1.2,4.5c-.3-.6-1-1.2-1.1-1.9s0-3.1,0-4.7A3.7,3.7,0,0,0,72,66.2Z"/><path class="cls-19" d="M138.7,70.3a17.4,17.4,0,0,0-.9-3.4c0-.3-1.2-.5-1.5-.3a4.4,4.4,0,0,0-1.5,1.8c-.3.9-.4,1.9-.7,2.8s-.5,1.9-1.8,1.9-1.5-.8-1.5-2.5-.1-3.1-.1-4.7,0-1.9,2.4-2a13.8,13.8,0,0,0,2.7-.8c1.9-.6,3.5-.3,4.5,1.4a9.8,9.8,0,0,1,1.3,8.3c-.3.8-.8,1.6-1.7,1.3a3.4,3.4,0,0,1-1.4-1.7C138.3,72.1,138.6,71.5,138.7,70.3Z"/><path class="cls-14" d="M207.9,74.3l-2.4-.5a2.9,2.9,0,0,1-1.5-4.6,6.4,6.4,0,0,1,4-2.4c1.3-.3,1.6-1,1.2-2.5a1.1,1.1,0,0,0-1.3-1,10.2,10.2,0,0,0-2.2.9c-.6.4-1.3.4-1.5-.2a1.8,1.8,0,0,1,.5-1.7,7.8,7.8,0,0,1,2.8-1.6c2.1-.7,3.7.3,4.4,2.5a18.5,18.5,0,0,1,.4,2.3,14.6,14.6,0,0,1,.2,2.9c-.2,1.4,1.2,3-.2,4A20.2,20.2,0,0,1,207.9,74.3Z"/><path class="cls-20" d="M185.4,39.5a3,3,0,0,0-.2,1c-.2.9-.5,1.8-1.6,2.1s-1.6-.7-1.7-2.4-.1-4.5-.2-6.7-.1-7.3-.2-11a8.6,8.6,0,0,1,.2-2.3,1.2,1.2,0,0,1,1-.8,1.1,1.1,0,0,1,1.1.6,14,14,0,0,1,.6,2.8c.3,4.3.6,8.5,1,12.8A3.2,3.2,0,0,1,185.4,39.5Z"/><path class="cls-21" d="M220.5,118c.2,1.7.3,3.5.4,5.2a1.8,1.8,0,0,0,.7.5c.3,0,.8,0,.9-.2a34.7,34.7,0,0,1,1.8-3.3,2.1,2.1,0,0,1,1.5-.7,1.4,1.4,0,0,1,.9.9,47.3,47.3,0,0,1,.4,5.2.9.9,0,0,1-1.4.8,2.7,2.7,0,0,0-3,0c-2.6,1.1-4.3.1-5-2.6a9.1,9.1,0,0,1-.4-3.3,55.1,55.1,0,0,1,.7-7.1c.1-.6.9-1.1,1.5-1.6s1.1,1.2,1.2,1.9a30.8,30.8,0,0,1,0,4.3Z"/><path class="cls-22" d="M107.1,41.5l-2.7,1.8a2.5,2.5,0,0,1-3.3-1.1c-1.5-3-1.2-6.1-.1-9.2l.9-.2a.8.8,0,0,1,.7.4,6.5,6.5,0,0,1,.4,1.3c0,1.3-.1,2.6-.1,3.9s0,1.8,1,1.8,1.2-.9,1.5-1.5a8.8,8.8,0,0,0,1-2.7c.4-1.3.1-3.3,2.1-3.1s1.1,2.1,1.4,3.2.9,3.3,1.3,5a4.1,4.1,0,0,1-.3,2.2c-.2.4-1.3.7-1.5.5A12.5,12.5,0,0,1,107.1,41.5Z"/><path class="cls-12" d="M148,59.1l4.3-.4c.2,0,.7.3.7.5s-.1.7-.3.8L148,62v4c0,1.9-.1,3.8-.1,5.7a1.7,1.7,0,0,1-1.4,1.7c-.8.2-1.7-.8-1.8-1.9s.1-1.2.1-1.9c-.3-2.4.7-5.1-1.1-7.3-.2-.2-.2-.7,0-.8,1.6-2,.9-4.2,1-6.4a5.9,5.9,0,0,1,.2-1.4c.1-.2.4-.6.6-.6s1.1.1,1.3.4a3.3,3.3,0,0,1,.7,1.7A23,23,0,0,1,148,59.1Z"/><path class="cls-23" d="M196.7,120.6v1.9c-.2,1.7.7,4.1-1,4.8s-4,.5-5.9.3-3.3-2.7-2-4.8a5.8,5.8,0,0,1,3.6-2.9,2.8,2.8,0,0,0,2.2-2.7c.1-1.6-.6-3.7,1.7-4.4,1.6,1.1,1.1,2.9,1.3,4.4s0,2.2,0,3.4Z"/><path class="cls-24" d="M234,63.7c.2,1.6.4,2.8.6,4a7.4,7.4,0,0,1,.4,1.4,3.4,3.4,0,0,1-1.4,2.8c-.8.3-1.8-.7-2-2.2s-.2-2.6-.5-3.8a4.7,4.7,0,0,0-1.2-1.9c-1.1-1-1-.9-.2-2.6s.6-2.4,1.1-3.6.7-.6,1.1-.8a1.4,1.4,0,0,1,.6.7,3.4,3.4,0,0,1,.6,1.2,1.5,1.5,0,0,0,1.9,1.6l3.8-.5a5.4,5.4,0,0,1,1.8,0,1.7,1.7,0,0,1,1,1,1.7,1.7,0,0,1-.6,1.1,5.3,5.3,0,0,1-1.8.5Z"/><path class="cls-3" d="M97.1,101.8a7.8,7.8,0,0,0,8.9-.5c1.4-1,2.1-.5,3.2.5a1.3,1.3,0,0,0,2.1-1.4c-1.4-5.8-.9-11.7-1.1-17.6.4.5,1,.9,1,1.4s.1,2.5.2,3.8c0,3.1,0,3.1,2.9,2s3.9-1.4,5.6.6c-1,1.4-4,.3-3.9,3a2.5,2.5,0,0,1,.4,1.7,24.9,24.9,0,0,1-2.9,4.3,8.7,8.7,0,0,0-.9,1.1c-1.6,2.7-1.6,2.8-4.3,2.1a3.6,3.6,0,0,0-2.7,0,11.9,11.9,0,0,1-2.6,1.1C99.9,104.9,99.4,104.7,97.1,101.8Z"/><path class="cls-25" d="M214.6,67.3a23.4,23.4,0,0,1,.4-3.9c.1-.4,1.2-.9,1.3-.8s2,.1,3-.3c2.9-1.4,4.4-.7,5.5,2.2a15,15,0,0,1,.7,6.6c-.1.5-.8.9-1.2,1.3s-1.1-.8-1.2-1.3-.4-3.2-.8-4.7-.8-1.6-1.3-1.6a2.5,2.5,0,0,0-1.8,1.2,24.8,24.8,0,0,0-1.3,3.5,11.2,11.2,0,0,1-.9,2.2c-.1.4-.7.6-1.1.6a1.5,1.5,0,0,1-1-.9C214.7,70,214.7,68.6,214.6,67.3Z"/><path class="cls-26" d="M237,124.7c.9-.8,2.3-1.1,2.1-2.8a9.1,9.1,0,0,1,.9-3.6c.1-.3.8-.6,1.2-.6s.8.6.8.9,0,2.2.1,3.3.2,1.5.5,1.6,1.2-.7,1.6-1.4.7-2,1.3-3,.8-.6,1.2-.6a1.6,1.6,0,0,1,.9.9c.7,2.1,1.2,4.2,1.7,6.4a2,2,0,0,1-.6,1.6c-.2.3-.9.3-1.3.2l-1.5-1.2a1.2,1.2,0,0,0-1.7-.2c-1.6,1.4-3.1,1.1-4.7-.2s-.9-.1-1.4,0A1.5,1.5,0,0,1,237,124.7Z"/><path class="cls-27" d="M86,25.1c.3.1.8,0,.9.2a2.5,2.5,0,0,1,.6,1.3c.1,2.1,1.1,3.2,3.3,3a1.3,1.3,0,0,1,.7.5c-.1.5-.3,1.2-.5,1.2-3,.3-2.9,2.2-2.7,4.4s0,2.6,0,3.8,0,2.3-1.3,2.7-1.6-.7-1.7-2.4-.1-3.5-.1-5.2-.1-1.7-2.2-1.9-1.3-.4-1.3-1.1a4.3,4.3,0,0,1,.7-1.6c0-.1.3-.1.4-.1,1.8-.2,2.4-1.2,2.2-3S85.3,25.3,86,25.1Z"/><path class="cls-28" d="M96.1,73.2v4.2a16.3,16.3,0,0,1-3.1,10c-1.7,1.6-3.4,2.2-5.1,0a7.1,7.1,0,0,1-.8-1.8,1.3,1.3,0,0,1,.2-1.2,2.9,2.9,0,0,1,1.8-.5c1.5-.1,2.1-1.4,3.2-2h0a23,23,0,0,0-.3-9.4c-.4-2-1.9-4.8,1.5-6L95,68.4A8.9,8.9,0,0,1,96.1,73.2Z"/><path class="cls-29" d="M144.8,97.9c-2.8-.2-2.8-.2-3.1-2.4s-.1-1.5-.2-2.3-.2-2.1.2-2.8,1.6-.7,2.4-1.2a45.7,45.7,0,0,0,3.6-2.9l1.2,1.3a4.1,4.1,0,0,0,.7,1.5l1.1,1.2a17.4,17.4,0,0,1-1,1.9C149,94.9,148.8,98.1,144.8,97.9Z"/><path class="cls-30" d="M186.4,65.5c1.5,1.4,2.7,2.4,3.8,3.6a2.3,2.3,0,0,1,.1,3,5.4,5.4,0,0,1-7.6.8,1.1,1.1,0,0,1-.3-1.2,1.2,1.2,0,0,1,1-.7,19.4,19.4,0,0,1,2.4.2,3,3,0,0,0,1-.7c.1-.1-.1-.6-.3-.8a25,25,0,0,1-2.4-2.2,2.7,2.7,0,0,1,.3-4.2,4.5,4.5,0,0,1,3.9-1.4,1.9,1.9,0,0,1,1.4,1,1.7,1.7,0,0,1-.7,1.6C188.5,65,187.6,65.1,186.4,65.5Z"/><path class="cls-31" d="M235.3,34.9a6.3,6.3,0,0,1-7.3,5.8,3.1,3.1,0,0,1-2.4-3.6,8.4,8.4,0,0,1,4.9-6.1C232.5,30.1,235.3,32.4,235.3,34.9Z"/><path class="cls-32" d="M161.4,71.4c-1.4,2.3-3.6,2.9-6.1,3s-4.4-1.7-4.6-4.4,1.1-4.8,3.5-6.2a1.8,1.8,0,0,1,2.5.4,1.9,1.9,0,0,1,.4,2.2c-.7,1-1.7,1.9-2.4,2.9a1.1,1.1,0,0,0-.2,1.2c.1.4.8.7,1.1.7l4.1-1.1c.6-.2,1.2-.7,1.6.2s.4.4.3.7S161.5,71.4,161.4,71.4Z"/><path class="cls-33" d="M113.5,99.6c-.3-2.4.8-3.8,2.9-4.7.1-1.3-.6-1-1.3-.7s-1.8.1-1.8-.9a1.6,1.6,0,0,1,.8-1.5,7.9,7.9,0,0,1,5.8-1.2l1,.8c2.6,2.4,3.3,5.4.9,7.9s-5.4,3.5-8.3.4Z"/><path class="cls-34" d="M186.2,35.7c.8-1.1,1.5-2.2,2.3-3.1s2.6-1.3,3.4-.5.9,1.9.1,3.1-1.5,1.9-2.2,2.9a2.2,2.2,0,0,0,2.9,1c.9-.4,1.6-1,2.4-1.4a1.5,1.5,0,0,1,1.3.2,2.8,2.8,0,0,1,.3,1.3,2.9,2.9,0,0,1-.7,1.2,5.6,5.6,0,0,1-7.3,1.3,25,25,0,0,1-2.4-2.2A3.5,3.5,0,0,1,186.2,35.7Z"/><path class="cls-35" d="M197.2,64.9l3.1,2.2c1.9,1.7,1.7,3.7-.4,5.2a5.2,5.2,0,0,1-4.5,1.1,2.1,2.1,0,0,1-1.4-1,1.8,1.8,0,0,1,.8-1.5,10.3,10.3,0,0,1,2.6-1.2c-.1-1.7-1.8-1.7-2.5-2.6s-1.6-2.6-1-3.8a4.2,4.2,0,0,1,4.3-2.3,1.6,1.6,0,0,1,.9,2.6A8,8,0,0,1,197.2,64.9Z"/><path class="cls-36" d="M212.1,91.4l4.2-.7a3.4,3.4,0,0,1,4.1,2.3,6.9,6.9,0,0,1-.5,6.4,1.1,1.1,0,0,1-1.2.5,1.1,1.1,0,0,1-.8-.9c-.1-1.2,0-2.5-.1-3.8s-.6-1.3-1-1.4a2.3,2.3,0,0,0-1.6.7,2.4,2.4,0,0,0-.9,1.5c-.2.6,0,1.4-.2,1.9s-.8,1.6-1.4,1.7-1.3-.6-1.4-1.5-.1-.7-.2-1C210.2,95,211.2,93.2,212.1,91.4Z"/><path class="cls-37" d="M169.3,89.3c1,.5,2.1.8,3,1.3a1.9,1.9,0,0,1,.5,1.3,1.8,1.8,0,0,1-.9,1c-.2.2-.6.1-.9.1-4.2.5-4.2.5-4.4,4.5a5.8,5.8,0,0,1-.4,1.8,1.3,1.3,0,0,1-2,.3,5.4,5.4,0,0,1-1-1.6,31.5,31.5,0,0,1-.9-4.2c-.3-2,0-2.2,2.4-2.9S167.7,89.9,169.3,89.3Z"/><path class="cls-38" d="M262,93.2l.3-.9c.1-.2.2-.7.4-.7a30.3,30.3,0,0,1,5.8-.9c1.5,0,2.1,1.5,2.2,2.8a52.7,52.7,0,0,1-.4,5.6c-.1.3-.7.8-1.1.7a1.4,1.4,0,0,1-1-.7,45.7,45.7,0,0,1-.5-5.2c-1.6.2-2.6.8-2.8,2.3a19.4,19.4,0,0,1-.2,2.4c-.1,1-1,1.1-2.5.4S260.5,95.2,262,93.2Z"/><path class="cls-39" d="M161.4,71.4a4.1,4.1,0,0,1-.1-1.1c1.2-.7.9-1.9,1-3s0-2.5.1-3.8.9-1.6,1.6-1.1,2.4.3,3.5-.3l1.8-.4a2,2,0,0,1,1.7,1.9c0,.9-.7.9-1.3,1-2.9.9-3.8,2.2-3.7,5.1a27.2,27.2,0,0,1,.1,2.8,2,2,0,0,1-1.1,1.3c-.3.2-1,0-1.3-.2Z"/><path class="cls-40" d="M200.9,123a3.7,3.7,0,0,0,.7,1.9c.5.7,2.2-.2,3-1.6s.7-1.8,1.2-2.5a2.3,2.3,0,0,1,1.7-.5c.3,0,.7.6.8,1,.2,1.9.4,3.8.5,5.7a1.7,1.7,0,0,1-.6,1.1,1.5,1.5,0,0,1-1.3,0c-1.3-1.6-2.5-1.1-4.1-.4s-4.4-.3-4.8-3a7.3,7.3,0,0,1,1-4.6,1.3,1.3,0,0,1,1.2-.5c.3,0,.8.5.9.9A14,14,0,0,1,200.9,123Z"/><path class="cls-41" d="M180,71.5a1.5,1.5,0,0,1,.9-.1,1.4,1.4,0,0,1,.7.6,1,1,0,0,1-.2.9c-.4.4-.9,1-1.5,1.1a6.8,6.8,0,0,1-6.8-2.5c-1.7-2.1-1.6-3.8.2-6a9.5,9.5,0,0,1,2.1-1.9,1.9,1.9,0,0,1,2.6.1,1.8,1.8,0,0,1,.1,2.6l-2.2,2.4a1.2,1.2,0,0,0,.2,1.7C177.2,71.3,178.4,72.1,180,71.5Z"/><path class="cls-42" d="M250.5,36.6c.6.6,1.3,1.2,1.9,1.9a10.4,10.4,0,0,0-2.4,1.1c-2.5,1.8-4.8,2-7.2-.1s-1.2-4.5,0-6.7a7.2,7.2,0,0,1,2-1.9,2.6,2.6,0,0,1,2.1,0,2.3,2.3,0,0,1,.6,2.1,14.8,14.8,0,0,1-2.1,3,1.1,1.1,0,0,0,.2,1.6,2.3,2.3,0,0,0,1.6.7Z"/><path class="cls-43" d="M253.3,94.2a17.6,17.6,0,0,1,2.4-3c1.4-1.2,2.5-.9,3.9.8l1.3,1.4c1.4,1.8.4,3.2-.8,4.6-3.7,2.2-4,2.2-6.7-.9A2.3,2.3,0,0,1,253.3,94.2Z"/><path class="cls-16" d="M149.6,126.3a43.4,43.4,0,0,0,.1-5.1,6.2,6.2,0,0,0-1-2c-2.1-2.9-.3-5.9.4-8.6.3-1.2,2,0,2.5,1.4s.1,2.5.2,3.9,2.3.1,3.4.3.9.6.8.7a2.8,2.8,0,0,1-.8,1.1,1.3,1.3,0,0,1-.9.2c-2.4.7-2.4.7-2.4,3.1s-.1,3.1-.2,4.7S151,127,149.6,126.3Z"/><path class="cls-44" d="M246.2,91.8a20.9,20.9,0,0,1,2.3,2.9c1,1.7.3,3.7-1.7,4.7s-4,.5-4.9-1.2a1.5,1.5,0,0,1,0-1.3,1.8,1.8,0,0,1,1.5-.6c.6,0,1.2.5,1.7.6s.7-.9.6-1a32.2,32.2,0,0,0-2.4-2.8,2.6,2.6,0,0,1,.1-3.5,3.2,3.2,0,0,1,3.9,0c.2.2.1.9-.1,1.2A3.2,3.2,0,0,1,246.2,91.8Z"/><path class="cls-27" d="M159.7,97.9l1.9-.3c.5,0,.9,1,.6,1.5a3,3,0,0,1-3.3,1.5,9.6,9.6,0,0,1-3.1-1.1c-3.7-2-2.7-6.7.2-8.1a3.6,3.6,0,0,1,1.8-.3,1.7,1.7,0,0,1,1.4,2.1,8.6,8.6,0,0,1-1.3,2c-.9,1.3-.5,2.4.9,2.7Z"/><path class="cls-45" d="M97.1,31.1l2.5,1.4c.1.1-.1.7-.1,1.1l-.5.2c-2.6-.4-3.3,1.4-3.6,3.4s-.1,3.1-.2,4.7-.5,1.5-1.5,1.5a1.5,1.5,0,0,1-1.4-1.5c-.1-2.1-.2-4.1-.1-6.2S94.5,31.3,97.1,31.1Z"/><path class="cls-46" d="M128.5,128c-1.8.6-3.6,1.1-4.8-1a5.7,5.7,0,0,1-.7-6.1c3.7-3.1,3.3.4,3.9,2.3a.5.5,0,0,0,.4.6l.3-.3a3,3,0,0,1,.2-1c.2-.8.4-1.6,1.3-1.9a3.3,3.3,0,0,1,3,1.5,5.9,5.9,0,0,1,.2,3.7c-.7,1.3-.6,3.1-2.7,3.2h-.2A1.1,1.1,0,0,0,128.5,128Z"/><path class="cls-47" d="M132.4,90.4a2.1,2.1,0,0,1-1.8,2c-3.9,1.1-3.9,1.1-3.9,5.4a13.7,13.7,0,0,1-.2,2.8h0c-2.4,1.3-3.2-.7-3.4-2.1s-1.1-5.6.8-8.1Z"/><path class="cls-13" d="M237,124.7a6.9,6.9,0,0,1,1.1,1.3c-1.9,1.7-4.1,1.3-6.2.5a4,4,0,0,1-2.5-4.6,5,5,0,0,1,4-4.2,2.4,2.4,0,0,1,1.6.7,2,2,0,0,1,.2,1.8,16.1,16.1,0,0,1-2.2,2.3c-.8.9,0,1.4.3,2.1s2.5,1.2,3.8.2Z"/><path class="cls-48" d="M124,69.1a29.9,29.9,0,0,1,.4-4.3c0-.4.8-.8,1.3-.9s.9.4,1.1.8a16.8,16.8,0,0,1,.4,8.9,2.2,2.2,0,0,1-1.3,1.2c-1,.2-1.3-.7-1.5-1.5a3.2,3.2,0,0,1-.2-1.4V69.1Z"/><path class="cls-3" d="M131.4,125.9v-3.8a1.9,1.9,0,0,1-.2-1.8l6.3-.9v.4l-.4.2-.9.4a1.1,1.1,0,0,0-.8.7h-.2a2.7,2.7,0,0,0-.7.8.5.5,0,0,0-.3.7,4.5,4.5,0,0,0,0,3.6l.7.7a2,2,0,0,1,1.2.8h.2a6.2,6.2,0,0,0,4.8,0c.8.1,1.7-.2,2.2.7-3.1,1.3-6.2,2.1-9.3-.1-1.3-.9-1.8,1.1-2.9,1A6.3,6.3,0,0,1,131.4,125.9Z"/><path class="cls-3" d="M128.9,121.1c-.2.9-.3,1.7-.5,2.5a1.7,1.7,0,0,1-.7,1.3h0l-1.1.8c-1.3-1.3-.5-2.9-.7-4.4s-.6-1.2-2.3-.5-1.2-.3-1.6-.8a5.9,5.9,0,0,0-7.4,1.7,17.1,17.1,0,0,1-1.1,1.4,2.3,2.3,0,0,1,.8-2.5c1.3-.9,2.7-2.1,4.1-2.3,3.1-.4,6.3-.8,9.1,1.5a2.9,2.9,0,0,0,1.3.5l.3.3Z"/><path class="cls-3" d="M123.9,90.5c-.9,2.9-.4,5.9.1,8.8.1,1.3,1.3,1.5,2.5,1.4a1.3,1.3,0,0,1-2.1.8,4.2,4.2,0,0,0-4.3-.3,11.4,11.4,0,0,1-4.5.6c-1.2,0-1.9-.9-2.1-2.1a5.7,5.7,0,0,0,4.4,1.2c3.2-.6,4.5-2.2,4.1-5.5a29.8,29.8,0,0,0-1.1-4Z"/><path class="cls-49" d="M233.3,97.1c1.8,0,2.5-1.2,3-2.6a18.6,18.6,0,0,1,1-3.1c.2-.4,1-.6,1.5-.6a1.3,1.3,0,0,1,1,.9c0,2.3-.1,4.7-.3,7a.9.9,0,0,1-1.4.7c-.9-.6-1.8-1.1-2.9-.4S232.9,98.8,233.3,97.1Z"/><path class="cls-50" d="M233.3,97.1l1.9,1.9a2.4,2.4,0,0,1-3,.7,3.7,3.7,0,0,1-1.9-2,8.6,8.6,0,0,1,.4-6.5,1.7,1.7,0,0,1,1.2-.6c.4,0,.9.5,1.1.8a12.3,12.3,0,0,1,.2,1.9C233.2,94.6,233.3,95.8,233.3,97.1Z"/><path class="cls-3" d="M113.6,123.2c.1,4.2.1,4.2,4.8,5.7-.1,1.7-.2,3.3-.2,5s.6,2.1,1.4,2.1,1.3-.7,1.6-1.5a6.7,6.7,0,0,1,.6-1.2,8.7,8.7,0,0,1-.1,2.3,2.3,2.3,0,0,1-4.4-.2,14.2,14.2,0,0,1-.2-2.9c.1-1.6-.5-2.4-2.2-2.9s-3-4.1-1.8-6.2Z"/><path class="cls-3" d="M151.6,112a8.3,8.3,0,0,0-1.4-1.3,1.4,1.4,0,0,0-1.2.4,9.7,9.7,0,0,0-.3,1.8c-.2,1.6-.5,3.1-.6,4.6a5.8,5.8,0,0,0,.6,1.7v4.3c-1.5-.7-2.3-1.4-2.6-2.8a7.9,7.9,0,0,0-1.4-2.3c1.9-.2,2.6-1.7,3-3.3s.1-2.2.2-3.3.6-2.1,1.9-2.1S151.6,110.7,151.6,112Z"/><path class="cls-3" d="M92.3,81.9a11.7,11.7,0,0,1-.7,2.5c-.5,1.1-1,1.1-2.5.3s-1.1-.6-1.7-.1v1a2.7,2.7,0,0,1,.6,1.2c.6,1.3,1.7,1.6,3.1,1.2l1.8-.6a2.3,2.3,0,0,1-1.9,1.9,6.2,6.2,0,0,1-2.7-.5c-1.8-1-2.6-3.8-1.6-5.3a2.5,2.5,0,0,1,1.4-1.1A30.5,30.5,0,0,1,92.3,81.9Z"/><path class="cls-3" d="M93.5,66.5c-.9.6-1.7,1.1-1.2,2.6a20.7,20.7,0,0,1,0,12.8c-.1-2-.1-4-.2-6s-.7-1.7-1.8-1.8l-.5-.4a16,16,0,0,1,.3-7.2l.2-.2Z"/><path class="cls-51" d="M144.8,97.9a.5.5,0,0,1,.4-.2c1.5-.5,3.1-.9,2.5-3.1a3.3,3.3,0,0,1,0-1c.1-1.3,1-1.3,2-1.4,1.4,1.9,1.1,4,1.1,6s-.6,1.8-2.6.9l-.4-.2Z"/><path class="cls-52" d="M226.6,30.7c-1.6.2-3.1.6-4,2.1s-.2,2.3-.7,3.3-.2,2.3-.2,3.4a1.4,1.4,0,0,1-1.9.1h-.1a11.8,11.8,0,0,1,0-7.2c-.1-.3,0-.5.3-.5l.7-1.1h.1l.9-.9h.1C223.5,29.6,225.4,28.3,226.6,30.7Z"/><path class="cls-3" d="M139.2,120.4l-.2-.4h-.5c-.4-.1-.5-.3-.4-.7a7.4,7.4,0,0,1,5.4-1c-.7.9-2.1,1.5-1.6,2.7s-.5,3.3-.8,4.9-2.6.9-3.7-.2h.1c-.3-.2-.4-.3-.3-.5l.3-.2h-.1a1.7,1.7,0,0,1,1-1h0a2.7,2.7,0,0,1,.8-1h0C139.8,122.1,140,121.2,139.2,120.4Z"/><path class="cls-53" d="M252.5,97.1a5.8,5.8,0,0,1-.3,1.4c-.5.8-1.6.9-1.9.2a7.6,7.6,0,0,1,.5-7.6c.1-.2.6-.3.8-.3s.7.3.7.6a24,24,0,0,1,.3,2.8A3,3,0,0,1,252.5,97.1Z"/><path class="cls-54" d="M157.3,126.5a1.3,1.3,0,0,1-.6,1.9c-.8.5-1.7-.7-2-2.6s-.1-2.2-.1-3.3.4-1.7,1.3-1.8,1.3.6,1.4,1.5Z"/><path class="cls-3" d="M73.2,45c3.5,1.2,6-.2,7.9-3.1.4-.6.9-1.2,1.3-1.9a4.4,4.4,0,0,1-2.1,4.9c-1,.6-2,1.4-3.1,2S74.5,47,73.2,45Z"/><path class="cls-3" d="M138.4,107.5a18.9,18.9,0,0,0,1.1,2.5,3.7,3.7,0,0,0,2,.7c.4,0,1.1-.8,1.2-1.3a12.2,12.2,0,0,0,.1-2.7,12.1,12.1,0,0,1,.1-1.9c1.8,3,1.4,5.8-1.2,7.3s-3.3.1-3.4-1.8A13.1,13.1,0,0,1,138.4,107.5Z"/><path class="cls-55" d="M105.5,131.4l-.6.8c-.3.7-.5,1.6-1.4,1.5s-.8-1.4-.7-2.2A37.4,37.4,0,0,1,104,127c0-.2.5-.3.7-.3a1.5,1.5,0,0,1,.8.3c.1,1.3.1,2.5.2,3.7S105.3,131.1,105.5,131.4Z"/><path class="cls-56" d="M242.8,32.8a8.2,8.2,0,0,0,0,6.7,22.5,22.5,0,0,1-.8,2.4l-.9,2.4c0-3.5-.1-7.1-.1-10.6Z"/><path class="cls-3" d="M98.2,92.4c-2.2,2.5-3.2,5.2-2,8.4a2.9,2.9,0,0,1-1.5-4c.5-1.2.9-2.4,1.4-3.5A2.1,2.1,0,0,1,98.2,92.4Z"/><path class="cls-3" d="M90.3,74.1c-.5,2.9-2.8,3.5-5.1,3.7S83.6,77,83.5,76l.4-.5c2-.6,4-1.5,6.1-1.6Z"/><path class="cls-57" d="M122,120.1l1.6.8c-.7,2.1-.3,4.1.1,6.1l-1.6,1.8C122.1,125.9,122,123,122,120.1Z"/><path class="cls-18" d="M163.1,31.7c0,1.7.1,3.4.1,5.1s-.3,2.4-2.8,2.7h-.9c.4-.2.7-.6,1.1-.6s1.5-.4,1.5-1.4-.1-2.5,0-3.7A6.2,6.2,0,0,1,163.1,31.7Z"/><path class="cls-3" d="M67,69.6c-.6-2.6-.6-2.6,1.2-2.9l3.7-.5c-.6,1.4-1.9,1.5-3,2.1A12.7,12.7,0,0,0,67,69.6Z"/><path class="cls-58" d="M219.7,32.4v7.2l-.6-1.2-1-1.4V34.4Z"/><path class="cls-59" d="M155.4,52.8a11.2,11.2,0,0,1,1.7-2.1,1.1,1.1,0,0,1,1.8.5c.2.3-.3.9-.6,1.4s-.5.3-.8.4-.8.5-.9,1h0C155.7,54.1,155.1,53.9,155.4,52.8Z"/><path class="cls-60" d="M212.1,91.4c-.3,1.9-.7,3.8-1,5.7h-.8c-.1-1.5-.1-3.1-.2-4.6Z"/><path class="cls-18" d="M164.2,41.2v-5c0-1,.1-1.9,1-2.4-.1,2,0,4-.1,6A8,8,0,0,1,164.2,41.2Z"/><path class="cls-61" d="M260.1,98c.3-1.5,1.2-2.9.8-4.6l1.1-.2c.1,2,.1,3.9.2,5.8Z"/><path class="cls-58" d="M226.6,30.7c-1.4-1.4-3.2-.5-4.8-.8,1.6-1.5,3.4-1.4,5.2-.7S227.8,30.5,226.6,30.7Z"/><path class="cls-2" d="M274.5,14.5a3.1,3.1,0,0,1,2,3v2.8l-1-1.9-.9-2A12.8,12.8,0,0,0,274.5,14.5Z"/><path class="cls-62" d="M157.9,111.8c.6.8,1.2,1.1,1.3,1.6s-.7,1.8-1.2,1.5a1.7,1.7,0,0,1-1-1.3C156.9,113.1,157.4,112.6,157.9,111.8Z"/><path class="cls-63" d="M96.1,73.2,95,68.4l1.1.2c.3,1.5.5,3,.8,4.6Z"/><path class="cls-64" d="M94.7,60.7l1.4,1.5c-.4.4-.9,1.1-1.3,1s-.9-.6-1.4-1Z"/><path class="cls-65" d="M124.2,58.3c.7.7,1.4,1,1.5,1.5s-.5.9-.7,1.4-1.2-.6-1.3-1S123.9,59.2,124.2,58.3Z"/><path class="cls-66" d="M237.1,26.7c-.5-1-1-1.5-1-1.9s.7-.9,1.1-1.3,1,.8,1,1.3S237.7,25.7,237.1,26.7Z"/><path class="cls-18" d="M166.2,32.7l3.1-2c.9,1,.7,1.6-.5,1.9Z"/><path class="cls-67" d="M116.3,40.3c-1.5-1.8-1.6-2.4-.1-4.6C116.2,37.2,116.3,38.8,116.3,40.3Z"/><path class="cls-68" d="M133.2,83.8l.7.6c.7.5,1,1.2.5,1.9a1.6,1.6,0,0,1-1.2.2,1.3,1.3,0,0,1-.8-1.8,5.9,5.9,0,0,1,.4-.8Z"/><path class="cls-69" d="M185.1,97.9l1.1.7-1.1,1.2L184,98.6Z"/><path class="cls-70" d="M226,114.5a6,6,0,0,1,1.1,1.4c0,.3-.5.7-.8,1.1s-.9-.7-1.1-1.2S225.6,115.1,226,114.5Z"/><path class="cls-71" d="M131.4,125.9c-.1,1.2-.1,2.4-.2,3.6s-1.4.4-1.6-.5Z"/><path class="cls-72" d="M186.2,35.7c0,1.2.1,2.5.1,3.8h-.9V35.6Z"/><path class="cls-73" d="M155.4,52.8l1.2,1.3a8.1,8.1,0,0,1-.9,1c-.2.1-.8.2-.8,0a1.4,1.4,0,0,1-.4-1.2C154.6,53.5,155.1,53.2,155.4,52.8Z"/><path class="cls-74" d="M148.4,89.5c-.9-1,.5-1.2.5-1.9s2,.4,1.7,1.8S149.2,89.8,148.4,89.5Z"/><path class="cls-71" d="M128.9,121.1a1.5,1.5,0,0,1-.1-.7h0c.4-.9,1.1-.8,1.7-.4s.4.4.7.3a11,11,0,0,0,.2,1.8Z"/><path class="cls-75" d="M237.1,124.8c-1.9,1.5-2.2,1.5-3.8-.2Z"/><path class="cls-76" d="M255.7,125.7a3.9,3.9,0,0,1-1.5,1c-.2.1-.5-.4-.8-.7a5.2,5.2,0,0,1,1-1.1C254.6,124.8,255.1,125.3,255.7,125.7Z"/><path class="cls-77" d="M259.4,127.1a11.4,11.4,0,0,1-1.2-1.4c-.1-.2.4-.7.6-1a4.3,4.3,0,0,1,1.3.9C260.2,125.8,259.8,126.3,259.4,127.1Z"/><path class="cls-3" d="M132.5,100.9c-1.4-.9-.8-2.4-1.1-3.7h.2c2.4.5,1.8,2,1.2,3.5Z"/><path class="cls-58" d="M221.9,36.1c-.2-1.2-.4-2.4.7-3.3C222.4,33.9,222.1,35,221.9,36.1Z"/><path class="cls-67" d="M115.1,42.5h3.2C117.2,43.5,116.2,43.6,115.1,42.5Z"/><path class="cls-3" d="M82.5,74.2c-1.1-1.1-1.2-2.1,0-3.1h.1a2,2,0,0,1,.4,2.5C82.8,73.9,82.6,74,82.5,74.2Z"/><path class="cls-3" d="M74,92.2c.6-1,1.7-.8,2.7-1v.2c-.2,1.9-1.4,1.7-2.7,1.1Z"/><path class="cls-78" d="M186.4,93.3c-.3.9-.9,1.2-1.6.6s-.7-1.2.2-1.6S186.2,92.7,186.4,93.3Z"/><path class="cls-79" d="M252.5,97.1c.1-1,.1-2,.1-2.9a.8.8,0,0,1,.7,0v2.9Z"/><path class="cls-80" d="M263.7,124.6l.9.9-1.1,1a1.5,1.5,0,0,1-.6-1C262.9,125.3,263.3,125,263.7,124.6Z"/><path class="cls-60" d="M209,98.9l1.3-1.7A1.4,1.4,0,0,1,209,98.9Z"/><path class="cls-3" d="M130.5,120l-1.7.4C129.2,119.1,129.8,119.1,130.5,120Z"/><path class="cls-18" d="M166,30l-1.8.8C164.5,29.9,165.2,29.9,166,30Z"/><path class="cls-67" d="M117.9,31.8h-1.8C116.8,30.8,117.4,30.8,117.9,31.8Z"/><path class="cls-67" d="M114.2,33.8a14.2,14.2,0,0,1-.8,1.8A14.2,14.2,0,0,0,114.2,33.8Z"/><path class="cls-67" d="M113.1,37.1c0,.9.1,1.8.1,2.6A2,2,0,0,1,113.1,37.1Z"/><path class="cls-67" d="M122.5,38.7c1.3.3,1.3,1.2,1.2,2.2Z"/><path class="cls-58" d="M219.8,39.6h1.9C220.9,40.8,220.6,40.8,219.8,39.6Z"/><path class="cls-67" d="M118,40.5c-.7,1-1.2.9-1.7-.2Z"/><path class="cls-18" d="M161.4,41.4c.5-1.1,1-1.1,1.7-.2Z"/><path class="cls-3" d="M83.5,76a16.2,16.2,0,0,1-1-1.8l.2-.2c1.2,0,1.4.7,1,1.8Z"/><path class="cls-81" d="M251.6,85.4c.8-.9.9-.9,1.5.2S252,86.2,251.6,85.4Z"/><path class="cls-82" d="M251.6,85.4l1.5.2a.8.8,0,0,1,.1.8c-.5.8-1,.6-1.6,0Z"/><path class="cls-81" d="M251.6,86.4h1.6C252.5,87.5,252.4,87.5,251.6,86.4Z"/><path class="cls-83" d="M148.4,89.5h2.2a1,1,0,0,1,.1.9C149.8,90.4,148.9,90.6,148.4,89.5Z"/><path class="cls-84" d="M186.4,93.3l-1.4-1h1.6Z"/><path class="cls-18" d="M169.1,30.5,168,30Z"/><path class="cls-58" d="M221.7,29.9l-.9.9Z"/><path class="cls-18" d="M164.1,30.8l-1,.9Z"/><path class="cls-58" d="M220.7,30.8l-.7,1.1Z"/><path class="cls-67" d="M116.1,31.7l-1,.9Z"/><path class="cls-67" d="M115,32.6l-.7,1.1Z"/><path class="cls-67" d="M118.1,33.7c0-.5.1-.9.1-1.4S118.8,33.3,118.1,33.7Z"/><path class="cls-18" d="M165.2,33.8a6.1,6.1,0,0,1,.7-1A6.1,6.1,0,0,0,165.2,33.8Z"/><path class="cls-67" d="M117.2,34.6l.8-.8Z"/><path class="cls-67" d="M116.2,35.6l.7-.9Z"/><path class="cls-67" d="M121.8,36.4a10.5,10.5,0,0,1-.8,1.1A10.5,10.5,0,0,0,121.8,36.4Z"/><path class="cls-67" d="M121,37.7a2.7,2.7,0,0,0-.7.8A2.7,2.7,0,0,1,121,37.7Z"/><path class="cls-67" d="M119,39.8l-.9.6Z"/><path class="cls-73" d="M156.6,54l.9-1Z"/><path class="cls-67" d="M121,40.4l.7-.9Z"/><path class="cls-3" d="M45.2,57.7l.9,1-.5.2a1.3,1.3,0,0,1-.7-.9Z"/><path class="cls-3" d="M46.1,58.7l1,.9-.6.2a1,1,0,0,1-.6-.9Z"/><path class="cls-3" d="M47.1,59.6l1,.9v.2c-.8.2-1.1-.2-1.1-.9Z"/><path class="cls-3" d="M96.2,100.7l.9,1.1Z"/><path class="cls-67" d="M113.3,40.5a4.1,4.1,0,0,1,.7,1.1A4.1,4.1,0,0,0,113.3,40.5Z"/><path class="cls-67" d="M120.1,41.3l.8-.8Z"/><path class="cls-85" d="M138.1,119.3a4.3,4.3,0,0,0,.4.7h-1.3c.2-.2.2-.4.3-.6S137.9,119.5,138.1,119.3Z"/><path class="cls-71" d="M128.5,128l1,.9Z"/><path class="cls-67" d="M114.1,41.6l1,.9Z"/><path class="cls-67" d="M119.1,42.1l.8-.6Z"/><path class="cls-86" d="M70.1,141.3c7-.1,14.1-.4,21,1.3l-1.8,1.5h0l-1,1h-.9c-3.2-.9-6.4-1.3-9.6,0h-2c-.1-1-.5-1.9-1.7-1.8l-3.2.8c-1.1.1-1.5-.6-1.2-1.9A7.9,7.9,0,0,1,70.1,141.3Z"/><path class="cls-5" d="M275.5,8.8v-1a.9.9,0,0,1-.3-.7c.1-.3.1-.4.2-.4a.8.8,0,0,1,1.1.2h0l.9.9h0a9.4,9.4,0,0,1,1,1l1,.9.9,1h0a9.4,9.4,0,0,0,1,1v.9c.6.5.3,1.5.9,2v.9a1.3,1.3,0,0,1,.1,1.9h-.1c-1.6-.1-2.8-.9-2.8-2.6S277.7,10.2,275.5,8.8Z"/><path class="cls-4" d="M77.8,145.1c4.4-2.4,4.6-2.4,9.6,0Z"/><path class="cls-4" d="M88.3,145.1l1-1Z"/><path class="cls-87" d="M196.8,10.7c-4.7.1-9.4.8-14,.1-3.7,1-7.3-.4-10.9-.1s-7.4-.1-11,0-6-.7-9-.9-5.7.9-8.5.8c-8.1-.2-16.2.2-24.4.1-1.7,0-3.4.5-5.2.6s-6.5,1-9.8.6a25.8,25.8,0,0,0-3.8.4l-14.8.3c-.4-2.3.5-3.5,2.8-2.8,3.8,1,7.1.7,10.4-1.6,1.4-1,3.4-.3,5.7-.5-2.6-.3-4.6-.2-6.4-1.5A.9.9,0,0,1,98,4.9h.9c6.2-1.4,12.6-.3,18.9-.4s11.7,0,17.6-.5h23.9c.5.4,1.2.6,1.3,1.3-.5,2.5,1.5,1.6,2.3,1.5,4.6-.8,9.1,0,13.3.1-2.9-.4-2.9-.4-2.8-2.6,3.3-.6,6.5-.1,9.7,0,1.9,3,4.1,3.8,7.8,2.5s5.7-1.1,8,1.4C198.9,9.6,197.6,10,196.8,10.7Z"/><path class="cls-88" d="M19.2,18.3c-1,.9-.9,2-.9,3.1V31.7c-.1,1.4.2,2.9-1,4-2.6-6.1-1.5-12.3-.6-18.5.4-2.7,1-5.3.2-7.9a2,2,0,0,1,.4-1.5h0c.8-.8,2.1-.1,2.9-.9h.9c4.1-2.2,8.6-2.3,13-2.3,11.3-.1,22.7.2,34.1.9,3,.2,6-.1,9,.3,1.1.1,2.3.4,2.7,1.6s-.5,2.4-1.5,3.2-2.8,1.9-4.3,1.8c-7.5-.7-14.9-1.7-22.3.2h0a1.2,1.2,0,0,0-1.9,0H49c-7.1.4-14.1.1-21.2,1H23.1a8.8,8.8,0,0,0-2,.9h0c-.6.5-.4,1.4-1,1.9h0c-.5.6-.3,1.4-.9,2Z"/><path class="cls-3" d="M69.1,6.8c-2.7,0-5.4.1-8.1,0s-3.2-.4-4.7-.6l-4.8-.3c-5.8-.1-11.7.2-17.6.1a24.4,24.4,0,0,0-7.1.6,35.7,35.7,0,0,1-5.7.3A11.1,11.1,0,0,1,21.3,5c.5-1.4,1.2-2,2.5-1.5a12,12,0,0,0,6.5-.1c2.6-.6,5.3-1,7.9.6a2.2,2.2,0,0,0,2.1-.1A11.5,11.5,0,0,1,45.4,3h11l4.2.6c.5,0,1,.4,1.4.3,3.3-1.2,6.6.2,9.8.1a21.6,21.6,0,0,1,8,.7,12.2,12.2,0,0,0,3.8.2H98a3.8,3.8,0,0,0-.1,1c-5.6,2.8-11.4,1.6-17.1,1C76.8,6.5,73,6,69.1,6.8Z"/><path class="cls-89" d="M17.2,8.7l.9.3c.3,2.2,1.9,4.3.5,6.6s-1.3,4.8-1.3,7.3V35.7a12.4,12.4,0,0,0-.1,2.7c.2.6.7,1.2-.2,1.4s-1.2-.3-1.5-.7a7.7,7.7,0,0,1-1.1-3c-.2-1.5.1-3.1-.1-4.7a12.9,12.9,0,0,0-.8-2.6,10.9,10.9,0,0,0-.1-1.8c.3-4.5-3.2-8.9,0-13.4h0C14.7,12,14.1,8.9,17.2,8.7Z"/><path class="cls-90" d="M269.7,4.9h1a1,1,0,0,1,0,1.3c-2.6,1.7-5.9,1.9-8.3,4-6.9.1-13.9.9-20.8.4-2.3-.1-5.6.2-4.4-4,4.7-1.9,9.7-.9,14.5-1.2,1.9-.1,3.8.5,5.6-.5h1.9C262.7,4.4,266.2,3.8,269.7,4.9Z"/><path class="cls-3" d="M257.3,4.9a9.5,9.5,0,0,1-2.1.9h-4.8a28.3,28.3,0,0,0-7.6.7c-1.8.5-3.8.2-5.7.3a3.8,3.8,0,0,1-2,1,25.5,25.5,0,0,1-3.9.2h-3.3A74.1,74.1,0,0,0,213,7.3c-2.2-.6-5.4,1.1-6.6-2.3h9.5c2.1,0,4.1.3,5.9-1.2a2.2,2.2,0,0,1,2.2.1c1.7.9,3.3,1.2,4.9,0s2.9-.4,4,.5,4.2,1.8,6.5.5a4.7,4.7,0,0,1,3.2-.6c3.7,1.2,7.6.6,11.4.7Z"/><path class="cls-3" d="M160.3,4.9l-1-.9a5.9,5.9,0,0,0,1.9-.1c5.7-1.4,11.4-.6,17.1-.7,3.6-.1,7.1,1.1,10.7.8s7-.1,10.5,0c1.4,0,2.9-.4,4,.9-2,2-4.5,1.1-6.9,1.4-4-.7-8.4,1.3-12.3-1.3H172.8A13.5,13.5,0,0,1,160.3,4.9Z"/><path class="cls-3" d="M135.4,4c-1.1,1.3-2.7.9-4.1.9H98.9c.5-.3,1-.8,1.6-.8s4.1,0,6.1-.8,1.8,0,2.7.2a31.3,31.3,0,0,0,4.2.4c4.2-.3,8.2.1,12.3.1,2.2,0,4.5.1,6.6-.8A2.4,2.4,0,0,1,135.4,4Z"/><path class="cls-87" d="M196.8,5h9.6a10.4,10.4,0,0,0,2.5.8,29.5,29.5,0,0,0,4.2.1,22.4,22.4,0,0,0-.8,3.9,76.1,76.1,0,0,0-10.7,1.1c-1.1.2-2,.4-2.1-1.1a3.9,3.9,0,0,1,3-2.7C200.6,6.4,197.7,8.4,196.8,5Z"/><path class="cls-3" d="M159.4,4a69.9,69.9,0,0,0-8,.7c-4,.5-8.2.8-12.2-.5a6.2,6.2,0,0,0-1.9-.2c.4-.3.7-.8,1.1-.8,3.4,0,6.7-.1,10,.2a11.5,11.5,0,0,0,3.7,0,41.5,41.5,0,0,1,6.1-.2C158.6,3.2,159,3.7,159.4,4Z"/><path class="cls-3" d="M13.4,13.6c-.8,4.5.2,8.9,0,13.4-1-.8-.9-1.9-.9-3a9.1,9.1,0,0,0-1.1-4.5C9.7,16.5,10.1,15.6,13.4,13.6Z"/><path class="cls-3" d="M269.7,4.9H259.2a9.5,9.5,0,0,1,2.1-.9c1.4-.2,2.9,0,4.2-.4A3.5,3.5,0,0,1,269.7,4.9Z"/><path class="cls-3" d="M270.8,5.8c0-.3-.1-.6-.1-.9h.5c3.2-.8,3.2-.8,5.3,2h-1a1.6,1.6,0,0,1-1.2.4A4,4,0,0,1,270.8,5.8Z"/><path class="cls-3" d="M17.2,8.7c-.7.8-1.4,1.5-2,2.3a24,24,0,0,0-1.8,2.6,7.3,7.3,0,0,1,1.3-4.3,3,3,0,0,1,2.6-1.5C17.3,8.1,17.2,8.4,17.2,8.7Z"/><path class="cls-3" d="M282.3,17.4a12.1,12.1,0,0,0-.1-1.9c2,.9,2.8,2.3,2,4.4-.1.4,0,.9-.1,1.4l-.9-2Z"/><path class="cls-3" d="M20.2,6.9c-.7,1-1.8.9-2.9.9C18,6.7,19.1,6.9,20.2,6.9Z"/><path class="cls-3" d="M282.2,14.6l-.9-2Z"/><path class="cls-3" d="M277.4,7.8l-.9-.9Z"/><path class="cls-3" d="M278.4,8.8a9.4,9.4,0,0,0-1-1A9.4,9.4,0,0,1,278.4,8.8Z"/><path class="cls-3" d="M279.4,9.7l-1-.9Z"/><path class="cls-3" d="M280.3,10.7l-.9-1Z"/><path class="cls-3" d="M281.3,11.7l-1-1Z"/><path class="cls-7" d="M69.1,6.8c1-1.1,2.3-.9,3.5-.9H97.9c.9,0,2.1-.2,2.8.2s3.7-.6,5.5,0a1.9,1.9,0,0,1,1,1.3c.1.3-.3.9-.7,1.1a9.7,9.7,0,0,1-1.8.3h-3.8a3.3,3.3,0,0,0-3.3,1.4,3.3,3.3,0,0,1-3.3,1.4c-2.3-.1-4.8.6-6.8-1.1a1.4,1.4,0,0,0-1.1.5,14,14,0,0,0-1,1.6c-2.2.3-4.5.7-6.8.9s-4.4.4-6.6.5l-1,.2c-5.6-1.2-11.4-.3-17.1-.7-.7,0-1.4-.6-2.1-.9a12.6,12.6,0,0,0,2.8-.5c.7-.2,1.7-.5,2-1,1.1-2.2,2.8-1.7,4.8-1.5s5.8,1.9,8.8.7a1,1,0,0,1,.9.2c3.4,2.5,5.5-.3,8-1.9.4-.3,0-1.4-.5-1.5l-2.4-.2Z"/><path class="cls-91" d="M212.2,9.7a.6.6,0,0,1-.1-.4c.2-1-1.5-1.3-.8-2.2s1.2-.8,1.8-1.2a72.1,72.1,0,0,1,15.4,1,2.3,2.3,0,0,0,2.9,0h3.8c.2,3.1-1.9,3.7-4.2,3.8s-5,0-7.3,1.1h-1c-2.2-2-4.8,0-7.2-.6l-1.8-.4A2,2,0,0,1,212.2,9.7Z"/><path class="cls-92" d="M223.7,11.7a8.1,8.1,0,0,1,6.1-1.9c2.5.1,4.3-.7,5.4-3h1.9c.1,1.8,1.5,2.3,2.9,2.6a12.2,12.2,0,0,0,3.3.2l10,.3a12.2,12.2,0,0,0,4.7-.4c1.8-.7,3.4-.1,5.1.1s1.1.2.9,1c-3.3.2-6.6-.1-9.8.8a16.1,16.1,0,0,1-3.8.1Z"/><path class="cls-93" d="M264,10.7l-.9-1c.4-2.5.4-2.5,2.1-2.8l5.6-1.1,3.8,1.1c.2.2.3.4.2.6s-.1.3-.2.3v.9c-.2,2.6-.2,2.6-2.9,3a1.5,1.5,0,0,1-2,0h-2.8c-.8-.8-2.1-.1-2.9-.9Z"/><path class="cls-92" d="M212.2,9.7h1.9l.9,1a28.3,28.3,0,0,0,4.2-.7,2.8,2.8,0,0,1,3.5,1.7c-4.2-.3-8.5.5-12.8-.6a5.5,5.5,0,0,0-1.8.2,22.8,22.8,0,0,1-11.3-.6l1.9-1.9h.4a1.2,1.2,0,0,1,.5.5v.3c.4.7.9,1,1.6.6s4.8-1.2,7.2-1.4S210.9,9.4,212.2,9.7Z"/><path class="cls-7" d="M27.8,13.6c.8-1.1,2-.9,3.1-1,3.6-.1,7.3.5,10.8-.9,2.4.6,5-.6,7.3.9-1,1.2-2.3.9-3.6.9Z"/><path class="cls-92" d="M264,10.7c1.1,0,2.2-.2,2.9.9C265.8,11.7,264.7,11.8,264,10.7Z"/><path class="cls-2" d="M272.6,12.6a1.8,1.8,0,0,1,2,1.9Z"/><path class="cls-7" d="M49.9,12.6c.7-1,1.3-1,1.9,0Z"/><path class="cls-2" d="M269.7,11.7h2v.9Z"/><path class="cls-3" d="M90.2,118.2c.2-.2.4-.5.7-.6,4.3-1.7,5-1.3,5.1,3.3,0,1.9.1,3.8,0,5.7a3.9,3.9,0,0,1-4.6,3.7l-3.3-.6c-2.7-.3-2.7-.3-3.7-3.3l-.6-.9a41.5,41.5,0,0,1-2.7,3.2c-1.6,1.7-3.7,1-4.2-1.3a23.6,23.6,0,0,1-.4-2.8c-1.9.7-1.4,2.1-1.7,3.3s-1,2-2.3,1.7-2.4-.7-3.6-1a2,2,0,0,1,1.1-2c.7-.2,1.5,0,2.2-.2s1.5-4.1,4.2-4,2,2.2,3.2,3.7c2.1-1.6,4-4.7,7-1.2.3-1.8-.8-3.1-.3-4.5l3-1.3.5.5c0,2.3,3.8,3.9,1.5,6.7-.5.2-.8-.5-1.1-.3s.6.3.6.7,2.4.6,2.3-.1c-.5-2.7.5-6-2.5-7.9Z"/><path class="cls-26" d="M86.3,120.4a6.5,6.5,0,0,1,1.7,6.1c-.2.8-.5,1.6-1.5,1.5s-.9-.8-1.1-1.3a12.1,12.1,0,0,1-.1-1.9,1.1,1.1,0,0,0-2.1-.6c-1.1,1.1-2,2.4-3,3.6a1.2,1.2,0,0,1-2-.5c-.2-1-.2-2.1-.5-3.2s-.6-1.3-1-1.3a3.7,3.7,0,0,0-1.6.7c-1.3,1.1-.9,2.6-1.1,4s-.7,1-2,.3a7.1,7.1,0,0,1-.5-7.2c1.1-1.7,3.1-.4,4.5-1.2h0c1.4-1.4,2.8-.3,3.6.5s2.8.9,4.3.4h.3l.3-.3a1.1,1.1,0,0,1,1.8.2Z"/><path class="cls-94" d="M55.5,123.7a26.4,26.4,0,0,1-2,3.7,1.7,1.7,0,0,1-1.2.5c-.4-.1-1-.5-1-.8-.2-2.1-.3-4.1-.4-6.2,0-.3.8-.9.9-.9,2.2,1.5,3.8-.8,5.8-.8l.2.2h.3a2.5,2.5,0,0,1,1.4.8h0a5.2,5.2,0,0,1,2.8,3.9,3.8,3.8,0,0,1-1.6,3.8c-.9.3-1.7.1-2-.8s-.2-2.2-.5-3.3a1.8,1.8,0,0,0-1.3-1.1C56.5,122.6,56,123.4,55.5,123.7Z"/><path class="cls-95" d="M70.1,126.9l-1.2,1.7c-2.3.9-4.6,1.5-6.5-.8s-.3-2.3-.5-3.5,1.5-3.3,3.6-3.9h0c.8-1.1,1.6-1,2.5-.1h.1c.9.5,2,.8,2.6,1.9S72.4,125.6,70.1,126.9Z"/><path class="cls-3" d="M83.9,120.3l-3.1,2.2c-.8-.9-1.3-1.9-2.2-2.4a7.1,7.1,0,0,0-2.6-.7c1.3-1.8,3-1.5,4.4-.3A6.7,6.7,0,0,0,83.9,120.3Z"/><path class="cls-3" d="M65.5,120.4c-1.1,1.2-2.2,2.3-3.2,3.5s-.5.5-.8.1-1.3-2.6-2-3.8Z"/><path class="cls-3" d="M68,120.3H65.5c.1-.3.1-.7.2-.9s.9-.9,1.4-.9S68,119.5,68,120.3Z"/><path class="cls-3" d="M76,119.4a9,9,0,0,1-2.1.8,3.7,3.7,0,0,1-1.8,0l-.6.3-.5-.4C72.5,118.6,74.3,119.3,76,119.4Z"/><path class="cls-3" d="M70,122.2l-1.9-1.9,2.9-.2.2.2C71.5,121.4,71.6,122.3,70,122.2Z"/><path class="cls-96" d="M61.5,124h.8c0,1.3.1,2.6.1,3.9H60.6Z"/><path class="cls-3" d="M86.3,120.3l-1.8-.2C85.2,119.2,85.8,119.1,86.3,120.3Z"/><path class="cls-3" d="M89.3,119.1l.9-.9.3.3a1.3,1.3,0,0,1-1,.9Z"/><path class="cls-3" d="M59.5,120.1l-1.4-.8Z"/><polygon class="cls-3" points="8.6 53.9 8.9 53.5 9 53.7 8.6 53.9"/><path class="cls-97" d="M8.7,140.3l2.8.9h2.9a16.6,16.6,0,0,0,6.6,1.8l5.9,1.1c1.1.8,2.4.3,3.7.4s2.5-.1,2.3,1.6-1.6,1.2-2.6,1.3c-4.7.1-9.4,0-14-1.4l-11.4-2c-.1-2.7-.1-5.4-.2-8.1a4.3,4.3,0,0,1,1.5-3.3c.8-.8,1.2-.7,2.3.9C6.7,135.9,6.2,138.1,8.7,140.3Z"/><path class="cls-98" d="M16.3,146.1l5.2.6c1.2.1,2.5.3,3.8.3s3.7-.5,5.6-.1c.3.1,1.1-.3,1.1-.6s-.5-1-1.1-1.2-2.9.5-4-.9h8.6c-1.3,1.5,1.8,1.5,1,2.8l-3.9,1H23.5A15.2,15.2,0,0,1,16.3,146.1Z"/><path class="cls-3" d="M20.1,16.4c.3-.6.7-1.2,1-1.9S20.4,15.8,20.1,16.4Z"/><path class="cls-3" d="M19.2,18.4l.9-2Z"/><path class="cls-99" d="M25,128.8l-.3,1.7c-2.1.3-4.2-.3-6.1,1.1s-1.3-.1-1.9-.1a1.4,1.4,0,0,1-1.2-1h0c-.8-.5-.6-1.4-.9-2h.1q-1.6-1.3,0-2.7h-.1a4.2,4.2,0,0,1,.8-2.1h0a4.6,4.6,0,0,1,3.8-3.8h.1c2.3-.3,2.1-2.4,2.9-3.8h0c1.4-1.9,2.8-2.4,3.3.5s-.2,3.5.1,5.2S25.3,126.6,25,128.8Z"/><path class="cls-3" d="M19.2,120.2,15.4,124v-3.9Z"/><path class="cls-3" d="M14.7,126v2.7C13.1,127.3,13.1,127.3,14.7,126Z"/><path class="cls-3" d="M15.4,124l-.8,2.1A1.7,1.7,0,0,1,15.4,124Z"/><path class="cls-3" d="M14.6,128.6l.9,2C14.5,130.2,14.5,129.4,14.6,128.6Z"/><path class="cls-3" d="M15.5,130.5l1.2,1Z"/><path class="cls-100" d="M53,30c.1-.3.3-.5.3-.8s0-2.1,1.1-2.3,1.4.6,2,1l2.9,2.3c1.4,1.4,3,2.8,4.3,4.3s1.2,2.2.2,3.4-2.6,4.3-4.9,5.7a9,9,0,0,0-2.2,2.5,25,25,0,0,1-2.2,2.4,1.5,1.5,0,0,1-2.5-.9,18.1,18.1,0,0,1-.3-2.3c-.9-2.7-3.3-1.6-5.1-2.2s-3.9-.2-2.3-3S50,38.3,53,38.3c1.4,0,2.9.3,4.2-.3s1.7-1.1,1.2-2.2-1.4-1-2.3-.3c-2.6,2-5.7,1.4-8.7,1.2s-3.3-.7-2.5-3,2.3-.3,3.4-.8h3.5c1-.7,0-2.2,1.2-2.8Z"/><path class="cls-3" d="M48.3,32.9,44.9,34c-.3.2-.5.2-.7-.2h-.1C45.7,31.8,45.7,31.8,48.3,32.9Z"/><path class="cls-3" d="M53,30c0,1.1.6,2.4-1.2,2.8C51.9,31.7,51.6,30.5,53,30Z"/><path class="cls-101" d="M36.5,147c-.5-.9-2.2-1.4-1-2.8h1.9c1.5-1,3.3.2,4.8-.9h2a1.2,1.2,0,0,0,1.9,0h3.8c1,.7,2.1,1.4,1,2.8H48a1.2,1.2,0,0,0-1.9,0c-1,1.3-2.5.8-3.9.9a3.7,3.7,0,0,0-3.8,0Z"/><path class="cls-98" d="M50.9,146l-1-2.8,7.7-1,4.5,1.1c.3.1.7.8.6,1a1.4,1.4,0,0,1-1.1.7H55.4A7.8,7.8,0,0,0,50.9,146Z"/><path class="cls-98" d="M42.2,143.2c-1.4,1.5-3.2.7-4.8.9C38.8,142.7,40.6,143.3,42.2,143.2Z"/><path class="cls-98" d="M46.1,143.2c-.6.9-1.3,1-1.9,0Z"/><path class="cls-3" d="M30.8,100.1c-.1,1,.1,2.1-1,2.7l-.3-.2c-.5-1.3-.8-2.4,1.1-2.7Z"/><path class="cls-3" d="M62.5,100.1c-.3.6-.7,1.2-1,1.9l-.4-.5c-.2-1,0-1.7,1.2-1.6Z"/><path class="cls-3" d="M61.5,102l-1,.9-.3-.3a1,1,0,0,1,1.1-.9Z"/><path class="cls-98" d="M38.4,147c1.8-1.3,2-1.3,3.8,0Z"/><path class="cls-98" d="M46.1,146.1c.6-1,1.3-1,1.9,0Z"/><path class="cls-102" d="M46.9,59.8l1.1.9c1.5,1.5,3.2,3,4.7,4.6s1.7,2.5.3,4.1-5.8,5.9-8.6,8.9c-.8.8-1.8,1.2-2.6.5s-.4-1.4-.5-2.1a1.7,1.7,0,0,1,.1-1c.7-2-.3-2.6-2.1-2.3a24.6,24.6,0,0,1-4.7.1c-2.8,0-3.1-1.4-2-3.6A21.5,21.5,0,0,1,41.2,68c1.8-.1,3.5.8,5.2.7a1.1,1.1,0,0,0,1.2-1.2,1,1,0,0,0-1.4-.8,29.9,29.9,0,0,1-5.2,1,18,18,0,0,1-5.2-.3c-1.4-.3-3-.6-2.3-2.7A8,8,0,0,1,36,63.6a28.8,28.8,0,0,1,4.2-.2c1.7-.2,1.9-.4,1.9-1.9s-.1-1-.1-1.4c0-2.3,0-2.3,2.9-2.1l1,.9Z"/><path class="cls-103" d="M32.9,70.4c-.2,2.4,0,2.8,1.8,2.7l5.5-.7c1.7-.1,2.2.4,1.9,2.2a4.1,4.1,0,0,1-.7,1.1c-.3-.9-.6-1.8-1.9-1.7s-5.1.4-7.6.8-4-.5-4.2-3.2a18.3,18.3,0,0,1,.2-3.3c.5-2.1,1.9-2.9,3.9-2.3S33.2,68.7,32.9,70.4Z"/><path class="cls-104" d="M32.9,70.4a5.8,5.8,0,0,1-.5-1.6c.1-.8.3-1.7-.6-2.1a2.1,2.1,0,0,0-2.6.3l-1.3,1.3c.3-2.7.3-2.8,2.3-3.1s1.9.3,2.5-.7l.8.2c.2.9.4,1.8,1.7,1.8h7c1.5.8,1.7,1.7.1,2.6Z"/><path class="cls-105" d="M44.2,33.8a.8.8,0,0,1,.7.2c.3.8.5,1.6,1.5,1.6h7.1c1.6,0,2.4-.6,2.4-2.2s.6-1.1,1.3-.7,3,1.8,3.9,3.5l-2.5,2.8a3,3,0,0,1-2.6.8,30.8,30.8,0,0,0-10.9.5c-1.2-1.5-4.1-1.9-2.9-4.8Z"/><path class="cls-106" d="M42.2,35.6c.4.6.7,1.6,1.2,1.8s1.8,1.6,1.7,3-.4,2.2.9,2.2l3.9-.2c1.7,0,1.8.2,1.8,2.9l-4.1-1.1a45.7,45.7,0,0,1-6.3-1.9c-2.3-1-2.8-2.8-1.2-4.9A9.1,9.1,0,0,1,42.2,35.6Z"/><path class="cls-107" d="M61.3,101.7l-1.1.9c-2.2.5-4.4.7-6.3-.8a1.8,1.8,0,0,1-.9-2,2,2,0,0,1,2.4-1.1l1.7.8c.6.3,1.3.2,1.4-.6a1.6,1.6,0,0,0-.6-1.5c-1-.7-2.3-1.1-3.4-1.8a2.1,2.1,0,0,1-.8-2.5,4,4,0,0,1,3.1-2.6,1.4,1.4,0,0,1,1.7,1.6c-.2,1-.5,1.7.7,2.3s2.9,3.1,3.1,5.5Z"/><path class="cls-33" d="M38.7,93.5c4.9-1.2,5.7-.7,6.5,4.3a2.7,2.7,0,0,1,0,.9c.3.8,1.6,1.2,1,2.4l-1.3,1.5c-1.1.2-2.1.5-3.2.6a3.7,3.7,0,0,1-3.8-1.4c-1.1-1.4-.1-2.6.7-3.8s1.1-1.4-.2-1.9S38.2,94.3,38.7,93.5Z"/><path class="cls-108" d="M46.2,101.1a24.4,24.4,0,0,0-1-2.4c.7.1,1.7.7,1.8-.6a27.1,27.1,0,0,0-.1-2.9c.1-1.9.9-2.1,2.9-.9.2,2.1.4,4.1.5,6.2,0,.4-.4,1.1-.6,1.1s-1.3,0-1.5-.4S46.8,100.9,46.2,101.1Z"/><path class="cls-109" d="M28.9,121.2c2.2,1.2,2.6,2.1,1.7,3.8l-1.4,1.8c-.7.9.1,1.4.6,1.9s2.1.2,1.9,1.7c-2.3,1-4.1-.1-5.7-1.7s-1-2.2-1-3.4a4,4,0,0,1,2-3h0c.3-.9,1.3-.6,1.8-1.1Z"/><path class="cls-26" d="M36.3,126a16.4,16.4,0,0,1-2.1-2.5,1.7,1.7,0,0,1,.8-2.4,2.4,2.4,0,0,1,1.7,0c.2,2.2,2.1,3,3.2,4.5a2.7,2.7,0,0,1-.2,3.5,2.8,2.8,0,0,1-3.5.5c-1.1-.6-1-1.6.2-2.9s.3-.4.2-.5Z"/><path class="cls-110" d="M25.8,124.9c.1,1.2.1,2.5.2,3.8H25c-1.4-2-.8-3.9-.2-5.9C25.7,123.2,25.4,124.2,25.8,124.9Z"/><path class="cls-111" d="M31.7,130.4l-1.9-1.7,2.9-.7.9.8C33.5,129.9,32.7,130.2,31.7,130.4Z"/><path class="cls-112" d="M36.3,126c.3.1.7,0,.9.2s.6,1,.5,1.1-1,0-1.3-.6A.9.9,0,0,1,36.3,126Z"/><path class="cls-113" d="M33.6,128.8l-.9-.8C33.4,127.7,33.8,127.8,33.6,128.8Z"/><path class="cls-3" d="M49.8,87.6c.6.3,1,.8.6,1.5a1.9,1.9,0,0,1-2.3,1.1,3.9,3.9,0,0,1-1.7-1.4,1.8,1.8,0,0,1,.7-2.5,2.5,2.5,0,0,1,1.7-.5c1,.2,1,1.1,1,1.8Z"/><path class="cls-3" d="M25.8,124.9a12.4,12.4,0,0,0-1-2c.1-2,.3-4,.3-6a2.1,2.1,0,0,0-.7-1.5c-.8-.6-1.3.2-1.9.7l-.3.3c.6-1.8,1.1-2.2,2.4-1.9s2.2,1.1,1.8,2.6-1,3.6.6,5.2Z"/><path class="cls-3" d="M22.2,116.4v1.3c-.3,2.2-.3,2.7-2.9,2.5Z"/><path class="cls-3" d="M28.8,121.2,27,122.3A1.5,1.5,0,0,1,28.8,121.2Z"/><path class="cls-3" d="M83.5,101.9c-2.2,2.8-5.3,3.1-8.4,2.7-1.5-.1-2.1-1.3-2.2-2.7l.6-.3c3.3,1.9,6.6-.8,9.8.1Z"/><path class="cls-3" d="M73,96.1a2.3,2.3,0,0,1,2,1.1,2.4,2.4,0,0,1-1.5,3l-.6-.3C72.9,98.7,72.9,97.4,73,96.1Z"/><path class="cls-3" d="M72.9,101.9c-.9-.6-.9-1.3,0-2H73a1.2,1.2,0,0,1,.1,1.8Z"/><path class="cls-14" d="M30.6,99.9c-.3.9-.7,1.8-1.1,2.7-2.4-.4-2.7-.6-2.6-2.4s.2-1.9.2-2.8.1-1.9-1-1.7-1.4.8-1.7,1.4a24.9,24.9,0,0,0-.9,3.7c-.3.8-.8,1.5-1.7,1.2s-1.2-.7-1.2-1.2c-.2-2.8-.3-5.7-.3-8.6,0-.7,1.1-1.1,1.8-.5s1.4,1.5,2.8.8a3.3,3.3,0,0,1,3.6.5,1.5,1.5,0,0,0,2.4-.4h2.5c1,1.2,2.5,2,2.2,3.9a7.5,7.5,0,0,1,0,4.7c-1.1.9-1.9.9-2,.1s-.7-3.4-1-5.2C30.7,97,30.5,98.4,30.6,99.9Z"/><path class="cls-114" d="M38.4,96.1l3.1-.7c.2,0,.5.4.6.6a1.1,1.1,0,0,1-.1.8L38.6,98C38.5,97.4,38.5,96.7,38.4,96.1Z"/><path class="cls-33" d="M35.6,101.2V96.5C36.6,98.1,36.9,99.7,35.6,101.2Z"/><path class="cls-12" d="M73.1,101.8A10.9,10.9,0,0,0,73,100l2-2.8,4.5-1.3c.1,0,.3-.5.2-.7s-.4-.7-.6-.7l-2.8.6c-2.2.5-2.5.1-2.2-2.6l2.7-1.1h.9c4.5-.2,5.5.7,5.7,5.2a43.4,43.4,0,0,1-.1,5.1c-1.3.5-2.6.9-3.9,1.5S74.8,103.9,73.1,101.8Z"/><path class="cls-115" d="M81.7,89.4l-.7.5-4.3-3.4c-.2-.2,0-1,.2-1.3a1.9,1.9,0,0,1,1.2-.3c1.2,1.2,2.4,2.4,3.5,3.7S81.7,89.2,81.7,89.4Z"/><path class="cls-116" d="M8.7,140.3c-2.8-.5-2.9-.6-2.9-2.6s.1-3,2.7-4.1C8.6,135.8,8.7,138.1,8.7,140.3Z"/><path class="cls-3" d="M73,39.6l-.9,1Z"/><path class="cls-2" d="M274.6,7.8V6.9h.9v.9h-.9Z"/><path class="cls-117" d="M65.5,59.1c.2-.3.3-.9.6-1.1,2.3-1.5,5.3-1.9,7.4.2a1.8,1.8,0,0,1-.1,2.9,14.9,14.9,0,0,1-4.1,2.2c-2.8.8-3.5.2-3.6-2.6A10,10,0,0,0,65.5,59.1Z"/><path class="cls-118" d="M142.3,87.3c0-.2-.2-.3-.2-.4a2.5,2.5,0,0,1,1.7-3.3,1.5,1.5,0,0,1,1.3.3c.2.3.3,1,.1,1.2a25,25,0,0,1-2.4,2.2Z"/><path class="cls-119" d="M214.7,34.6c.3.2,1,.5,1.1.9a2.1,2.1,0,0,1-.7,1.6c-1.1.9-2.2,1-2.9.3a2.8,2.8,0,0,1-.4-1.3C211.9,35.2,213,34.7,214.7,34.6Z"/><path class="cls-120" d="M163.3,125.7c-.5-.7-.9-1-.9-1.4a1.2,1.2,0,0,1,1.3-1.4c.4,0,1.1.8,1,1.1S163.9,125,163.3,125.7Z"/><path class="cls-121" d="M208,95.3a4.8,4.8,0,0,1-1.7,1.8c-.1.1-.6,0-.8-.2a1.9,1.9,0,0,1,.6-2.5c.3-.3,1.1-.1,1.6-.1S208.2,95,208,95.3Z"/><path class="cls-122" d="M132.8,100.6l-1.2-3.5c.1-1.1.1-2.2.3-3.3a1.4,1.4,0,0,1,1.1-.7c.4,0,1.1.4,1.1.7.4,1.9.7,3.7,1,5.6S134.6,100.8,132.8,100.6Z"/><path class="cls-85" d="M141.2,127.9c-1.6,1.5-3.2,1.1-4.8,0Z"/><path class="cls-85" d="M137.4,125.7a4.7,4.7,0,0,0,3.7.2C139.2,127.2,138.9,127.2,137.4,125.7Z"/><path class="cls-85" d="M139.2,120.4c1.1,1.2,1.1,1.2,0,2.6Z"/><path class="cls-85" d="M134.3,126.3c-1.1-1.6-1.1-2,0-3.6Z"/><path class="cls-85" d="M135.5,121.1l.8-.7Z"/><path class="cls-85" d="M134.6,122a2.7,2.7,0,0,0,.7-.8A2.7,2.7,0,0,1,134.6,122Z"/><path class="cls-85" d="M139.2,123.1l-.8,1Z"/><path class="cls-85" d="M138.4,124.1l-1,1Z"/><path class="cls-123" d="M144,124.9a4.6,4.6,0,0,0,.7-.7l.3.7C144.6,125.2,144.3,125.2,144,124.9Z"/><path class="cls-85" d="M137.5,125.1v.7l-.6-.4Z"/><path class="cls-124" d="M144,124.9h1l-.7.8Z"/><path class="cls-85" d="M136.2,127.8,135,127Z"/><path class="cls-125" d="M116.9,123.9l1.1-1.3c.1-.1.7.1.8.2s.9,2.3-.6,3A2.9,2.9,0,0,1,116.9,123.9Z"/><path class="cls-126" d="M116.9,123.9c1,.3,1.2,1.1,1.3,1.9C116.2,125.8,116.2,125.8,116.9,123.9Z"/><path class="cls-17" d="M83.7,75.8l-1-1.8c0-1-.1-1.9-.1-2.8a45.3,45.3,0,0,1,2.7-4.8c1.3-1.6,2.5-1.5,4.8.1C91,70,91,70,90,73.9,88.3,75.7,86.4,77.1,83.7,75.8Z"/><path class="cls-127" d="M74.1,75.8c0-1.4-.2-2.9-.1-4.3a9.1,9.1,0,0,1,5.7-7.6A2,2,0,0,1,82.4,65c.5.8.3,1.8-.6,1.9-3.2.5-4,2.6-4,5.4,0,1,.1,2,.1,2.9s-1.2,2.2-3,1.2-.5-.4-.8-.6Z"/><path class="cls-128" d="M208.5,71.7l-1.7-.9c.4-.4.9-1.1,1.3-1.1s1,.5,1.5.8Z"/><path class="cls-129" d="M193.6,123.5c-.2,1.4-1,2.2-2.2,2.1a1.4,1.4,0,0,1-1.2-.7,1.5,1.5,0,0,1,.1-1.3,5.3,5.3,0,0,1,1.4-1.2,1.5,1.5,0,0,1,1.3,0C193.4,122.6,193.5,123.2,193.6,123.5Z"/><path class="cls-130" d="M115.1,94.2a18.4,18.4,0,0,1,2.5-.9c.3-.1.7.4,1.1.6s-.6.8-.9.9a3.2,3.2,0,0,1-1.4.1Z"/><path class="cls-131" d="M87.4,84.6a9.3,9.3,0,0,1,.5-1l1.2,1.1Z"/><path class="cls-131" d="M88.1,86.8l-.6-1.2Z"/><path class="cls-132" d="M228.7,37.2c.4-.6.6-1.4,1-2s1.2-1.6,2.4-1.3l.3.3a2.3,2.3,0,0,1-1,2.9,3.2,3.2,0,0,1-1.7.6C229.5,37.8,229.2,37.5,228.7,37.2Z"/><path class="cls-133" d="M117.2,98.1c.5-1,1.1-1.1,1.7-.1A1.1,1.1,0,0,1,117.2,98.1Z"/><path class="cls-134" d="M117.2,98.1h1.7C118.3,99.1,117.8,99,117.2,98.1Z"/><path class="cls-135" d="M258.8,95.2a14.1,14.1,0,0,1-1.6,1.4c-.2,0-.9-.5-.9-.7a4.9,4.9,0,0,1,.5-1.6Z"/><path class="cls-71" d="M127.7,124.9a8.3,8.3,0,0,0,.7-1.3A8.3,8.3,0,0,1,127.7,124.9Z"/><path class="cls-71" d="M126.6,125.8l1.1-.8Z"/><path class="cls-91" d="M196.8,5c.8,1,2,.9,3,.9l4.7.2c.4,0,.7.5,1.1.8s-.6.8-.8.8c-2.1-.2-3.6,1-5.1,2l-1-.9a5.1,5.1,0,0,0-1.6-.9c-1.2-.2-2.5.1-3.7-.2a5.1,5.1,0,0,0-4.5.7c-2.3,1.8-4,.8-5.7-.8s-.4-1.1.1-1.6l1-1Z"/><path class="cls-91" d="M160.3,4.9h12.5a7.9,7.9,0,0,0,1.6.8h3.8c.9,0,1.9-.2,2.6.7s-.9,1.2-2.6,1.2l-10.9-.3c-.5,0-1-.2-1.4.1-2.7,1.8-5.5-.2-8.2,0-.2,0-.6-.5-.6-.6a1.3,1.3,0,0,1,.7-.9C158.6,5.6,159.5,5.3,160.3,4.9Z"/><path class="cls-92" d="M231.4,6.9c-1.5,1.2-1.5,1.2-2.9,0Z"/><path class="cls-87" d="M215,10.7l-.9-1Z"/><path class="cls-87" d="M198.7,8.8l1,.9Z"/><path class="cls-94" d="M89.5,119.4l1-.9,2.8-.5a1.6,1.6,0,0,1,1.8,1.2,1.3,1.3,0,0,1-1.3,1.6l-2.1.8a16.7,16.7,0,0,1,3,2.2,2.9,2.9,0,0,1-.3,4.3,3.4,3.4,0,0,1-4.3.4c-1.1-.8-.2-1.7.2-2.5h1.5c-.1-.4,0-1-.2-1.1C89.6,123.5,88.5,121.9,89.5,119.4Z"/><path class="cls-136" d="M70,122.2c1.1-.2,1.1-1.1,1.2-1.9h.9c-.1,2.6-.1,5.1-.1,7.6l-1.9-.9C70.8,124.5,70.8,124.5,70,122.2Z"/><path class="cls-1" d="M90.3,126l-.4-.4a1,1,0,0,1,.5.4Z"/><path class="cls-137" d="M68.2,124.3c.2,1.1-1.3,2.5-2.5,2.3s-.2-.2-.3-.3a1.6,1.6,0,0,1,.2-2.1c.4-.6,1.1-1.2,2-.6Z"/><path class="cls-138" d="M7.7,80.9a6.1,6.1,0,0,0,.1-1.4C8.3,80,8.3,80.5,7.7,80.9Z"/><path class="cls-139" d="M21.4,125.6a2.9,2.9,0,0,1-1.7,2.9,1.9,1.9,0,0,1-1.3,0,1,1,0,0,1-.4-.8,4.4,4.4,0,0,1,1.4-3.9,1.7,1.7,0,0,1,1.3-.4c.3,0,.5.6.7,1Z"/><path class="cls-140" d="M42.3,69.1a2,2,0,0,0-.1-2.6c.9-.3,1.9-.4,2.8-.8s1.3-1.2,1.8-1.1a7.3,7.3,0,0,1,2.3,1.6c1,1,1,1.5.1,2.5l-1.6,1.7c-.6.7-1.3.9-1.9,0S43.5,69.3,42.3,69.1Z"/><polygon class="cls-141" points="42 100.5 41.7 100.6 41.7 100.3 42 100.5"/><path class="cls-142" d="M49.8,87.6c-.1.3-.1.7-.3.9a2.4,2.4,0,0,1-1.2.3c-.1,0-.4-.6-.3-.7a1.8,1.8,0,0,1,.9-.6c.3-.1.6.1.9.1Z"/><path class="cls-143" d="M79.5,100c-.2.9-.9,1-1.7.8s-.1-.6-.2-.9A1.4,1.4,0,0,1,79.5,100Z"/><path class="cls-144" d="M79.5,100H77.6C78.2,99.2,78.9,98.7,79.5,100Z"/><path class="cls-145" d="M88.4,69.6a3.6,3.6,0,0,1-1.5,3.2,1,1,0,0,1-.8-.3,3.2,3.2,0,0,1,1.1-3.3,1.5,1.5,0,0,1,.9.1C88.2,69.3,88.3,69.5,88.4,69.6Z"/></g></g></svg>